G04 #@! TF.GenerationSoftware,KiCad,Pcbnew,(5.0.0)*
G04 #@! TF.CreationDate,2019-09-06T15:11:28-04:00*
G04 #@! TF.ProjectId,Christmas Tree,4368726973746D617320547265652E6B,rev?*
G04 #@! TF.SameCoordinates,Original*
G04 #@! TF.FileFunction,Profile,NP*
%FSLAX46Y46*%
G04 Gerber Fmt 4.6, Leading zero omitted, Abs format (unit mm)*
G04 Created by KiCad (PCBNEW (5.0.0)) date 09/06/19 15:11:28*
%MOMM*%
%LPD*%
G01*
G04 APERTURE LIST*
%ADD10C,0.100000*%
G04 APERTURE END LIST*
D10*
X132377825Y-53381861D02*
X131925531Y-54433600D01*
X132691142Y-53183600D02*
X132377825Y-53381861D01*
X133062695Y-53360519D02*
X132691142Y-53183600D01*
X133892763Y-54433600D02*
X133062695Y-53360519D01*
X134470115Y-55103209D02*
X133892763Y-54433600D01*
X135137797Y-55669538D02*
X134470115Y-55103209D01*
X135793545Y-56061771D02*
X135137797Y-55669538D01*
X136321343Y-56183600D02*
X135793545Y-56061771D01*
X137166248Y-56464389D02*
X136321343Y-56183600D01*
X137416236Y-57122253D02*
X137166248Y-56464389D01*
X136915407Y-57958210D02*
X137416236Y-57122253D01*
X135824981Y-58597460D02*
X136915407Y-57958210D01*
X134951007Y-59023035D02*
X135824981Y-58597460D01*
X134731302Y-59439176D02*
X134951007Y-59023035D01*
X134951261Y-60004936D02*
X134731302Y-59439176D01*
X135979968Y-61204449D02*
X134951261Y-60004936D01*
X137028098Y-62403440D02*
X135979968Y-61204449D01*
X137214711Y-62864070D02*
X137028098Y-62403440D01*
X137008183Y-63119697D02*
X137214711Y-62864070D01*
X136116088Y-63183600D02*
X137008183Y-63119697D01*
X135482960Y-63252533D02*
X136116088Y-63183600D01*
X134947253Y-63456981D02*
X135482960Y-63252533D01*
X134587743Y-63759152D02*
X134947253Y-63456981D01*
X134461100Y-64114260D02*
X134587743Y-63759152D01*
X135400874Y-67120428D02*
X134461100Y-64114260D01*
X139936718Y-73258370D02*
X135400874Y-67120428D01*
X144845407Y-79075258D02*
X139936718Y-73258370D01*
X147929598Y-81225020D02*
X144845407Y-79075258D01*
X149023456Y-81740812D02*
X147929598Y-81225020D01*
X149128460Y-82115309D02*
X149023456Y-81740812D01*
X148675059Y-82518272D02*
X149128460Y-82115309D01*
X146711100Y-83331206D02*
X148675059Y-82518272D01*
X144453695Y-84448449D02*
X146711100Y-83331206D01*
X143690895Y-85555278D02*
X144453695Y-84448449D01*
X143848620Y-87177451D02*
X143690895Y-85555278D01*
X145374216Y-90799688D02*
X143848620Y-87177451D01*
X147424258Y-94127184D02*
X145374216Y-90799688D01*
X150446410Y-97240761D02*
X147424258Y-94127184D01*
X154107156Y-99844352D02*
X150446410Y-97240761D01*
X158060294Y-101656620D02*
X154107156Y-99844352D01*
X161663549Y-102895360D02*
X158060294Y-101656620D01*
X158194291Y-105039480D02*
X161663549Y-102895360D01*
X156783049Y-105860395D02*
X158194291Y-105039480D01*
X155411612Y-106553765D02*
X156783049Y-105860395D01*
X154230801Y-107062001D02*
X155411612Y-106553765D01*
X153593066Y-107183600D02*
X154230801Y-107062001D01*
X152699089Y-108147353D02*
X153593066Y-107183600D01*
X153460300Y-110204914D02*
X152699089Y-108147353D01*
X156144739Y-113057747D02*
X153460300Y-110204914D01*
X159757202Y-115574220D02*
X156144739Y-113057747D01*
X161778397Y-116592308D02*
X159757202Y-115574220D01*
X164415268Y-117652153D02*
X161778397Y-116592308D01*
X167202655Y-118592372D02*
X164415268Y-117652153D01*
X169711100Y-119248486D02*
X167202655Y-118592372D01*
X171915095Y-119783218D02*
X169711100Y-119248486D01*
X173772037Y-120354574D02*
X171915095Y-119783218D01*
X175226752Y-120904953D02*
X173772037Y-120354574D01*
X175461100Y-121253836D02*
X175226752Y-120904953D01*
X174867672Y-122548660D02*
X175461100Y-121253836D01*
X171755876Y-125060377D02*
X174867672Y-122548660D01*
X168203908Y-127495183D02*
X171755876Y-125060377D01*
X164968613Y-129178556D02*
X168203908Y-127495183D01*
X161217942Y-130548624D02*
X164968613Y-129178556D01*
X155720777Y-132109128D02*
X161217942Y-130548624D01*
X149723665Y-133563759D02*
X155720777Y-132109128D01*
X144211100Y-134640868D02*
X149723665Y-133563759D01*
X140461100Y-135274226D02*
X144211100Y-134640868D01*
X140461100Y-140760298D02*
X140461100Y-135274226D01*
X140175634Y-144761725D02*
X140461100Y-140760298D01*
X139109530Y-146618707D02*
X140175634Y-144761725D01*
X136894413Y-147479172D02*
X139109530Y-146618707D01*
X131803163Y-147632450D02*
X136894413Y-147479172D01*
X127428678Y-147258868D02*
X131803163Y-147632450D01*
X125046034Y-146080541D02*
X127428678Y-147258868D01*
X123823420Y-143815219D02*
X125046034Y-146080541D01*
X123461100Y-139734174D02*
X123823420Y-143815219D01*
X123461100Y-134529638D02*
X123461100Y-139734174D01*
X115211100Y-133296560D02*
X123461100Y-134529638D01*
X106910115Y-131895561D02*
X115211100Y-133296560D01*
X102039837Y-130571902D02*
X106910115Y-131895561D01*
X98443850Y-128779893D02*
X102039837Y-130571902D01*
X94870465Y-125993290D02*
X98443850Y-128779893D01*
X93180843Y-124387618D02*
X94870465Y-125993290D01*
X91756351Y-122927388D02*
X93180843Y-124387618D01*
X90615310Y-121670795D02*
X91756351Y-122927388D01*
X90461100Y-121263645D02*
X90615310Y-121670795D01*
X90661086Y-120947122D02*
X90461100Y-121263645D01*
X91850032Y-120422340D02*
X90661086Y-120947122D01*
X93377154Y-119866579D02*
X91850032Y-120422340D01*
X95189378Y-119333788D02*
X93377154Y-119866579D01*
X99933334Y-117665124D02*
X95189378Y-119333788D01*
X105032988Y-115089187D02*
X99933334Y-117665124D01*
X109462533Y-112241190D02*
X105032988Y-115089187D01*
X111772494Y-109831106D02*
X109462533Y-112241190D01*
X112558142Y-108368856D02*
X111772494Y-109831106D01*
X112484717Y-107524121D02*
X112558142Y-108368856D01*
X111655338Y-106767464D02*
X112484717Y-107524121D01*
X108827983Y-105331189D02*
X111655338Y-106767464D01*
X106145194Y-103802230D02*
X108827983Y-105331189D01*
X105111130Y-102458896D02*
X106145194Y-103802230D01*
X105548057Y-101531313D02*
X105111130Y-102458896D01*
X107430319Y-101183600D02*
X105548057Y-101531313D01*
X110177839Y-100320601D02*
X107430319Y-101183600D01*
X114685438Y-96838160D02*
X110177839Y-100320601D01*
X118968737Y-92743413D02*
X114685438Y-96838160D01*
X121446922Y-89211392D02*
X118968737Y-92743413D01*
X122999203Y-86084797D02*
X121446922Y-89211392D01*
X123333130Y-84933543D02*
X122999203Y-86084797D01*
X123016960Y-84387628D02*
X123333130Y-84933543D01*
X122026200Y-84183600D02*
X123016960Y-84387628D01*
X121307070Y-84120401D02*
X122026200Y-84183600D01*
X120286423Y-83907431D02*
X121307070Y-84120401D01*
X119170503Y-83603356D02*
X120286423Y-83907431D01*
X118118522Y-83243452D02*
X119170503Y-83603356D01*
X115645744Y-82303303D02*
X118118522Y-83243452D01*
X120803422Y-76873606D02*
X115645744Y-82303303D01*
X128147140Y-69022617D02*
X120803422Y-76873606D01*
X130843989Y-65569373D02*
X128147140Y-69022617D01*
X131001135Y-63990207D02*
X130843989Y-65569373D01*
X129806112Y-63183600D02*
X131001135Y-63990207D01*
X128914017Y-63119697D02*
X129806112Y-63183600D01*
X128707489Y-62864070D02*
X128914017Y-63119697D01*
X128894102Y-62403440D02*
X128707489Y-62864070D01*
X129942232Y-61204449D02*
X128894102Y-62403440D01*
X130970939Y-60004936D02*
X129942232Y-61204449D01*
X131190898Y-59439176D02*
X130970939Y-60004936D01*
X130971193Y-59023035D02*
X131190898Y-59439176D01*
X130097219Y-58597460D02*
X130971193Y-59023035D01*
X128954805Y-57935544D02*
X130097219Y-58597460D01*
X128506912Y-57103171D02*
X128954805Y-57935544D01*
X128849970Y-56445035D02*
X128506912Y-57103171D01*
X129854111Y-56183600D02*
X128849970Y-56445035D01*
X130437277Y-56053827D02*
X129854111Y-56183600D01*
X131037208Y-55669538D02*
X130437277Y-56053827D01*
X131562247Y-55102712D02*
X131037208Y-55669538D01*
X131925531Y-54433600D02*
X131562247Y-55102712D01*
M02*
