G04 #@! TF.GenerationSoftware,KiCad,Pcbnew,(5.0.0)*
G04 #@! TF.CreationDate,2019-09-06T15:11:28-04:00*
G04 #@! TF.ProjectId,Christmas Tree,4368726973746D617320547265652E6B,rev?*
G04 #@! TF.SameCoordinates,Original*
G04 #@! TF.FileFunction,Legend,Bot*
G04 #@! TF.FilePolarity,Positive*
%FSLAX46Y46*%
G04 Gerber Fmt 4.6, Leading zero omitted, Abs format (unit mm)*
G04 Created by KiCad (PCBNEW (5.0.0)) date 09/06/19 15:11:28*
%MOMM*%
%LPD*%
G01*
G04 APERTURE LIST*
%ADD10C,0.220000*%
%ADD11C,0.250000*%
%ADD12C,0.120000*%
%ADD13C,0.150000*%
%ADD14C,0.300000*%
G04 APERTURE END LIST*
D10*
X134939809Y-79054285D02*
X134981714Y-79096190D01*
X135107428Y-79138095D01*
X135191238Y-79138095D01*
X135316952Y-79096190D01*
X135400761Y-79012380D01*
X135442666Y-78928571D01*
X135484571Y-78760952D01*
X135484571Y-78635238D01*
X135442666Y-78467619D01*
X135400761Y-78383809D01*
X135316952Y-78300000D01*
X135191238Y-78258095D01*
X135107428Y-78258095D01*
X134981714Y-78300000D01*
X134939809Y-78341904D01*
X134059809Y-79138095D02*
X134353142Y-78719047D01*
X134562666Y-79138095D02*
X134562666Y-78258095D01*
X134227428Y-78258095D01*
X134143619Y-78300000D01*
X134101714Y-78341904D01*
X134059809Y-78425714D01*
X134059809Y-78551428D01*
X134101714Y-78635238D01*
X134143619Y-78677142D01*
X134227428Y-78719047D01*
X134562666Y-78719047D01*
X133724571Y-78341904D02*
X133682666Y-78300000D01*
X133598857Y-78258095D01*
X133389333Y-78258095D01*
X133305523Y-78300000D01*
X133263619Y-78341904D01*
X133221714Y-78425714D01*
X133221714Y-78509523D01*
X133263619Y-78635238D01*
X133766476Y-79138095D01*
X133221714Y-79138095D01*
X132676952Y-78258095D02*
X132593142Y-78258095D01*
X132509333Y-78300000D01*
X132467428Y-78341904D01*
X132425523Y-78425714D01*
X132383619Y-78593333D01*
X132383619Y-78802857D01*
X132425523Y-78970476D01*
X132467428Y-79054285D01*
X132509333Y-79096190D01*
X132593142Y-79138095D01*
X132676952Y-79138095D01*
X132760761Y-79096190D01*
X132802666Y-79054285D01*
X132844571Y-78970476D01*
X132886476Y-78802857D01*
X132886476Y-78593333D01*
X132844571Y-78425714D01*
X132802666Y-78341904D01*
X132760761Y-78300000D01*
X132676952Y-78258095D01*
X132090285Y-78258095D02*
X131545523Y-78258095D01*
X131838857Y-78593333D01*
X131713142Y-78593333D01*
X131629333Y-78635238D01*
X131587428Y-78677142D01*
X131545523Y-78760952D01*
X131545523Y-78970476D01*
X131587428Y-79054285D01*
X131629333Y-79096190D01*
X131713142Y-79138095D01*
X131964571Y-79138095D01*
X132048380Y-79096190D01*
X132090285Y-79054285D01*
X131210285Y-78341904D02*
X131168380Y-78300000D01*
X131084571Y-78258095D01*
X130875047Y-78258095D01*
X130791238Y-78300000D01*
X130749333Y-78341904D01*
X130707428Y-78425714D01*
X130707428Y-78509523D01*
X130749333Y-78635238D01*
X131252190Y-79138095D01*
X130707428Y-79138095D01*
D11*
G04 #@! TO.C,Battery1*
X133096000Y-79956000D02*
X129596000Y-79956000D01*
X129596000Y-79956000D02*
X129596000Y-81956000D01*
X133096000Y-79956000D02*
X136096000Y-79956000D01*
X136096000Y-79956000D02*
X136596000Y-79956000D01*
X136596000Y-79956000D02*
X136596000Y-81956000D01*
X144096000Y-92456000D02*
G75*
G03X144096000Y-92456000I-11000000J0D01*
G01*
D12*
G04 #@! TO.C,D1*
X129785999Y-131065958D02*
G75*
G03X124186000Y-129424488I-3039999J1958D01*
G01*
X129785999Y-131062042D02*
G75*
G02X124186000Y-132703512I-3039999J-1958D01*
G01*
X124186000Y-129424488D02*
X124186000Y-132704488D01*
G04 #@! TO.C,D2*
X115550000Y-127900488D02*
X115550000Y-131180488D01*
X121149999Y-129538042D02*
G75*
G02X115550000Y-131179512I-3039999J-1958D01*
G01*
X121149999Y-129541958D02*
G75*
G03X115550000Y-127900488I-3039999J1958D01*
G01*
G04 #@! TO.C,D3*
X111497999Y-127509958D02*
G75*
G03X105898000Y-125868488I-3039999J1958D01*
G01*
X111497999Y-127506042D02*
G75*
G02X105898000Y-129147512I-3039999J-1958D01*
G01*
X105898000Y-125868488D02*
X105898000Y-129148488D01*
G04 #@! TO.C,D4*
X95738000Y-120788488D02*
X95738000Y-124068488D01*
X101337999Y-122426042D02*
G75*
G02X95738000Y-124067512I-3039999J-1958D01*
G01*
X101337999Y-122429958D02*
G75*
G03X95738000Y-120788488I-3039999J1958D01*
G01*
G04 #@! TO.C,D5*
X111497999Y-117857958D02*
G75*
G03X105898000Y-116216488I-3039999J1958D01*
G01*
X111497999Y-117854042D02*
G75*
G02X105898000Y-119495512I-3039999J-1958D01*
G01*
X105898000Y-116216488D02*
X105898000Y-119496488D01*
G04 #@! TO.C,D6*
X113010000Y-109104488D02*
X113010000Y-112384488D01*
X118609999Y-110742042D02*
G75*
G02X113010000Y-112383512I-3039999J-1958D01*
G01*
X118609999Y-110745958D02*
G75*
G03X113010000Y-109104488I-3039999J1958D01*
G01*
G04 #@! TO.C,D7*
X115053999Y-103125958D02*
G75*
G03X109454000Y-101484488I-3039999J1958D01*
G01*
X115053999Y-103122042D02*
G75*
G02X109454000Y-104763512I-3039999J-1958D01*
G01*
X109454000Y-101484488D02*
X109454000Y-104764488D01*
G04 #@! TO.C,D8*
X117074000Y-94880488D02*
X117074000Y-98160488D01*
X122673999Y-96518042D02*
G75*
G02X117074000Y-98159512I-3039999J-1958D01*
G01*
X122673999Y-96521958D02*
G75*
G03X117074000Y-94880488I-3039999J1958D01*
G01*
G04 #@! TO.C,D9*
X128769999Y-88393958D02*
G75*
G03X123170000Y-86752488I-3039999J1958D01*
G01*
X128769999Y-88390042D02*
G75*
G02X123170000Y-90031512I-3039999J-1958D01*
G01*
X123170000Y-86752488D02*
X123170000Y-90032488D01*
G04 #@! TO.C,D10*
X125213999Y-80265958D02*
G75*
G03X119614000Y-78624488I-3039999J1958D01*
G01*
X125213999Y-80262042D02*
G75*
G02X119614000Y-81903512I-3039999J-1958D01*
G01*
X119614000Y-78624488D02*
X119614000Y-81904488D01*
G04 #@! TO.C,D11*
X129774000Y-69480488D02*
X129774000Y-72760488D01*
X135373999Y-71118042D02*
G75*
G02X129774000Y-72759512I-3039999J-1958D01*
G01*
X135373999Y-71121958D02*
G75*
G03X129774000Y-69480488I-3039999J1958D01*
G01*
G04 #@! TO.C,D12*
X145025999Y-80265958D02*
G75*
G03X139426000Y-78624488I-3039999J1958D01*
G01*
X145025999Y-80262042D02*
G75*
G02X139426000Y-81903512I-3039999J-1958D01*
G01*
X139426000Y-78624488D02*
X139426000Y-81904488D01*
G04 #@! TO.C,D13*
X137902000Y-86752488D02*
X137902000Y-90032488D01*
X143501999Y-88390042D02*
G75*
G02X137902000Y-90031512I-3039999J-1958D01*
G01*
X143501999Y-88393958D02*
G75*
G03X137902000Y-86752488I-3039999J1958D01*
G01*
G04 #@! TO.C,D14*
X148073999Y-96521958D02*
G75*
G03X142474000Y-94880488I-3039999J1958D01*
G01*
X148073999Y-96518042D02*
G75*
G02X142474000Y-98159512I-3039999J-1958D01*
G01*
X142474000Y-94880488D02*
X142474000Y-98160488D01*
G04 #@! TO.C,D15*
X150602000Y-101484488D02*
X150602000Y-104764488D01*
X156201999Y-103122042D02*
G75*
G02X150602000Y-104763512I-3039999J-1958D01*
G01*
X156201999Y-103125958D02*
G75*
G03X150602000Y-101484488I-3039999J1958D01*
G01*
G04 #@! TO.C,D16*
X152645999Y-110745958D02*
G75*
G03X147046000Y-109104488I-3039999J1958D01*
G01*
X152645999Y-110742042D02*
G75*
G02X147046000Y-112383512I-3039999J-1958D01*
G01*
X147046000Y-109104488D02*
X147046000Y-112384488D01*
G04 #@! TO.C,D17*
X153650000Y-116216488D02*
X153650000Y-119496488D01*
X159249999Y-117854042D02*
G75*
G02X153650000Y-119495512I-3039999J-1958D01*
G01*
X159249999Y-117857958D02*
G75*
G03X153650000Y-116216488I-3039999J1958D01*
G01*
G04 #@! TO.C,D18*
X169917999Y-122429958D02*
G75*
G03X164318000Y-120788488I-3039999J1958D01*
G01*
X169917999Y-122426042D02*
G75*
G02X164318000Y-124067512I-3039999J-1958D01*
G01*
X164318000Y-120788488D02*
X164318000Y-124068488D01*
G04 #@! TO.C,D19*
X153650000Y-125868488D02*
X153650000Y-129148488D01*
X159249999Y-127506042D02*
G75*
G02X153650000Y-129147512I-3039999J-1958D01*
G01*
X159249999Y-127509958D02*
G75*
G03X153650000Y-125868488I-3039999J1958D01*
G01*
G04 #@! TO.C,D20*
X149597999Y-130049958D02*
G75*
G03X143998000Y-128408488I-3039999J1958D01*
G01*
X149597999Y-130046042D02*
G75*
G02X143998000Y-131687512I-3039999J-1958D01*
G01*
X143998000Y-128408488D02*
X143998000Y-131688488D01*
G04 #@! TO.C,D21*
X134854000Y-129424488D02*
X134854000Y-132704488D01*
X140453999Y-131062042D02*
G75*
G02X134854000Y-132703512I-3039999J-1958D01*
G01*
X140453999Y-131065958D02*
G75*
G03X134854000Y-129424488I-3039999J1958D01*
G01*
G04 #@! TO.C,D22*
X137394000Y-116724488D02*
X137394000Y-120004488D01*
X142993999Y-118362042D02*
G75*
G02X137394000Y-120003512I-3039999J-1958D01*
G01*
X142993999Y-118365958D02*
G75*
G03X137394000Y-116724488I-3039999J1958D01*
G01*
G04 #@! TO.C,D23*
X133849999Y-111253958D02*
G75*
G03X128250000Y-109612488I-3039999J1958D01*
G01*
X133849999Y-111250042D02*
G75*
G02X128250000Y-112891512I-3039999J-1958D01*
G01*
X128250000Y-109612488D02*
X128250000Y-112892488D01*
G04 #@! TO.C,Shift1*
X134934000Y-119142000D02*
G75*
G03X134934000Y-121142000I0J-1000000D01*
G01*
X134934000Y-121142000D02*
X134934000Y-122392000D01*
X134934000Y-122392000D02*
X114494000Y-122392000D01*
X114494000Y-122392000D02*
X114494000Y-117892000D01*
X114494000Y-117892000D02*
X134934000Y-117892000D01*
X134934000Y-117892000D02*
X134934000Y-119142000D01*
G04 #@! TO.C,Tiny85*
X138212000Y-103826000D02*
X139462000Y-103826000D01*
X138212000Y-114106000D02*
X138212000Y-103826000D01*
X142712000Y-114106000D02*
X138212000Y-114106000D01*
X142712000Y-103826000D02*
X142712000Y-114106000D01*
X141462000Y-103826000D02*
X142712000Y-103826000D01*
X139462000Y-103826000D02*
G75*
G03X141462000Y-103826000I1000000J0D01*
G01*
G04 #@! TO.C,Battery1*
D13*
X135643619Y-91884571D02*
X135500761Y-91932190D01*
X135453142Y-91979809D01*
X135405523Y-92075047D01*
X135405523Y-92217904D01*
X135453142Y-92313142D01*
X135500761Y-92360761D01*
X135596000Y-92408380D01*
X135976952Y-92408380D01*
X135976952Y-91408380D01*
X135643619Y-91408380D01*
X135548380Y-91456000D01*
X135500761Y-91503619D01*
X135453142Y-91598857D01*
X135453142Y-91694095D01*
X135500761Y-91789333D01*
X135548380Y-91836952D01*
X135643619Y-91884571D01*
X135976952Y-91884571D01*
X134548380Y-92408380D02*
X134548380Y-91884571D01*
X134596000Y-91789333D01*
X134691238Y-91741714D01*
X134881714Y-91741714D01*
X134976952Y-91789333D01*
X134548380Y-92360761D02*
X134643619Y-92408380D01*
X134881714Y-92408380D01*
X134976952Y-92360761D01*
X135024571Y-92265523D01*
X135024571Y-92170285D01*
X134976952Y-92075047D01*
X134881714Y-92027428D01*
X134643619Y-92027428D01*
X134548380Y-91979809D01*
X134215047Y-91741714D02*
X133834095Y-91741714D01*
X134072190Y-91408380D02*
X134072190Y-92265523D01*
X134024571Y-92360761D01*
X133929333Y-92408380D01*
X133834095Y-92408380D01*
X133643619Y-91741714D02*
X133262666Y-91741714D01*
X133500761Y-91408380D02*
X133500761Y-92265523D01*
X133453142Y-92360761D01*
X133357904Y-92408380D01*
X133262666Y-92408380D01*
X132548380Y-92360761D02*
X132643619Y-92408380D01*
X132834095Y-92408380D01*
X132929333Y-92360761D01*
X132976952Y-92265523D01*
X132976952Y-91884571D01*
X132929333Y-91789333D01*
X132834095Y-91741714D01*
X132643619Y-91741714D01*
X132548380Y-91789333D01*
X132500761Y-91884571D01*
X132500761Y-91979809D01*
X132976952Y-92075047D01*
X132072190Y-92408380D02*
X132072190Y-91741714D01*
X132072190Y-91932190D02*
X132024571Y-91836952D01*
X131976952Y-91789333D01*
X131881714Y-91741714D01*
X131786476Y-91741714D01*
X131548380Y-91741714D02*
X131310285Y-92408380D01*
X131072190Y-91741714D02*
X131310285Y-92408380D01*
X131405523Y-92646476D01*
X131453142Y-92694095D01*
X131548380Y-92741714D01*
X130167428Y-92408380D02*
X130738857Y-92408380D01*
X130453142Y-92408380D02*
X130453142Y-91408380D01*
X130548380Y-91551238D01*
X130643619Y-91646476D01*
X130738857Y-91694095D01*
D14*
X137670476Y-95484285D02*
X137765714Y-95579523D01*
X138051428Y-95674761D01*
X138241904Y-95674761D01*
X138527619Y-95579523D01*
X138718095Y-95389047D01*
X138813333Y-95198571D01*
X138908571Y-94817619D01*
X138908571Y-94531904D01*
X138813333Y-94150952D01*
X138718095Y-93960476D01*
X138527619Y-93770000D01*
X138241904Y-93674761D01*
X138051428Y-93674761D01*
X137765714Y-93770000D01*
X137670476Y-93865238D01*
X135670476Y-95674761D02*
X136337142Y-94722380D01*
X136813333Y-95674761D02*
X136813333Y-93674761D01*
X136051428Y-93674761D01*
X135860952Y-93770000D01*
X135765714Y-93865238D01*
X135670476Y-94055714D01*
X135670476Y-94341428D01*
X135765714Y-94531904D01*
X135860952Y-94627142D01*
X136051428Y-94722380D01*
X136813333Y-94722380D01*
X134908571Y-93865238D02*
X134813333Y-93770000D01*
X134622857Y-93674761D01*
X134146666Y-93674761D01*
X133956190Y-93770000D01*
X133860952Y-93865238D01*
X133765714Y-94055714D01*
X133765714Y-94246190D01*
X133860952Y-94531904D01*
X135003809Y-95674761D01*
X133765714Y-95674761D01*
X132527619Y-93674761D02*
X132337142Y-93674761D01*
X132146666Y-93770000D01*
X132051428Y-93865238D01*
X131956190Y-94055714D01*
X131860952Y-94436666D01*
X131860952Y-94912857D01*
X131956190Y-95293809D01*
X132051428Y-95484285D01*
X132146666Y-95579523D01*
X132337142Y-95674761D01*
X132527619Y-95674761D01*
X132718095Y-95579523D01*
X132813333Y-95484285D01*
X132908571Y-95293809D01*
X133003809Y-94912857D01*
X133003809Y-94436666D01*
X132908571Y-94055714D01*
X132813333Y-93865238D01*
X132718095Y-93770000D01*
X132527619Y-93674761D01*
X131194285Y-93674761D02*
X129956190Y-93674761D01*
X130622857Y-94436666D01*
X130337142Y-94436666D01*
X130146666Y-94531904D01*
X130051428Y-94627142D01*
X129956190Y-94817619D01*
X129956190Y-95293809D01*
X130051428Y-95484285D01*
X130146666Y-95579523D01*
X130337142Y-95674761D01*
X130908571Y-95674761D01*
X131099047Y-95579523D01*
X131194285Y-95484285D01*
X129194285Y-93865238D02*
X129099047Y-93770000D01*
X128908571Y-93674761D01*
X128432380Y-93674761D01*
X128241904Y-93770000D01*
X128146666Y-93865238D01*
X128051428Y-94055714D01*
X128051428Y-94246190D01*
X128146666Y-94531904D01*
X129289523Y-95674761D01*
X128051428Y-95674761D01*
X133857904Y-98098857D02*
X132334095Y-98098857D01*
X133857904Y-83598857D02*
X132334095Y-83598857D01*
X133096000Y-84360761D02*
X133096000Y-82836952D01*
G04 #@! TO.C,D1*
D13*
X127890495Y-133700780D02*
X127890495Y-132700780D01*
X127652400Y-132700780D01*
X127509542Y-132748400D01*
X127414304Y-132843638D01*
X127366685Y-132938876D01*
X127319066Y-133129352D01*
X127319066Y-133272209D01*
X127366685Y-133462685D01*
X127414304Y-133557923D01*
X127509542Y-133653161D01*
X127652400Y-133700780D01*
X127890495Y-133700780D01*
X126366685Y-133700780D02*
X126938114Y-133700780D01*
X126652400Y-133700780D02*
X126652400Y-132700780D01*
X126747638Y-132843638D01*
X126842876Y-132938876D01*
X126938114Y-132986495D01*
X128177752Y-129052628D02*
X127415847Y-129052628D01*
X127796800Y-129433580D02*
X127796800Y-128671676D01*
X126177752Y-129052628D02*
X125415847Y-129052628D01*
G04 #@! TO.C,D2*
X119254495Y-132176780D02*
X119254495Y-131176780D01*
X119016400Y-131176780D01*
X118873542Y-131224400D01*
X118778304Y-131319638D01*
X118730685Y-131414876D01*
X118683066Y-131605352D01*
X118683066Y-131748209D01*
X118730685Y-131938685D01*
X118778304Y-132033923D01*
X118873542Y-132129161D01*
X119016400Y-132176780D01*
X119254495Y-132176780D01*
X118302114Y-131272019D02*
X118254495Y-131224400D01*
X118159257Y-131176780D01*
X117921161Y-131176780D01*
X117825923Y-131224400D01*
X117778304Y-131272019D01*
X117730685Y-131367257D01*
X117730685Y-131462495D01*
X117778304Y-131605352D01*
X118349733Y-132176780D01*
X117730685Y-132176780D01*
X119541752Y-127528628D02*
X118779847Y-127528628D01*
X119160800Y-127909580D02*
X119160800Y-127147676D01*
X117541752Y-127528628D02*
X116779847Y-127528628D01*
G04 #@! TO.C,D3*
X109602495Y-130144780D02*
X109602495Y-129144780D01*
X109364400Y-129144780D01*
X109221542Y-129192400D01*
X109126304Y-129287638D01*
X109078685Y-129382876D01*
X109031066Y-129573352D01*
X109031066Y-129716209D01*
X109078685Y-129906685D01*
X109126304Y-130001923D01*
X109221542Y-130097161D01*
X109364400Y-130144780D01*
X109602495Y-130144780D01*
X108697733Y-129144780D02*
X108078685Y-129144780D01*
X108412019Y-129525733D01*
X108269161Y-129525733D01*
X108173923Y-129573352D01*
X108126304Y-129620971D01*
X108078685Y-129716209D01*
X108078685Y-129954304D01*
X108126304Y-130049542D01*
X108173923Y-130097161D01*
X108269161Y-130144780D01*
X108554876Y-130144780D01*
X108650114Y-130097161D01*
X108697733Y-130049542D01*
X109889752Y-125496628D02*
X109127847Y-125496628D01*
X109508800Y-125877580D02*
X109508800Y-125115676D01*
X107889752Y-125496628D02*
X107127847Y-125496628D01*
G04 #@! TO.C,D4*
X99442495Y-125064780D02*
X99442495Y-124064780D01*
X99204400Y-124064780D01*
X99061542Y-124112400D01*
X98966304Y-124207638D01*
X98918685Y-124302876D01*
X98871066Y-124493352D01*
X98871066Y-124636209D01*
X98918685Y-124826685D01*
X98966304Y-124921923D01*
X99061542Y-125017161D01*
X99204400Y-125064780D01*
X99442495Y-125064780D01*
X98013923Y-124398114D02*
X98013923Y-125064780D01*
X98252019Y-124017161D02*
X98490114Y-124731447D01*
X97871066Y-124731447D01*
X99729752Y-120416628D02*
X98967847Y-120416628D01*
X99348800Y-120797580D02*
X99348800Y-120035676D01*
X97729752Y-120416628D02*
X96967847Y-120416628D01*
G04 #@! TO.C,D5*
X109602495Y-120492780D02*
X109602495Y-119492780D01*
X109364400Y-119492780D01*
X109221542Y-119540400D01*
X109126304Y-119635638D01*
X109078685Y-119730876D01*
X109031066Y-119921352D01*
X109031066Y-120064209D01*
X109078685Y-120254685D01*
X109126304Y-120349923D01*
X109221542Y-120445161D01*
X109364400Y-120492780D01*
X109602495Y-120492780D01*
X108126304Y-119492780D02*
X108602495Y-119492780D01*
X108650114Y-119968971D01*
X108602495Y-119921352D01*
X108507257Y-119873733D01*
X108269161Y-119873733D01*
X108173923Y-119921352D01*
X108126304Y-119968971D01*
X108078685Y-120064209D01*
X108078685Y-120302304D01*
X108126304Y-120397542D01*
X108173923Y-120445161D01*
X108269161Y-120492780D01*
X108507257Y-120492780D01*
X108602495Y-120445161D01*
X108650114Y-120397542D01*
X109889752Y-115844628D02*
X109127847Y-115844628D01*
X109508800Y-116225580D02*
X109508800Y-115463676D01*
X107889752Y-115844628D02*
X107127847Y-115844628D01*
G04 #@! TO.C,D6*
X116714495Y-113380780D02*
X116714495Y-112380780D01*
X116476400Y-112380780D01*
X116333542Y-112428400D01*
X116238304Y-112523638D01*
X116190685Y-112618876D01*
X116143066Y-112809352D01*
X116143066Y-112952209D01*
X116190685Y-113142685D01*
X116238304Y-113237923D01*
X116333542Y-113333161D01*
X116476400Y-113380780D01*
X116714495Y-113380780D01*
X115285923Y-112380780D02*
X115476400Y-112380780D01*
X115571638Y-112428400D01*
X115619257Y-112476019D01*
X115714495Y-112618876D01*
X115762114Y-112809352D01*
X115762114Y-113190304D01*
X115714495Y-113285542D01*
X115666876Y-113333161D01*
X115571638Y-113380780D01*
X115381161Y-113380780D01*
X115285923Y-113333161D01*
X115238304Y-113285542D01*
X115190685Y-113190304D01*
X115190685Y-112952209D01*
X115238304Y-112856971D01*
X115285923Y-112809352D01*
X115381161Y-112761733D01*
X115571638Y-112761733D01*
X115666876Y-112809352D01*
X115714495Y-112856971D01*
X115762114Y-112952209D01*
X117001752Y-108732628D02*
X116239847Y-108732628D01*
X116620800Y-109113580D02*
X116620800Y-108351676D01*
X115001752Y-108732628D02*
X114239847Y-108732628D01*
G04 #@! TO.C,D7*
X113158495Y-105760780D02*
X113158495Y-104760780D01*
X112920400Y-104760780D01*
X112777542Y-104808400D01*
X112682304Y-104903638D01*
X112634685Y-104998876D01*
X112587066Y-105189352D01*
X112587066Y-105332209D01*
X112634685Y-105522685D01*
X112682304Y-105617923D01*
X112777542Y-105713161D01*
X112920400Y-105760780D01*
X113158495Y-105760780D01*
X112253733Y-104760780D02*
X111587066Y-104760780D01*
X112015638Y-105760780D01*
X113445752Y-101112628D02*
X112683847Y-101112628D01*
X113064800Y-101493580D02*
X113064800Y-100731676D01*
X111445752Y-101112628D02*
X110683847Y-101112628D01*
G04 #@! TO.C,D8*
X120778495Y-99156780D02*
X120778495Y-98156780D01*
X120540400Y-98156780D01*
X120397542Y-98204400D01*
X120302304Y-98299638D01*
X120254685Y-98394876D01*
X120207066Y-98585352D01*
X120207066Y-98728209D01*
X120254685Y-98918685D01*
X120302304Y-99013923D01*
X120397542Y-99109161D01*
X120540400Y-99156780D01*
X120778495Y-99156780D01*
X119635638Y-98585352D02*
X119730876Y-98537733D01*
X119778495Y-98490114D01*
X119826114Y-98394876D01*
X119826114Y-98347257D01*
X119778495Y-98252019D01*
X119730876Y-98204400D01*
X119635638Y-98156780D01*
X119445161Y-98156780D01*
X119349923Y-98204400D01*
X119302304Y-98252019D01*
X119254685Y-98347257D01*
X119254685Y-98394876D01*
X119302304Y-98490114D01*
X119349923Y-98537733D01*
X119445161Y-98585352D01*
X119635638Y-98585352D01*
X119730876Y-98632971D01*
X119778495Y-98680590D01*
X119826114Y-98775828D01*
X119826114Y-98966304D01*
X119778495Y-99061542D01*
X119730876Y-99109161D01*
X119635638Y-99156780D01*
X119445161Y-99156780D01*
X119349923Y-99109161D01*
X119302304Y-99061542D01*
X119254685Y-98966304D01*
X119254685Y-98775828D01*
X119302304Y-98680590D01*
X119349923Y-98632971D01*
X119445161Y-98585352D01*
X121065752Y-94508628D02*
X120303847Y-94508628D01*
X120684800Y-94889580D02*
X120684800Y-94127676D01*
X119065752Y-94508628D02*
X118303847Y-94508628D01*
G04 #@! TO.C,D9*
X126874495Y-91028780D02*
X126874495Y-90028780D01*
X126636400Y-90028780D01*
X126493542Y-90076400D01*
X126398304Y-90171638D01*
X126350685Y-90266876D01*
X126303066Y-90457352D01*
X126303066Y-90600209D01*
X126350685Y-90790685D01*
X126398304Y-90885923D01*
X126493542Y-90981161D01*
X126636400Y-91028780D01*
X126874495Y-91028780D01*
X125826876Y-91028780D02*
X125636400Y-91028780D01*
X125541161Y-90981161D01*
X125493542Y-90933542D01*
X125398304Y-90790685D01*
X125350685Y-90600209D01*
X125350685Y-90219257D01*
X125398304Y-90124019D01*
X125445923Y-90076400D01*
X125541161Y-90028780D01*
X125731638Y-90028780D01*
X125826876Y-90076400D01*
X125874495Y-90124019D01*
X125922114Y-90219257D01*
X125922114Y-90457352D01*
X125874495Y-90552590D01*
X125826876Y-90600209D01*
X125731638Y-90647828D01*
X125541161Y-90647828D01*
X125445923Y-90600209D01*
X125398304Y-90552590D01*
X125350685Y-90457352D01*
X127161752Y-86380628D02*
X126399847Y-86380628D01*
X126780800Y-86761580D02*
X126780800Y-85999676D01*
X125161752Y-86380628D02*
X124399847Y-86380628D01*
G04 #@! TO.C,D10*
X123794685Y-82900780D02*
X123794685Y-81900780D01*
X123556590Y-81900780D01*
X123413733Y-81948400D01*
X123318495Y-82043638D01*
X123270876Y-82138876D01*
X123223257Y-82329352D01*
X123223257Y-82472209D01*
X123270876Y-82662685D01*
X123318495Y-82757923D01*
X123413733Y-82853161D01*
X123556590Y-82900780D01*
X123794685Y-82900780D01*
X122270876Y-82900780D02*
X122842304Y-82900780D01*
X122556590Y-82900780D02*
X122556590Y-81900780D01*
X122651828Y-82043638D01*
X122747066Y-82138876D01*
X122842304Y-82186495D01*
X121651828Y-81900780D02*
X121556590Y-81900780D01*
X121461352Y-81948400D01*
X121413733Y-81996019D01*
X121366114Y-82091257D01*
X121318495Y-82281733D01*
X121318495Y-82519828D01*
X121366114Y-82710304D01*
X121413733Y-82805542D01*
X121461352Y-82853161D01*
X121556590Y-82900780D01*
X121651828Y-82900780D01*
X121747066Y-82853161D01*
X121794685Y-82805542D01*
X121842304Y-82710304D01*
X121889923Y-82519828D01*
X121889923Y-82281733D01*
X121842304Y-82091257D01*
X121794685Y-81996019D01*
X121747066Y-81948400D01*
X121651828Y-81900780D01*
X123605752Y-78252628D02*
X122843847Y-78252628D01*
X123224800Y-78633580D02*
X123224800Y-77871676D01*
X121605752Y-78252628D02*
X120843847Y-78252628D01*
G04 #@! TO.C,D11*
X133954685Y-73756780D02*
X133954685Y-72756780D01*
X133716590Y-72756780D01*
X133573733Y-72804400D01*
X133478495Y-72899638D01*
X133430876Y-72994876D01*
X133383257Y-73185352D01*
X133383257Y-73328209D01*
X133430876Y-73518685D01*
X133478495Y-73613923D01*
X133573733Y-73709161D01*
X133716590Y-73756780D01*
X133954685Y-73756780D01*
X132430876Y-73756780D02*
X133002304Y-73756780D01*
X132716590Y-73756780D02*
X132716590Y-72756780D01*
X132811828Y-72899638D01*
X132907066Y-72994876D01*
X133002304Y-73042495D01*
X131478495Y-73756780D02*
X132049923Y-73756780D01*
X131764209Y-73756780D02*
X131764209Y-72756780D01*
X131859447Y-72899638D01*
X131954685Y-72994876D01*
X132049923Y-73042495D01*
X133765752Y-69108628D02*
X133003847Y-69108628D01*
X133384800Y-69489580D02*
X133384800Y-68727676D01*
X131765752Y-69108628D02*
X131003847Y-69108628D01*
G04 #@! TO.C,D12*
X143606685Y-82900780D02*
X143606685Y-81900780D01*
X143368590Y-81900780D01*
X143225733Y-81948400D01*
X143130495Y-82043638D01*
X143082876Y-82138876D01*
X143035257Y-82329352D01*
X143035257Y-82472209D01*
X143082876Y-82662685D01*
X143130495Y-82757923D01*
X143225733Y-82853161D01*
X143368590Y-82900780D01*
X143606685Y-82900780D01*
X142082876Y-82900780D02*
X142654304Y-82900780D01*
X142368590Y-82900780D02*
X142368590Y-81900780D01*
X142463828Y-82043638D01*
X142559066Y-82138876D01*
X142654304Y-82186495D01*
X141701923Y-81996019D02*
X141654304Y-81948400D01*
X141559066Y-81900780D01*
X141320971Y-81900780D01*
X141225733Y-81948400D01*
X141178114Y-81996019D01*
X141130495Y-82091257D01*
X141130495Y-82186495D01*
X141178114Y-82329352D01*
X141749542Y-82900780D01*
X141130495Y-82900780D01*
X143417752Y-78252628D02*
X142655847Y-78252628D01*
X143036800Y-78633580D02*
X143036800Y-77871676D01*
X141417752Y-78252628D02*
X140655847Y-78252628D01*
G04 #@! TO.C,D13*
X142082685Y-91028780D02*
X142082685Y-90028780D01*
X141844590Y-90028780D01*
X141701733Y-90076400D01*
X141606495Y-90171638D01*
X141558876Y-90266876D01*
X141511257Y-90457352D01*
X141511257Y-90600209D01*
X141558876Y-90790685D01*
X141606495Y-90885923D01*
X141701733Y-90981161D01*
X141844590Y-91028780D01*
X142082685Y-91028780D01*
X140558876Y-91028780D02*
X141130304Y-91028780D01*
X140844590Y-91028780D02*
X140844590Y-90028780D01*
X140939828Y-90171638D01*
X141035066Y-90266876D01*
X141130304Y-90314495D01*
X140225542Y-90028780D02*
X139606495Y-90028780D01*
X139939828Y-90409733D01*
X139796971Y-90409733D01*
X139701733Y-90457352D01*
X139654114Y-90504971D01*
X139606495Y-90600209D01*
X139606495Y-90838304D01*
X139654114Y-90933542D01*
X139701733Y-90981161D01*
X139796971Y-91028780D01*
X140082685Y-91028780D01*
X140177923Y-90981161D01*
X140225542Y-90933542D01*
X141893752Y-86380628D02*
X141131847Y-86380628D01*
X141512800Y-86761580D02*
X141512800Y-85999676D01*
X139893752Y-86380628D02*
X139131847Y-86380628D01*
G04 #@! TO.C,D14*
X146654685Y-99156780D02*
X146654685Y-98156780D01*
X146416590Y-98156780D01*
X146273733Y-98204400D01*
X146178495Y-98299638D01*
X146130876Y-98394876D01*
X146083257Y-98585352D01*
X146083257Y-98728209D01*
X146130876Y-98918685D01*
X146178495Y-99013923D01*
X146273733Y-99109161D01*
X146416590Y-99156780D01*
X146654685Y-99156780D01*
X145130876Y-99156780D02*
X145702304Y-99156780D01*
X145416590Y-99156780D02*
X145416590Y-98156780D01*
X145511828Y-98299638D01*
X145607066Y-98394876D01*
X145702304Y-98442495D01*
X144273733Y-98490114D02*
X144273733Y-99156780D01*
X144511828Y-98109161D02*
X144749923Y-98823447D01*
X144130876Y-98823447D01*
X146465752Y-94508628D02*
X145703847Y-94508628D01*
X146084800Y-94889580D02*
X146084800Y-94127676D01*
X144465752Y-94508628D02*
X143703847Y-94508628D01*
G04 #@! TO.C,D15*
X154782685Y-105760780D02*
X154782685Y-104760780D01*
X154544590Y-104760780D01*
X154401733Y-104808400D01*
X154306495Y-104903638D01*
X154258876Y-104998876D01*
X154211257Y-105189352D01*
X154211257Y-105332209D01*
X154258876Y-105522685D01*
X154306495Y-105617923D01*
X154401733Y-105713161D01*
X154544590Y-105760780D01*
X154782685Y-105760780D01*
X153258876Y-105760780D02*
X153830304Y-105760780D01*
X153544590Y-105760780D02*
X153544590Y-104760780D01*
X153639828Y-104903638D01*
X153735066Y-104998876D01*
X153830304Y-105046495D01*
X152354114Y-104760780D02*
X152830304Y-104760780D01*
X152877923Y-105236971D01*
X152830304Y-105189352D01*
X152735066Y-105141733D01*
X152496971Y-105141733D01*
X152401733Y-105189352D01*
X152354114Y-105236971D01*
X152306495Y-105332209D01*
X152306495Y-105570304D01*
X152354114Y-105665542D01*
X152401733Y-105713161D01*
X152496971Y-105760780D01*
X152735066Y-105760780D01*
X152830304Y-105713161D01*
X152877923Y-105665542D01*
X154593752Y-101112628D02*
X153831847Y-101112628D01*
X154212800Y-101493580D02*
X154212800Y-100731676D01*
X152593752Y-101112628D02*
X151831847Y-101112628D01*
G04 #@! TO.C,D16*
X151226685Y-113380780D02*
X151226685Y-112380780D01*
X150988590Y-112380780D01*
X150845733Y-112428400D01*
X150750495Y-112523638D01*
X150702876Y-112618876D01*
X150655257Y-112809352D01*
X150655257Y-112952209D01*
X150702876Y-113142685D01*
X150750495Y-113237923D01*
X150845733Y-113333161D01*
X150988590Y-113380780D01*
X151226685Y-113380780D01*
X149702876Y-113380780D02*
X150274304Y-113380780D01*
X149988590Y-113380780D02*
X149988590Y-112380780D01*
X150083828Y-112523638D01*
X150179066Y-112618876D01*
X150274304Y-112666495D01*
X148845733Y-112380780D02*
X149036209Y-112380780D01*
X149131447Y-112428400D01*
X149179066Y-112476019D01*
X149274304Y-112618876D01*
X149321923Y-112809352D01*
X149321923Y-113190304D01*
X149274304Y-113285542D01*
X149226685Y-113333161D01*
X149131447Y-113380780D01*
X148940971Y-113380780D01*
X148845733Y-113333161D01*
X148798114Y-113285542D01*
X148750495Y-113190304D01*
X148750495Y-112952209D01*
X148798114Y-112856971D01*
X148845733Y-112809352D01*
X148940971Y-112761733D01*
X149131447Y-112761733D01*
X149226685Y-112809352D01*
X149274304Y-112856971D01*
X149321923Y-112952209D01*
X151037752Y-108732628D02*
X150275847Y-108732628D01*
X150656800Y-109113580D02*
X150656800Y-108351676D01*
X149037752Y-108732628D02*
X148275847Y-108732628D01*
G04 #@! TO.C,D17*
X157830685Y-120492780D02*
X157830685Y-119492780D01*
X157592590Y-119492780D01*
X157449733Y-119540400D01*
X157354495Y-119635638D01*
X157306876Y-119730876D01*
X157259257Y-119921352D01*
X157259257Y-120064209D01*
X157306876Y-120254685D01*
X157354495Y-120349923D01*
X157449733Y-120445161D01*
X157592590Y-120492780D01*
X157830685Y-120492780D01*
X156306876Y-120492780D02*
X156878304Y-120492780D01*
X156592590Y-120492780D02*
X156592590Y-119492780D01*
X156687828Y-119635638D01*
X156783066Y-119730876D01*
X156878304Y-119778495D01*
X155973542Y-119492780D02*
X155306876Y-119492780D01*
X155735447Y-120492780D01*
X157641752Y-115844628D02*
X156879847Y-115844628D01*
X157260800Y-116225580D02*
X157260800Y-115463676D01*
X155641752Y-115844628D02*
X154879847Y-115844628D01*
G04 #@! TO.C,D18*
X168498685Y-125064780D02*
X168498685Y-124064780D01*
X168260590Y-124064780D01*
X168117733Y-124112400D01*
X168022495Y-124207638D01*
X167974876Y-124302876D01*
X167927257Y-124493352D01*
X167927257Y-124636209D01*
X167974876Y-124826685D01*
X168022495Y-124921923D01*
X168117733Y-125017161D01*
X168260590Y-125064780D01*
X168498685Y-125064780D01*
X166974876Y-125064780D02*
X167546304Y-125064780D01*
X167260590Y-125064780D02*
X167260590Y-124064780D01*
X167355828Y-124207638D01*
X167451066Y-124302876D01*
X167546304Y-124350495D01*
X166403447Y-124493352D02*
X166498685Y-124445733D01*
X166546304Y-124398114D01*
X166593923Y-124302876D01*
X166593923Y-124255257D01*
X166546304Y-124160019D01*
X166498685Y-124112400D01*
X166403447Y-124064780D01*
X166212971Y-124064780D01*
X166117733Y-124112400D01*
X166070114Y-124160019D01*
X166022495Y-124255257D01*
X166022495Y-124302876D01*
X166070114Y-124398114D01*
X166117733Y-124445733D01*
X166212971Y-124493352D01*
X166403447Y-124493352D01*
X166498685Y-124540971D01*
X166546304Y-124588590D01*
X166593923Y-124683828D01*
X166593923Y-124874304D01*
X166546304Y-124969542D01*
X166498685Y-125017161D01*
X166403447Y-125064780D01*
X166212971Y-125064780D01*
X166117733Y-125017161D01*
X166070114Y-124969542D01*
X166022495Y-124874304D01*
X166022495Y-124683828D01*
X166070114Y-124588590D01*
X166117733Y-124540971D01*
X166212971Y-124493352D01*
X168309752Y-120416628D02*
X167547847Y-120416628D01*
X167928800Y-120797580D02*
X167928800Y-120035676D01*
X166309752Y-120416628D02*
X165547847Y-120416628D01*
G04 #@! TO.C,D19*
X157830685Y-130144780D02*
X157830685Y-129144780D01*
X157592590Y-129144780D01*
X157449733Y-129192400D01*
X157354495Y-129287638D01*
X157306876Y-129382876D01*
X157259257Y-129573352D01*
X157259257Y-129716209D01*
X157306876Y-129906685D01*
X157354495Y-130001923D01*
X157449733Y-130097161D01*
X157592590Y-130144780D01*
X157830685Y-130144780D01*
X156306876Y-130144780D02*
X156878304Y-130144780D01*
X156592590Y-130144780D02*
X156592590Y-129144780D01*
X156687828Y-129287638D01*
X156783066Y-129382876D01*
X156878304Y-129430495D01*
X155830685Y-130144780D02*
X155640209Y-130144780D01*
X155544971Y-130097161D01*
X155497352Y-130049542D01*
X155402114Y-129906685D01*
X155354495Y-129716209D01*
X155354495Y-129335257D01*
X155402114Y-129240019D01*
X155449733Y-129192400D01*
X155544971Y-129144780D01*
X155735447Y-129144780D01*
X155830685Y-129192400D01*
X155878304Y-129240019D01*
X155925923Y-129335257D01*
X155925923Y-129573352D01*
X155878304Y-129668590D01*
X155830685Y-129716209D01*
X155735447Y-129763828D01*
X155544971Y-129763828D01*
X155449733Y-129716209D01*
X155402114Y-129668590D01*
X155354495Y-129573352D01*
X157641752Y-125496628D02*
X156879847Y-125496628D01*
X157260800Y-125877580D02*
X157260800Y-125115676D01*
X155641752Y-125496628D02*
X154879847Y-125496628D01*
G04 #@! TO.C,D20*
X148178685Y-132684780D02*
X148178685Y-131684780D01*
X147940590Y-131684780D01*
X147797733Y-131732400D01*
X147702495Y-131827638D01*
X147654876Y-131922876D01*
X147607257Y-132113352D01*
X147607257Y-132256209D01*
X147654876Y-132446685D01*
X147702495Y-132541923D01*
X147797733Y-132637161D01*
X147940590Y-132684780D01*
X148178685Y-132684780D01*
X147226304Y-131780019D02*
X147178685Y-131732400D01*
X147083447Y-131684780D01*
X146845352Y-131684780D01*
X146750114Y-131732400D01*
X146702495Y-131780019D01*
X146654876Y-131875257D01*
X146654876Y-131970495D01*
X146702495Y-132113352D01*
X147273923Y-132684780D01*
X146654876Y-132684780D01*
X146035828Y-131684780D02*
X145940590Y-131684780D01*
X145845352Y-131732400D01*
X145797733Y-131780019D01*
X145750114Y-131875257D01*
X145702495Y-132065733D01*
X145702495Y-132303828D01*
X145750114Y-132494304D01*
X145797733Y-132589542D01*
X145845352Y-132637161D01*
X145940590Y-132684780D01*
X146035828Y-132684780D01*
X146131066Y-132637161D01*
X146178685Y-132589542D01*
X146226304Y-132494304D01*
X146273923Y-132303828D01*
X146273923Y-132065733D01*
X146226304Y-131875257D01*
X146178685Y-131780019D01*
X146131066Y-131732400D01*
X146035828Y-131684780D01*
X147989752Y-128036628D02*
X147227847Y-128036628D01*
X147608800Y-128417580D02*
X147608800Y-127655676D01*
X145989752Y-128036628D02*
X145227847Y-128036628D01*
G04 #@! TO.C,D21*
X139034685Y-133700780D02*
X139034685Y-132700780D01*
X138796590Y-132700780D01*
X138653733Y-132748400D01*
X138558495Y-132843638D01*
X138510876Y-132938876D01*
X138463257Y-133129352D01*
X138463257Y-133272209D01*
X138510876Y-133462685D01*
X138558495Y-133557923D01*
X138653733Y-133653161D01*
X138796590Y-133700780D01*
X139034685Y-133700780D01*
X138082304Y-132796019D02*
X138034685Y-132748400D01*
X137939447Y-132700780D01*
X137701352Y-132700780D01*
X137606114Y-132748400D01*
X137558495Y-132796019D01*
X137510876Y-132891257D01*
X137510876Y-132986495D01*
X137558495Y-133129352D01*
X138129923Y-133700780D01*
X137510876Y-133700780D01*
X136558495Y-133700780D02*
X137129923Y-133700780D01*
X136844209Y-133700780D02*
X136844209Y-132700780D01*
X136939447Y-132843638D01*
X137034685Y-132938876D01*
X137129923Y-132986495D01*
X138845752Y-129052628D02*
X138083847Y-129052628D01*
X138464800Y-129433580D02*
X138464800Y-128671676D01*
X136845752Y-129052628D02*
X136083847Y-129052628D01*
G04 #@! TO.C,D22*
X141574685Y-121000780D02*
X141574685Y-120000780D01*
X141336590Y-120000780D01*
X141193733Y-120048400D01*
X141098495Y-120143638D01*
X141050876Y-120238876D01*
X141003257Y-120429352D01*
X141003257Y-120572209D01*
X141050876Y-120762685D01*
X141098495Y-120857923D01*
X141193733Y-120953161D01*
X141336590Y-121000780D01*
X141574685Y-121000780D01*
X140622304Y-120096019D02*
X140574685Y-120048400D01*
X140479447Y-120000780D01*
X140241352Y-120000780D01*
X140146114Y-120048400D01*
X140098495Y-120096019D01*
X140050876Y-120191257D01*
X140050876Y-120286495D01*
X140098495Y-120429352D01*
X140669923Y-121000780D01*
X140050876Y-121000780D01*
X139669923Y-120096019D02*
X139622304Y-120048400D01*
X139527066Y-120000780D01*
X139288971Y-120000780D01*
X139193733Y-120048400D01*
X139146114Y-120096019D01*
X139098495Y-120191257D01*
X139098495Y-120286495D01*
X139146114Y-120429352D01*
X139717542Y-121000780D01*
X139098495Y-121000780D01*
X141385752Y-116352628D02*
X140623847Y-116352628D01*
X141004800Y-116733580D02*
X141004800Y-115971676D01*
X139385752Y-116352628D02*
X138623847Y-116352628D01*
G04 #@! TO.C,D23*
X132430685Y-113888780D02*
X132430685Y-112888780D01*
X132192590Y-112888780D01*
X132049733Y-112936400D01*
X131954495Y-113031638D01*
X131906876Y-113126876D01*
X131859257Y-113317352D01*
X131859257Y-113460209D01*
X131906876Y-113650685D01*
X131954495Y-113745923D01*
X132049733Y-113841161D01*
X132192590Y-113888780D01*
X132430685Y-113888780D01*
X131478304Y-112984019D02*
X131430685Y-112936400D01*
X131335447Y-112888780D01*
X131097352Y-112888780D01*
X131002114Y-112936400D01*
X130954495Y-112984019D01*
X130906876Y-113079257D01*
X130906876Y-113174495D01*
X130954495Y-113317352D01*
X131525923Y-113888780D01*
X130906876Y-113888780D01*
X130573542Y-112888780D02*
X129954495Y-112888780D01*
X130287828Y-113269733D01*
X130144971Y-113269733D01*
X130049733Y-113317352D01*
X130002114Y-113364971D01*
X129954495Y-113460209D01*
X129954495Y-113698304D01*
X130002114Y-113793542D01*
X130049733Y-113841161D01*
X130144971Y-113888780D01*
X130430685Y-113888780D01*
X130525923Y-113841161D01*
X130573542Y-113793542D01*
X132241752Y-109240628D02*
X131479847Y-109240628D01*
X131860800Y-109621580D02*
X131860800Y-108859676D01*
X130241752Y-109240628D02*
X129479847Y-109240628D01*
G04 #@! TO.C,Shift1*
X133463809Y-120574761D02*
X133320952Y-120622380D01*
X133082857Y-120622380D01*
X132987619Y-120574761D01*
X132940000Y-120527142D01*
X132892380Y-120431904D01*
X132892380Y-120336666D01*
X132940000Y-120241428D01*
X132987619Y-120193809D01*
X133082857Y-120146190D01*
X133273333Y-120098571D01*
X133368571Y-120050952D01*
X133416190Y-120003333D01*
X133463809Y-119908095D01*
X133463809Y-119812857D01*
X133416190Y-119717619D01*
X133368571Y-119670000D01*
X133273333Y-119622380D01*
X133035238Y-119622380D01*
X132892380Y-119670000D01*
X132463809Y-120622380D02*
X132463809Y-119622380D01*
X132035238Y-120622380D02*
X132035238Y-120098571D01*
X132082857Y-120003333D01*
X132178095Y-119955714D01*
X132320952Y-119955714D01*
X132416190Y-120003333D01*
X132463809Y-120050952D01*
X131559047Y-120622380D02*
X131559047Y-119955714D01*
X131559047Y-119622380D02*
X131606666Y-119670000D01*
X131559047Y-119717619D01*
X131511428Y-119670000D01*
X131559047Y-119622380D01*
X131559047Y-119717619D01*
X131225714Y-119955714D02*
X130844761Y-119955714D01*
X131082857Y-120622380D02*
X131082857Y-119765238D01*
X131035238Y-119670000D01*
X130940000Y-119622380D01*
X130844761Y-119622380D01*
X130654285Y-119955714D02*
X130273333Y-119955714D01*
X130511428Y-119622380D02*
X130511428Y-120479523D01*
X130463809Y-120574761D01*
X130368571Y-120622380D01*
X130273333Y-120622380D01*
X129416190Y-120622380D02*
X129987619Y-120622380D01*
X129701904Y-120622380D02*
X129701904Y-119622380D01*
X129797142Y-119765238D01*
X129892380Y-119860476D01*
X129987619Y-119908095D01*
G04 #@! TO.C,Tiny85*
X142699523Y-105002380D02*
X142128095Y-105002380D01*
X142413809Y-106002380D02*
X142413809Y-105002380D01*
X141794761Y-106002380D02*
X141794761Y-105335714D01*
X141794761Y-105002380D02*
X141842380Y-105050000D01*
X141794761Y-105097619D01*
X141747142Y-105050000D01*
X141794761Y-105002380D01*
X141794761Y-105097619D01*
X141318571Y-105335714D02*
X141318571Y-106002380D01*
X141318571Y-105430952D02*
X141270952Y-105383333D01*
X141175714Y-105335714D01*
X141032857Y-105335714D01*
X140937619Y-105383333D01*
X140890000Y-105478571D01*
X140890000Y-106002380D01*
X140509047Y-105335714D02*
X140270952Y-106002380D01*
X140032857Y-105335714D02*
X140270952Y-106002380D01*
X140366190Y-106240476D01*
X140413809Y-106288095D01*
X140509047Y-106335714D01*
X139509047Y-105430952D02*
X139604285Y-105383333D01*
X139651904Y-105335714D01*
X139699523Y-105240476D01*
X139699523Y-105192857D01*
X139651904Y-105097619D01*
X139604285Y-105050000D01*
X139509047Y-105002380D01*
X139318571Y-105002380D01*
X139223333Y-105050000D01*
X139175714Y-105097619D01*
X139128095Y-105192857D01*
X139128095Y-105240476D01*
X139175714Y-105335714D01*
X139223333Y-105383333D01*
X139318571Y-105430952D01*
X139509047Y-105430952D01*
X139604285Y-105478571D01*
X139651904Y-105526190D01*
X139699523Y-105621428D01*
X139699523Y-105811904D01*
X139651904Y-105907142D01*
X139604285Y-105954761D01*
X139509047Y-106002380D01*
X139318571Y-106002380D01*
X139223333Y-105954761D01*
X139175714Y-105907142D01*
X139128095Y-105811904D01*
X139128095Y-105621428D01*
X139175714Y-105526190D01*
X139223333Y-105478571D01*
X139318571Y-105430952D01*
X138223333Y-105002380D02*
X138699523Y-105002380D01*
X138747142Y-105478571D01*
X138699523Y-105430952D01*
X138604285Y-105383333D01*
X138366190Y-105383333D01*
X138270952Y-105430952D01*
X138223333Y-105478571D01*
X138175714Y-105573809D01*
X138175714Y-105811904D01*
X138223333Y-105907142D01*
X138270952Y-105954761D01*
X138366190Y-106002380D01*
X138604285Y-106002380D01*
X138699523Y-105954761D01*
X138747142Y-105907142D01*
G04 #@! TD*
M02*
