G04 #@! TF.GenerationSoftware,KiCad,Pcbnew,(5.0.0)*
G04 #@! TF.CreationDate,2019-09-06T15:11:28-04:00*
G04 #@! TF.ProjectId,Christmas Tree,4368726973746D617320547265652E6B,rev?*
G04 #@! TF.SameCoordinates,Original*
G04 #@! TF.FileFunction,Soldermask,Bot*
G04 #@! TF.FilePolarity,Negative*
%FSLAX46Y46*%
G04 Gerber Fmt 4.6, Leading zero omitted, Abs format (unit mm)*
G04 Created by KiCad (PCBNEW (5.0.0)) date 09/06/19 15:11:28*
%MOMM*%
%LPD*%
G01*
G04 APERTURE LIST*
%ADD10C,2.900000*%
%ADD11C,2.400000*%
%ADD12C,4.400000*%
%ADD13C,0.100000*%
%ADD14O,2.400000X2.400000*%
%ADD15R,2.000000X2.800000*%
%ADD16O,2.000000X2.800000*%
%ADD17O,2.100000X2.100000*%
%ADD18R,2.100000X2.100000*%
%ADD19O,2.800000X2.000000*%
%ADD20R,2.800000X2.000000*%
G04 APERTURE END LIST*
D10*
G04 #@! TO.C,Battery1*
X133096000Y-100456000D03*
X133096000Y-80956000D03*
G04 #@! TD*
D11*
G04 #@! TO.C,BTN1*
X133168000Y-137668000D03*
X137668000Y-137668000D03*
X133168000Y-144168000D03*
X137668000Y-144168000D03*
G04 #@! TD*
D12*
G04 #@! TO.C,HOOK*
X132842000Y-57364000D03*
G04 #@! TD*
D13*
G04 #@! TO.C,D1*
G36*
X125884810Y-129866889D02*
X125943054Y-129875529D01*
X126000171Y-129889836D01*
X126055610Y-129909672D01*
X126108838Y-129934847D01*
X126159342Y-129965118D01*
X126206636Y-130000194D01*
X126250264Y-130039736D01*
X126289806Y-130083364D01*
X126324882Y-130130658D01*
X126355153Y-130181162D01*
X126380328Y-130234390D01*
X126400164Y-130289829D01*
X126414471Y-130346946D01*
X126423111Y-130405190D01*
X126426000Y-130464000D01*
X126426000Y-131664000D01*
X126423111Y-131722810D01*
X126414471Y-131781054D01*
X126400164Y-131838171D01*
X126380328Y-131893610D01*
X126355153Y-131946838D01*
X126324882Y-131997342D01*
X126289806Y-132044636D01*
X126250264Y-132088264D01*
X126206636Y-132127806D01*
X126159342Y-132162882D01*
X126108838Y-132193153D01*
X126055610Y-132218328D01*
X126000171Y-132238164D01*
X125943054Y-132252471D01*
X125884810Y-132261111D01*
X125826000Y-132264000D01*
X124626000Y-132264000D01*
X124567190Y-132261111D01*
X124508946Y-132252471D01*
X124451829Y-132238164D01*
X124396390Y-132218328D01*
X124343162Y-132193153D01*
X124292658Y-132162882D01*
X124245364Y-132127806D01*
X124201736Y-132088264D01*
X124162194Y-132044636D01*
X124127118Y-131997342D01*
X124096847Y-131946838D01*
X124071672Y-131893610D01*
X124051836Y-131838171D01*
X124037529Y-131781054D01*
X124028889Y-131722810D01*
X124026000Y-131664000D01*
X124026000Y-130464000D01*
X124028889Y-130405190D01*
X124037529Y-130346946D01*
X124051836Y-130289829D01*
X124071672Y-130234390D01*
X124096847Y-130181162D01*
X124127118Y-130130658D01*
X124162194Y-130083364D01*
X124201736Y-130039736D01*
X124245364Y-130000194D01*
X124292658Y-129965118D01*
X124343162Y-129934847D01*
X124396390Y-129909672D01*
X124451829Y-129889836D01*
X124508946Y-129875529D01*
X124567190Y-129866889D01*
X124626000Y-129864000D01*
X125826000Y-129864000D01*
X125884810Y-129866889D01*
X125884810Y-129866889D01*
G37*
D11*
X125226000Y-131064000D03*
D14*
X128266000Y-131064000D03*
G04 #@! TD*
G04 #@! TO.C,D2*
X119630000Y-129540000D03*
D13*
G36*
X117248810Y-128342889D02*
X117307054Y-128351529D01*
X117364171Y-128365836D01*
X117419610Y-128385672D01*
X117472838Y-128410847D01*
X117523342Y-128441118D01*
X117570636Y-128476194D01*
X117614264Y-128515736D01*
X117653806Y-128559364D01*
X117688882Y-128606658D01*
X117719153Y-128657162D01*
X117744328Y-128710390D01*
X117764164Y-128765829D01*
X117778471Y-128822946D01*
X117787111Y-128881190D01*
X117790000Y-128940000D01*
X117790000Y-130140000D01*
X117787111Y-130198810D01*
X117778471Y-130257054D01*
X117764164Y-130314171D01*
X117744328Y-130369610D01*
X117719153Y-130422838D01*
X117688882Y-130473342D01*
X117653806Y-130520636D01*
X117614264Y-130564264D01*
X117570636Y-130603806D01*
X117523342Y-130638882D01*
X117472838Y-130669153D01*
X117419610Y-130694328D01*
X117364171Y-130714164D01*
X117307054Y-130728471D01*
X117248810Y-130737111D01*
X117190000Y-130740000D01*
X115990000Y-130740000D01*
X115931190Y-130737111D01*
X115872946Y-130728471D01*
X115815829Y-130714164D01*
X115760390Y-130694328D01*
X115707162Y-130669153D01*
X115656658Y-130638882D01*
X115609364Y-130603806D01*
X115565736Y-130564264D01*
X115526194Y-130520636D01*
X115491118Y-130473342D01*
X115460847Y-130422838D01*
X115435672Y-130369610D01*
X115415836Y-130314171D01*
X115401529Y-130257054D01*
X115392889Y-130198810D01*
X115390000Y-130140000D01*
X115390000Y-128940000D01*
X115392889Y-128881190D01*
X115401529Y-128822946D01*
X115415836Y-128765829D01*
X115435672Y-128710390D01*
X115460847Y-128657162D01*
X115491118Y-128606658D01*
X115526194Y-128559364D01*
X115565736Y-128515736D01*
X115609364Y-128476194D01*
X115656658Y-128441118D01*
X115707162Y-128410847D01*
X115760390Y-128385672D01*
X115815829Y-128365836D01*
X115872946Y-128351529D01*
X115931190Y-128342889D01*
X115990000Y-128340000D01*
X117190000Y-128340000D01*
X117248810Y-128342889D01*
X117248810Y-128342889D01*
G37*
D11*
X116590000Y-129540000D03*
G04 #@! TD*
D13*
G04 #@! TO.C,D3*
G36*
X107596810Y-126310889D02*
X107655054Y-126319529D01*
X107712171Y-126333836D01*
X107767610Y-126353672D01*
X107820838Y-126378847D01*
X107871342Y-126409118D01*
X107918636Y-126444194D01*
X107962264Y-126483736D01*
X108001806Y-126527364D01*
X108036882Y-126574658D01*
X108067153Y-126625162D01*
X108092328Y-126678390D01*
X108112164Y-126733829D01*
X108126471Y-126790946D01*
X108135111Y-126849190D01*
X108138000Y-126908000D01*
X108138000Y-128108000D01*
X108135111Y-128166810D01*
X108126471Y-128225054D01*
X108112164Y-128282171D01*
X108092328Y-128337610D01*
X108067153Y-128390838D01*
X108036882Y-128441342D01*
X108001806Y-128488636D01*
X107962264Y-128532264D01*
X107918636Y-128571806D01*
X107871342Y-128606882D01*
X107820838Y-128637153D01*
X107767610Y-128662328D01*
X107712171Y-128682164D01*
X107655054Y-128696471D01*
X107596810Y-128705111D01*
X107538000Y-128708000D01*
X106338000Y-128708000D01*
X106279190Y-128705111D01*
X106220946Y-128696471D01*
X106163829Y-128682164D01*
X106108390Y-128662328D01*
X106055162Y-128637153D01*
X106004658Y-128606882D01*
X105957364Y-128571806D01*
X105913736Y-128532264D01*
X105874194Y-128488636D01*
X105839118Y-128441342D01*
X105808847Y-128390838D01*
X105783672Y-128337610D01*
X105763836Y-128282171D01*
X105749529Y-128225054D01*
X105740889Y-128166810D01*
X105738000Y-128108000D01*
X105738000Y-126908000D01*
X105740889Y-126849190D01*
X105749529Y-126790946D01*
X105763836Y-126733829D01*
X105783672Y-126678390D01*
X105808847Y-126625162D01*
X105839118Y-126574658D01*
X105874194Y-126527364D01*
X105913736Y-126483736D01*
X105957364Y-126444194D01*
X106004658Y-126409118D01*
X106055162Y-126378847D01*
X106108390Y-126353672D01*
X106163829Y-126333836D01*
X106220946Y-126319529D01*
X106279190Y-126310889D01*
X106338000Y-126308000D01*
X107538000Y-126308000D01*
X107596810Y-126310889D01*
X107596810Y-126310889D01*
G37*
D11*
X106938000Y-127508000D03*
D14*
X109978000Y-127508000D03*
G04 #@! TD*
G04 #@! TO.C,D4*
X99818000Y-122428000D03*
D13*
G36*
X97436810Y-121230889D02*
X97495054Y-121239529D01*
X97552171Y-121253836D01*
X97607610Y-121273672D01*
X97660838Y-121298847D01*
X97711342Y-121329118D01*
X97758636Y-121364194D01*
X97802264Y-121403736D01*
X97841806Y-121447364D01*
X97876882Y-121494658D01*
X97907153Y-121545162D01*
X97932328Y-121598390D01*
X97952164Y-121653829D01*
X97966471Y-121710946D01*
X97975111Y-121769190D01*
X97978000Y-121828000D01*
X97978000Y-123028000D01*
X97975111Y-123086810D01*
X97966471Y-123145054D01*
X97952164Y-123202171D01*
X97932328Y-123257610D01*
X97907153Y-123310838D01*
X97876882Y-123361342D01*
X97841806Y-123408636D01*
X97802264Y-123452264D01*
X97758636Y-123491806D01*
X97711342Y-123526882D01*
X97660838Y-123557153D01*
X97607610Y-123582328D01*
X97552171Y-123602164D01*
X97495054Y-123616471D01*
X97436810Y-123625111D01*
X97378000Y-123628000D01*
X96178000Y-123628000D01*
X96119190Y-123625111D01*
X96060946Y-123616471D01*
X96003829Y-123602164D01*
X95948390Y-123582328D01*
X95895162Y-123557153D01*
X95844658Y-123526882D01*
X95797364Y-123491806D01*
X95753736Y-123452264D01*
X95714194Y-123408636D01*
X95679118Y-123361342D01*
X95648847Y-123310838D01*
X95623672Y-123257610D01*
X95603836Y-123202171D01*
X95589529Y-123145054D01*
X95580889Y-123086810D01*
X95578000Y-123028000D01*
X95578000Y-121828000D01*
X95580889Y-121769190D01*
X95589529Y-121710946D01*
X95603836Y-121653829D01*
X95623672Y-121598390D01*
X95648847Y-121545162D01*
X95679118Y-121494658D01*
X95714194Y-121447364D01*
X95753736Y-121403736D01*
X95797364Y-121364194D01*
X95844658Y-121329118D01*
X95895162Y-121298847D01*
X95948390Y-121273672D01*
X96003829Y-121253836D01*
X96060946Y-121239529D01*
X96119190Y-121230889D01*
X96178000Y-121228000D01*
X97378000Y-121228000D01*
X97436810Y-121230889D01*
X97436810Y-121230889D01*
G37*
D11*
X96778000Y-122428000D03*
G04 #@! TD*
D13*
G04 #@! TO.C,D5*
G36*
X107596810Y-116658889D02*
X107655054Y-116667529D01*
X107712171Y-116681836D01*
X107767610Y-116701672D01*
X107820838Y-116726847D01*
X107871342Y-116757118D01*
X107918636Y-116792194D01*
X107962264Y-116831736D01*
X108001806Y-116875364D01*
X108036882Y-116922658D01*
X108067153Y-116973162D01*
X108092328Y-117026390D01*
X108112164Y-117081829D01*
X108126471Y-117138946D01*
X108135111Y-117197190D01*
X108138000Y-117256000D01*
X108138000Y-118456000D01*
X108135111Y-118514810D01*
X108126471Y-118573054D01*
X108112164Y-118630171D01*
X108092328Y-118685610D01*
X108067153Y-118738838D01*
X108036882Y-118789342D01*
X108001806Y-118836636D01*
X107962264Y-118880264D01*
X107918636Y-118919806D01*
X107871342Y-118954882D01*
X107820838Y-118985153D01*
X107767610Y-119010328D01*
X107712171Y-119030164D01*
X107655054Y-119044471D01*
X107596810Y-119053111D01*
X107538000Y-119056000D01*
X106338000Y-119056000D01*
X106279190Y-119053111D01*
X106220946Y-119044471D01*
X106163829Y-119030164D01*
X106108390Y-119010328D01*
X106055162Y-118985153D01*
X106004658Y-118954882D01*
X105957364Y-118919806D01*
X105913736Y-118880264D01*
X105874194Y-118836636D01*
X105839118Y-118789342D01*
X105808847Y-118738838D01*
X105783672Y-118685610D01*
X105763836Y-118630171D01*
X105749529Y-118573054D01*
X105740889Y-118514810D01*
X105738000Y-118456000D01*
X105738000Y-117256000D01*
X105740889Y-117197190D01*
X105749529Y-117138946D01*
X105763836Y-117081829D01*
X105783672Y-117026390D01*
X105808847Y-116973162D01*
X105839118Y-116922658D01*
X105874194Y-116875364D01*
X105913736Y-116831736D01*
X105957364Y-116792194D01*
X106004658Y-116757118D01*
X106055162Y-116726847D01*
X106108390Y-116701672D01*
X106163829Y-116681836D01*
X106220946Y-116667529D01*
X106279190Y-116658889D01*
X106338000Y-116656000D01*
X107538000Y-116656000D01*
X107596810Y-116658889D01*
X107596810Y-116658889D01*
G37*
D11*
X106938000Y-117856000D03*
D14*
X109978000Y-117856000D03*
G04 #@! TD*
G04 #@! TO.C,D6*
X117090000Y-110744000D03*
D13*
G36*
X114708810Y-109546889D02*
X114767054Y-109555529D01*
X114824171Y-109569836D01*
X114879610Y-109589672D01*
X114932838Y-109614847D01*
X114983342Y-109645118D01*
X115030636Y-109680194D01*
X115074264Y-109719736D01*
X115113806Y-109763364D01*
X115148882Y-109810658D01*
X115179153Y-109861162D01*
X115204328Y-109914390D01*
X115224164Y-109969829D01*
X115238471Y-110026946D01*
X115247111Y-110085190D01*
X115250000Y-110144000D01*
X115250000Y-111344000D01*
X115247111Y-111402810D01*
X115238471Y-111461054D01*
X115224164Y-111518171D01*
X115204328Y-111573610D01*
X115179153Y-111626838D01*
X115148882Y-111677342D01*
X115113806Y-111724636D01*
X115074264Y-111768264D01*
X115030636Y-111807806D01*
X114983342Y-111842882D01*
X114932838Y-111873153D01*
X114879610Y-111898328D01*
X114824171Y-111918164D01*
X114767054Y-111932471D01*
X114708810Y-111941111D01*
X114650000Y-111944000D01*
X113450000Y-111944000D01*
X113391190Y-111941111D01*
X113332946Y-111932471D01*
X113275829Y-111918164D01*
X113220390Y-111898328D01*
X113167162Y-111873153D01*
X113116658Y-111842882D01*
X113069364Y-111807806D01*
X113025736Y-111768264D01*
X112986194Y-111724636D01*
X112951118Y-111677342D01*
X112920847Y-111626838D01*
X112895672Y-111573610D01*
X112875836Y-111518171D01*
X112861529Y-111461054D01*
X112852889Y-111402810D01*
X112850000Y-111344000D01*
X112850000Y-110144000D01*
X112852889Y-110085190D01*
X112861529Y-110026946D01*
X112875836Y-109969829D01*
X112895672Y-109914390D01*
X112920847Y-109861162D01*
X112951118Y-109810658D01*
X112986194Y-109763364D01*
X113025736Y-109719736D01*
X113069364Y-109680194D01*
X113116658Y-109645118D01*
X113167162Y-109614847D01*
X113220390Y-109589672D01*
X113275829Y-109569836D01*
X113332946Y-109555529D01*
X113391190Y-109546889D01*
X113450000Y-109544000D01*
X114650000Y-109544000D01*
X114708810Y-109546889D01*
X114708810Y-109546889D01*
G37*
D11*
X114050000Y-110744000D03*
G04 #@! TD*
D13*
G04 #@! TO.C,D7*
G36*
X111152810Y-101926889D02*
X111211054Y-101935529D01*
X111268171Y-101949836D01*
X111323610Y-101969672D01*
X111376838Y-101994847D01*
X111427342Y-102025118D01*
X111474636Y-102060194D01*
X111518264Y-102099736D01*
X111557806Y-102143364D01*
X111592882Y-102190658D01*
X111623153Y-102241162D01*
X111648328Y-102294390D01*
X111668164Y-102349829D01*
X111682471Y-102406946D01*
X111691111Y-102465190D01*
X111694000Y-102524000D01*
X111694000Y-103724000D01*
X111691111Y-103782810D01*
X111682471Y-103841054D01*
X111668164Y-103898171D01*
X111648328Y-103953610D01*
X111623153Y-104006838D01*
X111592882Y-104057342D01*
X111557806Y-104104636D01*
X111518264Y-104148264D01*
X111474636Y-104187806D01*
X111427342Y-104222882D01*
X111376838Y-104253153D01*
X111323610Y-104278328D01*
X111268171Y-104298164D01*
X111211054Y-104312471D01*
X111152810Y-104321111D01*
X111094000Y-104324000D01*
X109894000Y-104324000D01*
X109835190Y-104321111D01*
X109776946Y-104312471D01*
X109719829Y-104298164D01*
X109664390Y-104278328D01*
X109611162Y-104253153D01*
X109560658Y-104222882D01*
X109513364Y-104187806D01*
X109469736Y-104148264D01*
X109430194Y-104104636D01*
X109395118Y-104057342D01*
X109364847Y-104006838D01*
X109339672Y-103953610D01*
X109319836Y-103898171D01*
X109305529Y-103841054D01*
X109296889Y-103782810D01*
X109294000Y-103724000D01*
X109294000Y-102524000D01*
X109296889Y-102465190D01*
X109305529Y-102406946D01*
X109319836Y-102349829D01*
X109339672Y-102294390D01*
X109364847Y-102241162D01*
X109395118Y-102190658D01*
X109430194Y-102143364D01*
X109469736Y-102099736D01*
X109513364Y-102060194D01*
X109560658Y-102025118D01*
X109611162Y-101994847D01*
X109664390Y-101969672D01*
X109719829Y-101949836D01*
X109776946Y-101935529D01*
X109835190Y-101926889D01*
X109894000Y-101924000D01*
X111094000Y-101924000D01*
X111152810Y-101926889D01*
X111152810Y-101926889D01*
G37*
D11*
X110494000Y-103124000D03*
D14*
X113534000Y-103124000D03*
G04 #@! TD*
G04 #@! TO.C,D8*
X121154000Y-96520000D03*
D13*
G36*
X118772810Y-95322889D02*
X118831054Y-95331529D01*
X118888171Y-95345836D01*
X118943610Y-95365672D01*
X118996838Y-95390847D01*
X119047342Y-95421118D01*
X119094636Y-95456194D01*
X119138264Y-95495736D01*
X119177806Y-95539364D01*
X119212882Y-95586658D01*
X119243153Y-95637162D01*
X119268328Y-95690390D01*
X119288164Y-95745829D01*
X119302471Y-95802946D01*
X119311111Y-95861190D01*
X119314000Y-95920000D01*
X119314000Y-97120000D01*
X119311111Y-97178810D01*
X119302471Y-97237054D01*
X119288164Y-97294171D01*
X119268328Y-97349610D01*
X119243153Y-97402838D01*
X119212882Y-97453342D01*
X119177806Y-97500636D01*
X119138264Y-97544264D01*
X119094636Y-97583806D01*
X119047342Y-97618882D01*
X118996838Y-97649153D01*
X118943610Y-97674328D01*
X118888171Y-97694164D01*
X118831054Y-97708471D01*
X118772810Y-97717111D01*
X118714000Y-97720000D01*
X117514000Y-97720000D01*
X117455190Y-97717111D01*
X117396946Y-97708471D01*
X117339829Y-97694164D01*
X117284390Y-97674328D01*
X117231162Y-97649153D01*
X117180658Y-97618882D01*
X117133364Y-97583806D01*
X117089736Y-97544264D01*
X117050194Y-97500636D01*
X117015118Y-97453342D01*
X116984847Y-97402838D01*
X116959672Y-97349610D01*
X116939836Y-97294171D01*
X116925529Y-97237054D01*
X116916889Y-97178810D01*
X116914000Y-97120000D01*
X116914000Y-95920000D01*
X116916889Y-95861190D01*
X116925529Y-95802946D01*
X116939836Y-95745829D01*
X116959672Y-95690390D01*
X116984847Y-95637162D01*
X117015118Y-95586658D01*
X117050194Y-95539364D01*
X117089736Y-95495736D01*
X117133364Y-95456194D01*
X117180658Y-95421118D01*
X117231162Y-95390847D01*
X117284390Y-95365672D01*
X117339829Y-95345836D01*
X117396946Y-95331529D01*
X117455190Y-95322889D01*
X117514000Y-95320000D01*
X118714000Y-95320000D01*
X118772810Y-95322889D01*
X118772810Y-95322889D01*
G37*
D11*
X118114000Y-96520000D03*
G04 #@! TD*
D13*
G04 #@! TO.C,D9*
G36*
X124868810Y-87194889D02*
X124927054Y-87203529D01*
X124984171Y-87217836D01*
X125039610Y-87237672D01*
X125092838Y-87262847D01*
X125143342Y-87293118D01*
X125190636Y-87328194D01*
X125234264Y-87367736D01*
X125273806Y-87411364D01*
X125308882Y-87458658D01*
X125339153Y-87509162D01*
X125364328Y-87562390D01*
X125384164Y-87617829D01*
X125398471Y-87674946D01*
X125407111Y-87733190D01*
X125410000Y-87792000D01*
X125410000Y-88992000D01*
X125407111Y-89050810D01*
X125398471Y-89109054D01*
X125384164Y-89166171D01*
X125364328Y-89221610D01*
X125339153Y-89274838D01*
X125308882Y-89325342D01*
X125273806Y-89372636D01*
X125234264Y-89416264D01*
X125190636Y-89455806D01*
X125143342Y-89490882D01*
X125092838Y-89521153D01*
X125039610Y-89546328D01*
X124984171Y-89566164D01*
X124927054Y-89580471D01*
X124868810Y-89589111D01*
X124810000Y-89592000D01*
X123610000Y-89592000D01*
X123551190Y-89589111D01*
X123492946Y-89580471D01*
X123435829Y-89566164D01*
X123380390Y-89546328D01*
X123327162Y-89521153D01*
X123276658Y-89490882D01*
X123229364Y-89455806D01*
X123185736Y-89416264D01*
X123146194Y-89372636D01*
X123111118Y-89325342D01*
X123080847Y-89274838D01*
X123055672Y-89221610D01*
X123035836Y-89166171D01*
X123021529Y-89109054D01*
X123012889Y-89050810D01*
X123010000Y-88992000D01*
X123010000Y-87792000D01*
X123012889Y-87733190D01*
X123021529Y-87674946D01*
X123035836Y-87617829D01*
X123055672Y-87562390D01*
X123080847Y-87509162D01*
X123111118Y-87458658D01*
X123146194Y-87411364D01*
X123185736Y-87367736D01*
X123229364Y-87328194D01*
X123276658Y-87293118D01*
X123327162Y-87262847D01*
X123380390Y-87237672D01*
X123435829Y-87217836D01*
X123492946Y-87203529D01*
X123551190Y-87194889D01*
X123610000Y-87192000D01*
X124810000Y-87192000D01*
X124868810Y-87194889D01*
X124868810Y-87194889D01*
G37*
D11*
X124210000Y-88392000D03*
D14*
X127250000Y-88392000D03*
G04 #@! TD*
D13*
G04 #@! TO.C,D10*
G36*
X121312810Y-79066889D02*
X121371054Y-79075529D01*
X121428171Y-79089836D01*
X121483610Y-79109672D01*
X121536838Y-79134847D01*
X121587342Y-79165118D01*
X121634636Y-79200194D01*
X121678264Y-79239736D01*
X121717806Y-79283364D01*
X121752882Y-79330658D01*
X121783153Y-79381162D01*
X121808328Y-79434390D01*
X121828164Y-79489829D01*
X121842471Y-79546946D01*
X121851111Y-79605190D01*
X121854000Y-79664000D01*
X121854000Y-80864000D01*
X121851111Y-80922810D01*
X121842471Y-80981054D01*
X121828164Y-81038171D01*
X121808328Y-81093610D01*
X121783153Y-81146838D01*
X121752882Y-81197342D01*
X121717806Y-81244636D01*
X121678264Y-81288264D01*
X121634636Y-81327806D01*
X121587342Y-81362882D01*
X121536838Y-81393153D01*
X121483610Y-81418328D01*
X121428171Y-81438164D01*
X121371054Y-81452471D01*
X121312810Y-81461111D01*
X121254000Y-81464000D01*
X120054000Y-81464000D01*
X119995190Y-81461111D01*
X119936946Y-81452471D01*
X119879829Y-81438164D01*
X119824390Y-81418328D01*
X119771162Y-81393153D01*
X119720658Y-81362882D01*
X119673364Y-81327806D01*
X119629736Y-81288264D01*
X119590194Y-81244636D01*
X119555118Y-81197342D01*
X119524847Y-81146838D01*
X119499672Y-81093610D01*
X119479836Y-81038171D01*
X119465529Y-80981054D01*
X119456889Y-80922810D01*
X119454000Y-80864000D01*
X119454000Y-79664000D01*
X119456889Y-79605190D01*
X119465529Y-79546946D01*
X119479836Y-79489829D01*
X119499672Y-79434390D01*
X119524847Y-79381162D01*
X119555118Y-79330658D01*
X119590194Y-79283364D01*
X119629736Y-79239736D01*
X119673364Y-79200194D01*
X119720658Y-79165118D01*
X119771162Y-79134847D01*
X119824390Y-79109672D01*
X119879829Y-79089836D01*
X119936946Y-79075529D01*
X119995190Y-79066889D01*
X120054000Y-79064000D01*
X121254000Y-79064000D01*
X121312810Y-79066889D01*
X121312810Y-79066889D01*
G37*
D11*
X120654000Y-80264000D03*
D14*
X123694000Y-80264000D03*
G04 #@! TD*
G04 #@! TO.C,D11*
X133854000Y-71120000D03*
D13*
G36*
X131472810Y-69922889D02*
X131531054Y-69931529D01*
X131588171Y-69945836D01*
X131643610Y-69965672D01*
X131696838Y-69990847D01*
X131747342Y-70021118D01*
X131794636Y-70056194D01*
X131838264Y-70095736D01*
X131877806Y-70139364D01*
X131912882Y-70186658D01*
X131943153Y-70237162D01*
X131968328Y-70290390D01*
X131988164Y-70345829D01*
X132002471Y-70402946D01*
X132011111Y-70461190D01*
X132014000Y-70520000D01*
X132014000Y-71720000D01*
X132011111Y-71778810D01*
X132002471Y-71837054D01*
X131988164Y-71894171D01*
X131968328Y-71949610D01*
X131943153Y-72002838D01*
X131912882Y-72053342D01*
X131877806Y-72100636D01*
X131838264Y-72144264D01*
X131794636Y-72183806D01*
X131747342Y-72218882D01*
X131696838Y-72249153D01*
X131643610Y-72274328D01*
X131588171Y-72294164D01*
X131531054Y-72308471D01*
X131472810Y-72317111D01*
X131414000Y-72320000D01*
X130214000Y-72320000D01*
X130155190Y-72317111D01*
X130096946Y-72308471D01*
X130039829Y-72294164D01*
X129984390Y-72274328D01*
X129931162Y-72249153D01*
X129880658Y-72218882D01*
X129833364Y-72183806D01*
X129789736Y-72144264D01*
X129750194Y-72100636D01*
X129715118Y-72053342D01*
X129684847Y-72002838D01*
X129659672Y-71949610D01*
X129639836Y-71894171D01*
X129625529Y-71837054D01*
X129616889Y-71778810D01*
X129614000Y-71720000D01*
X129614000Y-70520000D01*
X129616889Y-70461190D01*
X129625529Y-70402946D01*
X129639836Y-70345829D01*
X129659672Y-70290390D01*
X129684847Y-70237162D01*
X129715118Y-70186658D01*
X129750194Y-70139364D01*
X129789736Y-70095736D01*
X129833364Y-70056194D01*
X129880658Y-70021118D01*
X129931162Y-69990847D01*
X129984390Y-69965672D01*
X130039829Y-69945836D01*
X130096946Y-69931529D01*
X130155190Y-69922889D01*
X130214000Y-69920000D01*
X131414000Y-69920000D01*
X131472810Y-69922889D01*
X131472810Y-69922889D01*
G37*
D11*
X130814000Y-71120000D03*
G04 #@! TD*
D13*
G04 #@! TO.C,D12*
G36*
X141124810Y-79066889D02*
X141183054Y-79075529D01*
X141240171Y-79089836D01*
X141295610Y-79109672D01*
X141348838Y-79134847D01*
X141399342Y-79165118D01*
X141446636Y-79200194D01*
X141490264Y-79239736D01*
X141529806Y-79283364D01*
X141564882Y-79330658D01*
X141595153Y-79381162D01*
X141620328Y-79434390D01*
X141640164Y-79489829D01*
X141654471Y-79546946D01*
X141663111Y-79605190D01*
X141666000Y-79664000D01*
X141666000Y-80864000D01*
X141663111Y-80922810D01*
X141654471Y-80981054D01*
X141640164Y-81038171D01*
X141620328Y-81093610D01*
X141595153Y-81146838D01*
X141564882Y-81197342D01*
X141529806Y-81244636D01*
X141490264Y-81288264D01*
X141446636Y-81327806D01*
X141399342Y-81362882D01*
X141348838Y-81393153D01*
X141295610Y-81418328D01*
X141240171Y-81438164D01*
X141183054Y-81452471D01*
X141124810Y-81461111D01*
X141066000Y-81464000D01*
X139866000Y-81464000D01*
X139807190Y-81461111D01*
X139748946Y-81452471D01*
X139691829Y-81438164D01*
X139636390Y-81418328D01*
X139583162Y-81393153D01*
X139532658Y-81362882D01*
X139485364Y-81327806D01*
X139441736Y-81288264D01*
X139402194Y-81244636D01*
X139367118Y-81197342D01*
X139336847Y-81146838D01*
X139311672Y-81093610D01*
X139291836Y-81038171D01*
X139277529Y-80981054D01*
X139268889Y-80922810D01*
X139266000Y-80864000D01*
X139266000Y-79664000D01*
X139268889Y-79605190D01*
X139277529Y-79546946D01*
X139291836Y-79489829D01*
X139311672Y-79434390D01*
X139336847Y-79381162D01*
X139367118Y-79330658D01*
X139402194Y-79283364D01*
X139441736Y-79239736D01*
X139485364Y-79200194D01*
X139532658Y-79165118D01*
X139583162Y-79134847D01*
X139636390Y-79109672D01*
X139691829Y-79089836D01*
X139748946Y-79075529D01*
X139807190Y-79066889D01*
X139866000Y-79064000D01*
X141066000Y-79064000D01*
X141124810Y-79066889D01*
X141124810Y-79066889D01*
G37*
D11*
X140466000Y-80264000D03*
D14*
X143506000Y-80264000D03*
G04 #@! TD*
G04 #@! TO.C,D13*
X141982000Y-88392000D03*
D13*
G36*
X139600810Y-87194889D02*
X139659054Y-87203529D01*
X139716171Y-87217836D01*
X139771610Y-87237672D01*
X139824838Y-87262847D01*
X139875342Y-87293118D01*
X139922636Y-87328194D01*
X139966264Y-87367736D01*
X140005806Y-87411364D01*
X140040882Y-87458658D01*
X140071153Y-87509162D01*
X140096328Y-87562390D01*
X140116164Y-87617829D01*
X140130471Y-87674946D01*
X140139111Y-87733190D01*
X140142000Y-87792000D01*
X140142000Y-88992000D01*
X140139111Y-89050810D01*
X140130471Y-89109054D01*
X140116164Y-89166171D01*
X140096328Y-89221610D01*
X140071153Y-89274838D01*
X140040882Y-89325342D01*
X140005806Y-89372636D01*
X139966264Y-89416264D01*
X139922636Y-89455806D01*
X139875342Y-89490882D01*
X139824838Y-89521153D01*
X139771610Y-89546328D01*
X139716171Y-89566164D01*
X139659054Y-89580471D01*
X139600810Y-89589111D01*
X139542000Y-89592000D01*
X138342000Y-89592000D01*
X138283190Y-89589111D01*
X138224946Y-89580471D01*
X138167829Y-89566164D01*
X138112390Y-89546328D01*
X138059162Y-89521153D01*
X138008658Y-89490882D01*
X137961364Y-89455806D01*
X137917736Y-89416264D01*
X137878194Y-89372636D01*
X137843118Y-89325342D01*
X137812847Y-89274838D01*
X137787672Y-89221610D01*
X137767836Y-89166171D01*
X137753529Y-89109054D01*
X137744889Y-89050810D01*
X137742000Y-88992000D01*
X137742000Y-87792000D01*
X137744889Y-87733190D01*
X137753529Y-87674946D01*
X137767836Y-87617829D01*
X137787672Y-87562390D01*
X137812847Y-87509162D01*
X137843118Y-87458658D01*
X137878194Y-87411364D01*
X137917736Y-87367736D01*
X137961364Y-87328194D01*
X138008658Y-87293118D01*
X138059162Y-87262847D01*
X138112390Y-87237672D01*
X138167829Y-87217836D01*
X138224946Y-87203529D01*
X138283190Y-87194889D01*
X138342000Y-87192000D01*
X139542000Y-87192000D01*
X139600810Y-87194889D01*
X139600810Y-87194889D01*
G37*
D11*
X138942000Y-88392000D03*
G04 #@! TD*
D13*
G04 #@! TO.C,D14*
G36*
X144172810Y-95322889D02*
X144231054Y-95331529D01*
X144288171Y-95345836D01*
X144343610Y-95365672D01*
X144396838Y-95390847D01*
X144447342Y-95421118D01*
X144494636Y-95456194D01*
X144538264Y-95495736D01*
X144577806Y-95539364D01*
X144612882Y-95586658D01*
X144643153Y-95637162D01*
X144668328Y-95690390D01*
X144688164Y-95745829D01*
X144702471Y-95802946D01*
X144711111Y-95861190D01*
X144714000Y-95920000D01*
X144714000Y-97120000D01*
X144711111Y-97178810D01*
X144702471Y-97237054D01*
X144688164Y-97294171D01*
X144668328Y-97349610D01*
X144643153Y-97402838D01*
X144612882Y-97453342D01*
X144577806Y-97500636D01*
X144538264Y-97544264D01*
X144494636Y-97583806D01*
X144447342Y-97618882D01*
X144396838Y-97649153D01*
X144343610Y-97674328D01*
X144288171Y-97694164D01*
X144231054Y-97708471D01*
X144172810Y-97717111D01*
X144114000Y-97720000D01*
X142914000Y-97720000D01*
X142855190Y-97717111D01*
X142796946Y-97708471D01*
X142739829Y-97694164D01*
X142684390Y-97674328D01*
X142631162Y-97649153D01*
X142580658Y-97618882D01*
X142533364Y-97583806D01*
X142489736Y-97544264D01*
X142450194Y-97500636D01*
X142415118Y-97453342D01*
X142384847Y-97402838D01*
X142359672Y-97349610D01*
X142339836Y-97294171D01*
X142325529Y-97237054D01*
X142316889Y-97178810D01*
X142314000Y-97120000D01*
X142314000Y-95920000D01*
X142316889Y-95861190D01*
X142325529Y-95802946D01*
X142339836Y-95745829D01*
X142359672Y-95690390D01*
X142384847Y-95637162D01*
X142415118Y-95586658D01*
X142450194Y-95539364D01*
X142489736Y-95495736D01*
X142533364Y-95456194D01*
X142580658Y-95421118D01*
X142631162Y-95390847D01*
X142684390Y-95365672D01*
X142739829Y-95345836D01*
X142796946Y-95331529D01*
X142855190Y-95322889D01*
X142914000Y-95320000D01*
X144114000Y-95320000D01*
X144172810Y-95322889D01*
X144172810Y-95322889D01*
G37*
D11*
X143514000Y-96520000D03*
D14*
X146554000Y-96520000D03*
G04 #@! TD*
G04 #@! TO.C,D15*
X154682000Y-103124000D03*
D13*
G36*
X152300810Y-101926889D02*
X152359054Y-101935529D01*
X152416171Y-101949836D01*
X152471610Y-101969672D01*
X152524838Y-101994847D01*
X152575342Y-102025118D01*
X152622636Y-102060194D01*
X152666264Y-102099736D01*
X152705806Y-102143364D01*
X152740882Y-102190658D01*
X152771153Y-102241162D01*
X152796328Y-102294390D01*
X152816164Y-102349829D01*
X152830471Y-102406946D01*
X152839111Y-102465190D01*
X152842000Y-102524000D01*
X152842000Y-103724000D01*
X152839111Y-103782810D01*
X152830471Y-103841054D01*
X152816164Y-103898171D01*
X152796328Y-103953610D01*
X152771153Y-104006838D01*
X152740882Y-104057342D01*
X152705806Y-104104636D01*
X152666264Y-104148264D01*
X152622636Y-104187806D01*
X152575342Y-104222882D01*
X152524838Y-104253153D01*
X152471610Y-104278328D01*
X152416171Y-104298164D01*
X152359054Y-104312471D01*
X152300810Y-104321111D01*
X152242000Y-104324000D01*
X151042000Y-104324000D01*
X150983190Y-104321111D01*
X150924946Y-104312471D01*
X150867829Y-104298164D01*
X150812390Y-104278328D01*
X150759162Y-104253153D01*
X150708658Y-104222882D01*
X150661364Y-104187806D01*
X150617736Y-104148264D01*
X150578194Y-104104636D01*
X150543118Y-104057342D01*
X150512847Y-104006838D01*
X150487672Y-103953610D01*
X150467836Y-103898171D01*
X150453529Y-103841054D01*
X150444889Y-103782810D01*
X150442000Y-103724000D01*
X150442000Y-102524000D01*
X150444889Y-102465190D01*
X150453529Y-102406946D01*
X150467836Y-102349829D01*
X150487672Y-102294390D01*
X150512847Y-102241162D01*
X150543118Y-102190658D01*
X150578194Y-102143364D01*
X150617736Y-102099736D01*
X150661364Y-102060194D01*
X150708658Y-102025118D01*
X150759162Y-101994847D01*
X150812390Y-101969672D01*
X150867829Y-101949836D01*
X150924946Y-101935529D01*
X150983190Y-101926889D01*
X151042000Y-101924000D01*
X152242000Y-101924000D01*
X152300810Y-101926889D01*
X152300810Y-101926889D01*
G37*
D11*
X151642000Y-103124000D03*
G04 #@! TD*
D13*
G04 #@! TO.C,D16*
G36*
X148744810Y-109546889D02*
X148803054Y-109555529D01*
X148860171Y-109569836D01*
X148915610Y-109589672D01*
X148968838Y-109614847D01*
X149019342Y-109645118D01*
X149066636Y-109680194D01*
X149110264Y-109719736D01*
X149149806Y-109763364D01*
X149184882Y-109810658D01*
X149215153Y-109861162D01*
X149240328Y-109914390D01*
X149260164Y-109969829D01*
X149274471Y-110026946D01*
X149283111Y-110085190D01*
X149286000Y-110144000D01*
X149286000Y-111344000D01*
X149283111Y-111402810D01*
X149274471Y-111461054D01*
X149260164Y-111518171D01*
X149240328Y-111573610D01*
X149215153Y-111626838D01*
X149184882Y-111677342D01*
X149149806Y-111724636D01*
X149110264Y-111768264D01*
X149066636Y-111807806D01*
X149019342Y-111842882D01*
X148968838Y-111873153D01*
X148915610Y-111898328D01*
X148860171Y-111918164D01*
X148803054Y-111932471D01*
X148744810Y-111941111D01*
X148686000Y-111944000D01*
X147486000Y-111944000D01*
X147427190Y-111941111D01*
X147368946Y-111932471D01*
X147311829Y-111918164D01*
X147256390Y-111898328D01*
X147203162Y-111873153D01*
X147152658Y-111842882D01*
X147105364Y-111807806D01*
X147061736Y-111768264D01*
X147022194Y-111724636D01*
X146987118Y-111677342D01*
X146956847Y-111626838D01*
X146931672Y-111573610D01*
X146911836Y-111518171D01*
X146897529Y-111461054D01*
X146888889Y-111402810D01*
X146886000Y-111344000D01*
X146886000Y-110144000D01*
X146888889Y-110085190D01*
X146897529Y-110026946D01*
X146911836Y-109969829D01*
X146931672Y-109914390D01*
X146956847Y-109861162D01*
X146987118Y-109810658D01*
X147022194Y-109763364D01*
X147061736Y-109719736D01*
X147105364Y-109680194D01*
X147152658Y-109645118D01*
X147203162Y-109614847D01*
X147256390Y-109589672D01*
X147311829Y-109569836D01*
X147368946Y-109555529D01*
X147427190Y-109546889D01*
X147486000Y-109544000D01*
X148686000Y-109544000D01*
X148744810Y-109546889D01*
X148744810Y-109546889D01*
G37*
D11*
X148086000Y-110744000D03*
D14*
X151126000Y-110744000D03*
G04 #@! TD*
G04 #@! TO.C,D17*
X157730000Y-117856000D03*
D13*
G36*
X155348810Y-116658889D02*
X155407054Y-116667529D01*
X155464171Y-116681836D01*
X155519610Y-116701672D01*
X155572838Y-116726847D01*
X155623342Y-116757118D01*
X155670636Y-116792194D01*
X155714264Y-116831736D01*
X155753806Y-116875364D01*
X155788882Y-116922658D01*
X155819153Y-116973162D01*
X155844328Y-117026390D01*
X155864164Y-117081829D01*
X155878471Y-117138946D01*
X155887111Y-117197190D01*
X155890000Y-117256000D01*
X155890000Y-118456000D01*
X155887111Y-118514810D01*
X155878471Y-118573054D01*
X155864164Y-118630171D01*
X155844328Y-118685610D01*
X155819153Y-118738838D01*
X155788882Y-118789342D01*
X155753806Y-118836636D01*
X155714264Y-118880264D01*
X155670636Y-118919806D01*
X155623342Y-118954882D01*
X155572838Y-118985153D01*
X155519610Y-119010328D01*
X155464171Y-119030164D01*
X155407054Y-119044471D01*
X155348810Y-119053111D01*
X155290000Y-119056000D01*
X154090000Y-119056000D01*
X154031190Y-119053111D01*
X153972946Y-119044471D01*
X153915829Y-119030164D01*
X153860390Y-119010328D01*
X153807162Y-118985153D01*
X153756658Y-118954882D01*
X153709364Y-118919806D01*
X153665736Y-118880264D01*
X153626194Y-118836636D01*
X153591118Y-118789342D01*
X153560847Y-118738838D01*
X153535672Y-118685610D01*
X153515836Y-118630171D01*
X153501529Y-118573054D01*
X153492889Y-118514810D01*
X153490000Y-118456000D01*
X153490000Y-117256000D01*
X153492889Y-117197190D01*
X153501529Y-117138946D01*
X153515836Y-117081829D01*
X153535672Y-117026390D01*
X153560847Y-116973162D01*
X153591118Y-116922658D01*
X153626194Y-116875364D01*
X153665736Y-116831736D01*
X153709364Y-116792194D01*
X153756658Y-116757118D01*
X153807162Y-116726847D01*
X153860390Y-116701672D01*
X153915829Y-116681836D01*
X153972946Y-116667529D01*
X154031190Y-116658889D01*
X154090000Y-116656000D01*
X155290000Y-116656000D01*
X155348810Y-116658889D01*
X155348810Y-116658889D01*
G37*
D11*
X154690000Y-117856000D03*
G04 #@! TD*
D13*
G04 #@! TO.C,D18*
G36*
X166016810Y-121230889D02*
X166075054Y-121239529D01*
X166132171Y-121253836D01*
X166187610Y-121273672D01*
X166240838Y-121298847D01*
X166291342Y-121329118D01*
X166338636Y-121364194D01*
X166382264Y-121403736D01*
X166421806Y-121447364D01*
X166456882Y-121494658D01*
X166487153Y-121545162D01*
X166512328Y-121598390D01*
X166532164Y-121653829D01*
X166546471Y-121710946D01*
X166555111Y-121769190D01*
X166558000Y-121828000D01*
X166558000Y-123028000D01*
X166555111Y-123086810D01*
X166546471Y-123145054D01*
X166532164Y-123202171D01*
X166512328Y-123257610D01*
X166487153Y-123310838D01*
X166456882Y-123361342D01*
X166421806Y-123408636D01*
X166382264Y-123452264D01*
X166338636Y-123491806D01*
X166291342Y-123526882D01*
X166240838Y-123557153D01*
X166187610Y-123582328D01*
X166132171Y-123602164D01*
X166075054Y-123616471D01*
X166016810Y-123625111D01*
X165958000Y-123628000D01*
X164758000Y-123628000D01*
X164699190Y-123625111D01*
X164640946Y-123616471D01*
X164583829Y-123602164D01*
X164528390Y-123582328D01*
X164475162Y-123557153D01*
X164424658Y-123526882D01*
X164377364Y-123491806D01*
X164333736Y-123452264D01*
X164294194Y-123408636D01*
X164259118Y-123361342D01*
X164228847Y-123310838D01*
X164203672Y-123257610D01*
X164183836Y-123202171D01*
X164169529Y-123145054D01*
X164160889Y-123086810D01*
X164158000Y-123028000D01*
X164158000Y-121828000D01*
X164160889Y-121769190D01*
X164169529Y-121710946D01*
X164183836Y-121653829D01*
X164203672Y-121598390D01*
X164228847Y-121545162D01*
X164259118Y-121494658D01*
X164294194Y-121447364D01*
X164333736Y-121403736D01*
X164377364Y-121364194D01*
X164424658Y-121329118D01*
X164475162Y-121298847D01*
X164528390Y-121273672D01*
X164583829Y-121253836D01*
X164640946Y-121239529D01*
X164699190Y-121230889D01*
X164758000Y-121228000D01*
X165958000Y-121228000D01*
X166016810Y-121230889D01*
X166016810Y-121230889D01*
G37*
D11*
X165358000Y-122428000D03*
D14*
X168398000Y-122428000D03*
G04 #@! TD*
G04 #@! TO.C,D19*
X157730000Y-127508000D03*
D13*
G36*
X155348810Y-126310889D02*
X155407054Y-126319529D01*
X155464171Y-126333836D01*
X155519610Y-126353672D01*
X155572838Y-126378847D01*
X155623342Y-126409118D01*
X155670636Y-126444194D01*
X155714264Y-126483736D01*
X155753806Y-126527364D01*
X155788882Y-126574658D01*
X155819153Y-126625162D01*
X155844328Y-126678390D01*
X155864164Y-126733829D01*
X155878471Y-126790946D01*
X155887111Y-126849190D01*
X155890000Y-126908000D01*
X155890000Y-128108000D01*
X155887111Y-128166810D01*
X155878471Y-128225054D01*
X155864164Y-128282171D01*
X155844328Y-128337610D01*
X155819153Y-128390838D01*
X155788882Y-128441342D01*
X155753806Y-128488636D01*
X155714264Y-128532264D01*
X155670636Y-128571806D01*
X155623342Y-128606882D01*
X155572838Y-128637153D01*
X155519610Y-128662328D01*
X155464171Y-128682164D01*
X155407054Y-128696471D01*
X155348810Y-128705111D01*
X155290000Y-128708000D01*
X154090000Y-128708000D01*
X154031190Y-128705111D01*
X153972946Y-128696471D01*
X153915829Y-128682164D01*
X153860390Y-128662328D01*
X153807162Y-128637153D01*
X153756658Y-128606882D01*
X153709364Y-128571806D01*
X153665736Y-128532264D01*
X153626194Y-128488636D01*
X153591118Y-128441342D01*
X153560847Y-128390838D01*
X153535672Y-128337610D01*
X153515836Y-128282171D01*
X153501529Y-128225054D01*
X153492889Y-128166810D01*
X153490000Y-128108000D01*
X153490000Y-126908000D01*
X153492889Y-126849190D01*
X153501529Y-126790946D01*
X153515836Y-126733829D01*
X153535672Y-126678390D01*
X153560847Y-126625162D01*
X153591118Y-126574658D01*
X153626194Y-126527364D01*
X153665736Y-126483736D01*
X153709364Y-126444194D01*
X153756658Y-126409118D01*
X153807162Y-126378847D01*
X153860390Y-126353672D01*
X153915829Y-126333836D01*
X153972946Y-126319529D01*
X154031190Y-126310889D01*
X154090000Y-126308000D01*
X155290000Y-126308000D01*
X155348810Y-126310889D01*
X155348810Y-126310889D01*
G37*
D11*
X154690000Y-127508000D03*
G04 #@! TD*
D13*
G04 #@! TO.C,D20*
G36*
X145696810Y-128850889D02*
X145755054Y-128859529D01*
X145812171Y-128873836D01*
X145867610Y-128893672D01*
X145920838Y-128918847D01*
X145971342Y-128949118D01*
X146018636Y-128984194D01*
X146062264Y-129023736D01*
X146101806Y-129067364D01*
X146136882Y-129114658D01*
X146167153Y-129165162D01*
X146192328Y-129218390D01*
X146212164Y-129273829D01*
X146226471Y-129330946D01*
X146235111Y-129389190D01*
X146238000Y-129448000D01*
X146238000Y-130648000D01*
X146235111Y-130706810D01*
X146226471Y-130765054D01*
X146212164Y-130822171D01*
X146192328Y-130877610D01*
X146167153Y-130930838D01*
X146136882Y-130981342D01*
X146101806Y-131028636D01*
X146062264Y-131072264D01*
X146018636Y-131111806D01*
X145971342Y-131146882D01*
X145920838Y-131177153D01*
X145867610Y-131202328D01*
X145812171Y-131222164D01*
X145755054Y-131236471D01*
X145696810Y-131245111D01*
X145638000Y-131248000D01*
X144438000Y-131248000D01*
X144379190Y-131245111D01*
X144320946Y-131236471D01*
X144263829Y-131222164D01*
X144208390Y-131202328D01*
X144155162Y-131177153D01*
X144104658Y-131146882D01*
X144057364Y-131111806D01*
X144013736Y-131072264D01*
X143974194Y-131028636D01*
X143939118Y-130981342D01*
X143908847Y-130930838D01*
X143883672Y-130877610D01*
X143863836Y-130822171D01*
X143849529Y-130765054D01*
X143840889Y-130706810D01*
X143838000Y-130648000D01*
X143838000Y-129448000D01*
X143840889Y-129389190D01*
X143849529Y-129330946D01*
X143863836Y-129273829D01*
X143883672Y-129218390D01*
X143908847Y-129165162D01*
X143939118Y-129114658D01*
X143974194Y-129067364D01*
X144013736Y-129023736D01*
X144057364Y-128984194D01*
X144104658Y-128949118D01*
X144155162Y-128918847D01*
X144208390Y-128893672D01*
X144263829Y-128873836D01*
X144320946Y-128859529D01*
X144379190Y-128850889D01*
X144438000Y-128848000D01*
X145638000Y-128848000D01*
X145696810Y-128850889D01*
X145696810Y-128850889D01*
G37*
D11*
X145038000Y-130048000D03*
D14*
X148078000Y-130048000D03*
G04 #@! TD*
G04 #@! TO.C,D21*
X138934000Y-131064000D03*
D13*
G36*
X136552810Y-129866889D02*
X136611054Y-129875529D01*
X136668171Y-129889836D01*
X136723610Y-129909672D01*
X136776838Y-129934847D01*
X136827342Y-129965118D01*
X136874636Y-130000194D01*
X136918264Y-130039736D01*
X136957806Y-130083364D01*
X136992882Y-130130658D01*
X137023153Y-130181162D01*
X137048328Y-130234390D01*
X137068164Y-130289829D01*
X137082471Y-130346946D01*
X137091111Y-130405190D01*
X137094000Y-130464000D01*
X137094000Y-131664000D01*
X137091111Y-131722810D01*
X137082471Y-131781054D01*
X137068164Y-131838171D01*
X137048328Y-131893610D01*
X137023153Y-131946838D01*
X136992882Y-131997342D01*
X136957806Y-132044636D01*
X136918264Y-132088264D01*
X136874636Y-132127806D01*
X136827342Y-132162882D01*
X136776838Y-132193153D01*
X136723610Y-132218328D01*
X136668171Y-132238164D01*
X136611054Y-132252471D01*
X136552810Y-132261111D01*
X136494000Y-132264000D01*
X135294000Y-132264000D01*
X135235190Y-132261111D01*
X135176946Y-132252471D01*
X135119829Y-132238164D01*
X135064390Y-132218328D01*
X135011162Y-132193153D01*
X134960658Y-132162882D01*
X134913364Y-132127806D01*
X134869736Y-132088264D01*
X134830194Y-132044636D01*
X134795118Y-131997342D01*
X134764847Y-131946838D01*
X134739672Y-131893610D01*
X134719836Y-131838171D01*
X134705529Y-131781054D01*
X134696889Y-131722810D01*
X134694000Y-131664000D01*
X134694000Y-130464000D01*
X134696889Y-130405190D01*
X134705529Y-130346946D01*
X134719836Y-130289829D01*
X134739672Y-130234390D01*
X134764847Y-130181162D01*
X134795118Y-130130658D01*
X134830194Y-130083364D01*
X134869736Y-130039736D01*
X134913364Y-130000194D01*
X134960658Y-129965118D01*
X135011162Y-129934847D01*
X135064390Y-129909672D01*
X135119829Y-129889836D01*
X135176946Y-129875529D01*
X135235190Y-129866889D01*
X135294000Y-129864000D01*
X136494000Y-129864000D01*
X136552810Y-129866889D01*
X136552810Y-129866889D01*
G37*
D11*
X135894000Y-131064000D03*
G04 #@! TD*
D14*
G04 #@! TO.C,D22*
X141474000Y-118364000D03*
D13*
G36*
X139092810Y-117166889D02*
X139151054Y-117175529D01*
X139208171Y-117189836D01*
X139263610Y-117209672D01*
X139316838Y-117234847D01*
X139367342Y-117265118D01*
X139414636Y-117300194D01*
X139458264Y-117339736D01*
X139497806Y-117383364D01*
X139532882Y-117430658D01*
X139563153Y-117481162D01*
X139588328Y-117534390D01*
X139608164Y-117589829D01*
X139622471Y-117646946D01*
X139631111Y-117705190D01*
X139634000Y-117764000D01*
X139634000Y-118964000D01*
X139631111Y-119022810D01*
X139622471Y-119081054D01*
X139608164Y-119138171D01*
X139588328Y-119193610D01*
X139563153Y-119246838D01*
X139532882Y-119297342D01*
X139497806Y-119344636D01*
X139458264Y-119388264D01*
X139414636Y-119427806D01*
X139367342Y-119462882D01*
X139316838Y-119493153D01*
X139263610Y-119518328D01*
X139208171Y-119538164D01*
X139151054Y-119552471D01*
X139092810Y-119561111D01*
X139034000Y-119564000D01*
X137834000Y-119564000D01*
X137775190Y-119561111D01*
X137716946Y-119552471D01*
X137659829Y-119538164D01*
X137604390Y-119518328D01*
X137551162Y-119493153D01*
X137500658Y-119462882D01*
X137453364Y-119427806D01*
X137409736Y-119388264D01*
X137370194Y-119344636D01*
X137335118Y-119297342D01*
X137304847Y-119246838D01*
X137279672Y-119193610D01*
X137259836Y-119138171D01*
X137245529Y-119081054D01*
X137236889Y-119022810D01*
X137234000Y-118964000D01*
X137234000Y-117764000D01*
X137236889Y-117705190D01*
X137245529Y-117646946D01*
X137259836Y-117589829D01*
X137279672Y-117534390D01*
X137304847Y-117481162D01*
X137335118Y-117430658D01*
X137370194Y-117383364D01*
X137409736Y-117339736D01*
X137453364Y-117300194D01*
X137500658Y-117265118D01*
X137551162Y-117234847D01*
X137604390Y-117209672D01*
X137659829Y-117189836D01*
X137716946Y-117175529D01*
X137775190Y-117166889D01*
X137834000Y-117164000D01*
X139034000Y-117164000D01*
X139092810Y-117166889D01*
X139092810Y-117166889D01*
G37*
D11*
X138434000Y-118364000D03*
G04 #@! TD*
D13*
G04 #@! TO.C,D23*
G36*
X129948810Y-110054889D02*
X130007054Y-110063529D01*
X130064171Y-110077836D01*
X130119610Y-110097672D01*
X130172838Y-110122847D01*
X130223342Y-110153118D01*
X130270636Y-110188194D01*
X130314264Y-110227736D01*
X130353806Y-110271364D01*
X130388882Y-110318658D01*
X130419153Y-110369162D01*
X130444328Y-110422390D01*
X130464164Y-110477829D01*
X130478471Y-110534946D01*
X130487111Y-110593190D01*
X130490000Y-110652000D01*
X130490000Y-111852000D01*
X130487111Y-111910810D01*
X130478471Y-111969054D01*
X130464164Y-112026171D01*
X130444328Y-112081610D01*
X130419153Y-112134838D01*
X130388882Y-112185342D01*
X130353806Y-112232636D01*
X130314264Y-112276264D01*
X130270636Y-112315806D01*
X130223342Y-112350882D01*
X130172838Y-112381153D01*
X130119610Y-112406328D01*
X130064171Y-112426164D01*
X130007054Y-112440471D01*
X129948810Y-112449111D01*
X129890000Y-112452000D01*
X128690000Y-112452000D01*
X128631190Y-112449111D01*
X128572946Y-112440471D01*
X128515829Y-112426164D01*
X128460390Y-112406328D01*
X128407162Y-112381153D01*
X128356658Y-112350882D01*
X128309364Y-112315806D01*
X128265736Y-112276264D01*
X128226194Y-112232636D01*
X128191118Y-112185342D01*
X128160847Y-112134838D01*
X128135672Y-112081610D01*
X128115836Y-112026171D01*
X128101529Y-111969054D01*
X128092889Y-111910810D01*
X128090000Y-111852000D01*
X128090000Y-110652000D01*
X128092889Y-110593190D01*
X128101529Y-110534946D01*
X128115836Y-110477829D01*
X128135672Y-110422390D01*
X128160847Y-110369162D01*
X128191118Y-110318658D01*
X128226194Y-110271364D01*
X128265736Y-110227736D01*
X128309364Y-110188194D01*
X128356658Y-110153118D01*
X128407162Y-110122847D01*
X128460390Y-110097672D01*
X128515829Y-110077836D01*
X128572946Y-110063529D01*
X128631190Y-110054889D01*
X128690000Y-110052000D01*
X129890000Y-110052000D01*
X129948810Y-110054889D01*
X129948810Y-110054889D01*
G37*
D11*
X129290000Y-111252000D03*
D14*
X132330000Y-111252000D03*
G04 #@! TD*
D15*
G04 #@! TO.C,Shift1*
X133604000Y-123702000D03*
D16*
X115824000Y-116582000D03*
X131064000Y-123702000D03*
X118364000Y-116582000D03*
X128524000Y-123702000D03*
X120904000Y-116582000D03*
X125984000Y-123702000D03*
X123444000Y-116582000D03*
X123444000Y-123702000D03*
X125984000Y-116582000D03*
X120904000Y-123702000D03*
X128524000Y-116582000D03*
X118364000Y-123702000D03*
X131064000Y-116582000D03*
X115824000Y-123702000D03*
X133604000Y-116582000D03*
G04 #@! TD*
D17*
G04 #@! TO.C,Power1*
X127500000Y-144200000D03*
X127500000Y-141660000D03*
X127500000Y-139120000D03*
D18*
X127500000Y-136580000D03*
G04 #@! TD*
D19*
G04 #@! TO.C,Tiny85*
X136652000Y-105156000D03*
X144272000Y-112776000D03*
X136652000Y-107696000D03*
X144272000Y-110236000D03*
X136652000Y-110236000D03*
X144272000Y-107696000D03*
X136652000Y-112776000D03*
D20*
X144272000Y-105156000D03*
G04 #@! TD*
M02*
