G04 #@! TF.FileFunction,Legend,Top*
%FSLAX46Y46*%
G04 Gerber Fmt 4.6, Leading zero omitted, Abs format (unit mm)*
G04 Created by KiCad (PCBNEW 4.0.7) date 08/16/18 21:35:53*
%MOMM*%
%LPD*%
G01*
G04 APERTURE LIST*
%ADD10C,0.100000*%
%ADD11C,0.120000*%
%ADD12C,0.250000*%
%ADD13C,0.150000*%
%ADD14C,0.300000*%
G04 APERTURE END LIST*
D10*
D11*
X134992999Y-85218958D02*
G75*
G03X129393000Y-83577488I-3039999J1958D01*
G01*
X134992999Y-85215042D02*
G75*
G02X129393000Y-86856512I-3039999J-1958D01*
G01*
X134453000Y-85217000D02*
G75*
G03X134453000Y-85217000I-2500000J0D01*
G01*
X129393000Y-83577000D02*
X129393000Y-86857000D01*
X134992999Y-76118958D02*
G75*
G03X129393000Y-74477488I-3039999J1958D01*
G01*
X134992999Y-76115042D02*
G75*
G02X129393000Y-77756512I-3039999J-1958D01*
G01*
X134453000Y-76117000D02*
G75*
G03X134453000Y-76117000I-2500000J0D01*
G01*
X129393000Y-74477000D02*
X129393000Y-77757000D01*
X134992999Y-67018958D02*
G75*
G03X129393000Y-65377488I-3039999J1958D01*
G01*
X134992999Y-67015042D02*
G75*
G02X129393000Y-68656512I-3039999J-1958D01*
G01*
X134453000Y-67017000D02*
G75*
G03X134453000Y-67017000I-2500000J0D01*
G01*
X129393000Y-65377000D02*
X129393000Y-68657000D01*
X134992999Y-57918958D02*
G75*
G03X129393000Y-56277488I-3039999J1958D01*
G01*
X134992999Y-57915042D02*
G75*
G02X129393000Y-59556512I-3039999J-1958D01*
G01*
X134453000Y-57917000D02*
G75*
G03X134453000Y-57917000I-2500000J0D01*
G01*
X129393000Y-56277000D02*
X129393000Y-59557000D01*
X154592999Y-57918958D02*
G75*
G03X148993000Y-56277488I-3039999J1958D01*
G01*
X154592999Y-57915042D02*
G75*
G02X148993000Y-59556512I-3039999J-1958D01*
G01*
X154053000Y-57917000D02*
G75*
G03X154053000Y-57917000I-2500000J0D01*
G01*
X148993000Y-56277000D02*
X148993000Y-59557000D01*
X164392999Y-57918958D02*
G75*
G03X158793000Y-56277488I-3039999J1958D01*
G01*
X164392999Y-57915042D02*
G75*
G02X158793000Y-59556512I-3039999J-1958D01*
G01*
X163853000Y-57917000D02*
G75*
G03X163853000Y-57917000I-2500000J0D01*
G01*
X158793000Y-56277000D02*
X158793000Y-59557000D01*
X174192999Y-57918958D02*
G75*
G03X168593000Y-56277488I-3039999J1958D01*
G01*
X174192999Y-57915042D02*
G75*
G02X168593000Y-59556512I-3039999J-1958D01*
G01*
X173653000Y-57917000D02*
G75*
G03X173653000Y-57917000I-2500000J0D01*
G01*
X168593000Y-56277000D02*
X168593000Y-59557000D01*
X183992999Y-57918958D02*
G75*
G03X178393000Y-56277488I-3039999J1958D01*
G01*
X183992999Y-57915042D02*
G75*
G02X178393000Y-59556512I-3039999J-1958D01*
G01*
X183453000Y-57917000D02*
G75*
G03X183453000Y-57917000I-2500000J0D01*
G01*
X178393000Y-56277000D02*
X178393000Y-59557000D01*
X193792999Y-57918958D02*
G75*
G03X188193000Y-56277488I-3039999J1958D01*
G01*
X193792999Y-57915042D02*
G75*
G02X188193000Y-59556512I-3039999J-1958D01*
G01*
X193253000Y-57917000D02*
G75*
G03X193253000Y-57917000I-2500000J0D01*
G01*
X188193000Y-56277000D02*
X188193000Y-59557000D01*
X203592999Y-57918958D02*
G75*
G03X197993000Y-56277488I-3039999J1958D01*
G01*
X203592999Y-57915042D02*
G75*
G02X197993000Y-59556512I-3039999J-1958D01*
G01*
X203053000Y-57917000D02*
G75*
G03X203053000Y-57917000I-2500000J0D01*
G01*
X197993000Y-56277000D02*
X197993000Y-59557000D01*
X213392999Y-57918958D02*
G75*
G03X207793000Y-56277488I-3039999J1958D01*
G01*
X213392999Y-57915042D02*
G75*
G02X207793000Y-59556512I-3039999J-1958D01*
G01*
X212853000Y-57917000D02*
G75*
G03X212853000Y-57917000I-2500000J0D01*
G01*
X207793000Y-56277000D02*
X207793000Y-59557000D01*
X213392999Y-76118958D02*
G75*
G03X207793000Y-74477488I-3039999J1958D01*
G01*
X213392999Y-76115042D02*
G75*
G02X207793000Y-77756512I-3039999J-1958D01*
G01*
X212853000Y-76117000D02*
G75*
G03X212853000Y-76117000I-2500000J0D01*
G01*
X207793000Y-74477000D02*
X207793000Y-77757000D01*
X213392999Y-85218958D02*
G75*
G03X207793000Y-83577488I-3039999J1958D01*
G01*
X213392999Y-85215042D02*
G75*
G02X207793000Y-86856512I-3039999J-1958D01*
G01*
X212853000Y-85217000D02*
G75*
G03X212853000Y-85217000I-2500000J0D01*
G01*
X207793000Y-83577000D02*
X207793000Y-86857000D01*
X196866999Y-85218958D02*
G75*
G03X191267000Y-83577488I-3039999J1958D01*
G01*
X196866999Y-85215042D02*
G75*
G02X191267000Y-86856512I-3039999J-1958D01*
G01*
X196327000Y-85217000D02*
G75*
G03X196327000Y-85217000I-2500000J0D01*
G01*
X191267000Y-83577000D02*
X191267000Y-86857000D01*
X196866999Y-73839758D02*
G75*
G03X191267000Y-72198288I-3039999J1958D01*
G01*
X196866999Y-73835842D02*
G75*
G02X191267000Y-75477312I-3039999J-1958D01*
G01*
X196327000Y-73837800D02*
G75*
G03X196327000Y-73837800I-2500000J0D01*
G01*
X191267000Y-72197800D02*
X191267000Y-75477800D01*
X189678999Y-73839758D02*
G75*
G03X184079000Y-72198288I-3039999J1958D01*
G01*
X189678999Y-73835842D02*
G75*
G02X184079000Y-75477312I-3039999J-1958D01*
G01*
X189139000Y-73837800D02*
G75*
G03X189139000Y-73837800I-2500000J0D01*
G01*
X184079000Y-72197800D02*
X184079000Y-75477800D01*
X182465999Y-73839758D02*
G75*
G03X176866000Y-72198288I-3039999J1958D01*
G01*
X182465999Y-73835842D02*
G75*
G02X176866000Y-75477312I-3039999J-1958D01*
G01*
X181926000Y-73837800D02*
G75*
G03X181926000Y-73837800I-2500000J0D01*
G01*
X176866000Y-72197800D02*
X176866000Y-75477800D01*
X182465999Y-83039758D02*
G75*
G03X176866000Y-81398288I-3039999J1958D01*
G01*
X182465999Y-83035842D02*
G75*
G02X176866000Y-84677312I-3039999J-1958D01*
G01*
X181926000Y-83037800D02*
G75*
G03X181926000Y-83037800I-2500000J0D01*
G01*
X176866000Y-81397800D02*
X176866000Y-84677800D01*
X182465999Y-120700958D02*
G75*
G03X176866000Y-119059488I-3039999J1958D01*
G01*
X182465999Y-120697042D02*
G75*
G02X176866000Y-122338512I-3039999J-1958D01*
G01*
X181926000Y-120699000D02*
G75*
G03X181926000Y-120699000I-2500000J0D01*
G01*
X176866000Y-119059000D02*
X176866000Y-122339000D01*
X182465999Y-129900958D02*
G75*
G03X176866000Y-128259488I-3039999J1958D01*
G01*
X182465999Y-129897042D02*
G75*
G02X176866000Y-131538512I-3039999J-1958D01*
G01*
X181926000Y-129899000D02*
G75*
G03X181926000Y-129899000I-2500000J0D01*
G01*
X176866000Y-128259000D02*
X176866000Y-131539000D01*
X192465999Y-129900958D02*
G75*
G03X186866000Y-128259488I-3039999J1958D01*
G01*
X192465999Y-129897042D02*
G75*
G02X186866000Y-131538512I-3039999J-1958D01*
G01*
X191926000Y-129899000D02*
G75*
G03X191926000Y-129899000I-2500000J0D01*
G01*
X186866000Y-128259000D02*
X186866000Y-131539000D01*
X192459999Y-146559958D02*
G75*
G03X186860000Y-144918488I-3039999J1958D01*
G01*
X192459999Y-146556042D02*
G75*
G02X186860000Y-148197512I-3039999J-1958D01*
G01*
X191920000Y-146558000D02*
G75*
G03X191920000Y-146558000I-2500000J0D01*
G01*
X186860000Y-144918000D02*
X186860000Y-148198000D01*
X183259999Y-146559958D02*
G75*
G03X177660000Y-144918488I-3039999J1958D01*
G01*
X183259999Y-146556042D02*
G75*
G02X177660000Y-148197512I-3039999J-1958D01*
G01*
X182720000Y-146558000D02*
G75*
G03X182720000Y-146558000I-2500000J0D01*
G01*
X177660000Y-144918000D02*
X177660000Y-148198000D01*
X174235999Y-146559958D02*
G75*
G03X168636000Y-144918488I-3039999J1958D01*
G01*
X174235999Y-146556042D02*
G75*
G02X168636000Y-148197512I-3039999J-1958D01*
G01*
X173696000Y-146558000D02*
G75*
G03X173696000Y-146558000I-2500000J0D01*
G01*
X168636000Y-144918000D02*
X168636000Y-148198000D01*
X165211999Y-146559958D02*
G75*
G03X159612000Y-144918488I-3039999J1958D01*
G01*
X165211999Y-146556042D02*
G75*
G02X159612000Y-148197512I-3039999J-1958D01*
G01*
X164672000Y-146558000D02*
G75*
G03X164672000Y-146558000I-2500000J0D01*
G01*
X159612000Y-144918000D02*
X159612000Y-148198000D01*
X156186999Y-129900958D02*
G75*
G03X150587000Y-128259488I-3039999J1958D01*
G01*
X156186999Y-129897042D02*
G75*
G02X150587000Y-131538512I-3039999J-1958D01*
G01*
X155647000Y-129899000D02*
G75*
G03X155647000Y-129899000I-2500000J0D01*
G01*
X150587000Y-128259000D02*
X150587000Y-131539000D01*
X166043999Y-129922958D02*
G75*
G03X160444000Y-128281488I-3039999J1958D01*
G01*
X166043999Y-129919042D02*
G75*
G02X160444000Y-131560512I-3039999J-1958D01*
G01*
X165504000Y-129921000D02*
G75*
G03X165504000Y-129921000I-2500000J0D01*
G01*
X160444000Y-128281000D02*
X160444000Y-131561000D01*
X166043999Y-120700958D02*
G75*
G03X160444000Y-119059488I-3039999J1958D01*
G01*
X166043999Y-120697042D02*
G75*
G02X160444000Y-122338512I-3039999J-1958D01*
G01*
X165504000Y-120699000D02*
G75*
G03X165504000Y-120699000I-2500000J0D01*
G01*
X160444000Y-119059000D02*
X160444000Y-122339000D01*
X175066000Y-94675000D02*
X175066000Y-92015000D01*
X169926000Y-94675000D02*
X175066000Y-94675000D01*
X169926000Y-92015000D02*
X175066000Y-92015000D01*
X169926000Y-94675000D02*
X169926000Y-92015000D01*
X168656000Y-94675000D02*
X167326000Y-94675000D01*
X167326000Y-94675000D02*
X167326000Y-93345000D01*
X172260000Y-121288000D02*
G75*
G02X170260000Y-121288000I-1000000J0D01*
G01*
X170260000Y-121288000D02*
X168610000Y-121288000D01*
X168610000Y-121288000D02*
X168610000Y-131568000D01*
X168610000Y-131568000D02*
X173910000Y-131568000D01*
X173910000Y-131568000D02*
X173910000Y-121288000D01*
X173910000Y-121288000D02*
X172260000Y-121288000D01*
X144792999Y-57918958D02*
G75*
G03X139193000Y-56277488I-3039999J1958D01*
G01*
X144792999Y-57915042D02*
G75*
G02X139193000Y-59556512I-3039999J-1958D01*
G01*
X144253000Y-57917000D02*
G75*
G03X144253000Y-57917000I-2500000J0D01*
G01*
X139193000Y-56277000D02*
X139193000Y-59557000D01*
X213392999Y-67018958D02*
G75*
G03X207793000Y-65377488I-3039999J1958D01*
G01*
X213392999Y-67015042D02*
G75*
G02X207793000Y-68656512I-3039999J-1958D01*
G01*
X212853000Y-67017000D02*
G75*
G03X212853000Y-67017000I-2500000J0D01*
G01*
X207793000Y-65377000D02*
X207793000Y-68657000D01*
X182465999Y-92239758D02*
G75*
G03X176866000Y-90598288I-3039999J1958D01*
G01*
X182465999Y-92235842D02*
G75*
G02X176866000Y-93877312I-3039999J-1958D01*
G01*
X181926000Y-92237800D02*
G75*
G03X181926000Y-92237800I-2500000J0D01*
G01*
X176866000Y-90597800D02*
X176866000Y-93877800D01*
X156186999Y-146559958D02*
G75*
G03X150587000Y-144918488I-3039999J1958D01*
G01*
X156186999Y-146556042D02*
G75*
G02X150587000Y-148197512I-3039999J-1958D01*
G01*
X155647000Y-146558000D02*
G75*
G03X155647000Y-146558000I-2500000J0D01*
G01*
X150587000Y-144918000D02*
X150587000Y-148198000D01*
X166043999Y-92239758D02*
G75*
G03X160444000Y-90598288I-3039999J1958D01*
G01*
X166043999Y-92235842D02*
G75*
G02X160444000Y-93877312I-3039999J-1958D01*
G01*
X165504000Y-92237800D02*
G75*
G03X165504000Y-92237800I-2500000J0D01*
G01*
X160444000Y-90597800D02*
X160444000Y-93877800D01*
X166043999Y-83039758D02*
G75*
G03X160444000Y-81398288I-3039999J1958D01*
G01*
X166043999Y-83035842D02*
G75*
G02X160444000Y-84677312I-3039999J-1958D01*
G01*
X165504000Y-83037800D02*
G75*
G03X165504000Y-83037800I-2500000J0D01*
G01*
X160444000Y-81397800D02*
X160444000Y-84677800D01*
X166043999Y-73839758D02*
G75*
G03X160444000Y-72198288I-3039999J1958D01*
G01*
X166043999Y-73835842D02*
G75*
G02X160444000Y-75477312I-3039999J-1958D01*
G01*
X165504000Y-73837800D02*
G75*
G03X165504000Y-73837800I-2500000J0D01*
G01*
X160444000Y-72197800D02*
X160444000Y-75477800D01*
X158805999Y-73852458D02*
G75*
G03X153206000Y-72210988I-3039999J1958D01*
G01*
X158805999Y-73848542D02*
G75*
G02X153206000Y-75490012I-3039999J-1958D01*
G01*
X158266000Y-73850500D02*
G75*
G03X158266000Y-73850500I-2500000J0D01*
G01*
X153206000Y-72210500D02*
X153206000Y-75490500D01*
X151565999Y-73852458D02*
G75*
G03X145966000Y-72210988I-3039999J1958D01*
G01*
X151565999Y-73848542D02*
G75*
G02X145966000Y-75490012I-3039999J-1958D01*
G01*
X151026000Y-73850500D02*
G75*
G03X151026000Y-73850500I-2500000J0D01*
G01*
X145966000Y-72210500D02*
X145966000Y-75490500D01*
X151565999Y-85218958D02*
G75*
G03X145966000Y-83577488I-3039999J1958D01*
G01*
X151565999Y-85215042D02*
G75*
G02X145966000Y-86856512I-3039999J-1958D01*
G01*
X151026000Y-85217000D02*
G75*
G03X151026000Y-85217000I-2500000J0D01*
G01*
X145966000Y-83577000D02*
X145966000Y-86857000D01*
X184388000Y-68746000D02*
X188888000Y-68746000D01*
X183138000Y-64746000D02*
X183138000Y-66246000D01*
X188888000Y-62246000D02*
X184388000Y-62246000D01*
X190138000Y-66246000D02*
X190138000Y-64746000D01*
D12*
X171196000Y-120069000D02*
X167696000Y-120069000D01*
X167696000Y-120069000D02*
X167696000Y-118069000D01*
X171196000Y-120069000D02*
X174196000Y-120069000D01*
X174196000Y-120069000D02*
X174696000Y-120069000D01*
X174696000Y-120069000D02*
X174696000Y-118069000D01*
X182196000Y-107569000D02*
G75*
G03X182196000Y-107569000I-11000000J0D01*
G01*
D11*
X163890000Y-68640000D02*
X163890000Y-65980000D01*
X153670000Y-68640000D02*
X163890000Y-68640000D01*
X153670000Y-65980000D02*
X163890000Y-65980000D01*
X153670000Y-68640000D02*
X153670000Y-65980000D01*
X152400000Y-68640000D02*
X151070000Y-68640000D01*
X151070000Y-68640000D02*
X151070000Y-67310000D01*
X174050000Y-66100000D02*
X174050000Y-63440000D01*
X171450000Y-66100000D02*
X174050000Y-66100000D01*
X171450000Y-63440000D02*
X174050000Y-63440000D01*
X171450000Y-66100000D02*
X171450000Y-63440000D01*
X170180000Y-66100000D02*
X168850000Y-66100000D01*
X168850000Y-66100000D02*
X168850000Y-64770000D01*
X203108000Y-67885000D02*
G75*
G02X201108000Y-67885000I-1000000J0D01*
G01*
X201108000Y-67885000D02*
X199458000Y-67885000D01*
X199458000Y-67885000D02*
X199458000Y-88325000D01*
X199458000Y-88325000D02*
X204758000Y-88325000D01*
X204758000Y-88325000D02*
X204758000Y-67885000D01*
X204758000Y-67885000D02*
X203108000Y-67885000D01*
X172183000Y-67885000D02*
G75*
G02X170183000Y-67885000I-1000000J0D01*
G01*
X170183000Y-67885000D02*
X168533000Y-67885000D01*
X168533000Y-67885000D02*
X168533000Y-88325000D01*
X168533000Y-88325000D02*
X173833000Y-88325000D01*
X173833000Y-88325000D02*
X173833000Y-67885000D01*
X173833000Y-67885000D02*
X172183000Y-67885000D01*
X141259000Y-67885000D02*
G75*
G02X139259000Y-67885000I-1000000J0D01*
G01*
X139259000Y-67885000D02*
X137609000Y-67885000D01*
X137609000Y-67885000D02*
X137609000Y-88325000D01*
X137609000Y-88325000D02*
X142909000Y-88325000D01*
X142909000Y-88325000D02*
X142909000Y-67885000D01*
X142909000Y-67885000D02*
X141259000Y-67885000D01*
X172088000Y-137192000D02*
G75*
G02X172088000Y-139192000I0J-1000000D01*
G01*
X172088000Y-139192000D02*
X172088000Y-140842000D01*
X172088000Y-140842000D02*
X192528000Y-140842000D01*
X192528000Y-140842000D02*
X192528000Y-135542000D01*
X192528000Y-135542000D02*
X172088000Y-135542000D01*
X172088000Y-135542000D02*
X172088000Y-137192000D01*
X150181000Y-137112000D02*
G75*
G02X150181000Y-139112000I0J-1000000D01*
G01*
X150181000Y-139112000D02*
X150181000Y-140762000D01*
X150181000Y-140762000D02*
X170621000Y-140762000D01*
X170621000Y-140762000D02*
X170621000Y-135462000D01*
X170621000Y-135462000D02*
X150181000Y-135462000D01*
X150181000Y-135462000D02*
X150181000Y-137112000D01*
D13*
X131214905Y-81659381D02*
X131214905Y-80659381D01*
X131453000Y-80659381D01*
X131595858Y-80707000D01*
X131691096Y-80802238D01*
X131738715Y-80897476D01*
X131786334Y-81087952D01*
X131786334Y-81230810D01*
X131738715Y-81421286D01*
X131691096Y-81516524D01*
X131595858Y-81611762D01*
X131453000Y-81659381D01*
X131214905Y-81659381D01*
X132738715Y-81659381D02*
X132167286Y-81659381D01*
X132453000Y-81659381D02*
X132453000Y-80659381D01*
X132357762Y-80802238D01*
X132262524Y-80897476D01*
X132167286Y-80945095D01*
X131214905Y-72559381D02*
X131214905Y-71559381D01*
X131453000Y-71559381D01*
X131595858Y-71607000D01*
X131691096Y-71702238D01*
X131738715Y-71797476D01*
X131786334Y-71987952D01*
X131786334Y-72130810D01*
X131738715Y-72321286D01*
X131691096Y-72416524D01*
X131595858Y-72511762D01*
X131453000Y-72559381D01*
X131214905Y-72559381D01*
X132167286Y-71654619D02*
X132214905Y-71607000D01*
X132310143Y-71559381D01*
X132548239Y-71559381D01*
X132643477Y-71607000D01*
X132691096Y-71654619D01*
X132738715Y-71749857D01*
X132738715Y-71845095D01*
X132691096Y-71987952D01*
X132119667Y-72559381D01*
X132738715Y-72559381D01*
X131214905Y-63459381D02*
X131214905Y-62459381D01*
X131453000Y-62459381D01*
X131595858Y-62507000D01*
X131691096Y-62602238D01*
X131738715Y-62697476D01*
X131786334Y-62887952D01*
X131786334Y-63030810D01*
X131738715Y-63221286D01*
X131691096Y-63316524D01*
X131595858Y-63411762D01*
X131453000Y-63459381D01*
X131214905Y-63459381D01*
X132119667Y-62459381D02*
X132738715Y-62459381D01*
X132405381Y-62840333D01*
X132548239Y-62840333D01*
X132643477Y-62887952D01*
X132691096Y-62935571D01*
X132738715Y-63030810D01*
X132738715Y-63268905D01*
X132691096Y-63364143D01*
X132643477Y-63411762D01*
X132548239Y-63459381D01*
X132262524Y-63459381D01*
X132167286Y-63411762D01*
X132119667Y-63364143D01*
X135786905Y-56332381D02*
X135786905Y-55332381D01*
X136025000Y-55332381D01*
X136167858Y-55380000D01*
X136263096Y-55475238D01*
X136310715Y-55570476D01*
X136358334Y-55760952D01*
X136358334Y-55903810D01*
X136310715Y-56094286D01*
X136263096Y-56189524D01*
X136167858Y-56284762D01*
X136025000Y-56332381D01*
X135786905Y-56332381D01*
X137215477Y-55665714D02*
X137215477Y-56332381D01*
X136977381Y-55284762D02*
X136739286Y-55999048D01*
X137358334Y-55999048D01*
X155471905Y-56332381D02*
X155471905Y-55332381D01*
X155710000Y-55332381D01*
X155852858Y-55380000D01*
X155948096Y-55475238D01*
X155995715Y-55570476D01*
X156043334Y-55760952D01*
X156043334Y-55903810D01*
X155995715Y-56094286D01*
X155948096Y-56189524D01*
X155852858Y-56284762D01*
X155710000Y-56332381D01*
X155471905Y-56332381D01*
X156900477Y-55332381D02*
X156710000Y-55332381D01*
X156614762Y-55380000D01*
X156567143Y-55427619D01*
X156471905Y-55570476D01*
X156424286Y-55760952D01*
X156424286Y-56141905D01*
X156471905Y-56237143D01*
X156519524Y-56284762D01*
X156614762Y-56332381D01*
X156805239Y-56332381D01*
X156900477Y-56284762D01*
X156948096Y-56237143D01*
X156995715Y-56141905D01*
X156995715Y-55903810D01*
X156948096Y-55808571D01*
X156900477Y-55760952D01*
X156805239Y-55713333D01*
X156614762Y-55713333D01*
X156519524Y-55760952D01*
X156471905Y-55808571D01*
X156424286Y-55903810D01*
X164996905Y-56332381D02*
X164996905Y-55332381D01*
X165235000Y-55332381D01*
X165377858Y-55380000D01*
X165473096Y-55475238D01*
X165520715Y-55570476D01*
X165568334Y-55760952D01*
X165568334Y-55903810D01*
X165520715Y-56094286D01*
X165473096Y-56189524D01*
X165377858Y-56284762D01*
X165235000Y-56332381D01*
X164996905Y-56332381D01*
X165901667Y-55332381D02*
X166568334Y-55332381D01*
X166139762Y-56332381D01*
X175156905Y-56332381D02*
X175156905Y-55332381D01*
X175395000Y-55332381D01*
X175537858Y-55380000D01*
X175633096Y-55475238D01*
X175680715Y-55570476D01*
X175728334Y-55760952D01*
X175728334Y-55903810D01*
X175680715Y-56094286D01*
X175633096Y-56189524D01*
X175537858Y-56284762D01*
X175395000Y-56332381D01*
X175156905Y-56332381D01*
X176299762Y-55760952D02*
X176204524Y-55713333D01*
X176156905Y-55665714D01*
X176109286Y-55570476D01*
X176109286Y-55522857D01*
X176156905Y-55427619D01*
X176204524Y-55380000D01*
X176299762Y-55332381D01*
X176490239Y-55332381D01*
X176585477Y-55380000D01*
X176633096Y-55427619D01*
X176680715Y-55522857D01*
X176680715Y-55570476D01*
X176633096Y-55665714D01*
X176585477Y-55713333D01*
X176490239Y-55760952D01*
X176299762Y-55760952D01*
X176204524Y-55808571D01*
X176156905Y-55856190D01*
X176109286Y-55951429D01*
X176109286Y-56141905D01*
X176156905Y-56237143D01*
X176204524Y-56284762D01*
X176299762Y-56332381D01*
X176490239Y-56332381D01*
X176585477Y-56284762D01*
X176633096Y-56237143D01*
X176680715Y-56141905D01*
X176680715Y-55951429D01*
X176633096Y-55856190D01*
X176585477Y-55808571D01*
X176490239Y-55760952D01*
X184681905Y-56332381D02*
X184681905Y-55332381D01*
X184920000Y-55332381D01*
X185062858Y-55380000D01*
X185158096Y-55475238D01*
X185205715Y-55570476D01*
X185253334Y-55760952D01*
X185253334Y-55903810D01*
X185205715Y-56094286D01*
X185158096Y-56189524D01*
X185062858Y-56284762D01*
X184920000Y-56332381D01*
X184681905Y-56332381D01*
X185729524Y-56332381D02*
X185920000Y-56332381D01*
X186015239Y-56284762D01*
X186062858Y-56237143D01*
X186158096Y-56094286D01*
X186205715Y-55903810D01*
X186205715Y-55522857D01*
X186158096Y-55427619D01*
X186110477Y-55380000D01*
X186015239Y-55332381D01*
X185824762Y-55332381D01*
X185729524Y-55380000D01*
X185681905Y-55427619D01*
X185634286Y-55522857D01*
X185634286Y-55760952D01*
X185681905Y-55856190D01*
X185729524Y-55903810D01*
X185824762Y-55951429D01*
X186015239Y-55951429D01*
X186110477Y-55903810D01*
X186158096Y-55856190D01*
X186205715Y-55760952D01*
X194365714Y-56332381D02*
X194365714Y-55332381D01*
X194603809Y-55332381D01*
X194746667Y-55380000D01*
X194841905Y-55475238D01*
X194889524Y-55570476D01*
X194937143Y-55760952D01*
X194937143Y-55903810D01*
X194889524Y-56094286D01*
X194841905Y-56189524D01*
X194746667Y-56284762D01*
X194603809Y-56332381D01*
X194365714Y-56332381D01*
X195889524Y-56332381D02*
X195318095Y-56332381D01*
X195603809Y-56332381D02*
X195603809Y-55332381D01*
X195508571Y-55475238D01*
X195413333Y-55570476D01*
X195318095Y-55618095D01*
X196508571Y-55332381D02*
X196603810Y-55332381D01*
X196699048Y-55380000D01*
X196746667Y-55427619D01*
X196794286Y-55522857D01*
X196841905Y-55713333D01*
X196841905Y-55951429D01*
X196794286Y-56141905D01*
X196746667Y-56237143D01*
X196699048Y-56284762D01*
X196603810Y-56332381D01*
X196508571Y-56332381D01*
X196413333Y-56284762D01*
X196365714Y-56237143D01*
X196318095Y-56141905D01*
X196270476Y-55951429D01*
X196270476Y-55713333D01*
X196318095Y-55522857D01*
X196365714Y-55427619D01*
X196413333Y-55380000D01*
X196508571Y-55332381D01*
X203890714Y-56332381D02*
X203890714Y-55332381D01*
X204128809Y-55332381D01*
X204271667Y-55380000D01*
X204366905Y-55475238D01*
X204414524Y-55570476D01*
X204462143Y-55760952D01*
X204462143Y-55903810D01*
X204414524Y-56094286D01*
X204366905Y-56189524D01*
X204271667Y-56284762D01*
X204128809Y-56332381D01*
X203890714Y-56332381D01*
X205414524Y-56332381D02*
X204843095Y-56332381D01*
X205128809Y-56332381D02*
X205128809Y-55332381D01*
X205033571Y-55475238D01*
X204938333Y-55570476D01*
X204843095Y-55618095D01*
X206366905Y-56332381D02*
X205795476Y-56332381D01*
X206081190Y-56332381D02*
X206081190Y-55332381D01*
X205985952Y-55475238D01*
X205890714Y-55570476D01*
X205795476Y-55618095D01*
X204525714Y-60142381D02*
X204525714Y-59142381D01*
X204763809Y-59142381D01*
X204906667Y-59190000D01*
X205001905Y-59285238D01*
X205049524Y-59380476D01*
X205097143Y-59570952D01*
X205097143Y-59713810D01*
X205049524Y-59904286D01*
X205001905Y-59999524D01*
X204906667Y-60094762D01*
X204763809Y-60142381D01*
X204525714Y-60142381D01*
X206049524Y-60142381D02*
X205478095Y-60142381D01*
X205763809Y-60142381D02*
X205763809Y-59142381D01*
X205668571Y-59285238D01*
X205573333Y-59380476D01*
X205478095Y-59428095D01*
X206430476Y-59237619D02*
X206478095Y-59190000D01*
X206573333Y-59142381D01*
X206811429Y-59142381D01*
X206906667Y-59190000D01*
X206954286Y-59237619D01*
X207001905Y-59332857D01*
X207001905Y-59428095D01*
X206954286Y-59570952D01*
X206382857Y-60142381D01*
X207001905Y-60142381D01*
X209138714Y-72559381D02*
X209138714Y-71559381D01*
X209376809Y-71559381D01*
X209519667Y-71607000D01*
X209614905Y-71702238D01*
X209662524Y-71797476D01*
X209710143Y-71987952D01*
X209710143Y-72130810D01*
X209662524Y-72321286D01*
X209614905Y-72416524D01*
X209519667Y-72511762D01*
X209376809Y-72559381D01*
X209138714Y-72559381D01*
X210662524Y-72559381D02*
X210091095Y-72559381D01*
X210376809Y-72559381D02*
X210376809Y-71559381D01*
X210281571Y-71702238D01*
X210186333Y-71797476D01*
X210091095Y-71845095D01*
X211519667Y-71892714D02*
X211519667Y-72559381D01*
X211281571Y-71511762D02*
X211043476Y-72226048D01*
X211662524Y-72226048D01*
X209138714Y-81659381D02*
X209138714Y-80659381D01*
X209376809Y-80659381D01*
X209519667Y-80707000D01*
X209614905Y-80802238D01*
X209662524Y-80897476D01*
X209710143Y-81087952D01*
X209710143Y-81230810D01*
X209662524Y-81421286D01*
X209614905Y-81516524D01*
X209519667Y-81611762D01*
X209376809Y-81659381D01*
X209138714Y-81659381D01*
X210662524Y-81659381D02*
X210091095Y-81659381D01*
X210376809Y-81659381D02*
X210376809Y-80659381D01*
X210281571Y-80802238D01*
X210186333Y-80897476D01*
X210091095Y-80945095D01*
X211567286Y-80659381D02*
X211091095Y-80659381D01*
X211043476Y-81135571D01*
X211091095Y-81087952D01*
X211186333Y-81040333D01*
X211424429Y-81040333D01*
X211519667Y-81087952D01*
X211567286Y-81135571D01*
X211614905Y-81230810D01*
X211614905Y-81468905D01*
X211567286Y-81564143D01*
X211519667Y-81611762D01*
X211424429Y-81659381D01*
X211186333Y-81659381D01*
X211091095Y-81611762D01*
X211043476Y-81564143D01*
X192612714Y-81659381D02*
X192612714Y-80659381D01*
X192850809Y-80659381D01*
X192993667Y-80707000D01*
X193088905Y-80802238D01*
X193136524Y-80897476D01*
X193184143Y-81087952D01*
X193184143Y-81230810D01*
X193136524Y-81421286D01*
X193088905Y-81516524D01*
X192993667Y-81611762D01*
X192850809Y-81659381D01*
X192612714Y-81659381D01*
X194136524Y-81659381D02*
X193565095Y-81659381D01*
X193850809Y-81659381D02*
X193850809Y-80659381D01*
X193755571Y-80802238D01*
X193660333Y-80897476D01*
X193565095Y-80945095D01*
X194993667Y-80659381D02*
X194803190Y-80659381D01*
X194707952Y-80707000D01*
X194660333Y-80754619D01*
X194565095Y-80897476D01*
X194517476Y-81087952D01*
X194517476Y-81468905D01*
X194565095Y-81564143D01*
X194612714Y-81611762D01*
X194707952Y-81659381D01*
X194898429Y-81659381D01*
X194993667Y-81611762D01*
X195041286Y-81564143D01*
X195088905Y-81468905D01*
X195088905Y-81230810D01*
X195041286Y-81135571D01*
X194993667Y-81087952D01*
X194898429Y-81040333D01*
X194707952Y-81040333D01*
X194612714Y-81087952D01*
X194565095Y-81135571D01*
X194517476Y-81230810D01*
X192612714Y-70280181D02*
X192612714Y-69280181D01*
X192850809Y-69280181D01*
X192993667Y-69327800D01*
X193088905Y-69423038D01*
X193136524Y-69518276D01*
X193184143Y-69708752D01*
X193184143Y-69851610D01*
X193136524Y-70042086D01*
X193088905Y-70137324D01*
X192993667Y-70232562D01*
X192850809Y-70280181D01*
X192612714Y-70280181D01*
X194136524Y-70280181D02*
X193565095Y-70280181D01*
X193850809Y-70280181D02*
X193850809Y-69280181D01*
X193755571Y-69423038D01*
X193660333Y-69518276D01*
X193565095Y-69565895D01*
X194469857Y-69280181D02*
X195136524Y-69280181D01*
X194707952Y-70280181D01*
X185424714Y-70280181D02*
X185424714Y-69280181D01*
X185662809Y-69280181D01*
X185805667Y-69327800D01*
X185900905Y-69423038D01*
X185948524Y-69518276D01*
X185996143Y-69708752D01*
X185996143Y-69851610D01*
X185948524Y-70042086D01*
X185900905Y-70137324D01*
X185805667Y-70232562D01*
X185662809Y-70280181D01*
X185424714Y-70280181D01*
X186948524Y-70280181D02*
X186377095Y-70280181D01*
X186662809Y-70280181D02*
X186662809Y-69280181D01*
X186567571Y-69423038D01*
X186472333Y-69518276D01*
X186377095Y-69565895D01*
X187519952Y-69708752D02*
X187424714Y-69661133D01*
X187377095Y-69613514D01*
X187329476Y-69518276D01*
X187329476Y-69470657D01*
X187377095Y-69375419D01*
X187424714Y-69327800D01*
X187519952Y-69280181D01*
X187710429Y-69280181D01*
X187805667Y-69327800D01*
X187853286Y-69375419D01*
X187900905Y-69470657D01*
X187900905Y-69518276D01*
X187853286Y-69613514D01*
X187805667Y-69661133D01*
X187710429Y-69708752D01*
X187519952Y-69708752D01*
X187424714Y-69756371D01*
X187377095Y-69803990D01*
X187329476Y-69899229D01*
X187329476Y-70089705D01*
X187377095Y-70184943D01*
X187424714Y-70232562D01*
X187519952Y-70280181D01*
X187710429Y-70280181D01*
X187805667Y-70232562D01*
X187853286Y-70184943D01*
X187900905Y-70089705D01*
X187900905Y-69899229D01*
X187853286Y-69803990D01*
X187805667Y-69756371D01*
X187710429Y-69708752D01*
X178211714Y-70280181D02*
X178211714Y-69280181D01*
X178449809Y-69280181D01*
X178592667Y-69327800D01*
X178687905Y-69423038D01*
X178735524Y-69518276D01*
X178783143Y-69708752D01*
X178783143Y-69851610D01*
X178735524Y-70042086D01*
X178687905Y-70137324D01*
X178592667Y-70232562D01*
X178449809Y-70280181D01*
X178211714Y-70280181D01*
X179735524Y-70280181D02*
X179164095Y-70280181D01*
X179449809Y-70280181D02*
X179449809Y-69280181D01*
X179354571Y-69423038D01*
X179259333Y-69518276D01*
X179164095Y-69565895D01*
X180211714Y-70280181D02*
X180402190Y-70280181D01*
X180497429Y-70232562D01*
X180545048Y-70184943D01*
X180640286Y-70042086D01*
X180687905Y-69851610D01*
X180687905Y-69470657D01*
X180640286Y-69375419D01*
X180592667Y-69327800D01*
X180497429Y-69280181D01*
X180306952Y-69280181D01*
X180211714Y-69327800D01*
X180164095Y-69375419D01*
X180116476Y-69470657D01*
X180116476Y-69708752D01*
X180164095Y-69803990D01*
X180211714Y-69851610D01*
X180306952Y-69899229D01*
X180497429Y-69899229D01*
X180592667Y-69851610D01*
X180640286Y-69803990D01*
X180687905Y-69708752D01*
X178211714Y-79480181D02*
X178211714Y-78480181D01*
X178449809Y-78480181D01*
X178592667Y-78527800D01*
X178687905Y-78623038D01*
X178735524Y-78718276D01*
X178783143Y-78908752D01*
X178783143Y-79051610D01*
X178735524Y-79242086D01*
X178687905Y-79337324D01*
X178592667Y-79432562D01*
X178449809Y-79480181D01*
X178211714Y-79480181D01*
X179164095Y-78575419D02*
X179211714Y-78527800D01*
X179306952Y-78480181D01*
X179545048Y-78480181D01*
X179640286Y-78527800D01*
X179687905Y-78575419D01*
X179735524Y-78670657D01*
X179735524Y-78765895D01*
X179687905Y-78908752D01*
X179116476Y-79480181D01*
X179735524Y-79480181D01*
X180354571Y-78480181D02*
X180449810Y-78480181D01*
X180545048Y-78527800D01*
X180592667Y-78575419D01*
X180640286Y-78670657D01*
X180687905Y-78861133D01*
X180687905Y-79099229D01*
X180640286Y-79289705D01*
X180592667Y-79384943D01*
X180545048Y-79432562D01*
X180449810Y-79480181D01*
X180354571Y-79480181D01*
X180259333Y-79432562D01*
X180211714Y-79384943D01*
X180164095Y-79289705D01*
X180116476Y-79099229D01*
X180116476Y-78861133D01*
X180164095Y-78670657D01*
X180211714Y-78575419D01*
X180259333Y-78527800D01*
X180354571Y-78480181D01*
X178211714Y-117141381D02*
X178211714Y-116141381D01*
X178449809Y-116141381D01*
X178592667Y-116189000D01*
X178687905Y-116284238D01*
X178735524Y-116379476D01*
X178783143Y-116569952D01*
X178783143Y-116712810D01*
X178735524Y-116903286D01*
X178687905Y-116998524D01*
X178592667Y-117093762D01*
X178449809Y-117141381D01*
X178211714Y-117141381D01*
X179164095Y-116236619D02*
X179211714Y-116189000D01*
X179306952Y-116141381D01*
X179545048Y-116141381D01*
X179640286Y-116189000D01*
X179687905Y-116236619D01*
X179735524Y-116331857D01*
X179735524Y-116427095D01*
X179687905Y-116569952D01*
X179116476Y-117141381D01*
X179735524Y-117141381D01*
X180116476Y-116236619D02*
X180164095Y-116189000D01*
X180259333Y-116141381D01*
X180497429Y-116141381D01*
X180592667Y-116189000D01*
X180640286Y-116236619D01*
X180687905Y-116331857D01*
X180687905Y-116427095D01*
X180640286Y-116569952D01*
X180068857Y-117141381D01*
X180687905Y-117141381D01*
X178211714Y-126341381D02*
X178211714Y-125341381D01*
X178449809Y-125341381D01*
X178592667Y-125389000D01*
X178687905Y-125484238D01*
X178735524Y-125579476D01*
X178783143Y-125769952D01*
X178783143Y-125912810D01*
X178735524Y-126103286D01*
X178687905Y-126198524D01*
X178592667Y-126293762D01*
X178449809Y-126341381D01*
X178211714Y-126341381D01*
X179164095Y-125436619D02*
X179211714Y-125389000D01*
X179306952Y-125341381D01*
X179545048Y-125341381D01*
X179640286Y-125389000D01*
X179687905Y-125436619D01*
X179735524Y-125531857D01*
X179735524Y-125627095D01*
X179687905Y-125769952D01*
X179116476Y-126341381D01*
X179735524Y-126341381D01*
X180068857Y-125341381D02*
X180687905Y-125341381D01*
X180354571Y-125722333D01*
X180497429Y-125722333D01*
X180592667Y-125769952D01*
X180640286Y-125817571D01*
X180687905Y-125912810D01*
X180687905Y-126150905D01*
X180640286Y-126246143D01*
X180592667Y-126293762D01*
X180497429Y-126341381D01*
X180211714Y-126341381D01*
X180116476Y-126293762D01*
X180068857Y-126246143D01*
X183444114Y-127769481D02*
X183444114Y-126769481D01*
X183682209Y-126769481D01*
X183825067Y-126817100D01*
X183920305Y-126912338D01*
X183967924Y-127007576D01*
X184015543Y-127198052D01*
X184015543Y-127340910D01*
X183967924Y-127531386D01*
X183920305Y-127626624D01*
X183825067Y-127721862D01*
X183682209Y-127769481D01*
X183444114Y-127769481D01*
X184396495Y-126864719D02*
X184444114Y-126817100D01*
X184539352Y-126769481D01*
X184777448Y-126769481D01*
X184872686Y-126817100D01*
X184920305Y-126864719D01*
X184967924Y-126959957D01*
X184967924Y-127055195D01*
X184920305Y-127198052D01*
X184348876Y-127769481D01*
X184967924Y-127769481D01*
X185825067Y-127102814D02*
X185825067Y-127769481D01*
X185586971Y-126721862D02*
X185348876Y-127436148D01*
X185967924Y-127436148D01*
X183951214Y-149804381D02*
X183951214Y-148804381D01*
X184189309Y-148804381D01*
X184332167Y-148852000D01*
X184427405Y-148947238D01*
X184475024Y-149042476D01*
X184522643Y-149232952D01*
X184522643Y-149375810D01*
X184475024Y-149566286D01*
X184427405Y-149661524D01*
X184332167Y-149756762D01*
X184189309Y-149804381D01*
X183951214Y-149804381D01*
X184903595Y-148899619D02*
X184951214Y-148852000D01*
X185046452Y-148804381D01*
X185284548Y-148804381D01*
X185379786Y-148852000D01*
X185427405Y-148899619D01*
X185475024Y-148994857D01*
X185475024Y-149090095D01*
X185427405Y-149232952D01*
X184855976Y-149804381D01*
X185475024Y-149804381D01*
X186379786Y-148804381D02*
X185903595Y-148804381D01*
X185855976Y-149280571D01*
X185903595Y-149232952D01*
X185998833Y-149185333D01*
X186236929Y-149185333D01*
X186332167Y-149232952D01*
X186379786Y-149280571D01*
X186427405Y-149375810D01*
X186427405Y-149613905D01*
X186379786Y-149709143D01*
X186332167Y-149756762D01*
X186236929Y-149804381D01*
X185998833Y-149804381D01*
X185903595Y-149756762D01*
X185855976Y-149709143D01*
X175061214Y-149804381D02*
X175061214Y-148804381D01*
X175299309Y-148804381D01*
X175442167Y-148852000D01*
X175537405Y-148947238D01*
X175585024Y-149042476D01*
X175632643Y-149232952D01*
X175632643Y-149375810D01*
X175585024Y-149566286D01*
X175537405Y-149661524D01*
X175442167Y-149756762D01*
X175299309Y-149804381D01*
X175061214Y-149804381D01*
X176013595Y-148899619D02*
X176061214Y-148852000D01*
X176156452Y-148804381D01*
X176394548Y-148804381D01*
X176489786Y-148852000D01*
X176537405Y-148899619D01*
X176585024Y-148994857D01*
X176585024Y-149090095D01*
X176537405Y-149232952D01*
X175965976Y-149804381D01*
X176585024Y-149804381D01*
X177442167Y-148804381D02*
X177251690Y-148804381D01*
X177156452Y-148852000D01*
X177108833Y-148899619D01*
X177013595Y-149042476D01*
X176965976Y-149232952D01*
X176965976Y-149613905D01*
X177013595Y-149709143D01*
X177061214Y-149756762D01*
X177156452Y-149804381D01*
X177346929Y-149804381D01*
X177442167Y-149756762D01*
X177489786Y-149709143D01*
X177537405Y-149613905D01*
X177537405Y-149375810D01*
X177489786Y-149280571D01*
X177442167Y-149232952D01*
X177346929Y-149185333D01*
X177156452Y-149185333D01*
X177061214Y-149232952D01*
X177013595Y-149280571D01*
X176965976Y-149375810D01*
X165917714Y-149804381D02*
X165917714Y-148804381D01*
X166155809Y-148804381D01*
X166298667Y-148852000D01*
X166393905Y-148947238D01*
X166441524Y-149042476D01*
X166489143Y-149232952D01*
X166489143Y-149375810D01*
X166441524Y-149566286D01*
X166393905Y-149661524D01*
X166298667Y-149756762D01*
X166155809Y-149804381D01*
X165917714Y-149804381D01*
X166870095Y-148899619D02*
X166917714Y-148852000D01*
X167012952Y-148804381D01*
X167251048Y-148804381D01*
X167346286Y-148852000D01*
X167393905Y-148899619D01*
X167441524Y-148994857D01*
X167441524Y-149090095D01*
X167393905Y-149232952D01*
X166822476Y-149804381D01*
X167441524Y-149804381D01*
X167774857Y-148804381D02*
X168441524Y-148804381D01*
X168012952Y-149804381D01*
X156774214Y-149804381D02*
X156774214Y-148804381D01*
X157012309Y-148804381D01*
X157155167Y-148852000D01*
X157250405Y-148947238D01*
X157298024Y-149042476D01*
X157345643Y-149232952D01*
X157345643Y-149375810D01*
X157298024Y-149566286D01*
X157250405Y-149661524D01*
X157155167Y-149756762D01*
X157012309Y-149804381D01*
X156774214Y-149804381D01*
X157726595Y-148899619D02*
X157774214Y-148852000D01*
X157869452Y-148804381D01*
X158107548Y-148804381D01*
X158202786Y-148852000D01*
X158250405Y-148899619D01*
X158298024Y-148994857D01*
X158298024Y-149090095D01*
X158250405Y-149232952D01*
X157678976Y-149804381D01*
X158298024Y-149804381D01*
X158869452Y-149232952D02*
X158774214Y-149185333D01*
X158726595Y-149137714D01*
X158678976Y-149042476D01*
X158678976Y-148994857D01*
X158726595Y-148899619D01*
X158774214Y-148852000D01*
X158869452Y-148804381D01*
X159059929Y-148804381D01*
X159155167Y-148852000D01*
X159202786Y-148899619D01*
X159250405Y-148994857D01*
X159250405Y-149042476D01*
X159202786Y-149137714D01*
X159155167Y-149185333D01*
X159059929Y-149232952D01*
X158869452Y-149232952D01*
X158774214Y-149280571D01*
X158726595Y-149328190D01*
X158678976Y-149423429D01*
X158678976Y-149613905D01*
X158726595Y-149709143D01*
X158774214Y-149756762D01*
X158869452Y-149804381D01*
X159059929Y-149804381D01*
X159155167Y-149756762D01*
X159202786Y-149709143D01*
X159250405Y-149613905D01*
X159250405Y-149423429D01*
X159202786Y-149328190D01*
X159155167Y-149280571D01*
X159059929Y-149232952D01*
X156773714Y-127769481D02*
X156773714Y-126769481D01*
X157011809Y-126769481D01*
X157154667Y-126817100D01*
X157249905Y-126912338D01*
X157297524Y-127007576D01*
X157345143Y-127198052D01*
X157345143Y-127340910D01*
X157297524Y-127531386D01*
X157249905Y-127626624D01*
X157154667Y-127721862D01*
X157011809Y-127769481D01*
X156773714Y-127769481D01*
X157678476Y-126769481D02*
X158297524Y-126769481D01*
X157964190Y-127150433D01*
X158107048Y-127150433D01*
X158202286Y-127198052D01*
X158249905Y-127245671D01*
X158297524Y-127340910D01*
X158297524Y-127579005D01*
X158249905Y-127674243D01*
X158202286Y-127721862D01*
X158107048Y-127769481D01*
X157821333Y-127769481D01*
X157726095Y-127721862D01*
X157678476Y-127674243D01*
X158916571Y-126769481D02*
X159011810Y-126769481D01*
X159107048Y-126817100D01*
X159154667Y-126864719D01*
X159202286Y-126959957D01*
X159249905Y-127150433D01*
X159249905Y-127388529D01*
X159202286Y-127579005D01*
X159154667Y-127674243D01*
X159107048Y-127721862D01*
X159011810Y-127769481D01*
X158916571Y-127769481D01*
X158821333Y-127721862D01*
X158773714Y-127674243D01*
X158726095Y-127579005D01*
X158678476Y-127388529D01*
X158678476Y-127150433D01*
X158726095Y-126959957D01*
X158773714Y-126864719D01*
X158821333Y-126817100D01*
X158916571Y-126769481D01*
X161789714Y-126363381D02*
X161789714Y-125363381D01*
X162027809Y-125363381D01*
X162170667Y-125411000D01*
X162265905Y-125506238D01*
X162313524Y-125601476D01*
X162361143Y-125791952D01*
X162361143Y-125934810D01*
X162313524Y-126125286D01*
X162265905Y-126220524D01*
X162170667Y-126315762D01*
X162027809Y-126363381D01*
X161789714Y-126363381D01*
X162694476Y-125363381D02*
X163313524Y-125363381D01*
X162980190Y-125744333D01*
X163123048Y-125744333D01*
X163218286Y-125791952D01*
X163265905Y-125839571D01*
X163313524Y-125934810D01*
X163313524Y-126172905D01*
X163265905Y-126268143D01*
X163218286Y-126315762D01*
X163123048Y-126363381D01*
X162837333Y-126363381D01*
X162742095Y-126315762D01*
X162694476Y-126268143D01*
X164265905Y-126363381D02*
X163694476Y-126363381D01*
X163980190Y-126363381D02*
X163980190Y-125363381D01*
X163884952Y-125506238D01*
X163789714Y-125601476D01*
X163694476Y-125649095D01*
X161789714Y-117141381D02*
X161789714Y-116141381D01*
X162027809Y-116141381D01*
X162170667Y-116189000D01*
X162265905Y-116284238D01*
X162313524Y-116379476D01*
X162361143Y-116569952D01*
X162361143Y-116712810D01*
X162313524Y-116903286D01*
X162265905Y-116998524D01*
X162170667Y-117093762D01*
X162027809Y-117141381D01*
X161789714Y-117141381D01*
X162694476Y-116141381D02*
X163313524Y-116141381D01*
X162980190Y-116522333D01*
X163123048Y-116522333D01*
X163218286Y-116569952D01*
X163265905Y-116617571D01*
X163313524Y-116712810D01*
X163313524Y-116950905D01*
X163265905Y-117046143D01*
X163218286Y-117093762D01*
X163123048Y-117141381D01*
X162837333Y-117141381D01*
X162742095Y-117093762D01*
X162694476Y-117046143D01*
X163694476Y-116236619D02*
X163742095Y-116189000D01*
X163837333Y-116141381D01*
X164075429Y-116141381D01*
X164170667Y-116189000D01*
X164218286Y-116236619D01*
X164265905Y-116331857D01*
X164265905Y-116427095D01*
X164218286Y-116569952D01*
X163646857Y-117141381D01*
X164265905Y-117141381D01*
X168410286Y-91130381D02*
X168410286Y-90130381D01*
X168791239Y-90130381D01*
X168886477Y-90178000D01*
X168934096Y-90225619D01*
X168981715Y-90320857D01*
X168981715Y-90463714D01*
X168934096Y-90558952D01*
X168886477Y-90606571D01*
X168791239Y-90654190D01*
X168410286Y-90654190D01*
X169600762Y-90130381D02*
X169791239Y-90130381D01*
X169886477Y-90178000D01*
X169981715Y-90273238D01*
X170029334Y-90463714D01*
X170029334Y-90797048D01*
X169981715Y-90987524D01*
X169886477Y-91082762D01*
X169791239Y-91130381D01*
X169600762Y-91130381D01*
X169505524Y-91082762D01*
X169410286Y-90987524D01*
X169362667Y-90797048D01*
X169362667Y-90463714D01*
X169410286Y-90273238D01*
X169505524Y-90178000D01*
X169600762Y-90130381D01*
X170362667Y-90130381D02*
X170600762Y-91130381D01*
X170791239Y-90416095D01*
X170981715Y-91130381D01*
X171219810Y-90130381D01*
X171600762Y-90606571D02*
X171934096Y-90606571D01*
X172076953Y-91130381D02*
X171600762Y-91130381D01*
X171600762Y-90130381D01*
X172076953Y-90130381D01*
X173076953Y-91130381D02*
X172743619Y-90654190D01*
X172505524Y-91130381D02*
X172505524Y-90130381D01*
X172886477Y-90130381D01*
X172981715Y-90178000D01*
X173029334Y-90225619D01*
X173076953Y-90320857D01*
X173076953Y-90463714D01*
X173029334Y-90558952D01*
X172981715Y-90606571D01*
X172886477Y-90654190D01*
X172505524Y-90654190D01*
X174029334Y-91130381D02*
X173457905Y-91130381D01*
X173743619Y-91130381D02*
X173743619Y-90130381D01*
X173648381Y-90273238D01*
X173553143Y-90368476D01*
X173457905Y-90416095D01*
X168886476Y-122642381D02*
X169457905Y-122642381D01*
X169172190Y-123642381D02*
X169172190Y-122642381D01*
X169791238Y-123642381D02*
X169791238Y-122975714D01*
X169791238Y-122642381D02*
X169743619Y-122690000D01*
X169791238Y-122737619D01*
X169838857Y-122690000D01*
X169791238Y-122642381D01*
X169791238Y-122737619D01*
X170267428Y-122975714D02*
X170267428Y-123642381D01*
X170267428Y-123070952D02*
X170315047Y-123023333D01*
X170410285Y-122975714D01*
X170553143Y-122975714D01*
X170648381Y-123023333D01*
X170696000Y-123118571D01*
X170696000Y-123642381D01*
X171076952Y-122975714D02*
X171315047Y-123642381D01*
X171553143Y-122975714D02*
X171315047Y-123642381D01*
X171219809Y-123880476D01*
X171172190Y-123928095D01*
X171076952Y-123975714D01*
X172076952Y-123070952D02*
X171981714Y-123023333D01*
X171934095Y-122975714D01*
X171886476Y-122880476D01*
X171886476Y-122832857D01*
X171934095Y-122737619D01*
X171981714Y-122690000D01*
X172076952Y-122642381D01*
X172267429Y-122642381D01*
X172362667Y-122690000D01*
X172410286Y-122737619D01*
X172457905Y-122832857D01*
X172457905Y-122880476D01*
X172410286Y-122975714D01*
X172362667Y-123023333D01*
X172267429Y-123070952D01*
X172076952Y-123070952D01*
X171981714Y-123118571D01*
X171934095Y-123166190D01*
X171886476Y-123261429D01*
X171886476Y-123451905D01*
X171934095Y-123547143D01*
X171981714Y-123594762D01*
X172076952Y-123642381D01*
X172267429Y-123642381D01*
X172362667Y-123594762D01*
X172410286Y-123547143D01*
X172457905Y-123451905D01*
X172457905Y-123261429D01*
X172410286Y-123166190D01*
X172362667Y-123118571D01*
X172267429Y-123070952D01*
X173362667Y-122642381D02*
X172886476Y-122642381D01*
X172838857Y-123118571D01*
X172886476Y-123070952D01*
X172981714Y-123023333D01*
X173219810Y-123023333D01*
X173315048Y-123070952D01*
X173362667Y-123118571D01*
X173410286Y-123213810D01*
X173410286Y-123451905D01*
X173362667Y-123547143D01*
X173315048Y-123594762D01*
X173219810Y-123642381D01*
X172981714Y-123642381D01*
X172886476Y-123594762D01*
X172838857Y-123547143D01*
X145311905Y-56332381D02*
X145311905Y-55332381D01*
X145550000Y-55332381D01*
X145692858Y-55380000D01*
X145788096Y-55475238D01*
X145835715Y-55570476D01*
X145883334Y-55760952D01*
X145883334Y-55903810D01*
X145835715Y-56094286D01*
X145788096Y-56189524D01*
X145692858Y-56284762D01*
X145550000Y-56332381D01*
X145311905Y-56332381D01*
X146788096Y-55332381D02*
X146311905Y-55332381D01*
X146264286Y-55808571D01*
X146311905Y-55760952D01*
X146407143Y-55713333D01*
X146645239Y-55713333D01*
X146740477Y-55760952D01*
X146788096Y-55808571D01*
X146835715Y-55903810D01*
X146835715Y-56141905D01*
X146788096Y-56237143D01*
X146740477Y-56284762D01*
X146645239Y-56332381D01*
X146407143Y-56332381D01*
X146311905Y-56284762D01*
X146264286Y-56237143D01*
X209138714Y-63459381D02*
X209138714Y-62459381D01*
X209376809Y-62459381D01*
X209519667Y-62507000D01*
X209614905Y-62602238D01*
X209662524Y-62697476D01*
X209710143Y-62887952D01*
X209710143Y-63030810D01*
X209662524Y-63221286D01*
X209614905Y-63316524D01*
X209519667Y-63411762D01*
X209376809Y-63459381D01*
X209138714Y-63459381D01*
X210662524Y-63459381D02*
X210091095Y-63459381D01*
X210376809Y-63459381D02*
X210376809Y-62459381D01*
X210281571Y-62602238D01*
X210186333Y-62697476D01*
X210091095Y-62745095D01*
X210995857Y-62459381D02*
X211614905Y-62459381D01*
X211281571Y-62840333D01*
X211424429Y-62840333D01*
X211519667Y-62887952D01*
X211567286Y-62935571D01*
X211614905Y-63030810D01*
X211614905Y-63268905D01*
X211567286Y-63364143D01*
X211519667Y-63411762D01*
X211424429Y-63459381D01*
X211138714Y-63459381D01*
X211043476Y-63411762D01*
X210995857Y-63364143D01*
X178211714Y-88680181D02*
X178211714Y-87680181D01*
X178449809Y-87680181D01*
X178592667Y-87727800D01*
X178687905Y-87823038D01*
X178735524Y-87918276D01*
X178783143Y-88108752D01*
X178783143Y-88251610D01*
X178735524Y-88442086D01*
X178687905Y-88537324D01*
X178592667Y-88632562D01*
X178449809Y-88680181D01*
X178211714Y-88680181D01*
X179164095Y-87775419D02*
X179211714Y-87727800D01*
X179306952Y-87680181D01*
X179545048Y-87680181D01*
X179640286Y-87727800D01*
X179687905Y-87775419D01*
X179735524Y-87870657D01*
X179735524Y-87965895D01*
X179687905Y-88108752D01*
X179116476Y-88680181D01*
X179735524Y-88680181D01*
X180687905Y-88680181D02*
X180116476Y-88680181D01*
X180402190Y-88680181D02*
X180402190Y-87680181D01*
X180306952Y-87823038D01*
X180211714Y-87918276D01*
X180116476Y-87965895D01*
X156519714Y-144470381D02*
X156519714Y-143470381D01*
X156757809Y-143470381D01*
X156900667Y-143518000D01*
X156995905Y-143613238D01*
X157043524Y-143708476D01*
X157091143Y-143898952D01*
X157091143Y-144041810D01*
X157043524Y-144232286D01*
X156995905Y-144327524D01*
X156900667Y-144422762D01*
X156757809Y-144470381D01*
X156519714Y-144470381D01*
X157472095Y-143565619D02*
X157519714Y-143518000D01*
X157614952Y-143470381D01*
X157853048Y-143470381D01*
X157948286Y-143518000D01*
X157995905Y-143565619D01*
X158043524Y-143660857D01*
X158043524Y-143756095D01*
X157995905Y-143898952D01*
X157424476Y-144470381D01*
X158043524Y-144470381D01*
X158519714Y-144470381D02*
X158710190Y-144470381D01*
X158805429Y-144422762D01*
X158853048Y-144375143D01*
X158948286Y-144232286D01*
X158995905Y-144041810D01*
X158995905Y-143660857D01*
X158948286Y-143565619D01*
X158900667Y-143518000D01*
X158805429Y-143470381D01*
X158614952Y-143470381D01*
X158519714Y-143518000D01*
X158472095Y-143565619D01*
X158424476Y-143660857D01*
X158424476Y-143898952D01*
X158472095Y-143994190D01*
X158519714Y-144041810D01*
X158614952Y-144089429D01*
X158805429Y-144089429D01*
X158900667Y-144041810D01*
X158948286Y-143994190D01*
X158995905Y-143898952D01*
X161789714Y-88680181D02*
X161789714Y-87680181D01*
X162027809Y-87680181D01*
X162170667Y-87727800D01*
X162265905Y-87823038D01*
X162313524Y-87918276D01*
X162361143Y-88108752D01*
X162361143Y-88251610D01*
X162313524Y-88442086D01*
X162265905Y-88537324D01*
X162170667Y-88632562D01*
X162027809Y-88680181D01*
X161789714Y-88680181D01*
X162694476Y-87680181D02*
X163313524Y-87680181D01*
X162980190Y-88061133D01*
X163123048Y-88061133D01*
X163218286Y-88108752D01*
X163265905Y-88156371D01*
X163313524Y-88251610D01*
X163313524Y-88489705D01*
X163265905Y-88584943D01*
X163218286Y-88632562D01*
X163123048Y-88680181D01*
X162837333Y-88680181D01*
X162742095Y-88632562D01*
X162694476Y-88584943D01*
X163646857Y-87680181D02*
X164265905Y-87680181D01*
X163932571Y-88061133D01*
X164075429Y-88061133D01*
X164170667Y-88108752D01*
X164218286Y-88156371D01*
X164265905Y-88251610D01*
X164265905Y-88489705D01*
X164218286Y-88584943D01*
X164170667Y-88632562D01*
X164075429Y-88680181D01*
X163789714Y-88680181D01*
X163694476Y-88632562D01*
X163646857Y-88584943D01*
X161789714Y-79480181D02*
X161789714Y-78480181D01*
X162027809Y-78480181D01*
X162170667Y-78527800D01*
X162265905Y-78623038D01*
X162313524Y-78718276D01*
X162361143Y-78908752D01*
X162361143Y-79051610D01*
X162313524Y-79242086D01*
X162265905Y-79337324D01*
X162170667Y-79432562D01*
X162027809Y-79480181D01*
X161789714Y-79480181D01*
X162694476Y-78480181D02*
X163313524Y-78480181D01*
X162980190Y-78861133D01*
X163123048Y-78861133D01*
X163218286Y-78908752D01*
X163265905Y-78956371D01*
X163313524Y-79051610D01*
X163313524Y-79289705D01*
X163265905Y-79384943D01*
X163218286Y-79432562D01*
X163123048Y-79480181D01*
X162837333Y-79480181D01*
X162742095Y-79432562D01*
X162694476Y-79384943D01*
X164170667Y-78813514D02*
X164170667Y-79480181D01*
X163932571Y-78432562D02*
X163694476Y-79146848D01*
X164313524Y-79146848D01*
X161789714Y-70280181D02*
X161789714Y-69280181D01*
X162027809Y-69280181D01*
X162170667Y-69327800D01*
X162265905Y-69423038D01*
X162313524Y-69518276D01*
X162361143Y-69708752D01*
X162361143Y-69851610D01*
X162313524Y-70042086D01*
X162265905Y-70137324D01*
X162170667Y-70232562D01*
X162027809Y-70280181D01*
X161789714Y-70280181D01*
X162694476Y-69280181D02*
X163313524Y-69280181D01*
X162980190Y-69661133D01*
X163123048Y-69661133D01*
X163218286Y-69708752D01*
X163265905Y-69756371D01*
X163313524Y-69851610D01*
X163313524Y-70089705D01*
X163265905Y-70184943D01*
X163218286Y-70232562D01*
X163123048Y-70280181D01*
X162837333Y-70280181D01*
X162742095Y-70232562D01*
X162694476Y-70184943D01*
X164218286Y-69280181D02*
X163742095Y-69280181D01*
X163694476Y-69756371D01*
X163742095Y-69708752D01*
X163837333Y-69661133D01*
X164075429Y-69661133D01*
X164170667Y-69708752D01*
X164218286Y-69756371D01*
X164265905Y-69851610D01*
X164265905Y-70089705D01*
X164218286Y-70184943D01*
X164170667Y-70232562D01*
X164075429Y-70280181D01*
X163837333Y-70280181D01*
X163742095Y-70232562D01*
X163694476Y-70184943D01*
X154551714Y-70292881D02*
X154551714Y-69292881D01*
X154789809Y-69292881D01*
X154932667Y-69340500D01*
X155027905Y-69435738D01*
X155075524Y-69530976D01*
X155123143Y-69721452D01*
X155123143Y-69864310D01*
X155075524Y-70054786D01*
X155027905Y-70150024D01*
X154932667Y-70245262D01*
X154789809Y-70292881D01*
X154551714Y-70292881D01*
X155456476Y-69292881D02*
X156075524Y-69292881D01*
X155742190Y-69673833D01*
X155885048Y-69673833D01*
X155980286Y-69721452D01*
X156027905Y-69769071D01*
X156075524Y-69864310D01*
X156075524Y-70102405D01*
X156027905Y-70197643D01*
X155980286Y-70245262D01*
X155885048Y-70292881D01*
X155599333Y-70292881D01*
X155504095Y-70245262D01*
X155456476Y-70197643D01*
X156932667Y-69292881D02*
X156742190Y-69292881D01*
X156646952Y-69340500D01*
X156599333Y-69388119D01*
X156504095Y-69530976D01*
X156456476Y-69721452D01*
X156456476Y-70102405D01*
X156504095Y-70197643D01*
X156551714Y-70245262D01*
X156646952Y-70292881D01*
X156837429Y-70292881D01*
X156932667Y-70245262D01*
X156980286Y-70197643D01*
X157027905Y-70102405D01*
X157027905Y-69864310D01*
X156980286Y-69769071D01*
X156932667Y-69721452D01*
X156837429Y-69673833D01*
X156646952Y-69673833D01*
X156551714Y-69721452D01*
X156504095Y-69769071D01*
X156456476Y-69864310D01*
X147311714Y-70292881D02*
X147311714Y-69292881D01*
X147549809Y-69292881D01*
X147692667Y-69340500D01*
X147787905Y-69435738D01*
X147835524Y-69530976D01*
X147883143Y-69721452D01*
X147883143Y-69864310D01*
X147835524Y-70054786D01*
X147787905Y-70150024D01*
X147692667Y-70245262D01*
X147549809Y-70292881D01*
X147311714Y-70292881D01*
X148216476Y-69292881D02*
X148835524Y-69292881D01*
X148502190Y-69673833D01*
X148645048Y-69673833D01*
X148740286Y-69721452D01*
X148787905Y-69769071D01*
X148835524Y-69864310D01*
X148835524Y-70102405D01*
X148787905Y-70197643D01*
X148740286Y-70245262D01*
X148645048Y-70292881D01*
X148359333Y-70292881D01*
X148264095Y-70245262D01*
X148216476Y-70197643D01*
X149168857Y-69292881D02*
X149835524Y-69292881D01*
X149406952Y-70292881D01*
X147311714Y-81659381D02*
X147311714Y-80659381D01*
X147549809Y-80659381D01*
X147692667Y-80707000D01*
X147787905Y-80802238D01*
X147835524Y-80897476D01*
X147883143Y-81087952D01*
X147883143Y-81230810D01*
X147835524Y-81421286D01*
X147787905Y-81516524D01*
X147692667Y-81611762D01*
X147549809Y-81659381D01*
X147311714Y-81659381D01*
X148216476Y-80659381D02*
X148835524Y-80659381D01*
X148502190Y-81040333D01*
X148645048Y-81040333D01*
X148740286Y-81087952D01*
X148787905Y-81135571D01*
X148835524Y-81230810D01*
X148835524Y-81468905D01*
X148787905Y-81564143D01*
X148740286Y-81611762D01*
X148645048Y-81659381D01*
X148359333Y-81659381D01*
X148264095Y-81611762D01*
X148216476Y-81564143D01*
X149406952Y-81087952D02*
X149311714Y-81040333D01*
X149264095Y-80992714D01*
X149216476Y-80897476D01*
X149216476Y-80849857D01*
X149264095Y-80754619D01*
X149311714Y-80707000D01*
X149406952Y-80659381D01*
X149597429Y-80659381D01*
X149692667Y-80707000D01*
X149740286Y-80754619D01*
X149787905Y-80849857D01*
X149787905Y-80897476D01*
X149740286Y-80992714D01*
X149692667Y-81040333D01*
X149597429Y-81087952D01*
X149406952Y-81087952D01*
X149311714Y-81135571D01*
X149264095Y-81183190D01*
X149216476Y-81278429D01*
X149216476Y-81468905D01*
X149264095Y-81564143D01*
X149311714Y-81611762D01*
X149406952Y-81659381D01*
X149597429Y-81659381D01*
X149692667Y-81611762D01*
X149740286Y-81564143D01*
X149787905Y-81468905D01*
X149787905Y-81278429D01*
X149740286Y-81183190D01*
X149692667Y-81135571D01*
X149597429Y-81087952D01*
X179538477Y-65460571D02*
X179681334Y-65508190D01*
X179728953Y-65555810D01*
X179776572Y-65651048D01*
X179776572Y-65793905D01*
X179728953Y-65889143D01*
X179681334Y-65936762D01*
X179586096Y-65984381D01*
X179205143Y-65984381D01*
X179205143Y-64984381D01*
X179538477Y-64984381D01*
X179633715Y-65032000D01*
X179681334Y-65079619D01*
X179728953Y-65174857D01*
X179728953Y-65270095D01*
X179681334Y-65365333D01*
X179633715Y-65412952D01*
X179538477Y-65460571D01*
X179205143Y-65460571D01*
X180062286Y-64984381D02*
X180633715Y-64984381D01*
X180348000Y-65984381D02*
X180348000Y-64984381D01*
X180967048Y-65984381D02*
X180967048Y-64984381D01*
X181538477Y-65984381D01*
X181538477Y-64984381D01*
X182538477Y-65984381D02*
X181967048Y-65984381D01*
X182252762Y-65984381D02*
X182252762Y-64984381D01*
X182157524Y-65127238D01*
X182062286Y-65222476D01*
X181967048Y-65270095D01*
X168648381Y-107997571D02*
X168791238Y-108045190D01*
X168838857Y-108092810D01*
X168886476Y-108188048D01*
X168886476Y-108330905D01*
X168838857Y-108426143D01*
X168791238Y-108473762D01*
X168696000Y-108521381D01*
X168315047Y-108521381D01*
X168315047Y-107521381D01*
X168648381Y-107521381D01*
X168743619Y-107569000D01*
X168791238Y-107616619D01*
X168838857Y-107711857D01*
X168838857Y-107807095D01*
X168791238Y-107902333D01*
X168743619Y-107949952D01*
X168648381Y-107997571D01*
X168315047Y-107997571D01*
X169743619Y-108521381D02*
X169743619Y-107997571D01*
X169696000Y-107902333D01*
X169600762Y-107854714D01*
X169410285Y-107854714D01*
X169315047Y-107902333D01*
X169743619Y-108473762D02*
X169648381Y-108521381D01*
X169410285Y-108521381D01*
X169315047Y-108473762D01*
X169267428Y-108378524D01*
X169267428Y-108283286D01*
X169315047Y-108188048D01*
X169410285Y-108140429D01*
X169648381Y-108140429D01*
X169743619Y-108092810D01*
X170076952Y-107854714D02*
X170457904Y-107854714D01*
X170219809Y-107521381D02*
X170219809Y-108378524D01*
X170267428Y-108473762D01*
X170362666Y-108521381D01*
X170457904Y-108521381D01*
X170648381Y-107854714D02*
X171029333Y-107854714D01*
X170791238Y-107521381D02*
X170791238Y-108378524D01*
X170838857Y-108473762D01*
X170934095Y-108521381D01*
X171029333Y-108521381D01*
X171743620Y-108473762D02*
X171648382Y-108521381D01*
X171457905Y-108521381D01*
X171362667Y-108473762D01*
X171315048Y-108378524D01*
X171315048Y-107997571D01*
X171362667Y-107902333D01*
X171457905Y-107854714D01*
X171648382Y-107854714D01*
X171743620Y-107902333D01*
X171791239Y-107997571D01*
X171791239Y-108092810D01*
X171315048Y-108188048D01*
X172219810Y-108521381D02*
X172219810Y-107854714D01*
X172219810Y-108045190D02*
X172267429Y-107949952D01*
X172315048Y-107902333D01*
X172410286Y-107854714D01*
X172505525Y-107854714D01*
X172743620Y-107854714D02*
X172981715Y-108521381D01*
X173219811Y-107854714D02*
X172981715Y-108521381D01*
X172886477Y-108759476D01*
X172838858Y-108807095D01*
X172743620Y-108854714D01*
X174124573Y-108521381D02*
X173553144Y-108521381D01*
X173838858Y-108521381D02*
X173838858Y-107521381D01*
X173743620Y-107664238D01*
X173648382Y-107759476D01*
X173553144Y-107807095D01*
D14*
X167005524Y-110950286D02*
X166910286Y-111045524D01*
X166624571Y-111140762D01*
X166434095Y-111140762D01*
X166148381Y-111045524D01*
X165957905Y-110855048D01*
X165862666Y-110664571D01*
X165767428Y-110283619D01*
X165767428Y-109997905D01*
X165862666Y-109616952D01*
X165957905Y-109426476D01*
X166148381Y-109236000D01*
X166434095Y-109140762D01*
X166624571Y-109140762D01*
X166910286Y-109236000D01*
X167005524Y-109331238D01*
X169005524Y-111140762D02*
X168338857Y-110188381D01*
X167862666Y-111140762D02*
X167862666Y-109140762D01*
X168624571Y-109140762D01*
X168815047Y-109236000D01*
X168910286Y-109331238D01*
X169005524Y-109521714D01*
X169005524Y-109807429D01*
X168910286Y-109997905D01*
X168815047Y-110093143D01*
X168624571Y-110188381D01*
X167862666Y-110188381D01*
X169767428Y-109331238D02*
X169862666Y-109236000D01*
X170053143Y-109140762D01*
X170529333Y-109140762D01*
X170719809Y-109236000D01*
X170815047Y-109331238D01*
X170910286Y-109521714D01*
X170910286Y-109712190D01*
X170815047Y-109997905D01*
X169672190Y-111140762D01*
X170910286Y-111140762D01*
X172148381Y-109140762D02*
X172338857Y-109140762D01*
X172529333Y-109236000D01*
X172624571Y-109331238D01*
X172719809Y-109521714D01*
X172815048Y-109902667D01*
X172815048Y-110378857D01*
X172719809Y-110759810D01*
X172624571Y-110950286D01*
X172529333Y-111045524D01*
X172338857Y-111140762D01*
X172148381Y-111140762D01*
X171957905Y-111045524D01*
X171862667Y-110950286D01*
X171767428Y-110759810D01*
X171672190Y-110378857D01*
X171672190Y-109902667D01*
X171767428Y-109521714D01*
X171862667Y-109331238D01*
X171957905Y-109236000D01*
X172148381Y-109140762D01*
X173481714Y-109140762D02*
X174719810Y-109140762D01*
X174053143Y-109902667D01*
X174338857Y-109902667D01*
X174529333Y-109997905D01*
X174624571Y-110093143D01*
X174719810Y-110283619D01*
X174719810Y-110759810D01*
X174624571Y-110950286D01*
X174529333Y-111045524D01*
X174338857Y-111140762D01*
X173767429Y-111140762D01*
X173576952Y-111045524D01*
X173481714Y-110950286D01*
X175481714Y-109331238D02*
X175576952Y-109236000D01*
X175767429Y-109140762D01*
X176243619Y-109140762D01*
X176434095Y-109236000D01*
X176529333Y-109331238D01*
X176624572Y-109521714D01*
X176624572Y-109712190D01*
X176529333Y-109997905D01*
X175386476Y-111140762D01*
X176624572Y-111140762D01*
X170434095Y-102211857D02*
X171957905Y-102211857D01*
X170434095Y-116711857D02*
X171957905Y-116711857D01*
X171196000Y-117473762D02*
X171196000Y-115949952D01*
D13*
X146607857Y-63089286D02*
X146607857Y-63625000D01*
X146572143Y-63732143D01*
X146500714Y-63803571D01*
X146393571Y-63839286D01*
X146322143Y-63839286D01*
X147286429Y-63339286D02*
X147286429Y-63839286D01*
X146965000Y-63339286D02*
X146965000Y-63732143D01*
X147000715Y-63803571D01*
X147072143Y-63839286D01*
X147179286Y-63839286D01*
X147250715Y-63803571D01*
X147286429Y-63767857D01*
X147643571Y-63839286D02*
X147643571Y-63339286D01*
X147643571Y-63410714D02*
X147679286Y-63375000D01*
X147750714Y-63339286D01*
X147857857Y-63339286D01*
X147929286Y-63375000D01*
X147965000Y-63446429D01*
X147965000Y-63839286D01*
X147965000Y-63446429D02*
X148000714Y-63375000D01*
X148072143Y-63339286D01*
X148179286Y-63339286D01*
X148250714Y-63375000D01*
X148286429Y-63446429D01*
X148286429Y-63839286D01*
X148643571Y-63339286D02*
X148643571Y-64089286D01*
X148643571Y-63375000D02*
X148715000Y-63339286D01*
X148857857Y-63339286D01*
X148929286Y-63375000D01*
X148965000Y-63410714D01*
X149000714Y-63482143D01*
X149000714Y-63696429D01*
X148965000Y-63767857D01*
X148929286Y-63803571D01*
X148857857Y-63839286D01*
X148715000Y-63839286D01*
X148643571Y-63803571D01*
X149607857Y-63803571D02*
X149536428Y-63839286D01*
X149393571Y-63839286D01*
X149322142Y-63803571D01*
X149286428Y-63732143D01*
X149286428Y-63446429D01*
X149322142Y-63375000D01*
X149393571Y-63339286D01*
X149536428Y-63339286D01*
X149607857Y-63375000D01*
X149643571Y-63446429D01*
X149643571Y-63517857D01*
X149286428Y-63589286D01*
X149964999Y-63839286D02*
X149964999Y-63339286D01*
X149964999Y-63482143D02*
X150000714Y-63410714D01*
X150036428Y-63375000D01*
X150107857Y-63339286D01*
X150179285Y-63339286D01*
X150822143Y-63839286D02*
X150393571Y-63839286D01*
X150607857Y-63839286D02*
X150607857Y-63089286D01*
X150536428Y-63196429D01*
X150465000Y-63267857D01*
X150393571Y-63303571D01*
X146215000Y-67613571D02*
X146322143Y-67649286D01*
X146500714Y-67649286D01*
X146572143Y-67613571D01*
X146607857Y-67577857D01*
X146643572Y-67506429D01*
X146643572Y-67435000D01*
X146607857Y-67363571D01*
X146572143Y-67327857D01*
X146500714Y-67292143D01*
X146357857Y-67256429D01*
X146286429Y-67220714D01*
X146250714Y-67185000D01*
X146215000Y-67113571D01*
X146215000Y-67042143D01*
X146250714Y-66970714D01*
X146286429Y-66935000D01*
X146357857Y-66899286D01*
X146536429Y-66899286D01*
X146643572Y-66935000D01*
X146965000Y-67649286D02*
X146965000Y-66899286D01*
X147286429Y-67649286D02*
X147286429Y-67256429D01*
X147250715Y-67185000D01*
X147179286Y-67149286D01*
X147072143Y-67149286D01*
X147000715Y-67185000D01*
X146965000Y-67220714D01*
X147643571Y-67649286D02*
X147643571Y-67149286D01*
X147643571Y-66899286D02*
X147607857Y-66935000D01*
X147643571Y-66970714D01*
X147679286Y-66935000D01*
X147643571Y-66899286D01*
X147643571Y-66970714D01*
X147893572Y-67149286D02*
X148179286Y-67149286D01*
X148000714Y-67649286D02*
X148000714Y-67006429D01*
X148036429Y-66935000D01*
X148107857Y-66899286D01*
X148179286Y-66899286D01*
X148322143Y-67149286D02*
X148607857Y-67149286D01*
X148429285Y-66899286D02*
X148429285Y-67542143D01*
X148465000Y-67613571D01*
X148536428Y-67649286D01*
X148607857Y-67649286D01*
X148679285Y-67720714D02*
X149250714Y-67720714D01*
X149429285Y-67649286D02*
X149429285Y-66899286D01*
X149929286Y-66899286D02*
X150072143Y-66899286D01*
X150143571Y-66935000D01*
X150215000Y-67006429D01*
X150250714Y-67149286D01*
X150250714Y-67399286D01*
X150215000Y-67542143D01*
X150143571Y-67613571D01*
X150072143Y-67649286D01*
X149929286Y-67649286D01*
X149857857Y-67613571D01*
X149786428Y-67542143D01*
X149750714Y-67399286D01*
X149750714Y-67149286D01*
X149786428Y-67006429D01*
X149857857Y-66935000D01*
X149929286Y-66899286D01*
X150965000Y-67649286D02*
X150536428Y-67649286D01*
X150750714Y-67649286D02*
X150750714Y-66899286D01*
X150679285Y-67006429D01*
X150607857Y-67077857D01*
X150536428Y-67113571D01*
X168997619Y-62682381D02*
X168997619Y-61682381D01*
X169378572Y-61682381D01*
X169473810Y-61730000D01*
X169521429Y-61777619D01*
X169569048Y-61872857D01*
X169569048Y-62015714D01*
X169521429Y-62110952D01*
X169473810Y-62158571D01*
X169378572Y-62206190D01*
X168997619Y-62206190D01*
X170140476Y-62682381D02*
X170045238Y-62634762D01*
X169997619Y-62587143D01*
X169950000Y-62491905D01*
X169950000Y-62206190D01*
X169997619Y-62110952D01*
X170045238Y-62063333D01*
X170140476Y-62015714D01*
X170283334Y-62015714D01*
X170378572Y-62063333D01*
X170426191Y-62110952D01*
X170473810Y-62206190D01*
X170473810Y-62491905D01*
X170426191Y-62587143D01*
X170378572Y-62634762D01*
X170283334Y-62682381D01*
X170140476Y-62682381D01*
X170807143Y-62015714D02*
X170997619Y-62682381D01*
X171188096Y-62206190D01*
X171378572Y-62682381D01*
X171569048Y-62015714D01*
X172330953Y-62634762D02*
X172235715Y-62682381D01*
X172045238Y-62682381D01*
X171950000Y-62634762D01*
X171902381Y-62539524D01*
X171902381Y-62158571D01*
X171950000Y-62063333D01*
X172045238Y-62015714D01*
X172235715Y-62015714D01*
X172330953Y-62063333D01*
X172378572Y-62158571D01*
X172378572Y-62253810D01*
X171902381Y-62349048D01*
X172807143Y-62682381D02*
X172807143Y-62015714D01*
X172807143Y-62206190D02*
X172854762Y-62110952D01*
X172902381Y-62063333D01*
X172997619Y-62015714D01*
X173092858Y-62015714D01*
X173950001Y-62682381D02*
X173378572Y-62682381D01*
X173664286Y-62682381D02*
X173664286Y-61682381D01*
X173569048Y-61825238D01*
X173473810Y-61920476D01*
X173378572Y-61968095D01*
X200084190Y-67289762D02*
X200227047Y-67337381D01*
X200465143Y-67337381D01*
X200560381Y-67289762D01*
X200608000Y-67242143D01*
X200655619Y-67146905D01*
X200655619Y-67051667D01*
X200608000Y-66956429D01*
X200560381Y-66908810D01*
X200465143Y-66861190D01*
X200274666Y-66813571D01*
X200179428Y-66765952D01*
X200131809Y-66718333D01*
X200084190Y-66623095D01*
X200084190Y-66527857D01*
X200131809Y-66432619D01*
X200179428Y-66385000D01*
X200274666Y-66337381D01*
X200512762Y-66337381D01*
X200655619Y-66385000D01*
X201084190Y-67337381D02*
X201084190Y-66337381D01*
X201512762Y-67337381D02*
X201512762Y-66813571D01*
X201465143Y-66718333D01*
X201369905Y-66670714D01*
X201227047Y-66670714D01*
X201131809Y-66718333D01*
X201084190Y-66765952D01*
X201988952Y-67337381D02*
X201988952Y-66670714D01*
X201988952Y-66337381D02*
X201941333Y-66385000D01*
X201988952Y-66432619D01*
X202036571Y-66385000D01*
X201988952Y-66337381D01*
X201988952Y-66432619D01*
X202322285Y-66670714D02*
X202703237Y-66670714D01*
X202465142Y-67337381D02*
X202465142Y-66480238D01*
X202512761Y-66385000D01*
X202607999Y-66337381D01*
X202703237Y-66337381D01*
X202893714Y-66670714D02*
X203274666Y-66670714D01*
X203036571Y-66337381D02*
X203036571Y-67194524D01*
X203084190Y-67289762D01*
X203179428Y-67337381D01*
X203274666Y-67337381D01*
X203560381Y-66432619D02*
X203608000Y-66385000D01*
X203703238Y-66337381D01*
X203941334Y-66337381D01*
X204036572Y-66385000D01*
X204084191Y-66432619D01*
X204131810Y-66527857D01*
X204131810Y-66623095D01*
X204084191Y-66765952D01*
X203512762Y-67337381D01*
X204131810Y-67337381D01*
X169159190Y-67289762D02*
X169302047Y-67337381D01*
X169540143Y-67337381D01*
X169635381Y-67289762D01*
X169683000Y-67242143D01*
X169730619Y-67146905D01*
X169730619Y-67051667D01*
X169683000Y-66956429D01*
X169635381Y-66908810D01*
X169540143Y-66861190D01*
X169349666Y-66813571D01*
X169254428Y-66765952D01*
X169206809Y-66718333D01*
X169159190Y-66623095D01*
X169159190Y-66527857D01*
X169206809Y-66432619D01*
X169254428Y-66385000D01*
X169349666Y-66337381D01*
X169587762Y-66337381D01*
X169730619Y-66385000D01*
X170159190Y-67337381D02*
X170159190Y-66337381D01*
X170587762Y-67337381D02*
X170587762Y-66813571D01*
X170540143Y-66718333D01*
X170444905Y-66670714D01*
X170302047Y-66670714D01*
X170206809Y-66718333D01*
X170159190Y-66765952D01*
X171063952Y-67337381D02*
X171063952Y-66670714D01*
X171063952Y-66337381D02*
X171016333Y-66385000D01*
X171063952Y-66432619D01*
X171111571Y-66385000D01*
X171063952Y-66337381D01*
X171063952Y-66432619D01*
X171397285Y-66670714D02*
X171778237Y-66670714D01*
X171540142Y-67337381D02*
X171540142Y-66480238D01*
X171587761Y-66385000D01*
X171682999Y-66337381D01*
X171778237Y-66337381D01*
X171968714Y-66670714D02*
X172349666Y-66670714D01*
X172111571Y-66337381D02*
X172111571Y-67194524D01*
X172159190Y-67289762D01*
X172254428Y-67337381D01*
X172349666Y-67337381D01*
X172587762Y-66337381D02*
X173206810Y-66337381D01*
X172873476Y-66718333D01*
X173016334Y-66718333D01*
X173111572Y-66765952D01*
X173159191Y-66813571D01*
X173206810Y-66908810D01*
X173206810Y-67146905D01*
X173159191Y-67242143D01*
X173111572Y-67289762D01*
X173016334Y-67337381D01*
X172730619Y-67337381D01*
X172635381Y-67289762D01*
X172587762Y-67242143D01*
X138235190Y-67289762D02*
X138378047Y-67337381D01*
X138616143Y-67337381D01*
X138711381Y-67289762D01*
X138759000Y-67242143D01*
X138806619Y-67146905D01*
X138806619Y-67051667D01*
X138759000Y-66956429D01*
X138711381Y-66908810D01*
X138616143Y-66861190D01*
X138425666Y-66813571D01*
X138330428Y-66765952D01*
X138282809Y-66718333D01*
X138235190Y-66623095D01*
X138235190Y-66527857D01*
X138282809Y-66432619D01*
X138330428Y-66385000D01*
X138425666Y-66337381D01*
X138663762Y-66337381D01*
X138806619Y-66385000D01*
X139235190Y-67337381D02*
X139235190Y-66337381D01*
X139663762Y-67337381D02*
X139663762Y-66813571D01*
X139616143Y-66718333D01*
X139520905Y-66670714D01*
X139378047Y-66670714D01*
X139282809Y-66718333D01*
X139235190Y-66765952D01*
X140139952Y-67337381D02*
X140139952Y-66670714D01*
X140139952Y-66337381D02*
X140092333Y-66385000D01*
X140139952Y-66432619D01*
X140187571Y-66385000D01*
X140139952Y-66337381D01*
X140139952Y-66432619D01*
X140473285Y-66670714D02*
X140854237Y-66670714D01*
X140616142Y-67337381D02*
X140616142Y-66480238D01*
X140663761Y-66385000D01*
X140758999Y-66337381D01*
X140854237Y-66337381D01*
X141044714Y-66670714D02*
X141425666Y-66670714D01*
X141187571Y-66337381D02*
X141187571Y-67194524D01*
X141235190Y-67289762D01*
X141330428Y-67337381D01*
X141425666Y-67337381D01*
X142282810Y-67337381D02*
X141711381Y-67337381D01*
X141997095Y-67337381D02*
X141997095Y-66337381D01*
X141901857Y-66480238D01*
X141806619Y-66575476D01*
X141711381Y-66623095D01*
X171492762Y-140215810D02*
X171540381Y-140072953D01*
X171540381Y-139834857D01*
X171492762Y-139739619D01*
X171445143Y-139692000D01*
X171349905Y-139644381D01*
X171254667Y-139644381D01*
X171159429Y-139692000D01*
X171111810Y-139739619D01*
X171064190Y-139834857D01*
X171016571Y-140025334D01*
X170968952Y-140120572D01*
X170921333Y-140168191D01*
X170826095Y-140215810D01*
X170730857Y-140215810D01*
X170635619Y-140168191D01*
X170588000Y-140120572D01*
X170540381Y-140025334D01*
X170540381Y-139787238D01*
X170588000Y-139644381D01*
X171540381Y-139215810D02*
X170540381Y-139215810D01*
X171540381Y-138787238D02*
X171016571Y-138787238D01*
X170921333Y-138834857D01*
X170873714Y-138930095D01*
X170873714Y-139072953D01*
X170921333Y-139168191D01*
X170968952Y-139215810D01*
X171540381Y-138311048D02*
X170873714Y-138311048D01*
X170540381Y-138311048D02*
X170588000Y-138358667D01*
X170635619Y-138311048D01*
X170588000Y-138263429D01*
X170540381Y-138311048D01*
X170635619Y-138311048D01*
X170873714Y-137977715D02*
X170873714Y-137596763D01*
X171540381Y-137834858D02*
X170683238Y-137834858D01*
X170588000Y-137787239D01*
X170540381Y-137692001D01*
X170540381Y-137596763D01*
X170873714Y-137406286D02*
X170873714Y-137025334D01*
X170540381Y-137263429D02*
X171397524Y-137263429D01*
X171492762Y-137215810D01*
X171540381Y-137120572D01*
X171540381Y-137025334D01*
X170873714Y-136263428D02*
X171540381Y-136263428D01*
X170492762Y-136501524D02*
X171207048Y-136739619D01*
X171207048Y-136120571D01*
X152550762Y-140199810D02*
X152598381Y-140056953D01*
X152598381Y-139818857D01*
X152550762Y-139723619D01*
X152503143Y-139676000D01*
X152407905Y-139628381D01*
X152312667Y-139628381D01*
X152217429Y-139676000D01*
X152169810Y-139723619D01*
X152122190Y-139818857D01*
X152074571Y-140009334D01*
X152026952Y-140104572D01*
X151979333Y-140152191D01*
X151884095Y-140199810D01*
X151788857Y-140199810D01*
X151693619Y-140152191D01*
X151646000Y-140104572D01*
X151598381Y-140009334D01*
X151598381Y-139771238D01*
X151646000Y-139628381D01*
X152598381Y-139199810D02*
X151598381Y-139199810D01*
X152598381Y-138771238D02*
X152074571Y-138771238D01*
X151979333Y-138818857D01*
X151931714Y-138914095D01*
X151931714Y-139056953D01*
X151979333Y-139152191D01*
X152026952Y-139199810D01*
X152598381Y-138295048D02*
X151931714Y-138295048D01*
X151598381Y-138295048D02*
X151646000Y-138342667D01*
X151693619Y-138295048D01*
X151646000Y-138247429D01*
X151598381Y-138295048D01*
X151693619Y-138295048D01*
X151931714Y-137961715D02*
X151931714Y-137580763D01*
X152598381Y-137818858D02*
X151741238Y-137818858D01*
X151646000Y-137771239D01*
X151598381Y-137676001D01*
X151598381Y-137580763D01*
X151931714Y-137390286D02*
X151931714Y-137009334D01*
X151598381Y-137247429D02*
X152455524Y-137247429D01*
X152550762Y-137199810D01*
X152598381Y-137104572D01*
X152598381Y-137009334D01*
X151598381Y-136199809D02*
X151598381Y-136676000D01*
X152074571Y-136723619D01*
X152026952Y-136676000D01*
X151979333Y-136580762D01*
X151979333Y-136342666D01*
X152026952Y-136247428D01*
X152074571Y-136199809D01*
X152169810Y-136152190D01*
X152407905Y-136152190D01*
X152503143Y-136199809D01*
X152550762Y-136247428D01*
X152598381Y-136342666D01*
X152598381Y-136580762D01*
X152550762Y-136676000D01*
X152503143Y-136723619D01*
M02*
