M48
;DRILL file {KiCad 4.0.7} date 08/16/18 21:35:55
;FORMAT={-:-/ absolute / metric / decimal}
FMAT,2
METRIC,TZ
T1C0.350
T2C0.800
T3C0.900
T4C1.000
T5C1.100
T6C1.200
%
G90
G05
M71
T1
X147.278Y-72.325
X153.71Y-70.105
X153.722Y-62.117
X156.224Y-129.079
X157.763Y-129.073
X158.067Y-69.683
X159.109Y-136.557
X159.144Y-69.453
X159.429Y-70.519
X160.072Y-76.73
X160.734Y-69.583
X161.144Y-80.09
X162.138Y-79.25
X162.175Y-75.822
X162.225Y-124.379
X162.238Y-127.663
X162.827Y-77.901
X162.992Y-76.136
X163.635Y-124.189
X163.826Y-80.893
X163.842Y-118.575
X164.094Y-122.334
X164.772Y-118.4
X165.237Y-91.247
X165.237Y-93.16
X165.428Y-75.348
X166.05Y-122.072
X166.244Y-130.847
X166.304Y-119.432
X166.538Y-114.537
X166.874Y-90.986
X167.726Y-136.271
X168.496Y-77.797
X168.581Y-75.267
X168.711Y-80.967
X168.736Y-90.985
X168.753Y-137.603
X169.113Y-98.042
X169.16Y-82.766
X169.445Y-69.645
X169.508Y-121.057
X169.721Y-87.349
X169.951Y-127.256
X170.324Y-140.126
X170.59Y-121.924
X170.716Y-122.673
X171.476Y-66.903
X171.477Y-136.271
X171.7Y-77.214
X172.018Y-135.791
X172.269Y-129.886
X173.034Y-82.24
X173.542Y-77.391
X173.666Y-84.053
X173.715Y-78.451
X174.016Y-89.55
X175.249Y-97.313
X175.423Y-115.295
X175.627Y-120.206
X175.735Y-114.537
X176.063Y-126.604
X176.962Y-77.201
X178.53Y-69.755
X179.519Y-137.195
X180.054Y-90.86
X182.383Y-127.803
X197.232Y-76.045
X202.831Y-69.734
X203.635Y-69.805
X204.669Y-73.556
T2
X136.449Y-69.215
X136.449Y-71.755
X136.449Y-74.295
X136.449Y-76.835
X136.449Y-79.375
X136.449Y-81.915
X136.449Y-84.455
X136.449Y-86.995
X144.069Y-69.215
X144.069Y-71.755
X144.069Y-74.295
X144.069Y-76.835
X144.069Y-79.375
X144.069Y-81.915
X144.069Y-84.455
X144.069Y-86.995
X151.511Y-134.302
X151.511Y-141.922
X154.051Y-134.302
X154.051Y-141.922
X156.591Y-134.302
X156.591Y-141.922
X159.131Y-134.302
X159.131Y-141.922
X161.671Y-134.302
X161.671Y-141.922
X164.211Y-134.302
X164.211Y-141.922
X166.751Y-134.302
X166.751Y-141.922
X167.373Y-69.215
X167.373Y-71.755
X167.373Y-74.295
X167.373Y-76.835
X167.373Y-79.375
X167.373Y-81.915
X167.373Y-84.455
X167.373Y-86.995
X167.45Y-122.618
X167.45Y-125.158
X167.45Y-127.698
X167.45Y-130.238
X169.291Y-134.302
X169.291Y-141.922
X173.418Y-134.382
X173.418Y-142.002
X174.993Y-69.215
X174.993Y-71.755
X174.993Y-74.295
X174.993Y-76.835
X174.993Y-79.375
X174.993Y-81.915
X174.993Y-84.455
X174.993Y-86.995
X175.07Y-122.618
X175.07Y-125.158
X175.07Y-127.698
X175.07Y-130.238
X175.958Y-134.382
X175.958Y-142.002
X178.498Y-134.382
X178.498Y-142.002
X181.038Y-134.382
X181.038Y-142.002
X183.578Y-134.382
X183.578Y-142.002
X186.118Y-134.382
X186.118Y-142.002
X188.658Y-134.382
X188.658Y-142.002
X191.198Y-134.382
X191.198Y-142.002
X198.298Y-69.215
X198.298Y-71.755
X198.298Y-74.295
X198.298Y-76.835
X198.298Y-79.375
X198.298Y-81.915
X198.298Y-84.455
X198.298Y-86.995
X205.918Y-69.215
X205.918Y-71.755
X205.918Y-74.295
X205.918Y-76.835
X205.918Y-79.375
X205.918Y-81.915
X205.918Y-84.455
X205.918Y-86.995
T3
X130.683Y-57.917
X130.683Y-67.017
X130.683Y-76.117
X130.683Y-85.217
X133.223Y-57.917
X133.223Y-67.017
X133.223Y-76.117
X133.223Y-85.217
X140.483Y-57.917
X143.023Y-57.917
X147.256Y-73.85
X147.256Y-85.217
X149.796Y-73.85
X149.796Y-85.217
X150.283Y-57.917
X151.877Y-129.899
X151.877Y-146.558
X152.823Y-57.917
X154.417Y-129.899
X154.417Y-146.558
X154.496Y-73.85
X157.036Y-73.85
X160.083Y-57.917
X160.902Y-146.558
X161.734Y-73.838
X161.734Y-83.038
X161.734Y-92.238
X161.734Y-120.699
X161.734Y-129.921
X162.623Y-57.917
X163.442Y-146.558
X164.274Y-73.838
X164.274Y-83.038
X164.274Y-92.238
X164.274Y-120.699
X164.274Y-129.921
X169.883Y-57.917
X169.926Y-146.558
X172.423Y-57.917
X172.466Y-146.558
X178.156Y-73.838
X178.156Y-83.038
X178.156Y-92.238
X178.156Y-120.699
X178.156Y-129.899
X178.95Y-146.558
X179.683Y-57.917
X180.696Y-73.838
X180.696Y-83.038
X180.696Y-92.238
X180.696Y-120.699
X180.696Y-129.899
X181.49Y-146.558
X182.223Y-57.917
X185.369Y-73.838
X187.909Y-73.838
X188.15Y-146.558
X188.156Y-129.899
X189.483Y-57.917
X190.69Y-146.558
X190.696Y-129.899
X192.023Y-57.917
X192.557Y-73.838
X192.557Y-85.217
X195.097Y-73.838
X195.097Y-85.217
X199.283Y-57.917
X201.823Y-57.917
X209.083Y-57.917
X209.083Y-67.017
X209.083Y-76.117
X209.083Y-85.217
X211.623Y-57.917
X211.623Y-67.017
X211.623Y-76.117
X211.623Y-85.217
T4
X152.4Y-67.31
X154.94Y-67.31
X157.48Y-67.31
X160.02Y-67.31
X162.56Y-67.31
X168.656Y-93.345
X170.18Y-64.77
X171.196Y-93.345
X172.72Y-64.77
X173.736Y-93.345
T5
X183.388Y-63.246
X183.388Y-67.746
X189.888Y-63.246
X189.888Y-67.746
T6
X171.196Y-99.569
X171.196Y-119.069
T0
M30
