G04 #@! TF.FileFunction,Copper,L1,Top,Signal*
%FSLAX46Y46*%
G04 Gerber Fmt 4.6, Leading zero omitted, Abs format (unit mm)*
G04 Created by KiCad (PCBNEW 4.0.7) date 08/16/18 21:35:53*
%MOMM*%
%LPD*%
G01*
G04 APERTURE LIST*
%ADD10C,0.100000*%
%ADD11R,1.800000X1.800000*%
%ADD12C,1.800000*%
%ADD13R,1.700000X1.700000*%
%ADD14O,1.700000X1.700000*%
%ADD15R,1.600000X1.600000*%
%ADD16O,1.600000X1.600000*%
%ADD17C,2.000000*%
%ADD18C,2.500000*%
%ADD19C,0.500000*%
%ADD20C,0.200000*%
G04 APERTURE END LIST*
D10*
D11*
X130683000Y-85217000D03*
D12*
X133223000Y-85217000D03*
D11*
X130683000Y-76117000D03*
D12*
X133223000Y-76117000D03*
D11*
X130683000Y-67017000D03*
D12*
X133223000Y-67017000D03*
D11*
X130683000Y-57917000D03*
D12*
X133223000Y-57917000D03*
D11*
X150283000Y-57917000D03*
D12*
X152823000Y-57917000D03*
D11*
X160083000Y-57917000D03*
D12*
X162623000Y-57917000D03*
D11*
X169883000Y-57917000D03*
D12*
X172423000Y-57917000D03*
D11*
X179683000Y-57917000D03*
D12*
X182223000Y-57917000D03*
D11*
X189483000Y-57917000D03*
D12*
X192023000Y-57917000D03*
D11*
X199283000Y-57917000D03*
D12*
X201823000Y-57917000D03*
D11*
X209083000Y-57917000D03*
D12*
X211623000Y-57917000D03*
D11*
X209083000Y-76117000D03*
D12*
X211623000Y-76117000D03*
D11*
X209083000Y-85217000D03*
D12*
X211623000Y-85217000D03*
D11*
X192557000Y-85217000D03*
D12*
X195097000Y-85217000D03*
D11*
X192557000Y-73837800D03*
D12*
X195097000Y-73837800D03*
D11*
X185369000Y-73837800D03*
D12*
X187909000Y-73837800D03*
D11*
X178156000Y-73837800D03*
D12*
X180696000Y-73837800D03*
D11*
X178156000Y-83037800D03*
D12*
X180696000Y-83037800D03*
D11*
X178156000Y-120699000D03*
D12*
X180696000Y-120699000D03*
D11*
X178156000Y-129899000D03*
D12*
X180696000Y-129899000D03*
D11*
X188156000Y-129899000D03*
D12*
X190696000Y-129899000D03*
D11*
X188150000Y-146558000D03*
D12*
X190690000Y-146558000D03*
D11*
X178950000Y-146558000D03*
D12*
X181490000Y-146558000D03*
D11*
X169926000Y-146558000D03*
D12*
X172466000Y-146558000D03*
D11*
X160902000Y-146558000D03*
D12*
X163442000Y-146558000D03*
D11*
X151877000Y-129899000D03*
D12*
X154417000Y-129899000D03*
D11*
X161734000Y-129921000D03*
D12*
X164274000Y-129921000D03*
D11*
X161734000Y-120699000D03*
D12*
X164274000Y-120699000D03*
D13*
X168656000Y-93345000D03*
D14*
X171196000Y-93345000D03*
X173736000Y-93345000D03*
D15*
X167450000Y-122618000D03*
D16*
X175070000Y-130238000D03*
X167450000Y-125158000D03*
X175070000Y-127698000D03*
X167450000Y-127698000D03*
X175070000Y-125158000D03*
X167450000Y-130238000D03*
X175070000Y-122618000D03*
D11*
X140483000Y-57917000D03*
D12*
X143023000Y-57917000D03*
D11*
X209083000Y-67017000D03*
D12*
X211623000Y-67017000D03*
D11*
X178156000Y-92237800D03*
D12*
X180696000Y-92237800D03*
D11*
X151877000Y-146558000D03*
D12*
X154417000Y-146558000D03*
D11*
X161734000Y-92237800D03*
D12*
X164274000Y-92237800D03*
D11*
X161734000Y-83037800D03*
D12*
X164274000Y-83037800D03*
D11*
X161734000Y-73837800D03*
D12*
X164274000Y-73837800D03*
D11*
X154496000Y-73850500D03*
D12*
X157036000Y-73850500D03*
D11*
X147256000Y-73850500D03*
D12*
X149796000Y-73850500D03*
D11*
X147256000Y-85217000D03*
D12*
X149796000Y-85217000D03*
D17*
X183388000Y-67746000D03*
X183388000Y-63246000D03*
X189888000Y-67746000D03*
X189888000Y-63246000D03*
D18*
X171196000Y-99569000D03*
X171196000Y-119069000D03*
D10*
G36*
X153150000Y-63750000D02*
X152650000Y-64750000D01*
X152150000Y-64750000D01*
X151650000Y-63750000D01*
X153150000Y-63750000D01*
X153150000Y-63750000D01*
G37*
G36*
X155650000Y-63750000D02*
X155150000Y-64750000D01*
X154650000Y-64750000D01*
X154150000Y-63750000D01*
X155650000Y-63750000D01*
X155650000Y-63750000D01*
G37*
G36*
X158150000Y-63750000D02*
X157650000Y-64750000D01*
X157150000Y-64750000D01*
X156650000Y-63750000D01*
X158150000Y-63750000D01*
X158150000Y-63750000D01*
G37*
G36*
X160650000Y-63750000D02*
X160150000Y-64750000D01*
X159650000Y-64750000D01*
X159150000Y-63750000D01*
X160650000Y-63750000D01*
X160650000Y-63750000D01*
G37*
G36*
X163150000Y-63750000D02*
X162650000Y-64750000D01*
X162150000Y-64750000D01*
X161650000Y-63750000D01*
X163150000Y-63750000D01*
X163150000Y-63750000D01*
G37*
G36*
X161650000Y-63250000D02*
X162150000Y-62250000D01*
X162650000Y-62250000D01*
X163150000Y-63250000D01*
X161650000Y-63250000D01*
X161650000Y-63250000D01*
G37*
G36*
X159150000Y-63250000D02*
X159650000Y-62250000D01*
X160150000Y-62250000D01*
X160650000Y-63250000D01*
X159150000Y-63250000D01*
X159150000Y-63250000D01*
G37*
G36*
X156650000Y-63250000D02*
X157150000Y-62250000D01*
X157650000Y-62250000D01*
X158150000Y-63250000D01*
X156650000Y-63250000D01*
X156650000Y-63250000D01*
G37*
G36*
X154150000Y-63250000D02*
X154650000Y-62250000D01*
X155150000Y-62250000D01*
X155650000Y-63250000D01*
X154150000Y-63250000D01*
X154150000Y-63250000D01*
G37*
G36*
X151650000Y-63250000D02*
X152150000Y-62250000D01*
X152650000Y-62250000D01*
X153150000Y-63250000D01*
X151650000Y-63250000D01*
X151650000Y-63250000D01*
G37*
D13*
X152400000Y-67310000D03*
D14*
X154940000Y-67310000D03*
X157480000Y-67310000D03*
X160020000Y-67310000D03*
X162560000Y-67310000D03*
D13*
X170180000Y-64770000D03*
D14*
X172720000Y-64770000D03*
D15*
X198298000Y-69215000D03*
D16*
X205918000Y-86995000D03*
X198298000Y-71755000D03*
X205918000Y-84455000D03*
X198298000Y-74295000D03*
X205918000Y-81915000D03*
X198298000Y-76835000D03*
X205918000Y-79375000D03*
X198298000Y-79375000D03*
X205918000Y-76835000D03*
X198298000Y-81915000D03*
X205918000Y-74295000D03*
X198298000Y-84455000D03*
X205918000Y-71755000D03*
X198298000Y-86995000D03*
X205918000Y-69215000D03*
D15*
X167373000Y-69215000D03*
D16*
X174993000Y-86995000D03*
X167373000Y-71755000D03*
X174993000Y-84455000D03*
X167373000Y-74295000D03*
X174993000Y-81915000D03*
X167373000Y-76835000D03*
X174993000Y-79375000D03*
X167373000Y-79375000D03*
X174993000Y-76835000D03*
X167373000Y-81915000D03*
X174993000Y-74295000D03*
X167373000Y-84455000D03*
X174993000Y-71755000D03*
X167373000Y-86995000D03*
X174993000Y-69215000D03*
D15*
X136449000Y-69215000D03*
D16*
X144069000Y-86995000D03*
X136449000Y-71755000D03*
X144069000Y-84455000D03*
X136449000Y-74295000D03*
X144069000Y-81915000D03*
X136449000Y-76835000D03*
X144069000Y-79375000D03*
X136449000Y-79375000D03*
X144069000Y-76835000D03*
X136449000Y-81915000D03*
X144069000Y-74295000D03*
X136449000Y-84455000D03*
X144069000Y-71755000D03*
X136449000Y-86995000D03*
X144069000Y-69215000D03*
D15*
X173418000Y-142002000D03*
D16*
X191198000Y-134382000D03*
X175958000Y-142002000D03*
X188658000Y-134382000D03*
X178498000Y-142002000D03*
X186118000Y-134382000D03*
X181038000Y-142002000D03*
X183578000Y-134382000D03*
X183578000Y-142002000D03*
X181038000Y-134382000D03*
X186118000Y-142002000D03*
X178498000Y-134382000D03*
X188658000Y-142002000D03*
X175958000Y-134382000D03*
X191198000Y-142002000D03*
X173418000Y-134382000D03*
D15*
X151511000Y-141922000D03*
D16*
X169291000Y-134302000D03*
X154051000Y-141922000D03*
X166751000Y-134302000D03*
X156591000Y-141922000D03*
X164211000Y-134302000D03*
X159131000Y-141922000D03*
X161671000Y-134302000D03*
X161671000Y-141922000D03*
X159131000Y-134302000D03*
X164211000Y-141922000D03*
X156591000Y-134302000D03*
X166751000Y-141922000D03*
X154051000Y-134302000D03*
X169291000Y-141922000D03*
X151511000Y-134302000D03*
D19*
X173666400Y-84053000D03*
X176062600Y-126603700D03*
X175735200Y-114536700D03*
X168753300Y-137603200D03*
X159143800Y-69453300D03*
X203634700Y-69804800D03*
X172018200Y-135790700D03*
X175423100Y-115294800D03*
X204668700Y-73555900D03*
X178530100Y-69755100D03*
X176962200Y-77200600D03*
X160072000Y-76730500D03*
X179519200Y-137194900D03*
X165427700Y-75348300D03*
X147277700Y-72325100D03*
X170716100Y-122673200D03*
X153721600Y-62116900D03*
X197232100Y-76045100D03*
X157762900Y-129072600D03*
X162237800Y-127662900D03*
X162225500Y-124378700D03*
X163842400Y-118574600D03*
X156223800Y-129079400D03*
X166244100Y-130847500D03*
X163634500Y-124189500D03*
X166049800Y-122071900D03*
X166304000Y-119431900D03*
X164771900Y-118399600D03*
X165237400Y-93160000D03*
X165237400Y-91247000D03*
X166538400Y-114536700D03*
X159109300Y-136556900D03*
X170324300Y-140126000D03*
X164094200Y-122334000D03*
X170589900Y-121923700D03*
X168735900Y-90985000D03*
X174015600Y-89549700D03*
X171476000Y-66903500D03*
X169445100Y-69645100D03*
X171700100Y-77214300D03*
X168496200Y-77797300D03*
X173034300Y-82240100D03*
X168711100Y-80967000D03*
X162175400Y-75821600D03*
X160734100Y-69582600D03*
X161143800Y-80089700D03*
X182383300Y-127803200D03*
X167726100Y-136270600D03*
X171476600Y-136270600D03*
X175249500Y-97313200D03*
X168581400Y-75266700D03*
X202831400Y-69734100D03*
X158066700Y-69682900D03*
X159428600Y-70519500D03*
X162826700Y-77900900D03*
X162138200Y-79250300D03*
X169113500Y-98041800D03*
X169508400Y-121057500D03*
X153710500Y-70105300D03*
X162991600Y-76136000D03*
X163825500Y-80892600D03*
X169159700Y-82766200D03*
X169721300Y-87349100D03*
X166874100Y-90985900D03*
X169950900Y-127256400D03*
X173542400Y-77390700D03*
X173715300Y-78451400D03*
X180054300Y-90859900D03*
X175627400Y-120206100D03*
X172268900Y-129886300D03*
D20*
X133223000Y-83557600D02*
X133223000Y-85217000D01*
X136135600Y-80645000D02*
X133223000Y-83557600D01*
X136732100Y-80645000D02*
X136135600Y-80645000D01*
X142988700Y-74388400D02*
X136732100Y-80645000D01*
X142988700Y-73780400D02*
X142988700Y-74388400D01*
X143933800Y-72835300D02*
X142988700Y-73780400D01*
X144069000Y-72835300D02*
X143933800Y-72835300D01*
X144069000Y-71755000D02*
X144069000Y-72835300D01*
X135368700Y-60062700D02*
X133223000Y-57917000D01*
X135368700Y-72269600D02*
X135368700Y-60062700D01*
X136313800Y-73214700D02*
X135368700Y-72269600D01*
X136449000Y-73214700D02*
X136313800Y-73214700D01*
X136449000Y-74295000D02*
X136449000Y-73214700D01*
X136560900Y-75754700D02*
X136449000Y-75754700D01*
X137529300Y-74786300D02*
X136560900Y-75754700D01*
X137529300Y-63410700D02*
X137529300Y-74786300D01*
X143023000Y-57917000D02*
X137529300Y-63410700D01*
X136449000Y-76835000D02*
X136449000Y-75754700D01*
X136560900Y-78294700D02*
X136449000Y-78294700D01*
X138105700Y-76749900D02*
X136560900Y-78294700D01*
X138105700Y-67867300D02*
X138105700Y-76749900D01*
X149236400Y-56736600D02*
X138105700Y-67867300D01*
X151642600Y-56736600D02*
X149236400Y-56736600D01*
X152823000Y-57917000D02*
X151642600Y-56736600D01*
X136449000Y-79375000D02*
X136449000Y-78294700D01*
X192023000Y-61859700D02*
X192023000Y-57917000D01*
X198298000Y-68134700D02*
X192023000Y-61859700D01*
X198298000Y-69215000D02*
X198298000Y-68134700D01*
X201823000Y-67689800D02*
X201823000Y-57917000D01*
X198838100Y-70674700D02*
X201823000Y-67689800D01*
X198298000Y-70674700D02*
X198838100Y-70674700D01*
X198298000Y-71755000D02*
X198298000Y-70674700D01*
X211623000Y-60024700D02*
X211623000Y-57917000D01*
X198433000Y-73214700D02*
X211623000Y-60024700D01*
X198298000Y-73214700D02*
X198433000Y-73214700D01*
X198298000Y-74295000D02*
X198298000Y-73214700D01*
X167373000Y-74295000D02*
X168453300Y-74295000D01*
X175579300Y-77921100D02*
X180696000Y-83037800D01*
X171657000Y-77921100D02*
X175579300Y-77921100D01*
X171169800Y-77433900D02*
X171657000Y-77921100D01*
X171169800Y-77011500D02*
X171169800Y-77433900D01*
X168453300Y-74295000D02*
X171169800Y-77011500D01*
X167373000Y-76835000D02*
X167373000Y-77915300D01*
X167783100Y-77915300D02*
X167373000Y-77915300D01*
X173666400Y-83798600D02*
X167783100Y-77915300D01*
X173666400Y-84053000D02*
X173666400Y-83798600D01*
X167373000Y-79375000D02*
X168453300Y-79375000D01*
X168579100Y-79375000D02*
X168453300Y-79375000D01*
X171652600Y-82448500D02*
X168579100Y-79375000D01*
X171652600Y-82789300D02*
X171652600Y-82448500D01*
X174588300Y-85725000D02*
X171652600Y-82789300D01*
X175257800Y-85725000D02*
X174588300Y-85725000D01*
X179336400Y-89803600D02*
X175257800Y-85725000D01*
X179336400Y-119339400D02*
X179336400Y-89803600D01*
X180696000Y-120699000D02*
X179336400Y-119339400D01*
X167373000Y-81915000D02*
X167373000Y-82995300D01*
X167874500Y-82995300D02*
X167373000Y-82995300D01*
X168462500Y-82407300D02*
X167874500Y-82995300D01*
X168462500Y-81468200D02*
X168462500Y-82407300D01*
X168180800Y-81186500D02*
X168462500Y-81468200D01*
X168180800Y-80700900D02*
X168180800Y-81186500D01*
X168447100Y-80434600D02*
X168180800Y-80700900D01*
X168990500Y-80434600D02*
X168447100Y-80434600D01*
X171272300Y-82716400D02*
X168990500Y-80434600D01*
X171272300Y-82946800D02*
X171272300Y-82716400D01*
X173598000Y-85272500D02*
X171272300Y-82946800D01*
X173598000Y-87540100D02*
X173598000Y-85272500D01*
X176326200Y-90268300D02*
X173598000Y-87540100D01*
X176326200Y-126340100D02*
X176326200Y-90268300D01*
X176062600Y-126603700D02*
X176326200Y-126340100D01*
X167373000Y-84455000D02*
X167373000Y-85535300D01*
X175779800Y-114492100D02*
X175735200Y-114536700D01*
X175779800Y-93718300D02*
X175779800Y-114492100D01*
X169940900Y-87879400D02*
X175779800Y-93718300D01*
X169501700Y-87879400D02*
X169940900Y-87879400D01*
X169191000Y-87568700D02*
X169501700Y-87879400D01*
X169191000Y-87241400D02*
X169191000Y-87568700D01*
X167484900Y-85535300D02*
X169191000Y-87241400D01*
X167373000Y-85535300D02*
X167484900Y-85535300D01*
X189509600Y-147738400D02*
X190690000Y-146558000D01*
X187123000Y-147738400D02*
X189509600Y-147738400D01*
X182345700Y-142961100D02*
X187123000Y-147738400D01*
X182345700Y-141715000D02*
X182345700Y-142961100D01*
X176093000Y-135462300D02*
X182345700Y-141715000D01*
X175958000Y-135462300D02*
X176093000Y-135462300D01*
X175958000Y-134382000D02*
X175958000Y-135462300D01*
X177273200Y-142341200D02*
X181490000Y-146558000D01*
X177273200Y-141766300D02*
X177273200Y-142341200D01*
X176427700Y-140920800D02*
X177273200Y-141766300D01*
X175444500Y-140920800D02*
X176427700Y-140920800D01*
X174498300Y-141867000D02*
X175444500Y-140920800D01*
X174498300Y-142002000D02*
X174498300Y-141867000D01*
X173418000Y-142002000D02*
X174498300Y-142002000D01*
X175941700Y-143082300D02*
X172466000Y-146558000D01*
X175958000Y-143082300D02*
X175941700Y-143082300D01*
X175958000Y-142002000D02*
X175958000Y-143082300D01*
X168753300Y-136547800D02*
X168753300Y-137603200D01*
X168021000Y-135815500D02*
X168753300Y-136547800D01*
X168021000Y-133668000D02*
X168021000Y-135815500D01*
X164274000Y-129921000D02*
X168021000Y-133668000D01*
X155829600Y-72767500D02*
X159143800Y-69453300D01*
X155829600Y-74732800D02*
X155829600Y-72767500D01*
X154546800Y-76015600D02*
X155829600Y-74732800D01*
X152934100Y-76015600D02*
X154546800Y-76015600D01*
X145149300Y-83800400D02*
X152934100Y-76015600D01*
X145149300Y-84969600D02*
X145149300Y-83800400D01*
X144204200Y-85914700D02*
X145149300Y-84969600D01*
X144069000Y-85914700D02*
X144204200Y-85914700D01*
X205833100Y-73214700D02*
X205918000Y-73214700D01*
X203634700Y-71016300D02*
X205833100Y-73214700D01*
X203634700Y-69804800D02*
X203634700Y-71016300D01*
X205918000Y-74295000D02*
X205918000Y-73214700D01*
X144069000Y-86995000D02*
X144069000Y-85914700D01*
X144069000Y-81915000D02*
X144069000Y-80834700D01*
X154940000Y-64290000D02*
X154900000Y-64250000D01*
X154940000Y-67310000D02*
X154940000Y-64290000D01*
X154940000Y-67310000D02*
X154940000Y-68440300D01*
X171738600Y-135511100D02*
X172018200Y-135790700D01*
X171738600Y-123291400D02*
X171738600Y-135511100D01*
X175423100Y-119606900D02*
X171738600Y-123291400D01*
X175423100Y-115294800D02*
X175423100Y-119606900D01*
X144485000Y-80834700D02*
X144069000Y-80834700D01*
X154940000Y-70379700D02*
X144485000Y-80834700D01*
X154940000Y-68440300D02*
X154940000Y-70379700D01*
X159900000Y-66059700D02*
X159900000Y-64250000D01*
X160020000Y-66179700D02*
X159900000Y-66059700D01*
X160020000Y-67310000D02*
X160020000Y-66179700D01*
X204668700Y-77180400D02*
X204668700Y-73555900D01*
X205783000Y-78294700D02*
X204668700Y-77180400D01*
X205918000Y-78294700D02*
X205783000Y-78294700D01*
X176962200Y-71323000D02*
X176962200Y-77200600D01*
X178530100Y-69755100D02*
X176962200Y-71323000D01*
X205918000Y-79375000D02*
X205918000Y-78294700D01*
X161671000Y-134302000D02*
X161671000Y-133221700D01*
X160020000Y-67310000D02*
X160020000Y-68440300D01*
X160281400Y-131832100D02*
X161671000Y-133221700D01*
X160281400Y-76939900D02*
X160281400Y-131832100D01*
X160072000Y-76730500D02*
X160281400Y-76939900D01*
X160072000Y-68492300D02*
X160020000Y-68440300D01*
X160072000Y-76730500D02*
X160072000Y-68492300D01*
X162400000Y-66019700D02*
X162400000Y-64250000D01*
X162560000Y-66179700D02*
X162400000Y-66019700D01*
X162560000Y-67310000D02*
X162560000Y-66179700D01*
X162560000Y-67310000D02*
X162560000Y-68440300D01*
X165487900Y-71368200D02*
X162560000Y-68440300D01*
X165487900Y-75288100D02*
X165487900Y-71368200D01*
X165427700Y-75348300D02*
X165487900Y-75288100D01*
X181038000Y-135676100D02*
X181038000Y-134382000D01*
X179519200Y-137194900D02*
X181038000Y-135676100D01*
X181038000Y-134382000D02*
X181038000Y-133301700D01*
X181934000Y-132405700D02*
X181038000Y-133301700D01*
X181934000Y-128103700D02*
X181934000Y-132405700D01*
X181853000Y-128022700D02*
X181934000Y-128103700D01*
X181853000Y-127583600D02*
X181853000Y-128022700D01*
X181927900Y-127508700D02*
X181853000Y-127583600D01*
X181927900Y-82538200D02*
X181927900Y-127508700D01*
X177120600Y-77730900D02*
X181927900Y-82538200D01*
X176742600Y-77730900D02*
X177120600Y-77730900D01*
X176073300Y-77061600D02*
X176742600Y-77730900D01*
X176073300Y-76835000D02*
X176073300Y-77061600D01*
X174993000Y-76835000D02*
X176073300Y-76835000D01*
X146497400Y-72325100D02*
X147277700Y-72325100D01*
X145149300Y-73673200D02*
X146497400Y-72325100D01*
X145149300Y-74809600D02*
X145149300Y-73673200D01*
X144204200Y-75754700D02*
X145149300Y-74809600D01*
X144069000Y-75754700D02*
X144204200Y-75754700D01*
X144069000Y-76835000D02*
X144069000Y-75754700D01*
X174958100Y-123698300D02*
X175070000Y-123698300D01*
X173418000Y-125238400D02*
X174958100Y-123698300D01*
X173418000Y-134382000D02*
X173418000Y-125238400D01*
X175070000Y-122618000D02*
X175070000Y-123698300D01*
X168656000Y-93345000D02*
X168656000Y-92214700D01*
X168656000Y-93345000D02*
X168656000Y-94475300D01*
X170092800Y-69215000D02*
X174993000Y-69215000D01*
X167148700Y-66270900D02*
X170092800Y-69215000D01*
X166551900Y-66270900D02*
X167148700Y-66270900D01*
X158227700Y-61922300D02*
X157400000Y-62750000D01*
X162756500Y-61922300D02*
X158227700Y-61922300D01*
X166551900Y-65717700D02*
X162756500Y-61922300D01*
X166551900Y-66270900D02*
X166551900Y-65717700D01*
X156619600Y-61969600D02*
X157400000Y-62750000D01*
X153868900Y-61969600D02*
X156619600Y-61969600D01*
X153721600Y-62116900D02*
X153868900Y-61969600D01*
X166292600Y-66530200D02*
X166551900Y-66270900D01*
X166292600Y-89654500D02*
X166292600Y-66530200D01*
X168656000Y-92017900D02*
X166292600Y-89654500D01*
X168656000Y-92214700D02*
X168656000Y-92017900D01*
X170374200Y-122673200D02*
X170716100Y-122673200D01*
X168583200Y-120882200D02*
X170374200Y-122673200D01*
X168583200Y-94548100D02*
X168583200Y-120882200D01*
X168656000Y-94475300D02*
X168583200Y-94548100D01*
X197589600Y-75687600D02*
X197232100Y-76045100D01*
X198678800Y-75687600D02*
X197589600Y-75687600D01*
X204837700Y-81846500D02*
X198678800Y-75687600D01*
X204837700Y-84969600D02*
X204837700Y-81846500D01*
X205782800Y-85914700D02*
X204837700Y-84969600D01*
X205918000Y-85914700D02*
X205782800Y-85914700D01*
X205918000Y-86995000D02*
X205918000Y-85914700D01*
X176706600Y-131510300D02*
X178498000Y-133301700D01*
X176706600Y-89788900D02*
X176706600Y-131510300D01*
X174993000Y-88075300D02*
X176706600Y-89788900D01*
X174993000Y-86995000D02*
X174993000Y-88075300D01*
X178498000Y-134382000D02*
X178498000Y-133301700D01*
X154051000Y-132784500D02*
X157762900Y-129072600D01*
X154051000Y-134302000D02*
X154051000Y-132784500D01*
X162237800Y-124391000D02*
X162225500Y-124378700D01*
X162237800Y-127662900D02*
X162237800Y-124391000D01*
X163842400Y-92669400D02*
X164274000Y-92237800D01*
X163842400Y-118574600D02*
X163842400Y-92669400D01*
X155862800Y-128718400D02*
X156223800Y-129079400D01*
X150860500Y-128718400D02*
X155862800Y-128718400D01*
X150378300Y-129200600D02*
X150860500Y-128718400D01*
X150378300Y-139709000D02*
X150378300Y-129200600D01*
X151511000Y-140841700D02*
X150378300Y-139709000D01*
X166244100Y-126799100D02*
X163634500Y-124189500D01*
X166244100Y-130847500D02*
X166244100Y-126799100D01*
X166049800Y-119686100D02*
X166304000Y-119431900D01*
X166049800Y-122071900D02*
X166049800Y-119686100D01*
X164771900Y-93625500D02*
X165237400Y-93160000D01*
X164771900Y-118399600D02*
X164771900Y-93625500D01*
X164274000Y-90283600D02*
X164274000Y-83037800D01*
X165237400Y-91247000D02*
X164274000Y-90283600D01*
X151511000Y-141922000D02*
X151511000Y-140841700D01*
X164274000Y-75244800D02*
X164274000Y-73837800D01*
X165868100Y-76838900D02*
X164274000Y-75244800D01*
X165868100Y-90589900D02*
X165868100Y-76838900D01*
X166148000Y-90869800D02*
X165868100Y-90589900D01*
X166148000Y-114146300D02*
X166148000Y-90869800D01*
X166538400Y-114536700D02*
X166148000Y-114146300D01*
X156591000Y-141922000D02*
X156591000Y-140841700D01*
X157671300Y-139761400D02*
X156591000Y-140841700D01*
X157671300Y-130317100D02*
X157671300Y-139761400D01*
X159845300Y-128143100D02*
X157671300Y-130317100D01*
X159845300Y-77253700D02*
X159845300Y-128143100D01*
X157036000Y-74444400D02*
X159845300Y-77253700D01*
X157036000Y-73850500D02*
X157036000Y-74444400D01*
X159109300Y-140820000D02*
X159109300Y-136556900D01*
X159131000Y-140841700D02*
X159109300Y-140820000D01*
X164094200Y-123364100D02*
X164094200Y-122334000D01*
X167292600Y-126562500D02*
X164094200Y-123364100D01*
X167842400Y-126562500D02*
X167292600Y-126562500D01*
X170814000Y-129534100D02*
X167842400Y-126562500D01*
X170814000Y-139636300D02*
X170814000Y-129534100D01*
X170324300Y-140126000D02*
X170814000Y-139636300D01*
X170486700Y-90985000D02*
X168735900Y-90985000D01*
X172605600Y-93103900D02*
X170486700Y-90985000D01*
X172605600Y-96504100D02*
X172605600Y-93103900D01*
X172731000Y-96629500D02*
X172605600Y-96504100D01*
X172731000Y-119782600D02*
X172731000Y-96629500D01*
X170589900Y-121923700D02*
X172731000Y-119782600D01*
X171700100Y-71900100D02*
X171700100Y-77214300D01*
X169445100Y-69645100D02*
X171700100Y-71900100D01*
X172939000Y-82240100D02*
X173034300Y-82240100D01*
X168496200Y-77797300D02*
X172939000Y-82240100D01*
X159131000Y-141922000D02*
X159131000Y-140841700D01*
X173092300Y-88626400D02*
X174015600Y-89549700D01*
X173092300Y-85348200D02*
X173092300Y-88626400D01*
X168711100Y-80967000D02*
X173092300Y-85348200D01*
X171476000Y-61087600D02*
X171476000Y-66903500D01*
X171198300Y-60809900D02*
X171476000Y-61087600D01*
X171198300Y-57020600D02*
X171198300Y-60809900D01*
X170466300Y-56288600D02*
X171198300Y-57020600D01*
X157712800Y-56288600D02*
X170466300Y-56288600D01*
X151269600Y-62731800D02*
X157712800Y-56288600D01*
X151269600Y-72376900D02*
X151269600Y-62731800D01*
X149796000Y-73850500D02*
X151269600Y-72376900D01*
X162175400Y-76202200D02*
X162175400Y-75821600D01*
X163357100Y-77383900D02*
X162175400Y-76202200D01*
X163357100Y-78120600D02*
X163357100Y-77383900D01*
X163056900Y-78420800D02*
X163357100Y-78120600D01*
X163056900Y-139455800D02*
X163056900Y-78420800D01*
X161671000Y-140841700D02*
X163056900Y-139455800D01*
X161671000Y-141922000D02*
X161671000Y-140841700D01*
X171196000Y-93910100D02*
X171196000Y-94475300D01*
X171196000Y-93910100D02*
X171196000Y-93345000D01*
X161143800Y-75443900D02*
X161143800Y-80089700D01*
X160553400Y-74853500D02*
X161143800Y-75443900D01*
X160553400Y-69763300D02*
X160553400Y-74853500D01*
X160734100Y-69582600D02*
X160553400Y-69763300D01*
X169643800Y-96027500D02*
X171196000Y-94475300D01*
X169643800Y-117516800D02*
X169643800Y-96027500D01*
X171196000Y-119069000D02*
X169643800Y-117516800D01*
X182383300Y-77523800D02*
X182383300Y-127803200D01*
X183269300Y-76637800D02*
X182383300Y-77523800D01*
X184765300Y-76637800D02*
X183269300Y-76637800D01*
X186549400Y-74853700D02*
X184765300Y-76637800D01*
X186549400Y-71084600D02*
X186549400Y-74853700D01*
X189888000Y-67746000D02*
X186549400Y-71084600D01*
X169926000Y-146558000D02*
X169926000Y-145377700D01*
X188902600Y-145377700D02*
X188150000Y-145377700D01*
X191198000Y-143082300D02*
X188902600Y-145377700D01*
X191198000Y-142002000D02*
X191198000Y-143082300D01*
X169883000Y-63342700D02*
X169883000Y-57917000D01*
X170180000Y-63639700D02*
X169883000Y-63342700D01*
X170180000Y-64770000D02*
X170180000Y-63639700D01*
X189888000Y-59502300D02*
X189483000Y-59097300D01*
X189888000Y-63246000D02*
X189888000Y-59502300D01*
X189483000Y-57917000D02*
X189483000Y-59097300D01*
X209083000Y-67017000D02*
X209083000Y-76117000D01*
X152611500Y-131813800D02*
X151877000Y-131079300D01*
X152611500Y-144643200D02*
X152611500Y-131813800D01*
X151877000Y-145377700D02*
X152611500Y-144643200D01*
X151877000Y-146558000D02*
X151877000Y-145377700D01*
X151877000Y-129899000D02*
X151877000Y-131079300D01*
X169291000Y-144742700D02*
X169291000Y-141922000D01*
X169926000Y-145377700D02*
X169291000Y-144742700D01*
X169291000Y-141922000D02*
X169291000Y-140841700D01*
X167450000Y-130238000D02*
X167450000Y-131318300D01*
X188150000Y-146558000D02*
X188150000Y-145967800D01*
X188150000Y-145967800D02*
X188150000Y-145377700D01*
X187564700Y-131670600D02*
X188156000Y-131079300D01*
X187564700Y-144792400D02*
X187564700Y-131670600D01*
X188150000Y-145377700D02*
X187564700Y-144792400D01*
X188156000Y-129899000D02*
X188156000Y-131079300D01*
X178156000Y-129899000D02*
X178156000Y-120699000D01*
X178156000Y-120699000D02*
X178156000Y-92237800D01*
X150283000Y-57917000D02*
X150283000Y-59097300D01*
X178156000Y-73837800D02*
X179336300Y-73837800D01*
X185369000Y-73837800D02*
X184188700Y-73837800D01*
X180147800Y-72657500D02*
X182076100Y-72657500D01*
X179336300Y-73469000D02*
X180147800Y-72657500D01*
X179336300Y-73837800D02*
X179336300Y-73469000D01*
X183008400Y-72657500D02*
X184188700Y-73837800D01*
X182076100Y-72657500D02*
X183008400Y-72657500D01*
X209083000Y-85217000D02*
X209083000Y-76117000D01*
X192557000Y-85217000D02*
X192557000Y-73837800D01*
X182076100Y-64557900D02*
X183388000Y-63246000D01*
X182076100Y-72657500D02*
X182076100Y-64557900D01*
X179683000Y-59541000D02*
X179683000Y-57917000D01*
X183388000Y-63246000D02*
X179683000Y-59541000D01*
X130683000Y-57917000D02*
X130683000Y-67017000D01*
X130683000Y-67017000D02*
X130683000Y-76117000D01*
X130683000Y-76117000D02*
X130683000Y-85217000D01*
X161734000Y-120699000D02*
X161734000Y-121879300D01*
X161734000Y-129921000D02*
X161734000Y-128740700D01*
X161734000Y-73837800D02*
X161734000Y-75018100D01*
X161734000Y-83037800D02*
X161734000Y-81857500D01*
X150283000Y-70823500D02*
X147256000Y-73850500D01*
X150283000Y-59097300D02*
X150283000Y-70823500D01*
X169291000Y-140409400D02*
X169291000Y-140841700D01*
X170433600Y-139266800D02*
X169291000Y-140409400D01*
X170433600Y-133854200D02*
X170433600Y-139266800D01*
X167897700Y-131318300D02*
X170433600Y-133854200D01*
X167450000Y-131318300D02*
X167897700Y-131318300D01*
X161695200Y-128701900D02*
X161734000Y-128740700D01*
X161695200Y-121918100D02*
X161695200Y-128701900D01*
X161734000Y-121879300D02*
X161695200Y-121918100D01*
X161734000Y-79596000D02*
X161734000Y-81857500D01*
X161607900Y-79469900D02*
X161734000Y-79596000D01*
X161607900Y-75144200D02*
X161607900Y-79469900D01*
X161734000Y-75018100D02*
X161607900Y-75144200D01*
X152400000Y-67310000D02*
X152400000Y-64250000D01*
X157400000Y-66099700D02*
X157400000Y-64250000D01*
X157480000Y-66179700D02*
X157400000Y-66099700D01*
X157480000Y-67310000D02*
X157480000Y-66179700D01*
X166837800Y-135382300D02*
X167726100Y-136270600D01*
X166751000Y-135382300D02*
X166837800Y-135382300D01*
X166751000Y-134302000D02*
X166751000Y-135382300D01*
X174993000Y-84455000D02*
X174993000Y-83374700D01*
X206029900Y-83374700D02*
X205918000Y-83374700D01*
X207035900Y-82368700D02*
X206029900Y-83374700D01*
X207035900Y-81485800D02*
X207035900Y-82368700D01*
X206010700Y-80460600D02*
X207035900Y-81485800D01*
X205474200Y-80460600D02*
X206010700Y-80460600D01*
X202831400Y-77817800D02*
X205474200Y-80460600D01*
X202831400Y-69734100D02*
X202831400Y-77817800D01*
X205918000Y-84455000D02*
X205918000Y-83374700D01*
X171358300Y-136152300D02*
X171476600Y-136270600D01*
X171358300Y-122905700D02*
X171358300Y-136152300D01*
X174866400Y-119397600D02*
X171358300Y-122905700D01*
X174866400Y-97696300D02*
X174866400Y-119397600D01*
X175249500Y-97313200D02*
X174866400Y-97696300D01*
X168581400Y-77037300D02*
X168581400Y-75266700D01*
X174918800Y-83374700D02*
X168581400Y-77037300D01*
X174993000Y-83374700D02*
X174918800Y-83374700D01*
X156994400Y-69096200D02*
X157480000Y-69096200D01*
X145149300Y-80941300D02*
X156994400Y-69096200D01*
X145149300Y-82429600D02*
X145149300Y-80941300D01*
X144204200Y-83374700D02*
X145149300Y-82429600D01*
X144069000Y-83374700D02*
X144204200Y-83374700D01*
X158066700Y-69682900D02*
X157480000Y-69096200D01*
X157480000Y-69096200D02*
X157480000Y-67310000D01*
X144069000Y-84455000D02*
X144069000Y-83374700D01*
X167450000Y-125158000D02*
X167450000Y-124077700D01*
X162232300Y-62750000D02*
X162400000Y-62750000D01*
X161336700Y-63645600D02*
X162232300Y-62750000D01*
X161336700Y-69386000D02*
X161336700Y-63645600D01*
X162914400Y-70963700D02*
X161336700Y-69386000D01*
X162914400Y-75308900D02*
X162914400Y-70963700D01*
X165487700Y-77882200D02*
X162914400Y-75308900D01*
X165487700Y-90747300D02*
X165487700Y-77882200D01*
X165767700Y-91027300D02*
X165487700Y-90747300D01*
X165767700Y-93379700D02*
X165767700Y-91027300D01*
X165487700Y-93659700D02*
X165767700Y-93379700D01*
X165487700Y-122721200D02*
X165487700Y-93659700D01*
X166844200Y-124077700D02*
X165487700Y-122721200D01*
X167450000Y-124077700D02*
X166844200Y-124077700D01*
X162138200Y-78589400D02*
X162826700Y-77900900D01*
X162138200Y-79250300D02*
X162138200Y-78589400D01*
X169113500Y-120662600D02*
X169113500Y-98041800D01*
X169508400Y-121057500D02*
X169113500Y-120662600D01*
X159753600Y-62750000D02*
X159900000Y-62750000D01*
X158856800Y-63646800D02*
X159753600Y-62750000D01*
X158856800Y-67929600D02*
X158856800Y-63646800D01*
X159674100Y-68746900D02*
X158856800Y-67929600D01*
X159674100Y-70274000D02*
X159674100Y-68746900D01*
X159428600Y-70519500D02*
X159674100Y-70274000D01*
X153710500Y-63793100D02*
X153710500Y-70105300D01*
X154753600Y-62750000D02*
X153710500Y-63793100D01*
X154900000Y-62750000D02*
X154753600Y-62750000D01*
X163825500Y-76969900D02*
X163825500Y-80892600D01*
X162991600Y-76136000D02*
X163825500Y-76969900D01*
X169721300Y-83327800D02*
X169721300Y-87349100D01*
X169159700Y-82766200D02*
X169721300Y-83327800D01*
X169950900Y-122787600D02*
X169950900Y-127256400D01*
X167120200Y-119956900D02*
X169950900Y-122787600D01*
X167120200Y-91232000D02*
X167120200Y-119956900D01*
X166874100Y-90985900D02*
X167120200Y-91232000D01*
X180054300Y-89026200D02*
X180054300Y-90859900D01*
X176517200Y-85489100D02*
X180054300Y-89026200D01*
X176517200Y-81890900D02*
X176517200Y-85489100D01*
X175271300Y-80645000D02*
X176517200Y-81890900D01*
X174662800Y-80645000D02*
X175271300Y-80645000D01*
X173715300Y-79697500D02*
X174662800Y-80645000D01*
X173715300Y-78451400D02*
X173715300Y-79697500D01*
X172268900Y-123564600D02*
X172268900Y-129886300D01*
X175627400Y-120206100D02*
X172268900Y-123564600D01*
X152400000Y-62688600D02*
X152400000Y-62750000D01*
X158352000Y-56736600D02*
X152400000Y-62688600D01*
X161110800Y-56736600D02*
X158352000Y-56736600D01*
X161263400Y-56889200D02*
X161110800Y-56736600D01*
X161263400Y-58245500D02*
X161263400Y-56889200D01*
X170451700Y-67433800D02*
X161263400Y-58245500D01*
X174808300Y-67433800D02*
X170451700Y-67433800D01*
X176073300Y-68698800D02*
X174808300Y-67433800D01*
X176073300Y-74798900D02*
X176073300Y-68698800D01*
X175307200Y-75565000D02*
X176073300Y-74798900D01*
X174697100Y-75565000D02*
X175307200Y-75565000D01*
X173542400Y-76719700D02*
X174697100Y-75565000D01*
X173542400Y-77390700D02*
X173542400Y-76719700D01*
G36*
X168091000Y-143398612D02*
X168091000Y-144742700D01*
X168142650Y-145002360D01*
X167992812Y-145221654D01*
X167904450Y-145658000D01*
X167904450Y-147458000D01*
X167981152Y-147865636D01*
X168222064Y-148240024D01*
X168589654Y-148491188D01*
X169026000Y-148579550D01*
X170826000Y-148579550D01*
X171233636Y-148502848D01*
X171508499Y-148325979D01*
X172066430Y-148557652D01*
X172862079Y-148558346D01*
X173597429Y-148254506D01*
X174160529Y-147692388D01*
X174465652Y-146957570D01*
X174466265Y-146254791D01*
X176757405Y-143963651D01*
X176806528Y-143930828D01*
X176950421Y-143715477D01*
X177815515Y-144580571D01*
X177642364Y-144613152D01*
X177267976Y-144854064D01*
X177016812Y-145221654D01*
X176928450Y-145658000D01*
X176928450Y-147458000D01*
X177005152Y-147865636D01*
X177246064Y-148240024D01*
X177613654Y-148491188D01*
X178050000Y-148579550D01*
X179850000Y-148579550D01*
X180257636Y-148502848D01*
X180532499Y-148325979D01*
X181090430Y-148557652D01*
X181886079Y-148558346D01*
X182621429Y-148254506D01*
X183184529Y-147692388D01*
X183489652Y-146957570D01*
X183490346Y-146161921D01*
X183237479Y-145549935D01*
X186274472Y-148586928D01*
X186663780Y-148847055D01*
X187123000Y-148938400D01*
X189509600Y-148938400D01*
X189968820Y-148847055D01*
X190358128Y-148586928D01*
X190387319Y-148557737D01*
X191086079Y-148558346D01*
X191821429Y-148254506D01*
X191865000Y-148211011D01*
X191865000Y-148728271D01*
X191836501Y-148871547D01*
X191820897Y-148894899D01*
X191797548Y-148910500D01*
X191654271Y-148939000D01*
X151245730Y-148939000D01*
X151005250Y-148891165D01*
X150899497Y-148820503D01*
X150828835Y-148714750D01*
X150794594Y-148542612D01*
X150977000Y-148579550D01*
X152777000Y-148579550D01*
X153184636Y-148502848D01*
X153459499Y-148325979D01*
X154017430Y-148557652D01*
X154813079Y-148558346D01*
X155548429Y-148254506D01*
X156111529Y-147692388D01*
X156416652Y-146957570D01*
X156417346Y-146161921D01*
X156209131Y-145658000D01*
X158880450Y-145658000D01*
X158880450Y-147458000D01*
X158957152Y-147865636D01*
X159198064Y-148240024D01*
X159565654Y-148491188D01*
X160002000Y-148579550D01*
X161802000Y-148579550D01*
X162209636Y-148502848D01*
X162484499Y-148325979D01*
X163042430Y-148557652D01*
X163838079Y-148558346D01*
X164573429Y-148254506D01*
X165136529Y-147692388D01*
X165441652Y-146957570D01*
X165442346Y-146161921D01*
X165138506Y-145426571D01*
X164576388Y-144863471D01*
X163841570Y-144558348D01*
X163045921Y-144557654D01*
X162481423Y-144790900D01*
X162238346Y-144624812D01*
X161802000Y-144536450D01*
X160002000Y-144536450D01*
X159594364Y-144613152D01*
X159219976Y-144854064D01*
X158968812Y-145221654D01*
X158880450Y-145658000D01*
X156209131Y-145658000D01*
X156113506Y-145426571D01*
X155551388Y-144863471D01*
X154816570Y-144558348D01*
X154020921Y-144557654D01*
X153811287Y-144644273D01*
X153811500Y-144643200D01*
X153811500Y-143811583D01*
X154051000Y-143859223D01*
X154778099Y-143714594D01*
X155321000Y-143351839D01*
X155863901Y-143714594D01*
X156591000Y-143859223D01*
X157318099Y-143714594D01*
X157861000Y-143351839D01*
X158403901Y-143714594D01*
X159131000Y-143859223D01*
X159858099Y-143714594D01*
X160401000Y-143351839D01*
X160943901Y-143714594D01*
X161671000Y-143859223D01*
X162398099Y-143714594D01*
X162941000Y-143351839D01*
X163483901Y-143714594D01*
X164211000Y-143859223D01*
X164938099Y-143714594D01*
X165481000Y-143351839D01*
X166023901Y-143714594D01*
X166751000Y-143859223D01*
X167478099Y-143714594D01*
X168021000Y-143351839D01*
X168091000Y-143398612D01*
X168091000Y-143398612D01*
G37*
X168091000Y-143398612D02*
X168091000Y-144742700D01*
X168142650Y-145002360D01*
X167992812Y-145221654D01*
X167904450Y-145658000D01*
X167904450Y-147458000D01*
X167981152Y-147865636D01*
X168222064Y-148240024D01*
X168589654Y-148491188D01*
X169026000Y-148579550D01*
X170826000Y-148579550D01*
X171233636Y-148502848D01*
X171508499Y-148325979D01*
X172066430Y-148557652D01*
X172862079Y-148558346D01*
X173597429Y-148254506D01*
X174160529Y-147692388D01*
X174465652Y-146957570D01*
X174466265Y-146254791D01*
X176757405Y-143963651D01*
X176806528Y-143930828D01*
X176950421Y-143715477D01*
X177815515Y-144580571D01*
X177642364Y-144613152D01*
X177267976Y-144854064D01*
X177016812Y-145221654D01*
X176928450Y-145658000D01*
X176928450Y-147458000D01*
X177005152Y-147865636D01*
X177246064Y-148240024D01*
X177613654Y-148491188D01*
X178050000Y-148579550D01*
X179850000Y-148579550D01*
X180257636Y-148502848D01*
X180532499Y-148325979D01*
X181090430Y-148557652D01*
X181886079Y-148558346D01*
X182621429Y-148254506D01*
X183184529Y-147692388D01*
X183489652Y-146957570D01*
X183490346Y-146161921D01*
X183237479Y-145549935D01*
X186274472Y-148586928D01*
X186663780Y-148847055D01*
X187123000Y-148938400D01*
X189509600Y-148938400D01*
X189968820Y-148847055D01*
X190358128Y-148586928D01*
X190387319Y-148557737D01*
X191086079Y-148558346D01*
X191821429Y-148254506D01*
X191865000Y-148211011D01*
X191865000Y-148728271D01*
X191836501Y-148871547D01*
X191820897Y-148894899D01*
X191797548Y-148910500D01*
X191654271Y-148939000D01*
X151245730Y-148939000D01*
X151005250Y-148891165D01*
X150899497Y-148820503D01*
X150828835Y-148714750D01*
X150794594Y-148542612D01*
X150977000Y-148579550D01*
X152777000Y-148579550D01*
X153184636Y-148502848D01*
X153459499Y-148325979D01*
X154017430Y-148557652D01*
X154813079Y-148558346D01*
X155548429Y-148254506D01*
X156111529Y-147692388D01*
X156416652Y-146957570D01*
X156417346Y-146161921D01*
X156209131Y-145658000D01*
X158880450Y-145658000D01*
X158880450Y-147458000D01*
X158957152Y-147865636D01*
X159198064Y-148240024D01*
X159565654Y-148491188D01*
X160002000Y-148579550D01*
X161802000Y-148579550D01*
X162209636Y-148502848D01*
X162484499Y-148325979D01*
X163042430Y-148557652D01*
X163838079Y-148558346D01*
X164573429Y-148254506D01*
X165136529Y-147692388D01*
X165441652Y-146957570D01*
X165442346Y-146161921D01*
X165138506Y-145426571D01*
X164576388Y-144863471D01*
X163841570Y-144558348D01*
X163045921Y-144557654D01*
X162481423Y-144790900D01*
X162238346Y-144624812D01*
X161802000Y-144536450D01*
X160002000Y-144536450D01*
X159594364Y-144613152D01*
X159219976Y-144854064D01*
X158968812Y-145221654D01*
X158880450Y-145658000D01*
X156209131Y-145658000D01*
X156113506Y-145426571D01*
X155551388Y-144863471D01*
X154816570Y-144558348D01*
X154020921Y-144557654D01*
X153811287Y-144644273D01*
X153811500Y-144643200D01*
X153811500Y-143811583D01*
X154051000Y-143859223D01*
X154778099Y-143714594D01*
X155321000Y-143351839D01*
X155863901Y-143714594D01*
X156591000Y-143859223D01*
X157318099Y-143714594D01*
X157861000Y-143351839D01*
X158403901Y-143714594D01*
X159131000Y-143859223D01*
X159858099Y-143714594D01*
X160401000Y-143351839D01*
X160943901Y-143714594D01*
X161671000Y-143859223D01*
X162398099Y-143714594D01*
X162941000Y-143351839D01*
X163483901Y-143714594D01*
X164211000Y-143859223D01*
X164938099Y-143714594D01*
X165481000Y-143351839D01*
X166023901Y-143714594D01*
X166751000Y-143859223D01*
X167478099Y-143714594D01*
X168021000Y-143351839D01*
X168091000Y-143398612D01*
G36*
X185390901Y-143794594D02*
X186118000Y-143939223D01*
X186364700Y-143890151D01*
X186364700Y-144792400D01*
X186397487Y-144957228D01*
X186251923Y-145170267D01*
X184647479Y-143565823D01*
X184848000Y-143431839D01*
X185390901Y-143794594D01*
X185390901Y-143794594D01*
G37*
X185390901Y-143794594D02*
X186118000Y-143939223D01*
X186364700Y-143890151D01*
X186364700Y-144792400D01*
X186397487Y-144957228D01*
X186251923Y-145170267D01*
X184647479Y-143565823D01*
X184848000Y-143431839D01*
X185390901Y-143794594D01*
G36*
X191865000Y-144904154D02*
X191824388Y-144863471D01*
X191322350Y-144655006D01*
X191865000Y-144112356D01*
X191865000Y-144904154D01*
X191865000Y-144904154D01*
G37*
X191865000Y-144904154D02*
X191824388Y-144863471D01*
X191322350Y-144655006D01*
X191865000Y-144112356D01*
X191865000Y-144904154D01*
G36*
X181038000Y-143939223D02*
X181529084Y-143841540D01*
X182498913Y-144811369D01*
X181889570Y-144558348D01*
X181186791Y-144557735D01*
X180451646Y-143822590D01*
X181038000Y-143939223D01*
X181038000Y-143939223D01*
G37*
X181038000Y-143939223D02*
X181529084Y-143841540D01*
X182498913Y-144811369D01*
X181889570Y-144558348D01*
X181186791Y-144557735D01*
X180451646Y-143822590D01*
X181038000Y-143939223D01*
G36*
X174848915Y-135919359D02*
X174849345Y-135921520D01*
X175109472Y-136310828D01*
X175498780Y-136570955D01*
X175506044Y-136572400D01*
X179122677Y-140189033D01*
X178498000Y-140064777D01*
X177770901Y-140209406D01*
X177556572Y-140352616D01*
X177276228Y-140072272D01*
X176886920Y-139812145D01*
X176427700Y-139720800D01*
X175444500Y-139720800D01*
X174985280Y-139812145D01*
X174595972Y-140072272D01*
X174525520Y-140142724D01*
X174218000Y-140080450D01*
X172618000Y-140080450D01*
X172210364Y-140157152D01*
X171835976Y-140398064D01*
X171584812Y-140765654D01*
X171496450Y-141202000D01*
X171496450Y-142802000D01*
X171573152Y-143209636D01*
X171814064Y-143584024D01*
X172181654Y-143835188D01*
X172618000Y-143923550D01*
X173403394Y-143923550D01*
X172768681Y-144558263D01*
X172069921Y-144557654D01*
X171505423Y-144790900D01*
X171262346Y-144624812D01*
X170826000Y-144536450D01*
X170779391Y-144536450D01*
X170774528Y-144529172D01*
X170491000Y-144245644D01*
X170491000Y-143398612D01*
X170634503Y-143302726D01*
X171046371Y-142686322D01*
X171191000Y-141959223D01*
X171191000Y-141884777D01*
X171070389Y-141278425D01*
X171088015Y-141271142D01*
X171468107Y-140891712D01*
X171618975Y-140528381D01*
X171662528Y-140484828D01*
X171922655Y-140095520D01*
X172014000Y-139636300D01*
X172014000Y-137509253D01*
X172240315Y-137415742D01*
X172620407Y-137036312D01*
X172637317Y-136995589D01*
X172781915Y-136935842D01*
X173162007Y-136556412D01*
X173272513Y-136290284D01*
X173418000Y-136319223D01*
X174145099Y-136174594D01*
X174688000Y-135811839D01*
X174848915Y-135919359D01*
X174848915Y-135919359D01*
G37*
X174848915Y-135919359D02*
X174849345Y-135921520D01*
X175109472Y-136310828D01*
X175498780Y-136570955D01*
X175506044Y-136572400D01*
X179122677Y-140189033D01*
X178498000Y-140064777D01*
X177770901Y-140209406D01*
X177556572Y-140352616D01*
X177276228Y-140072272D01*
X176886920Y-139812145D01*
X176427700Y-139720800D01*
X175444500Y-139720800D01*
X174985280Y-139812145D01*
X174595972Y-140072272D01*
X174525520Y-140142724D01*
X174218000Y-140080450D01*
X172618000Y-140080450D01*
X172210364Y-140157152D01*
X171835976Y-140398064D01*
X171584812Y-140765654D01*
X171496450Y-141202000D01*
X171496450Y-142802000D01*
X171573152Y-143209636D01*
X171814064Y-143584024D01*
X172181654Y-143835188D01*
X172618000Y-143923550D01*
X173403394Y-143923550D01*
X172768681Y-144558263D01*
X172069921Y-144557654D01*
X171505423Y-144790900D01*
X171262346Y-144624812D01*
X170826000Y-144536450D01*
X170779391Y-144536450D01*
X170774528Y-144529172D01*
X170491000Y-144245644D01*
X170491000Y-143398612D01*
X170634503Y-143302726D01*
X171046371Y-142686322D01*
X171191000Y-141959223D01*
X171191000Y-141884777D01*
X171070389Y-141278425D01*
X171088015Y-141271142D01*
X171468107Y-140891712D01*
X171618975Y-140528381D01*
X171662528Y-140484828D01*
X171922655Y-140095520D01*
X172014000Y-139636300D01*
X172014000Y-137509253D01*
X172240315Y-137415742D01*
X172620407Y-137036312D01*
X172637317Y-136995589D01*
X172781915Y-136935842D01*
X173162007Y-136556412D01*
X173272513Y-136290284D01*
X173418000Y-136319223D01*
X174145099Y-136174594D01*
X174688000Y-135811839D01*
X174848915Y-135919359D01*
G36*
X151411500Y-144146144D02*
X151028472Y-144529172D01*
X151023609Y-144536450D01*
X150977000Y-144536450D01*
X150781000Y-144573330D01*
X150781000Y-143843550D01*
X151411500Y-143843550D01*
X151411500Y-144146144D01*
X151411500Y-144146144D01*
G37*
X151411500Y-144146144D02*
X151028472Y-144529172D01*
X151023609Y-144536450D01*
X150977000Y-144536450D01*
X150781000Y-144573330D01*
X150781000Y-143843550D01*
X151411500Y-143843550D01*
X151411500Y-144146144D01*
G36*
X185390901Y-136174594D02*
X186118000Y-136319223D01*
X186364700Y-136270151D01*
X186364700Y-140113849D01*
X186118000Y-140064777D01*
X185390901Y-140209406D01*
X184848000Y-140572161D01*
X184305099Y-140209406D01*
X183578000Y-140064777D01*
X182850901Y-140209406D01*
X182662828Y-140335072D01*
X180475524Y-138147768D01*
X180663007Y-137960612D01*
X180813875Y-137597281D01*
X181886528Y-136524628D01*
X182146655Y-136135320D01*
X182196131Y-135886587D01*
X182308000Y-135811839D01*
X182850901Y-136174594D01*
X183578000Y-136319223D01*
X184305099Y-136174594D01*
X184848000Y-135811839D01*
X185390901Y-136174594D01*
X185390901Y-136174594D01*
G37*
X185390901Y-136174594D02*
X186118000Y-136319223D01*
X186364700Y-136270151D01*
X186364700Y-140113849D01*
X186118000Y-140064777D01*
X185390901Y-140209406D01*
X184848000Y-140572161D01*
X184305099Y-140209406D01*
X183578000Y-140064777D01*
X182850901Y-140209406D01*
X182662828Y-140335072D01*
X180475524Y-138147768D01*
X180663007Y-137960612D01*
X180813875Y-137597281D01*
X181886528Y-136524628D01*
X182146655Y-136135320D01*
X182196131Y-135886587D01*
X182308000Y-135811839D01*
X182850901Y-136174594D01*
X183578000Y-136319223D01*
X184305099Y-136174594D01*
X184848000Y-135811839D01*
X185390901Y-136174594D01*
G36*
X190470901Y-136174594D02*
X191198000Y-136319223D01*
X191865000Y-136186548D01*
X191865000Y-140197452D01*
X191198000Y-140064777D01*
X190470901Y-140209406D01*
X189928000Y-140572161D01*
X189385099Y-140209406D01*
X188764700Y-140086001D01*
X188764700Y-136297999D01*
X189385099Y-136174594D01*
X189928000Y-135811839D01*
X190470901Y-136174594D01*
X190470901Y-136174594D01*
G37*
X190470901Y-136174594D02*
X191198000Y-136319223D01*
X191865000Y-136186548D01*
X191865000Y-140197452D01*
X191198000Y-140064777D01*
X190470901Y-140209406D01*
X189928000Y-140572161D01*
X189385099Y-140209406D01*
X188764700Y-140086001D01*
X188764700Y-136297999D01*
X189385099Y-136174594D01*
X189928000Y-135811839D01*
X190470901Y-136174594D01*
G36*
X160943901Y-136094594D02*
X161671000Y-136239223D01*
X161856900Y-136202245D01*
X161856900Y-138958744D01*
X160822472Y-139993172D01*
X160562345Y-140382480D01*
X160561915Y-140384641D01*
X160401000Y-140492161D01*
X160309300Y-140430889D01*
X160309300Y-137187284D01*
X160459065Y-136826610D01*
X160459534Y-136289547D01*
X160266287Y-135821852D01*
X160401000Y-135731839D01*
X160943901Y-136094594D01*
X160943901Y-136094594D01*
G37*
X160943901Y-136094594D02*
X161671000Y-136239223D01*
X161856900Y-136202245D01*
X161856900Y-138958744D01*
X160822472Y-139993172D01*
X160562345Y-140382480D01*
X160561915Y-140384641D01*
X160401000Y-140492161D01*
X160309300Y-140430889D01*
X160309300Y-137187284D01*
X160459065Y-136826610D01*
X160459534Y-136289547D01*
X160266287Y-135821852D01*
X160401000Y-135731839D01*
X160943901Y-136094594D01*
G36*
X155863901Y-136094594D02*
X156471300Y-136215413D01*
X156471300Y-139264344D01*
X155742472Y-139993172D01*
X155482345Y-140382480D01*
X155481915Y-140384641D01*
X155321000Y-140492161D01*
X154778099Y-140129406D01*
X154051000Y-139984777D01*
X153811500Y-140032417D01*
X153811500Y-136191583D01*
X154051000Y-136239223D01*
X154778099Y-136094594D01*
X155321000Y-135731839D01*
X155863901Y-136094594D01*
X155863901Y-136094594D01*
G37*
X155863901Y-136094594D02*
X156471300Y-136215413D01*
X156471300Y-139264344D01*
X155742472Y-139993172D01*
X155482345Y-140382480D01*
X155481915Y-140384641D01*
X155321000Y-140492161D01*
X154778099Y-140129406D01*
X154051000Y-139984777D01*
X153811500Y-140032417D01*
X153811500Y-136191583D01*
X154051000Y-136239223D01*
X154778099Y-136094594D01*
X155321000Y-135731839D01*
X155863901Y-136094594D01*
G36*
X165641915Y-135839359D02*
X165642345Y-135841520D01*
X165902472Y-136230828D01*
X166164058Y-136405614D01*
X166431823Y-136673379D01*
X166580958Y-137034315D01*
X166960388Y-137414407D01*
X167403304Y-137598322D01*
X167403066Y-137870553D01*
X167608158Y-138366915D01*
X167987588Y-138747007D01*
X168483590Y-138952965D01*
X169020653Y-138953434D01*
X169070511Y-138932833D01*
X168442472Y-139560872D01*
X168182345Y-139950180D01*
X168091000Y-140409400D01*
X168091000Y-140445388D01*
X168021000Y-140492161D01*
X167478099Y-140129406D01*
X166751000Y-139984777D01*
X166023901Y-140129406D01*
X165481000Y-140492161D01*
X164938099Y-140129406D01*
X164211000Y-139984777D01*
X164104835Y-140005895D01*
X164165555Y-139915020D01*
X164256900Y-139455800D01*
X164256900Y-136230093D01*
X164938099Y-136094594D01*
X165481000Y-135731839D01*
X165641915Y-135839359D01*
X165641915Y-135839359D01*
G37*
X165641915Y-135839359D02*
X165642345Y-135841520D01*
X165902472Y-136230828D01*
X166164058Y-136405614D01*
X166431823Y-136673379D01*
X166580958Y-137034315D01*
X166960388Y-137414407D01*
X167403304Y-137598322D01*
X167403066Y-137870553D01*
X167608158Y-138366915D01*
X167987588Y-138747007D01*
X168483590Y-138952965D01*
X169020653Y-138953434D01*
X169070511Y-138932833D01*
X168442472Y-139560872D01*
X168182345Y-139950180D01*
X168091000Y-140409400D01*
X168091000Y-140445388D01*
X168021000Y-140492161D01*
X167478099Y-140129406D01*
X166751000Y-139984777D01*
X166023901Y-140129406D01*
X165481000Y-140492161D01*
X164938099Y-140129406D01*
X164211000Y-139984777D01*
X164104835Y-140005895D01*
X164165555Y-139915020D01*
X164256900Y-139455800D01*
X164256900Y-136230093D01*
X164938099Y-136094594D01*
X165481000Y-135731839D01*
X165641915Y-135839359D01*
G36*
X175858072Y-132358828D02*
X175946340Y-132447096D01*
X175230901Y-132589406D01*
X174688000Y-132952161D01*
X174618000Y-132905388D01*
X174618000Y-132055496D01*
X175032777Y-132138000D01*
X175107223Y-132138000D01*
X175639743Y-132032075D01*
X175858072Y-132358828D01*
X175858072Y-132358828D01*
G37*
X175858072Y-132358828D02*
X175946340Y-132447096D01*
X175230901Y-132589406D01*
X174688000Y-132952161D01*
X174618000Y-132905388D01*
X174618000Y-132055496D01*
X175032777Y-132138000D01*
X175107223Y-132138000D01*
X175639743Y-132032075D01*
X175858072Y-132358828D01*
G36*
X180296430Y-131898652D02*
X180734000Y-131899034D01*
X180734000Y-131908644D01*
X180189472Y-132453172D01*
X179929345Y-132842480D01*
X179928915Y-132844641D01*
X179768000Y-132952161D01*
X179607085Y-132844641D01*
X179606655Y-132842480D01*
X179346528Y-132453172D01*
X178813906Y-131920550D01*
X179056000Y-131920550D01*
X179463636Y-131843848D01*
X179738499Y-131666979D01*
X180296430Y-131898652D01*
X180296430Y-131898652D01*
G37*
X180296430Y-131898652D02*
X180734000Y-131899034D01*
X180734000Y-131908644D01*
X180189472Y-132453172D01*
X179929345Y-132842480D01*
X179928915Y-132844641D01*
X179768000Y-132952161D01*
X179607085Y-132844641D01*
X179606655Y-132842480D01*
X179346528Y-132453172D01*
X178813906Y-131920550D01*
X179056000Y-131920550D01*
X179463636Y-131843848D01*
X179738499Y-131666979D01*
X180296430Y-131898652D01*
G36*
X191865000Y-132577452D02*
X191198000Y-132444777D01*
X190470901Y-132589406D01*
X189928000Y-132952161D01*
X189385099Y-132589406D01*
X188764700Y-132466001D01*
X188764700Y-132167656D01*
X189004528Y-131927828D01*
X189009391Y-131920550D01*
X189056000Y-131920550D01*
X189463636Y-131843848D01*
X189738499Y-131666979D01*
X190296430Y-131898652D01*
X191092079Y-131899346D01*
X191827429Y-131595506D01*
X191865000Y-131558001D01*
X191865000Y-132577452D01*
X191865000Y-132577452D01*
G37*
X191865000Y-132577452D02*
X191198000Y-132444777D01*
X190470901Y-132589406D01*
X189928000Y-132952161D01*
X189385099Y-132589406D01*
X188764700Y-132466001D01*
X188764700Y-132167656D01*
X189004528Y-131927828D01*
X189009391Y-131920550D01*
X189056000Y-131920550D01*
X189463636Y-131843848D01*
X189738499Y-131666979D01*
X190296430Y-131898652D01*
X191092079Y-131899346D01*
X191827429Y-131595506D01*
X191865000Y-131558001D01*
X191865000Y-132577452D01*
G36*
X191640750Y-127714835D02*
X191746503Y-127785497D01*
X191817165Y-127891250D01*
X191865000Y-128131730D01*
X191865000Y-128239143D01*
X191830388Y-128204471D01*
X191095570Y-127899348D01*
X190299921Y-127898654D01*
X189735423Y-128131900D01*
X189492346Y-127965812D01*
X189056000Y-127877450D01*
X187256000Y-127877450D01*
X186848364Y-127954152D01*
X186473976Y-128195064D01*
X186222812Y-128562654D01*
X186134450Y-128999000D01*
X186134450Y-130799000D01*
X186211152Y-131206636D01*
X186398940Y-131498466D01*
X186364700Y-131670600D01*
X186364700Y-132493849D01*
X186118000Y-132444777D01*
X185390901Y-132589406D01*
X184848000Y-132952161D01*
X184305099Y-132589406D01*
X183578000Y-132444777D01*
X183107616Y-132538342D01*
X183134000Y-132405700D01*
X183134000Y-128953720D01*
X183147015Y-128948342D01*
X183527107Y-128568912D01*
X183733065Y-128072910D01*
X183733419Y-127667000D01*
X191400270Y-127667000D01*
X191640750Y-127714835D01*
X191640750Y-127714835D01*
G37*
X191640750Y-127714835D02*
X191746503Y-127785497D01*
X191817165Y-127891250D01*
X191865000Y-128131730D01*
X191865000Y-128239143D01*
X191830388Y-128204471D01*
X191095570Y-127899348D01*
X190299921Y-127898654D01*
X189735423Y-128131900D01*
X189492346Y-127965812D01*
X189056000Y-127877450D01*
X187256000Y-127877450D01*
X186848364Y-127954152D01*
X186473976Y-128195064D01*
X186222812Y-128562654D01*
X186134450Y-128999000D01*
X186134450Y-130799000D01*
X186211152Y-131206636D01*
X186398940Y-131498466D01*
X186364700Y-131670600D01*
X186364700Y-132493849D01*
X186118000Y-132444777D01*
X185390901Y-132589406D01*
X184848000Y-132952161D01*
X184305099Y-132589406D01*
X183578000Y-132444777D01*
X183107616Y-132538342D01*
X183134000Y-132405700D01*
X183134000Y-128953720D01*
X183147015Y-128948342D01*
X183527107Y-128568912D01*
X183733065Y-128072910D01*
X183733419Y-127667000D01*
X191400270Y-127667000D01*
X191640750Y-127714835D01*
G36*
X164577209Y-131921265D02*
X165509237Y-132853293D01*
X165481000Y-132872161D01*
X164938099Y-132509406D01*
X164256900Y-132373907D01*
X164256900Y-131920986D01*
X164577209Y-131921265D01*
X164577209Y-131921265D01*
G37*
X164577209Y-131921265D02*
X165509237Y-132853293D01*
X165481000Y-132872161D01*
X164938099Y-132509406D01*
X164256900Y-132373907D01*
X164256900Y-131920986D01*
X164577209Y-131921265D01*
G36*
X156471300Y-132388587D02*
X156062692Y-132469864D01*
X156471300Y-132061256D01*
X156471300Y-132388587D01*
X156471300Y-132388587D01*
G37*
X156471300Y-132388587D02*
X156062692Y-132469864D01*
X156471300Y-132061256D01*
X156471300Y-132388587D01*
G36*
X159081400Y-131832100D02*
X159172745Y-132291320D01*
X159235749Y-132385613D01*
X159131000Y-132364777D01*
X158871300Y-132416435D01*
X158871300Y-130814156D01*
X159081400Y-130604056D01*
X159081400Y-131832100D01*
X159081400Y-131832100D01*
G37*
X159081400Y-131832100D02*
X159172745Y-132291320D01*
X159235749Y-132385613D01*
X159131000Y-132364777D01*
X158871300Y-132416435D01*
X158871300Y-130814156D01*
X159081400Y-130604056D01*
X159081400Y-131832100D01*
G36*
X169614000Y-130031156D02*
X169614000Y-131337544D01*
X169242178Y-130965722D01*
X169242594Y-130965099D01*
X169387223Y-130238000D01*
X169279554Y-129696710D01*
X169614000Y-130031156D01*
X169614000Y-130031156D01*
G37*
X169614000Y-130031156D02*
X169614000Y-131337544D01*
X169242178Y-130965722D01*
X169242594Y-130965099D01*
X169387223Y-130238000D01*
X169279554Y-129696710D01*
X169614000Y-130031156D01*
G36*
X180296430Y-122698652D02*
X180727900Y-122699028D01*
X180727900Y-127207054D01*
X180653000Y-127583600D01*
X180653000Y-127898962D01*
X180299921Y-127898654D01*
X179735423Y-128131900D01*
X179492346Y-127965812D01*
X179356000Y-127938201D01*
X179356000Y-122664101D01*
X179463636Y-122643848D01*
X179738499Y-122466979D01*
X180296430Y-122698652D01*
X180296430Y-122698652D01*
G37*
X180296430Y-122698652D02*
X180727900Y-122699028D01*
X180727900Y-127207054D01*
X180653000Y-127583600D01*
X180653000Y-127898962D01*
X180299921Y-127898654D01*
X179735423Y-128131900D01*
X179492346Y-127965812D01*
X179356000Y-127938201D01*
X179356000Y-122664101D01*
X179463636Y-122643848D01*
X179738499Y-122466979D01*
X180296430Y-122698652D01*
G36*
X165044100Y-127296156D02*
X165044100Y-128075205D01*
X164673570Y-127921348D01*
X164256900Y-127920985D01*
X164256900Y-126508956D01*
X165044100Y-127296156D01*
X165044100Y-127296156D01*
G37*
X165044100Y-127296156D02*
X165044100Y-128075205D01*
X164673570Y-127921348D01*
X164256900Y-127920985D01*
X164256900Y-126508956D01*
X165044100Y-127296156D01*
G36*
X158411274Y-127880070D02*
X158032610Y-127722835D01*
X157495547Y-127722366D01*
X156999185Y-127927458D01*
X156990273Y-127936355D01*
X156989512Y-127935593D01*
X156514480Y-127738342D01*
X156407708Y-127667000D01*
X158624344Y-127667000D01*
X158411274Y-127880070D01*
X158411274Y-127880070D01*
G37*
X158411274Y-127880070D02*
X158032610Y-127722835D01*
X157495547Y-127722366D01*
X156999185Y-127927458D01*
X156990273Y-127936355D01*
X156989512Y-127935593D01*
X156514480Y-127738342D01*
X156407708Y-127667000D01*
X158624344Y-127667000D01*
X158411274Y-127880070D01*
G36*
X180727900Y-94237828D02*
X180727900Y-118699027D01*
X180536400Y-118698860D01*
X180536400Y-94237661D01*
X180727900Y-94237828D01*
X180727900Y-94237828D01*
G37*
X180727900Y-94237828D02*
X180727900Y-118699027D01*
X180536400Y-118698860D01*
X180536400Y-94237661D01*
X180727900Y-94237828D01*
G36*
X161856900Y-118677450D02*
X161481400Y-118677450D01*
X161481400Y-94259350D01*
X161856900Y-94259350D01*
X161856900Y-118677450D01*
X161856900Y-118677450D01*
G37*
X161856900Y-118677450D02*
X161481400Y-118677450D01*
X161481400Y-94259350D01*
X161856900Y-94259350D01*
X161856900Y-118677450D01*
G36*
X171531000Y-101919293D02*
X171531000Y-116719292D01*
X170843800Y-116718692D01*
X170843800Y-101918693D01*
X171531000Y-101919293D01*
X171531000Y-101919293D01*
G37*
X171531000Y-101919293D02*
X171531000Y-116719292D01*
X170843800Y-116718692D01*
X170843800Y-101918693D01*
X171531000Y-101919293D01*
G36*
X171405600Y-96504100D02*
X171496945Y-96963320D01*
X171531000Y-97014287D01*
X171531000Y-97219292D01*
X170843800Y-97218692D01*
X170843800Y-96524556D01*
X171405600Y-95962756D01*
X171405600Y-96504100D01*
X171405600Y-96504100D01*
G37*
X171405600Y-96504100D02*
X171496945Y-96963320D01*
X171531000Y-97014287D01*
X171531000Y-97219292D01*
X170843800Y-97218692D01*
X170843800Y-96524556D01*
X171405600Y-95962756D01*
X171405600Y-96504100D01*
G36*
X174579800Y-96129212D02*
X174485785Y-96168058D01*
X174105693Y-96547488D01*
X173931000Y-96968196D01*
X173931000Y-96629500D01*
X173839655Y-96170280D01*
X173805600Y-96119313D01*
X173805600Y-95319359D01*
X174482233Y-95184768D01*
X174579800Y-95119576D01*
X174579800Y-96129212D01*
X174579800Y-96129212D01*
G37*
X174579800Y-96129212D02*
X174485785Y-96168058D01*
X174105693Y-96547488D01*
X173931000Y-96968196D01*
X173931000Y-96629500D01*
X173839655Y-96170280D01*
X173805600Y-96119313D01*
X173805600Y-95319359D01*
X174482233Y-95184768D01*
X174579800Y-95119576D01*
X174579800Y-96129212D01*
G36*
X175126200Y-90765356D02*
X175126200Y-91367644D01*
X174548690Y-90790134D01*
X174779315Y-90694842D01*
X174917621Y-90556777D01*
X175126200Y-90765356D01*
X175126200Y-90765356D01*
G37*
X175126200Y-90765356D02*
X175126200Y-91367644D01*
X174548690Y-90790134D01*
X174779315Y-90694842D01*
X174917621Y-90556777D01*
X175126200Y-90765356D01*
G36*
X178051994Y-90216250D02*
X177906600Y-90216250D01*
X177906600Y-90070856D01*
X178051994Y-90216250D01*
X178051994Y-90216250D01*
G37*
X178051994Y-90216250D02*
X177906600Y-90216250D01*
X177906600Y-90070856D01*
X178051994Y-90216250D01*
G36*
X161856900Y-90216250D02*
X161481400Y-90216250D01*
X161481400Y-85059350D01*
X161856900Y-85059350D01*
X161856900Y-90216250D01*
X161856900Y-90216250D01*
G37*
X161856900Y-90216250D02*
X161481400Y-90216250D01*
X161481400Y-85059350D01*
X161856900Y-85059350D01*
X161856900Y-90216250D01*
G36*
X168653172Y-88727928D02*
X169042480Y-88988055D01*
X169429478Y-89065034D01*
X170149444Y-89785000D01*
X169366284Y-89785000D01*
X169005610Y-89635235D01*
X168468547Y-89634766D01*
X168115711Y-89780555D01*
X167492600Y-89157444D01*
X167492600Y-88878614D01*
X168137322Y-88750371D01*
X168460005Y-88534761D01*
X168653172Y-88727928D01*
X168653172Y-88727928D01*
G37*
X168653172Y-88727928D02*
X169042480Y-88988055D01*
X169429478Y-89065034D01*
X170149444Y-89785000D01*
X169366284Y-89785000D01*
X169005610Y-89635235D01*
X168468547Y-89634766D01*
X168115711Y-89780555D01*
X167492600Y-89157444D01*
X167492600Y-88878614D01*
X168137322Y-88750371D01*
X168460005Y-88534761D01*
X168653172Y-88727928D01*
G36*
X171892300Y-85845256D02*
X171892300Y-88133744D01*
X171071332Y-87312776D01*
X171071534Y-87081747D01*
X170921300Y-86718152D01*
X170921300Y-84874256D01*
X171892300Y-85845256D01*
X171892300Y-85845256D01*
G37*
X171892300Y-85845256D02*
X171892300Y-88133744D01*
X171071332Y-87312776D01*
X171071534Y-87081747D01*
X170921300Y-86718152D01*
X170921300Y-84874256D01*
X171892300Y-85845256D01*
G36*
X180296430Y-85037452D02*
X180727900Y-85037828D01*
X180727900Y-88002744D01*
X177784506Y-85059350D01*
X179056000Y-85059350D01*
X179463636Y-84982648D01*
X179738499Y-84805779D01*
X180296430Y-85037452D01*
X180296430Y-85037452D01*
G37*
X180296430Y-85037452D02*
X180727900Y-85037828D01*
X180727900Y-88002744D01*
X177784506Y-85059350D01*
X179056000Y-85059350D01*
X179463636Y-84982648D01*
X179738499Y-84805779D01*
X180296430Y-85037452D01*
G36*
X196360777Y-86995000D02*
X196505406Y-87722099D01*
X196507344Y-87725000D01*
X191675000Y-87725000D01*
X191675000Y-87238550D01*
X193457000Y-87238550D01*
X193864636Y-87161848D01*
X194139499Y-86984979D01*
X194697430Y-87216652D01*
X195493079Y-87217346D01*
X196228429Y-86913506D01*
X196413794Y-86728464D01*
X196360777Y-86995000D01*
X196360777Y-86995000D01*
G37*
X196360777Y-86995000D02*
X196505406Y-87722099D01*
X196507344Y-87725000D01*
X191675000Y-87725000D01*
X191675000Y-87238550D01*
X193457000Y-87238550D01*
X193864636Y-87161848D01*
X194139499Y-86984979D01*
X194697430Y-87216652D01*
X195493079Y-87217346D01*
X196228429Y-86913506D01*
X196413794Y-86728464D01*
X196360777Y-86995000D01*
G36*
X203637700Y-82343556D02*
X203637700Y-84969600D01*
X203729045Y-85428820D01*
X203989172Y-85818128D01*
X204250992Y-86079948D01*
X204125406Y-86267901D01*
X203980777Y-86995000D01*
X204125406Y-87722099D01*
X204127344Y-87725000D01*
X200088656Y-87725000D01*
X200090594Y-87722099D01*
X200235223Y-86995000D01*
X200090594Y-86267901D01*
X199727839Y-85725000D01*
X200090594Y-85182099D01*
X200235223Y-84455000D01*
X200090594Y-83727901D01*
X199727839Y-83185000D01*
X200090594Y-82642099D01*
X200235223Y-81915000D01*
X200090594Y-81187901D01*
X199727839Y-80645000D01*
X200090594Y-80102099D01*
X200235223Y-79375000D01*
X200127479Y-78833335D01*
X203637700Y-82343556D01*
X203637700Y-82343556D01*
G37*
X203637700Y-82343556D02*
X203637700Y-84969600D01*
X203729045Y-85428820D01*
X203989172Y-85818128D01*
X204250992Y-86079948D01*
X204125406Y-86267901D01*
X203980777Y-86995000D01*
X204125406Y-87722099D01*
X204127344Y-87725000D01*
X200088656Y-87725000D01*
X200090594Y-87722099D01*
X200235223Y-86995000D01*
X200090594Y-86267901D01*
X199727839Y-85725000D01*
X200090594Y-85182099D01*
X200235223Y-84455000D01*
X200090594Y-83727901D01*
X199727839Y-83185000D01*
X200090594Y-82642099D01*
X200235223Y-81915000D01*
X200090594Y-81187901D01*
X199727839Y-80645000D01*
X200090594Y-80102099D01*
X200235223Y-79375000D01*
X200127479Y-78833335D01*
X203637700Y-82343556D01*
G36*
X149396430Y-87216652D02*
X150192079Y-87217346D01*
X150717000Y-87000453D01*
X150717000Y-87725000D01*
X145859656Y-87725000D01*
X145861594Y-87722099D01*
X145973197Y-87161031D01*
X146356000Y-87238550D01*
X148156000Y-87238550D01*
X148563636Y-87161848D01*
X148838499Y-86984979D01*
X149396430Y-87216652D01*
X149396430Y-87216652D01*
G37*
X149396430Y-87216652D02*
X150192079Y-87217346D01*
X150717000Y-87000453D01*
X150717000Y-87725000D01*
X145859656Y-87725000D01*
X145861594Y-87722099D01*
X145973197Y-87161031D01*
X146356000Y-87238550D01*
X148156000Y-87238550D01*
X148563636Y-87161848D01*
X148838499Y-86984979D01*
X149396430Y-87216652D01*
G36*
X142276406Y-77562099D02*
X142639161Y-78105000D01*
X142276406Y-78647901D01*
X142131777Y-79375000D01*
X142276406Y-80102099D01*
X142639161Y-80645000D01*
X142276406Y-81187901D01*
X142131777Y-81915000D01*
X142276406Y-82642099D01*
X142639161Y-83185000D01*
X142276406Y-83727901D01*
X142131777Y-84455000D01*
X142276406Y-85182099D01*
X142639161Y-85725000D01*
X142276406Y-86267901D01*
X142131777Y-86995000D01*
X142276406Y-87722099D01*
X142278344Y-87725000D01*
X138239656Y-87725000D01*
X138241594Y-87722099D01*
X138386223Y-86995000D01*
X138241594Y-86267901D01*
X137878839Y-85725000D01*
X138241594Y-85182099D01*
X138386223Y-84455000D01*
X138241594Y-83727901D01*
X137878839Y-83185000D01*
X138241594Y-82642099D01*
X138386223Y-81915000D01*
X138241594Y-81187901D01*
X138099265Y-80974891D01*
X142149592Y-76924564D01*
X142276406Y-77562099D01*
X142276406Y-77562099D01*
G37*
X142276406Y-77562099D02*
X142639161Y-78105000D01*
X142276406Y-78647901D01*
X142131777Y-79375000D01*
X142276406Y-80102099D01*
X142639161Y-80645000D01*
X142276406Y-81187901D01*
X142131777Y-81915000D01*
X142276406Y-82642099D01*
X142639161Y-83185000D01*
X142276406Y-83727901D01*
X142131777Y-84455000D01*
X142276406Y-85182099D01*
X142639161Y-85725000D01*
X142276406Y-86267901D01*
X142131777Y-86995000D01*
X142276406Y-87722099D01*
X142278344Y-87725000D01*
X138239656Y-87725000D01*
X138241594Y-87722099D01*
X138386223Y-86995000D01*
X138241594Y-86267901D01*
X137878839Y-85725000D01*
X138241594Y-85182099D01*
X138386223Y-84455000D01*
X138241594Y-83727901D01*
X137878839Y-83185000D01*
X138241594Y-82642099D01*
X138386223Y-81915000D01*
X138241594Y-81187901D01*
X138099265Y-80974891D01*
X142149592Y-76924564D01*
X142276406Y-77562099D01*
G36*
X134511777Y-86995000D02*
X134656406Y-87722099D01*
X134658344Y-87725000D01*
X130163730Y-87725000D01*
X129923250Y-87677165D01*
X129817497Y-87606503D01*
X129746835Y-87500750D01*
X129699000Y-87260270D01*
X129699000Y-87221540D01*
X129783000Y-87238550D01*
X131583000Y-87238550D01*
X131990636Y-87161848D01*
X132265499Y-86984979D01*
X132823430Y-87216652D01*
X133619079Y-87217346D01*
X134354429Y-86913506D01*
X134570988Y-86697324D01*
X134511777Y-86995000D01*
X134511777Y-86995000D01*
G37*
X134511777Y-86995000D02*
X134656406Y-87722099D01*
X134658344Y-87725000D01*
X130163730Y-87725000D01*
X129923250Y-87677165D01*
X129817497Y-87606503D01*
X129746835Y-87500750D01*
X129699000Y-87260270D01*
X129699000Y-87221540D01*
X129783000Y-87238550D01*
X131583000Y-87238550D01*
X131990636Y-87161848D01*
X132265499Y-86984979D01*
X132823430Y-87216652D01*
X133619079Y-87217346D01*
X134354429Y-86913506D01*
X134570988Y-86697324D01*
X134511777Y-86995000D01*
G36*
X212693000Y-87260270D02*
X212645165Y-87500750D01*
X212574503Y-87606503D01*
X212468750Y-87677165D01*
X212228270Y-87725000D01*
X207708656Y-87725000D01*
X207710594Y-87722099D01*
X207821346Y-87165313D01*
X208183000Y-87238550D01*
X209983000Y-87238550D01*
X210390636Y-87161848D01*
X210665499Y-86984979D01*
X211223430Y-87216652D01*
X212019079Y-87217346D01*
X212693000Y-86938888D01*
X212693000Y-87260270D01*
X212693000Y-87260270D01*
G37*
X212693000Y-87260270D02*
X212645165Y-87500750D01*
X212574503Y-87606503D01*
X212468750Y-87677165D01*
X212228270Y-87725000D01*
X207708656Y-87725000D01*
X207710594Y-87722099D01*
X207821346Y-87165313D01*
X208183000Y-87238550D01*
X209983000Y-87238550D01*
X210390636Y-87161848D01*
X210665499Y-86984979D01*
X211223430Y-87216652D01*
X212019079Y-87217346D01*
X212693000Y-86938888D01*
X212693000Y-87260270D01*
G36*
X194697430Y-75837452D02*
X195493079Y-75838146D01*
X195931497Y-75656996D01*
X195882335Y-75775390D01*
X195881866Y-76312453D01*
X196086958Y-76808815D01*
X196422411Y-77144853D01*
X196505406Y-77562099D01*
X196868161Y-78105000D01*
X196505406Y-78647901D01*
X196360777Y-79375000D01*
X196505406Y-80102099D01*
X196868161Y-80645000D01*
X196505406Y-81187901D01*
X196360777Y-81915000D01*
X196505406Y-82642099D01*
X196868161Y-83185000D01*
X196505406Y-83727901D01*
X196493950Y-83785492D01*
X196231388Y-83522471D01*
X195496570Y-83217348D01*
X194700921Y-83216654D01*
X194136423Y-83449900D01*
X193893346Y-83283812D01*
X193757000Y-83256201D01*
X193757000Y-75802901D01*
X193864636Y-75782648D01*
X194139499Y-75605779D01*
X194697430Y-75837452D01*
X194697430Y-75837452D01*
G37*
X194697430Y-75837452D02*
X195493079Y-75838146D01*
X195931497Y-75656996D01*
X195882335Y-75775390D01*
X195881866Y-76312453D01*
X196086958Y-76808815D01*
X196422411Y-77144853D01*
X196505406Y-77562099D01*
X196868161Y-78105000D01*
X196505406Y-78647901D01*
X196360777Y-79375000D01*
X196505406Y-80102099D01*
X196868161Y-80645000D01*
X196505406Y-81187901D01*
X196360777Y-81915000D01*
X196505406Y-82642099D01*
X196868161Y-83185000D01*
X196505406Y-83727901D01*
X196493950Y-83785492D01*
X196231388Y-83522471D01*
X195496570Y-83217348D01*
X194700921Y-83216654D01*
X194136423Y-83449900D01*
X193893346Y-83283812D01*
X193757000Y-83256201D01*
X193757000Y-75802901D01*
X193864636Y-75782648D01*
X194139499Y-75605779D01*
X194697430Y-75837452D01*
G36*
X212693000Y-83495735D02*
X212022570Y-83217348D01*
X211226921Y-83216654D01*
X210662423Y-83449900D01*
X210419346Y-83283812D01*
X210283000Y-83256201D01*
X210283000Y-78082101D01*
X210390636Y-78061848D01*
X210665499Y-77884979D01*
X211223430Y-78116652D01*
X212019079Y-78117346D01*
X212693000Y-77838888D01*
X212693000Y-83495735D01*
X212693000Y-83495735D01*
G37*
X212693000Y-83495735D02*
X212022570Y-83217348D01*
X211226921Y-83216654D01*
X210662423Y-83449900D01*
X210419346Y-83283812D01*
X210283000Y-83256201D01*
X210283000Y-78082101D01*
X210390636Y-78061848D01*
X210665499Y-77884979D01*
X211223430Y-78116652D01*
X212019079Y-78117346D01*
X212693000Y-77838888D01*
X212693000Y-83495735D01*
G36*
X150717000Y-83433865D02*
X150195570Y-83217348D01*
X149399921Y-83216654D01*
X148835423Y-83449900D01*
X148592346Y-83283812D01*
X148156000Y-83195450D01*
X147451306Y-83195450D01*
X150717000Y-79929756D01*
X150717000Y-83433865D01*
X150717000Y-83433865D01*
G37*
X150717000Y-83433865D02*
X150195570Y-83217348D01*
X149399921Y-83216654D01*
X148835423Y-83449900D01*
X148592346Y-83283812D01*
X148156000Y-83195450D01*
X147451306Y-83195450D01*
X150717000Y-79929756D01*
X150717000Y-83433865D01*
G36*
X134656406Y-77562099D02*
X135019161Y-78105000D01*
X134656406Y-78647901D01*
X134511777Y-79375000D01*
X134656406Y-80102099D01*
X134786598Y-80296946D01*
X132374472Y-82709072D01*
X132114345Y-83098380D01*
X132070507Y-83318769D01*
X132019346Y-83283812D01*
X131883000Y-83256201D01*
X131883000Y-78082101D01*
X131990636Y-78061848D01*
X132265499Y-77884979D01*
X132823430Y-78116652D01*
X133619079Y-78117346D01*
X134354429Y-77813506D01*
X134648101Y-77520346D01*
X134656406Y-77562099D01*
X134656406Y-77562099D01*
G37*
X134656406Y-77562099D02*
X135019161Y-78105000D01*
X134656406Y-78647901D01*
X134511777Y-79375000D01*
X134656406Y-80102099D01*
X134786598Y-80296946D01*
X132374472Y-82709072D01*
X132114345Y-83098380D01*
X132070507Y-83318769D01*
X132019346Y-83283812D01*
X131883000Y-83256201D01*
X131883000Y-78082101D01*
X131990636Y-78061848D01*
X132265499Y-77884979D01*
X132823430Y-78116652D01*
X133619079Y-78117346D01*
X134354429Y-77813506D01*
X134648101Y-77520346D01*
X134656406Y-77562099D01*
G36*
X207883000Y-83251899D02*
X207842052Y-83259604D01*
X207883000Y-83218656D01*
X207883000Y-83251899D01*
X207883000Y-83251899D01*
G37*
X207883000Y-83251899D02*
X207842052Y-83259604D01*
X207883000Y-83218656D01*
X207883000Y-83251899D01*
G36*
X207746654Y-78050188D02*
X207883000Y-78077799D01*
X207883000Y-80635844D01*
X207565862Y-80318706D01*
X207710594Y-80102099D01*
X207855223Y-79375000D01*
X207710594Y-78647901D01*
X207347839Y-78105000D01*
X207497990Y-77880283D01*
X207746654Y-78050188D01*
X207746654Y-78050188D01*
G37*
X207746654Y-78050188D02*
X207883000Y-78077799D01*
X207883000Y-80635844D01*
X207565862Y-80318706D01*
X207710594Y-80102099D01*
X207855223Y-79375000D01*
X207710594Y-78647901D01*
X207347839Y-78105000D01*
X207497990Y-77880283D01*
X207746654Y-78050188D01*
G36*
X183340172Y-74686328D02*
X183347450Y-74691191D01*
X183347450Y-74737800D01*
X183424152Y-75145436D01*
X183612283Y-75437800D01*
X183269300Y-75437800D01*
X182810080Y-75529145D01*
X182420772Y-75789272D01*
X181534772Y-76675272D01*
X181274645Y-77064580D01*
X181183300Y-77523800D01*
X181183300Y-80096544D01*
X178312179Y-77225423D01*
X178312434Y-76933247D01*
X178162200Y-76569652D01*
X178162200Y-75859350D01*
X179056000Y-75859350D01*
X179463636Y-75782648D01*
X179738499Y-75605779D01*
X180296430Y-75837452D01*
X181092079Y-75838146D01*
X181827429Y-75534306D01*
X182390529Y-74972188D01*
X182695652Y-74237370D01*
X182695822Y-74041978D01*
X183340172Y-74686328D01*
X183340172Y-74686328D01*
G37*
X183340172Y-74686328D02*
X183347450Y-74691191D01*
X183347450Y-74737800D01*
X183424152Y-75145436D01*
X183612283Y-75437800D01*
X183269300Y-75437800D01*
X182810080Y-75529145D01*
X182420772Y-75789272D01*
X181534772Y-76675272D01*
X181274645Y-77064580D01*
X181183300Y-77523800D01*
X181183300Y-80096544D01*
X178312179Y-77225423D01*
X178312434Y-76933247D01*
X178162200Y-76569652D01*
X178162200Y-75859350D01*
X179056000Y-75859350D01*
X179463636Y-75782648D01*
X179738499Y-75605779D01*
X180296430Y-75837452D01*
X181092079Y-75838146D01*
X181827429Y-75534306D01*
X182390529Y-74972188D01*
X182695652Y-74237370D01*
X182695822Y-74041978D01*
X183340172Y-74686328D01*
G36*
X172515300Y-79274144D02*
X172362256Y-79121100D01*
X172515300Y-79121100D01*
X172515300Y-79274144D01*
X172515300Y-79274144D01*
G37*
X172515300Y-79274144D02*
X172362256Y-79121100D01*
X172515300Y-79121100D01*
X172515300Y-79274144D01*
G36*
X145919654Y-75783688D02*
X146356000Y-75872050D01*
X147750594Y-75872050D01*
X145506371Y-78116273D01*
X145498839Y-78105000D01*
X145861594Y-77562099D01*
X146006223Y-76835000D01*
X145861594Y-76107901D01*
X145736008Y-75919948D01*
X145891503Y-75764453D01*
X145919654Y-75783688D01*
X145919654Y-75783688D01*
G37*
X145919654Y-75783688D02*
X146356000Y-75872050D01*
X147750594Y-75872050D01*
X145506371Y-78116273D01*
X145498839Y-78105000D01*
X145861594Y-77562099D01*
X146006223Y-76835000D01*
X145861594Y-76107901D01*
X145736008Y-75919948D01*
X145891503Y-75764453D01*
X145919654Y-75783688D01*
G36*
X201631400Y-76943144D02*
X199938292Y-75250036D01*
X200090594Y-75022099D01*
X200235223Y-74295000D01*
X200090594Y-73567901D01*
X199964928Y-73379828D01*
X201631400Y-71713356D01*
X201631400Y-76943144D01*
X201631400Y-76943144D01*
G37*
X201631400Y-76943144D02*
X199938292Y-75250036D01*
X200090594Y-75022099D01*
X200235223Y-74295000D01*
X200090594Y-73567901D01*
X199964928Y-73379828D01*
X201631400Y-71713356D01*
X201631400Y-76943144D01*
G36*
X212468750Y-55578835D02*
X212574503Y-55649497D01*
X212645165Y-55755250D01*
X212693000Y-55995730D01*
X212693000Y-56195735D01*
X212022570Y-55917348D01*
X211226921Y-55916654D01*
X210662423Y-56149900D01*
X210419346Y-55983812D01*
X209983000Y-55895450D01*
X208183000Y-55895450D01*
X207775364Y-55972152D01*
X207400976Y-56213064D01*
X207149812Y-56580654D01*
X207061450Y-57017000D01*
X207061450Y-58817000D01*
X207138152Y-59224636D01*
X207379064Y-59599024D01*
X207746654Y-59850188D01*
X208183000Y-59938550D01*
X209983000Y-59938550D01*
X210018837Y-59931807D01*
X203023000Y-66927644D01*
X203023000Y-59545055D01*
X203517529Y-59051388D01*
X203822652Y-58316570D01*
X203823346Y-57520921D01*
X203519506Y-56785571D01*
X202957388Y-56222471D01*
X202222570Y-55917348D01*
X201426921Y-55916654D01*
X200862423Y-56149900D01*
X200619346Y-55983812D01*
X200183000Y-55895450D01*
X198383000Y-55895450D01*
X197975364Y-55972152D01*
X197600976Y-56213064D01*
X197349812Y-56580654D01*
X197261450Y-57017000D01*
X197261450Y-58817000D01*
X197338152Y-59224636D01*
X197579064Y-59599024D01*
X197946654Y-59850188D01*
X198383000Y-59938550D01*
X200183000Y-59938550D01*
X200590636Y-59861848D01*
X200623000Y-59841022D01*
X200623000Y-67192744D01*
X200011892Y-67803852D01*
X199901936Y-67632976D01*
X199534346Y-67381812D01*
X199159746Y-67305954D01*
X199146528Y-67286172D01*
X193223000Y-61362644D01*
X193223000Y-59545055D01*
X193717529Y-59051388D01*
X194022652Y-58316570D01*
X194023346Y-57520921D01*
X193719506Y-56785571D01*
X193157388Y-56222471D01*
X192422570Y-55917348D01*
X191626921Y-55916654D01*
X191062423Y-56149900D01*
X190819346Y-55983812D01*
X190383000Y-55895450D01*
X188583000Y-55895450D01*
X188175364Y-55972152D01*
X187800976Y-56213064D01*
X187549812Y-56580654D01*
X187461450Y-57017000D01*
X187461450Y-58817000D01*
X187538152Y-59224636D01*
X187779064Y-59599024D01*
X188146654Y-59850188D01*
X188583000Y-59938550D01*
X188629609Y-59938550D01*
X188634472Y-59945828D01*
X188688000Y-59999356D01*
X188688000Y-61476648D01*
X188108745Y-62054893D01*
X187788366Y-62826452D01*
X187787637Y-63661883D01*
X188106669Y-64434000D01*
X188696893Y-65025255D01*
X189468452Y-65345634D01*
X190303883Y-65346363D01*
X191076000Y-65027331D01*
X191667255Y-64437107D01*
X191987634Y-63665548D01*
X191987760Y-63521516D01*
X196461458Y-67995214D01*
X196376450Y-68415000D01*
X196376450Y-70015000D01*
X196453152Y-70422636D01*
X196677192Y-70770805D01*
X196505406Y-71027901D01*
X196360777Y-71755000D01*
X196489425Y-72401759D01*
X196231388Y-72143271D01*
X195496570Y-71838148D01*
X194700921Y-71837454D01*
X194136423Y-72070700D01*
X193893346Y-71904612D01*
X193457000Y-71816250D01*
X191657000Y-71816250D01*
X191249364Y-71892952D01*
X190874976Y-72133864D01*
X190623812Y-72501454D01*
X190535450Y-72937800D01*
X190535450Y-74737800D01*
X190612152Y-75145436D01*
X190853064Y-75519824D01*
X191220654Y-75770988D01*
X191357000Y-75798599D01*
X191357000Y-76678286D01*
X191330850Y-76639150D01*
X190949653Y-76384442D01*
X190500000Y-76295000D01*
X186805156Y-76295000D01*
X187335094Y-75765062D01*
X187509430Y-75837452D01*
X188305079Y-75838146D01*
X189040429Y-75534306D01*
X189603529Y-74972188D01*
X189908652Y-74237370D01*
X189909346Y-73441721D01*
X189605506Y-72706371D01*
X189043388Y-72143271D01*
X188308570Y-71838148D01*
X187749400Y-71837660D01*
X187749400Y-71581656D01*
X189485407Y-69845649D01*
X190303883Y-69846363D01*
X191076000Y-69527331D01*
X191667255Y-68937107D01*
X191987634Y-68165548D01*
X191988363Y-67330117D01*
X191669331Y-66558000D01*
X191079107Y-65966745D01*
X190307548Y-65646366D01*
X189472117Y-65645637D01*
X188700000Y-65964669D01*
X188108745Y-66554893D01*
X187788366Y-67326452D01*
X187787648Y-68149296D01*
X185700872Y-70236072D01*
X185440745Y-70625380D01*
X185349400Y-71084600D01*
X185349400Y-71816250D01*
X184469000Y-71816250D01*
X184061364Y-71892952D01*
X183988071Y-71940115D01*
X183856928Y-71808972D01*
X183467620Y-71548845D01*
X183276100Y-71510749D01*
X183276100Y-69845902D01*
X183803883Y-69846363D01*
X184576000Y-69527331D01*
X185167255Y-68937107D01*
X185487634Y-68165548D01*
X185488363Y-67330117D01*
X185169331Y-66558000D01*
X184579107Y-65966745D01*
X183807548Y-65646366D01*
X183276100Y-65645902D01*
X183276100Y-65345902D01*
X183803883Y-65346363D01*
X184576000Y-65027331D01*
X185167255Y-64437107D01*
X185487634Y-63665548D01*
X185488363Y-62830117D01*
X185169331Y-62058000D01*
X184579107Y-61466745D01*
X183807548Y-61146366D01*
X182984704Y-61145648D01*
X181707619Y-59868563D01*
X181823430Y-59916652D01*
X182619079Y-59917346D01*
X183354429Y-59613506D01*
X183917529Y-59051388D01*
X184222652Y-58316570D01*
X184223346Y-57520921D01*
X183919506Y-56785571D01*
X183357388Y-56222471D01*
X182622570Y-55917348D01*
X181826921Y-55916654D01*
X181262423Y-56149900D01*
X181019346Y-55983812D01*
X180583000Y-55895450D01*
X178783000Y-55895450D01*
X178375364Y-55972152D01*
X178000976Y-56213064D01*
X177749812Y-56580654D01*
X177661450Y-57017000D01*
X177661450Y-58817000D01*
X177738152Y-59224636D01*
X177979064Y-59599024D01*
X178346654Y-59850188D01*
X178552806Y-59891935D01*
X178574345Y-60000220D01*
X178834472Y-60389528D01*
X181288351Y-62843407D01*
X181287648Y-63649296D01*
X181227572Y-63709372D01*
X180967445Y-64098680D01*
X180876100Y-64557900D01*
X180876100Y-71457500D01*
X180147800Y-71457500D01*
X179688580Y-71548845D01*
X179299272Y-71808972D01*
X179252252Y-71855992D01*
X179056000Y-71816250D01*
X178166006Y-71816250D01*
X178932879Y-71049377D01*
X179293815Y-70900242D01*
X179673907Y-70520812D01*
X179879865Y-70024810D01*
X179880334Y-69487747D01*
X179675242Y-68991385D01*
X179295812Y-68611293D01*
X178799810Y-68405335D01*
X178262747Y-68404866D01*
X177766385Y-68609958D01*
X177386293Y-68989388D01*
X177273300Y-69261505D01*
X177273300Y-68698800D01*
X177181955Y-68239580D01*
X176921828Y-67850272D01*
X175656828Y-66585272D01*
X175267520Y-66325145D01*
X174808300Y-66233800D01*
X174028908Y-66233800D01*
X174098858Y-66187061D01*
X174521565Y-65554436D01*
X174670000Y-64808203D01*
X174670000Y-64731797D01*
X174521565Y-63985564D01*
X174098858Y-63352939D01*
X173466233Y-62930232D01*
X172720000Y-62781797D01*
X172676000Y-62790549D01*
X172676000Y-61087600D01*
X172584655Y-60628380D01*
X172398300Y-60349480D01*
X172398300Y-59916979D01*
X172819079Y-59917346D01*
X173554429Y-59613506D01*
X174117529Y-59051388D01*
X174422652Y-58316570D01*
X174423346Y-57520921D01*
X174119506Y-56785571D01*
X173557388Y-56222471D01*
X172822570Y-55917348D01*
X172026921Y-55916654D01*
X171860269Y-55985513D01*
X171405756Y-55531000D01*
X212228270Y-55531000D01*
X212468750Y-55578835D01*
X212468750Y-55578835D01*
G37*
X212468750Y-55578835D02*
X212574503Y-55649497D01*
X212645165Y-55755250D01*
X212693000Y-55995730D01*
X212693000Y-56195735D01*
X212022570Y-55917348D01*
X211226921Y-55916654D01*
X210662423Y-56149900D01*
X210419346Y-55983812D01*
X209983000Y-55895450D01*
X208183000Y-55895450D01*
X207775364Y-55972152D01*
X207400976Y-56213064D01*
X207149812Y-56580654D01*
X207061450Y-57017000D01*
X207061450Y-58817000D01*
X207138152Y-59224636D01*
X207379064Y-59599024D01*
X207746654Y-59850188D01*
X208183000Y-59938550D01*
X209983000Y-59938550D01*
X210018837Y-59931807D01*
X203023000Y-66927644D01*
X203023000Y-59545055D01*
X203517529Y-59051388D01*
X203822652Y-58316570D01*
X203823346Y-57520921D01*
X203519506Y-56785571D01*
X202957388Y-56222471D01*
X202222570Y-55917348D01*
X201426921Y-55916654D01*
X200862423Y-56149900D01*
X200619346Y-55983812D01*
X200183000Y-55895450D01*
X198383000Y-55895450D01*
X197975364Y-55972152D01*
X197600976Y-56213064D01*
X197349812Y-56580654D01*
X197261450Y-57017000D01*
X197261450Y-58817000D01*
X197338152Y-59224636D01*
X197579064Y-59599024D01*
X197946654Y-59850188D01*
X198383000Y-59938550D01*
X200183000Y-59938550D01*
X200590636Y-59861848D01*
X200623000Y-59841022D01*
X200623000Y-67192744D01*
X200011892Y-67803852D01*
X199901936Y-67632976D01*
X199534346Y-67381812D01*
X199159746Y-67305954D01*
X199146528Y-67286172D01*
X193223000Y-61362644D01*
X193223000Y-59545055D01*
X193717529Y-59051388D01*
X194022652Y-58316570D01*
X194023346Y-57520921D01*
X193719506Y-56785571D01*
X193157388Y-56222471D01*
X192422570Y-55917348D01*
X191626921Y-55916654D01*
X191062423Y-56149900D01*
X190819346Y-55983812D01*
X190383000Y-55895450D01*
X188583000Y-55895450D01*
X188175364Y-55972152D01*
X187800976Y-56213064D01*
X187549812Y-56580654D01*
X187461450Y-57017000D01*
X187461450Y-58817000D01*
X187538152Y-59224636D01*
X187779064Y-59599024D01*
X188146654Y-59850188D01*
X188583000Y-59938550D01*
X188629609Y-59938550D01*
X188634472Y-59945828D01*
X188688000Y-59999356D01*
X188688000Y-61476648D01*
X188108745Y-62054893D01*
X187788366Y-62826452D01*
X187787637Y-63661883D01*
X188106669Y-64434000D01*
X188696893Y-65025255D01*
X189468452Y-65345634D01*
X190303883Y-65346363D01*
X191076000Y-65027331D01*
X191667255Y-64437107D01*
X191987634Y-63665548D01*
X191987760Y-63521516D01*
X196461458Y-67995214D01*
X196376450Y-68415000D01*
X196376450Y-70015000D01*
X196453152Y-70422636D01*
X196677192Y-70770805D01*
X196505406Y-71027901D01*
X196360777Y-71755000D01*
X196489425Y-72401759D01*
X196231388Y-72143271D01*
X195496570Y-71838148D01*
X194700921Y-71837454D01*
X194136423Y-72070700D01*
X193893346Y-71904612D01*
X193457000Y-71816250D01*
X191657000Y-71816250D01*
X191249364Y-71892952D01*
X190874976Y-72133864D01*
X190623812Y-72501454D01*
X190535450Y-72937800D01*
X190535450Y-74737800D01*
X190612152Y-75145436D01*
X190853064Y-75519824D01*
X191220654Y-75770988D01*
X191357000Y-75798599D01*
X191357000Y-76678286D01*
X191330850Y-76639150D01*
X190949653Y-76384442D01*
X190500000Y-76295000D01*
X186805156Y-76295000D01*
X187335094Y-75765062D01*
X187509430Y-75837452D01*
X188305079Y-75838146D01*
X189040429Y-75534306D01*
X189603529Y-74972188D01*
X189908652Y-74237370D01*
X189909346Y-73441721D01*
X189605506Y-72706371D01*
X189043388Y-72143271D01*
X188308570Y-71838148D01*
X187749400Y-71837660D01*
X187749400Y-71581656D01*
X189485407Y-69845649D01*
X190303883Y-69846363D01*
X191076000Y-69527331D01*
X191667255Y-68937107D01*
X191987634Y-68165548D01*
X191988363Y-67330117D01*
X191669331Y-66558000D01*
X191079107Y-65966745D01*
X190307548Y-65646366D01*
X189472117Y-65645637D01*
X188700000Y-65964669D01*
X188108745Y-66554893D01*
X187788366Y-67326452D01*
X187787648Y-68149296D01*
X185700872Y-70236072D01*
X185440745Y-70625380D01*
X185349400Y-71084600D01*
X185349400Y-71816250D01*
X184469000Y-71816250D01*
X184061364Y-71892952D01*
X183988071Y-71940115D01*
X183856928Y-71808972D01*
X183467620Y-71548845D01*
X183276100Y-71510749D01*
X183276100Y-69845902D01*
X183803883Y-69846363D01*
X184576000Y-69527331D01*
X185167255Y-68937107D01*
X185487634Y-68165548D01*
X185488363Y-67330117D01*
X185169331Y-66558000D01*
X184579107Y-65966745D01*
X183807548Y-65646366D01*
X183276100Y-65645902D01*
X183276100Y-65345902D01*
X183803883Y-65346363D01*
X184576000Y-65027331D01*
X185167255Y-64437107D01*
X185487634Y-63665548D01*
X185488363Y-62830117D01*
X185169331Y-62058000D01*
X184579107Y-61466745D01*
X183807548Y-61146366D01*
X182984704Y-61145648D01*
X181707619Y-59868563D01*
X181823430Y-59916652D01*
X182619079Y-59917346D01*
X183354429Y-59613506D01*
X183917529Y-59051388D01*
X184222652Y-58316570D01*
X184223346Y-57520921D01*
X183919506Y-56785571D01*
X183357388Y-56222471D01*
X182622570Y-55917348D01*
X181826921Y-55916654D01*
X181262423Y-56149900D01*
X181019346Y-55983812D01*
X180583000Y-55895450D01*
X178783000Y-55895450D01*
X178375364Y-55972152D01*
X178000976Y-56213064D01*
X177749812Y-56580654D01*
X177661450Y-57017000D01*
X177661450Y-58817000D01*
X177738152Y-59224636D01*
X177979064Y-59599024D01*
X178346654Y-59850188D01*
X178552806Y-59891935D01*
X178574345Y-60000220D01*
X178834472Y-60389528D01*
X181288351Y-62843407D01*
X181287648Y-63649296D01*
X181227572Y-63709372D01*
X180967445Y-64098680D01*
X180876100Y-64557900D01*
X180876100Y-71457500D01*
X180147800Y-71457500D01*
X179688580Y-71548845D01*
X179299272Y-71808972D01*
X179252252Y-71855992D01*
X179056000Y-71816250D01*
X178166006Y-71816250D01*
X178932879Y-71049377D01*
X179293815Y-70900242D01*
X179673907Y-70520812D01*
X179879865Y-70024810D01*
X179880334Y-69487747D01*
X179675242Y-68991385D01*
X179295812Y-68611293D01*
X178799810Y-68405335D01*
X178262747Y-68404866D01*
X177766385Y-68609958D01*
X177386293Y-68989388D01*
X177273300Y-69261505D01*
X177273300Y-68698800D01*
X177181955Y-68239580D01*
X176921828Y-67850272D01*
X175656828Y-66585272D01*
X175267520Y-66325145D01*
X174808300Y-66233800D01*
X174028908Y-66233800D01*
X174098858Y-66187061D01*
X174521565Y-65554436D01*
X174670000Y-64808203D01*
X174670000Y-64731797D01*
X174521565Y-63985564D01*
X174098858Y-63352939D01*
X173466233Y-62930232D01*
X172720000Y-62781797D01*
X172676000Y-62790549D01*
X172676000Y-61087600D01*
X172584655Y-60628380D01*
X172398300Y-60349480D01*
X172398300Y-59916979D01*
X172819079Y-59917346D01*
X173554429Y-59613506D01*
X174117529Y-59051388D01*
X174422652Y-58316570D01*
X174423346Y-57520921D01*
X174119506Y-56785571D01*
X173557388Y-56222471D01*
X172822570Y-55917348D01*
X172026921Y-55916654D01*
X171860269Y-55985513D01*
X171405756Y-55531000D01*
X212228270Y-55531000D01*
X212468750Y-55578835D01*
G36*
X148579064Y-59599024D02*
X148946654Y-59850188D01*
X149083000Y-59877799D01*
X149083000Y-70326444D01*
X148135701Y-71273743D01*
X148043412Y-71181293D01*
X147547410Y-70975335D01*
X147010347Y-70974866D01*
X146646752Y-71125100D01*
X146497400Y-71125100D01*
X146038180Y-71216445D01*
X145915414Y-71298474D01*
X145861594Y-71027901D01*
X145498839Y-70485000D01*
X145861594Y-69942099D01*
X146006223Y-69215000D01*
X145861594Y-68487901D01*
X145449726Y-67871497D01*
X144833322Y-67459629D01*
X144106223Y-67315000D01*
X144031777Y-67315000D01*
X143304678Y-67459629D01*
X142688274Y-67871497D01*
X142276406Y-68487901D01*
X142131777Y-69215000D01*
X142276406Y-69942099D01*
X142639161Y-70485000D01*
X142276406Y-71027901D01*
X142131777Y-71755000D01*
X142276406Y-72482099D01*
X142401992Y-72670052D01*
X142140172Y-72931872D01*
X141880045Y-73321180D01*
X141788700Y-73780400D01*
X141788700Y-73891344D01*
X139305700Y-76374344D01*
X139305700Y-68364356D01*
X148380151Y-59289905D01*
X148579064Y-59599024D01*
X148579064Y-59599024D01*
G37*
X148579064Y-59599024D02*
X148946654Y-59850188D01*
X149083000Y-59877799D01*
X149083000Y-70326444D01*
X148135701Y-71273743D01*
X148043412Y-71181293D01*
X147547410Y-70975335D01*
X147010347Y-70974866D01*
X146646752Y-71125100D01*
X146497400Y-71125100D01*
X146038180Y-71216445D01*
X145915414Y-71298474D01*
X145861594Y-71027901D01*
X145498839Y-70485000D01*
X145861594Y-69942099D01*
X146006223Y-69215000D01*
X145861594Y-68487901D01*
X145449726Y-67871497D01*
X144833322Y-67459629D01*
X144106223Y-67315000D01*
X144031777Y-67315000D01*
X143304678Y-67459629D01*
X142688274Y-67871497D01*
X142276406Y-68487901D01*
X142131777Y-69215000D01*
X142276406Y-69942099D01*
X142639161Y-70485000D01*
X142276406Y-71027901D01*
X142131777Y-71755000D01*
X142276406Y-72482099D01*
X142401992Y-72670052D01*
X142140172Y-72931872D01*
X141880045Y-73321180D01*
X141788700Y-73780400D01*
X141788700Y-73891344D01*
X139305700Y-76374344D01*
X139305700Y-68364356D01*
X148380151Y-59289905D01*
X148579064Y-59599024D01*
G36*
X156636430Y-75850152D02*
X156744791Y-75850247D01*
X157189544Y-76295000D01*
X155964456Y-76295000D01*
X156475944Y-75783512D01*
X156636430Y-75850152D01*
X156636430Y-75850152D01*
G37*
X156636430Y-75850152D02*
X156744791Y-75850247D01*
X157189544Y-76295000D01*
X155964456Y-76295000D01*
X156475944Y-75783512D01*
X156636430Y-75850152D01*
G36*
X173563161Y-70485000D02*
X173200406Y-71027901D01*
X173055777Y-71755000D01*
X173200406Y-72482099D01*
X173563161Y-73025000D01*
X173200406Y-73567901D01*
X173055777Y-74295000D01*
X173200406Y-75022099D01*
X173337608Y-75227436D01*
X172900100Y-75664944D01*
X172900100Y-71900100D01*
X172808755Y-71440880D01*
X172548628Y-71051572D01*
X171912056Y-70415000D01*
X173516388Y-70415000D01*
X173563161Y-70485000D01*
X173563161Y-70485000D01*
G37*
X173563161Y-70485000D02*
X173200406Y-71027901D01*
X173055777Y-71755000D01*
X173200406Y-72482099D01*
X173563161Y-73025000D01*
X173200406Y-73567901D01*
X173055777Y-74295000D01*
X173200406Y-75022099D01*
X173337608Y-75227436D01*
X172900100Y-75664944D01*
X172900100Y-71900100D01*
X172808755Y-71440880D01*
X172548628Y-71051572D01*
X171912056Y-70415000D01*
X173516388Y-70415000D01*
X173563161Y-70485000D01*
G36*
X132823430Y-69016652D02*
X133619079Y-69017346D01*
X134168700Y-68790248D01*
X134168700Y-72269600D01*
X134260045Y-72728820D01*
X134520172Y-73118128D01*
X134781992Y-73379948D01*
X134656406Y-73567901D01*
X134511777Y-74295000D01*
X134581861Y-74647336D01*
X134357388Y-74422471D01*
X133622570Y-74117348D01*
X132826921Y-74116654D01*
X132262423Y-74349900D01*
X132019346Y-74183812D01*
X131883000Y-74156201D01*
X131883000Y-68982101D01*
X131990636Y-68961848D01*
X132265499Y-68784979D01*
X132823430Y-69016652D01*
X132823430Y-69016652D01*
G37*
X132823430Y-69016652D02*
X133619079Y-69017346D01*
X134168700Y-68790248D01*
X134168700Y-72269600D01*
X134260045Y-72728820D01*
X134520172Y-73118128D01*
X134781992Y-73379948D01*
X134656406Y-73567901D01*
X134511777Y-74295000D01*
X134581861Y-74647336D01*
X134357388Y-74422471D01*
X133622570Y-74117348D01*
X132826921Y-74116654D01*
X132262423Y-74349900D01*
X132019346Y-74183812D01*
X131883000Y-74156201D01*
X131883000Y-68982101D01*
X131990636Y-68961848D01*
X132265499Y-68784979D01*
X132823430Y-69016652D01*
G36*
X170500100Y-72397156D02*
X170500100Y-74644744D01*
X169301828Y-73446472D01*
X168912520Y-73186345D01*
X168910359Y-73185915D01*
X168802839Y-73025000D01*
X169165594Y-72482099D01*
X169310223Y-71755000D01*
X169174222Y-71071278D01*
X170500100Y-72397156D01*
X170500100Y-72397156D01*
G37*
X170500100Y-72397156D02*
X170500100Y-74644744D01*
X169301828Y-73446472D01*
X168912520Y-73186345D01*
X168910359Y-73185915D01*
X168802839Y-73025000D01*
X169165594Y-72482099D01*
X169310223Y-71755000D01*
X169174222Y-71071278D01*
X170500100Y-72397156D01*
G36*
X212693000Y-74395735D02*
X212022570Y-74117348D01*
X211226921Y-74116654D01*
X210662423Y-74349900D01*
X210419346Y-74183812D01*
X210283000Y-74156201D01*
X210283000Y-68982101D01*
X210390636Y-68961848D01*
X210665499Y-68784979D01*
X211223430Y-69016652D01*
X212019079Y-69017346D01*
X212693000Y-68738888D01*
X212693000Y-74395735D01*
X212693000Y-74395735D01*
G37*
X212693000Y-74395735D02*
X212022570Y-74117348D01*
X211226921Y-74116654D01*
X210662423Y-74349900D01*
X210419346Y-74183812D01*
X210283000Y-74156201D01*
X210283000Y-68982101D01*
X210390636Y-68961848D01*
X210665499Y-68784979D01*
X211223430Y-69016652D01*
X212019079Y-69017346D01*
X212693000Y-68738888D01*
X212693000Y-74395735D01*
G36*
X207883000Y-68977799D02*
X207883000Y-74151899D01*
X207828787Y-74162100D01*
X207710594Y-73567901D01*
X207347839Y-73025000D01*
X207710594Y-72482099D01*
X207855223Y-71755000D01*
X207710594Y-71027901D01*
X207347839Y-70485000D01*
X207710594Y-69942099D01*
X207855223Y-69215000D01*
X207804895Y-68961982D01*
X207883000Y-68977799D01*
X207883000Y-68977799D01*
G37*
X207883000Y-68977799D02*
X207883000Y-74151899D01*
X207828787Y-74162100D01*
X207710594Y-73567901D01*
X207347839Y-73025000D01*
X207710594Y-72482099D01*
X207855223Y-71755000D01*
X207710594Y-71027901D01*
X207347839Y-70485000D01*
X207710594Y-69942099D01*
X207855223Y-69215000D01*
X207804895Y-68961982D01*
X207883000Y-68977799D01*
G36*
X158662888Y-71663307D02*
X158872000Y-71750138D01*
X158872000Y-73056673D01*
X158732506Y-72719071D01*
X158170388Y-72155971D01*
X158147633Y-72146523D01*
X158646882Y-71647274D01*
X158662888Y-71663307D01*
X158662888Y-71663307D01*
G37*
X158662888Y-71663307D02*
X158872000Y-71750138D01*
X158872000Y-73056673D01*
X158732506Y-72719071D01*
X158170388Y-72155971D01*
X158147633Y-72146523D01*
X158646882Y-71647274D01*
X158662888Y-71663307D01*
G36*
X164260432Y-71837788D02*
X164114400Y-71837660D01*
X164114400Y-71691756D01*
X164260432Y-71837788D01*
X164260432Y-71837788D01*
G37*
X164260432Y-71837788D02*
X164114400Y-71837660D01*
X164114400Y-71691756D01*
X164260432Y-71837788D01*
G36*
X152565358Y-70869015D02*
X152659411Y-70963233D01*
X152469600Y-71153044D01*
X152469600Y-70637262D01*
X152565358Y-70869015D01*
X152565358Y-70869015D01*
G37*
X152565358Y-70869015D02*
X152659411Y-70963233D01*
X152469600Y-71153044D01*
X152469600Y-70637262D01*
X152565358Y-70869015D01*
G36*
X152510500Y-69474916D02*
X152469600Y-69573414D01*
X152469600Y-69281550D01*
X152510500Y-69281550D01*
X152510500Y-69474916D01*
X152510500Y-69474916D01*
G37*
X152510500Y-69474916D02*
X152469600Y-69573414D01*
X152469600Y-69281550D01*
X152510500Y-69281550D01*
X152510500Y-69474916D01*
G36*
X165193630Y-66056486D02*
X165183945Y-66070980D01*
X165092600Y-66530200D01*
X165092600Y-69275844D01*
X164181171Y-68364415D01*
X164361565Y-68094436D01*
X164510000Y-67348203D01*
X164510000Y-67271797D01*
X164361565Y-66525564D01*
X163938858Y-65892939D01*
X163658895Y-65705874D01*
X163600000Y-65617730D01*
X163600000Y-65319563D01*
X163653145Y-65251572D01*
X163898335Y-64761191D01*
X165193630Y-66056486D01*
X165193630Y-66056486D01*
G37*
X165193630Y-66056486D02*
X165183945Y-66070980D01*
X165092600Y-66530200D01*
X165092600Y-69275844D01*
X164181171Y-68364415D01*
X164361565Y-68094436D01*
X164510000Y-67348203D01*
X164510000Y-67271797D01*
X164361565Y-66525564D01*
X163938858Y-65892939D01*
X163658895Y-65705874D01*
X163600000Y-65617730D01*
X163600000Y-65319563D01*
X163653145Y-65251572D01*
X163898335Y-64761191D01*
X165193630Y-66056486D01*
G36*
X207061450Y-67712954D02*
X206682322Y-67459629D01*
X206017390Y-67327366D01*
X207061450Y-66283306D01*
X207061450Y-67712954D01*
X207061450Y-67712954D01*
G37*
X207061450Y-67712954D02*
X206682322Y-67459629D01*
X206017390Y-67327366D01*
X207061450Y-66283306D01*
X207061450Y-67712954D01*
G36*
X156200000Y-65326391D02*
X156200000Y-65813521D01*
X156140000Y-65773430D01*
X156140000Y-65268389D01*
X156149850Y-65255788D01*
X156200000Y-65326391D01*
X156200000Y-65326391D01*
G37*
X156200000Y-65326391D02*
X156200000Y-65813521D01*
X156140000Y-65773430D01*
X156140000Y-65268389D01*
X156149850Y-65255788D01*
X156200000Y-65326391D01*
G36*
X154811673Y-57492671D02*
X154519506Y-56785571D01*
X153957388Y-56222471D01*
X153222570Y-55917348D01*
X152519791Y-55916735D01*
X152491128Y-55888072D01*
X152101820Y-55627945D01*
X151642600Y-55536600D01*
X149236400Y-55536600D01*
X148777180Y-55627945D01*
X148387872Y-55888072D01*
X138729300Y-65546644D01*
X138729300Y-63907756D01*
X142720319Y-59916737D01*
X143419079Y-59917346D01*
X144154429Y-59613506D01*
X144717529Y-59051388D01*
X145022652Y-58316570D01*
X145023346Y-57520921D01*
X144719506Y-56785571D01*
X144157388Y-56222471D01*
X143422570Y-55917348D01*
X142626921Y-55916654D01*
X142062423Y-56149900D01*
X141819346Y-55983812D01*
X141383000Y-55895450D01*
X139583000Y-55895450D01*
X139175364Y-55972152D01*
X138800976Y-56213064D01*
X138549812Y-56580654D01*
X138461450Y-57017000D01*
X138461450Y-58817000D01*
X138538152Y-59224636D01*
X138779064Y-59599024D01*
X139146654Y-59850188D01*
X139351312Y-59891632D01*
X136680772Y-62562172D01*
X136568700Y-62729900D01*
X136568700Y-60062700D01*
X136477355Y-59603480D01*
X136217228Y-59214172D01*
X135222737Y-58219681D01*
X135223346Y-57520921D01*
X134919506Y-56785571D01*
X134357388Y-56222471D01*
X133622570Y-55917348D01*
X132826921Y-55916654D01*
X132262423Y-56149900D01*
X132019346Y-55983812D01*
X131583000Y-55895450D01*
X129783000Y-55895450D01*
X129699000Y-55911256D01*
X129699000Y-55531000D01*
X156773344Y-55531000D01*
X154811673Y-57492671D01*
X154811673Y-57492671D01*
G37*
X154811673Y-57492671D02*
X154519506Y-56785571D01*
X153957388Y-56222471D01*
X153222570Y-55917348D01*
X152519791Y-55916735D01*
X152491128Y-55888072D01*
X152101820Y-55627945D01*
X151642600Y-55536600D01*
X149236400Y-55536600D01*
X148777180Y-55627945D01*
X148387872Y-55888072D01*
X138729300Y-65546644D01*
X138729300Y-63907756D01*
X142720319Y-59916737D01*
X143419079Y-59917346D01*
X144154429Y-59613506D01*
X144717529Y-59051388D01*
X145022652Y-58316570D01*
X145023346Y-57520921D01*
X144719506Y-56785571D01*
X144157388Y-56222471D01*
X143422570Y-55917348D01*
X142626921Y-55916654D01*
X142062423Y-56149900D01*
X141819346Y-55983812D01*
X141383000Y-55895450D01*
X139583000Y-55895450D01*
X139175364Y-55972152D01*
X138800976Y-56213064D01*
X138549812Y-56580654D01*
X138461450Y-57017000D01*
X138461450Y-58817000D01*
X138538152Y-59224636D01*
X138779064Y-59599024D01*
X139146654Y-59850188D01*
X139351312Y-59891632D01*
X136680772Y-62562172D01*
X136568700Y-62729900D01*
X136568700Y-60062700D01*
X136477355Y-59603480D01*
X136217228Y-59214172D01*
X135222737Y-58219681D01*
X135223346Y-57520921D01*
X134919506Y-56785571D01*
X134357388Y-56222471D01*
X133622570Y-55917348D01*
X132826921Y-55916654D01*
X132262423Y-56149900D01*
X132019346Y-55983812D01*
X131583000Y-55895450D01*
X129783000Y-55895450D01*
X129699000Y-55911256D01*
X129699000Y-55531000D01*
X156773344Y-55531000D01*
X154811673Y-57492671D01*
G36*
X212693000Y-65295735D02*
X212022570Y-65017348D01*
X211226921Y-65016654D01*
X210662423Y-65249900D01*
X210419346Y-65083812D01*
X209983000Y-64995450D01*
X208349306Y-64995450D01*
X212471528Y-60873228D01*
X212693000Y-60541771D01*
X212693000Y-65295735D01*
X212693000Y-65295735D01*
G37*
X212693000Y-65295735D02*
X212022570Y-65017348D01*
X211226921Y-65016654D01*
X210662423Y-65249900D01*
X210419346Y-65083812D01*
X209983000Y-64995450D01*
X208349306Y-64995450D01*
X212471528Y-60873228D01*
X212693000Y-60541771D01*
X212693000Y-65295735D01*
G36*
X132823430Y-59916652D02*
X133526209Y-59917265D01*
X134168700Y-60559756D01*
X134168700Y-65244121D01*
X133622570Y-65017348D01*
X132826921Y-65016654D01*
X132262423Y-65249900D01*
X132019346Y-65083812D01*
X131883000Y-65056201D01*
X131883000Y-59882101D01*
X131990636Y-59861848D01*
X132265499Y-59684979D01*
X132823430Y-59916652D01*
X132823430Y-59916652D01*
G37*
X132823430Y-59916652D02*
X133526209Y-59917265D01*
X134168700Y-60559756D01*
X134168700Y-65244121D01*
X133622570Y-65017348D01*
X132826921Y-65016654D01*
X132262423Y-65249900D01*
X132019346Y-65083812D01*
X131883000Y-65056201D01*
X131883000Y-59882101D01*
X131990636Y-59861848D01*
X132265499Y-59684979D01*
X132823430Y-59916652D01*
G36*
X167861450Y-58817000D02*
X167938152Y-59224636D01*
X168179064Y-59599024D01*
X168546654Y-59850188D01*
X168683000Y-59877799D01*
X168683000Y-63029178D01*
X168547976Y-63116064D01*
X168296812Y-63483654D01*
X168280275Y-63565319D01*
X164041696Y-59326740D01*
X164317529Y-59051388D01*
X164622652Y-58316570D01*
X164623346Y-57520921D01*
X164609991Y-57488600D01*
X167861450Y-57488600D01*
X167861450Y-58817000D01*
X167861450Y-58817000D01*
G37*
X167861450Y-58817000D02*
X167938152Y-59224636D01*
X168179064Y-59599024D01*
X168546654Y-59850188D01*
X168683000Y-59877799D01*
X168683000Y-63029178D01*
X168547976Y-63116064D01*
X168296812Y-63483654D01*
X168280275Y-63565319D01*
X164041696Y-59326740D01*
X164317529Y-59051388D01*
X164622652Y-58316570D01*
X164623346Y-57520921D01*
X164609991Y-57488600D01*
X167861450Y-57488600D01*
X167861450Y-58817000D01*
G36*
X158061450Y-58817000D02*
X158138152Y-59224636D01*
X158379064Y-59599024D01*
X158746654Y-59850188D01*
X159183000Y-59938550D01*
X160983000Y-59938550D01*
X161215623Y-59894779D01*
X162043144Y-60722300D01*
X158227700Y-60722300D01*
X157768480Y-60813645D01*
X157388255Y-61067703D01*
X157078820Y-60860945D01*
X156619600Y-60769600D01*
X156016056Y-60769600D01*
X158061450Y-58724206D01*
X158061450Y-58817000D01*
X158061450Y-58817000D01*
G37*
X158061450Y-58817000D02*
X158138152Y-59224636D01*
X158379064Y-59599024D01*
X158746654Y-59850188D01*
X159183000Y-59938550D01*
X160983000Y-59938550D01*
X161215623Y-59894779D01*
X162043144Y-60722300D01*
X158227700Y-60722300D01*
X157768480Y-60813645D01*
X157388255Y-61067703D01*
X157078820Y-60860945D01*
X156619600Y-60769600D01*
X156016056Y-60769600D01*
X158061450Y-58724206D01*
X158061450Y-58817000D01*
G36*
X152398178Y-59906166D02*
X151483000Y-60821344D01*
X151483000Y-59882101D01*
X151590636Y-59861848D01*
X151865499Y-59684979D01*
X152398178Y-59906166D01*
X152398178Y-59906166D01*
G37*
X152398178Y-59906166D02*
X151483000Y-60821344D01*
X151483000Y-59882101D01*
X151590636Y-59861848D01*
X151865499Y-59684979D01*
X152398178Y-59906166D01*
M02*
