G04 #@! TF.GenerationSoftware,KiCad,Pcbnew,(5.0.0)*
G04 #@! TF.CreationDate,2018-10-09T19:45:50-04:00*
G04 #@! TF.ProjectId,MiniTempleT,4D696E6954656D706C65542E6B696361,rev?*
G04 #@! TF.SameCoordinates,Original*
G04 #@! TF.FileFunction,Legend,Bot*
G04 #@! TF.FilePolarity,Positive*
%FSLAX46Y46*%
G04 Gerber Fmt 4.6, Leading zero omitted, Abs format (unit mm)*
G04 Created by KiCad (PCBNEW (5.0.0)) date 10/09/18 19:45:50*
%MOMM*%
%LPD*%
G01*
G04 APERTURE LIST*
%ADD10C,0.200000*%
%ADD11C,0.300000*%
%ADD12C,0.250000*%
%ADD13C,0.175000*%
%ADD14C,0.150000*%
G04 APERTURE END LIST*
D10*
X206508142Y-65131904D02*
X206774809Y-64750952D01*
X206965285Y-65131904D02*
X206965285Y-64331904D01*
X206660523Y-64331904D01*
X206584333Y-64370000D01*
X206546238Y-64408095D01*
X206508142Y-64484285D01*
X206508142Y-64598571D01*
X206546238Y-64674761D01*
X206584333Y-64712857D01*
X206660523Y-64750952D01*
X206965285Y-64750952D01*
X205860523Y-65093809D02*
X205936714Y-65131904D01*
X206089095Y-65131904D01*
X206165285Y-65093809D01*
X206203380Y-65017619D01*
X206203380Y-64712857D01*
X206165285Y-64636666D01*
X206089095Y-64598571D01*
X205936714Y-64598571D01*
X205860523Y-64636666D01*
X205822428Y-64712857D01*
X205822428Y-64789047D01*
X206203380Y-64865238D01*
X205555761Y-64598571D02*
X205365285Y-65131904D01*
X205174809Y-64598571D01*
X203841476Y-65131904D02*
X204298619Y-65131904D01*
X204070047Y-65131904D02*
X204070047Y-64331904D01*
X204146238Y-64446190D01*
X204222428Y-64522380D01*
X204298619Y-64560476D01*
X203498619Y-65055714D02*
X203460523Y-65093809D01*
X203498619Y-65131904D01*
X203536714Y-65093809D01*
X203498619Y-65055714D01*
X203498619Y-65131904D01*
X203155761Y-64408095D02*
X203117666Y-64370000D01*
X203041476Y-64331904D01*
X202851000Y-64331904D01*
X202774809Y-64370000D01*
X202736714Y-64408095D01*
X202698619Y-64484285D01*
X202698619Y-64560476D01*
X202736714Y-64674761D01*
X203193857Y-65131904D01*
X202698619Y-65131904D01*
D11*
X206916857Y-63670571D02*
X206916857Y-62170571D01*
X206202571Y-62884857D02*
X205702571Y-62884857D01*
X205488285Y-63670571D02*
X206202571Y-63670571D01*
X206202571Y-62170571D01*
X205488285Y-62170571D01*
X204845428Y-62884857D02*
X204345428Y-62884857D01*
X204131142Y-63670571D02*
X204845428Y-63670571D01*
X204845428Y-62170571D01*
X204131142Y-62170571D01*
X203488285Y-62884857D02*
X202988285Y-62884857D01*
X202774000Y-63670571D02*
X203488285Y-63670571D01*
X203488285Y-62170571D01*
X202774000Y-62170571D01*
X201059714Y-63599142D02*
X200845428Y-63670571D01*
X200488285Y-63670571D01*
X200345428Y-63599142D01*
X200274000Y-63527714D01*
X200202571Y-63384857D01*
X200202571Y-63242000D01*
X200274000Y-63099142D01*
X200345428Y-63027714D01*
X200488285Y-62956285D01*
X200774000Y-62884857D01*
X200916857Y-62813428D01*
X200988285Y-62742000D01*
X201059714Y-62599142D01*
X201059714Y-62456285D01*
X200988285Y-62313428D01*
X200916857Y-62242000D01*
X200774000Y-62170571D01*
X200416857Y-62170571D01*
X200202571Y-62242000D01*
X199345428Y-63670571D02*
X199488285Y-63599142D01*
X199559714Y-63527714D01*
X199631142Y-63384857D01*
X199631142Y-62956285D01*
X199559714Y-62813428D01*
X199488285Y-62742000D01*
X199345428Y-62670571D01*
X199131142Y-62670571D01*
X198988285Y-62742000D01*
X198916857Y-62813428D01*
X198845428Y-62956285D01*
X198845428Y-63384857D01*
X198916857Y-63527714D01*
X198988285Y-63599142D01*
X199131142Y-63670571D01*
X199345428Y-63670571D01*
X197988285Y-63670571D02*
X198131142Y-63599142D01*
X198202571Y-63456285D01*
X198202571Y-62170571D01*
X196774000Y-63670571D02*
X196774000Y-62170571D01*
X196774000Y-63599142D02*
X196916857Y-63670571D01*
X197202571Y-63670571D01*
X197345428Y-63599142D01*
X197416857Y-63527714D01*
X197488285Y-63384857D01*
X197488285Y-62956285D01*
X197416857Y-62813428D01*
X197345428Y-62742000D01*
X197202571Y-62670571D01*
X196916857Y-62670571D01*
X196774000Y-62742000D01*
X195488285Y-63599142D02*
X195631142Y-63670571D01*
X195916857Y-63670571D01*
X196059714Y-63599142D01*
X196131142Y-63456285D01*
X196131142Y-62884857D01*
X196059714Y-62742000D01*
X195916857Y-62670571D01*
X195631142Y-62670571D01*
X195488285Y-62742000D01*
X195416857Y-62884857D01*
X195416857Y-63027714D01*
X196131142Y-63170571D01*
X194774000Y-63670571D02*
X194774000Y-62670571D01*
X194774000Y-62956285D02*
X194702571Y-62813428D01*
X194631142Y-62742000D01*
X194488285Y-62670571D01*
X194345428Y-62670571D01*
X193845428Y-63670571D02*
X193845428Y-62670571D01*
X193845428Y-62170571D02*
X193916857Y-62242000D01*
X193845428Y-62313428D01*
X193774000Y-62242000D01*
X193845428Y-62170571D01*
X193845428Y-62313428D01*
X193131142Y-62670571D02*
X193131142Y-63670571D01*
X193131142Y-62813428D02*
X193059714Y-62742000D01*
X192916857Y-62670571D01*
X192702571Y-62670571D01*
X192559714Y-62742000D01*
X192488285Y-62884857D01*
X192488285Y-63670571D01*
X191131142Y-62670571D02*
X191131142Y-63884857D01*
X191202571Y-64027714D01*
X191274000Y-64099142D01*
X191416857Y-64170571D01*
X191631142Y-64170571D01*
X191774000Y-64099142D01*
X191131142Y-63599142D02*
X191274000Y-63670571D01*
X191559714Y-63670571D01*
X191702571Y-63599142D01*
X191774000Y-63527714D01*
X191845428Y-63384857D01*
X191845428Y-62956285D01*
X191774000Y-62813428D01*
X191702571Y-62742000D01*
X191559714Y-62670571D01*
X191274000Y-62670571D01*
X191131142Y-62742000D01*
X189274000Y-62884857D02*
X188774000Y-62884857D01*
X188559714Y-63670571D02*
X189274000Y-63670571D01*
X189274000Y-62170571D01*
X188559714Y-62170571D01*
X188059714Y-62670571D02*
X187702571Y-63670571D01*
X187345428Y-62670571D01*
X186202571Y-63599142D02*
X186345428Y-63670571D01*
X186631142Y-63670571D01*
X186774000Y-63599142D01*
X186845428Y-63456285D01*
X186845428Y-62884857D01*
X186774000Y-62742000D01*
X186631142Y-62670571D01*
X186345428Y-62670571D01*
X186202571Y-62742000D01*
X186131142Y-62884857D01*
X186131142Y-63027714D01*
X186845428Y-63170571D01*
X185488285Y-62670571D02*
X185488285Y-63670571D01*
X185488285Y-62813428D02*
X185416857Y-62742000D01*
X185274000Y-62670571D01*
X185059714Y-62670571D01*
X184916857Y-62742000D01*
X184845428Y-62884857D01*
X184845428Y-63670571D01*
X184345428Y-62670571D02*
X183774000Y-62670571D01*
X184131142Y-62170571D02*
X184131142Y-63456285D01*
X184059714Y-63599142D01*
X183916857Y-63670571D01*
X183774000Y-63670571D01*
X182202571Y-62313428D02*
X182131142Y-62242000D01*
X181988285Y-62170571D01*
X181631142Y-62170571D01*
X181488285Y-62242000D01*
X181416857Y-62313428D01*
X181345428Y-62456285D01*
X181345428Y-62599142D01*
X181416857Y-62813428D01*
X182274000Y-63670571D01*
X181345428Y-63670571D01*
X180416857Y-62170571D02*
X180274000Y-62170571D01*
X180131142Y-62242000D01*
X180059714Y-62313428D01*
X179988285Y-62456285D01*
X179916857Y-62742000D01*
X179916857Y-63099142D01*
X179988285Y-63384857D01*
X180059714Y-63527714D01*
X180131142Y-63599142D01*
X180274000Y-63670571D01*
X180416857Y-63670571D01*
X180559714Y-63599142D01*
X180631142Y-63527714D01*
X180702571Y-63384857D01*
X180774000Y-63099142D01*
X180774000Y-62742000D01*
X180702571Y-62456285D01*
X180631142Y-62313428D01*
X180559714Y-62242000D01*
X180416857Y-62170571D01*
X178488285Y-63670571D02*
X179345428Y-63670571D01*
X178916857Y-63670571D02*
X178916857Y-62170571D01*
X179059714Y-62384857D01*
X179202571Y-62527714D01*
X179345428Y-62599142D01*
X177631142Y-62813428D02*
X177774000Y-62742000D01*
X177845428Y-62670571D01*
X177916857Y-62527714D01*
X177916857Y-62456285D01*
X177845428Y-62313428D01*
X177774000Y-62242000D01*
X177631142Y-62170571D01*
X177345428Y-62170571D01*
X177202571Y-62242000D01*
X177131142Y-62313428D01*
X177059714Y-62456285D01*
X177059714Y-62527714D01*
X177131142Y-62670571D01*
X177202571Y-62742000D01*
X177345428Y-62813428D01*
X177631142Y-62813428D01*
X177774000Y-62884857D01*
X177845428Y-62956285D01*
X177916857Y-63099142D01*
X177916857Y-63384857D01*
X177845428Y-63527714D01*
X177774000Y-63599142D01*
X177631142Y-63670571D01*
X177345428Y-63670571D01*
X177202571Y-63599142D01*
X177131142Y-63527714D01*
X177059714Y-63384857D01*
X177059714Y-63099142D01*
X177131142Y-62956285D01*
X177202571Y-62884857D01*
X177345428Y-62813428D01*
D12*
X177168404Y-104842571D02*
X176835071Y-106342571D01*
X176501738Y-104842571D01*
X175596976Y-106199714D02*
X175644595Y-106271142D01*
X175787452Y-106342571D01*
X175882690Y-106342571D01*
X176025547Y-106271142D01*
X176120785Y-106128285D01*
X176168404Y-105985428D01*
X176216023Y-105699714D01*
X176216023Y-105485428D01*
X176168404Y-105199714D01*
X176120785Y-105056857D01*
X176025547Y-104914000D01*
X175882690Y-104842571D01*
X175787452Y-104842571D01*
X175644595Y-104914000D01*
X175596976Y-104985428D01*
X174596976Y-106199714D02*
X174644595Y-106271142D01*
X174787452Y-106342571D01*
X174882690Y-106342571D01*
X175025547Y-106271142D01*
X175120785Y-106128285D01*
X175168404Y-105985428D01*
X175216023Y-105699714D01*
X175216023Y-105485428D01*
X175168404Y-105199714D01*
X175120785Y-105056857D01*
X175025547Y-104914000D01*
X174882690Y-104842571D01*
X174787452Y-104842571D01*
X174644595Y-104914000D01*
X174596976Y-104985428D01*
D11*
X172466320Y-68264577D02*
X172252034Y-68336005D01*
X172180605Y-68407434D01*
X172109177Y-68550291D01*
X172109177Y-68764577D01*
X172180605Y-68907434D01*
X172252034Y-68978862D01*
X172394891Y-69050291D01*
X172966320Y-69050291D01*
X172966320Y-67550291D01*
X172466320Y-67550291D01*
X172323462Y-67621720D01*
X172252034Y-67693148D01*
X172180605Y-67836005D01*
X172180605Y-67978862D01*
X172252034Y-68121720D01*
X172323462Y-68193148D01*
X172466320Y-68264577D01*
X172966320Y-68264577D01*
X171680605Y-67550291D02*
X170823462Y-67550291D01*
X171252034Y-69050291D02*
X171252034Y-67550291D01*
X170323462Y-69050291D02*
X170323462Y-67550291D01*
X169466320Y-69050291D01*
X169466320Y-67550291D01*
D13*
X174044535Y-122033071D02*
X173744535Y-123533071D01*
X173444535Y-122033071D01*
X172630250Y-123390214D02*
X172673107Y-123461642D01*
X172801678Y-123533071D01*
X172887392Y-123533071D01*
X173015964Y-123461642D01*
X173101678Y-123318785D01*
X173144535Y-123175928D01*
X173187392Y-122890214D01*
X173187392Y-122675928D01*
X173144535Y-122390214D01*
X173101678Y-122247357D01*
X173015964Y-122104500D01*
X172887392Y-122033071D01*
X172801678Y-122033071D01*
X172673107Y-122104500D01*
X172630250Y-122175928D01*
X171730250Y-123390214D02*
X171773107Y-123461642D01*
X171901678Y-123533071D01*
X171987392Y-123533071D01*
X172115964Y-123461642D01*
X172201678Y-123318785D01*
X172244535Y-123175928D01*
X172287392Y-122890214D01*
X172287392Y-122675928D01*
X172244535Y-122390214D01*
X172201678Y-122247357D01*
X172115964Y-122104500D01*
X171987392Y-122033071D01*
X171901678Y-122033071D01*
X171773107Y-122104500D01*
X171730250Y-122175928D01*
X170144535Y-123533071D02*
X170444535Y-122818785D01*
X170658821Y-123533071D02*
X170658821Y-122033071D01*
X170315964Y-122033071D01*
X170230250Y-122104500D01*
X170187392Y-122175928D01*
X170144535Y-122318785D01*
X170144535Y-122533071D01*
X170187392Y-122675928D01*
X170230250Y-122747357D01*
X170315964Y-122818785D01*
X170658821Y-122818785D01*
X169801678Y-123461642D02*
X169673107Y-123533071D01*
X169458821Y-123533071D01*
X169373107Y-123461642D01*
X169330250Y-123390214D01*
X169287392Y-123247357D01*
X169287392Y-123104500D01*
X169330250Y-122961642D01*
X169373107Y-122890214D01*
X169458821Y-122818785D01*
X169630250Y-122747357D01*
X169715964Y-122675928D01*
X169758821Y-122604500D01*
X169801678Y-122461642D01*
X169801678Y-122318785D01*
X169758821Y-122175928D01*
X169715964Y-122104500D01*
X169630250Y-122033071D01*
X169415964Y-122033071D01*
X169287392Y-122104500D01*
X169030250Y-122033071D02*
X168515964Y-122033071D01*
X168773107Y-123533071D02*
X168773107Y-122033071D01*
X173401678Y-125958071D02*
X173701678Y-125243785D01*
X173915964Y-125958071D02*
X173915964Y-124458071D01*
X173573107Y-124458071D01*
X173487392Y-124529500D01*
X173444535Y-124600928D01*
X173401678Y-124743785D01*
X173401678Y-124958071D01*
X173444535Y-125100928D01*
X173487392Y-125172357D01*
X173573107Y-125243785D01*
X173915964Y-125243785D01*
X172501678Y-125815214D02*
X172544535Y-125886642D01*
X172673107Y-125958071D01*
X172758821Y-125958071D01*
X172887392Y-125886642D01*
X172973107Y-125743785D01*
X173015964Y-125600928D01*
X173058821Y-125315214D01*
X173058821Y-125100928D01*
X173015964Y-124815214D01*
X172973107Y-124672357D01*
X172887392Y-124529500D01*
X172758821Y-124458071D01*
X172673107Y-124458071D01*
X172544535Y-124529500D01*
X172501678Y-124600928D01*
X171687392Y-125958071D02*
X172115964Y-125958071D01*
X172115964Y-124458071D01*
X171387392Y-125958071D02*
X171387392Y-124458071D01*
X170873107Y-125958071D02*
X171258821Y-125100928D01*
X170873107Y-124458071D02*
X171387392Y-125315214D01*
X169630250Y-124458071D02*
X169458821Y-124458071D01*
X169373107Y-124529500D01*
X169287392Y-124672357D01*
X169244535Y-124958071D01*
X169244535Y-125458071D01*
X169287392Y-125743785D01*
X169373107Y-125886642D01*
X169458821Y-125958071D01*
X169630250Y-125958071D01*
X169715964Y-125886642D01*
X169801678Y-125743785D01*
X169844535Y-125458071D01*
X169844535Y-124958071D01*
X169801678Y-124672357D01*
X169715964Y-124529500D01*
X169630250Y-124458071D01*
X168858821Y-125172357D02*
X168558821Y-125172357D01*
X168430250Y-125958071D02*
X168858821Y-125958071D01*
X168858821Y-124458071D01*
X168430250Y-124458071D01*
X173401678Y-128240214D02*
X173444535Y-128311642D01*
X173573107Y-128383071D01*
X173658821Y-128383071D01*
X173787392Y-128311642D01*
X173873107Y-128168785D01*
X173915964Y-128025928D01*
X173958821Y-127740214D01*
X173958821Y-127525928D01*
X173915964Y-127240214D01*
X173873107Y-127097357D01*
X173787392Y-126954500D01*
X173658821Y-126883071D01*
X173573107Y-126883071D01*
X173444535Y-126954500D01*
X173401678Y-127025928D01*
X172587392Y-128383071D02*
X173015964Y-128383071D01*
X173015964Y-126883071D01*
X172287392Y-128383071D02*
X172287392Y-126883071D01*
X171773107Y-128383071D02*
X172158821Y-127525928D01*
X171773107Y-126883071D02*
X172287392Y-127740214D01*
X170401678Y-127597357D02*
X170273107Y-127668785D01*
X170230250Y-127740214D01*
X170187392Y-127883071D01*
X170187392Y-128097357D01*
X170230250Y-128240214D01*
X170273107Y-128311642D01*
X170358821Y-128383071D01*
X170701678Y-128383071D01*
X170701678Y-126883071D01*
X170401678Y-126883071D01*
X170315964Y-126954500D01*
X170273107Y-127025928D01*
X170230250Y-127168785D01*
X170230250Y-127311642D01*
X170273107Y-127454500D01*
X170315964Y-127525928D01*
X170401678Y-127597357D01*
X170701678Y-127597357D01*
X169930250Y-126883071D02*
X169415964Y-126883071D01*
X169673107Y-128383071D02*
X169673107Y-126883071D01*
X169115964Y-128383071D02*
X169115964Y-126883071D01*
X168601678Y-128383071D01*
X168601678Y-126883071D01*
X173915964Y-130808071D02*
X173915964Y-129308071D01*
X173701678Y-129308071D01*
X173573107Y-129379500D01*
X173487392Y-129522357D01*
X173444535Y-129665214D01*
X173401678Y-129950928D01*
X173401678Y-130165214D01*
X173444535Y-130450928D01*
X173487392Y-130593785D01*
X173573107Y-130736642D01*
X173701678Y-130808071D01*
X173915964Y-130808071D01*
X173058821Y-130379500D02*
X172630250Y-130379500D01*
X173144535Y-130808071D02*
X172844535Y-129308071D01*
X172544535Y-130808071D01*
X172373107Y-129308071D02*
X171858821Y-129308071D01*
X172115964Y-130808071D02*
X172115964Y-129308071D01*
X170401678Y-129379500D02*
X170487392Y-129308071D01*
X170615964Y-129308071D01*
X170744535Y-129379500D01*
X170830250Y-129522357D01*
X170873107Y-129665214D01*
X170915964Y-129950928D01*
X170915964Y-130165214D01*
X170873107Y-130450928D01*
X170830250Y-130593785D01*
X170744535Y-130736642D01*
X170615964Y-130808071D01*
X170530250Y-130808071D01*
X170401678Y-130736642D01*
X170358821Y-130665214D01*
X170358821Y-130165214D01*
X170530250Y-130165214D01*
X169973107Y-130808071D02*
X169973107Y-129308071D01*
X169458821Y-130808071D01*
X169458821Y-129308071D01*
X169030250Y-130808071D02*
X169030250Y-129308071D01*
X168815964Y-129308071D01*
X168687392Y-129379500D01*
X168601678Y-129522357D01*
X168558821Y-129665214D01*
X168515964Y-129950928D01*
X168515964Y-130165214D01*
X168558821Y-130450928D01*
X168601678Y-130593785D01*
X168687392Y-130736642D01*
X168815964Y-130808071D01*
X169030250Y-130808071D01*
D11*
X173196000Y-115510571D02*
X172696000Y-117010571D01*
X172196000Y-115510571D01*
X170838857Y-116867714D02*
X170910285Y-116939142D01*
X171124571Y-117010571D01*
X171267428Y-117010571D01*
X171481714Y-116939142D01*
X171624571Y-116796285D01*
X171696000Y-116653428D01*
X171767428Y-116367714D01*
X171767428Y-116153428D01*
X171696000Y-115867714D01*
X171624571Y-115724857D01*
X171481714Y-115582000D01*
X171267428Y-115510571D01*
X171124571Y-115510571D01*
X170910285Y-115582000D01*
X170838857Y-115653428D01*
X169338857Y-116867714D02*
X169410285Y-116939142D01*
X169624571Y-117010571D01*
X169767428Y-117010571D01*
X169981714Y-116939142D01*
X170124571Y-116796285D01*
X170196000Y-116653428D01*
X170267428Y-116367714D01*
X170267428Y-116153428D01*
X170196000Y-115867714D01*
X170124571Y-115724857D01*
X169981714Y-115582000D01*
X169767428Y-115510571D01*
X169624571Y-115510571D01*
X169410285Y-115582000D01*
X169338857Y-115653428D01*
X172338857Y-101866000D02*
X172481714Y-101794571D01*
X172696000Y-101794571D01*
X172910285Y-101866000D01*
X173053142Y-102008857D01*
X173124571Y-102151714D01*
X173196000Y-102437428D01*
X173196000Y-102651714D01*
X173124571Y-102937428D01*
X173053142Y-103080285D01*
X172910285Y-103223142D01*
X172696000Y-103294571D01*
X172553142Y-103294571D01*
X172338857Y-103223142D01*
X172267428Y-103151714D01*
X172267428Y-102651714D01*
X172553142Y-102651714D01*
X171624571Y-103294571D02*
X171624571Y-101794571D01*
X170767428Y-103294571D01*
X170767428Y-101794571D01*
X170053142Y-103294571D02*
X170053142Y-101794571D01*
X169696000Y-101794571D01*
X169481714Y-101866000D01*
X169338857Y-102008857D01*
X169267428Y-102151714D01*
X169196000Y-102437428D01*
X169196000Y-102651714D01*
X169267428Y-102937428D01*
X169338857Y-103080285D01*
X169481714Y-103223142D01*
X169696000Y-103294571D01*
X170053142Y-103294571D01*
D10*
X182120953Y-107696000D02*
G75*
G03X182120953Y-107696000I-10924953J0D01*
G01*
D12*
X167294214Y-105041000D02*
X167389452Y-104969571D01*
X167532309Y-104969571D01*
X167675166Y-105041000D01*
X167770404Y-105183857D01*
X167818023Y-105326714D01*
X167865642Y-105612428D01*
X167865642Y-105826714D01*
X167818023Y-106112428D01*
X167770404Y-106255285D01*
X167675166Y-106398142D01*
X167532309Y-106469571D01*
X167437071Y-106469571D01*
X167294214Y-106398142D01*
X167246595Y-106326714D01*
X167246595Y-105826714D01*
X167437071Y-105826714D01*
X166818023Y-106469571D02*
X166818023Y-104969571D01*
X166246595Y-106469571D01*
X166246595Y-104969571D01*
X165770404Y-106469571D02*
X165770404Y-104969571D01*
X165532309Y-104969571D01*
X165389452Y-105041000D01*
X165294214Y-105183857D01*
X165246595Y-105326714D01*
X165198976Y-105612428D01*
X165198976Y-105826714D01*
X165246595Y-106112428D01*
X165294214Y-106255285D01*
X165389452Y-106398142D01*
X165532309Y-106469571D01*
X165770404Y-106469571D01*
X148205571Y-60829642D02*
X146705571Y-60829642D01*
X146705571Y-61067738D01*
X146777000Y-61210595D01*
X146919857Y-61305833D01*
X147062714Y-61353452D01*
X147348428Y-61401071D01*
X147562714Y-61401071D01*
X147848428Y-61353452D01*
X147991285Y-61305833D01*
X148134142Y-61210595D01*
X148205571Y-61067738D01*
X148205571Y-60829642D01*
X148205571Y-62258214D02*
X147419857Y-62258214D01*
X147277000Y-62210595D01*
X147205571Y-62115357D01*
X147205571Y-61924880D01*
X147277000Y-61829642D01*
X148134142Y-62258214D02*
X148205571Y-62162976D01*
X148205571Y-61924880D01*
X148134142Y-61829642D01*
X147991285Y-61782023D01*
X147848428Y-61782023D01*
X147705571Y-61829642D01*
X147634142Y-61924880D01*
X147634142Y-62162976D01*
X147562714Y-62258214D01*
X147205571Y-62591547D02*
X147205571Y-62972500D01*
X146705571Y-62734404D02*
X147991285Y-62734404D01*
X148134142Y-62782023D01*
X148205571Y-62877261D01*
X148205571Y-62972500D01*
X148205571Y-63734404D02*
X147419857Y-63734404D01*
X147277000Y-63686785D01*
X147205571Y-63591547D01*
X147205571Y-63401071D01*
X147277000Y-63305833D01*
X148134142Y-63734404D02*
X148205571Y-63639166D01*
X148205571Y-63401071D01*
X148134142Y-63305833D01*
X147991285Y-63258214D01*
X147848428Y-63258214D01*
X147705571Y-63305833D01*
X147634142Y-63401071D01*
X147634142Y-63639166D01*
X147562714Y-63734404D01*
X150562714Y-60686785D02*
X150634142Y-60639166D01*
X150705571Y-60496309D01*
X150705571Y-60401071D01*
X150634142Y-60258214D01*
X150491285Y-60162976D01*
X150348428Y-60115357D01*
X150062714Y-60067738D01*
X149848428Y-60067738D01*
X149562714Y-60115357D01*
X149419857Y-60162976D01*
X149277000Y-60258214D01*
X149205571Y-60401071D01*
X149205571Y-60496309D01*
X149277000Y-60639166D01*
X149348428Y-60686785D01*
X150705571Y-61258214D02*
X150634142Y-61162976D01*
X150491285Y-61115357D01*
X149205571Y-61115357D01*
X150705571Y-61782023D02*
X150634142Y-61686785D01*
X150562714Y-61639166D01*
X150419857Y-61591547D01*
X149991285Y-61591547D01*
X149848428Y-61639166D01*
X149777000Y-61686785D01*
X149705571Y-61782023D01*
X149705571Y-61924880D01*
X149777000Y-62020119D01*
X149848428Y-62067738D01*
X149991285Y-62115357D01*
X150419857Y-62115357D01*
X150562714Y-62067738D01*
X150634142Y-62020119D01*
X150705571Y-61924880D01*
X150705571Y-61782023D01*
X150634142Y-62972500D02*
X150705571Y-62877261D01*
X150705571Y-62686785D01*
X150634142Y-62591547D01*
X150562714Y-62543928D01*
X150419857Y-62496309D01*
X149991285Y-62496309D01*
X149848428Y-62543928D01*
X149777000Y-62591547D01*
X149705571Y-62686785D01*
X149705571Y-62877261D01*
X149777000Y-62972500D01*
X150705571Y-63401071D02*
X149205571Y-63401071D01*
X150134142Y-63496309D02*
X150705571Y-63782023D01*
X149705571Y-63782023D02*
X150277000Y-63401071D01*
X153205571Y-60686785D02*
X152491285Y-60353452D01*
X153205571Y-60115357D02*
X151705571Y-60115357D01*
X151705571Y-60496309D01*
X151777000Y-60591547D01*
X151848428Y-60639166D01*
X151991285Y-60686785D01*
X152205571Y-60686785D01*
X152348428Y-60639166D01*
X152419857Y-60591547D01*
X152491285Y-60496309D01*
X152491285Y-60115357D01*
X153134142Y-61496309D02*
X153205571Y-61401071D01*
X153205571Y-61210595D01*
X153134142Y-61115357D01*
X152991285Y-61067738D01*
X152419857Y-61067738D01*
X152277000Y-61115357D01*
X152205571Y-61210595D01*
X152205571Y-61401071D01*
X152277000Y-61496309D01*
X152419857Y-61543928D01*
X152562714Y-61543928D01*
X152705571Y-61067738D01*
X153134142Y-61924880D02*
X153205571Y-62020119D01*
X153205571Y-62210595D01*
X153134142Y-62305833D01*
X152991285Y-62353452D01*
X152919857Y-62353452D01*
X152777000Y-62305833D01*
X152705571Y-62210595D01*
X152705571Y-62067738D01*
X152634142Y-61972500D01*
X152491285Y-61924880D01*
X152419857Y-61924880D01*
X152277000Y-61972500D01*
X152205571Y-62067738D01*
X152205571Y-62210595D01*
X152277000Y-62305833D01*
X153134142Y-63162976D02*
X153205571Y-63067738D01*
X153205571Y-62877261D01*
X153134142Y-62782023D01*
X152991285Y-62734404D01*
X152419857Y-62734404D01*
X152277000Y-62782023D01*
X152205571Y-62877261D01*
X152205571Y-63067738D01*
X152277000Y-63162976D01*
X152419857Y-63210595D01*
X152562714Y-63210595D01*
X152705571Y-62734404D01*
X152205571Y-63496309D02*
X152205571Y-63877261D01*
X151705571Y-63639166D02*
X152991285Y-63639166D01*
X153134142Y-63686785D01*
X153205571Y-63782023D01*
X153205571Y-63877261D01*
X155705571Y-59210595D02*
X154991285Y-58877261D01*
X155705571Y-58639166D02*
X154205571Y-58639166D01*
X154205571Y-59020119D01*
X154277000Y-59115357D01*
X154348428Y-59162976D01*
X154491285Y-59210595D01*
X154705571Y-59210595D01*
X154848428Y-59162976D01*
X154919857Y-59115357D01*
X154991285Y-59020119D01*
X154991285Y-58639166D01*
X155562714Y-59639166D02*
X155634142Y-59686785D01*
X155705571Y-59639166D01*
X155634142Y-59591547D01*
X155562714Y-59639166D01*
X155705571Y-59639166D01*
X155562714Y-60686785D02*
X155634142Y-60639166D01*
X155705571Y-60496309D01*
X155705571Y-60401071D01*
X155634142Y-60258214D01*
X155491285Y-60162976D01*
X155348428Y-60115357D01*
X155062714Y-60067738D01*
X154848428Y-60067738D01*
X154562714Y-60115357D01*
X154419857Y-60162976D01*
X154277000Y-60258214D01*
X154205571Y-60401071D01*
X154205571Y-60496309D01*
X154277000Y-60639166D01*
X154348428Y-60686785D01*
X155705571Y-61258214D02*
X155634142Y-61162976D01*
X155491285Y-61115357D01*
X154205571Y-61115357D01*
X155705571Y-61782023D02*
X155634142Y-61686785D01*
X155562714Y-61639166D01*
X155419857Y-61591547D01*
X154991285Y-61591547D01*
X154848428Y-61639166D01*
X154777000Y-61686785D01*
X154705571Y-61782023D01*
X154705571Y-61924880D01*
X154777000Y-62020119D01*
X154848428Y-62067738D01*
X154991285Y-62115357D01*
X155419857Y-62115357D01*
X155562714Y-62067738D01*
X155634142Y-62020119D01*
X155705571Y-61924880D01*
X155705571Y-61782023D01*
X155634142Y-62972500D02*
X155705571Y-62877261D01*
X155705571Y-62686785D01*
X155634142Y-62591547D01*
X155562714Y-62543928D01*
X155419857Y-62496309D01*
X154991285Y-62496309D01*
X154848428Y-62543928D01*
X154777000Y-62591547D01*
X154705571Y-62686785D01*
X154705571Y-62877261D01*
X154777000Y-62972500D01*
X155705571Y-63401071D02*
X154205571Y-63401071D01*
X155134142Y-63496309D02*
X155705571Y-63782023D01*
X154705571Y-63782023D02*
X155277000Y-63401071D01*
X156705571Y-62448690D02*
X156705571Y-62639166D01*
X156777000Y-62734404D01*
X156919857Y-62829642D01*
X157205571Y-62877261D01*
X157705571Y-62877261D01*
X157991285Y-62829642D01*
X158134142Y-62734404D01*
X158205571Y-62639166D01*
X158205571Y-62448690D01*
X158134142Y-62353452D01*
X157991285Y-62258214D01*
X157705571Y-62210595D01*
X157205571Y-62210595D01*
X156919857Y-62258214D01*
X156777000Y-62353452D01*
X156705571Y-62448690D01*
X157419857Y-63305833D02*
X157419857Y-63639166D01*
X158205571Y-63782023D02*
X158205571Y-63305833D01*
X156705571Y-63305833D01*
X156705571Y-63782023D01*
G04 #@! TO.C,Shift2*
D14*
X204731333Y-68667380D02*
X204398000Y-69667380D01*
X204064666Y-68667380D01*
X203159904Y-69572142D02*
X203207523Y-69619761D01*
X203350380Y-69667380D01*
X203445619Y-69667380D01*
X203588476Y-69619761D01*
X203683714Y-69524523D01*
X203731333Y-69429285D01*
X203778952Y-69238809D01*
X203778952Y-69095952D01*
X203731333Y-68905476D01*
X203683714Y-68810238D01*
X203588476Y-68715000D01*
X203445619Y-68667380D01*
X203350380Y-68667380D01*
X203207523Y-68715000D01*
X203159904Y-68762619D01*
X202159904Y-69572142D02*
X202207523Y-69619761D01*
X202350380Y-69667380D01*
X202445619Y-69667380D01*
X202588476Y-69619761D01*
X202683714Y-69524523D01*
X202731333Y-69429285D01*
X202778952Y-69238809D01*
X202778952Y-69095952D01*
X202731333Y-68905476D01*
X202683714Y-68810238D01*
X202588476Y-68715000D01*
X202445619Y-68667380D01*
X202350380Y-68667380D01*
X202207523Y-68715000D01*
X202159904Y-68762619D01*
X203793238Y-72162619D02*
X203888476Y-72115000D01*
X203983714Y-72019761D01*
X204126571Y-71876904D01*
X204221809Y-71829285D01*
X204317047Y-71829285D01*
X204269428Y-72067380D02*
X204364666Y-72019761D01*
X204459904Y-71924523D01*
X204507523Y-71734047D01*
X204507523Y-71400714D01*
X204459904Y-71210238D01*
X204364666Y-71115000D01*
X204269428Y-71067380D01*
X204078952Y-71067380D01*
X203983714Y-71115000D01*
X203888476Y-71210238D01*
X203840857Y-71400714D01*
X203840857Y-71734047D01*
X203888476Y-71924523D01*
X203983714Y-72019761D01*
X204078952Y-72067380D01*
X204269428Y-72067380D01*
X203221809Y-71067380D02*
X203126571Y-71067380D01*
X203031333Y-71115000D01*
X202983714Y-71162619D01*
X202936095Y-71257857D01*
X202888476Y-71448333D01*
X202888476Y-71686428D01*
X202936095Y-71876904D01*
X202983714Y-71972142D01*
X203031333Y-72019761D01*
X203126571Y-72067380D01*
X203221809Y-72067380D01*
X203317047Y-72019761D01*
X203364666Y-71972142D01*
X203412285Y-71876904D01*
X203459904Y-71686428D01*
X203459904Y-71448333D01*
X203412285Y-71257857D01*
X203364666Y-71162619D01*
X203317047Y-71115000D01*
X203221809Y-71067380D01*
X204498000Y-74667380D02*
X204498000Y-73667380D01*
X204259904Y-73667380D01*
X204117047Y-73715000D01*
X204021809Y-73810238D01*
X203974190Y-73905476D01*
X203926571Y-74095952D01*
X203926571Y-74238809D01*
X203974190Y-74429285D01*
X204021809Y-74524523D01*
X204117047Y-74619761D01*
X204259904Y-74667380D01*
X204498000Y-74667380D01*
X203545619Y-74381666D02*
X203069428Y-74381666D01*
X203640857Y-74667380D02*
X203307523Y-73667380D01*
X202974190Y-74667380D01*
X202783714Y-73667380D02*
X202212285Y-73667380D01*
X202498000Y-74667380D02*
X202498000Y-73667380D01*
X201926571Y-74381666D02*
X201450380Y-74381666D01*
X202021809Y-74667380D02*
X201688476Y-73667380D01*
X201355142Y-74667380D01*
X204145619Y-76267380D02*
X203955142Y-76267380D01*
X203859904Y-76315000D01*
X203764666Y-76410238D01*
X203717047Y-76600714D01*
X203717047Y-76934047D01*
X203764666Y-77124523D01*
X203859904Y-77219761D01*
X203955142Y-77267380D01*
X204145619Y-77267380D01*
X204240857Y-77219761D01*
X204336095Y-77124523D01*
X204383714Y-76934047D01*
X204383714Y-76600714D01*
X204336095Y-76410238D01*
X204240857Y-76315000D01*
X204145619Y-76267380D01*
X203288476Y-76743571D02*
X202955142Y-76743571D01*
X202812285Y-77267380D02*
X203288476Y-77267380D01*
X203288476Y-76267380D01*
X202812285Y-76267380D01*
X204764666Y-79919761D02*
X204621809Y-79967380D01*
X204383714Y-79967380D01*
X204288476Y-79919761D01*
X204240857Y-79872142D01*
X204193238Y-79776904D01*
X204193238Y-79681666D01*
X204240857Y-79586428D01*
X204288476Y-79538809D01*
X204383714Y-79491190D01*
X204574190Y-79443571D01*
X204669428Y-79395952D01*
X204717047Y-79348333D01*
X204764666Y-79253095D01*
X204764666Y-79157857D01*
X204717047Y-79062619D01*
X204669428Y-79015000D01*
X204574190Y-78967380D01*
X204336095Y-78967380D01*
X204193238Y-79015000D01*
X203907523Y-78967380D02*
X203336095Y-78967380D01*
X203621809Y-79967380D02*
X203621809Y-78967380D01*
X202431333Y-79872142D02*
X202478952Y-79919761D01*
X202621809Y-79967380D01*
X202717047Y-79967380D01*
X202859904Y-79919761D01*
X202955142Y-79824523D01*
X203002761Y-79729285D01*
X203050380Y-79538809D01*
X203050380Y-79395952D01*
X203002761Y-79205476D01*
X202955142Y-79110238D01*
X202859904Y-79015000D01*
X202717047Y-78967380D01*
X202621809Y-78967380D01*
X202478952Y-79015000D01*
X202431333Y-79062619D01*
X202002761Y-79967380D02*
X202002761Y-78967380D01*
X201621809Y-78967380D01*
X201526571Y-79015000D01*
X201478952Y-79062619D01*
X201431333Y-79157857D01*
X201431333Y-79300714D01*
X201478952Y-79395952D01*
X201526571Y-79443571D01*
X201621809Y-79491190D01*
X202002761Y-79491190D01*
X204907523Y-82219761D02*
X204764666Y-82267380D01*
X204526571Y-82267380D01*
X204431333Y-82219761D01*
X204383714Y-82172142D01*
X204336095Y-82076904D01*
X204336095Y-81981666D01*
X204383714Y-81886428D01*
X204431333Y-81838809D01*
X204526571Y-81791190D01*
X204717047Y-81743571D01*
X204812285Y-81695952D01*
X204859904Y-81648333D01*
X204907523Y-81553095D01*
X204907523Y-81457857D01*
X204859904Y-81362619D01*
X204812285Y-81315000D01*
X204717047Y-81267380D01*
X204478952Y-81267380D01*
X204336095Y-81315000D01*
X203907523Y-82267380D02*
X203907523Y-81267380D01*
X203907523Y-81743571D02*
X203336095Y-81743571D01*
X203336095Y-82267380D02*
X203336095Y-81267380D01*
X202288476Y-82172142D02*
X202336095Y-82219761D01*
X202478952Y-82267380D01*
X202574190Y-82267380D01*
X202717047Y-82219761D01*
X202812285Y-82124523D01*
X202859904Y-82029285D01*
X202907523Y-81838809D01*
X202907523Y-81695952D01*
X202859904Y-81505476D01*
X202812285Y-81410238D01*
X202717047Y-81315000D01*
X202574190Y-81267380D01*
X202478952Y-81267380D01*
X202336095Y-81315000D01*
X202288476Y-81362619D01*
X201859904Y-82267380D02*
X201859904Y-81267380D01*
X201478952Y-81267380D01*
X201383714Y-81315000D01*
X201336095Y-81362619D01*
X201288476Y-81457857D01*
X201288476Y-81600714D01*
X201336095Y-81695952D01*
X201383714Y-81743571D01*
X201478952Y-81791190D01*
X201859904Y-81791190D01*
X204731333Y-84867380D02*
X204731333Y-83867380D01*
X204398000Y-84581666D01*
X204064666Y-83867380D01*
X204064666Y-84867380D01*
X203017047Y-84867380D02*
X203350380Y-84391190D01*
X203588476Y-84867380D02*
X203588476Y-83867380D01*
X203207523Y-83867380D01*
X203112285Y-83915000D01*
X203064666Y-83962619D01*
X203017047Y-84057857D01*
X203017047Y-84200714D01*
X203064666Y-84295952D01*
X203112285Y-84343571D01*
X203207523Y-84391190D01*
X203588476Y-84391190D01*
X204231333Y-87462619D02*
X204326571Y-87415000D01*
X204421809Y-87319761D01*
X204564666Y-87176904D01*
X204659904Y-87129285D01*
X204755142Y-87129285D01*
X204707523Y-87367380D02*
X204802761Y-87319761D01*
X204898000Y-87224523D01*
X204945619Y-87034047D01*
X204945619Y-86700714D01*
X204898000Y-86510238D01*
X204802761Y-86415000D01*
X204707523Y-86367380D01*
X204517047Y-86367380D01*
X204421809Y-86415000D01*
X204326571Y-86510238D01*
X204278952Y-86700714D01*
X204278952Y-87034047D01*
X204326571Y-87224523D01*
X204421809Y-87319761D01*
X204517047Y-87367380D01*
X204707523Y-87367380D01*
X203945619Y-86367380D02*
X203278952Y-86367380D01*
X203707523Y-87367380D01*
X202850380Y-86367380D02*
X202945619Y-86557857D01*
X201559904Y-86415000D02*
X201655142Y-86367380D01*
X201798000Y-86367380D01*
X201940857Y-86415000D01*
X202036095Y-86510238D01*
X202083714Y-86605476D01*
X202131333Y-86795952D01*
X202131333Y-86938809D01*
X202083714Y-87129285D01*
X202036095Y-87224523D01*
X201940857Y-87319761D01*
X201798000Y-87367380D01*
X201702761Y-87367380D01*
X201559904Y-87319761D01*
X201512285Y-87272142D01*
X201512285Y-86938809D01*
X201702761Y-86938809D01*
X201083714Y-87367380D02*
X201083714Y-86367380D01*
X200512285Y-87367380D01*
X200512285Y-86367380D01*
X200036095Y-87367380D02*
X200036095Y-86367380D01*
X199798000Y-86367380D01*
X199655142Y-86415000D01*
X199559904Y-86510238D01*
X199512285Y-86605476D01*
X199464666Y-86795952D01*
X199464666Y-86938809D01*
X199512285Y-87129285D01*
X199559904Y-87224523D01*
X199655142Y-87319761D01*
X199798000Y-87367380D01*
X200036095Y-87367380D01*
X200393238Y-82362619D02*
X200488476Y-82315000D01*
X200583714Y-82219761D01*
X200726571Y-82076904D01*
X200821809Y-82029285D01*
X200917047Y-82029285D01*
X200869428Y-82267380D02*
X200964666Y-82219761D01*
X201059904Y-82124523D01*
X201107523Y-81934047D01*
X201107523Y-81600714D01*
X201059904Y-81410238D01*
X200964666Y-81315000D01*
X200869428Y-81267380D01*
X200678952Y-81267380D01*
X200583714Y-81315000D01*
X200488476Y-81410238D01*
X200440857Y-81600714D01*
X200440857Y-81934047D01*
X200488476Y-82124523D01*
X200583714Y-82219761D01*
X200678952Y-82267380D01*
X200869428Y-82267380D01*
X199583714Y-81267380D02*
X199774190Y-81267380D01*
X199869428Y-81315000D01*
X199917047Y-81362619D01*
X200012285Y-81505476D01*
X200059904Y-81695952D01*
X200059904Y-82076904D01*
X200012285Y-82172142D01*
X199964666Y-82219761D01*
X199869428Y-82267380D01*
X199678952Y-82267380D01*
X199583714Y-82219761D01*
X199536095Y-82172142D01*
X199488476Y-82076904D01*
X199488476Y-81838809D01*
X199536095Y-81743571D01*
X199583714Y-81695952D01*
X199678952Y-81648333D01*
X199869428Y-81648333D01*
X199964666Y-81695952D01*
X200012285Y-81743571D01*
X200059904Y-81838809D01*
X200393238Y-84962619D02*
X200488476Y-84915000D01*
X200583714Y-84819761D01*
X200726571Y-84676904D01*
X200821809Y-84629285D01*
X200917047Y-84629285D01*
X200869428Y-84867380D02*
X200964666Y-84819761D01*
X201059904Y-84724523D01*
X201107523Y-84534047D01*
X201107523Y-84200714D01*
X201059904Y-84010238D01*
X200964666Y-83915000D01*
X200869428Y-83867380D01*
X200678952Y-83867380D01*
X200583714Y-83915000D01*
X200488476Y-84010238D01*
X200440857Y-84200714D01*
X200440857Y-84534047D01*
X200488476Y-84724523D01*
X200583714Y-84819761D01*
X200678952Y-84867380D01*
X200869428Y-84867380D01*
X200107523Y-83867380D02*
X199440857Y-83867380D01*
X199869428Y-84867380D01*
X200393238Y-80012619D02*
X200488476Y-79965000D01*
X200583714Y-79869761D01*
X200726571Y-79726904D01*
X200821809Y-79679285D01*
X200917047Y-79679285D01*
X200869428Y-79917380D02*
X200964666Y-79869761D01*
X201059904Y-79774523D01*
X201107523Y-79584047D01*
X201107523Y-79250714D01*
X201059904Y-79060238D01*
X200964666Y-78965000D01*
X200869428Y-78917380D01*
X200678952Y-78917380D01*
X200583714Y-78965000D01*
X200488476Y-79060238D01*
X200440857Y-79250714D01*
X200440857Y-79584047D01*
X200488476Y-79774523D01*
X200583714Y-79869761D01*
X200678952Y-79917380D01*
X200869428Y-79917380D01*
X199536095Y-78917380D02*
X200012285Y-78917380D01*
X200059904Y-79393571D01*
X200012285Y-79345952D01*
X199917047Y-79298333D01*
X199678952Y-79298333D01*
X199583714Y-79345952D01*
X199536095Y-79393571D01*
X199488476Y-79488809D01*
X199488476Y-79726904D01*
X199536095Y-79822142D01*
X199583714Y-79869761D01*
X199678952Y-79917380D01*
X199917047Y-79917380D01*
X200012285Y-79869761D01*
X200059904Y-79822142D01*
X200393238Y-77262619D02*
X200488476Y-77215000D01*
X200583714Y-77119761D01*
X200726571Y-76976904D01*
X200821809Y-76929285D01*
X200917047Y-76929285D01*
X200869428Y-77167380D02*
X200964666Y-77119761D01*
X201059904Y-77024523D01*
X201107523Y-76834047D01*
X201107523Y-76500714D01*
X201059904Y-76310238D01*
X200964666Y-76215000D01*
X200869428Y-76167380D01*
X200678952Y-76167380D01*
X200583714Y-76215000D01*
X200488476Y-76310238D01*
X200440857Y-76500714D01*
X200440857Y-76834047D01*
X200488476Y-77024523D01*
X200583714Y-77119761D01*
X200678952Y-77167380D01*
X200869428Y-77167380D01*
X199583714Y-76500714D02*
X199583714Y-77167380D01*
X199821809Y-76119761D02*
X200059904Y-76834047D01*
X199440857Y-76834047D01*
X200393238Y-74762619D02*
X200488476Y-74715000D01*
X200583714Y-74619761D01*
X200726571Y-74476904D01*
X200821809Y-74429285D01*
X200917047Y-74429285D01*
X200869428Y-74667380D02*
X200964666Y-74619761D01*
X201059904Y-74524523D01*
X201107523Y-74334047D01*
X201107523Y-74000714D01*
X201059904Y-73810238D01*
X200964666Y-73715000D01*
X200869428Y-73667380D01*
X200678952Y-73667380D01*
X200583714Y-73715000D01*
X200488476Y-73810238D01*
X200440857Y-74000714D01*
X200440857Y-74334047D01*
X200488476Y-74524523D01*
X200583714Y-74619761D01*
X200678952Y-74667380D01*
X200869428Y-74667380D01*
X200107523Y-73667380D02*
X199488476Y-73667380D01*
X199821809Y-74048333D01*
X199678952Y-74048333D01*
X199583714Y-74095952D01*
X199536095Y-74143571D01*
X199488476Y-74238809D01*
X199488476Y-74476904D01*
X199536095Y-74572142D01*
X199583714Y-74619761D01*
X199678952Y-74667380D01*
X199964666Y-74667380D01*
X200059904Y-74619761D01*
X200107523Y-74572142D01*
X200393238Y-72262619D02*
X200488476Y-72215000D01*
X200583714Y-72119761D01*
X200726571Y-71976904D01*
X200821809Y-71929285D01*
X200917047Y-71929285D01*
X200869428Y-72167380D02*
X200964666Y-72119761D01*
X201059904Y-72024523D01*
X201107523Y-71834047D01*
X201107523Y-71500714D01*
X201059904Y-71310238D01*
X200964666Y-71215000D01*
X200869428Y-71167380D01*
X200678952Y-71167380D01*
X200583714Y-71215000D01*
X200488476Y-71310238D01*
X200440857Y-71500714D01*
X200440857Y-71834047D01*
X200488476Y-72024523D01*
X200583714Y-72119761D01*
X200678952Y-72167380D01*
X200869428Y-72167380D01*
X200059904Y-71262619D02*
X200012285Y-71215000D01*
X199917047Y-71167380D01*
X199678952Y-71167380D01*
X199583714Y-71215000D01*
X199536095Y-71262619D01*
X199488476Y-71357857D01*
X199488476Y-71453095D01*
X199536095Y-71595952D01*
X200107523Y-72167380D01*
X199488476Y-72167380D01*
X200393238Y-69762619D02*
X200488476Y-69715000D01*
X200583714Y-69619761D01*
X200726571Y-69476904D01*
X200821809Y-69429285D01*
X200917047Y-69429285D01*
X200869428Y-69667380D02*
X200964666Y-69619761D01*
X201059904Y-69524523D01*
X201107523Y-69334047D01*
X201107523Y-69000714D01*
X201059904Y-68810238D01*
X200964666Y-68715000D01*
X200869428Y-68667380D01*
X200678952Y-68667380D01*
X200583714Y-68715000D01*
X200488476Y-68810238D01*
X200440857Y-69000714D01*
X200440857Y-69334047D01*
X200488476Y-69524523D01*
X200583714Y-69619761D01*
X200678952Y-69667380D01*
X200869428Y-69667380D01*
X199488476Y-69667380D02*
X200059904Y-69667380D01*
X199774190Y-69667380D02*
X199774190Y-68667380D01*
X199869428Y-68810238D01*
X199964666Y-68905476D01*
X200059904Y-68953095D01*
G04 #@! TO.C,Shift3*
X173819333Y-76338180D02*
X173486000Y-77338180D01*
X173152666Y-76338180D01*
X172247904Y-77242942D02*
X172295523Y-77290561D01*
X172438380Y-77338180D01*
X172533619Y-77338180D01*
X172676476Y-77290561D01*
X172771714Y-77195323D01*
X172819333Y-77100085D01*
X172866952Y-76909609D01*
X172866952Y-76766752D01*
X172819333Y-76576276D01*
X172771714Y-76481038D01*
X172676476Y-76385800D01*
X172533619Y-76338180D01*
X172438380Y-76338180D01*
X172295523Y-76385800D01*
X172247904Y-76433419D01*
X171247904Y-77242942D02*
X171295523Y-77290561D01*
X171438380Y-77338180D01*
X171533619Y-77338180D01*
X171676476Y-77290561D01*
X171771714Y-77195323D01*
X171819333Y-77100085D01*
X171866952Y-76909609D01*
X171866952Y-76766752D01*
X171819333Y-76576276D01*
X171771714Y-76481038D01*
X171676476Y-76385800D01*
X171533619Y-76338180D01*
X171438380Y-76338180D01*
X171295523Y-76385800D01*
X171247904Y-76433419D01*
X172881238Y-79833419D02*
X172976476Y-79785800D01*
X173071714Y-79690561D01*
X173214571Y-79547704D01*
X173309809Y-79500085D01*
X173405047Y-79500085D01*
X173357428Y-79738180D02*
X173452666Y-79690561D01*
X173547904Y-79595323D01*
X173595523Y-79404847D01*
X173595523Y-79071514D01*
X173547904Y-78881038D01*
X173452666Y-78785800D01*
X173357428Y-78738180D01*
X173166952Y-78738180D01*
X173071714Y-78785800D01*
X172976476Y-78881038D01*
X172928857Y-79071514D01*
X172928857Y-79404847D01*
X172976476Y-79595323D01*
X173071714Y-79690561D01*
X173166952Y-79738180D01*
X173357428Y-79738180D01*
X172309809Y-78738180D02*
X172214571Y-78738180D01*
X172119333Y-78785800D01*
X172071714Y-78833419D01*
X172024095Y-78928657D01*
X171976476Y-79119133D01*
X171976476Y-79357228D01*
X172024095Y-79547704D01*
X172071714Y-79642942D01*
X172119333Y-79690561D01*
X172214571Y-79738180D01*
X172309809Y-79738180D01*
X172405047Y-79690561D01*
X172452666Y-79642942D01*
X172500285Y-79547704D01*
X172547904Y-79357228D01*
X172547904Y-79119133D01*
X172500285Y-78928657D01*
X172452666Y-78833419D01*
X172405047Y-78785800D01*
X172309809Y-78738180D01*
X173586000Y-82338180D02*
X173586000Y-81338180D01*
X173347904Y-81338180D01*
X173205047Y-81385800D01*
X173109809Y-81481038D01*
X173062190Y-81576276D01*
X173014571Y-81766752D01*
X173014571Y-81909609D01*
X173062190Y-82100085D01*
X173109809Y-82195323D01*
X173205047Y-82290561D01*
X173347904Y-82338180D01*
X173586000Y-82338180D01*
X172633619Y-82052466D02*
X172157428Y-82052466D01*
X172728857Y-82338180D02*
X172395523Y-81338180D01*
X172062190Y-82338180D01*
X171871714Y-81338180D02*
X171300285Y-81338180D01*
X171586000Y-82338180D02*
X171586000Y-81338180D01*
X171014571Y-82052466D02*
X170538380Y-82052466D01*
X171109809Y-82338180D02*
X170776476Y-81338180D01*
X170443142Y-82338180D01*
X173233619Y-83938180D02*
X173043142Y-83938180D01*
X172947904Y-83985800D01*
X172852666Y-84081038D01*
X172805047Y-84271514D01*
X172805047Y-84604847D01*
X172852666Y-84795323D01*
X172947904Y-84890561D01*
X173043142Y-84938180D01*
X173233619Y-84938180D01*
X173328857Y-84890561D01*
X173424095Y-84795323D01*
X173471714Y-84604847D01*
X173471714Y-84271514D01*
X173424095Y-84081038D01*
X173328857Y-83985800D01*
X173233619Y-83938180D01*
X172376476Y-84414371D02*
X172043142Y-84414371D01*
X171900285Y-84938180D02*
X172376476Y-84938180D01*
X172376476Y-83938180D01*
X171900285Y-83938180D01*
X173852666Y-87590561D02*
X173709809Y-87638180D01*
X173471714Y-87638180D01*
X173376476Y-87590561D01*
X173328857Y-87542942D01*
X173281238Y-87447704D01*
X173281238Y-87352466D01*
X173328857Y-87257228D01*
X173376476Y-87209609D01*
X173471714Y-87161990D01*
X173662190Y-87114371D01*
X173757428Y-87066752D01*
X173805047Y-87019133D01*
X173852666Y-86923895D01*
X173852666Y-86828657D01*
X173805047Y-86733419D01*
X173757428Y-86685800D01*
X173662190Y-86638180D01*
X173424095Y-86638180D01*
X173281238Y-86685800D01*
X172995523Y-86638180D02*
X172424095Y-86638180D01*
X172709809Y-87638180D02*
X172709809Y-86638180D01*
X171519333Y-87542942D02*
X171566952Y-87590561D01*
X171709809Y-87638180D01*
X171805047Y-87638180D01*
X171947904Y-87590561D01*
X172043142Y-87495323D01*
X172090761Y-87400085D01*
X172138380Y-87209609D01*
X172138380Y-87066752D01*
X172090761Y-86876276D01*
X172043142Y-86781038D01*
X171947904Y-86685800D01*
X171805047Y-86638180D01*
X171709809Y-86638180D01*
X171566952Y-86685800D01*
X171519333Y-86733419D01*
X171090761Y-87638180D02*
X171090761Y-86638180D01*
X170709809Y-86638180D01*
X170614571Y-86685800D01*
X170566952Y-86733419D01*
X170519333Y-86828657D01*
X170519333Y-86971514D01*
X170566952Y-87066752D01*
X170614571Y-87114371D01*
X170709809Y-87161990D01*
X171090761Y-87161990D01*
X173995523Y-89890561D02*
X173852666Y-89938180D01*
X173614571Y-89938180D01*
X173519333Y-89890561D01*
X173471714Y-89842942D01*
X173424095Y-89747704D01*
X173424095Y-89652466D01*
X173471714Y-89557228D01*
X173519333Y-89509609D01*
X173614571Y-89461990D01*
X173805047Y-89414371D01*
X173900285Y-89366752D01*
X173947904Y-89319133D01*
X173995523Y-89223895D01*
X173995523Y-89128657D01*
X173947904Y-89033419D01*
X173900285Y-88985800D01*
X173805047Y-88938180D01*
X173566952Y-88938180D01*
X173424095Y-88985800D01*
X172995523Y-89938180D02*
X172995523Y-88938180D01*
X172995523Y-89414371D02*
X172424095Y-89414371D01*
X172424095Y-89938180D02*
X172424095Y-88938180D01*
X171376476Y-89842942D02*
X171424095Y-89890561D01*
X171566952Y-89938180D01*
X171662190Y-89938180D01*
X171805047Y-89890561D01*
X171900285Y-89795323D01*
X171947904Y-89700085D01*
X171995523Y-89509609D01*
X171995523Y-89366752D01*
X171947904Y-89176276D01*
X171900285Y-89081038D01*
X171805047Y-88985800D01*
X171662190Y-88938180D01*
X171566952Y-88938180D01*
X171424095Y-88985800D01*
X171376476Y-89033419D01*
X170947904Y-89938180D02*
X170947904Y-88938180D01*
X170566952Y-88938180D01*
X170471714Y-88985800D01*
X170424095Y-89033419D01*
X170376476Y-89128657D01*
X170376476Y-89271514D01*
X170424095Y-89366752D01*
X170471714Y-89414371D01*
X170566952Y-89461990D01*
X170947904Y-89461990D01*
X173819333Y-92538180D02*
X173819333Y-91538180D01*
X173486000Y-92252466D01*
X173152666Y-91538180D01*
X173152666Y-92538180D01*
X172105047Y-92538180D02*
X172438380Y-92061990D01*
X172676476Y-92538180D02*
X172676476Y-91538180D01*
X172295523Y-91538180D01*
X172200285Y-91585800D01*
X172152666Y-91633419D01*
X172105047Y-91728657D01*
X172105047Y-91871514D01*
X172152666Y-91966752D01*
X172200285Y-92014371D01*
X172295523Y-92061990D01*
X172676476Y-92061990D01*
X173319333Y-95133419D02*
X173414571Y-95085800D01*
X173509809Y-94990561D01*
X173652666Y-94847704D01*
X173747904Y-94800085D01*
X173843142Y-94800085D01*
X173795523Y-95038180D02*
X173890761Y-94990561D01*
X173986000Y-94895323D01*
X174033619Y-94704847D01*
X174033619Y-94371514D01*
X173986000Y-94181038D01*
X173890761Y-94085800D01*
X173795523Y-94038180D01*
X173605047Y-94038180D01*
X173509809Y-94085800D01*
X173414571Y-94181038D01*
X173366952Y-94371514D01*
X173366952Y-94704847D01*
X173414571Y-94895323D01*
X173509809Y-94990561D01*
X173605047Y-95038180D01*
X173795523Y-95038180D01*
X173033619Y-94038180D02*
X172366952Y-94038180D01*
X172795523Y-95038180D01*
X171938380Y-94038180D02*
X172033619Y-94228657D01*
X170647904Y-94085800D02*
X170743142Y-94038180D01*
X170886000Y-94038180D01*
X171028857Y-94085800D01*
X171124095Y-94181038D01*
X171171714Y-94276276D01*
X171219333Y-94466752D01*
X171219333Y-94609609D01*
X171171714Y-94800085D01*
X171124095Y-94895323D01*
X171028857Y-94990561D01*
X170886000Y-95038180D01*
X170790761Y-95038180D01*
X170647904Y-94990561D01*
X170600285Y-94942942D01*
X170600285Y-94609609D01*
X170790761Y-94609609D01*
X170171714Y-95038180D02*
X170171714Y-94038180D01*
X169600285Y-95038180D01*
X169600285Y-94038180D01*
X169124095Y-95038180D02*
X169124095Y-94038180D01*
X168886000Y-94038180D01*
X168743142Y-94085800D01*
X168647904Y-94181038D01*
X168600285Y-94276276D01*
X168552666Y-94466752D01*
X168552666Y-94609609D01*
X168600285Y-94800085D01*
X168647904Y-94895323D01*
X168743142Y-94990561D01*
X168886000Y-95038180D01*
X169124095Y-95038180D01*
X169481238Y-90033419D02*
X169576476Y-89985800D01*
X169671714Y-89890561D01*
X169814571Y-89747704D01*
X169909809Y-89700085D01*
X170005047Y-89700085D01*
X169957428Y-89938180D02*
X170052666Y-89890561D01*
X170147904Y-89795323D01*
X170195523Y-89604847D01*
X170195523Y-89271514D01*
X170147904Y-89081038D01*
X170052666Y-88985800D01*
X169957428Y-88938180D01*
X169766952Y-88938180D01*
X169671714Y-88985800D01*
X169576476Y-89081038D01*
X169528857Y-89271514D01*
X169528857Y-89604847D01*
X169576476Y-89795323D01*
X169671714Y-89890561D01*
X169766952Y-89938180D01*
X169957428Y-89938180D01*
X168671714Y-88938180D02*
X168862190Y-88938180D01*
X168957428Y-88985800D01*
X169005047Y-89033419D01*
X169100285Y-89176276D01*
X169147904Y-89366752D01*
X169147904Y-89747704D01*
X169100285Y-89842942D01*
X169052666Y-89890561D01*
X168957428Y-89938180D01*
X168766952Y-89938180D01*
X168671714Y-89890561D01*
X168624095Y-89842942D01*
X168576476Y-89747704D01*
X168576476Y-89509609D01*
X168624095Y-89414371D01*
X168671714Y-89366752D01*
X168766952Y-89319133D01*
X168957428Y-89319133D01*
X169052666Y-89366752D01*
X169100285Y-89414371D01*
X169147904Y-89509609D01*
X169481238Y-92633419D02*
X169576476Y-92585800D01*
X169671714Y-92490561D01*
X169814571Y-92347704D01*
X169909809Y-92300085D01*
X170005047Y-92300085D01*
X169957428Y-92538180D02*
X170052666Y-92490561D01*
X170147904Y-92395323D01*
X170195523Y-92204847D01*
X170195523Y-91871514D01*
X170147904Y-91681038D01*
X170052666Y-91585800D01*
X169957428Y-91538180D01*
X169766952Y-91538180D01*
X169671714Y-91585800D01*
X169576476Y-91681038D01*
X169528857Y-91871514D01*
X169528857Y-92204847D01*
X169576476Y-92395323D01*
X169671714Y-92490561D01*
X169766952Y-92538180D01*
X169957428Y-92538180D01*
X169195523Y-91538180D02*
X168528857Y-91538180D01*
X168957428Y-92538180D01*
X169481238Y-87683419D02*
X169576476Y-87635800D01*
X169671714Y-87540561D01*
X169814571Y-87397704D01*
X169909809Y-87350085D01*
X170005047Y-87350085D01*
X169957428Y-87588180D02*
X170052666Y-87540561D01*
X170147904Y-87445323D01*
X170195523Y-87254847D01*
X170195523Y-86921514D01*
X170147904Y-86731038D01*
X170052666Y-86635800D01*
X169957428Y-86588180D01*
X169766952Y-86588180D01*
X169671714Y-86635800D01*
X169576476Y-86731038D01*
X169528857Y-86921514D01*
X169528857Y-87254847D01*
X169576476Y-87445323D01*
X169671714Y-87540561D01*
X169766952Y-87588180D01*
X169957428Y-87588180D01*
X168624095Y-86588180D02*
X169100285Y-86588180D01*
X169147904Y-87064371D01*
X169100285Y-87016752D01*
X169005047Y-86969133D01*
X168766952Y-86969133D01*
X168671714Y-87016752D01*
X168624095Y-87064371D01*
X168576476Y-87159609D01*
X168576476Y-87397704D01*
X168624095Y-87492942D01*
X168671714Y-87540561D01*
X168766952Y-87588180D01*
X169005047Y-87588180D01*
X169100285Y-87540561D01*
X169147904Y-87492942D01*
X169481238Y-84933419D02*
X169576476Y-84885800D01*
X169671714Y-84790561D01*
X169814571Y-84647704D01*
X169909809Y-84600085D01*
X170005047Y-84600085D01*
X169957428Y-84838180D02*
X170052666Y-84790561D01*
X170147904Y-84695323D01*
X170195523Y-84504847D01*
X170195523Y-84171514D01*
X170147904Y-83981038D01*
X170052666Y-83885800D01*
X169957428Y-83838180D01*
X169766952Y-83838180D01*
X169671714Y-83885800D01*
X169576476Y-83981038D01*
X169528857Y-84171514D01*
X169528857Y-84504847D01*
X169576476Y-84695323D01*
X169671714Y-84790561D01*
X169766952Y-84838180D01*
X169957428Y-84838180D01*
X168671714Y-84171514D02*
X168671714Y-84838180D01*
X168909809Y-83790561D02*
X169147904Y-84504847D01*
X168528857Y-84504847D01*
X169481238Y-82433419D02*
X169576476Y-82385800D01*
X169671714Y-82290561D01*
X169814571Y-82147704D01*
X169909809Y-82100085D01*
X170005047Y-82100085D01*
X169957428Y-82338180D02*
X170052666Y-82290561D01*
X170147904Y-82195323D01*
X170195523Y-82004847D01*
X170195523Y-81671514D01*
X170147904Y-81481038D01*
X170052666Y-81385800D01*
X169957428Y-81338180D01*
X169766952Y-81338180D01*
X169671714Y-81385800D01*
X169576476Y-81481038D01*
X169528857Y-81671514D01*
X169528857Y-82004847D01*
X169576476Y-82195323D01*
X169671714Y-82290561D01*
X169766952Y-82338180D01*
X169957428Y-82338180D01*
X169195523Y-81338180D02*
X168576476Y-81338180D01*
X168909809Y-81719133D01*
X168766952Y-81719133D01*
X168671714Y-81766752D01*
X168624095Y-81814371D01*
X168576476Y-81909609D01*
X168576476Y-82147704D01*
X168624095Y-82242942D01*
X168671714Y-82290561D01*
X168766952Y-82338180D01*
X169052666Y-82338180D01*
X169147904Y-82290561D01*
X169195523Y-82242942D01*
X169481238Y-79933419D02*
X169576476Y-79885800D01*
X169671714Y-79790561D01*
X169814571Y-79647704D01*
X169909809Y-79600085D01*
X170005047Y-79600085D01*
X169957428Y-79838180D02*
X170052666Y-79790561D01*
X170147904Y-79695323D01*
X170195523Y-79504847D01*
X170195523Y-79171514D01*
X170147904Y-78981038D01*
X170052666Y-78885800D01*
X169957428Y-78838180D01*
X169766952Y-78838180D01*
X169671714Y-78885800D01*
X169576476Y-78981038D01*
X169528857Y-79171514D01*
X169528857Y-79504847D01*
X169576476Y-79695323D01*
X169671714Y-79790561D01*
X169766952Y-79838180D01*
X169957428Y-79838180D01*
X169147904Y-78933419D02*
X169100285Y-78885800D01*
X169005047Y-78838180D01*
X168766952Y-78838180D01*
X168671714Y-78885800D01*
X168624095Y-78933419D01*
X168576476Y-79028657D01*
X168576476Y-79123895D01*
X168624095Y-79266752D01*
X169195523Y-79838180D01*
X168576476Y-79838180D01*
X169481238Y-77433419D02*
X169576476Y-77385800D01*
X169671714Y-77290561D01*
X169814571Y-77147704D01*
X169909809Y-77100085D01*
X170005047Y-77100085D01*
X169957428Y-77338180D02*
X170052666Y-77290561D01*
X170147904Y-77195323D01*
X170195523Y-77004847D01*
X170195523Y-76671514D01*
X170147904Y-76481038D01*
X170052666Y-76385800D01*
X169957428Y-76338180D01*
X169766952Y-76338180D01*
X169671714Y-76385800D01*
X169576476Y-76481038D01*
X169528857Y-76671514D01*
X169528857Y-77004847D01*
X169576476Y-77195323D01*
X169671714Y-77290561D01*
X169766952Y-77338180D01*
X169957428Y-77338180D01*
X168576476Y-77338180D02*
X169147904Y-77338180D01*
X168862190Y-77338180D02*
X168862190Y-76338180D01*
X168957428Y-76481038D01*
X169052666Y-76576276D01*
X169147904Y-76623895D01*
G04 #@! TO.C,Shift1*
X142882333Y-68667380D02*
X142549000Y-69667380D01*
X142215666Y-68667380D01*
X141310904Y-69572142D02*
X141358523Y-69619761D01*
X141501380Y-69667380D01*
X141596619Y-69667380D01*
X141739476Y-69619761D01*
X141834714Y-69524523D01*
X141882333Y-69429285D01*
X141929952Y-69238809D01*
X141929952Y-69095952D01*
X141882333Y-68905476D01*
X141834714Y-68810238D01*
X141739476Y-68715000D01*
X141596619Y-68667380D01*
X141501380Y-68667380D01*
X141358523Y-68715000D01*
X141310904Y-68762619D01*
X140310904Y-69572142D02*
X140358523Y-69619761D01*
X140501380Y-69667380D01*
X140596619Y-69667380D01*
X140739476Y-69619761D01*
X140834714Y-69524523D01*
X140882333Y-69429285D01*
X140929952Y-69238809D01*
X140929952Y-69095952D01*
X140882333Y-68905476D01*
X140834714Y-68810238D01*
X140739476Y-68715000D01*
X140596619Y-68667380D01*
X140501380Y-68667380D01*
X140358523Y-68715000D01*
X140310904Y-68762619D01*
X141944238Y-72162619D02*
X142039476Y-72115000D01*
X142134714Y-72019761D01*
X142277571Y-71876904D01*
X142372809Y-71829285D01*
X142468047Y-71829285D01*
X142420428Y-72067380D02*
X142515666Y-72019761D01*
X142610904Y-71924523D01*
X142658523Y-71734047D01*
X142658523Y-71400714D01*
X142610904Y-71210238D01*
X142515666Y-71115000D01*
X142420428Y-71067380D01*
X142229952Y-71067380D01*
X142134714Y-71115000D01*
X142039476Y-71210238D01*
X141991857Y-71400714D01*
X141991857Y-71734047D01*
X142039476Y-71924523D01*
X142134714Y-72019761D01*
X142229952Y-72067380D01*
X142420428Y-72067380D01*
X141372809Y-71067380D02*
X141277571Y-71067380D01*
X141182333Y-71115000D01*
X141134714Y-71162619D01*
X141087095Y-71257857D01*
X141039476Y-71448333D01*
X141039476Y-71686428D01*
X141087095Y-71876904D01*
X141134714Y-71972142D01*
X141182333Y-72019761D01*
X141277571Y-72067380D01*
X141372809Y-72067380D01*
X141468047Y-72019761D01*
X141515666Y-71972142D01*
X141563285Y-71876904D01*
X141610904Y-71686428D01*
X141610904Y-71448333D01*
X141563285Y-71257857D01*
X141515666Y-71162619D01*
X141468047Y-71115000D01*
X141372809Y-71067380D01*
X142649000Y-74667380D02*
X142649000Y-73667380D01*
X142410904Y-73667380D01*
X142268047Y-73715000D01*
X142172809Y-73810238D01*
X142125190Y-73905476D01*
X142077571Y-74095952D01*
X142077571Y-74238809D01*
X142125190Y-74429285D01*
X142172809Y-74524523D01*
X142268047Y-74619761D01*
X142410904Y-74667380D01*
X142649000Y-74667380D01*
X141696619Y-74381666D02*
X141220428Y-74381666D01*
X141791857Y-74667380D02*
X141458523Y-73667380D01*
X141125190Y-74667380D01*
X140934714Y-73667380D02*
X140363285Y-73667380D01*
X140649000Y-74667380D02*
X140649000Y-73667380D01*
X140077571Y-74381666D02*
X139601380Y-74381666D01*
X140172809Y-74667380D02*
X139839476Y-73667380D01*
X139506142Y-74667380D01*
X142296619Y-76267380D02*
X142106142Y-76267380D01*
X142010904Y-76315000D01*
X141915666Y-76410238D01*
X141868047Y-76600714D01*
X141868047Y-76934047D01*
X141915666Y-77124523D01*
X142010904Y-77219761D01*
X142106142Y-77267380D01*
X142296619Y-77267380D01*
X142391857Y-77219761D01*
X142487095Y-77124523D01*
X142534714Y-76934047D01*
X142534714Y-76600714D01*
X142487095Y-76410238D01*
X142391857Y-76315000D01*
X142296619Y-76267380D01*
X141439476Y-76743571D02*
X141106142Y-76743571D01*
X140963285Y-77267380D02*
X141439476Y-77267380D01*
X141439476Y-76267380D01*
X140963285Y-76267380D01*
X142915666Y-79919761D02*
X142772809Y-79967380D01*
X142534714Y-79967380D01*
X142439476Y-79919761D01*
X142391857Y-79872142D01*
X142344238Y-79776904D01*
X142344238Y-79681666D01*
X142391857Y-79586428D01*
X142439476Y-79538809D01*
X142534714Y-79491190D01*
X142725190Y-79443571D01*
X142820428Y-79395952D01*
X142868047Y-79348333D01*
X142915666Y-79253095D01*
X142915666Y-79157857D01*
X142868047Y-79062619D01*
X142820428Y-79015000D01*
X142725190Y-78967380D01*
X142487095Y-78967380D01*
X142344238Y-79015000D01*
X142058523Y-78967380D02*
X141487095Y-78967380D01*
X141772809Y-79967380D02*
X141772809Y-78967380D01*
X140582333Y-79872142D02*
X140629952Y-79919761D01*
X140772809Y-79967380D01*
X140868047Y-79967380D01*
X141010904Y-79919761D01*
X141106142Y-79824523D01*
X141153761Y-79729285D01*
X141201380Y-79538809D01*
X141201380Y-79395952D01*
X141153761Y-79205476D01*
X141106142Y-79110238D01*
X141010904Y-79015000D01*
X140868047Y-78967380D01*
X140772809Y-78967380D01*
X140629952Y-79015000D01*
X140582333Y-79062619D01*
X140153761Y-79967380D02*
X140153761Y-78967380D01*
X139772809Y-78967380D01*
X139677571Y-79015000D01*
X139629952Y-79062619D01*
X139582333Y-79157857D01*
X139582333Y-79300714D01*
X139629952Y-79395952D01*
X139677571Y-79443571D01*
X139772809Y-79491190D01*
X140153761Y-79491190D01*
X143058523Y-82219761D02*
X142915666Y-82267380D01*
X142677571Y-82267380D01*
X142582333Y-82219761D01*
X142534714Y-82172142D01*
X142487095Y-82076904D01*
X142487095Y-81981666D01*
X142534714Y-81886428D01*
X142582333Y-81838809D01*
X142677571Y-81791190D01*
X142868047Y-81743571D01*
X142963285Y-81695952D01*
X143010904Y-81648333D01*
X143058523Y-81553095D01*
X143058523Y-81457857D01*
X143010904Y-81362619D01*
X142963285Y-81315000D01*
X142868047Y-81267380D01*
X142629952Y-81267380D01*
X142487095Y-81315000D01*
X142058523Y-82267380D02*
X142058523Y-81267380D01*
X142058523Y-81743571D02*
X141487095Y-81743571D01*
X141487095Y-82267380D02*
X141487095Y-81267380D01*
X140439476Y-82172142D02*
X140487095Y-82219761D01*
X140629952Y-82267380D01*
X140725190Y-82267380D01*
X140868047Y-82219761D01*
X140963285Y-82124523D01*
X141010904Y-82029285D01*
X141058523Y-81838809D01*
X141058523Y-81695952D01*
X141010904Y-81505476D01*
X140963285Y-81410238D01*
X140868047Y-81315000D01*
X140725190Y-81267380D01*
X140629952Y-81267380D01*
X140487095Y-81315000D01*
X140439476Y-81362619D01*
X140010904Y-82267380D02*
X140010904Y-81267380D01*
X139629952Y-81267380D01*
X139534714Y-81315000D01*
X139487095Y-81362619D01*
X139439476Y-81457857D01*
X139439476Y-81600714D01*
X139487095Y-81695952D01*
X139534714Y-81743571D01*
X139629952Y-81791190D01*
X140010904Y-81791190D01*
X142882333Y-84867380D02*
X142882333Y-83867380D01*
X142549000Y-84581666D01*
X142215666Y-83867380D01*
X142215666Y-84867380D01*
X141168047Y-84867380D02*
X141501380Y-84391190D01*
X141739476Y-84867380D02*
X141739476Y-83867380D01*
X141358523Y-83867380D01*
X141263285Y-83915000D01*
X141215666Y-83962619D01*
X141168047Y-84057857D01*
X141168047Y-84200714D01*
X141215666Y-84295952D01*
X141263285Y-84343571D01*
X141358523Y-84391190D01*
X141739476Y-84391190D01*
X142382333Y-87462619D02*
X142477571Y-87415000D01*
X142572809Y-87319761D01*
X142715666Y-87176904D01*
X142810904Y-87129285D01*
X142906142Y-87129285D01*
X142858523Y-87367380D02*
X142953761Y-87319761D01*
X143049000Y-87224523D01*
X143096619Y-87034047D01*
X143096619Y-86700714D01*
X143049000Y-86510238D01*
X142953761Y-86415000D01*
X142858523Y-86367380D01*
X142668047Y-86367380D01*
X142572809Y-86415000D01*
X142477571Y-86510238D01*
X142429952Y-86700714D01*
X142429952Y-87034047D01*
X142477571Y-87224523D01*
X142572809Y-87319761D01*
X142668047Y-87367380D01*
X142858523Y-87367380D01*
X142096619Y-86367380D02*
X141429952Y-86367380D01*
X141858523Y-87367380D01*
X141001380Y-86367380D02*
X141096619Y-86557857D01*
X139710904Y-86415000D02*
X139806142Y-86367380D01*
X139949000Y-86367380D01*
X140091857Y-86415000D01*
X140187095Y-86510238D01*
X140234714Y-86605476D01*
X140282333Y-86795952D01*
X140282333Y-86938809D01*
X140234714Y-87129285D01*
X140187095Y-87224523D01*
X140091857Y-87319761D01*
X139949000Y-87367380D01*
X139853761Y-87367380D01*
X139710904Y-87319761D01*
X139663285Y-87272142D01*
X139663285Y-86938809D01*
X139853761Y-86938809D01*
X139234714Y-87367380D02*
X139234714Y-86367380D01*
X138663285Y-87367380D01*
X138663285Y-86367380D01*
X138187095Y-87367380D02*
X138187095Y-86367380D01*
X137949000Y-86367380D01*
X137806142Y-86415000D01*
X137710904Y-86510238D01*
X137663285Y-86605476D01*
X137615666Y-86795952D01*
X137615666Y-86938809D01*
X137663285Y-87129285D01*
X137710904Y-87224523D01*
X137806142Y-87319761D01*
X137949000Y-87367380D01*
X138187095Y-87367380D01*
X138544238Y-82362619D02*
X138639476Y-82315000D01*
X138734714Y-82219761D01*
X138877571Y-82076904D01*
X138972809Y-82029285D01*
X139068047Y-82029285D01*
X139020428Y-82267380D02*
X139115666Y-82219761D01*
X139210904Y-82124523D01*
X139258523Y-81934047D01*
X139258523Y-81600714D01*
X139210904Y-81410238D01*
X139115666Y-81315000D01*
X139020428Y-81267380D01*
X138829952Y-81267380D01*
X138734714Y-81315000D01*
X138639476Y-81410238D01*
X138591857Y-81600714D01*
X138591857Y-81934047D01*
X138639476Y-82124523D01*
X138734714Y-82219761D01*
X138829952Y-82267380D01*
X139020428Y-82267380D01*
X137734714Y-81267380D02*
X137925190Y-81267380D01*
X138020428Y-81315000D01*
X138068047Y-81362619D01*
X138163285Y-81505476D01*
X138210904Y-81695952D01*
X138210904Y-82076904D01*
X138163285Y-82172142D01*
X138115666Y-82219761D01*
X138020428Y-82267380D01*
X137829952Y-82267380D01*
X137734714Y-82219761D01*
X137687095Y-82172142D01*
X137639476Y-82076904D01*
X137639476Y-81838809D01*
X137687095Y-81743571D01*
X137734714Y-81695952D01*
X137829952Y-81648333D01*
X138020428Y-81648333D01*
X138115666Y-81695952D01*
X138163285Y-81743571D01*
X138210904Y-81838809D01*
X138544238Y-84962619D02*
X138639476Y-84915000D01*
X138734714Y-84819761D01*
X138877571Y-84676904D01*
X138972809Y-84629285D01*
X139068047Y-84629285D01*
X139020428Y-84867380D02*
X139115666Y-84819761D01*
X139210904Y-84724523D01*
X139258523Y-84534047D01*
X139258523Y-84200714D01*
X139210904Y-84010238D01*
X139115666Y-83915000D01*
X139020428Y-83867380D01*
X138829952Y-83867380D01*
X138734714Y-83915000D01*
X138639476Y-84010238D01*
X138591857Y-84200714D01*
X138591857Y-84534047D01*
X138639476Y-84724523D01*
X138734714Y-84819761D01*
X138829952Y-84867380D01*
X139020428Y-84867380D01*
X138258523Y-83867380D02*
X137591857Y-83867380D01*
X138020428Y-84867380D01*
X138544238Y-80012619D02*
X138639476Y-79965000D01*
X138734714Y-79869761D01*
X138877571Y-79726904D01*
X138972809Y-79679285D01*
X139068047Y-79679285D01*
X139020428Y-79917380D02*
X139115666Y-79869761D01*
X139210904Y-79774523D01*
X139258523Y-79584047D01*
X139258523Y-79250714D01*
X139210904Y-79060238D01*
X139115666Y-78965000D01*
X139020428Y-78917380D01*
X138829952Y-78917380D01*
X138734714Y-78965000D01*
X138639476Y-79060238D01*
X138591857Y-79250714D01*
X138591857Y-79584047D01*
X138639476Y-79774523D01*
X138734714Y-79869761D01*
X138829952Y-79917380D01*
X139020428Y-79917380D01*
X137687095Y-78917380D02*
X138163285Y-78917380D01*
X138210904Y-79393571D01*
X138163285Y-79345952D01*
X138068047Y-79298333D01*
X137829952Y-79298333D01*
X137734714Y-79345952D01*
X137687095Y-79393571D01*
X137639476Y-79488809D01*
X137639476Y-79726904D01*
X137687095Y-79822142D01*
X137734714Y-79869761D01*
X137829952Y-79917380D01*
X138068047Y-79917380D01*
X138163285Y-79869761D01*
X138210904Y-79822142D01*
X138544238Y-77262619D02*
X138639476Y-77215000D01*
X138734714Y-77119761D01*
X138877571Y-76976904D01*
X138972809Y-76929285D01*
X139068047Y-76929285D01*
X139020428Y-77167380D02*
X139115666Y-77119761D01*
X139210904Y-77024523D01*
X139258523Y-76834047D01*
X139258523Y-76500714D01*
X139210904Y-76310238D01*
X139115666Y-76215000D01*
X139020428Y-76167380D01*
X138829952Y-76167380D01*
X138734714Y-76215000D01*
X138639476Y-76310238D01*
X138591857Y-76500714D01*
X138591857Y-76834047D01*
X138639476Y-77024523D01*
X138734714Y-77119761D01*
X138829952Y-77167380D01*
X139020428Y-77167380D01*
X137734714Y-76500714D02*
X137734714Y-77167380D01*
X137972809Y-76119761D02*
X138210904Y-76834047D01*
X137591857Y-76834047D01*
X138544238Y-74762619D02*
X138639476Y-74715000D01*
X138734714Y-74619761D01*
X138877571Y-74476904D01*
X138972809Y-74429285D01*
X139068047Y-74429285D01*
X139020428Y-74667380D02*
X139115666Y-74619761D01*
X139210904Y-74524523D01*
X139258523Y-74334047D01*
X139258523Y-74000714D01*
X139210904Y-73810238D01*
X139115666Y-73715000D01*
X139020428Y-73667380D01*
X138829952Y-73667380D01*
X138734714Y-73715000D01*
X138639476Y-73810238D01*
X138591857Y-74000714D01*
X138591857Y-74334047D01*
X138639476Y-74524523D01*
X138734714Y-74619761D01*
X138829952Y-74667380D01*
X139020428Y-74667380D01*
X138258523Y-73667380D02*
X137639476Y-73667380D01*
X137972809Y-74048333D01*
X137829952Y-74048333D01*
X137734714Y-74095952D01*
X137687095Y-74143571D01*
X137639476Y-74238809D01*
X137639476Y-74476904D01*
X137687095Y-74572142D01*
X137734714Y-74619761D01*
X137829952Y-74667380D01*
X138115666Y-74667380D01*
X138210904Y-74619761D01*
X138258523Y-74572142D01*
X138544238Y-72262619D02*
X138639476Y-72215000D01*
X138734714Y-72119761D01*
X138877571Y-71976904D01*
X138972809Y-71929285D01*
X139068047Y-71929285D01*
X139020428Y-72167380D02*
X139115666Y-72119761D01*
X139210904Y-72024523D01*
X139258523Y-71834047D01*
X139258523Y-71500714D01*
X139210904Y-71310238D01*
X139115666Y-71215000D01*
X139020428Y-71167380D01*
X138829952Y-71167380D01*
X138734714Y-71215000D01*
X138639476Y-71310238D01*
X138591857Y-71500714D01*
X138591857Y-71834047D01*
X138639476Y-72024523D01*
X138734714Y-72119761D01*
X138829952Y-72167380D01*
X139020428Y-72167380D01*
X138210904Y-71262619D02*
X138163285Y-71215000D01*
X138068047Y-71167380D01*
X137829952Y-71167380D01*
X137734714Y-71215000D01*
X137687095Y-71262619D01*
X137639476Y-71357857D01*
X137639476Y-71453095D01*
X137687095Y-71595952D01*
X138258523Y-72167380D01*
X137639476Y-72167380D01*
X138544238Y-69762619D02*
X138639476Y-69715000D01*
X138734714Y-69619761D01*
X138877571Y-69476904D01*
X138972809Y-69429285D01*
X139068047Y-69429285D01*
X139020428Y-69667380D02*
X139115666Y-69619761D01*
X139210904Y-69524523D01*
X139258523Y-69334047D01*
X139258523Y-69000714D01*
X139210904Y-68810238D01*
X139115666Y-68715000D01*
X139020428Y-68667380D01*
X138829952Y-68667380D01*
X138734714Y-68715000D01*
X138639476Y-68810238D01*
X138591857Y-69000714D01*
X138591857Y-69334047D01*
X138639476Y-69524523D01*
X138734714Y-69619761D01*
X138829952Y-69667380D01*
X139020428Y-69667380D01*
X137639476Y-69667380D02*
X138210904Y-69667380D01*
X137925190Y-69667380D02*
X137925190Y-68667380D01*
X138020428Y-68810238D01*
X138115666Y-68905476D01*
X138210904Y-68953095D01*
G04 #@! TO.C,Shift4*
X172870380Y-135568666D02*
X173870380Y-135902000D01*
X172870380Y-136235333D01*
X173775142Y-137140095D02*
X173822761Y-137092476D01*
X173870380Y-136949619D01*
X173870380Y-136854380D01*
X173822761Y-136711523D01*
X173727523Y-136616285D01*
X173632285Y-136568666D01*
X173441809Y-136521047D01*
X173298952Y-136521047D01*
X173108476Y-136568666D01*
X173013238Y-136616285D01*
X172918000Y-136711523D01*
X172870380Y-136854380D01*
X172870380Y-136949619D01*
X172918000Y-137092476D01*
X172965619Y-137140095D01*
X173775142Y-138140095D02*
X173822761Y-138092476D01*
X173870380Y-137949619D01*
X173870380Y-137854380D01*
X173822761Y-137711523D01*
X173727523Y-137616285D01*
X173632285Y-137568666D01*
X173441809Y-137521047D01*
X173298952Y-137521047D01*
X173108476Y-137568666D01*
X173013238Y-137616285D01*
X172918000Y-137711523D01*
X172870380Y-137854380D01*
X172870380Y-137949619D01*
X172918000Y-138092476D01*
X172965619Y-138140095D01*
X176365619Y-136506761D02*
X176318000Y-136411523D01*
X176222761Y-136316285D01*
X176079904Y-136173428D01*
X176032285Y-136078190D01*
X176032285Y-135982952D01*
X176270380Y-136030571D02*
X176222761Y-135935333D01*
X176127523Y-135840095D01*
X175937047Y-135792476D01*
X175603714Y-135792476D01*
X175413238Y-135840095D01*
X175318000Y-135935333D01*
X175270380Y-136030571D01*
X175270380Y-136221047D01*
X175318000Y-136316285D01*
X175413238Y-136411523D01*
X175603714Y-136459142D01*
X175937047Y-136459142D01*
X176127523Y-136411523D01*
X176222761Y-136316285D01*
X176270380Y-136221047D01*
X176270380Y-136030571D01*
X175270380Y-137078190D02*
X175270380Y-137173428D01*
X175318000Y-137268666D01*
X175365619Y-137316285D01*
X175460857Y-137363904D01*
X175651333Y-137411523D01*
X175889428Y-137411523D01*
X176079904Y-137363904D01*
X176175142Y-137316285D01*
X176222761Y-137268666D01*
X176270380Y-137173428D01*
X176270380Y-137078190D01*
X176222761Y-136982952D01*
X176175142Y-136935333D01*
X176079904Y-136887714D01*
X175889428Y-136840095D01*
X175651333Y-136840095D01*
X175460857Y-136887714D01*
X175365619Y-136935333D01*
X175318000Y-136982952D01*
X175270380Y-137078190D01*
X178870380Y-135802000D02*
X177870380Y-135802000D01*
X177870380Y-136040095D01*
X177918000Y-136182952D01*
X178013238Y-136278190D01*
X178108476Y-136325809D01*
X178298952Y-136373428D01*
X178441809Y-136373428D01*
X178632285Y-136325809D01*
X178727523Y-136278190D01*
X178822761Y-136182952D01*
X178870380Y-136040095D01*
X178870380Y-135802000D01*
X178584666Y-136754380D02*
X178584666Y-137230571D01*
X178870380Y-136659142D02*
X177870380Y-136992476D01*
X178870380Y-137325809D01*
X177870380Y-137516285D02*
X177870380Y-138087714D01*
X178870380Y-137802000D02*
X177870380Y-137802000D01*
X178584666Y-138373428D02*
X178584666Y-138849619D01*
X178870380Y-138278190D02*
X177870380Y-138611523D01*
X178870380Y-138944857D01*
X180470380Y-136154380D02*
X180470380Y-136344857D01*
X180518000Y-136440095D01*
X180613238Y-136535333D01*
X180803714Y-136582952D01*
X181137047Y-136582952D01*
X181327523Y-136535333D01*
X181422761Y-136440095D01*
X181470380Y-136344857D01*
X181470380Y-136154380D01*
X181422761Y-136059142D01*
X181327523Y-135963904D01*
X181137047Y-135916285D01*
X180803714Y-135916285D01*
X180613238Y-135963904D01*
X180518000Y-136059142D01*
X180470380Y-136154380D01*
X180946571Y-137011523D02*
X180946571Y-137344857D01*
X181470380Y-137487714D02*
X181470380Y-137011523D01*
X180470380Y-137011523D01*
X180470380Y-137487714D01*
X184122761Y-135535333D02*
X184170380Y-135678190D01*
X184170380Y-135916285D01*
X184122761Y-136011523D01*
X184075142Y-136059142D01*
X183979904Y-136106761D01*
X183884666Y-136106761D01*
X183789428Y-136059142D01*
X183741809Y-136011523D01*
X183694190Y-135916285D01*
X183646571Y-135725809D01*
X183598952Y-135630571D01*
X183551333Y-135582952D01*
X183456095Y-135535333D01*
X183360857Y-135535333D01*
X183265619Y-135582952D01*
X183218000Y-135630571D01*
X183170380Y-135725809D01*
X183170380Y-135963904D01*
X183218000Y-136106761D01*
X183170380Y-136392476D02*
X183170380Y-136963904D01*
X184170380Y-136678190D02*
X183170380Y-136678190D01*
X184075142Y-137868666D02*
X184122761Y-137821047D01*
X184170380Y-137678190D01*
X184170380Y-137582952D01*
X184122761Y-137440095D01*
X184027523Y-137344857D01*
X183932285Y-137297238D01*
X183741809Y-137249619D01*
X183598952Y-137249619D01*
X183408476Y-137297238D01*
X183313238Y-137344857D01*
X183218000Y-137440095D01*
X183170380Y-137582952D01*
X183170380Y-137678190D01*
X183218000Y-137821047D01*
X183265619Y-137868666D01*
X184170380Y-138297238D02*
X183170380Y-138297238D01*
X183170380Y-138678190D01*
X183218000Y-138773428D01*
X183265619Y-138821047D01*
X183360857Y-138868666D01*
X183503714Y-138868666D01*
X183598952Y-138821047D01*
X183646571Y-138773428D01*
X183694190Y-138678190D01*
X183694190Y-138297238D01*
X186422761Y-135392476D02*
X186470380Y-135535333D01*
X186470380Y-135773428D01*
X186422761Y-135868666D01*
X186375142Y-135916285D01*
X186279904Y-135963904D01*
X186184666Y-135963904D01*
X186089428Y-135916285D01*
X186041809Y-135868666D01*
X185994190Y-135773428D01*
X185946571Y-135582952D01*
X185898952Y-135487714D01*
X185851333Y-135440095D01*
X185756095Y-135392476D01*
X185660857Y-135392476D01*
X185565619Y-135440095D01*
X185518000Y-135487714D01*
X185470380Y-135582952D01*
X185470380Y-135821047D01*
X185518000Y-135963904D01*
X186470380Y-136392476D02*
X185470380Y-136392476D01*
X185946571Y-136392476D02*
X185946571Y-136963904D01*
X186470380Y-136963904D02*
X185470380Y-136963904D01*
X186375142Y-138011523D02*
X186422761Y-137963904D01*
X186470380Y-137821047D01*
X186470380Y-137725809D01*
X186422761Y-137582952D01*
X186327523Y-137487714D01*
X186232285Y-137440095D01*
X186041809Y-137392476D01*
X185898952Y-137392476D01*
X185708476Y-137440095D01*
X185613238Y-137487714D01*
X185518000Y-137582952D01*
X185470380Y-137725809D01*
X185470380Y-137821047D01*
X185518000Y-137963904D01*
X185565619Y-138011523D01*
X186470380Y-138440095D02*
X185470380Y-138440095D01*
X185470380Y-138821047D01*
X185518000Y-138916285D01*
X185565619Y-138963904D01*
X185660857Y-139011523D01*
X185803714Y-139011523D01*
X185898952Y-138963904D01*
X185946571Y-138916285D01*
X185994190Y-138821047D01*
X185994190Y-138440095D01*
X189070380Y-135568666D02*
X188070380Y-135568666D01*
X188784666Y-135902000D01*
X188070380Y-136235333D01*
X189070380Y-136235333D01*
X189070380Y-137282952D02*
X188594190Y-136949619D01*
X189070380Y-136711523D02*
X188070380Y-136711523D01*
X188070380Y-137092476D01*
X188118000Y-137187714D01*
X188165619Y-137235333D01*
X188260857Y-137282952D01*
X188403714Y-137282952D01*
X188498952Y-137235333D01*
X188546571Y-137187714D01*
X188594190Y-137092476D01*
X188594190Y-136711523D01*
X191665619Y-136068666D02*
X191618000Y-135973428D01*
X191522761Y-135878190D01*
X191379904Y-135735333D01*
X191332285Y-135640095D01*
X191332285Y-135544857D01*
X191570380Y-135592476D02*
X191522761Y-135497238D01*
X191427523Y-135402000D01*
X191237047Y-135354380D01*
X190903714Y-135354380D01*
X190713238Y-135402000D01*
X190618000Y-135497238D01*
X190570380Y-135592476D01*
X190570380Y-135782952D01*
X190618000Y-135878190D01*
X190713238Y-135973428D01*
X190903714Y-136021047D01*
X191237047Y-136021047D01*
X191427523Y-135973428D01*
X191522761Y-135878190D01*
X191570380Y-135782952D01*
X191570380Y-135592476D01*
X190570380Y-136354380D02*
X190570380Y-137021047D01*
X191570380Y-136592476D01*
X190570380Y-137449619D02*
X190760857Y-137354380D01*
X190618000Y-138740095D02*
X190570380Y-138644857D01*
X190570380Y-138502000D01*
X190618000Y-138359142D01*
X190713238Y-138263904D01*
X190808476Y-138216285D01*
X190998952Y-138168666D01*
X191141809Y-138168666D01*
X191332285Y-138216285D01*
X191427523Y-138263904D01*
X191522761Y-138359142D01*
X191570380Y-138502000D01*
X191570380Y-138597238D01*
X191522761Y-138740095D01*
X191475142Y-138787714D01*
X191141809Y-138787714D01*
X191141809Y-138597238D01*
X191570380Y-139216285D02*
X190570380Y-139216285D01*
X191570380Y-139787714D01*
X190570380Y-139787714D01*
X191570380Y-140263904D02*
X190570380Y-140263904D01*
X190570380Y-140502000D01*
X190618000Y-140644857D01*
X190713238Y-140740095D01*
X190808476Y-140787714D01*
X190998952Y-140835333D01*
X191141809Y-140835333D01*
X191332285Y-140787714D01*
X191427523Y-140740095D01*
X191522761Y-140644857D01*
X191570380Y-140502000D01*
X191570380Y-140263904D01*
X186565619Y-139906761D02*
X186518000Y-139811523D01*
X186422761Y-139716285D01*
X186279904Y-139573428D01*
X186232285Y-139478190D01*
X186232285Y-139382952D01*
X186470380Y-139430571D02*
X186422761Y-139335333D01*
X186327523Y-139240095D01*
X186137047Y-139192476D01*
X185803714Y-139192476D01*
X185613238Y-139240095D01*
X185518000Y-139335333D01*
X185470380Y-139430571D01*
X185470380Y-139621047D01*
X185518000Y-139716285D01*
X185613238Y-139811523D01*
X185803714Y-139859142D01*
X186137047Y-139859142D01*
X186327523Y-139811523D01*
X186422761Y-139716285D01*
X186470380Y-139621047D01*
X186470380Y-139430571D01*
X185470380Y-140716285D02*
X185470380Y-140525809D01*
X185518000Y-140430571D01*
X185565619Y-140382952D01*
X185708476Y-140287714D01*
X185898952Y-140240095D01*
X186279904Y-140240095D01*
X186375142Y-140287714D01*
X186422761Y-140335333D01*
X186470380Y-140430571D01*
X186470380Y-140621047D01*
X186422761Y-140716285D01*
X186375142Y-140763904D01*
X186279904Y-140811523D01*
X186041809Y-140811523D01*
X185946571Y-140763904D01*
X185898952Y-140716285D01*
X185851333Y-140621047D01*
X185851333Y-140430571D01*
X185898952Y-140335333D01*
X185946571Y-140287714D01*
X186041809Y-140240095D01*
X189165619Y-139906761D02*
X189118000Y-139811523D01*
X189022761Y-139716285D01*
X188879904Y-139573428D01*
X188832285Y-139478190D01*
X188832285Y-139382952D01*
X189070380Y-139430571D02*
X189022761Y-139335333D01*
X188927523Y-139240095D01*
X188737047Y-139192476D01*
X188403714Y-139192476D01*
X188213238Y-139240095D01*
X188118000Y-139335333D01*
X188070380Y-139430571D01*
X188070380Y-139621047D01*
X188118000Y-139716285D01*
X188213238Y-139811523D01*
X188403714Y-139859142D01*
X188737047Y-139859142D01*
X188927523Y-139811523D01*
X189022761Y-139716285D01*
X189070380Y-139621047D01*
X189070380Y-139430571D01*
X188070380Y-140192476D02*
X188070380Y-140859142D01*
X189070380Y-140430571D01*
X184215619Y-139906761D02*
X184168000Y-139811523D01*
X184072761Y-139716285D01*
X183929904Y-139573428D01*
X183882285Y-139478190D01*
X183882285Y-139382952D01*
X184120380Y-139430571D02*
X184072761Y-139335333D01*
X183977523Y-139240095D01*
X183787047Y-139192476D01*
X183453714Y-139192476D01*
X183263238Y-139240095D01*
X183168000Y-139335333D01*
X183120380Y-139430571D01*
X183120380Y-139621047D01*
X183168000Y-139716285D01*
X183263238Y-139811523D01*
X183453714Y-139859142D01*
X183787047Y-139859142D01*
X183977523Y-139811523D01*
X184072761Y-139716285D01*
X184120380Y-139621047D01*
X184120380Y-139430571D01*
X183120380Y-140763904D02*
X183120380Y-140287714D01*
X183596571Y-140240095D01*
X183548952Y-140287714D01*
X183501333Y-140382952D01*
X183501333Y-140621047D01*
X183548952Y-140716285D01*
X183596571Y-140763904D01*
X183691809Y-140811523D01*
X183929904Y-140811523D01*
X184025142Y-140763904D01*
X184072761Y-140716285D01*
X184120380Y-140621047D01*
X184120380Y-140382952D01*
X184072761Y-140287714D01*
X184025142Y-140240095D01*
X181465619Y-139906761D02*
X181418000Y-139811523D01*
X181322761Y-139716285D01*
X181179904Y-139573428D01*
X181132285Y-139478190D01*
X181132285Y-139382952D01*
X181370380Y-139430571D02*
X181322761Y-139335333D01*
X181227523Y-139240095D01*
X181037047Y-139192476D01*
X180703714Y-139192476D01*
X180513238Y-139240095D01*
X180418000Y-139335333D01*
X180370380Y-139430571D01*
X180370380Y-139621047D01*
X180418000Y-139716285D01*
X180513238Y-139811523D01*
X180703714Y-139859142D01*
X181037047Y-139859142D01*
X181227523Y-139811523D01*
X181322761Y-139716285D01*
X181370380Y-139621047D01*
X181370380Y-139430571D01*
X180703714Y-140716285D02*
X181370380Y-140716285D01*
X180322761Y-140478190D02*
X181037047Y-140240095D01*
X181037047Y-140859142D01*
X178965619Y-139906761D02*
X178918000Y-139811523D01*
X178822761Y-139716285D01*
X178679904Y-139573428D01*
X178632285Y-139478190D01*
X178632285Y-139382952D01*
X178870380Y-139430571D02*
X178822761Y-139335333D01*
X178727523Y-139240095D01*
X178537047Y-139192476D01*
X178203714Y-139192476D01*
X178013238Y-139240095D01*
X177918000Y-139335333D01*
X177870380Y-139430571D01*
X177870380Y-139621047D01*
X177918000Y-139716285D01*
X178013238Y-139811523D01*
X178203714Y-139859142D01*
X178537047Y-139859142D01*
X178727523Y-139811523D01*
X178822761Y-139716285D01*
X178870380Y-139621047D01*
X178870380Y-139430571D01*
X177870380Y-140192476D02*
X177870380Y-140811523D01*
X178251333Y-140478190D01*
X178251333Y-140621047D01*
X178298952Y-140716285D01*
X178346571Y-140763904D01*
X178441809Y-140811523D01*
X178679904Y-140811523D01*
X178775142Y-140763904D01*
X178822761Y-140716285D01*
X178870380Y-140621047D01*
X178870380Y-140335333D01*
X178822761Y-140240095D01*
X178775142Y-140192476D01*
X176465619Y-139906761D02*
X176418000Y-139811523D01*
X176322761Y-139716285D01*
X176179904Y-139573428D01*
X176132285Y-139478190D01*
X176132285Y-139382952D01*
X176370380Y-139430571D02*
X176322761Y-139335333D01*
X176227523Y-139240095D01*
X176037047Y-139192476D01*
X175703714Y-139192476D01*
X175513238Y-139240095D01*
X175418000Y-139335333D01*
X175370380Y-139430571D01*
X175370380Y-139621047D01*
X175418000Y-139716285D01*
X175513238Y-139811523D01*
X175703714Y-139859142D01*
X176037047Y-139859142D01*
X176227523Y-139811523D01*
X176322761Y-139716285D01*
X176370380Y-139621047D01*
X176370380Y-139430571D01*
X175465619Y-140240095D02*
X175418000Y-140287714D01*
X175370380Y-140382952D01*
X175370380Y-140621047D01*
X175418000Y-140716285D01*
X175465619Y-140763904D01*
X175560857Y-140811523D01*
X175656095Y-140811523D01*
X175798952Y-140763904D01*
X176370380Y-140192476D01*
X176370380Y-140811523D01*
X173965619Y-139906761D02*
X173918000Y-139811523D01*
X173822761Y-139716285D01*
X173679904Y-139573428D01*
X173632285Y-139478190D01*
X173632285Y-139382952D01*
X173870380Y-139430571D02*
X173822761Y-139335333D01*
X173727523Y-139240095D01*
X173537047Y-139192476D01*
X173203714Y-139192476D01*
X173013238Y-139240095D01*
X172918000Y-139335333D01*
X172870380Y-139430571D01*
X172870380Y-139621047D01*
X172918000Y-139716285D01*
X173013238Y-139811523D01*
X173203714Y-139859142D01*
X173537047Y-139859142D01*
X173727523Y-139811523D01*
X173822761Y-139716285D01*
X173870380Y-139621047D01*
X173870380Y-139430571D01*
X173870380Y-140811523D02*
X173870380Y-140240095D01*
X173870380Y-140525809D02*
X172870380Y-140525809D01*
X173013238Y-140430571D01*
X173108476Y-140335333D01*
X173156095Y-140240095D01*
G04 #@! TO.C,Shift5*
X150963380Y-135488666D02*
X151963380Y-135822000D01*
X150963380Y-136155333D01*
X151868142Y-137060095D02*
X151915761Y-137012476D01*
X151963380Y-136869619D01*
X151963380Y-136774380D01*
X151915761Y-136631523D01*
X151820523Y-136536285D01*
X151725285Y-136488666D01*
X151534809Y-136441047D01*
X151391952Y-136441047D01*
X151201476Y-136488666D01*
X151106238Y-136536285D01*
X151011000Y-136631523D01*
X150963380Y-136774380D01*
X150963380Y-136869619D01*
X151011000Y-137012476D01*
X151058619Y-137060095D01*
X151868142Y-138060095D02*
X151915761Y-138012476D01*
X151963380Y-137869619D01*
X151963380Y-137774380D01*
X151915761Y-137631523D01*
X151820523Y-137536285D01*
X151725285Y-137488666D01*
X151534809Y-137441047D01*
X151391952Y-137441047D01*
X151201476Y-137488666D01*
X151106238Y-137536285D01*
X151011000Y-137631523D01*
X150963380Y-137774380D01*
X150963380Y-137869619D01*
X151011000Y-138012476D01*
X151058619Y-138060095D01*
X154458619Y-136426761D02*
X154411000Y-136331523D01*
X154315761Y-136236285D01*
X154172904Y-136093428D01*
X154125285Y-135998190D01*
X154125285Y-135902952D01*
X154363380Y-135950571D02*
X154315761Y-135855333D01*
X154220523Y-135760095D01*
X154030047Y-135712476D01*
X153696714Y-135712476D01*
X153506238Y-135760095D01*
X153411000Y-135855333D01*
X153363380Y-135950571D01*
X153363380Y-136141047D01*
X153411000Y-136236285D01*
X153506238Y-136331523D01*
X153696714Y-136379142D01*
X154030047Y-136379142D01*
X154220523Y-136331523D01*
X154315761Y-136236285D01*
X154363380Y-136141047D01*
X154363380Y-135950571D01*
X153363380Y-136998190D02*
X153363380Y-137093428D01*
X153411000Y-137188666D01*
X153458619Y-137236285D01*
X153553857Y-137283904D01*
X153744333Y-137331523D01*
X153982428Y-137331523D01*
X154172904Y-137283904D01*
X154268142Y-137236285D01*
X154315761Y-137188666D01*
X154363380Y-137093428D01*
X154363380Y-136998190D01*
X154315761Y-136902952D01*
X154268142Y-136855333D01*
X154172904Y-136807714D01*
X153982428Y-136760095D01*
X153744333Y-136760095D01*
X153553857Y-136807714D01*
X153458619Y-136855333D01*
X153411000Y-136902952D01*
X153363380Y-136998190D01*
X156963380Y-135722000D02*
X155963380Y-135722000D01*
X155963380Y-135960095D01*
X156011000Y-136102952D01*
X156106238Y-136198190D01*
X156201476Y-136245809D01*
X156391952Y-136293428D01*
X156534809Y-136293428D01*
X156725285Y-136245809D01*
X156820523Y-136198190D01*
X156915761Y-136102952D01*
X156963380Y-135960095D01*
X156963380Y-135722000D01*
X156677666Y-136674380D02*
X156677666Y-137150571D01*
X156963380Y-136579142D02*
X155963380Y-136912476D01*
X156963380Y-137245809D01*
X155963380Y-137436285D02*
X155963380Y-138007714D01*
X156963380Y-137722000D02*
X155963380Y-137722000D01*
X156677666Y-138293428D02*
X156677666Y-138769619D01*
X156963380Y-138198190D02*
X155963380Y-138531523D01*
X156963380Y-138864857D01*
X158563380Y-136074380D02*
X158563380Y-136264857D01*
X158611000Y-136360095D01*
X158706238Y-136455333D01*
X158896714Y-136502952D01*
X159230047Y-136502952D01*
X159420523Y-136455333D01*
X159515761Y-136360095D01*
X159563380Y-136264857D01*
X159563380Y-136074380D01*
X159515761Y-135979142D01*
X159420523Y-135883904D01*
X159230047Y-135836285D01*
X158896714Y-135836285D01*
X158706238Y-135883904D01*
X158611000Y-135979142D01*
X158563380Y-136074380D01*
X159039571Y-136931523D02*
X159039571Y-137264857D01*
X159563380Y-137407714D02*
X159563380Y-136931523D01*
X158563380Y-136931523D01*
X158563380Y-137407714D01*
X162215761Y-135455333D02*
X162263380Y-135598190D01*
X162263380Y-135836285D01*
X162215761Y-135931523D01*
X162168142Y-135979142D01*
X162072904Y-136026761D01*
X161977666Y-136026761D01*
X161882428Y-135979142D01*
X161834809Y-135931523D01*
X161787190Y-135836285D01*
X161739571Y-135645809D01*
X161691952Y-135550571D01*
X161644333Y-135502952D01*
X161549095Y-135455333D01*
X161453857Y-135455333D01*
X161358619Y-135502952D01*
X161311000Y-135550571D01*
X161263380Y-135645809D01*
X161263380Y-135883904D01*
X161311000Y-136026761D01*
X161263380Y-136312476D02*
X161263380Y-136883904D01*
X162263380Y-136598190D02*
X161263380Y-136598190D01*
X162168142Y-137788666D02*
X162215761Y-137741047D01*
X162263380Y-137598190D01*
X162263380Y-137502952D01*
X162215761Y-137360095D01*
X162120523Y-137264857D01*
X162025285Y-137217238D01*
X161834809Y-137169619D01*
X161691952Y-137169619D01*
X161501476Y-137217238D01*
X161406238Y-137264857D01*
X161311000Y-137360095D01*
X161263380Y-137502952D01*
X161263380Y-137598190D01*
X161311000Y-137741047D01*
X161358619Y-137788666D01*
X162263380Y-138217238D02*
X161263380Y-138217238D01*
X161263380Y-138598190D01*
X161311000Y-138693428D01*
X161358619Y-138741047D01*
X161453857Y-138788666D01*
X161596714Y-138788666D01*
X161691952Y-138741047D01*
X161739571Y-138693428D01*
X161787190Y-138598190D01*
X161787190Y-138217238D01*
X164515761Y-135312476D02*
X164563380Y-135455333D01*
X164563380Y-135693428D01*
X164515761Y-135788666D01*
X164468142Y-135836285D01*
X164372904Y-135883904D01*
X164277666Y-135883904D01*
X164182428Y-135836285D01*
X164134809Y-135788666D01*
X164087190Y-135693428D01*
X164039571Y-135502952D01*
X163991952Y-135407714D01*
X163944333Y-135360095D01*
X163849095Y-135312476D01*
X163753857Y-135312476D01*
X163658619Y-135360095D01*
X163611000Y-135407714D01*
X163563380Y-135502952D01*
X163563380Y-135741047D01*
X163611000Y-135883904D01*
X164563380Y-136312476D02*
X163563380Y-136312476D01*
X164039571Y-136312476D02*
X164039571Y-136883904D01*
X164563380Y-136883904D02*
X163563380Y-136883904D01*
X164468142Y-137931523D02*
X164515761Y-137883904D01*
X164563380Y-137741047D01*
X164563380Y-137645809D01*
X164515761Y-137502952D01*
X164420523Y-137407714D01*
X164325285Y-137360095D01*
X164134809Y-137312476D01*
X163991952Y-137312476D01*
X163801476Y-137360095D01*
X163706238Y-137407714D01*
X163611000Y-137502952D01*
X163563380Y-137645809D01*
X163563380Y-137741047D01*
X163611000Y-137883904D01*
X163658619Y-137931523D01*
X164563380Y-138360095D02*
X163563380Y-138360095D01*
X163563380Y-138741047D01*
X163611000Y-138836285D01*
X163658619Y-138883904D01*
X163753857Y-138931523D01*
X163896714Y-138931523D01*
X163991952Y-138883904D01*
X164039571Y-138836285D01*
X164087190Y-138741047D01*
X164087190Y-138360095D01*
X167163380Y-135488666D02*
X166163380Y-135488666D01*
X166877666Y-135822000D01*
X166163380Y-136155333D01*
X167163380Y-136155333D01*
X167163380Y-137202952D02*
X166687190Y-136869619D01*
X167163380Y-136631523D02*
X166163380Y-136631523D01*
X166163380Y-137012476D01*
X166211000Y-137107714D01*
X166258619Y-137155333D01*
X166353857Y-137202952D01*
X166496714Y-137202952D01*
X166591952Y-137155333D01*
X166639571Y-137107714D01*
X166687190Y-137012476D01*
X166687190Y-136631523D01*
X169758619Y-135988666D02*
X169711000Y-135893428D01*
X169615761Y-135798190D01*
X169472904Y-135655333D01*
X169425285Y-135560095D01*
X169425285Y-135464857D01*
X169663380Y-135512476D02*
X169615761Y-135417238D01*
X169520523Y-135322000D01*
X169330047Y-135274380D01*
X168996714Y-135274380D01*
X168806238Y-135322000D01*
X168711000Y-135417238D01*
X168663380Y-135512476D01*
X168663380Y-135702952D01*
X168711000Y-135798190D01*
X168806238Y-135893428D01*
X168996714Y-135941047D01*
X169330047Y-135941047D01*
X169520523Y-135893428D01*
X169615761Y-135798190D01*
X169663380Y-135702952D01*
X169663380Y-135512476D01*
X168663380Y-136274380D02*
X168663380Y-136941047D01*
X169663380Y-136512476D01*
X168663380Y-137369619D02*
X168853857Y-137274380D01*
X168711000Y-138660095D02*
X168663380Y-138564857D01*
X168663380Y-138422000D01*
X168711000Y-138279142D01*
X168806238Y-138183904D01*
X168901476Y-138136285D01*
X169091952Y-138088666D01*
X169234809Y-138088666D01*
X169425285Y-138136285D01*
X169520523Y-138183904D01*
X169615761Y-138279142D01*
X169663380Y-138422000D01*
X169663380Y-138517238D01*
X169615761Y-138660095D01*
X169568142Y-138707714D01*
X169234809Y-138707714D01*
X169234809Y-138517238D01*
X169663380Y-139136285D02*
X168663380Y-139136285D01*
X169663380Y-139707714D01*
X168663380Y-139707714D01*
X169663380Y-140183904D02*
X168663380Y-140183904D01*
X168663380Y-140422000D01*
X168711000Y-140564857D01*
X168806238Y-140660095D01*
X168901476Y-140707714D01*
X169091952Y-140755333D01*
X169234809Y-140755333D01*
X169425285Y-140707714D01*
X169520523Y-140660095D01*
X169615761Y-140564857D01*
X169663380Y-140422000D01*
X169663380Y-140183904D01*
X164658619Y-139826761D02*
X164611000Y-139731523D01*
X164515761Y-139636285D01*
X164372904Y-139493428D01*
X164325285Y-139398190D01*
X164325285Y-139302952D01*
X164563380Y-139350571D02*
X164515761Y-139255333D01*
X164420523Y-139160095D01*
X164230047Y-139112476D01*
X163896714Y-139112476D01*
X163706238Y-139160095D01*
X163611000Y-139255333D01*
X163563380Y-139350571D01*
X163563380Y-139541047D01*
X163611000Y-139636285D01*
X163706238Y-139731523D01*
X163896714Y-139779142D01*
X164230047Y-139779142D01*
X164420523Y-139731523D01*
X164515761Y-139636285D01*
X164563380Y-139541047D01*
X164563380Y-139350571D01*
X163563380Y-140636285D02*
X163563380Y-140445809D01*
X163611000Y-140350571D01*
X163658619Y-140302952D01*
X163801476Y-140207714D01*
X163991952Y-140160095D01*
X164372904Y-140160095D01*
X164468142Y-140207714D01*
X164515761Y-140255333D01*
X164563380Y-140350571D01*
X164563380Y-140541047D01*
X164515761Y-140636285D01*
X164468142Y-140683904D01*
X164372904Y-140731523D01*
X164134809Y-140731523D01*
X164039571Y-140683904D01*
X163991952Y-140636285D01*
X163944333Y-140541047D01*
X163944333Y-140350571D01*
X163991952Y-140255333D01*
X164039571Y-140207714D01*
X164134809Y-140160095D01*
X167258619Y-139826761D02*
X167211000Y-139731523D01*
X167115761Y-139636285D01*
X166972904Y-139493428D01*
X166925285Y-139398190D01*
X166925285Y-139302952D01*
X167163380Y-139350571D02*
X167115761Y-139255333D01*
X167020523Y-139160095D01*
X166830047Y-139112476D01*
X166496714Y-139112476D01*
X166306238Y-139160095D01*
X166211000Y-139255333D01*
X166163380Y-139350571D01*
X166163380Y-139541047D01*
X166211000Y-139636285D01*
X166306238Y-139731523D01*
X166496714Y-139779142D01*
X166830047Y-139779142D01*
X167020523Y-139731523D01*
X167115761Y-139636285D01*
X167163380Y-139541047D01*
X167163380Y-139350571D01*
X166163380Y-140112476D02*
X166163380Y-140779142D01*
X167163380Y-140350571D01*
X162308619Y-139826761D02*
X162261000Y-139731523D01*
X162165761Y-139636285D01*
X162022904Y-139493428D01*
X161975285Y-139398190D01*
X161975285Y-139302952D01*
X162213380Y-139350571D02*
X162165761Y-139255333D01*
X162070523Y-139160095D01*
X161880047Y-139112476D01*
X161546714Y-139112476D01*
X161356238Y-139160095D01*
X161261000Y-139255333D01*
X161213380Y-139350571D01*
X161213380Y-139541047D01*
X161261000Y-139636285D01*
X161356238Y-139731523D01*
X161546714Y-139779142D01*
X161880047Y-139779142D01*
X162070523Y-139731523D01*
X162165761Y-139636285D01*
X162213380Y-139541047D01*
X162213380Y-139350571D01*
X161213380Y-140683904D02*
X161213380Y-140207714D01*
X161689571Y-140160095D01*
X161641952Y-140207714D01*
X161594333Y-140302952D01*
X161594333Y-140541047D01*
X161641952Y-140636285D01*
X161689571Y-140683904D01*
X161784809Y-140731523D01*
X162022904Y-140731523D01*
X162118142Y-140683904D01*
X162165761Y-140636285D01*
X162213380Y-140541047D01*
X162213380Y-140302952D01*
X162165761Y-140207714D01*
X162118142Y-140160095D01*
X159558619Y-139826761D02*
X159511000Y-139731523D01*
X159415761Y-139636285D01*
X159272904Y-139493428D01*
X159225285Y-139398190D01*
X159225285Y-139302952D01*
X159463380Y-139350571D02*
X159415761Y-139255333D01*
X159320523Y-139160095D01*
X159130047Y-139112476D01*
X158796714Y-139112476D01*
X158606238Y-139160095D01*
X158511000Y-139255333D01*
X158463380Y-139350571D01*
X158463380Y-139541047D01*
X158511000Y-139636285D01*
X158606238Y-139731523D01*
X158796714Y-139779142D01*
X159130047Y-139779142D01*
X159320523Y-139731523D01*
X159415761Y-139636285D01*
X159463380Y-139541047D01*
X159463380Y-139350571D01*
X158796714Y-140636285D02*
X159463380Y-140636285D01*
X158415761Y-140398190D02*
X159130047Y-140160095D01*
X159130047Y-140779142D01*
X157058619Y-139826761D02*
X157011000Y-139731523D01*
X156915761Y-139636285D01*
X156772904Y-139493428D01*
X156725285Y-139398190D01*
X156725285Y-139302952D01*
X156963380Y-139350571D02*
X156915761Y-139255333D01*
X156820523Y-139160095D01*
X156630047Y-139112476D01*
X156296714Y-139112476D01*
X156106238Y-139160095D01*
X156011000Y-139255333D01*
X155963380Y-139350571D01*
X155963380Y-139541047D01*
X156011000Y-139636285D01*
X156106238Y-139731523D01*
X156296714Y-139779142D01*
X156630047Y-139779142D01*
X156820523Y-139731523D01*
X156915761Y-139636285D01*
X156963380Y-139541047D01*
X156963380Y-139350571D01*
X155963380Y-140112476D02*
X155963380Y-140731523D01*
X156344333Y-140398190D01*
X156344333Y-140541047D01*
X156391952Y-140636285D01*
X156439571Y-140683904D01*
X156534809Y-140731523D01*
X156772904Y-140731523D01*
X156868142Y-140683904D01*
X156915761Y-140636285D01*
X156963380Y-140541047D01*
X156963380Y-140255333D01*
X156915761Y-140160095D01*
X156868142Y-140112476D01*
X154558619Y-139826761D02*
X154511000Y-139731523D01*
X154415761Y-139636285D01*
X154272904Y-139493428D01*
X154225285Y-139398190D01*
X154225285Y-139302952D01*
X154463380Y-139350571D02*
X154415761Y-139255333D01*
X154320523Y-139160095D01*
X154130047Y-139112476D01*
X153796714Y-139112476D01*
X153606238Y-139160095D01*
X153511000Y-139255333D01*
X153463380Y-139350571D01*
X153463380Y-139541047D01*
X153511000Y-139636285D01*
X153606238Y-139731523D01*
X153796714Y-139779142D01*
X154130047Y-139779142D01*
X154320523Y-139731523D01*
X154415761Y-139636285D01*
X154463380Y-139541047D01*
X154463380Y-139350571D01*
X153558619Y-140160095D02*
X153511000Y-140207714D01*
X153463380Y-140302952D01*
X153463380Y-140541047D01*
X153511000Y-140636285D01*
X153558619Y-140683904D01*
X153653857Y-140731523D01*
X153749095Y-140731523D01*
X153891952Y-140683904D01*
X154463380Y-140112476D01*
X154463380Y-140731523D01*
X152058619Y-139826761D02*
X152011000Y-139731523D01*
X151915761Y-139636285D01*
X151772904Y-139493428D01*
X151725285Y-139398190D01*
X151725285Y-139302952D01*
X151963380Y-139350571D02*
X151915761Y-139255333D01*
X151820523Y-139160095D01*
X151630047Y-139112476D01*
X151296714Y-139112476D01*
X151106238Y-139160095D01*
X151011000Y-139255333D01*
X150963380Y-139350571D01*
X150963380Y-139541047D01*
X151011000Y-139636285D01*
X151106238Y-139731523D01*
X151296714Y-139779142D01*
X151630047Y-139779142D01*
X151820523Y-139731523D01*
X151915761Y-139636285D01*
X151963380Y-139541047D01*
X151963380Y-139350571D01*
X151963380Y-140731523D02*
X151963380Y-140160095D01*
X151963380Y-140445809D02*
X150963380Y-140445809D01*
X151106238Y-140350571D01*
X151201476Y-140255333D01*
X151249095Y-140160095D01*
G04 #@! TD*
M02*
