G04 #@! TF.GenerationSoftware,KiCad,Pcbnew,(5.0.0)*
G04 #@! TF.CreationDate,2018-10-09T19:45:50-04:00*
G04 #@! TF.ProjectId,MiniTempleT,4D696E6954656D706C65542E6B696361,rev?*
G04 #@! TF.SameCoordinates,Original*
G04 #@! TF.FileFunction,Soldermask,Top*
G04 #@! TF.FilePolarity,Negative*
%FSLAX46Y46*%
G04 Gerber Fmt 4.6, Leading zero omitted, Abs format (unit mm)*
G04 Created by KiCad (PCBNEW (5.0.0)) date 10/09/18 19:45:50*
%MOMM*%
%LPD*%
G01*
G04 APERTURE LIST*
%ADD10R,2.200000X2.200000*%
%ADD11C,2.200000*%
%ADD12R,2.100000X2.100000*%
%ADD13O,2.100000X2.100000*%
%ADD14R,2.000000X2.000000*%
%ADD15O,2.000000X2.000000*%
%ADD16C,2.400000*%
%ADD17C,2.900000*%
G04 APERTURE END LIST*
D10*
G04 #@! TO.C,D1*
X130683000Y-85217000D03*
D11*
X133223000Y-85217000D03*
G04 #@! TD*
D10*
G04 #@! TO.C,D2*
X130683000Y-76117000D03*
D11*
X133223000Y-76117000D03*
G04 #@! TD*
D10*
G04 #@! TO.C,D3*
X130683000Y-67017000D03*
D11*
X133223000Y-67017000D03*
G04 #@! TD*
D10*
G04 #@! TO.C,D4*
X130683000Y-57917000D03*
D11*
X133223000Y-57917000D03*
G04 #@! TD*
D10*
G04 #@! TO.C,D6*
X150283000Y-57917000D03*
D11*
X152823000Y-57917000D03*
G04 #@! TD*
D10*
G04 #@! TO.C,D7*
X160083000Y-57917000D03*
D11*
X162623000Y-57917000D03*
G04 #@! TD*
D10*
G04 #@! TO.C,D8*
X169883000Y-57917000D03*
D11*
X172423000Y-57917000D03*
G04 #@! TD*
D10*
G04 #@! TO.C,D9*
X179683000Y-57917000D03*
D11*
X182223000Y-57917000D03*
G04 #@! TD*
D10*
G04 #@! TO.C,D10*
X189483000Y-57917000D03*
D11*
X192023000Y-57917000D03*
G04 #@! TD*
D10*
G04 #@! TO.C,D11*
X199283000Y-57917000D03*
D11*
X201823000Y-57917000D03*
G04 #@! TD*
D10*
G04 #@! TO.C,D12*
X209083000Y-57917000D03*
D11*
X211623000Y-57917000D03*
G04 #@! TD*
D10*
G04 #@! TO.C,D14*
X209083000Y-76117000D03*
D11*
X211623000Y-76117000D03*
G04 #@! TD*
D10*
G04 #@! TO.C,D15*
X209083000Y-85217000D03*
D11*
X211623000Y-85217000D03*
G04 #@! TD*
D10*
G04 #@! TO.C,D16*
X192557000Y-85217000D03*
D11*
X195097000Y-85217000D03*
G04 #@! TD*
D10*
G04 #@! TO.C,D17*
X192557000Y-73837800D03*
D11*
X195097000Y-73837800D03*
G04 #@! TD*
D10*
G04 #@! TO.C,D18*
X185369000Y-73837800D03*
D11*
X187909000Y-73837800D03*
G04 #@! TD*
D10*
G04 #@! TO.C,D19*
X178156000Y-73837800D03*
D11*
X180696000Y-73837800D03*
G04 #@! TD*
D10*
G04 #@! TO.C,D20*
X178156000Y-83037800D03*
D11*
X180696000Y-83037800D03*
G04 #@! TD*
D10*
G04 #@! TO.C,D22*
X178156000Y-120699000D03*
D11*
X180696000Y-120699000D03*
G04 #@! TD*
D10*
G04 #@! TO.C,D23*
X178156000Y-129899000D03*
D11*
X180696000Y-129899000D03*
G04 #@! TD*
D10*
G04 #@! TO.C,D24*
X188156000Y-129899000D03*
D11*
X190696000Y-129899000D03*
G04 #@! TD*
D10*
G04 #@! TO.C,D25*
X188150000Y-146558000D03*
D11*
X190690000Y-146558000D03*
G04 #@! TD*
D10*
G04 #@! TO.C,D26*
X178950000Y-146558000D03*
D11*
X181490000Y-146558000D03*
G04 #@! TD*
D10*
G04 #@! TO.C,D27*
X169926000Y-146558000D03*
D11*
X172466000Y-146558000D03*
G04 #@! TD*
D10*
G04 #@! TO.C,D28*
X160902000Y-146558000D03*
D11*
X163442000Y-146558000D03*
G04 #@! TD*
D10*
G04 #@! TO.C,D30*
X151877000Y-129899000D03*
D11*
X154417000Y-129899000D03*
G04 #@! TD*
D10*
G04 #@! TO.C,D31*
X161734000Y-129921000D03*
D11*
X164274000Y-129921000D03*
G04 #@! TD*
D10*
G04 #@! TO.C,D32*
X161734000Y-120699000D03*
D11*
X164274000Y-120699000D03*
G04 #@! TD*
D12*
G04 #@! TO.C,POWER1*
X182880000Y-66040000D03*
D13*
X185420000Y-66040000D03*
X187960000Y-66040000D03*
G04 #@! TD*
D14*
G04 #@! TO.C,Tiny85*
X167450000Y-122618000D03*
D15*
X175070000Y-130238000D03*
X167450000Y-125158000D03*
X175070000Y-127698000D03*
X167450000Y-127698000D03*
X175070000Y-125158000D03*
X167450000Y-130238000D03*
X175070000Y-122618000D03*
G04 #@! TD*
D10*
G04 #@! TO.C,D5*
X140483000Y-57917000D03*
D11*
X143023000Y-57917000D03*
G04 #@! TD*
D10*
G04 #@! TO.C,D13*
X209083000Y-67017000D03*
D11*
X211623000Y-67017000D03*
G04 #@! TD*
D10*
G04 #@! TO.C,D21*
X178156000Y-92237800D03*
D11*
X180696000Y-92237800D03*
G04 #@! TD*
D10*
G04 #@! TO.C,D29*
X151877000Y-146558000D03*
D11*
X154417000Y-146558000D03*
G04 #@! TD*
D10*
G04 #@! TO.C,D33*
X161734000Y-92237800D03*
D11*
X164274000Y-92237800D03*
G04 #@! TD*
D10*
G04 #@! TO.C,D34*
X161734000Y-83037800D03*
D11*
X164274000Y-83037800D03*
G04 #@! TD*
D10*
G04 #@! TO.C,D35*
X161734000Y-73837800D03*
D11*
X164274000Y-73837800D03*
G04 #@! TD*
D10*
G04 #@! TO.C,D36*
X154496000Y-73850500D03*
D11*
X157036000Y-73850500D03*
G04 #@! TD*
D10*
G04 #@! TO.C,D37*
X147256000Y-73850500D03*
D11*
X149796000Y-73850500D03*
G04 #@! TD*
D10*
G04 #@! TO.C,D38*
X147256000Y-85217000D03*
D11*
X149796000Y-85217000D03*
G04 #@! TD*
D16*
G04 #@! TO.C,BTN1*
X167965000Y-70540000D03*
X167965000Y-66040000D03*
X174465000Y-70540000D03*
X174465000Y-66040000D03*
G04 #@! TD*
D17*
G04 #@! TO.C,Battery1*
X171196000Y-99569000D03*
X171196000Y-119069000D03*
G04 #@! TD*
D12*
G04 #@! TO.C,Shift_IO1*
X147320000Y-66040000D03*
D13*
X149860000Y-66040000D03*
X152400000Y-66040000D03*
X154940000Y-66040000D03*
X157480000Y-66040000D03*
G04 #@! TD*
D12*
G04 #@! TO.C,Power1*
X169799000Y-105537000D03*
D13*
X172339000Y-105537000D03*
G04 #@! TD*
D14*
G04 #@! TO.C,Shift2*
X198298000Y-69215000D03*
D15*
X205918000Y-86995000D03*
X198298000Y-71755000D03*
X205918000Y-84455000D03*
X198298000Y-74295000D03*
X205918000Y-81915000D03*
X198298000Y-76835000D03*
X205918000Y-79375000D03*
X198298000Y-79375000D03*
X205918000Y-76835000D03*
X198298000Y-81915000D03*
X205918000Y-74295000D03*
X198298000Y-84455000D03*
X205918000Y-71755000D03*
X198298000Y-86995000D03*
X205918000Y-69215000D03*
G04 #@! TD*
D14*
G04 #@! TO.C,Shift3*
X167386000Y-76885800D03*
D15*
X175006000Y-94665800D03*
X167386000Y-79425800D03*
X175006000Y-92125800D03*
X167386000Y-81965800D03*
X175006000Y-89585800D03*
X167386000Y-84505800D03*
X175006000Y-87045800D03*
X167386000Y-87045800D03*
X175006000Y-84505800D03*
X167386000Y-89585800D03*
X175006000Y-81965800D03*
X167386000Y-92125800D03*
X175006000Y-79425800D03*
X167386000Y-94665800D03*
X175006000Y-76885800D03*
G04 #@! TD*
D14*
G04 #@! TO.C,Shift1*
X136449000Y-69215000D03*
D15*
X144069000Y-86995000D03*
X136449000Y-71755000D03*
X144069000Y-84455000D03*
X136449000Y-74295000D03*
X144069000Y-81915000D03*
X136449000Y-76835000D03*
X144069000Y-79375000D03*
X136449000Y-79375000D03*
X144069000Y-76835000D03*
X136449000Y-81915000D03*
X144069000Y-74295000D03*
X136449000Y-84455000D03*
X144069000Y-71755000D03*
X136449000Y-86995000D03*
X144069000Y-69215000D03*
G04 #@! TD*
D14*
G04 #@! TO.C,Shift4*
X173418000Y-142002000D03*
D15*
X191198000Y-134382000D03*
X175958000Y-142002000D03*
X188658000Y-134382000D03*
X178498000Y-142002000D03*
X186118000Y-134382000D03*
X181038000Y-142002000D03*
X183578000Y-134382000D03*
X183578000Y-142002000D03*
X181038000Y-134382000D03*
X186118000Y-142002000D03*
X178498000Y-134382000D03*
X188658000Y-142002000D03*
X175958000Y-134382000D03*
X191198000Y-142002000D03*
X173418000Y-134382000D03*
G04 #@! TD*
D14*
G04 #@! TO.C,Shift5*
X151511000Y-141922000D03*
D15*
X169291000Y-134302000D03*
X154051000Y-141922000D03*
X166751000Y-134302000D03*
X156591000Y-141922000D03*
X164211000Y-134302000D03*
X159131000Y-141922000D03*
X161671000Y-134302000D03*
X161671000Y-141922000D03*
X159131000Y-134302000D03*
X164211000Y-141922000D03*
X156591000Y-134302000D03*
X166751000Y-141922000D03*
X154051000Y-134302000D03*
X169291000Y-141922000D03*
X151511000Y-134302000D03*
G04 #@! TD*
M02*
