M48
;DRILL file {KiCad (5.0.0)} date 10/09/18 19:45:52
;FORMAT={-:-/ absolute / metric / decimal}
FMAT,2
METRIC,TZ
T1C0.350
T2C0.800
T3C0.900
T4C1.000
T5C1.100
T6C1.200
%
G90
G05
M71
T1
X145.275Y-73.541
X149.2Y-71.828
X151.171Y-76.82
X152.783Y-74.467
X160.877Y-78.402
X161.163Y-80.213
X162.339Y-125.04
X164.171Y-144.965
X165.347Y-137.121
X166.846Y-93.394
X169.107Y-139.171
X169.351Y-99.679
X169.802Y-120.107
X172.491Y-128.372
X173.379Y-82.286
X173.383Y-97.572
X173.965Y-119.507
X176.158Y-114.016
X176.282Y-74.809
X177.581Y-136.216
X178.676Y-94.957
X180.1Y-78.411
X180.242Y-136.136
X183.418Y-76.131
X184.033Y-131.216
X204.082Y-67.98
T2
X136.449Y-69.215
X136.449Y-71.755
X136.449Y-74.295
X136.449Y-76.835
X136.449Y-79.375
X136.449Y-81.915
X136.449Y-84.455
X136.449Y-86.995
X144.069Y-69.215
X144.069Y-71.755
X144.069Y-74.295
X144.069Y-76.835
X144.069Y-79.375
X144.069Y-81.915
X144.069Y-84.455
X144.069Y-86.995
X173.418Y-134.382
X173.418Y-142.002
X175.958Y-134.382
X175.958Y-142.002
X178.498Y-134.382
X178.498Y-142.002
X181.038Y-134.382
X181.038Y-142.002
X183.578Y-134.382
X183.578Y-142.002
X186.118Y-134.382
X186.118Y-142.002
X188.658Y-134.382
X188.658Y-142.002
X191.198Y-134.382
X191.198Y-142.002
X167.45Y-122.618
X167.45Y-125.158
X167.45Y-127.698
X167.45Y-130.238
X175.07Y-122.618
X175.07Y-125.158
X175.07Y-127.698
X175.07Y-130.238
X198.298Y-69.215
X198.298Y-71.755
X198.298Y-74.295
X198.298Y-76.835
X198.298Y-79.375
X198.298Y-81.915
X198.298Y-84.455
X198.298Y-86.995
X205.918Y-69.215
X205.918Y-71.755
X205.918Y-74.295
X205.918Y-76.835
X205.918Y-79.375
X205.918Y-81.915
X205.918Y-84.455
X205.918Y-86.995
X151.511Y-134.302
X151.511Y-141.922
X154.051Y-134.302
X154.051Y-141.922
X156.591Y-134.302
X156.591Y-141.922
X159.131Y-134.302
X159.131Y-141.922
X161.671Y-134.302
X161.671Y-141.922
X164.211Y-134.302
X164.211Y-141.922
X166.751Y-134.302
X166.751Y-141.922
X169.291Y-134.302
X169.291Y-141.922
X167.386Y-76.886
X167.386Y-79.426
X167.386Y-81.966
X167.386Y-84.506
X167.386Y-87.046
X167.386Y-89.586
X167.386Y-92.126
X167.386Y-94.666
X175.006Y-76.886
X175.006Y-79.426
X175.006Y-81.966
X175.006Y-84.506
X175.006Y-87.046
X175.006Y-89.586
X175.006Y-92.126
X175.006Y-94.666
T3
X178.156Y-83.038
X180.696Y-83.038
X151.877Y-129.899
X154.417Y-129.899
X209.083Y-57.917
X211.623Y-57.917
X151.877Y-146.558
X154.417Y-146.558
X179.683Y-57.917
X182.223Y-57.917
X161.734Y-92.238
X164.274Y-92.238
X154.496Y-73.85
X157.036Y-73.85
X169.926Y-146.558
X172.466Y-146.558
X199.283Y-57.917
X201.823Y-57.917
X185.369Y-73.838
X187.909Y-73.838
X140.483Y-57.917
X143.023Y-57.917
X209.083Y-85.217
X211.623Y-85.217
X178.156Y-73.838
X180.696Y-73.838
X189.483Y-57.917
X192.023Y-57.917
X147.256Y-85.217
X149.796Y-85.217
X160.902Y-146.558
X163.442Y-146.558
X209.083Y-67.017
X211.623Y-67.017
X130.683Y-67.017
X133.223Y-67.017
X192.557Y-73.838
X195.097Y-73.838
X160.083Y-57.917
X162.623Y-57.917
X161.734Y-83.038
X164.274Y-83.038
X178.95Y-146.558
X181.49Y-146.558
X130.683Y-85.217
X133.223Y-85.217
X130.683Y-76.117
X133.223Y-76.117
X169.883Y-57.917
X172.423Y-57.917
X178.156Y-129.899
X180.696Y-129.899
X161.734Y-120.699
X164.274Y-120.699
X188.15Y-146.558
X190.69Y-146.558
X150.283Y-57.917
X152.823Y-57.917
X130.683Y-57.917
X133.223Y-57.917
X147.256Y-73.85
X149.796Y-73.85
X192.557Y-85.217
X195.097Y-85.217
X178.156Y-120.699
X180.696Y-120.699
X161.734Y-129.921
X164.274Y-129.921
X209.083Y-76.117
X211.623Y-76.117
X188.156Y-129.899
X190.696Y-129.899
X161.734Y-73.838
X164.274Y-73.838
X178.156Y-92.238
X180.696Y-92.238
T4
X182.88Y-66.04
X185.42Y-66.04
X187.96Y-66.04
X147.32Y-66.04
X149.86Y-66.04
X152.4Y-66.04
X154.94Y-66.04
X157.48Y-66.04
X169.799Y-105.537
X172.339Y-105.537
T5
X167.965Y-66.04
X167.965Y-70.54
X174.465Y-66.04
X174.465Y-70.54
T6
X171.196Y-99.569
X171.196Y-119.069
T0
M30
