G04 #@! TF.FileFunction,Copper,L2,Bot,Signal*
%FSLAX46Y46*%
G04 Gerber Fmt 4.6, Leading zero omitted, Abs format (unit mm)*
G04 Created by KiCad (PCBNEW 4.0.7) date 09/09/18 15:16:27*
%MOMM*%
%LPD*%
G01*
G04 APERTURE LIST*
%ADD10C,0.100000*%
%ADD11C,2.500000*%
%ADD12C,2.000000*%
%ADD13R,1.800000X1.800000*%
%ADD14C,1.800000*%
%ADD15R,1.600000X1.600000*%
%ADD16O,1.600000X1.600000*%
%ADD17R,1.700000X1.700000*%
%ADD18O,1.700000X1.700000*%
%ADD19C,4.000000*%
%ADD20C,0.250000*%
%ADD21C,0.800000*%
G04 APERTURE END LIST*
D10*
D11*
X133096000Y-100456000D03*
X133096000Y-80956000D03*
D12*
X133168000Y-137668000D03*
X137668000Y-137668000D03*
X133168000Y-144168000D03*
X137668000Y-144168000D03*
D13*
X125476000Y-131064000D03*
D14*
X128016000Y-131064000D03*
D13*
X116840000Y-129540000D03*
D14*
X119380000Y-129540000D03*
D13*
X107188000Y-127508000D03*
D14*
X109728000Y-127508000D03*
D13*
X97028000Y-122428000D03*
D14*
X99568000Y-122428000D03*
D13*
X107188000Y-117856000D03*
D14*
X109728000Y-117856000D03*
D13*
X114300000Y-110744000D03*
D14*
X116840000Y-110744000D03*
D13*
X110744000Y-103124000D03*
D14*
X113284000Y-103124000D03*
D13*
X118364000Y-96520000D03*
D14*
X120904000Y-96520000D03*
D13*
X124460000Y-88392000D03*
D14*
X127000000Y-88392000D03*
D13*
X120904000Y-80264000D03*
D14*
X123444000Y-80264000D03*
D13*
X131064000Y-71120000D03*
D14*
X133604000Y-71120000D03*
D13*
X140716000Y-80264000D03*
D14*
X143256000Y-80264000D03*
D13*
X139192000Y-88392000D03*
D14*
X141732000Y-88392000D03*
D13*
X143764000Y-96520000D03*
D14*
X146304000Y-96520000D03*
D13*
X151892000Y-103124000D03*
D14*
X154432000Y-103124000D03*
D13*
X148336000Y-110744000D03*
D14*
X150876000Y-110744000D03*
D13*
X154940000Y-117856000D03*
D14*
X157480000Y-117856000D03*
D13*
X165608000Y-122428000D03*
D14*
X168148000Y-122428000D03*
D13*
X154940000Y-127508000D03*
D14*
X157480000Y-127508000D03*
D13*
X145288000Y-130048000D03*
D14*
X147828000Y-130048000D03*
D13*
X136144000Y-131064000D03*
D14*
X138684000Y-131064000D03*
D13*
X138684000Y-118364000D03*
D14*
X141224000Y-118364000D03*
D13*
X129540000Y-111252000D03*
D14*
X132080000Y-111252000D03*
D15*
X133604000Y-123952000D03*
D16*
X115824000Y-116332000D03*
X131064000Y-123952000D03*
X118364000Y-116332000D03*
X128524000Y-123952000D03*
X120904000Y-116332000D03*
X125984000Y-123952000D03*
X123444000Y-116332000D03*
X123444000Y-123952000D03*
X125984000Y-116332000D03*
X120904000Y-123952000D03*
X128524000Y-116332000D03*
X118364000Y-123952000D03*
X131064000Y-116332000D03*
X115824000Y-123952000D03*
X133604000Y-116332000D03*
D15*
X144272000Y-105156000D03*
D16*
X136652000Y-112776000D03*
X144272000Y-107696000D03*
X136652000Y-110236000D03*
X144272000Y-110236000D03*
X136652000Y-107696000D03*
X144272000Y-112776000D03*
X136652000Y-105156000D03*
D17*
X127508000Y-138176000D03*
D18*
X127508000Y-140716000D03*
X127508000Y-143256000D03*
D19*
X132842000Y-57364000D03*
D20*
X148593800Y-127508000D02*
X154940000Y-127508000D01*
X146513300Y-129588500D02*
X148593800Y-127508000D01*
X146513300Y-130048000D02*
X146513300Y-129588500D01*
X145288000Y-130048000D02*
X146513300Y-130048000D01*
X111760000Y-101898700D02*
X110744000Y-101898700D01*
X117138700Y-96520000D02*
X111760000Y-101898700D01*
X118364000Y-96520000D02*
X117138700Y-96520000D01*
X110744000Y-103124000D02*
X110744000Y-101898700D01*
X116840000Y-129540000D02*
X118065300Y-129540000D01*
X147110700Y-111062600D02*
X147110700Y-110744000D01*
X145397300Y-112776000D02*
X147110700Y-111062600D01*
X144272000Y-112776000D02*
X145397300Y-112776000D01*
X148336000Y-110744000D02*
X147110700Y-110744000D01*
X149561300Y-111252000D02*
X149561300Y-110744000D01*
X154940000Y-116630700D02*
X149561300Y-111252000D01*
X154940000Y-117856000D02*
X154940000Y-116630700D01*
X148336000Y-110744000D02*
X149561300Y-110744000D01*
X144989300Y-97446600D02*
X150666700Y-103124000D01*
X144989300Y-96520000D02*
X144989300Y-97446600D01*
X151892000Y-103124000D02*
X150666700Y-103124000D01*
X119129800Y-131064000D02*
X125476000Y-131064000D01*
X118065300Y-129999500D02*
X119129800Y-131064000D01*
X118065300Y-129540000D02*
X118065300Y-129999500D01*
X131572000Y-72345300D02*
X131064000Y-72345300D01*
X139490700Y-80264000D02*
X131572000Y-72345300D01*
X140716000Y-80264000D02*
X139490700Y-80264000D01*
X131064000Y-71120000D02*
X131064000Y-72345300D01*
X126701300Y-131523600D02*
X126701300Y-131064000D01*
X127467000Y-132289300D02*
X126701300Y-131523600D01*
X133693400Y-132289300D02*
X127467000Y-132289300D01*
X134918700Y-131064000D02*
X133693400Y-132289300D01*
X136144000Y-131064000D02*
X134918700Y-131064000D01*
X125476000Y-131064000D02*
X126701300Y-131064000D01*
X143764000Y-96520000D02*
X143889500Y-96520000D01*
X143889500Y-96520000D02*
X144989300Y-96520000D01*
X143889500Y-96520000D02*
X140460800Y-93091200D01*
X139192000Y-91822500D02*
X139192000Y-88392000D01*
X140460800Y-93091200D02*
X139192000Y-91822500D01*
X129540000Y-104012000D02*
X133096000Y-100456000D01*
X129540000Y-111252000D02*
X129540000Y-104012000D01*
X133096000Y-100456000D02*
X140460800Y-93091200D01*
X131064000Y-123952000D02*
X131064000Y-125077300D01*
X117348000Y-127508000D02*
X119380000Y-129540000D01*
X109728000Y-127508000D02*
X117348000Y-127508000D01*
X128016000Y-129540000D02*
X119380000Y-129540000D01*
X128016000Y-128125300D02*
X128016000Y-129540000D01*
X131064000Y-125077300D02*
X128016000Y-128125300D01*
X128016000Y-129540000D02*
X128016000Y-131064000D01*
X105156000Y-122428000D02*
X99568000Y-122428000D01*
X109728000Y-117856000D02*
X105156000Y-122428000D01*
X113862300Y-113721700D02*
X116840000Y-110744000D01*
X113862300Y-117856000D02*
X113862300Y-113721700D01*
X119634000Y-123627700D02*
X113862300Y-117856000D01*
X119634000Y-124332300D02*
X119634000Y-123627700D01*
X120388800Y-125087100D02*
X119634000Y-124332300D01*
X127388900Y-125087100D02*
X120388800Y-125087100D01*
X128524000Y-123952000D02*
X127388900Y-125087100D01*
X113862300Y-117856000D02*
X109728000Y-117856000D01*
X127000000Y-90424000D02*
X127000000Y-88392000D01*
X120904000Y-96520000D02*
X127000000Y-90424000D01*
X120904000Y-123952000D02*
X122029300Y-123952000D01*
X153662100Y-103124000D02*
X154432000Y-103124000D01*
X153662100Y-103629200D02*
X153662100Y-103124000D01*
X151766700Y-105524600D02*
X153662100Y-103629200D01*
X150578200Y-105524600D02*
X151766700Y-105524600D01*
X144596800Y-111506000D02*
X150578200Y-105524600D01*
X143885300Y-111506000D02*
X144596800Y-111506000D01*
X142773700Y-112617600D02*
X143885300Y-111506000D01*
X142773700Y-118611000D02*
X142773700Y-112617600D01*
X140729000Y-120655700D02*
X142773700Y-118611000D01*
X125044300Y-120655700D02*
X140729000Y-120655700D01*
X122029300Y-123670700D02*
X125044300Y-120655700D01*
X122029300Y-123952000D02*
X122029300Y-123670700D01*
X147579900Y-96520000D02*
X146304000Y-96520000D01*
X153662100Y-102602200D02*
X147579900Y-96520000D01*
X153662100Y-103124000D02*
X153662100Y-102602200D01*
X125984000Y-123952000D02*
X127109300Y-123952000D01*
X163576000Y-117856000D02*
X157480000Y-117856000D01*
X168148000Y-122428000D02*
X163576000Y-117856000D01*
X152509300Y-122826700D02*
X157480000Y-117856000D01*
X127975100Y-122826700D02*
X152509300Y-122826700D01*
X127109300Y-123692500D02*
X127975100Y-122826700D01*
X127109300Y-123952000D02*
X127109300Y-123692500D01*
X150876000Y-111252000D02*
X150876000Y-110744000D01*
X157480000Y-117856000D02*
X150876000Y-111252000D01*
X138893400Y-131273400D02*
X138684000Y-131064000D01*
X146602600Y-131273400D02*
X138893400Y-131273400D01*
X147828000Y-130048000D02*
X146602600Y-131273400D01*
X138683900Y-131064000D02*
X138684000Y-131064000D01*
X138683900Y-130157200D02*
X138683900Y-131064000D01*
X133604000Y-125077300D02*
X138683900Y-130157200D01*
X133604000Y-123952000D02*
X133604000Y-125077300D01*
X138062800Y-115202800D02*
X141224000Y-118364000D01*
X132193200Y-115202800D02*
X138062800Y-115202800D01*
X131064000Y-116332000D02*
X132193200Y-115202800D01*
X128524000Y-116332000D02*
X129649300Y-116332000D01*
X136652000Y-112776000D02*
X135526700Y-112776000D01*
X133904800Y-114397900D02*
X135526700Y-112776000D01*
X131400600Y-114397900D02*
X133904800Y-114397900D01*
X129649300Y-116149200D02*
X131400600Y-114397900D01*
X129649300Y-116332000D02*
X129649300Y-116149200D01*
X122029300Y-116050700D02*
X122029300Y-116332000D01*
X125602600Y-112477400D02*
X122029300Y-116050700D01*
X130659400Y-112477400D02*
X125602600Y-112477400D01*
X130765400Y-112371400D02*
X130659400Y-112477400D01*
X130765400Y-110781300D02*
X130765400Y-112371400D01*
X135020000Y-106526700D02*
X130765400Y-110781300D01*
X137083800Y-106526700D02*
X135020000Y-106526700D01*
X137788400Y-107231300D02*
X137083800Y-106526700D01*
X137788400Y-109099600D02*
X137788400Y-107231300D01*
X136652000Y-110236000D02*
X137788400Y-109099600D01*
X120904000Y-116332000D02*
X122029300Y-116332000D01*
X119489300Y-116613400D02*
X119489300Y-116332000D01*
X120333200Y-117457300D02*
X119489300Y-116613400D01*
X131634700Y-117457300D02*
X120333200Y-117457300D01*
X132478700Y-116613300D02*
X131634700Y-117457300D01*
X132478700Y-116332000D02*
X132478700Y-116613300D01*
X133604000Y-116332000D02*
X132478700Y-116332000D01*
X118364000Y-116332000D02*
X119489300Y-116332000D01*
X136652000Y-107696000D02*
X136652000Y-108821300D01*
X123444000Y-116332000D02*
X124569300Y-116332000D01*
X136257000Y-108821300D02*
X136652000Y-108821300D01*
X131806100Y-113272200D02*
X136257000Y-108821300D01*
X127424600Y-113272200D02*
X131806100Y-113272200D01*
X124569300Y-116127500D02*
X127424600Y-113272200D01*
X124569300Y-116332000D02*
X124569300Y-116127500D01*
X144272000Y-107696000D02*
X143146700Y-107696000D01*
X125984000Y-116332000D02*
X127109300Y-116332000D01*
X139217200Y-111625500D02*
X143146700Y-107696000D01*
X134314700Y-111625500D02*
X139217200Y-111625500D01*
X131992600Y-113947600D02*
X134314700Y-111625500D01*
X129289200Y-113947600D02*
X131992600Y-113947600D01*
X127109300Y-116127500D02*
X129289200Y-113947600D01*
X127109300Y-116332000D02*
X127109300Y-116127500D01*
D21*
G36*
X143951287Y-133214214D02*
X140219622Y-133844475D01*
X140066694Y-133902679D01*
X139906209Y-133934601D01*
X139804823Y-134002345D01*
X139690861Y-134045718D01*
X139571848Y-134158014D01*
X139435795Y-134248921D01*
X139368051Y-134350307D01*
X139279362Y-134433990D01*
X139212381Y-134583284D01*
X139121475Y-134719335D01*
X139097686Y-134838929D01*
X139047773Y-134950181D01*
X139043023Y-135113739D01*
X139011100Y-135274226D01*
X139011100Y-135627022D01*
X138147484Y-135268417D01*
X137192705Y-135267584D01*
X136310285Y-135632192D01*
X135634565Y-136306734D01*
X135417919Y-136828475D01*
X135203808Y-136310285D01*
X134529266Y-135634565D01*
X133647484Y-135268417D01*
X132692705Y-135267584D01*
X131810285Y-135632192D01*
X131134565Y-136306734D01*
X130768417Y-137188516D01*
X130767584Y-138143295D01*
X131132192Y-139025715D01*
X131806734Y-139701435D01*
X132688516Y-140067583D01*
X133643295Y-140068416D01*
X134525715Y-139703808D01*
X135201435Y-139029266D01*
X135418081Y-138507525D01*
X135632192Y-139025715D01*
X136306734Y-139701435D01*
X137188516Y-140067583D01*
X138143295Y-140068416D01*
X139011100Y-139709847D01*
X139011100Y-140708643D01*
X138912823Y-142086213D01*
X138147484Y-141768417D01*
X137192705Y-141767584D01*
X136310285Y-142132192D01*
X135634565Y-142806734D01*
X135417919Y-143328475D01*
X135203808Y-142810285D01*
X134529266Y-142134565D01*
X133647484Y-141768417D01*
X132692705Y-141767584D01*
X131810285Y-142132192D01*
X131134565Y-142806734D01*
X130768417Y-143688516D01*
X130767584Y-144643295D01*
X131132192Y-145525715D01*
X131780589Y-146175244D01*
X128311658Y-145878997D01*
X129231618Y-145398830D01*
X129920441Y-144576117D01*
X130147302Y-144028387D01*
X129755916Y-143606000D01*
X129732461Y-143606000D01*
X129802080Y-143256000D01*
X129732461Y-142906000D01*
X129755916Y-142906000D01*
X130147302Y-142483613D01*
X129920441Y-141935883D01*
X129626009Y-141584221D01*
X129630809Y-141577038D01*
X129802080Y-140716000D01*
X129630809Y-139854962D01*
X129559220Y-139747822D01*
X129672966Y-139581349D01*
X129785427Y-139026000D01*
X129785427Y-137326000D01*
X129687806Y-136807191D01*
X129381191Y-136330697D01*
X128913349Y-136011034D01*
X128358000Y-135898573D01*
X126658000Y-135898573D01*
X126139191Y-135996194D01*
X125662697Y-136302809D01*
X125343034Y-136770651D01*
X125230573Y-137326000D01*
X125230573Y-139026000D01*
X125328194Y-139544809D01*
X125457824Y-139746260D01*
X125385191Y-139854962D01*
X125213920Y-140716000D01*
X125385191Y-141577038D01*
X125389991Y-141584221D01*
X125110671Y-141917833D01*
X124911100Y-139669935D01*
X124911100Y-134529638D01*
X124876532Y-134355853D01*
X124868033Y-134178869D01*
X124821848Y-134080940D01*
X124800725Y-133974747D01*
X124702283Y-133827418D01*
X124626703Y-133667160D01*
X124546560Y-133594361D01*
X124486405Y-133504333D01*
X124339076Y-133405891D01*
X124250613Y-133325534D01*
X124576000Y-133391427D01*
X126376000Y-133391427D01*
X126413660Y-133384341D01*
X126883408Y-133698216D01*
X127467000Y-133814300D01*
X133693400Y-133814300D01*
X134276992Y-133698216D01*
X134771738Y-133367638D01*
X134831485Y-133307891D01*
X135244000Y-133391427D01*
X137044000Y-133391427D01*
X137562809Y-133293806D01*
X137756404Y-133169232D01*
X138224495Y-133363600D01*
X139139491Y-133364399D01*
X139985143Y-133014982D01*
X140202104Y-132798400D01*
X146079391Y-132798400D01*
X143951287Y-133214214D01*
X143951287Y-133214214D01*
G37*
X143951287Y-133214214D02*
X140219622Y-133844475D01*
X140066694Y-133902679D01*
X139906209Y-133934601D01*
X139804823Y-134002345D01*
X139690861Y-134045718D01*
X139571848Y-134158014D01*
X139435795Y-134248921D01*
X139368051Y-134350307D01*
X139279362Y-134433990D01*
X139212381Y-134583284D01*
X139121475Y-134719335D01*
X139097686Y-134838929D01*
X139047773Y-134950181D01*
X139043023Y-135113739D01*
X139011100Y-135274226D01*
X139011100Y-135627022D01*
X138147484Y-135268417D01*
X137192705Y-135267584D01*
X136310285Y-135632192D01*
X135634565Y-136306734D01*
X135417919Y-136828475D01*
X135203808Y-136310285D01*
X134529266Y-135634565D01*
X133647484Y-135268417D01*
X132692705Y-135267584D01*
X131810285Y-135632192D01*
X131134565Y-136306734D01*
X130768417Y-137188516D01*
X130767584Y-138143295D01*
X131132192Y-139025715D01*
X131806734Y-139701435D01*
X132688516Y-140067583D01*
X133643295Y-140068416D01*
X134525715Y-139703808D01*
X135201435Y-139029266D01*
X135418081Y-138507525D01*
X135632192Y-139025715D01*
X136306734Y-139701435D01*
X137188516Y-140067583D01*
X138143295Y-140068416D01*
X139011100Y-139709847D01*
X139011100Y-140708643D01*
X138912823Y-142086213D01*
X138147484Y-141768417D01*
X137192705Y-141767584D01*
X136310285Y-142132192D01*
X135634565Y-142806734D01*
X135417919Y-143328475D01*
X135203808Y-142810285D01*
X134529266Y-142134565D01*
X133647484Y-141768417D01*
X132692705Y-141767584D01*
X131810285Y-142132192D01*
X131134565Y-142806734D01*
X130768417Y-143688516D01*
X130767584Y-144643295D01*
X131132192Y-145525715D01*
X131780589Y-146175244D01*
X128311658Y-145878997D01*
X129231618Y-145398830D01*
X129920441Y-144576117D01*
X130147302Y-144028387D01*
X129755916Y-143606000D01*
X129732461Y-143606000D01*
X129802080Y-143256000D01*
X129732461Y-142906000D01*
X129755916Y-142906000D01*
X130147302Y-142483613D01*
X129920441Y-141935883D01*
X129626009Y-141584221D01*
X129630809Y-141577038D01*
X129802080Y-140716000D01*
X129630809Y-139854962D01*
X129559220Y-139747822D01*
X129672966Y-139581349D01*
X129785427Y-139026000D01*
X129785427Y-137326000D01*
X129687806Y-136807191D01*
X129381191Y-136330697D01*
X128913349Y-136011034D01*
X128358000Y-135898573D01*
X126658000Y-135898573D01*
X126139191Y-135996194D01*
X125662697Y-136302809D01*
X125343034Y-136770651D01*
X125230573Y-137326000D01*
X125230573Y-139026000D01*
X125328194Y-139544809D01*
X125457824Y-139746260D01*
X125385191Y-139854962D01*
X125213920Y-140716000D01*
X125385191Y-141577038D01*
X125389991Y-141584221D01*
X125110671Y-141917833D01*
X124911100Y-139669935D01*
X124911100Y-134529638D01*
X124876532Y-134355853D01*
X124868033Y-134178869D01*
X124821848Y-134080940D01*
X124800725Y-133974747D01*
X124702283Y-133827418D01*
X124626703Y-133667160D01*
X124546560Y-133594361D01*
X124486405Y-133504333D01*
X124339076Y-133405891D01*
X124250613Y-133325534D01*
X124576000Y-133391427D01*
X126376000Y-133391427D01*
X126413660Y-133384341D01*
X126883408Y-133698216D01*
X127467000Y-133814300D01*
X133693400Y-133814300D01*
X134276992Y-133698216D01*
X134771738Y-133367638D01*
X134831485Y-133307891D01*
X135244000Y-133391427D01*
X137044000Y-133391427D01*
X137562809Y-133293806D01*
X137756404Y-133169232D01*
X138224495Y-133363600D01*
X139139491Y-133364399D01*
X139985143Y-133014982D01*
X140202104Y-132798400D01*
X146079391Y-132798400D01*
X143951287Y-133214214D01*
G36*
X135632192Y-145525715D02*
X136156299Y-146050737D01*
X134633116Y-146096594D01*
X135201435Y-145529266D01*
X135418081Y-145007525D01*
X135632192Y-145525715D01*
X135632192Y-145525715D01*
G37*
X135632192Y-145525715D02*
X136156299Y-146050737D01*
X134633116Y-146096594D01*
X135201435Y-145529266D01*
X135418081Y-145007525D01*
X135632192Y-145525715D01*
G36*
X127858000Y-145508651D02*
X128257511Y-145874373D01*
X127825480Y-145837477D01*
X127158000Y-145507377D01*
X127158000Y-145445149D01*
X127463920Y-145506000D01*
X127552080Y-145506000D01*
X127858000Y-145445149D01*
X127858000Y-145508651D01*
X127858000Y-145508651D01*
G37*
X127858000Y-145508651D02*
X128257511Y-145874373D01*
X127825480Y-145837477D01*
X127158000Y-145507377D01*
X127158000Y-145445149D01*
X127463920Y-145506000D01*
X127552080Y-145506000D01*
X127858000Y-145445149D01*
X127858000Y-145508651D01*
G36*
X125260084Y-142906000D02*
X125283539Y-142906000D01*
X125224675Y-143201932D01*
X125191865Y-142832378D01*
X125260084Y-142906000D01*
X125260084Y-142906000D01*
G37*
X125260084Y-142906000D02*
X125283539Y-142906000D01*
X125224675Y-143201932D01*
X125191865Y-142832378D01*
X125260084Y-142906000D01*
G36*
X123552809Y-132959303D02*
X123837288Y-133153679D01*
X123675441Y-133095568D01*
X120286211Y-132589000D01*
X123314526Y-132589000D01*
X123552809Y-132959303D01*
X123552809Y-132959303D01*
G37*
X123552809Y-132959303D02*
X123837288Y-133153679D01*
X123675441Y-133095568D01*
X120286211Y-132589000D01*
X123314526Y-132589000D01*
X123552809Y-132959303D01*
G36*
X163928967Y-120365643D02*
X163712697Y-120504809D01*
X163393034Y-120972651D01*
X163280573Y-121528000D01*
X163280573Y-123328000D01*
X163378194Y-123846809D01*
X163684809Y-124323303D01*
X164152651Y-124642966D01*
X164708000Y-124755427D01*
X166508000Y-124755427D01*
X167026809Y-124657806D01*
X167220404Y-124533232D01*
X167688495Y-124727600D01*
X168603491Y-124728399D01*
X169449143Y-124378982D01*
X170096708Y-123732547D01*
X170447600Y-122887505D01*
X170448399Y-121972509D01*
X170098982Y-121126857D01*
X169714071Y-120741274D01*
X171530595Y-121181997D01*
X173301805Y-121726975D01*
X173489220Y-121797882D01*
X170889285Y-123896446D01*
X167456613Y-126249477D01*
X164382763Y-127848848D01*
X160770608Y-129168318D01*
X155351738Y-130706596D01*
X149413588Y-132146926D01*
X147398076Y-132540740D01*
X147680938Y-132351738D01*
X147684800Y-132347876D01*
X148283491Y-132348399D01*
X149129143Y-131998982D01*
X149776708Y-131352547D01*
X150127600Y-130507505D01*
X150128399Y-129592509D01*
X149897214Y-129033000D01*
X152778526Y-129033000D01*
X153016809Y-129403303D01*
X153484651Y-129722966D01*
X154040000Y-129835427D01*
X155840000Y-129835427D01*
X156358809Y-129737806D01*
X156552404Y-129613232D01*
X157020495Y-129807600D01*
X157935491Y-129808399D01*
X158781143Y-129458982D01*
X159428708Y-128812547D01*
X159779600Y-127967505D01*
X159780399Y-127052509D01*
X159430982Y-126206857D01*
X158784547Y-125559292D01*
X157939505Y-125208400D01*
X157024509Y-125207601D01*
X156554525Y-125401795D01*
X156395349Y-125293034D01*
X155840000Y-125180573D01*
X154040000Y-125180573D01*
X153521191Y-125278194D01*
X153044697Y-125584809D01*
X152772625Y-125983000D01*
X148593800Y-125983000D01*
X148010208Y-126099084D01*
X147515462Y-126429662D01*
X146218396Y-127726728D01*
X146188000Y-127720573D01*
X144388000Y-127720573D01*
X143869191Y-127818194D01*
X143392697Y-128124809D01*
X143073034Y-128592651D01*
X142960573Y-129148000D01*
X142960573Y-129748400D01*
X140620550Y-129748400D01*
X139988547Y-129115292D01*
X139663836Y-128980460D01*
X135764731Y-125081355D01*
X135831427Y-124752000D01*
X135831427Y-124351700D01*
X152509300Y-124351700D01*
X153092892Y-124235616D01*
X153587638Y-123905038D01*
X157336800Y-120155876D01*
X157935491Y-120156399D01*
X158781143Y-119806982D01*
X159207870Y-119381000D01*
X162944324Y-119381000D01*
X163928967Y-120365643D01*
X163928967Y-120365643D01*
G37*
X163928967Y-120365643D02*
X163712697Y-120504809D01*
X163393034Y-120972651D01*
X163280573Y-121528000D01*
X163280573Y-123328000D01*
X163378194Y-123846809D01*
X163684809Y-124323303D01*
X164152651Y-124642966D01*
X164708000Y-124755427D01*
X166508000Y-124755427D01*
X167026809Y-124657806D01*
X167220404Y-124533232D01*
X167688495Y-124727600D01*
X168603491Y-124728399D01*
X169449143Y-124378982D01*
X170096708Y-123732547D01*
X170447600Y-122887505D01*
X170448399Y-121972509D01*
X170098982Y-121126857D01*
X169714071Y-120741274D01*
X171530595Y-121181997D01*
X173301805Y-121726975D01*
X173489220Y-121797882D01*
X170889285Y-123896446D01*
X167456613Y-126249477D01*
X164382763Y-127848848D01*
X160770608Y-129168318D01*
X155351738Y-130706596D01*
X149413588Y-132146926D01*
X147398076Y-132540740D01*
X147680938Y-132351738D01*
X147684800Y-132347876D01*
X148283491Y-132348399D01*
X149129143Y-131998982D01*
X149776708Y-131352547D01*
X150127600Y-130507505D01*
X150128399Y-129592509D01*
X149897214Y-129033000D01*
X152778526Y-129033000D01*
X153016809Y-129403303D01*
X153484651Y-129722966D01*
X154040000Y-129835427D01*
X155840000Y-129835427D01*
X156358809Y-129737806D01*
X156552404Y-129613232D01*
X157020495Y-129807600D01*
X157935491Y-129808399D01*
X158781143Y-129458982D01*
X159428708Y-128812547D01*
X159779600Y-127967505D01*
X159780399Y-127052509D01*
X159430982Y-126206857D01*
X158784547Y-125559292D01*
X157939505Y-125208400D01*
X157024509Y-125207601D01*
X156554525Y-125401795D01*
X156395349Y-125293034D01*
X155840000Y-125180573D01*
X154040000Y-125180573D01*
X153521191Y-125278194D01*
X153044697Y-125584809D01*
X152772625Y-125983000D01*
X148593800Y-125983000D01*
X148010208Y-126099084D01*
X147515462Y-126429662D01*
X146218396Y-127726728D01*
X146188000Y-127720573D01*
X144388000Y-127720573D01*
X143869191Y-127818194D01*
X143392697Y-128124809D01*
X143073034Y-128592651D01*
X142960573Y-129148000D01*
X142960573Y-129748400D01*
X140620550Y-129748400D01*
X139988547Y-129115292D01*
X139663836Y-128980460D01*
X135764731Y-125081355D01*
X135831427Y-124752000D01*
X135831427Y-124351700D01*
X152509300Y-124351700D01*
X153092892Y-124235616D01*
X153587638Y-123905038D01*
X157336800Y-120155876D01*
X157935491Y-120156399D01*
X158781143Y-119806982D01*
X159207870Y-119381000D01*
X162944324Y-119381000D01*
X163928967Y-120365643D01*
G36*
X115602568Y-121752944D02*
X114982096Y-121876364D01*
X114268365Y-122353264D01*
X113791465Y-123066995D01*
X113624000Y-123908899D01*
X113624000Y-123995101D01*
X113791465Y-124837005D01*
X114268365Y-125550736D01*
X114915294Y-125983000D01*
X111455516Y-125983000D01*
X111032547Y-125559292D01*
X110187505Y-125208400D01*
X109272509Y-125207601D01*
X108802525Y-125401795D01*
X108643349Y-125293034D01*
X108088000Y-125180573D01*
X106288000Y-125180573D01*
X105769191Y-125278194D01*
X105292697Y-125584809D01*
X104973034Y-126052651D01*
X104860573Y-126608000D01*
X104860573Y-128408000D01*
X104958194Y-128926809D01*
X105264809Y-129403303D01*
X105732651Y-129722966D01*
X106288000Y-129835427D01*
X108088000Y-129835427D01*
X108606809Y-129737806D01*
X108800404Y-129613232D01*
X109268495Y-129807600D01*
X110183491Y-129808399D01*
X111029143Y-129458982D01*
X111455870Y-129033000D01*
X114512573Y-129033000D01*
X114512573Y-130440000D01*
X114610194Y-130958809D01*
X114916809Y-131435303D01*
X115384651Y-131754966D01*
X115940000Y-131867427D01*
X117740000Y-131867427D01*
X117770763Y-131861639D01*
X118051462Y-132142338D01*
X118268629Y-132287444D01*
X115438942Y-131864508D01*
X107221667Y-130477637D01*
X102558360Y-129210229D01*
X99220793Y-127547001D01*
X95817990Y-124893421D01*
X95507846Y-124598687D01*
X95572651Y-124642966D01*
X96128000Y-124755427D01*
X97928000Y-124755427D01*
X98446809Y-124657806D01*
X98640404Y-124533232D01*
X99108495Y-124727600D01*
X100023491Y-124728399D01*
X100869143Y-124378982D01*
X101295870Y-123953000D01*
X105156000Y-123953000D01*
X105739592Y-123836916D01*
X106234338Y-123506338D01*
X109584800Y-120155876D01*
X110183491Y-120156399D01*
X111029143Y-119806982D01*
X111455870Y-119381000D01*
X113230624Y-119381000D01*
X115602568Y-121752944D01*
X115602568Y-121752944D01*
G37*
X115602568Y-121752944D02*
X114982096Y-121876364D01*
X114268365Y-122353264D01*
X113791465Y-123066995D01*
X113624000Y-123908899D01*
X113624000Y-123995101D01*
X113791465Y-124837005D01*
X114268365Y-125550736D01*
X114915294Y-125983000D01*
X111455516Y-125983000D01*
X111032547Y-125559292D01*
X110187505Y-125208400D01*
X109272509Y-125207601D01*
X108802525Y-125401795D01*
X108643349Y-125293034D01*
X108088000Y-125180573D01*
X106288000Y-125180573D01*
X105769191Y-125278194D01*
X105292697Y-125584809D01*
X104973034Y-126052651D01*
X104860573Y-126608000D01*
X104860573Y-128408000D01*
X104958194Y-128926809D01*
X105264809Y-129403303D01*
X105732651Y-129722966D01*
X106288000Y-129835427D01*
X108088000Y-129835427D01*
X108606809Y-129737806D01*
X108800404Y-129613232D01*
X109268495Y-129807600D01*
X110183491Y-129808399D01*
X111029143Y-129458982D01*
X111455870Y-129033000D01*
X114512573Y-129033000D01*
X114512573Y-130440000D01*
X114610194Y-130958809D01*
X114916809Y-131435303D01*
X115384651Y-131754966D01*
X115940000Y-131867427D01*
X117740000Y-131867427D01*
X117770763Y-131861639D01*
X118051462Y-132142338D01*
X118268629Y-132287444D01*
X115438942Y-131864508D01*
X107221667Y-130477637D01*
X102558360Y-129210229D01*
X99220793Y-127547001D01*
X95817990Y-124893421D01*
X95507846Y-124598687D01*
X95572651Y-124642966D01*
X96128000Y-124755427D01*
X97928000Y-124755427D01*
X98446809Y-124657806D01*
X98640404Y-124533232D01*
X99108495Y-124727600D01*
X100023491Y-124728399D01*
X100869143Y-124378982D01*
X101295870Y-123953000D01*
X105156000Y-123953000D01*
X105739592Y-123836916D01*
X106234338Y-123506338D01*
X109584800Y-120155876D01*
X110183491Y-120156399D01*
X111029143Y-119806982D01*
X111455870Y-119381000D01*
X113230624Y-119381000D01*
X115602568Y-121752944D01*
G36*
X132248651Y-126066966D02*
X132500489Y-126117965D01*
X132525662Y-126155638D01*
X135128357Y-128758333D01*
X134725191Y-128834194D01*
X134248697Y-129140809D01*
X133929034Y-129608651D01*
X133854616Y-129976138D01*
X133840362Y-129985662D01*
X133061724Y-130764300D01*
X130316263Y-130764300D01*
X130316399Y-130608509D01*
X129966982Y-129762857D01*
X129541000Y-129336130D01*
X129541000Y-128756976D01*
X132142338Y-126155638D01*
X132216339Y-126044888D01*
X132248651Y-126066966D01*
X132248651Y-126066966D01*
G37*
X132248651Y-126066966D02*
X132500489Y-126117965D01*
X132525662Y-126155638D01*
X135128357Y-128758333D01*
X134725191Y-128834194D01*
X134248697Y-129140809D01*
X133929034Y-129608651D01*
X133854616Y-129976138D01*
X133840362Y-129985662D01*
X133061724Y-130764300D01*
X130316263Y-130764300D01*
X130316399Y-130608509D01*
X129966982Y-129762857D01*
X129541000Y-129336130D01*
X129541000Y-128756976D01*
X132142338Y-126155638D01*
X132216339Y-126044888D01*
X132248651Y-126066966D01*
G36*
X119310462Y-126165438D02*
X119805208Y-126496016D01*
X120388800Y-126612100D01*
X127372524Y-126612100D01*
X126937662Y-127046962D01*
X126607084Y-127541708D01*
X126512940Y-128015000D01*
X121107516Y-128015000D01*
X120684547Y-127591292D01*
X119839505Y-127240400D01*
X119236549Y-127239873D01*
X118426338Y-126429662D01*
X117952914Y-126113331D01*
X118364000Y-126195101D01*
X119178176Y-126033152D01*
X119310462Y-126165438D01*
X119310462Y-126165438D01*
G37*
X119310462Y-126165438D02*
X119805208Y-126496016D01*
X120388800Y-126612100D01*
X127372524Y-126612100D01*
X126937662Y-127046962D01*
X126607084Y-127541708D01*
X126512940Y-128015000D01*
X121107516Y-128015000D01*
X120684547Y-127591292D01*
X119839505Y-127240400D01*
X119236549Y-127239873D01*
X118426338Y-126429662D01*
X117952914Y-126113331D01*
X118364000Y-126195101D01*
X119178176Y-126033152D01*
X119310462Y-126165438D01*
G36*
X117500773Y-126013389D02*
X117348000Y-125983000D01*
X116732706Y-125983000D01*
X117094000Y-125741591D01*
X117500773Y-126013389D01*
X117500773Y-126013389D01*
G37*
X117500773Y-126013389D02*
X117348000Y-125983000D01*
X116732706Y-125983000D01*
X117094000Y-125741591D01*
X117500773Y-126013389D01*
G36*
X94813034Y-120972651D02*
X94700573Y-121528000D01*
X94700573Y-123328000D01*
X94798194Y-123846809D01*
X94926538Y-124046262D01*
X94199604Y-123355447D01*
X92812402Y-121933442D01*
X92595163Y-121694203D01*
X93830029Y-121244802D01*
X94827442Y-120951564D01*
X94813034Y-120972651D01*
X94813034Y-120972651D01*
G37*
X94813034Y-120972651D02*
X94700573Y-121528000D01*
X94700573Y-123328000D01*
X94798194Y-123846809D01*
X94926538Y-124046262D01*
X94199604Y-123355447D01*
X92812402Y-121933442D01*
X92595163Y-121694203D01*
X93830029Y-121244802D01*
X94827442Y-120951564D01*
X94813034Y-120972651D01*
G36*
X136469034Y-116908651D02*
X136356573Y-117464000D01*
X136356573Y-119130700D01*
X125044300Y-119130700D01*
X124460708Y-119246784D01*
X123965962Y-119577362D01*
X121680058Y-121863266D01*
X120904000Y-121708899D01*
X120062096Y-121876364D01*
X120048455Y-121885479D01*
X116586422Y-118423446D01*
X116665904Y-118407636D01*
X117094000Y-118121591D01*
X117522096Y-118407636D01*
X118364000Y-118575101D01*
X119139974Y-118420750D01*
X119254862Y-118535638D01*
X119749608Y-118866216D01*
X120333200Y-118982300D01*
X131634700Y-118982300D01*
X132218292Y-118866216D01*
X132713038Y-118535638D01*
X132827942Y-118420734D01*
X133604000Y-118575101D01*
X134445904Y-118407636D01*
X135159635Y-117930736D01*
X135636535Y-117217005D01*
X135733844Y-116727800D01*
X136592604Y-116727800D01*
X136469034Y-116908651D01*
X136469034Y-116908651D01*
G37*
X136469034Y-116908651D02*
X136356573Y-117464000D01*
X136356573Y-119130700D01*
X125044300Y-119130700D01*
X124460708Y-119246784D01*
X123965962Y-119577362D01*
X121680058Y-121863266D01*
X120904000Y-121708899D01*
X120062096Y-121876364D01*
X120048455Y-121885479D01*
X116586422Y-118423446D01*
X116665904Y-118407636D01*
X117094000Y-118121591D01*
X117522096Y-118407636D01*
X118364000Y-118575101D01*
X119139974Y-118420750D01*
X119254862Y-118535638D01*
X119749608Y-118866216D01*
X120333200Y-118982300D01*
X131634700Y-118982300D01*
X132218292Y-118866216D01*
X132713038Y-118535638D01*
X132827942Y-118420734D01*
X133604000Y-118575101D01*
X134445904Y-118407636D01*
X135159635Y-117930736D01*
X135636535Y-117217005D01*
X135733844Y-116727800D01*
X136592604Y-116727800D01*
X136469034Y-116908651D01*
G36*
X147436000Y-113071427D02*
X149224051Y-113071427D01*
X152696109Y-116543485D01*
X152612573Y-116956000D01*
X152612573Y-118756000D01*
X152710194Y-119274809D01*
X153016809Y-119751303D01*
X153261102Y-119918222D01*
X151877624Y-121301700D01*
X142239676Y-121301700D01*
X143852038Y-119689338D01*
X144182616Y-119194593D01*
X144298700Y-118611000D01*
X144298700Y-114976000D01*
X144315101Y-114976000D01*
X145157005Y-114808535D01*
X145870736Y-114331635D01*
X145966913Y-114187697D01*
X145980892Y-114184916D01*
X146475638Y-113854338D01*
X147288432Y-113041544D01*
X147436000Y-113071427D01*
X147436000Y-113071427D01*
G37*
X147436000Y-113071427D02*
X149224051Y-113071427D01*
X152696109Y-116543485D01*
X152612573Y-116956000D01*
X152612573Y-118756000D01*
X152710194Y-119274809D01*
X153016809Y-119751303D01*
X153261102Y-119918222D01*
X151877624Y-121301700D01*
X142239676Y-121301700D01*
X143852038Y-119689338D01*
X144182616Y-119194593D01*
X144298700Y-118611000D01*
X144298700Y-114976000D01*
X144315101Y-114976000D01*
X145157005Y-114808535D01*
X145870736Y-114331635D01*
X145966913Y-114187697D01*
X145980892Y-114184916D01*
X146475638Y-113854338D01*
X147288432Y-113041544D01*
X147436000Y-113071427D01*
G36*
X104860573Y-116956000D02*
X104860573Y-118756000D01*
X104958194Y-119274809D01*
X105264809Y-119751303D01*
X105509102Y-119918222D01*
X104524324Y-120903000D01*
X101295516Y-120903000D01*
X100872547Y-120479292D01*
X100027505Y-120128400D01*
X99112509Y-120127601D01*
X98642525Y-120321795D01*
X98483349Y-120213034D01*
X97928000Y-120100573D01*
X97379317Y-120100573D01*
X100414468Y-119032973D01*
X100495909Y-118984753D01*
X100587090Y-118959382D01*
X104895592Y-116783072D01*
X104860573Y-116956000D01*
X104860573Y-116956000D01*
G37*
X104860573Y-116956000D02*
X104860573Y-118756000D01*
X104958194Y-119274809D01*
X105264809Y-119751303D01*
X105509102Y-119918222D01*
X104524324Y-120903000D01*
X101295516Y-120903000D01*
X100872547Y-120479292D01*
X100027505Y-120128400D01*
X99112509Y-120127601D01*
X98642525Y-120321795D01*
X98483349Y-120213034D01*
X97928000Y-120100573D01*
X97379317Y-120100573D01*
X100414468Y-119032973D01*
X100495909Y-118984753D01*
X100587090Y-118959382D01*
X104895592Y-116783072D01*
X104860573Y-116956000D01*
G36*
X112070194Y-112162809D02*
X112376809Y-112639303D01*
X112658204Y-112831572D01*
X112453384Y-113138108D01*
X112337300Y-113721700D01*
X112337300Y-116331000D01*
X111455516Y-116331000D01*
X111032547Y-115907292D01*
X110187505Y-115556400D01*
X109272509Y-115555601D01*
X108802525Y-115749795D01*
X108643349Y-115641034D01*
X108088000Y-115528573D01*
X107030739Y-115528573D01*
X110246716Y-113460845D01*
X110369501Y-113342317D01*
X110509351Y-113244520D01*
X111984193Y-111705753D01*
X112070194Y-112162809D01*
X112070194Y-112162809D01*
G37*
X112070194Y-112162809D02*
X112376809Y-112639303D01*
X112658204Y-112831572D01*
X112453384Y-113138108D01*
X112337300Y-113721700D01*
X112337300Y-116331000D01*
X111455516Y-116331000D01*
X111032547Y-115907292D01*
X110187505Y-115556400D01*
X109272509Y-115555601D01*
X108802525Y-115749795D01*
X108643349Y-115641034D01*
X108088000Y-115528573D01*
X107030739Y-115528573D01*
X110246716Y-113460845D01*
X110369501Y-113342317D01*
X110509351Y-113244520D01*
X111984193Y-111705753D01*
X112070194Y-112162809D01*
G36*
X142189787Y-111044837D02*
X141695362Y-111539262D01*
X141364784Y-112034008D01*
X141248700Y-112617600D01*
X141248700Y-116064020D01*
X141080549Y-116063873D01*
X139141138Y-114124462D01*
X138646392Y-113793884D01*
X138614313Y-113787503D01*
X138727636Y-113617904D01*
X138820608Y-113150500D01*
X139217200Y-113150500D01*
X139800792Y-113034416D01*
X140295538Y-112703838D01*
X142150757Y-110848619D01*
X142189787Y-111044837D01*
X142189787Y-111044837D01*
G37*
X142189787Y-111044837D02*
X141695362Y-111539262D01*
X141364784Y-112034008D01*
X141248700Y-112617600D01*
X141248700Y-116064020D01*
X141080549Y-116063873D01*
X139141138Y-114124462D01*
X138646392Y-113793884D01*
X138614313Y-113787503D01*
X138727636Y-113617904D01*
X138820608Y-113150500D01*
X139217200Y-113150500D01*
X139800792Y-113034416D01*
X140295538Y-112703838D01*
X142150757Y-110848619D01*
X142189787Y-111044837D01*
G36*
X128736573Y-72020000D02*
X128834194Y-72538809D01*
X129140809Y-73015303D01*
X129608651Y-73334966D01*
X129976138Y-73409384D01*
X129985662Y-73423638D01*
X130480408Y-73754216D01*
X130909615Y-73839591D01*
X138412362Y-81342338D01*
X138423534Y-81349803D01*
X138486194Y-81682809D01*
X138792809Y-82159303D01*
X139260651Y-82478966D01*
X139816000Y-82591427D01*
X141616000Y-82591427D01*
X142134809Y-82493806D01*
X142328404Y-82369232D01*
X142796495Y-82563600D01*
X143711491Y-82564399D01*
X144557143Y-82214982D01*
X145204708Y-81568547D01*
X145357790Y-81199884D01*
X146367900Y-81903957D01*
X146156538Y-81991445D01*
X146115535Y-82018828D01*
X146067924Y-82031658D01*
X143810518Y-83148902D01*
X143743787Y-83200258D01*
X143665533Y-83231362D01*
X143521410Y-83371400D01*
X143362162Y-83493957D01*
X143320163Y-83566942D01*
X143259769Y-83625624D01*
X142496969Y-84732453D01*
X142408926Y-84936654D01*
X142303859Y-85132633D01*
X142297667Y-85194701D01*
X142272970Y-85251983D01*
X142269773Y-85474332D01*
X142247701Y-85695601D01*
X142290270Y-86133411D01*
X142191505Y-86092400D01*
X141276509Y-86091601D01*
X140806525Y-86285795D01*
X140647349Y-86177034D01*
X140092000Y-86064573D01*
X138292000Y-86064573D01*
X137773191Y-86162194D01*
X137296697Y-86468809D01*
X136977034Y-86936651D01*
X136864573Y-87492000D01*
X136864573Y-89292000D01*
X136962194Y-89810809D01*
X137268809Y-90287303D01*
X137667000Y-90559375D01*
X137667000Y-91822500D01*
X137667006Y-91822530D01*
X137667000Y-91822560D01*
X137725234Y-92115260D01*
X137783084Y-92406092D01*
X137783101Y-92406117D01*
X137783107Y-92406148D01*
X137945486Y-92649144D01*
X138113662Y-92900838D01*
X138113689Y-92900856D01*
X138113705Y-92900880D01*
X138304082Y-93091242D01*
X133588895Y-97806429D01*
X132571195Y-97805541D01*
X131596856Y-98208129D01*
X130850749Y-98952935D01*
X130446461Y-99926570D01*
X130445568Y-100949756D01*
X128461662Y-102933662D01*
X128131084Y-103428408D01*
X128015000Y-104012000D01*
X128015000Y-109090526D01*
X127644697Y-109328809D01*
X127325034Y-109796651D01*
X127212573Y-110352000D01*
X127212573Y-110952400D01*
X125602600Y-110952400D01*
X125019008Y-111068484D01*
X124524262Y-111399062D01*
X121680058Y-114243266D01*
X120904000Y-114088899D01*
X120062096Y-114256364D01*
X119634000Y-114542409D01*
X119205904Y-114256364D01*
X118364000Y-114088899D01*
X117522096Y-114256364D01*
X117094000Y-114542409D01*
X116665904Y-114256364D01*
X115824000Y-114088899D01*
X115609014Y-114131662D01*
X116696800Y-113043876D01*
X117295491Y-113044399D01*
X118141143Y-112694982D01*
X118788708Y-112048547D01*
X119139600Y-111203505D01*
X119140399Y-110288509D01*
X118790982Y-109442857D01*
X118144547Y-108795292D01*
X117299505Y-108444400D01*
X116384509Y-108443601D01*
X115914525Y-108637795D01*
X115755349Y-108529034D01*
X115200000Y-108416573D01*
X113991458Y-108416573D01*
X113987800Y-108378596D01*
X114002695Y-108243294D01*
X113929270Y-107398559D01*
X113858384Y-107154848D01*
X113797520Y-106908453D01*
X113779668Y-106884217D01*
X113771260Y-106855311D01*
X113612504Y-106657276D01*
X113461983Y-106452930D01*
X112632604Y-105696273D01*
X112465499Y-105595370D01*
X112312050Y-105474704D01*
X112098047Y-105365992D01*
X112162809Y-105353806D01*
X112356404Y-105229232D01*
X112824495Y-105423600D01*
X113739491Y-105424399D01*
X114585143Y-105074982D01*
X115232708Y-104428547D01*
X115583600Y-103583505D01*
X115584399Y-102668509D01*
X115234982Y-101822857D01*
X114614293Y-101201083D01*
X117051485Y-98763891D01*
X117464000Y-98847427D01*
X119264000Y-98847427D01*
X119782809Y-98749806D01*
X119976404Y-98625232D01*
X120444495Y-98819600D01*
X121359491Y-98820399D01*
X122205143Y-98470982D01*
X122852708Y-97824547D01*
X123203600Y-96979505D01*
X123204127Y-96376549D01*
X128078338Y-91502338D01*
X128408916Y-91007592D01*
X128525000Y-90424000D01*
X128525000Y-90119516D01*
X128948708Y-89696547D01*
X129299600Y-88851505D01*
X129300399Y-87936509D01*
X128950982Y-87090857D01*
X128304547Y-86443292D01*
X127459505Y-86092400D01*
X126544509Y-86091601D01*
X126074525Y-86285795D01*
X125915349Y-86177034D01*
X125360000Y-86064573D01*
X124514833Y-86064573D01*
X124725732Y-85337474D01*
X124727116Y-85321407D01*
X124734229Y-85306935D01*
X124751351Y-85040167D01*
X124774304Y-84773801D01*
X124769434Y-84758426D01*
X124770467Y-84742335D01*
X124684198Y-84489320D01*
X124603471Y-84234447D01*
X124593089Y-84222107D01*
X124587885Y-84206844D01*
X124271715Y-83660929D01*
X124243868Y-83629263D01*
X124227995Y-83590198D01*
X124057973Y-83417868D01*
X123898106Y-83236072D01*
X123860262Y-83217473D01*
X123830647Y-83187456D01*
X123607620Y-83093308D01*
X123390352Y-82986529D01*
X123348271Y-82983828D01*
X123309423Y-82967429D01*
X122318663Y-82763401D01*
X122234213Y-82762832D01*
X122153141Y-82739167D01*
X121519365Y-82683469D01*
X121078257Y-82591427D01*
X121804000Y-82591427D01*
X122322809Y-82493806D01*
X122516404Y-82369232D01*
X122984495Y-82563600D01*
X123899491Y-82564399D01*
X124745143Y-82214982D01*
X125392708Y-81568547D01*
X125429141Y-81480805D01*
X130445541Y-81480805D01*
X130848129Y-82455144D01*
X131592935Y-83201251D01*
X132566570Y-83605539D01*
X133620805Y-83606459D01*
X134595144Y-83203871D01*
X135341251Y-82459065D01*
X135745539Y-81485430D01*
X135746459Y-80431195D01*
X135343871Y-79456856D01*
X134599065Y-78710749D01*
X133625430Y-78306461D01*
X132571195Y-78305541D01*
X131596856Y-78708129D01*
X130850749Y-79452935D01*
X130446461Y-80426570D01*
X130445541Y-81480805D01*
X125429141Y-81480805D01*
X125743600Y-80723505D01*
X125744399Y-79808509D01*
X125394982Y-78962857D01*
X124748547Y-78315292D01*
X123903505Y-77964400D01*
X122988509Y-77963601D01*
X122518525Y-78157795D01*
X122359349Y-78049034D01*
X121804000Y-77936573D01*
X121793612Y-77936573D01*
X121854723Y-77872239D01*
X121857756Y-77867437D01*
X121862366Y-77864129D01*
X128736573Y-70515084D01*
X128736573Y-72020000D01*
X128736573Y-72020000D01*
G37*
X128736573Y-72020000D02*
X128834194Y-72538809D01*
X129140809Y-73015303D01*
X129608651Y-73334966D01*
X129976138Y-73409384D01*
X129985662Y-73423638D01*
X130480408Y-73754216D01*
X130909615Y-73839591D01*
X138412362Y-81342338D01*
X138423534Y-81349803D01*
X138486194Y-81682809D01*
X138792809Y-82159303D01*
X139260651Y-82478966D01*
X139816000Y-82591427D01*
X141616000Y-82591427D01*
X142134809Y-82493806D01*
X142328404Y-82369232D01*
X142796495Y-82563600D01*
X143711491Y-82564399D01*
X144557143Y-82214982D01*
X145204708Y-81568547D01*
X145357790Y-81199884D01*
X146367900Y-81903957D01*
X146156538Y-81991445D01*
X146115535Y-82018828D01*
X146067924Y-82031658D01*
X143810518Y-83148902D01*
X143743787Y-83200258D01*
X143665533Y-83231362D01*
X143521410Y-83371400D01*
X143362162Y-83493957D01*
X143320163Y-83566942D01*
X143259769Y-83625624D01*
X142496969Y-84732453D01*
X142408926Y-84936654D01*
X142303859Y-85132633D01*
X142297667Y-85194701D01*
X142272970Y-85251983D01*
X142269773Y-85474332D01*
X142247701Y-85695601D01*
X142290270Y-86133411D01*
X142191505Y-86092400D01*
X141276509Y-86091601D01*
X140806525Y-86285795D01*
X140647349Y-86177034D01*
X140092000Y-86064573D01*
X138292000Y-86064573D01*
X137773191Y-86162194D01*
X137296697Y-86468809D01*
X136977034Y-86936651D01*
X136864573Y-87492000D01*
X136864573Y-89292000D01*
X136962194Y-89810809D01*
X137268809Y-90287303D01*
X137667000Y-90559375D01*
X137667000Y-91822500D01*
X137667006Y-91822530D01*
X137667000Y-91822560D01*
X137725234Y-92115260D01*
X137783084Y-92406092D01*
X137783101Y-92406117D01*
X137783107Y-92406148D01*
X137945486Y-92649144D01*
X138113662Y-92900838D01*
X138113689Y-92900856D01*
X138113705Y-92900880D01*
X138304082Y-93091242D01*
X133588895Y-97806429D01*
X132571195Y-97805541D01*
X131596856Y-98208129D01*
X130850749Y-98952935D01*
X130446461Y-99926570D01*
X130445568Y-100949756D01*
X128461662Y-102933662D01*
X128131084Y-103428408D01*
X128015000Y-104012000D01*
X128015000Y-109090526D01*
X127644697Y-109328809D01*
X127325034Y-109796651D01*
X127212573Y-110352000D01*
X127212573Y-110952400D01*
X125602600Y-110952400D01*
X125019008Y-111068484D01*
X124524262Y-111399062D01*
X121680058Y-114243266D01*
X120904000Y-114088899D01*
X120062096Y-114256364D01*
X119634000Y-114542409D01*
X119205904Y-114256364D01*
X118364000Y-114088899D01*
X117522096Y-114256364D01*
X117094000Y-114542409D01*
X116665904Y-114256364D01*
X115824000Y-114088899D01*
X115609014Y-114131662D01*
X116696800Y-113043876D01*
X117295491Y-113044399D01*
X118141143Y-112694982D01*
X118788708Y-112048547D01*
X119139600Y-111203505D01*
X119140399Y-110288509D01*
X118790982Y-109442857D01*
X118144547Y-108795292D01*
X117299505Y-108444400D01*
X116384509Y-108443601D01*
X115914525Y-108637795D01*
X115755349Y-108529034D01*
X115200000Y-108416573D01*
X113991458Y-108416573D01*
X113987800Y-108378596D01*
X114002695Y-108243294D01*
X113929270Y-107398559D01*
X113858384Y-107154848D01*
X113797520Y-106908453D01*
X113779668Y-106884217D01*
X113771260Y-106855311D01*
X113612504Y-106657276D01*
X113461983Y-106452930D01*
X112632604Y-105696273D01*
X112465499Y-105595370D01*
X112312050Y-105474704D01*
X112098047Y-105365992D01*
X112162809Y-105353806D01*
X112356404Y-105229232D01*
X112824495Y-105423600D01*
X113739491Y-105424399D01*
X114585143Y-105074982D01*
X115232708Y-104428547D01*
X115583600Y-103583505D01*
X115584399Y-102668509D01*
X115234982Y-101822857D01*
X114614293Y-101201083D01*
X117051485Y-98763891D01*
X117464000Y-98847427D01*
X119264000Y-98847427D01*
X119782809Y-98749806D01*
X119976404Y-98625232D01*
X120444495Y-98819600D01*
X121359491Y-98820399D01*
X122205143Y-98470982D01*
X122852708Y-97824547D01*
X123203600Y-96979505D01*
X123204127Y-96376549D01*
X128078338Y-91502338D01*
X128408916Y-91007592D01*
X128525000Y-90424000D01*
X128525000Y-90119516D01*
X128948708Y-89696547D01*
X129299600Y-88851505D01*
X129300399Y-87936509D01*
X128950982Y-87090857D01*
X128304547Y-86443292D01*
X127459505Y-86092400D01*
X126544509Y-86091601D01*
X126074525Y-86285795D01*
X125915349Y-86177034D01*
X125360000Y-86064573D01*
X124514833Y-86064573D01*
X124725732Y-85337474D01*
X124727116Y-85321407D01*
X124734229Y-85306935D01*
X124751351Y-85040167D01*
X124774304Y-84773801D01*
X124769434Y-84758426D01*
X124770467Y-84742335D01*
X124684198Y-84489320D01*
X124603471Y-84234447D01*
X124593089Y-84222107D01*
X124587885Y-84206844D01*
X124271715Y-83660929D01*
X124243868Y-83629263D01*
X124227995Y-83590198D01*
X124057973Y-83417868D01*
X123898106Y-83236072D01*
X123860262Y-83217473D01*
X123830647Y-83187456D01*
X123607620Y-83093308D01*
X123390352Y-82986529D01*
X123348271Y-82983828D01*
X123309423Y-82967429D01*
X122318663Y-82763401D01*
X122234213Y-82762832D01*
X122153141Y-82739167D01*
X121519365Y-82683469D01*
X121078257Y-82591427D01*
X121804000Y-82591427D01*
X122322809Y-82493806D01*
X122516404Y-82369232D01*
X122984495Y-82563600D01*
X123899491Y-82564399D01*
X124745143Y-82214982D01*
X125392708Y-81568547D01*
X125429141Y-81480805D01*
X130445541Y-81480805D01*
X130848129Y-82455144D01*
X131592935Y-83201251D01*
X132566570Y-83605539D01*
X133620805Y-83606459D01*
X134595144Y-83203871D01*
X135341251Y-82459065D01*
X135745539Y-81485430D01*
X135746459Y-80431195D01*
X135343871Y-79456856D01*
X134599065Y-78710749D01*
X133625430Y-78306461D01*
X132571195Y-78305541D01*
X131596856Y-78708129D01*
X130850749Y-79452935D01*
X130446461Y-80426570D01*
X130445541Y-81480805D01*
X125429141Y-81480805D01*
X125743600Y-80723505D01*
X125744399Y-79808509D01*
X125394982Y-78962857D01*
X124748547Y-78315292D01*
X123903505Y-77964400D01*
X122988509Y-77963601D01*
X122518525Y-78157795D01*
X122359349Y-78049034D01*
X121804000Y-77936573D01*
X121793612Y-77936573D01*
X121854723Y-77872239D01*
X121857756Y-77867437D01*
X121862366Y-77864129D01*
X128736573Y-70515084D01*
X128736573Y-72020000D01*
G36*
X141436573Y-96223708D02*
X141436573Y-97420000D01*
X141534194Y-97938809D01*
X141840809Y-98415303D01*
X142308651Y-98734966D01*
X142864000Y-98847427D01*
X144233451Y-98847427D01*
X149588362Y-104202338D01*
X149599534Y-104209803D01*
X149627926Y-104360692D01*
X149499862Y-104446262D01*
X146471139Y-107474985D01*
X146347636Y-106854096D01*
X146251294Y-106709911D01*
X146386966Y-106511349D01*
X146499427Y-105956000D01*
X146499427Y-104356000D01*
X146401806Y-103837191D01*
X146095191Y-103360697D01*
X145627349Y-103041034D01*
X145072000Y-102928573D01*
X143472000Y-102928573D01*
X142953191Y-103026194D01*
X142476697Y-103332809D01*
X142157034Y-103800651D01*
X142044573Y-104356000D01*
X142044573Y-105956000D01*
X142142194Y-106474809D01*
X142184278Y-106540210D01*
X142068362Y-106617662D01*
X139245607Y-109440417D01*
X139313400Y-109099600D01*
X139313400Y-107231300D01*
X139197316Y-106647708D01*
X138866738Y-106152962D01*
X138721245Y-106007469D01*
X138727636Y-105997904D01*
X138895101Y-105156000D01*
X138727636Y-104314096D01*
X138250736Y-103600365D01*
X137537005Y-103123465D01*
X136695101Y-102956000D01*
X136608899Y-102956000D01*
X135766995Y-103123465D01*
X135053264Y-103600365D01*
X134576364Y-104314096D01*
X134413449Y-105133125D01*
X133941662Y-105448362D01*
X131065000Y-108325024D01*
X131065000Y-104643676D01*
X132603105Y-103105571D01*
X133620805Y-103106459D01*
X134595144Y-102703871D01*
X135341251Y-101959065D01*
X135745539Y-100985430D01*
X135746432Y-99962244D01*
X140460784Y-95247892D01*
X141436573Y-96223708D01*
X141436573Y-96223708D01*
G37*
X141436573Y-96223708D02*
X141436573Y-97420000D01*
X141534194Y-97938809D01*
X141840809Y-98415303D01*
X142308651Y-98734966D01*
X142864000Y-98847427D01*
X144233451Y-98847427D01*
X149588362Y-104202338D01*
X149599534Y-104209803D01*
X149627926Y-104360692D01*
X149499862Y-104446262D01*
X146471139Y-107474985D01*
X146347636Y-106854096D01*
X146251294Y-106709911D01*
X146386966Y-106511349D01*
X146499427Y-105956000D01*
X146499427Y-104356000D01*
X146401806Y-103837191D01*
X146095191Y-103360697D01*
X145627349Y-103041034D01*
X145072000Y-102928573D01*
X143472000Y-102928573D01*
X142953191Y-103026194D01*
X142476697Y-103332809D01*
X142157034Y-103800651D01*
X142044573Y-104356000D01*
X142044573Y-105956000D01*
X142142194Y-106474809D01*
X142184278Y-106540210D01*
X142068362Y-106617662D01*
X139245607Y-109440417D01*
X139313400Y-109099600D01*
X139313400Y-107231300D01*
X139197316Y-106647708D01*
X138866738Y-106152962D01*
X138721245Y-106007469D01*
X138727636Y-105997904D01*
X138895101Y-105156000D01*
X138727636Y-104314096D01*
X138250736Y-103600365D01*
X137537005Y-103123465D01*
X136695101Y-102956000D01*
X136608899Y-102956000D01*
X135766995Y-103123465D01*
X135053264Y-103600365D01*
X134576364Y-104314096D01*
X134413449Y-105133125D01*
X133941662Y-105448362D01*
X131065000Y-108325024D01*
X131065000Y-104643676D01*
X132603105Y-103105571D01*
X133620805Y-103106459D01*
X134595144Y-102703871D01*
X135341251Y-101959065D01*
X135745539Y-100985430D01*
X135746432Y-99962244D01*
X140460784Y-95247892D01*
X141436573Y-96223708D01*
G36*
X151636023Y-107161254D02*
X151516093Y-107356205D01*
X151381727Y-107541500D01*
X151368771Y-107595685D01*
X151339581Y-107643134D01*
X151303384Y-107869143D01*
X151250156Y-108091750D01*
X151258921Y-108146763D01*
X151250110Y-108201776D01*
X151303160Y-108424436D01*
X151306336Y-108444375D01*
X150420509Y-108443601D01*
X149950525Y-108637795D01*
X149791349Y-108529034D01*
X149740699Y-108518777D01*
X151209876Y-107049600D01*
X151739593Y-107049600D01*
X151636023Y-107161254D01*
X151636023Y-107161254D01*
G37*
X151636023Y-107161254D02*
X151516093Y-107356205D01*
X151381727Y-107541500D01*
X151368771Y-107595685D01*
X151339581Y-107643134D01*
X151303384Y-107869143D01*
X151250156Y-108091750D01*
X151258921Y-108146763D01*
X151250110Y-108201776D01*
X151303160Y-108424436D01*
X151306336Y-108444375D01*
X150420509Y-108443601D01*
X149950525Y-108637795D01*
X149791349Y-108529034D01*
X149740699Y-108518777D01*
X151209876Y-107049600D01*
X151739593Y-107049600D01*
X151636023Y-107161254D01*
G36*
X154368920Y-105423946D02*
X153803320Y-105667387D01*
X153775233Y-105672743D01*
X154024331Y-105423645D01*
X154368920Y-105423946D01*
X154368920Y-105423946D01*
G37*
X154368920Y-105423946D02*
X153803320Y-105667387D01*
X153775233Y-105672743D01*
X154024331Y-105423645D01*
X154368920Y-105423946D01*
G36*
X157456031Y-102974712D02*
X157526394Y-102991447D01*
X157588887Y-103027851D01*
X158297141Y-103271337D01*
X157448448Y-103795859D01*
X156387052Y-104413270D01*
X156731600Y-103583505D01*
X156732399Y-102668509D01*
X156719381Y-102637004D01*
X157456031Y-102974712D01*
X157456031Y-102974712D01*
G37*
X157456031Y-102974712D02*
X157526394Y-102991447D01*
X157588887Y-103027851D01*
X158297141Y-103271337D01*
X157448448Y-103795859D01*
X156387052Y-104413270D01*
X156731600Y-103583505D01*
X156732399Y-102668509D01*
X156719381Y-102637004D01*
X157456031Y-102974712D01*
G36*
X108416573Y-103427770D02*
X107155282Y-102708942D01*
X107693723Y-102609475D01*
X107776382Y-102576553D01*
X107864835Y-102566964D01*
X108416573Y-102393662D01*
X108416573Y-103427770D01*
X108416573Y-103427770D01*
G37*
X108416573Y-103427770D02*
X107155282Y-102708942D01*
X107693723Y-102609475D01*
X107776382Y-102576553D01*
X107864835Y-102566964D01*
X108416573Y-102393662D01*
X108416573Y-103427770D01*
G36*
X144037903Y-91362510D02*
X144100683Y-91455271D01*
X144139701Y-91560262D01*
X145792384Y-94242791D01*
X145378525Y-94413795D01*
X145219349Y-94305034D01*
X144664000Y-94192573D01*
X143718785Y-94192573D01*
X141539154Y-92012878D01*
X141539144Y-92012872D01*
X141539138Y-92012862D01*
X141539112Y-92012845D01*
X141539095Y-92012819D01*
X140717000Y-91190789D01*
X140717000Y-90553474D01*
X140804404Y-90497232D01*
X141272495Y-90691600D01*
X142187491Y-90692399D01*
X143033143Y-90342982D01*
X143438201Y-89938631D01*
X144037903Y-91362510D01*
X144037903Y-91362510D01*
G37*
X144037903Y-91362510D02*
X144100683Y-91455271D01*
X144139701Y-91560262D01*
X145792384Y-94242791D01*
X145378525Y-94413795D01*
X145219349Y-94305034D01*
X144664000Y-94192573D01*
X143718785Y-94192573D01*
X141539154Y-92012878D01*
X141539144Y-92012872D01*
X141539138Y-92012862D01*
X141539112Y-92012845D01*
X141539095Y-92012819D01*
X140717000Y-91190789D01*
X140717000Y-90553474D01*
X140804404Y-90497232D01*
X141272495Y-90691600D01*
X142187491Y-90692399D01*
X143033143Y-90342982D01*
X143438201Y-89938631D01*
X144037903Y-91362510D01*
G36*
X122536809Y-90287303D02*
X123004651Y-90606966D01*
X123560000Y-90719427D01*
X124547897Y-90719427D01*
X121047200Y-94220124D01*
X120448509Y-94219601D01*
X119978525Y-94413795D01*
X119819349Y-94305034D01*
X119500998Y-94240566D01*
X119970713Y-93791528D01*
X120052596Y-93674757D01*
X120155712Y-93576234D01*
X122501661Y-90232682D01*
X122536809Y-90287303D01*
X122536809Y-90287303D01*
G37*
X122536809Y-90287303D02*
X123004651Y-90606966D01*
X123560000Y-90719427D01*
X124547897Y-90719427D01*
X121047200Y-94220124D01*
X120448509Y-94219601D01*
X119978525Y-94413795D01*
X119819349Y-94305034D01*
X119500998Y-94240566D01*
X119970713Y-93791528D01*
X120052596Y-93674757D01*
X120155712Y-93576234D01*
X122501661Y-90232682D01*
X122536809Y-90287303D01*
G36*
X118674194Y-81682809D02*
X118854270Y-81962656D01*
X118610994Y-81879426D01*
X118197590Y-81722250D01*
X118601588Y-81296945D01*
X118674194Y-81682809D01*
X118674194Y-81682809D01*
G37*
X118674194Y-81682809D02*
X118854270Y-81962656D01*
X118610994Y-81879426D01*
X118197590Y-81722250D01*
X118601588Y-81296945D01*
X118674194Y-81682809D01*
G36*
X134738776Y-61984536D02*
X134430245Y-62102285D01*
X134225852Y-62230694D01*
X134014294Y-62346986D01*
X133654784Y-62649158D01*
X133592411Y-62727005D01*
X133512352Y-62786510D01*
X133417091Y-62945819D01*
X133301025Y-63090679D01*
X133273191Y-63186469D01*
X133221997Y-63272082D01*
X133095354Y-63627191D01*
X133068650Y-63808516D01*
X133016931Y-63984356D01*
X133027800Y-64085892D01*
X133012922Y-64186915D01*
X133057640Y-64364657D01*
X133077149Y-64546904D01*
X134016923Y-67553072D01*
X134132193Y-67764403D01*
X134234737Y-67982185D01*
X138770581Y-74120127D01*
X138805646Y-74152018D01*
X138828560Y-74193510D01*
X142063724Y-78027239D01*
X141616000Y-77936573D01*
X139816000Y-77936573D01*
X139398506Y-78015130D01*
X134586160Y-73202784D01*
X134905143Y-73070982D01*
X135552708Y-72424547D01*
X135903600Y-71579505D01*
X135904399Y-70664509D01*
X135554982Y-69818857D01*
X134908547Y-69171292D01*
X134063505Y-68820400D01*
X133148509Y-68819601D01*
X132678525Y-69013795D01*
X132519349Y-68905034D01*
X131964000Y-68792573D01*
X130166582Y-68792573D01*
X131986785Y-66461851D01*
X132042885Y-66350495D01*
X132122083Y-66254190D01*
X132168943Y-66100274D01*
X132241331Y-65956586D01*
X132250547Y-65832237D01*
X132286862Y-65712956D01*
X132444008Y-64133790D01*
X132423597Y-63924388D01*
X132424583Y-63713987D01*
X132396359Y-63644936D01*
X132389123Y-63570697D01*
X132290129Y-63385040D01*
X132210524Y-63190284D01*
X132158028Y-63137294D01*
X132122930Y-63071470D01*
X131960422Y-62937829D01*
X131812348Y-62788361D01*
X130976644Y-62224284D01*
X131033913Y-62158772D01*
X131037401Y-62152708D01*
X131042903Y-62148389D01*
X131886750Y-61164430D01*
X132257659Y-61297237D01*
X133807324Y-61221454D01*
X134011739Y-61136783D01*
X134738776Y-61984536D01*
X134738776Y-61984536D01*
G37*
X134738776Y-61984536D02*
X134430245Y-62102285D01*
X134225852Y-62230694D01*
X134014294Y-62346986D01*
X133654784Y-62649158D01*
X133592411Y-62727005D01*
X133512352Y-62786510D01*
X133417091Y-62945819D01*
X133301025Y-63090679D01*
X133273191Y-63186469D01*
X133221997Y-63272082D01*
X133095354Y-63627191D01*
X133068650Y-63808516D01*
X133016931Y-63984356D01*
X133027800Y-64085892D01*
X133012922Y-64186915D01*
X133057640Y-64364657D01*
X133077149Y-64546904D01*
X134016923Y-67553072D01*
X134132193Y-67764403D01*
X134234737Y-67982185D01*
X138770581Y-74120127D01*
X138805646Y-74152018D01*
X138828560Y-74193510D01*
X142063724Y-78027239D01*
X141616000Y-77936573D01*
X139816000Y-77936573D01*
X139398506Y-78015130D01*
X134586160Y-73202784D01*
X134905143Y-73070982D01*
X135552708Y-72424547D01*
X135903600Y-71579505D01*
X135904399Y-70664509D01*
X135554982Y-69818857D01*
X134908547Y-69171292D01*
X134063505Y-68820400D01*
X133148509Y-68819601D01*
X132678525Y-69013795D01*
X132519349Y-68905034D01*
X131964000Y-68792573D01*
X130166582Y-68792573D01*
X131986785Y-66461851D01*
X132042885Y-66350495D01*
X132122083Y-66254190D01*
X132168943Y-66100274D01*
X132241331Y-65956586D01*
X132250547Y-65832237D01*
X132286862Y-65712956D01*
X132444008Y-64133790D01*
X132423597Y-63924388D01*
X132424583Y-63713987D01*
X132396359Y-63644936D01*
X132389123Y-63570697D01*
X132290129Y-63385040D01*
X132210524Y-63190284D01*
X132158028Y-63137294D01*
X132122930Y-63071470D01*
X131960422Y-62937829D01*
X131812348Y-62788361D01*
X130976644Y-62224284D01*
X131033913Y-62158772D01*
X131037401Y-62152708D01*
X131042903Y-62148389D01*
X131886750Y-61164430D01*
X132257659Y-61297237D01*
X133807324Y-61221454D01*
X134011739Y-61136783D01*
X134738776Y-61984536D01*
M02*
