G04 #@! TF.GenerationSoftware,KiCad,Pcbnew,(5.0.0)*
G04 #@! TF.CreationDate,2019-09-06T11:34:28-04:00*
G04 #@! TF.ProjectId,MiniTempleT,4D696E6954656D706C65542E6B696361,rev?*
G04 #@! TF.SameCoordinates,Original*
G04 #@! TF.FileFunction,Copper,L2,Bot,Signal*
G04 #@! TF.FilePolarity,Positive*
%FSLAX46Y46*%
G04 Gerber Fmt 4.6, Leading zero omitted, Abs format (unit mm)*
G04 Created by KiCad (PCBNEW (5.0.0)) date 09/06/19 11:34:28*
%MOMM*%
%LPD*%
G01*
G04 APERTURE LIST*
G04 #@! TA.AperFunction,ComponentPad*
%ADD10O,2.000000X2.000000*%
G04 #@! TD*
G04 #@! TA.AperFunction,Conductor*
%ADD11C,0.100000*%
G04 #@! TD*
G04 #@! TA.AperFunction,ComponentPad*
%ADD12C,2.000000*%
G04 #@! TD*
G04 #@! TA.AperFunction,ComponentPad*
%ADD13C,2.500000*%
G04 #@! TD*
G04 #@! TA.AperFunction,ComponentPad*
%ADD14R,1.700000X1.700000*%
G04 #@! TD*
G04 #@! TA.AperFunction,ComponentPad*
%ADD15O,1.700000X1.700000*%
G04 #@! TD*
G04 #@! TA.AperFunction,ComponentPad*
%ADD16O,2.400000X1.600000*%
G04 #@! TD*
G04 #@! TA.AperFunction,ComponentPad*
%ADD17R,2.400000X1.600000*%
G04 #@! TD*
G04 #@! TA.AperFunction,ComponentPad*
%ADD18R,1.600000X2.400000*%
G04 #@! TD*
G04 #@! TA.AperFunction,ComponentPad*
%ADD19O,1.600000X2.400000*%
G04 #@! TD*
G04 #@! TA.AperFunction,ViaPad*
%ADD20C,0.500000*%
G04 #@! TD*
G04 #@! TA.AperFunction,Conductor*
%ADD21C,0.250000*%
G04 #@! TD*
G04 #@! TA.AperFunction,NonConductor*
%ADD22C,0.200000*%
G04 #@! TD*
G04 APERTURE END LIST*
D10*
G04 #@! TO.P,D17,2*
G04 #@! TO.N,Net-(D17-Pad2)*
X181050000Y-85217000D03*
D11*
G04 #@! TD*
G04 #@! TO.N,GND*
G04 #@! TO.C,D17*
G36*
X178559009Y-84219408D02*
X178607545Y-84226607D01*
X178655142Y-84238530D01*
X178701342Y-84255060D01*
X178745698Y-84276039D01*
X178787785Y-84301265D01*
X178827197Y-84330495D01*
X178863553Y-84363447D01*
X178896505Y-84399803D01*
X178925735Y-84439215D01*
X178950961Y-84481302D01*
X178971940Y-84525658D01*
X178988470Y-84571858D01*
X179000393Y-84619455D01*
X179007592Y-84667991D01*
X179010000Y-84717000D01*
X179010000Y-85717000D01*
X179007592Y-85766009D01*
X179000393Y-85814545D01*
X178988470Y-85862142D01*
X178971940Y-85908342D01*
X178950961Y-85952698D01*
X178925735Y-85994785D01*
X178896505Y-86034197D01*
X178863553Y-86070553D01*
X178827197Y-86103505D01*
X178787785Y-86132735D01*
X178745698Y-86157961D01*
X178701342Y-86178940D01*
X178655142Y-86195470D01*
X178607545Y-86207393D01*
X178559009Y-86214592D01*
X178510000Y-86217000D01*
X177510000Y-86217000D01*
X177460991Y-86214592D01*
X177412455Y-86207393D01*
X177364858Y-86195470D01*
X177318658Y-86178940D01*
X177274302Y-86157961D01*
X177232215Y-86132735D01*
X177192803Y-86103505D01*
X177156447Y-86070553D01*
X177123495Y-86034197D01*
X177094265Y-85994785D01*
X177069039Y-85952698D01*
X177048060Y-85908342D01*
X177031530Y-85862142D01*
X177019607Y-85814545D01*
X177012408Y-85766009D01*
X177010000Y-85717000D01*
X177010000Y-84717000D01*
X177012408Y-84667991D01*
X177019607Y-84619455D01*
X177031530Y-84571858D01*
X177048060Y-84525658D01*
X177069039Y-84481302D01*
X177094265Y-84439215D01*
X177123495Y-84399803D01*
X177156447Y-84363447D01*
X177192803Y-84330495D01*
X177232215Y-84301265D01*
X177274302Y-84276039D01*
X177318658Y-84255060D01*
X177364858Y-84238530D01*
X177412455Y-84226607D01*
X177460991Y-84219408D01*
X177510000Y-84217000D01*
X178510000Y-84217000D01*
X178559009Y-84219408D01*
X178559009Y-84219408D01*
G37*
D12*
G04 #@! TO.P,D17,1*
G04 #@! TO.N,GND*
X178010000Y-85217000D03*
G04 #@! TD*
G04 #@! TO.P,BTN1,2*
G04 #@! TO.N,Net-(BTN1-Pad2)*
X180615000Y-140840000D03*
G04 #@! TO.P,BTN1,1*
G04 #@! TO.N,GND*
X180615000Y-136340000D03*
G04 #@! TO.P,BTN1,2*
G04 #@! TO.N,Net-(BTN1-Pad2)*
X187115000Y-140840000D03*
G04 #@! TO.P,BTN1,1*
G04 #@! TO.N,GND*
X187115000Y-136340000D03*
G04 #@! TD*
D13*
G04 #@! TO.P,Battery1,2*
G04 #@! TO.N,Net-(Battery1-Pad2)*
X171196000Y-116669000D03*
G04 #@! TO.P,Battery1,1*
G04 #@! TO.N,GND*
X171196000Y-97169000D03*
G04 #@! TD*
D14*
G04 #@! TO.P,Power1,1*
G04 #@! TO.N,GND*
X169799000Y-103137000D03*
D15*
G04 #@! TO.P,Power1,2*
G04 #@! TO.N,Net-(Battery1-Pad2)*
X172339000Y-103137000D03*
G04 #@! TD*
D10*
G04 #@! TO.P,D1,2*
G04 #@! TO.N,Net-(D1-Pad2)*
X133073000Y-85217000D03*
D11*
G04 #@! TD*
G04 #@! TO.N,GND*
G04 #@! TO.C,D1*
G36*
X130582009Y-84219408D02*
X130630545Y-84226607D01*
X130678142Y-84238530D01*
X130724342Y-84255060D01*
X130768698Y-84276039D01*
X130810785Y-84301265D01*
X130850197Y-84330495D01*
X130886553Y-84363447D01*
X130919505Y-84399803D01*
X130948735Y-84439215D01*
X130973961Y-84481302D01*
X130994940Y-84525658D01*
X131011470Y-84571858D01*
X131023393Y-84619455D01*
X131030592Y-84667991D01*
X131033000Y-84717000D01*
X131033000Y-85717000D01*
X131030592Y-85766009D01*
X131023393Y-85814545D01*
X131011470Y-85862142D01*
X130994940Y-85908342D01*
X130973961Y-85952698D01*
X130948735Y-85994785D01*
X130919505Y-86034197D01*
X130886553Y-86070553D01*
X130850197Y-86103505D01*
X130810785Y-86132735D01*
X130768698Y-86157961D01*
X130724342Y-86178940D01*
X130678142Y-86195470D01*
X130630545Y-86207393D01*
X130582009Y-86214592D01*
X130533000Y-86217000D01*
X129533000Y-86217000D01*
X129483991Y-86214592D01*
X129435455Y-86207393D01*
X129387858Y-86195470D01*
X129341658Y-86178940D01*
X129297302Y-86157961D01*
X129255215Y-86132735D01*
X129215803Y-86103505D01*
X129179447Y-86070553D01*
X129146495Y-86034197D01*
X129117265Y-85994785D01*
X129092039Y-85952698D01*
X129071060Y-85908342D01*
X129054530Y-85862142D01*
X129042607Y-85814545D01*
X129035408Y-85766009D01*
X129033000Y-85717000D01*
X129033000Y-84717000D01*
X129035408Y-84667991D01*
X129042607Y-84619455D01*
X129054530Y-84571858D01*
X129071060Y-84525658D01*
X129092039Y-84481302D01*
X129117265Y-84439215D01*
X129146495Y-84399803D01*
X129179447Y-84363447D01*
X129215803Y-84330495D01*
X129255215Y-84301265D01*
X129297302Y-84276039D01*
X129341658Y-84255060D01*
X129387858Y-84238530D01*
X129435455Y-84226607D01*
X129483991Y-84219408D01*
X129533000Y-84217000D01*
X130533000Y-84217000D01*
X130582009Y-84219408D01*
X130582009Y-84219408D01*
G37*
D12*
G04 #@! TO.P,D1,1*
G04 #@! TO.N,GND*
X130033000Y-85217000D03*
G04 #@! TD*
D10*
G04 #@! TO.P,D2,2*
G04 #@! TO.N,Net-(D2-Pad2)*
X133190000Y-73600000D03*
D11*
G04 #@! TD*
G04 #@! TO.N,GND*
G04 #@! TO.C,D2*
G36*
X130699009Y-72602408D02*
X130747545Y-72609607D01*
X130795142Y-72621530D01*
X130841342Y-72638060D01*
X130885698Y-72659039D01*
X130927785Y-72684265D01*
X130967197Y-72713495D01*
X131003553Y-72746447D01*
X131036505Y-72782803D01*
X131065735Y-72822215D01*
X131090961Y-72864302D01*
X131111940Y-72908658D01*
X131128470Y-72954858D01*
X131140393Y-73002455D01*
X131147592Y-73050991D01*
X131150000Y-73100000D01*
X131150000Y-74100000D01*
X131147592Y-74149009D01*
X131140393Y-74197545D01*
X131128470Y-74245142D01*
X131111940Y-74291342D01*
X131090961Y-74335698D01*
X131065735Y-74377785D01*
X131036505Y-74417197D01*
X131003553Y-74453553D01*
X130967197Y-74486505D01*
X130927785Y-74515735D01*
X130885698Y-74540961D01*
X130841342Y-74561940D01*
X130795142Y-74578470D01*
X130747545Y-74590393D01*
X130699009Y-74597592D01*
X130650000Y-74600000D01*
X129650000Y-74600000D01*
X129600991Y-74597592D01*
X129552455Y-74590393D01*
X129504858Y-74578470D01*
X129458658Y-74561940D01*
X129414302Y-74540961D01*
X129372215Y-74515735D01*
X129332803Y-74486505D01*
X129296447Y-74453553D01*
X129263495Y-74417197D01*
X129234265Y-74377785D01*
X129209039Y-74335698D01*
X129188060Y-74291342D01*
X129171530Y-74245142D01*
X129159607Y-74197545D01*
X129152408Y-74149009D01*
X129150000Y-74100000D01*
X129150000Y-73100000D01*
X129152408Y-73050991D01*
X129159607Y-73002455D01*
X129171530Y-72954858D01*
X129188060Y-72908658D01*
X129209039Y-72864302D01*
X129234265Y-72822215D01*
X129263495Y-72782803D01*
X129296447Y-72746447D01*
X129332803Y-72713495D01*
X129372215Y-72684265D01*
X129414302Y-72659039D01*
X129458658Y-72638060D01*
X129504858Y-72621530D01*
X129552455Y-72609607D01*
X129600991Y-72602408D01*
X129650000Y-72600000D01*
X130650000Y-72600000D01*
X130699009Y-72602408D01*
X130699009Y-72602408D01*
G37*
D12*
G04 #@! TO.P,D2,1*
G04 #@! TO.N,GND*
X130150000Y-73600000D03*
G04 #@! TD*
D10*
G04 #@! TO.P,D3,2*
G04 #@! TO.N,Net-(D3-Pad2)*
X133250000Y-58000000D03*
D11*
G04 #@! TD*
G04 #@! TO.N,GND*
G04 #@! TO.C,D3*
G36*
X130759009Y-57002408D02*
X130807545Y-57009607D01*
X130855142Y-57021530D01*
X130901342Y-57038060D01*
X130945698Y-57059039D01*
X130987785Y-57084265D01*
X131027197Y-57113495D01*
X131063553Y-57146447D01*
X131096505Y-57182803D01*
X131125735Y-57222215D01*
X131150961Y-57264302D01*
X131171940Y-57308658D01*
X131188470Y-57354858D01*
X131200393Y-57402455D01*
X131207592Y-57450991D01*
X131210000Y-57500000D01*
X131210000Y-58500000D01*
X131207592Y-58549009D01*
X131200393Y-58597545D01*
X131188470Y-58645142D01*
X131171940Y-58691342D01*
X131150961Y-58735698D01*
X131125735Y-58777785D01*
X131096505Y-58817197D01*
X131063553Y-58853553D01*
X131027197Y-58886505D01*
X130987785Y-58915735D01*
X130945698Y-58940961D01*
X130901342Y-58961940D01*
X130855142Y-58978470D01*
X130807545Y-58990393D01*
X130759009Y-58997592D01*
X130710000Y-59000000D01*
X129710000Y-59000000D01*
X129660991Y-58997592D01*
X129612455Y-58990393D01*
X129564858Y-58978470D01*
X129518658Y-58961940D01*
X129474302Y-58940961D01*
X129432215Y-58915735D01*
X129392803Y-58886505D01*
X129356447Y-58853553D01*
X129323495Y-58817197D01*
X129294265Y-58777785D01*
X129269039Y-58735698D01*
X129248060Y-58691342D01*
X129231530Y-58645142D01*
X129219607Y-58597545D01*
X129212408Y-58549009D01*
X129210000Y-58500000D01*
X129210000Y-57500000D01*
X129212408Y-57450991D01*
X129219607Y-57402455D01*
X129231530Y-57354858D01*
X129248060Y-57308658D01*
X129269039Y-57264302D01*
X129294265Y-57222215D01*
X129323495Y-57182803D01*
X129356447Y-57146447D01*
X129392803Y-57113495D01*
X129432215Y-57084265D01*
X129474302Y-57059039D01*
X129518658Y-57038060D01*
X129564858Y-57021530D01*
X129612455Y-57009607D01*
X129660991Y-57002408D01*
X129710000Y-57000000D01*
X130710000Y-57000000D01*
X130759009Y-57002408D01*
X130759009Y-57002408D01*
G37*
D12*
G04 #@! TO.P,D3,1*
G04 #@! TO.N,GND*
X130210000Y-58000000D03*
G04 #@! TD*
D10*
G04 #@! TO.P,D4,2*
G04 #@! TO.N,Net-(D4-Pad2)*
X144500000Y-58000000D03*
D11*
G04 #@! TD*
G04 #@! TO.N,GND*
G04 #@! TO.C,D4*
G36*
X142009009Y-57002408D02*
X142057545Y-57009607D01*
X142105142Y-57021530D01*
X142151342Y-57038060D01*
X142195698Y-57059039D01*
X142237785Y-57084265D01*
X142277197Y-57113495D01*
X142313553Y-57146447D01*
X142346505Y-57182803D01*
X142375735Y-57222215D01*
X142400961Y-57264302D01*
X142421940Y-57308658D01*
X142438470Y-57354858D01*
X142450393Y-57402455D01*
X142457592Y-57450991D01*
X142460000Y-57500000D01*
X142460000Y-58500000D01*
X142457592Y-58549009D01*
X142450393Y-58597545D01*
X142438470Y-58645142D01*
X142421940Y-58691342D01*
X142400961Y-58735698D01*
X142375735Y-58777785D01*
X142346505Y-58817197D01*
X142313553Y-58853553D01*
X142277197Y-58886505D01*
X142237785Y-58915735D01*
X142195698Y-58940961D01*
X142151342Y-58961940D01*
X142105142Y-58978470D01*
X142057545Y-58990393D01*
X142009009Y-58997592D01*
X141960000Y-59000000D01*
X140960000Y-59000000D01*
X140910991Y-58997592D01*
X140862455Y-58990393D01*
X140814858Y-58978470D01*
X140768658Y-58961940D01*
X140724302Y-58940961D01*
X140682215Y-58915735D01*
X140642803Y-58886505D01*
X140606447Y-58853553D01*
X140573495Y-58817197D01*
X140544265Y-58777785D01*
X140519039Y-58735698D01*
X140498060Y-58691342D01*
X140481530Y-58645142D01*
X140469607Y-58597545D01*
X140462408Y-58549009D01*
X140460000Y-58500000D01*
X140460000Y-57500000D01*
X140462408Y-57450991D01*
X140469607Y-57402455D01*
X140481530Y-57354858D01*
X140498060Y-57308658D01*
X140519039Y-57264302D01*
X140544265Y-57222215D01*
X140573495Y-57182803D01*
X140606447Y-57146447D01*
X140642803Y-57113495D01*
X140682215Y-57084265D01*
X140724302Y-57059039D01*
X140768658Y-57038060D01*
X140814858Y-57021530D01*
X140862455Y-57009607D01*
X140910991Y-57002408D01*
X140960000Y-57000000D01*
X141960000Y-57000000D01*
X142009009Y-57002408D01*
X142009009Y-57002408D01*
G37*
D12*
G04 #@! TO.P,D4,1*
G04 #@! TO.N,GND*
X141460000Y-58000000D03*
G04 #@! TD*
D10*
G04 #@! TO.P,D5,2*
G04 #@! TO.N,Net-(D5-Pad2)*
X155720000Y-58000000D03*
D11*
G04 #@! TD*
G04 #@! TO.N,GND*
G04 #@! TO.C,D5*
G36*
X153229009Y-57002408D02*
X153277545Y-57009607D01*
X153325142Y-57021530D01*
X153371342Y-57038060D01*
X153415698Y-57059039D01*
X153457785Y-57084265D01*
X153497197Y-57113495D01*
X153533553Y-57146447D01*
X153566505Y-57182803D01*
X153595735Y-57222215D01*
X153620961Y-57264302D01*
X153641940Y-57308658D01*
X153658470Y-57354858D01*
X153670393Y-57402455D01*
X153677592Y-57450991D01*
X153680000Y-57500000D01*
X153680000Y-58500000D01*
X153677592Y-58549009D01*
X153670393Y-58597545D01*
X153658470Y-58645142D01*
X153641940Y-58691342D01*
X153620961Y-58735698D01*
X153595735Y-58777785D01*
X153566505Y-58817197D01*
X153533553Y-58853553D01*
X153497197Y-58886505D01*
X153457785Y-58915735D01*
X153415698Y-58940961D01*
X153371342Y-58961940D01*
X153325142Y-58978470D01*
X153277545Y-58990393D01*
X153229009Y-58997592D01*
X153180000Y-59000000D01*
X152180000Y-59000000D01*
X152130991Y-58997592D01*
X152082455Y-58990393D01*
X152034858Y-58978470D01*
X151988658Y-58961940D01*
X151944302Y-58940961D01*
X151902215Y-58915735D01*
X151862803Y-58886505D01*
X151826447Y-58853553D01*
X151793495Y-58817197D01*
X151764265Y-58777785D01*
X151739039Y-58735698D01*
X151718060Y-58691342D01*
X151701530Y-58645142D01*
X151689607Y-58597545D01*
X151682408Y-58549009D01*
X151680000Y-58500000D01*
X151680000Y-57500000D01*
X151682408Y-57450991D01*
X151689607Y-57402455D01*
X151701530Y-57354858D01*
X151718060Y-57308658D01*
X151739039Y-57264302D01*
X151764265Y-57222215D01*
X151793495Y-57182803D01*
X151826447Y-57146447D01*
X151862803Y-57113495D01*
X151902215Y-57084265D01*
X151944302Y-57059039D01*
X151988658Y-57038060D01*
X152034858Y-57021530D01*
X152082455Y-57009607D01*
X152130991Y-57002408D01*
X152180000Y-57000000D01*
X153180000Y-57000000D01*
X153229009Y-57002408D01*
X153229009Y-57002408D01*
G37*
D12*
G04 #@! TO.P,D5,1*
G04 #@! TO.N,GND*
X152680000Y-58000000D03*
G04 #@! TD*
D10*
G04 #@! TO.P,D6,2*
G04 #@! TO.N,Net-(D6-Pad2)*
X166940000Y-58000000D03*
D11*
G04 #@! TD*
G04 #@! TO.N,GND*
G04 #@! TO.C,D6*
G36*
X164449009Y-57002408D02*
X164497545Y-57009607D01*
X164545142Y-57021530D01*
X164591342Y-57038060D01*
X164635698Y-57059039D01*
X164677785Y-57084265D01*
X164717197Y-57113495D01*
X164753553Y-57146447D01*
X164786505Y-57182803D01*
X164815735Y-57222215D01*
X164840961Y-57264302D01*
X164861940Y-57308658D01*
X164878470Y-57354858D01*
X164890393Y-57402455D01*
X164897592Y-57450991D01*
X164900000Y-57500000D01*
X164900000Y-58500000D01*
X164897592Y-58549009D01*
X164890393Y-58597545D01*
X164878470Y-58645142D01*
X164861940Y-58691342D01*
X164840961Y-58735698D01*
X164815735Y-58777785D01*
X164786505Y-58817197D01*
X164753553Y-58853553D01*
X164717197Y-58886505D01*
X164677785Y-58915735D01*
X164635698Y-58940961D01*
X164591342Y-58961940D01*
X164545142Y-58978470D01*
X164497545Y-58990393D01*
X164449009Y-58997592D01*
X164400000Y-59000000D01*
X163400000Y-59000000D01*
X163350991Y-58997592D01*
X163302455Y-58990393D01*
X163254858Y-58978470D01*
X163208658Y-58961940D01*
X163164302Y-58940961D01*
X163122215Y-58915735D01*
X163082803Y-58886505D01*
X163046447Y-58853553D01*
X163013495Y-58817197D01*
X162984265Y-58777785D01*
X162959039Y-58735698D01*
X162938060Y-58691342D01*
X162921530Y-58645142D01*
X162909607Y-58597545D01*
X162902408Y-58549009D01*
X162900000Y-58500000D01*
X162900000Y-57500000D01*
X162902408Y-57450991D01*
X162909607Y-57402455D01*
X162921530Y-57354858D01*
X162938060Y-57308658D01*
X162959039Y-57264302D01*
X162984265Y-57222215D01*
X163013495Y-57182803D01*
X163046447Y-57146447D01*
X163082803Y-57113495D01*
X163122215Y-57084265D01*
X163164302Y-57059039D01*
X163208658Y-57038060D01*
X163254858Y-57021530D01*
X163302455Y-57009607D01*
X163350991Y-57002408D01*
X163400000Y-57000000D01*
X164400000Y-57000000D01*
X164449009Y-57002408D01*
X164449009Y-57002408D01*
G37*
D12*
G04 #@! TO.P,D6,1*
G04 #@! TO.N,GND*
X163900000Y-58000000D03*
G04 #@! TD*
D10*
G04 #@! TO.P,D7,2*
G04 #@! TO.N,Net-(D7-Pad2)*
X178160000Y-58000000D03*
D11*
G04 #@! TD*
G04 #@! TO.N,GND*
G04 #@! TO.C,D7*
G36*
X175669009Y-57002408D02*
X175717545Y-57009607D01*
X175765142Y-57021530D01*
X175811342Y-57038060D01*
X175855698Y-57059039D01*
X175897785Y-57084265D01*
X175937197Y-57113495D01*
X175973553Y-57146447D01*
X176006505Y-57182803D01*
X176035735Y-57222215D01*
X176060961Y-57264302D01*
X176081940Y-57308658D01*
X176098470Y-57354858D01*
X176110393Y-57402455D01*
X176117592Y-57450991D01*
X176120000Y-57500000D01*
X176120000Y-58500000D01*
X176117592Y-58549009D01*
X176110393Y-58597545D01*
X176098470Y-58645142D01*
X176081940Y-58691342D01*
X176060961Y-58735698D01*
X176035735Y-58777785D01*
X176006505Y-58817197D01*
X175973553Y-58853553D01*
X175937197Y-58886505D01*
X175897785Y-58915735D01*
X175855698Y-58940961D01*
X175811342Y-58961940D01*
X175765142Y-58978470D01*
X175717545Y-58990393D01*
X175669009Y-58997592D01*
X175620000Y-59000000D01*
X174620000Y-59000000D01*
X174570991Y-58997592D01*
X174522455Y-58990393D01*
X174474858Y-58978470D01*
X174428658Y-58961940D01*
X174384302Y-58940961D01*
X174342215Y-58915735D01*
X174302803Y-58886505D01*
X174266447Y-58853553D01*
X174233495Y-58817197D01*
X174204265Y-58777785D01*
X174179039Y-58735698D01*
X174158060Y-58691342D01*
X174141530Y-58645142D01*
X174129607Y-58597545D01*
X174122408Y-58549009D01*
X174120000Y-58500000D01*
X174120000Y-57500000D01*
X174122408Y-57450991D01*
X174129607Y-57402455D01*
X174141530Y-57354858D01*
X174158060Y-57308658D01*
X174179039Y-57264302D01*
X174204265Y-57222215D01*
X174233495Y-57182803D01*
X174266447Y-57146447D01*
X174302803Y-57113495D01*
X174342215Y-57084265D01*
X174384302Y-57059039D01*
X174428658Y-57038060D01*
X174474858Y-57021530D01*
X174522455Y-57009607D01*
X174570991Y-57002408D01*
X174620000Y-57000000D01*
X175620000Y-57000000D01*
X175669009Y-57002408D01*
X175669009Y-57002408D01*
G37*
D12*
G04 #@! TO.P,D7,1*
G04 #@! TO.N,GND*
X175120000Y-58000000D03*
G04 #@! TD*
D10*
G04 #@! TO.P,D8,2*
G04 #@! TO.N,Net-(D8-Pad2)*
X188380000Y-58000000D03*
D11*
G04 #@! TD*
G04 #@! TO.N,GND*
G04 #@! TO.C,D8*
G36*
X185889009Y-57002408D02*
X185937545Y-57009607D01*
X185985142Y-57021530D01*
X186031342Y-57038060D01*
X186075698Y-57059039D01*
X186117785Y-57084265D01*
X186157197Y-57113495D01*
X186193553Y-57146447D01*
X186226505Y-57182803D01*
X186255735Y-57222215D01*
X186280961Y-57264302D01*
X186301940Y-57308658D01*
X186318470Y-57354858D01*
X186330393Y-57402455D01*
X186337592Y-57450991D01*
X186340000Y-57500000D01*
X186340000Y-58500000D01*
X186337592Y-58549009D01*
X186330393Y-58597545D01*
X186318470Y-58645142D01*
X186301940Y-58691342D01*
X186280961Y-58735698D01*
X186255735Y-58777785D01*
X186226505Y-58817197D01*
X186193553Y-58853553D01*
X186157197Y-58886505D01*
X186117785Y-58915735D01*
X186075698Y-58940961D01*
X186031342Y-58961940D01*
X185985142Y-58978470D01*
X185937545Y-58990393D01*
X185889009Y-58997592D01*
X185840000Y-59000000D01*
X184840000Y-59000000D01*
X184790991Y-58997592D01*
X184742455Y-58990393D01*
X184694858Y-58978470D01*
X184648658Y-58961940D01*
X184604302Y-58940961D01*
X184562215Y-58915735D01*
X184522803Y-58886505D01*
X184486447Y-58853553D01*
X184453495Y-58817197D01*
X184424265Y-58777785D01*
X184399039Y-58735698D01*
X184378060Y-58691342D01*
X184361530Y-58645142D01*
X184349607Y-58597545D01*
X184342408Y-58549009D01*
X184340000Y-58500000D01*
X184340000Y-57500000D01*
X184342408Y-57450991D01*
X184349607Y-57402455D01*
X184361530Y-57354858D01*
X184378060Y-57308658D01*
X184399039Y-57264302D01*
X184424265Y-57222215D01*
X184453495Y-57182803D01*
X184486447Y-57146447D01*
X184522803Y-57113495D01*
X184562215Y-57084265D01*
X184604302Y-57059039D01*
X184648658Y-57038060D01*
X184694858Y-57021530D01*
X184742455Y-57009607D01*
X184790991Y-57002408D01*
X184840000Y-57000000D01*
X185840000Y-57000000D01*
X185889009Y-57002408D01*
X185889009Y-57002408D01*
G37*
D12*
G04 #@! TO.P,D8,1*
G04 #@! TO.N,GND*
X185340000Y-58000000D03*
G04 #@! TD*
D10*
G04 #@! TO.P,D9,2*
G04 #@! TO.N,Net-(D9-Pad2)*
X200600000Y-58000000D03*
D11*
G04 #@! TD*
G04 #@! TO.N,GND*
G04 #@! TO.C,D9*
G36*
X198109009Y-57002408D02*
X198157545Y-57009607D01*
X198205142Y-57021530D01*
X198251342Y-57038060D01*
X198295698Y-57059039D01*
X198337785Y-57084265D01*
X198377197Y-57113495D01*
X198413553Y-57146447D01*
X198446505Y-57182803D01*
X198475735Y-57222215D01*
X198500961Y-57264302D01*
X198521940Y-57308658D01*
X198538470Y-57354858D01*
X198550393Y-57402455D01*
X198557592Y-57450991D01*
X198560000Y-57500000D01*
X198560000Y-58500000D01*
X198557592Y-58549009D01*
X198550393Y-58597545D01*
X198538470Y-58645142D01*
X198521940Y-58691342D01*
X198500961Y-58735698D01*
X198475735Y-58777785D01*
X198446505Y-58817197D01*
X198413553Y-58853553D01*
X198377197Y-58886505D01*
X198337785Y-58915735D01*
X198295698Y-58940961D01*
X198251342Y-58961940D01*
X198205142Y-58978470D01*
X198157545Y-58990393D01*
X198109009Y-58997592D01*
X198060000Y-59000000D01*
X197060000Y-59000000D01*
X197010991Y-58997592D01*
X196962455Y-58990393D01*
X196914858Y-58978470D01*
X196868658Y-58961940D01*
X196824302Y-58940961D01*
X196782215Y-58915735D01*
X196742803Y-58886505D01*
X196706447Y-58853553D01*
X196673495Y-58817197D01*
X196644265Y-58777785D01*
X196619039Y-58735698D01*
X196598060Y-58691342D01*
X196581530Y-58645142D01*
X196569607Y-58597545D01*
X196562408Y-58549009D01*
X196560000Y-58500000D01*
X196560000Y-57500000D01*
X196562408Y-57450991D01*
X196569607Y-57402455D01*
X196581530Y-57354858D01*
X196598060Y-57308658D01*
X196619039Y-57264302D01*
X196644265Y-57222215D01*
X196673495Y-57182803D01*
X196706447Y-57146447D01*
X196742803Y-57113495D01*
X196782215Y-57084265D01*
X196824302Y-57059039D01*
X196868658Y-57038060D01*
X196914858Y-57021530D01*
X196962455Y-57009607D01*
X197010991Y-57002408D01*
X197060000Y-57000000D01*
X198060000Y-57000000D01*
X198109009Y-57002408D01*
X198109009Y-57002408D01*
G37*
D12*
G04 #@! TO.P,D9,1*
G04 #@! TO.N,GND*
X197560000Y-58000000D03*
G04 #@! TD*
D10*
G04 #@! TO.P,D10,2*
G04 #@! TO.N,Net-(D10-Pad2)*
X211790000Y-58000000D03*
D11*
G04 #@! TD*
G04 #@! TO.N,GND*
G04 #@! TO.C,D10*
G36*
X209299009Y-57002408D02*
X209347545Y-57009607D01*
X209395142Y-57021530D01*
X209441342Y-57038060D01*
X209485698Y-57059039D01*
X209527785Y-57084265D01*
X209567197Y-57113495D01*
X209603553Y-57146447D01*
X209636505Y-57182803D01*
X209665735Y-57222215D01*
X209690961Y-57264302D01*
X209711940Y-57308658D01*
X209728470Y-57354858D01*
X209740393Y-57402455D01*
X209747592Y-57450991D01*
X209750000Y-57500000D01*
X209750000Y-58500000D01*
X209747592Y-58549009D01*
X209740393Y-58597545D01*
X209728470Y-58645142D01*
X209711940Y-58691342D01*
X209690961Y-58735698D01*
X209665735Y-58777785D01*
X209636505Y-58817197D01*
X209603553Y-58853553D01*
X209567197Y-58886505D01*
X209527785Y-58915735D01*
X209485698Y-58940961D01*
X209441342Y-58961940D01*
X209395142Y-58978470D01*
X209347545Y-58990393D01*
X209299009Y-58997592D01*
X209250000Y-59000000D01*
X208250000Y-59000000D01*
X208200991Y-58997592D01*
X208152455Y-58990393D01*
X208104858Y-58978470D01*
X208058658Y-58961940D01*
X208014302Y-58940961D01*
X207972215Y-58915735D01*
X207932803Y-58886505D01*
X207896447Y-58853553D01*
X207863495Y-58817197D01*
X207834265Y-58777785D01*
X207809039Y-58735698D01*
X207788060Y-58691342D01*
X207771530Y-58645142D01*
X207759607Y-58597545D01*
X207752408Y-58549009D01*
X207750000Y-58500000D01*
X207750000Y-57500000D01*
X207752408Y-57450991D01*
X207759607Y-57402455D01*
X207771530Y-57354858D01*
X207788060Y-57308658D01*
X207809039Y-57264302D01*
X207834265Y-57222215D01*
X207863495Y-57182803D01*
X207896447Y-57146447D01*
X207932803Y-57113495D01*
X207972215Y-57084265D01*
X208014302Y-57059039D01*
X208058658Y-57038060D01*
X208104858Y-57021530D01*
X208152455Y-57009607D01*
X208200991Y-57002408D01*
X208250000Y-57000000D01*
X209250000Y-57000000D01*
X209299009Y-57002408D01*
X209299009Y-57002408D01*
G37*
D12*
G04 #@! TO.P,D10,1*
G04 #@! TO.N,GND*
X208750000Y-58000000D03*
G04 #@! TD*
D10*
G04 #@! TO.P,D11,2*
G04 #@! TO.N,Net-(D11-Pad2)*
X211790000Y-73600000D03*
D11*
G04 #@! TD*
G04 #@! TO.N,GND*
G04 #@! TO.C,D11*
G36*
X209299009Y-72602408D02*
X209347545Y-72609607D01*
X209395142Y-72621530D01*
X209441342Y-72638060D01*
X209485698Y-72659039D01*
X209527785Y-72684265D01*
X209567197Y-72713495D01*
X209603553Y-72746447D01*
X209636505Y-72782803D01*
X209665735Y-72822215D01*
X209690961Y-72864302D01*
X209711940Y-72908658D01*
X209728470Y-72954858D01*
X209740393Y-73002455D01*
X209747592Y-73050991D01*
X209750000Y-73100000D01*
X209750000Y-74100000D01*
X209747592Y-74149009D01*
X209740393Y-74197545D01*
X209728470Y-74245142D01*
X209711940Y-74291342D01*
X209690961Y-74335698D01*
X209665735Y-74377785D01*
X209636505Y-74417197D01*
X209603553Y-74453553D01*
X209567197Y-74486505D01*
X209527785Y-74515735D01*
X209485698Y-74540961D01*
X209441342Y-74561940D01*
X209395142Y-74578470D01*
X209347545Y-74590393D01*
X209299009Y-74597592D01*
X209250000Y-74600000D01*
X208250000Y-74600000D01*
X208200991Y-74597592D01*
X208152455Y-74590393D01*
X208104858Y-74578470D01*
X208058658Y-74561940D01*
X208014302Y-74540961D01*
X207972215Y-74515735D01*
X207932803Y-74486505D01*
X207896447Y-74453553D01*
X207863495Y-74417197D01*
X207834265Y-74377785D01*
X207809039Y-74335698D01*
X207788060Y-74291342D01*
X207771530Y-74245142D01*
X207759607Y-74197545D01*
X207752408Y-74149009D01*
X207750000Y-74100000D01*
X207750000Y-73100000D01*
X207752408Y-73050991D01*
X207759607Y-73002455D01*
X207771530Y-72954858D01*
X207788060Y-72908658D01*
X207809039Y-72864302D01*
X207834265Y-72822215D01*
X207863495Y-72782803D01*
X207896447Y-72746447D01*
X207932803Y-72713495D01*
X207972215Y-72684265D01*
X208014302Y-72659039D01*
X208058658Y-72638060D01*
X208104858Y-72621530D01*
X208152455Y-72609607D01*
X208200991Y-72602408D01*
X208250000Y-72600000D01*
X209250000Y-72600000D01*
X209299009Y-72602408D01*
X209299009Y-72602408D01*
G37*
D12*
G04 #@! TO.P,D11,1*
G04 #@! TO.N,GND*
X208750000Y-73600000D03*
G04 #@! TD*
D10*
G04 #@! TO.P,D12,2*
G04 #@! TO.N,Net-(D12-Pad2)*
X211790000Y-85217000D03*
D11*
G04 #@! TD*
G04 #@! TO.N,GND*
G04 #@! TO.C,D12*
G36*
X209299009Y-84219408D02*
X209347545Y-84226607D01*
X209395142Y-84238530D01*
X209441342Y-84255060D01*
X209485698Y-84276039D01*
X209527785Y-84301265D01*
X209567197Y-84330495D01*
X209603553Y-84363447D01*
X209636505Y-84399803D01*
X209665735Y-84439215D01*
X209690961Y-84481302D01*
X209711940Y-84525658D01*
X209728470Y-84571858D01*
X209740393Y-84619455D01*
X209747592Y-84667991D01*
X209750000Y-84717000D01*
X209750000Y-85717000D01*
X209747592Y-85766009D01*
X209740393Y-85814545D01*
X209728470Y-85862142D01*
X209711940Y-85908342D01*
X209690961Y-85952698D01*
X209665735Y-85994785D01*
X209636505Y-86034197D01*
X209603553Y-86070553D01*
X209567197Y-86103505D01*
X209527785Y-86132735D01*
X209485698Y-86157961D01*
X209441342Y-86178940D01*
X209395142Y-86195470D01*
X209347545Y-86207393D01*
X209299009Y-86214592D01*
X209250000Y-86217000D01*
X208250000Y-86217000D01*
X208200991Y-86214592D01*
X208152455Y-86207393D01*
X208104858Y-86195470D01*
X208058658Y-86178940D01*
X208014302Y-86157961D01*
X207972215Y-86132735D01*
X207932803Y-86103505D01*
X207896447Y-86070553D01*
X207863495Y-86034197D01*
X207834265Y-85994785D01*
X207809039Y-85952698D01*
X207788060Y-85908342D01*
X207771530Y-85862142D01*
X207759607Y-85814545D01*
X207752408Y-85766009D01*
X207750000Y-85717000D01*
X207750000Y-84717000D01*
X207752408Y-84667991D01*
X207759607Y-84619455D01*
X207771530Y-84571858D01*
X207788060Y-84525658D01*
X207809039Y-84481302D01*
X207834265Y-84439215D01*
X207863495Y-84399803D01*
X207896447Y-84363447D01*
X207932803Y-84330495D01*
X207972215Y-84301265D01*
X208014302Y-84276039D01*
X208058658Y-84255060D01*
X208104858Y-84238530D01*
X208152455Y-84226607D01*
X208200991Y-84219408D01*
X208250000Y-84217000D01*
X209250000Y-84217000D01*
X209299009Y-84219408D01*
X209299009Y-84219408D01*
G37*
D12*
G04 #@! TO.P,D12,1*
G04 #@! TO.N,GND*
X208750000Y-85217000D03*
G04 #@! TD*
D10*
G04 #@! TO.P,D13,2*
G04 #@! TO.N,Net-(D13-Pad2)*
X194990000Y-85217000D03*
D11*
G04 #@! TD*
G04 #@! TO.N,GND*
G04 #@! TO.C,D13*
G36*
X192499009Y-84219408D02*
X192547545Y-84226607D01*
X192595142Y-84238530D01*
X192641342Y-84255060D01*
X192685698Y-84276039D01*
X192727785Y-84301265D01*
X192767197Y-84330495D01*
X192803553Y-84363447D01*
X192836505Y-84399803D01*
X192865735Y-84439215D01*
X192890961Y-84481302D01*
X192911940Y-84525658D01*
X192928470Y-84571858D01*
X192940393Y-84619455D01*
X192947592Y-84667991D01*
X192950000Y-84717000D01*
X192950000Y-85717000D01*
X192947592Y-85766009D01*
X192940393Y-85814545D01*
X192928470Y-85862142D01*
X192911940Y-85908342D01*
X192890961Y-85952698D01*
X192865735Y-85994785D01*
X192836505Y-86034197D01*
X192803553Y-86070553D01*
X192767197Y-86103505D01*
X192727785Y-86132735D01*
X192685698Y-86157961D01*
X192641342Y-86178940D01*
X192595142Y-86195470D01*
X192547545Y-86207393D01*
X192499009Y-86214592D01*
X192450000Y-86217000D01*
X191450000Y-86217000D01*
X191400991Y-86214592D01*
X191352455Y-86207393D01*
X191304858Y-86195470D01*
X191258658Y-86178940D01*
X191214302Y-86157961D01*
X191172215Y-86132735D01*
X191132803Y-86103505D01*
X191096447Y-86070553D01*
X191063495Y-86034197D01*
X191034265Y-85994785D01*
X191009039Y-85952698D01*
X190988060Y-85908342D01*
X190971530Y-85862142D01*
X190959607Y-85814545D01*
X190952408Y-85766009D01*
X190950000Y-85717000D01*
X190950000Y-84717000D01*
X190952408Y-84667991D01*
X190959607Y-84619455D01*
X190971530Y-84571858D01*
X190988060Y-84525658D01*
X191009039Y-84481302D01*
X191034265Y-84439215D01*
X191063495Y-84399803D01*
X191096447Y-84363447D01*
X191132803Y-84330495D01*
X191172215Y-84301265D01*
X191214302Y-84276039D01*
X191258658Y-84255060D01*
X191304858Y-84238530D01*
X191352455Y-84226607D01*
X191400991Y-84219408D01*
X191450000Y-84217000D01*
X192450000Y-84217000D01*
X192499009Y-84219408D01*
X192499009Y-84219408D01*
G37*
D12*
G04 #@! TO.P,D13,1*
G04 #@! TO.N,GND*
X191950000Y-85217000D03*
G04 #@! TD*
D10*
G04 #@! TO.P,D14,2*
G04 #@! TO.N,Net-(D14-Pad2)*
X194990000Y-73600000D03*
D11*
G04 #@! TD*
G04 #@! TO.N,GND*
G04 #@! TO.C,D14*
G36*
X192499009Y-72602408D02*
X192547545Y-72609607D01*
X192595142Y-72621530D01*
X192641342Y-72638060D01*
X192685698Y-72659039D01*
X192727785Y-72684265D01*
X192767197Y-72713495D01*
X192803553Y-72746447D01*
X192836505Y-72782803D01*
X192865735Y-72822215D01*
X192890961Y-72864302D01*
X192911940Y-72908658D01*
X192928470Y-72954858D01*
X192940393Y-73002455D01*
X192947592Y-73050991D01*
X192950000Y-73100000D01*
X192950000Y-74100000D01*
X192947592Y-74149009D01*
X192940393Y-74197545D01*
X192928470Y-74245142D01*
X192911940Y-74291342D01*
X192890961Y-74335698D01*
X192865735Y-74377785D01*
X192836505Y-74417197D01*
X192803553Y-74453553D01*
X192767197Y-74486505D01*
X192727785Y-74515735D01*
X192685698Y-74540961D01*
X192641342Y-74561940D01*
X192595142Y-74578470D01*
X192547545Y-74590393D01*
X192499009Y-74597592D01*
X192450000Y-74600000D01*
X191450000Y-74600000D01*
X191400991Y-74597592D01*
X191352455Y-74590393D01*
X191304858Y-74578470D01*
X191258658Y-74561940D01*
X191214302Y-74540961D01*
X191172215Y-74515735D01*
X191132803Y-74486505D01*
X191096447Y-74453553D01*
X191063495Y-74417197D01*
X191034265Y-74377785D01*
X191009039Y-74335698D01*
X190988060Y-74291342D01*
X190971530Y-74245142D01*
X190959607Y-74197545D01*
X190952408Y-74149009D01*
X190950000Y-74100000D01*
X190950000Y-73100000D01*
X190952408Y-73050991D01*
X190959607Y-73002455D01*
X190971530Y-72954858D01*
X190988060Y-72908658D01*
X191009039Y-72864302D01*
X191034265Y-72822215D01*
X191063495Y-72782803D01*
X191096447Y-72746447D01*
X191132803Y-72713495D01*
X191172215Y-72684265D01*
X191214302Y-72659039D01*
X191258658Y-72638060D01*
X191304858Y-72621530D01*
X191352455Y-72609607D01*
X191400991Y-72602408D01*
X191450000Y-72600000D01*
X192450000Y-72600000D01*
X192499009Y-72602408D01*
X192499009Y-72602408D01*
G37*
D12*
G04 #@! TO.P,D14,1*
G04 #@! TO.N,GND*
X191950000Y-73600000D03*
G04 #@! TD*
D10*
G04 #@! TO.P,D15,2*
G04 #@! TO.N,Net-(D15-Pad2)*
X188050000Y-73600000D03*
D11*
G04 #@! TD*
G04 #@! TO.N,GND*
G04 #@! TO.C,D15*
G36*
X185559009Y-72602408D02*
X185607545Y-72609607D01*
X185655142Y-72621530D01*
X185701342Y-72638060D01*
X185745698Y-72659039D01*
X185787785Y-72684265D01*
X185827197Y-72713495D01*
X185863553Y-72746447D01*
X185896505Y-72782803D01*
X185925735Y-72822215D01*
X185950961Y-72864302D01*
X185971940Y-72908658D01*
X185988470Y-72954858D01*
X186000393Y-73002455D01*
X186007592Y-73050991D01*
X186010000Y-73100000D01*
X186010000Y-74100000D01*
X186007592Y-74149009D01*
X186000393Y-74197545D01*
X185988470Y-74245142D01*
X185971940Y-74291342D01*
X185950961Y-74335698D01*
X185925735Y-74377785D01*
X185896505Y-74417197D01*
X185863553Y-74453553D01*
X185827197Y-74486505D01*
X185787785Y-74515735D01*
X185745698Y-74540961D01*
X185701342Y-74561940D01*
X185655142Y-74578470D01*
X185607545Y-74590393D01*
X185559009Y-74597592D01*
X185510000Y-74600000D01*
X184510000Y-74600000D01*
X184460991Y-74597592D01*
X184412455Y-74590393D01*
X184364858Y-74578470D01*
X184318658Y-74561940D01*
X184274302Y-74540961D01*
X184232215Y-74515735D01*
X184192803Y-74486505D01*
X184156447Y-74453553D01*
X184123495Y-74417197D01*
X184094265Y-74377785D01*
X184069039Y-74335698D01*
X184048060Y-74291342D01*
X184031530Y-74245142D01*
X184019607Y-74197545D01*
X184012408Y-74149009D01*
X184010000Y-74100000D01*
X184010000Y-73100000D01*
X184012408Y-73050991D01*
X184019607Y-73002455D01*
X184031530Y-72954858D01*
X184048060Y-72908658D01*
X184069039Y-72864302D01*
X184094265Y-72822215D01*
X184123495Y-72782803D01*
X184156447Y-72746447D01*
X184192803Y-72713495D01*
X184232215Y-72684265D01*
X184274302Y-72659039D01*
X184318658Y-72638060D01*
X184364858Y-72621530D01*
X184412455Y-72609607D01*
X184460991Y-72602408D01*
X184510000Y-72600000D01*
X185510000Y-72600000D01*
X185559009Y-72602408D01*
X185559009Y-72602408D01*
G37*
D12*
G04 #@! TO.P,D15,1*
G04 #@! TO.N,GND*
X185010000Y-73600000D03*
G04 #@! TD*
D10*
G04 #@! TO.P,D16,2*
G04 #@! TO.N,Net-(D16-Pad2)*
X181050000Y-73600000D03*
D11*
G04 #@! TD*
G04 #@! TO.N,GND*
G04 #@! TO.C,D16*
G36*
X178559009Y-72602408D02*
X178607545Y-72609607D01*
X178655142Y-72621530D01*
X178701342Y-72638060D01*
X178745698Y-72659039D01*
X178787785Y-72684265D01*
X178827197Y-72713495D01*
X178863553Y-72746447D01*
X178896505Y-72782803D01*
X178925735Y-72822215D01*
X178950961Y-72864302D01*
X178971940Y-72908658D01*
X178988470Y-72954858D01*
X179000393Y-73002455D01*
X179007592Y-73050991D01*
X179010000Y-73100000D01*
X179010000Y-74100000D01*
X179007592Y-74149009D01*
X179000393Y-74197545D01*
X178988470Y-74245142D01*
X178971940Y-74291342D01*
X178950961Y-74335698D01*
X178925735Y-74377785D01*
X178896505Y-74417197D01*
X178863553Y-74453553D01*
X178827197Y-74486505D01*
X178787785Y-74515735D01*
X178745698Y-74540961D01*
X178701342Y-74561940D01*
X178655142Y-74578470D01*
X178607545Y-74590393D01*
X178559009Y-74597592D01*
X178510000Y-74600000D01*
X177510000Y-74600000D01*
X177460991Y-74597592D01*
X177412455Y-74590393D01*
X177364858Y-74578470D01*
X177318658Y-74561940D01*
X177274302Y-74540961D01*
X177232215Y-74515735D01*
X177192803Y-74486505D01*
X177156447Y-74453553D01*
X177123495Y-74417197D01*
X177094265Y-74377785D01*
X177069039Y-74335698D01*
X177048060Y-74291342D01*
X177031530Y-74245142D01*
X177019607Y-74197545D01*
X177012408Y-74149009D01*
X177010000Y-74100000D01*
X177010000Y-73100000D01*
X177012408Y-73050991D01*
X177019607Y-73002455D01*
X177031530Y-72954858D01*
X177048060Y-72908658D01*
X177069039Y-72864302D01*
X177094265Y-72822215D01*
X177123495Y-72782803D01*
X177156447Y-72746447D01*
X177192803Y-72713495D01*
X177232215Y-72684265D01*
X177274302Y-72659039D01*
X177318658Y-72638060D01*
X177364858Y-72621530D01*
X177412455Y-72609607D01*
X177460991Y-72602408D01*
X177510000Y-72600000D01*
X178510000Y-72600000D01*
X178559009Y-72602408D01*
X178559009Y-72602408D01*
G37*
D12*
G04 #@! TO.P,D16,1*
G04 #@! TO.N,GND*
X178010000Y-73600000D03*
G04 #@! TD*
D10*
G04 #@! TO.P,D18,2*
G04 #@! TO.N,Net-(D18-Pad2)*
X181050000Y-120400000D03*
D11*
G04 #@! TD*
G04 #@! TO.N,GND*
G04 #@! TO.C,D18*
G36*
X178559009Y-119402408D02*
X178607545Y-119409607D01*
X178655142Y-119421530D01*
X178701342Y-119438060D01*
X178745698Y-119459039D01*
X178787785Y-119484265D01*
X178827197Y-119513495D01*
X178863553Y-119546447D01*
X178896505Y-119582803D01*
X178925735Y-119622215D01*
X178950961Y-119664302D01*
X178971940Y-119708658D01*
X178988470Y-119754858D01*
X179000393Y-119802455D01*
X179007592Y-119850991D01*
X179010000Y-119900000D01*
X179010000Y-120900000D01*
X179007592Y-120949009D01*
X179000393Y-120997545D01*
X178988470Y-121045142D01*
X178971940Y-121091342D01*
X178950961Y-121135698D01*
X178925735Y-121177785D01*
X178896505Y-121217197D01*
X178863553Y-121253553D01*
X178827197Y-121286505D01*
X178787785Y-121315735D01*
X178745698Y-121340961D01*
X178701342Y-121361940D01*
X178655142Y-121378470D01*
X178607545Y-121390393D01*
X178559009Y-121397592D01*
X178510000Y-121400000D01*
X177510000Y-121400000D01*
X177460991Y-121397592D01*
X177412455Y-121390393D01*
X177364858Y-121378470D01*
X177318658Y-121361940D01*
X177274302Y-121340961D01*
X177232215Y-121315735D01*
X177192803Y-121286505D01*
X177156447Y-121253553D01*
X177123495Y-121217197D01*
X177094265Y-121177785D01*
X177069039Y-121135698D01*
X177048060Y-121091342D01*
X177031530Y-121045142D01*
X177019607Y-120997545D01*
X177012408Y-120949009D01*
X177010000Y-120900000D01*
X177010000Y-119900000D01*
X177012408Y-119850991D01*
X177019607Y-119802455D01*
X177031530Y-119754858D01*
X177048060Y-119708658D01*
X177069039Y-119664302D01*
X177094265Y-119622215D01*
X177123495Y-119582803D01*
X177156447Y-119546447D01*
X177192803Y-119513495D01*
X177232215Y-119484265D01*
X177274302Y-119459039D01*
X177318658Y-119438060D01*
X177364858Y-119421530D01*
X177412455Y-119409607D01*
X177460991Y-119402408D01*
X177510000Y-119400000D01*
X178510000Y-119400000D01*
X178559009Y-119402408D01*
X178559009Y-119402408D01*
G37*
D12*
G04 #@! TO.P,D18,1*
G04 #@! TO.N,GND*
X178010000Y-120400000D03*
G04 #@! TD*
D10*
G04 #@! TO.P,D19,2*
G04 #@! TO.N,Net-(D19-Pad2)*
X181050000Y-129900000D03*
D11*
G04 #@! TD*
G04 #@! TO.N,GND*
G04 #@! TO.C,D19*
G36*
X178559009Y-128902408D02*
X178607545Y-128909607D01*
X178655142Y-128921530D01*
X178701342Y-128938060D01*
X178745698Y-128959039D01*
X178787785Y-128984265D01*
X178827197Y-129013495D01*
X178863553Y-129046447D01*
X178896505Y-129082803D01*
X178925735Y-129122215D01*
X178950961Y-129164302D01*
X178971940Y-129208658D01*
X178988470Y-129254858D01*
X179000393Y-129302455D01*
X179007592Y-129350991D01*
X179010000Y-129400000D01*
X179010000Y-130400000D01*
X179007592Y-130449009D01*
X179000393Y-130497545D01*
X178988470Y-130545142D01*
X178971940Y-130591342D01*
X178950961Y-130635698D01*
X178925735Y-130677785D01*
X178896505Y-130717197D01*
X178863553Y-130753553D01*
X178827197Y-130786505D01*
X178787785Y-130815735D01*
X178745698Y-130840961D01*
X178701342Y-130861940D01*
X178655142Y-130878470D01*
X178607545Y-130890393D01*
X178559009Y-130897592D01*
X178510000Y-130900000D01*
X177510000Y-130900000D01*
X177460991Y-130897592D01*
X177412455Y-130890393D01*
X177364858Y-130878470D01*
X177318658Y-130861940D01*
X177274302Y-130840961D01*
X177232215Y-130815735D01*
X177192803Y-130786505D01*
X177156447Y-130753553D01*
X177123495Y-130717197D01*
X177094265Y-130677785D01*
X177069039Y-130635698D01*
X177048060Y-130591342D01*
X177031530Y-130545142D01*
X177019607Y-130497545D01*
X177012408Y-130449009D01*
X177010000Y-130400000D01*
X177010000Y-129400000D01*
X177012408Y-129350991D01*
X177019607Y-129302455D01*
X177031530Y-129254858D01*
X177048060Y-129208658D01*
X177069039Y-129164302D01*
X177094265Y-129122215D01*
X177123495Y-129082803D01*
X177156447Y-129046447D01*
X177192803Y-129013495D01*
X177232215Y-128984265D01*
X177274302Y-128959039D01*
X177318658Y-128938060D01*
X177364858Y-128921530D01*
X177412455Y-128909607D01*
X177460991Y-128902408D01*
X177510000Y-128900000D01*
X178510000Y-128900000D01*
X178559009Y-128902408D01*
X178559009Y-128902408D01*
G37*
D12*
G04 #@! TO.P,D19,1*
G04 #@! TO.N,GND*
X178010000Y-129900000D03*
G04 #@! TD*
D10*
G04 #@! TO.P,D20,2*
G04 #@! TO.N,Net-(D20-Pad2)*
X190590000Y-129900000D03*
D11*
G04 #@! TD*
G04 #@! TO.N,GND*
G04 #@! TO.C,D20*
G36*
X188099009Y-128902408D02*
X188147545Y-128909607D01*
X188195142Y-128921530D01*
X188241342Y-128938060D01*
X188285698Y-128959039D01*
X188327785Y-128984265D01*
X188367197Y-129013495D01*
X188403553Y-129046447D01*
X188436505Y-129082803D01*
X188465735Y-129122215D01*
X188490961Y-129164302D01*
X188511940Y-129208658D01*
X188528470Y-129254858D01*
X188540393Y-129302455D01*
X188547592Y-129350991D01*
X188550000Y-129400000D01*
X188550000Y-130400000D01*
X188547592Y-130449009D01*
X188540393Y-130497545D01*
X188528470Y-130545142D01*
X188511940Y-130591342D01*
X188490961Y-130635698D01*
X188465735Y-130677785D01*
X188436505Y-130717197D01*
X188403553Y-130753553D01*
X188367197Y-130786505D01*
X188327785Y-130815735D01*
X188285698Y-130840961D01*
X188241342Y-130861940D01*
X188195142Y-130878470D01*
X188147545Y-130890393D01*
X188099009Y-130897592D01*
X188050000Y-130900000D01*
X187050000Y-130900000D01*
X187000991Y-130897592D01*
X186952455Y-130890393D01*
X186904858Y-130878470D01*
X186858658Y-130861940D01*
X186814302Y-130840961D01*
X186772215Y-130815735D01*
X186732803Y-130786505D01*
X186696447Y-130753553D01*
X186663495Y-130717197D01*
X186634265Y-130677785D01*
X186609039Y-130635698D01*
X186588060Y-130591342D01*
X186571530Y-130545142D01*
X186559607Y-130497545D01*
X186552408Y-130449009D01*
X186550000Y-130400000D01*
X186550000Y-129400000D01*
X186552408Y-129350991D01*
X186559607Y-129302455D01*
X186571530Y-129254858D01*
X186588060Y-129208658D01*
X186609039Y-129164302D01*
X186634265Y-129122215D01*
X186663495Y-129082803D01*
X186696447Y-129046447D01*
X186732803Y-129013495D01*
X186772215Y-128984265D01*
X186814302Y-128959039D01*
X186858658Y-128938060D01*
X186904858Y-128921530D01*
X186952455Y-128909607D01*
X187000991Y-128902408D01*
X187050000Y-128900000D01*
X188050000Y-128900000D01*
X188099009Y-128902408D01*
X188099009Y-128902408D01*
G37*
D12*
G04 #@! TO.P,D20,1*
G04 #@! TO.N,GND*
X187550000Y-129900000D03*
G04 #@! TD*
D10*
G04 #@! TO.P,D21,2*
G04 #@! TO.N,Net-(D21-Pad2)*
X190590000Y-146700000D03*
D11*
G04 #@! TD*
G04 #@! TO.N,GND*
G04 #@! TO.C,D21*
G36*
X188099009Y-145702408D02*
X188147545Y-145709607D01*
X188195142Y-145721530D01*
X188241342Y-145738060D01*
X188285698Y-145759039D01*
X188327785Y-145784265D01*
X188367197Y-145813495D01*
X188403553Y-145846447D01*
X188436505Y-145882803D01*
X188465735Y-145922215D01*
X188490961Y-145964302D01*
X188511940Y-146008658D01*
X188528470Y-146054858D01*
X188540393Y-146102455D01*
X188547592Y-146150991D01*
X188550000Y-146200000D01*
X188550000Y-147200000D01*
X188547592Y-147249009D01*
X188540393Y-147297545D01*
X188528470Y-147345142D01*
X188511940Y-147391342D01*
X188490961Y-147435698D01*
X188465735Y-147477785D01*
X188436505Y-147517197D01*
X188403553Y-147553553D01*
X188367197Y-147586505D01*
X188327785Y-147615735D01*
X188285698Y-147640961D01*
X188241342Y-147661940D01*
X188195142Y-147678470D01*
X188147545Y-147690393D01*
X188099009Y-147697592D01*
X188050000Y-147700000D01*
X187050000Y-147700000D01*
X187000991Y-147697592D01*
X186952455Y-147690393D01*
X186904858Y-147678470D01*
X186858658Y-147661940D01*
X186814302Y-147640961D01*
X186772215Y-147615735D01*
X186732803Y-147586505D01*
X186696447Y-147553553D01*
X186663495Y-147517197D01*
X186634265Y-147477785D01*
X186609039Y-147435698D01*
X186588060Y-147391342D01*
X186571530Y-147345142D01*
X186559607Y-147297545D01*
X186552408Y-147249009D01*
X186550000Y-147200000D01*
X186550000Y-146200000D01*
X186552408Y-146150991D01*
X186559607Y-146102455D01*
X186571530Y-146054858D01*
X186588060Y-146008658D01*
X186609039Y-145964302D01*
X186634265Y-145922215D01*
X186663495Y-145882803D01*
X186696447Y-145846447D01*
X186732803Y-145813495D01*
X186772215Y-145784265D01*
X186814302Y-145759039D01*
X186858658Y-145738060D01*
X186904858Y-145721530D01*
X186952455Y-145709607D01*
X187000991Y-145702408D01*
X187050000Y-145700000D01*
X188050000Y-145700000D01*
X188099009Y-145702408D01*
X188099009Y-145702408D01*
G37*
D12*
G04 #@! TO.P,D21,1*
G04 #@! TO.N,GND*
X187550000Y-146700000D03*
G04 #@! TD*
D10*
G04 #@! TO.P,D22,2*
G04 #@! TO.N,Net-(D22-Pad2)*
X178590000Y-146700000D03*
D11*
G04 #@! TD*
G04 #@! TO.N,GND*
G04 #@! TO.C,D22*
G36*
X176099009Y-145702408D02*
X176147545Y-145709607D01*
X176195142Y-145721530D01*
X176241342Y-145738060D01*
X176285698Y-145759039D01*
X176327785Y-145784265D01*
X176367197Y-145813495D01*
X176403553Y-145846447D01*
X176436505Y-145882803D01*
X176465735Y-145922215D01*
X176490961Y-145964302D01*
X176511940Y-146008658D01*
X176528470Y-146054858D01*
X176540393Y-146102455D01*
X176547592Y-146150991D01*
X176550000Y-146200000D01*
X176550000Y-147200000D01*
X176547592Y-147249009D01*
X176540393Y-147297545D01*
X176528470Y-147345142D01*
X176511940Y-147391342D01*
X176490961Y-147435698D01*
X176465735Y-147477785D01*
X176436505Y-147517197D01*
X176403553Y-147553553D01*
X176367197Y-147586505D01*
X176327785Y-147615735D01*
X176285698Y-147640961D01*
X176241342Y-147661940D01*
X176195142Y-147678470D01*
X176147545Y-147690393D01*
X176099009Y-147697592D01*
X176050000Y-147700000D01*
X175050000Y-147700000D01*
X175000991Y-147697592D01*
X174952455Y-147690393D01*
X174904858Y-147678470D01*
X174858658Y-147661940D01*
X174814302Y-147640961D01*
X174772215Y-147615735D01*
X174732803Y-147586505D01*
X174696447Y-147553553D01*
X174663495Y-147517197D01*
X174634265Y-147477785D01*
X174609039Y-147435698D01*
X174588060Y-147391342D01*
X174571530Y-147345142D01*
X174559607Y-147297545D01*
X174552408Y-147249009D01*
X174550000Y-147200000D01*
X174550000Y-146200000D01*
X174552408Y-146150991D01*
X174559607Y-146102455D01*
X174571530Y-146054858D01*
X174588060Y-146008658D01*
X174609039Y-145964302D01*
X174634265Y-145922215D01*
X174663495Y-145882803D01*
X174696447Y-145846447D01*
X174732803Y-145813495D01*
X174772215Y-145784265D01*
X174814302Y-145759039D01*
X174858658Y-145738060D01*
X174904858Y-145721530D01*
X174952455Y-145709607D01*
X175000991Y-145702408D01*
X175050000Y-145700000D01*
X176050000Y-145700000D01*
X176099009Y-145702408D01*
X176099009Y-145702408D01*
G37*
D12*
G04 #@! TO.P,D22,1*
G04 #@! TO.N,GND*
X175550000Y-146700000D03*
G04 #@! TD*
D10*
G04 #@! TO.P,D23,2*
G04 #@! TO.N,Net-(D23-Pad2)*
X166590000Y-146700000D03*
D11*
G04 #@! TD*
G04 #@! TO.N,GND*
G04 #@! TO.C,D23*
G36*
X164099009Y-145702408D02*
X164147545Y-145709607D01*
X164195142Y-145721530D01*
X164241342Y-145738060D01*
X164285698Y-145759039D01*
X164327785Y-145784265D01*
X164367197Y-145813495D01*
X164403553Y-145846447D01*
X164436505Y-145882803D01*
X164465735Y-145922215D01*
X164490961Y-145964302D01*
X164511940Y-146008658D01*
X164528470Y-146054858D01*
X164540393Y-146102455D01*
X164547592Y-146150991D01*
X164550000Y-146200000D01*
X164550000Y-147200000D01*
X164547592Y-147249009D01*
X164540393Y-147297545D01*
X164528470Y-147345142D01*
X164511940Y-147391342D01*
X164490961Y-147435698D01*
X164465735Y-147477785D01*
X164436505Y-147517197D01*
X164403553Y-147553553D01*
X164367197Y-147586505D01*
X164327785Y-147615735D01*
X164285698Y-147640961D01*
X164241342Y-147661940D01*
X164195142Y-147678470D01*
X164147545Y-147690393D01*
X164099009Y-147697592D01*
X164050000Y-147700000D01*
X163050000Y-147700000D01*
X163000991Y-147697592D01*
X162952455Y-147690393D01*
X162904858Y-147678470D01*
X162858658Y-147661940D01*
X162814302Y-147640961D01*
X162772215Y-147615735D01*
X162732803Y-147586505D01*
X162696447Y-147553553D01*
X162663495Y-147517197D01*
X162634265Y-147477785D01*
X162609039Y-147435698D01*
X162588060Y-147391342D01*
X162571530Y-147345142D01*
X162559607Y-147297545D01*
X162552408Y-147249009D01*
X162550000Y-147200000D01*
X162550000Y-146200000D01*
X162552408Y-146150991D01*
X162559607Y-146102455D01*
X162571530Y-146054858D01*
X162588060Y-146008658D01*
X162609039Y-145964302D01*
X162634265Y-145922215D01*
X162663495Y-145882803D01*
X162696447Y-145846447D01*
X162732803Y-145813495D01*
X162772215Y-145784265D01*
X162814302Y-145759039D01*
X162858658Y-145738060D01*
X162904858Y-145721530D01*
X162952455Y-145709607D01*
X163000991Y-145702408D01*
X163050000Y-145700000D01*
X164050000Y-145700000D01*
X164099009Y-145702408D01*
X164099009Y-145702408D01*
G37*
D12*
G04 #@! TO.P,D23,1*
G04 #@! TO.N,GND*
X163550000Y-146700000D03*
G04 #@! TD*
D10*
G04 #@! TO.P,D24,2*
G04 #@! TO.N,Net-(D24-Pad2)*
X154590000Y-146700000D03*
D11*
G04 #@! TD*
G04 #@! TO.N,GND*
G04 #@! TO.C,D24*
G36*
X152099009Y-145702408D02*
X152147545Y-145709607D01*
X152195142Y-145721530D01*
X152241342Y-145738060D01*
X152285698Y-145759039D01*
X152327785Y-145784265D01*
X152367197Y-145813495D01*
X152403553Y-145846447D01*
X152436505Y-145882803D01*
X152465735Y-145922215D01*
X152490961Y-145964302D01*
X152511940Y-146008658D01*
X152528470Y-146054858D01*
X152540393Y-146102455D01*
X152547592Y-146150991D01*
X152550000Y-146200000D01*
X152550000Y-147200000D01*
X152547592Y-147249009D01*
X152540393Y-147297545D01*
X152528470Y-147345142D01*
X152511940Y-147391342D01*
X152490961Y-147435698D01*
X152465735Y-147477785D01*
X152436505Y-147517197D01*
X152403553Y-147553553D01*
X152367197Y-147586505D01*
X152327785Y-147615735D01*
X152285698Y-147640961D01*
X152241342Y-147661940D01*
X152195142Y-147678470D01*
X152147545Y-147690393D01*
X152099009Y-147697592D01*
X152050000Y-147700000D01*
X151050000Y-147700000D01*
X151000991Y-147697592D01*
X150952455Y-147690393D01*
X150904858Y-147678470D01*
X150858658Y-147661940D01*
X150814302Y-147640961D01*
X150772215Y-147615735D01*
X150732803Y-147586505D01*
X150696447Y-147553553D01*
X150663495Y-147517197D01*
X150634265Y-147477785D01*
X150609039Y-147435698D01*
X150588060Y-147391342D01*
X150571530Y-147345142D01*
X150559607Y-147297545D01*
X150552408Y-147249009D01*
X150550000Y-147200000D01*
X150550000Y-146200000D01*
X150552408Y-146150991D01*
X150559607Y-146102455D01*
X150571530Y-146054858D01*
X150588060Y-146008658D01*
X150609039Y-145964302D01*
X150634265Y-145922215D01*
X150663495Y-145882803D01*
X150696447Y-145846447D01*
X150732803Y-145813495D01*
X150772215Y-145784265D01*
X150814302Y-145759039D01*
X150858658Y-145738060D01*
X150904858Y-145721530D01*
X150952455Y-145709607D01*
X151000991Y-145702408D01*
X151050000Y-145700000D01*
X152050000Y-145700000D01*
X152099009Y-145702408D01*
X152099009Y-145702408D01*
G37*
D12*
G04 #@! TO.P,D24,1*
G04 #@! TO.N,GND*
X151550000Y-146700000D03*
G04 #@! TD*
D10*
G04 #@! TO.P,D25,2*
G04 #@! TO.N,Net-(D25-Pad2)*
X154590000Y-129900000D03*
D11*
G04 #@! TD*
G04 #@! TO.N,GND*
G04 #@! TO.C,D25*
G36*
X152099009Y-128902408D02*
X152147545Y-128909607D01*
X152195142Y-128921530D01*
X152241342Y-128938060D01*
X152285698Y-128959039D01*
X152327785Y-128984265D01*
X152367197Y-129013495D01*
X152403553Y-129046447D01*
X152436505Y-129082803D01*
X152465735Y-129122215D01*
X152490961Y-129164302D01*
X152511940Y-129208658D01*
X152528470Y-129254858D01*
X152540393Y-129302455D01*
X152547592Y-129350991D01*
X152550000Y-129400000D01*
X152550000Y-130400000D01*
X152547592Y-130449009D01*
X152540393Y-130497545D01*
X152528470Y-130545142D01*
X152511940Y-130591342D01*
X152490961Y-130635698D01*
X152465735Y-130677785D01*
X152436505Y-130717197D01*
X152403553Y-130753553D01*
X152367197Y-130786505D01*
X152327785Y-130815735D01*
X152285698Y-130840961D01*
X152241342Y-130861940D01*
X152195142Y-130878470D01*
X152147545Y-130890393D01*
X152099009Y-130897592D01*
X152050000Y-130900000D01*
X151050000Y-130900000D01*
X151000991Y-130897592D01*
X150952455Y-130890393D01*
X150904858Y-130878470D01*
X150858658Y-130861940D01*
X150814302Y-130840961D01*
X150772215Y-130815735D01*
X150732803Y-130786505D01*
X150696447Y-130753553D01*
X150663495Y-130717197D01*
X150634265Y-130677785D01*
X150609039Y-130635698D01*
X150588060Y-130591342D01*
X150571530Y-130545142D01*
X150559607Y-130497545D01*
X150552408Y-130449009D01*
X150550000Y-130400000D01*
X150550000Y-129400000D01*
X150552408Y-129350991D01*
X150559607Y-129302455D01*
X150571530Y-129254858D01*
X150588060Y-129208658D01*
X150609039Y-129164302D01*
X150634265Y-129122215D01*
X150663495Y-129082803D01*
X150696447Y-129046447D01*
X150732803Y-129013495D01*
X150772215Y-128984265D01*
X150814302Y-128959039D01*
X150858658Y-128938060D01*
X150904858Y-128921530D01*
X150952455Y-128909607D01*
X151000991Y-128902408D01*
X151050000Y-128900000D01*
X152050000Y-128900000D01*
X152099009Y-128902408D01*
X152099009Y-128902408D01*
G37*
D12*
G04 #@! TO.P,D25,1*
G04 #@! TO.N,GND*
X151550000Y-129900000D03*
G04 #@! TD*
D10*
G04 #@! TO.P,D26,2*
G04 #@! TO.N,Net-(D26-Pad2)*
X163990000Y-129900000D03*
D11*
G04 #@! TD*
G04 #@! TO.N,GND*
G04 #@! TO.C,D26*
G36*
X161499009Y-128902408D02*
X161547545Y-128909607D01*
X161595142Y-128921530D01*
X161641342Y-128938060D01*
X161685698Y-128959039D01*
X161727785Y-128984265D01*
X161767197Y-129013495D01*
X161803553Y-129046447D01*
X161836505Y-129082803D01*
X161865735Y-129122215D01*
X161890961Y-129164302D01*
X161911940Y-129208658D01*
X161928470Y-129254858D01*
X161940393Y-129302455D01*
X161947592Y-129350991D01*
X161950000Y-129400000D01*
X161950000Y-130400000D01*
X161947592Y-130449009D01*
X161940393Y-130497545D01*
X161928470Y-130545142D01*
X161911940Y-130591342D01*
X161890961Y-130635698D01*
X161865735Y-130677785D01*
X161836505Y-130717197D01*
X161803553Y-130753553D01*
X161767197Y-130786505D01*
X161727785Y-130815735D01*
X161685698Y-130840961D01*
X161641342Y-130861940D01*
X161595142Y-130878470D01*
X161547545Y-130890393D01*
X161499009Y-130897592D01*
X161450000Y-130900000D01*
X160450000Y-130900000D01*
X160400991Y-130897592D01*
X160352455Y-130890393D01*
X160304858Y-130878470D01*
X160258658Y-130861940D01*
X160214302Y-130840961D01*
X160172215Y-130815735D01*
X160132803Y-130786505D01*
X160096447Y-130753553D01*
X160063495Y-130717197D01*
X160034265Y-130677785D01*
X160009039Y-130635698D01*
X159988060Y-130591342D01*
X159971530Y-130545142D01*
X159959607Y-130497545D01*
X159952408Y-130449009D01*
X159950000Y-130400000D01*
X159950000Y-129400000D01*
X159952408Y-129350991D01*
X159959607Y-129302455D01*
X159971530Y-129254858D01*
X159988060Y-129208658D01*
X160009039Y-129164302D01*
X160034265Y-129122215D01*
X160063495Y-129082803D01*
X160096447Y-129046447D01*
X160132803Y-129013495D01*
X160172215Y-128984265D01*
X160214302Y-128959039D01*
X160258658Y-128938060D01*
X160304858Y-128921530D01*
X160352455Y-128909607D01*
X160400991Y-128902408D01*
X160450000Y-128900000D01*
X161450000Y-128900000D01*
X161499009Y-128902408D01*
X161499009Y-128902408D01*
G37*
D12*
G04 #@! TO.P,D26,1*
G04 #@! TO.N,GND*
X160950000Y-129900000D03*
G04 #@! TD*
D10*
G04 #@! TO.P,D27,2*
G04 #@! TO.N,Net-(D27-Pad2)*
X163990000Y-120400000D03*
D11*
G04 #@! TD*
G04 #@! TO.N,GND*
G04 #@! TO.C,D27*
G36*
X161499009Y-119402408D02*
X161547545Y-119409607D01*
X161595142Y-119421530D01*
X161641342Y-119438060D01*
X161685698Y-119459039D01*
X161727785Y-119484265D01*
X161767197Y-119513495D01*
X161803553Y-119546447D01*
X161836505Y-119582803D01*
X161865735Y-119622215D01*
X161890961Y-119664302D01*
X161911940Y-119708658D01*
X161928470Y-119754858D01*
X161940393Y-119802455D01*
X161947592Y-119850991D01*
X161950000Y-119900000D01*
X161950000Y-120900000D01*
X161947592Y-120949009D01*
X161940393Y-120997545D01*
X161928470Y-121045142D01*
X161911940Y-121091342D01*
X161890961Y-121135698D01*
X161865735Y-121177785D01*
X161836505Y-121217197D01*
X161803553Y-121253553D01*
X161767197Y-121286505D01*
X161727785Y-121315735D01*
X161685698Y-121340961D01*
X161641342Y-121361940D01*
X161595142Y-121378470D01*
X161547545Y-121390393D01*
X161499009Y-121397592D01*
X161450000Y-121400000D01*
X160450000Y-121400000D01*
X160400991Y-121397592D01*
X160352455Y-121390393D01*
X160304858Y-121378470D01*
X160258658Y-121361940D01*
X160214302Y-121340961D01*
X160172215Y-121315735D01*
X160132803Y-121286505D01*
X160096447Y-121253553D01*
X160063495Y-121217197D01*
X160034265Y-121177785D01*
X160009039Y-121135698D01*
X159988060Y-121091342D01*
X159971530Y-121045142D01*
X159959607Y-120997545D01*
X159952408Y-120949009D01*
X159950000Y-120900000D01*
X159950000Y-119900000D01*
X159952408Y-119850991D01*
X159959607Y-119802455D01*
X159971530Y-119754858D01*
X159988060Y-119708658D01*
X160009039Y-119664302D01*
X160034265Y-119622215D01*
X160063495Y-119582803D01*
X160096447Y-119546447D01*
X160132803Y-119513495D01*
X160172215Y-119484265D01*
X160214302Y-119459039D01*
X160258658Y-119438060D01*
X160304858Y-119421530D01*
X160352455Y-119409607D01*
X160400991Y-119402408D01*
X160450000Y-119400000D01*
X161450000Y-119400000D01*
X161499009Y-119402408D01*
X161499009Y-119402408D01*
G37*
D12*
G04 #@! TO.P,D27,1*
G04 #@! TO.N,GND*
X160950000Y-120400000D03*
G04 #@! TD*
D10*
G04 #@! TO.P,D28,2*
G04 #@! TO.N,Net-(D28-Pad2)*
X163990000Y-85217000D03*
D11*
G04 #@! TD*
G04 #@! TO.N,GND*
G04 #@! TO.C,D28*
G36*
X161499009Y-84219408D02*
X161547545Y-84226607D01*
X161595142Y-84238530D01*
X161641342Y-84255060D01*
X161685698Y-84276039D01*
X161727785Y-84301265D01*
X161767197Y-84330495D01*
X161803553Y-84363447D01*
X161836505Y-84399803D01*
X161865735Y-84439215D01*
X161890961Y-84481302D01*
X161911940Y-84525658D01*
X161928470Y-84571858D01*
X161940393Y-84619455D01*
X161947592Y-84667991D01*
X161950000Y-84717000D01*
X161950000Y-85717000D01*
X161947592Y-85766009D01*
X161940393Y-85814545D01*
X161928470Y-85862142D01*
X161911940Y-85908342D01*
X161890961Y-85952698D01*
X161865735Y-85994785D01*
X161836505Y-86034197D01*
X161803553Y-86070553D01*
X161767197Y-86103505D01*
X161727785Y-86132735D01*
X161685698Y-86157961D01*
X161641342Y-86178940D01*
X161595142Y-86195470D01*
X161547545Y-86207393D01*
X161499009Y-86214592D01*
X161450000Y-86217000D01*
X160450000Y-86217000D01*
X160400991Y-86214592D01*
X160352455Y-86207393D01*
X160304858Y-86195470D01*
X160258658Y-86178940D01*
X160214302Y-86157961D01*
X160172215Y-86132735D01*
X160132803Y-86103505D01*
X160096447Y-86070553D01*
X160063495Y-86034197D01*
X160034265Y-85994785D01*
X160009039Y-85952698D01*
X159988060Y-85908342D01*
X159971530Y-85862142D01*
X159959607Y-85814545D01*
X159952408Y-85766009D01*
X159950000Y-85717000D01*
X159950000Y-84717000D01*
X159952408Y-84667991D01*
X159959607Y-84619455D01*
X159971530Y-84571858D01*
X159988060Y-84525658D01*
X160009039Y-84481302D01*
X160034265Y-84439215D01*
X160063495Y-84399803D01*
X160096447Y-84363447D01*
X160132803Y-84330495D01*
X160172215Y-84301265D01*
X160214302Y-84276039D01*
X160258658Y-84255060D01*
X160304858Y-84238530D01*
X160352455Y-84226607D01*
X160400991Y-84219408D01*
X160450000Y-84217000D01*
X161450000Y-84217000D01*
X161499009Y-84219408D01*
X161499009Y-84219408D01*
G37*
D12*
G04 #@! TO.P,D28,1*
G04 #@! TO.N,GND*
X160950000Y-85217000D03*
G04 #@! TD*
D10*
G04 #@! TO.P,D29,2*
G04 #@! TO.N,Net-(D29-Pad2)*
X163990000Y-73600000D03*
D11*
G04 #@! TD*
G04 #@! TO.N,GND*
G04 #@! TO.C,D29*
G36*
X161499009Y-72602408D02*
X161547545Y-72609607D01*
X161595142Y-72621530D01*
X161641342Y-72638060D01*
X161685698Y-72659039D01*
X161727785Y-72684265D01*
X161767197Y-72713495D01*
X161803553Y-72746447D01*
X161836505Y-72782803D01*
X161865735Y-72822215D01*
X161890961Y-72864302D01*
X161911940Y-72908658D01*
X161928470Y-72954858D01*
X161940393Y-73002455D01*
X161947592Y-73050991D01*
X161950000Y-73100000D01*
X161950000Y-74100000D01*
X161947592Y-74149009D01*
X161940393Y-74197545D01*
X161928470Y-74245142D01*
X161911940Y-74291342D01*
X161890961Y-74335698D01*
X161865735Y-74377785D01*
X161836505Y-74417197D01*
X161803553Y-74453553D01*
X161767197Y-74486505D01*
X161727785Y-74515735D01*
X161685698Y-74540961D01*
X161641342Y-74561940D01*
X161595142Y-74578470D01*
X161547545Y-74590393D01*
X161499009Y-74597592D01*
X161450000Y-74600000D01*
X160450000Y-74600000D01*
X160400991Y-74597592D01*
X160352455Y-74590393D01*
X160304858Y-74578470D01*
X160258658Y-74561940D01*
X160214302Y-74540961D01*
X160172215Y-74515735D01*
X160132803Y-74486505D01*
X160096447Y-74453553D01*
X160063495Y-74417197D01*
X160034265Y-74377785D01*
X160009039Y-74335698D01*
X159988060Y-74291342D01*
X159971530Y-74245142D01*
X159959607Y-74197545D01*
X159952408Y-74149009D01*
X159950000Y-74100000D01*
X159950000Y-73100000D01*
X159952408Y-73050991D01*
X159959607Y-73002455D01*
X159971530Y-72954858D01*
X159988060Y-72908658D01*
X160009039Y-72864302D01*
X160034265Y-72822215D01*
X160063495Y-72782803D01*
X160096447Y-72746447D01*
X160132803Y-72713495D01*
X160172215Y-72684265D01*
X160214302Y-72659039D01*
X160258658Y-72638060D01*
X160304858Y-72621530D01*
X160352455Y-72609607D01*
X160400991Y-72602408D01*
X160450000Y-72600000D01*
X161450000Y-72600000D01*
X161499009Y-72602408D01*
X161499009Y-72602408D01*
G37*
D12*
G04 #@! TO.P,D29,1*
G04 #@! TO.N,GND*
X160950000Y-73600000D03*
G04 #@! TD*
D10*
G04 #@! TO.P,D30,2*
G04 #@! TO.N,Net-(D30-Pad2)*
X157050000Y-73600000D03*
D11*
G04 #@! TD*
G04 #@! TO.N,GND*
G04 #@! TO.C,D30*
G36*
X154559009Y-72602408D02*
X154607545Y-72609607D01*
X154655142Y-72621530D01*
X154701342Y-72638060D01*
X154745698Y-72659039D01*
X154787785Y-72684265D01*
X154827197Y-72713495D01*
X154863553Y-72746447D01*
X154896505Y-72782803D01*
X154925735Y-72822215D01*
X154950961Y-72864302D01*
X154971940Y-72908658D01*
X154988470Y-72954858D01*
X155000393Y-73002455D01*
X155007592Y-73050991D01*
X155010000Y-73100000D01*
X155010000Y-74100000D01*
X155007592Y-74149009D01*
X155000393Y-74197545D01*
X154988470Y-74245142D01*
X154971940Y-74291342D01*
X154950961Y-74335698D01*
X154925735Y-74377785D01*
X154896505Y-74417197D01*
X154863553Y-74453553D01*
X154827197Y-74486505D01*
X154787785Y-74515735D01*
X154745698Y-74540961D01*
X154701342Y-74561940D01*
X154655142Y-74578470D01*
X154607545Y-74590393D01*
X154559009Y-74597592D01*
X154510000Y-74600000D01*
X153510000Y-74600000D01*
X153460991Y-74597592D01*
X153412455Y-74590393D01*
X153364858Y-74578470D01*
X153318658Y-74561940D01*
X153274302Y-74540961D01*
X153232215Y-74515735D01*
X153192803Y-74486505D01*
X153156447Y-74453553D01*
X153123495Y-74417197D01*
X153094265Y-74377785D01*
X153069039Y-74335698D01*
X153048060Y-74291342D01*
X153031530Y-74245142D01*
X153019607Y-74197545D01*
X153012408Y-74149009D01*
X153010000Y-74100000D01*
X153010000Y-73100000D01*
X153012408Y-73050991D01*
X153019607Y-73002455D01*
X153031530Y-72954858D01*
X153048060Y-72908658D01*
X153069039Y-72864302D01*
X153094265Y-72822215D01*
X153123495Y-72782803D01*
X153156447Y-72746447D01*
X153192803Y-72713495D01*
X153232215Y-72684265D01*
X153274302Y-72659039D01*
X153318658Y-72638060D01*
X153364858Y-72621530D01*
X153412455Y-72609607D01*
X153460991Y-72602408D01*
X153510000Y-72600000D01*
X154510000Y-72600000D01*
X154559009Y-72602408D01*
X154559009Y-72602408D01*
G37*
D12*
G04 #@! TO.P,D30,1*
G04 #@! TO.N,GND*
X154010000Y-73600000D03*
G04 #@! TD*
D10*
G04 #@! TO.P,D31,2*
G04 #@! TO.N,Net-(D31-Pad2)*
X149990000Y-73600000D03*
D11*
G04 #@! TD*
G04 #@! TO.N,GND*
G04 #@! TO.C,D31*
G36*
X147499009Y-72602408D02*
X147547545Y-72609607D01*
X147595142Y-72621530D01*
X147641342Y-72638060D01*
X147685698Y-72659039D01*
X147727785Y-72684265D01*
X147767197Y-72713495D01*
X147803553Y-72746447D01*
X147836505Y-72782803D01*
X147865735Y-72822215D01*
X147890961Y-72864302D01*
X147911940Y-72908658D01*
X147928470Y-72954858D01*
X147940393Y-73002455D01*
X147947592Y-73050991D01*
X147950000Y-73100000D01*
X147950000Y-74100000D01*
X147947592Y-74149009D01*
X147940393Y-74197545D01*
X147928470Y-74245142D01*
X147911940Y-74291342D01*
X147890961Y-74335698D01*
X147865735Y-74377785D01*
X147836505Y-74417197D01*
X147803553Y-74453553D01*
X147767197Y-74486505D01*
X147727785Y-74515735D01*
X147685698Y-74540961D01*
X147641342Y-74561940D01*
X147595142Y-74578470D01*
X147547545Y-74590393D01*
X147499009Y-74597592D01*
X147450000Y-74600000D01*
X146450000Y-74600000D01*
X146400991Y-74597592D01*
X146352455Y-74590393D01*
X146304858Y-74578470D01*
X146258658Y-74561940D01*
X146214302Y-74540961D01*
X146172215Y-74515735D01*
X146132803Y-74486505D01*
X146096447Y-74453553D01*
X146063495Y-74417197D01*
X146034265Y-74377785D01*
X146009039Y-74335698D01*
X145988060Y-74291342D01*
X145971530Y-74245142D01*
X145959607Y-74197545D01*
X145952408Y-74149009D01*
X145950000Y-74100000D01*
X145950000Y-73100000D01*
X145952408Y-73050991D01*
X145959607Y-73002455D01*
X145971530Y-72954858D01*
X145988060Y-72908658D01*
X146009039Y-72864302D01*
X146034265Y-72822215D01*
X146063495Y-72782803D01*
X146096447Y-72746447D01*
X146132803Y-72713495D01*
X146172215Y-72684265D01*
X146214302Y-72659039D01*
X146258658Y-72638060D01*
X146304858Y-72621530D01*
X146352455Y-72609607D01*
X146400991Y-72602408D01*
X146450000Y-72600000D01*
X147450000Y-72600000D01*
X147499009Y-72602408D01*
X147499009Y-72602408D01*
G37*
D12*
G04 #@! TO.P,D31,1*
G04 #@! TO.N,GND*
X146950000Y-73600000D03*
G04 #@! TD*
D10*
G04 #@! TO.P,D32,2*
G04 #@! TO.N,Net-(D32-Pad2)*
X150050000Y-85217000D03*
D11*
G04 #@! TD*
G04 #@! TO.N,GND*
G04 #@! TO.C,D32*
G36*
X147559009Y-84219408D02*
X147607545Y-84226607D01*
X147655142Y-84238530D01*
X147701342Y-84255060D01*
X147745698Y-84276039D01*
X147787785Y-84301265D01*
X147827197Y-84330495D01*
X147863553Y-84363447D01*
X147896505Y-84399803D01*
X147925735Y-84439215D01*
X147950961Y-84481302D01*
X147971940Y-84525658D01*
X147988470Y-84571858D01*
X148000393Y-84619455D01*
X148007592Y-84667991D01*
X148010000Y-84717000D01*
X148010000Y-85717000D01*
X148007592Y-85766009D01*
X148000393Y-85814545D01*
X147988470Y-85862142D01*
X147971940Y-85908342D01*
X147950961Y-85952698D01*
X147925735Y-85994785D01*
X147896505Y-86034197D01*
X147863553Y-86070553D01*
X147827197Y-86103505D01*
X147787785Y-86132735D01*
X147745698Y-86157961D01*
X147701342Y-86178940D01*
X147655142Y-86195470D01*
X147607545Y-86207393D01*
X147559009Y-86214592D01*
X147510000Y-86217000D01*
X146510000Y-86217000D01*
X146460991Y-86214592D01*
X146412455Y-86207393D01*
X146364858Y-86195470D01*
X146318658Y-86178940D01*
X146274302Y-86157961D01*
X146232215Y-86132735D01*
X146192803Y-86103505D01*
X146156447Y-86070553D01*
X146123495Y-86034197D01*
X146094265Y-85994785D01*
X146069039Y-85952698D01*
X146048060Y-85908342D01*
X146031530Y-85862142D01*
X146019607Y-85814545D01*
X146012408Y-85766009D01*
X146010000Y-85717000D01*
X146010000Y-84717000D01*
X146012408Y-84667991D01*
X146019607Y-84619455D01*
X146031530Y-84571858D01*
X146048060Y-84525658D01*
X146069039Y-84481302D01*
X146094265Y-84439215D01*
X146123495Y-84399803D01*
X146156447Y-84363447D01*
X146192803Y-84330495D01*
X146232215Y-84301265D01*
X146274302Y-84276039D01*
X146318658Y-84255060D01*
X146364858Y-84238530D01*
X146412455Y-84226607D01*
X146460991Y-84219408D01*
X146510000Y-84217000D01*
X147510000Y-84217000D01*
X147559009Y-84219408D01*
X147559009Y-84219408D01*
G37*
D12*
G04 #@! TO.P,D32,1*
G04 #@! TO.N,GND*
X147010000Y-85217000D03*
G04 #@! TD*
D14*
G04 #@! TO.P,POWER1,1*
G04 #@! TO.N,Master_Reset*
X167430000Y-92040000D03*
D15*
G04 #@! TO.P,POWER1,2*
G04 #@! TO.N,Net-(Battery1-Pad2)*
X169970000Y-92040000D03*
G04 #@! TO.P,POWER1,3*
X172510000Y-92040000D03*
G04 #@! TO.P,POWER1,4*
X175050000Y-92040000D03*
G04 #@! TD*
D16*
G04 #@! TO.P,Shift1,16*
G04 #@! TO.N,Master_Reset*
X143870000Y-68620000D03*
G04 #@! TO.P,Shift1,8*
G04 #@! TO.N,GND*
X136750000Y-86400000D03*
G04 #@! TO.P,Shift1,15*
G04 #@! TO.N,Net-(D1-Pad2)*
X143870000Y-71160000D03*
G04 #@! TO.P,Shift1,7*
G04 #@! TO.N,Net-(D8-Pad2)*
X136750000Y-83860000D03*
G04 #@! TO.P,Shift1,14*
G04 #@! TO.N,Serial_Data*
X143870000Y-73700000D03*
G04 #@! TO.P,Shift1,6*
G04 #@! TO.N,Net-(D7-Pad2)*
X136750000Y-81320000D03*
G04 #@! TO.P,Shift1,13*
G04 #@! TO.N,Output_Enable*
X143870000Y-76240000D03*
G04 #@! TO.P,Shift1,5*
G04 #@! TO.N,Net-(D6-Pad2)*
X136750000Y-78780000D03*
G04 #@! TO.P,Shift1,12*
G04 #@! TO.N,Reg_Clock*
X143870000Y-78780000D03*
G04 #@! TO.P,Shift1,4*
G04 #@! TO.N,Net-(D5-Pad2)*
X136750000Y-76240000D03*
G04 #@! TO.P,Shift1,11*
G04 #@! TO.N,Serial_Clock*
X143870000Y-81320000D03*
G04 #@! TO.P,Shift1,3*
G04 #@! TO.N,Net-(D4-Pad2)*
X136750000Y-73700000D03*
G04 #@! TO.P,Shift1,10*
G04 #@! TO.N,Master_Reset*
X143870000Y-83860000D03*
G04 #@! TO.P,Shift1,2*
G04 #@! TO.N,Net-(D3-Pad2)*
X136750000Y-71160000D03*
G04 #@! TO.P,Shift1,9*
G04 #@! TO.N,Out1*
X143870000Y-86400000D03*
D17*
G04 #@! TO.P,Shift1,1*
G04 #@! TO.N,Net-(D2-Pad2)*
X136750000Y-68620000D03*
G04 #@! TD*
D16*
G04 #@! TO.P,Shift2,16*
G04 #@! TO.N,Master_Reset*
X205670000Y-68620000D03*
G04 #@! TO.P,Shift2,8*
G04 #@! TO.N,GND*
X198550000Y-86400000D03*
G04 #@! TO.P,Shift2,15*
G04 #@! TO.N,Net-(D9-Pad2)*
X205670000Y-71160000D03*
G04 #@! TO.P,Shift2,7*
G04 #@! TO.N,Net-(D16-Pad2)*
X198550000Y-83860000D03*
G04 #@! TO.P,Shift2,14*
G04 #@! TO.N,Out1*
X205670000Y-73700000D03*
G04 #@! TO.P,Shift2,6*
G04 #@! TO.N,Net-(D15-Pad2)*
X198550000Y-81320000D03*
G04 #@! TO.P,Shift2,13*
G04 #@! TO.N,Output_Enable*
X205670000Y-76240000D03*
G04 #@! TO.P,Shift2,5*
G04 #@! TO.N,Net-(D14-Pad2)*
X198550000Y-78780000D03*
G04 #@! TO.P,Shift2,12*
G04 #@! TO.N,Reg_Clock*
X205670000Y-78780000D03*
G04 #@! TO.P,Shift2,4*
G04 #@! TO.N,Net-(D13-Pad2)*
X198550000Y-76240000D03*
G04 #@! TO.P,Shift2,11*
G04 #@! TO.N,Serial_Clock*
X205670000Y-81320000D03*
G04 #@! TO.P,Shift2,3*
G04 #@! TO.N,Net-(D12-Pad2)*
X198550000Y-73700000D03*
G04 #@! TO.P,Shift2,10*
G04 #@! TO.N,Master_Reset*
X205670000Y-83860000D03*
G04 #@! TO.P,Shift2,2*
G04 #@! TO.N,Net-(D11-Pad2)*
X198550000Y-71160000D03*
G04 #@! TO.P,Shift2,9*
G04 #@! TO.N,Net-(Shift2-Pad9)*
X205670000Y-86400000D03*
D17*
G04 #@! TO.P,Shift2,1*
G04 #@! TO.N,Net-(D10-Pad2)*
X198550000Y-68620000D03*
G04 #@! TD*
D16*
G04 #@! TO.P,Shift4,16*
G04 #@! TO.N,Master_Reset*
X174770000Y-68620000D03*
G04 #@! TO.P,Shift4,8*
G04 #@! TO.N,GND*
X167650000Y-86400000D03*
G04 #@! TO.P,Shift4,15*
G04 #@! TO.N,Net-(D25-Pad2)*
X174770000Y-71160000D03*
G04 #@! TO.P,Shift4,7*
G04 #@! TO.N,Net-(D32-Pad2)*
X167650000Y-83860000D03*
G04 #@! TO.P,Shift4,14*
G04 #@! TO.N,Net-(Shift3-Pad9)*
X174770000Y-73700000D03*
G04 #@! TO.P,Shift4,6*
G04 #@! TO.N,Net-(D31-Pad2)*
X167650000Y-81320000D03*
G04 #@! TO.P,Shift4,13*
G04 #@! TO.N,Output_Enable*
X174770000Y-76240000D03*
G04 #@! TO.P,Shift4,5*
G04 #@! TO.N,Net-(D30-Pad2)*
X167650000Y-78780000D03*
G04 #@! TO.P,Shift4,12*
G04 #@! TO.N,Reg_Clock*
X174770000Y-78780000D03*
G04 #@! TO.P,Shift4,4*
G04 #@! TO.N,Net-(D29-Pad2)*
X167650000Y-76240000D03*
G04 #@! TO.P,Shift4,11*
G04 #@! TO.N,Serial_Clock*
X174770000Y-81320000D03*
G04 #@! TO.P,Shift4,3*
G04 #@! TO.N,Net-(D28-Pad2)*
X167650000Y-73700000D03*
G04 #@! TO.P,Shift4,10*
G04 #@! TO.N,Master_Reset*
X174770000Y-83860000D03*
G04 #@! TO.P,Shift4,2*
G04 #@! TO.N,Net-(D27-Pad2)*
X167650000Y-71160000D03*
G04 #@! TO.P,Shift4,9*
G04 #@! TO.N,N/C*
X174770000Y-86400000D03*
D17*
G04 #@! TO.P,Shift4,1*
G04 #@! TO.N,Net-(D26-Pad2)*
X167650000Y-68620000D03*
G04 #@! TD*
G04 #@! TO.P,Tiny1,1*
G04 #@! TO.N,Master_Reset*
X167400000Y-122300000D03*
D16*
G04 #@! TO.P,Tiny1,5*
G04 #@! TO.N,Serial_Data*
X175020000Y-129920000D03*
G04 #@! TO.P,Tiny1,2*
G04 #@! TO.N,Output_Enable*
X167400000Y-124840000D03*
G04 #@! TO.P,Tiny1,6*
G04 #@! TO.N,Serial_Clock*
X175020000Y-127380000D03*
G04 #@! TO.P,Tiny1,3*
G04 #@! TO.N,Net-(BTN1-Pad2)*
X167400000Y-127380000D03*
G04 #@! TO.P,Tiny1,7*
G04 #@! TO.N,Reg_Clock*
X175020000Y-124840000D03*
G04 #@! TO.P,Tiny1,4*
G04 #@! TO.N,GND*
X167400000Y-129920000D03*
G04 #@! TO.P,Tiny1,8*
G04 #@! TO.N,Master_Reset*
X175020000Y-122300000D03*
G04 #@! TD*
D18*
G04 #@! TO.P,Shift3,1*
G04 #@! TO.N,Net-(D18-Pad2)*
X152100000Y-141850000D03*
D19*
G04 #@! TO.P,Shift3,9*
G04 #@! TO.N,Net-(Shift3-Pad9)*
X169880000Y-134730000D03*
G04 #@! TO.P,Shift3,2*
G04 #@! TO.N,Net-(D19-Pad2)*
X154640000Y-141850000D03*
G04 #@! TO.P,Shift3,10*
G04 #@! TO.N,Master_Reset*
X167340000Y-134730000D03*
G04 #@! TO.P,Shift3,3*
G04 #@! TO.N,Net-(D20-Pad2)*
X157180000Y-141850000D03*
G04 #@! TO.P,Shift3,11*
G04 #@! TO.N,Serial_Clock*
X164800000Y-134730000D03*
G04 #@! TO.P,Shift3,4*
G04 #@! TO.N,Net-(D21-Pad2)*
X159720000Y-141850000D03*
G04 #@! TO.P,Shift3,12*
G04 #@! TO.N,Reg_Clock*
X162260000Y-134730000D03*
G04 #@! TO.P,Shift3,5*
G04 #@! TO.N,Net-(D22-Pad2)*
X162260000Y-141850000D03*
G04 #@! TO.P,Shift3,13*
G04 #@! TO.N,Output_Enable*
X159720000Y-134730000D03*
G04 #@! TO.P,Shift3,6*
G04 #@! TO.N,Net-(D23-Pad2)*
X164800000Y-141850000D03*
G04 #@! TO.P,Shift3,14*
G04 #@! TO.N,Net-(Shift2-Pad9)*
X157180000Y-134730000D03*
G04 #@! TO.P,Shift3,7*
G04 #@! TO.N,Net-(D24-Pad2)*
X167340000Y-141850000D03*
G04 #@! TO.P,Shift3,15*
G04 #@! TO.N,Net-(D17-Pad2)*
X154640000Y-134730000D03*
G04 #@! TO.P,Shift3,8*
G04 #@! TO.N,GND*
X169880000Y-141850000D03*
G04 #@! TO.P,Shift3,16*
G04 #@! TO.N,Master_Reset*
X152100000Y-134730000D03*
G04 #@! TD*
D20*
G04 #@! TO.N,Net-(D17-Pad2)*
X178677200Y-90059800D03*
X159878800Y-127399000D03*
G04 #@! TO.N,Net-(D25-Pad2)*
X162501300Y-124859700D03*
X166205600Y-89519700D03*
X170563600Y-85705900D03*
X170477600Y-76889100D03*
G04 #@! TO.N,Net-(D26-Pad2)*
X166426600Y-117443700D03*
G04 #@! TO.N,Net-(D31-Pad2)*
X151643900Y-75975800D03*
G04 #@! TO.N,Net-(D32-Pad2)*
X160637800Y-77873600D03*
G04 #@! TO.N,Reg_Clock*
X176934900Y-118833500D03*
G04 #@! TO.N,Output_Enable*
X175371300Y-90534800D03*
X175371300Y-94492000D03*
X171041500Y-77629200D03*
G04 #@! TO.N,Net-(Shift3-Pad9)*
X171793100Y-75213300D03*
X173571500Y-128781000D03*
G04 #@! TO.N,Serial_Data*
X163120400Y-82423000D03*
X165885700Y-85130000D03*
X164161700Y-107428600D03*
X171258200Y-121490300D03*
X171199500Y-124378700D03*
X172036300Y-127152200D03*
G04 #@! TO.N,Out1*
X141294000Y-83757700D03*
G04 #@! TD*
D21*
G04 #@! TO.N,Net-(D1-Pad2)*
X144120000Y-71160000D02*
X142244700Y-71160000D01*
X142244700Y-71160000D02*
X138959600Y-74445100D01*
X138959600Y-74445100D02*
X138959600Y-76467700D01*
X138959600Y-76467700D02*
X137917300Y-77510000D01*
X137917300Y-77510000D02*
X135822800Y-77510000D01*
X135822800Y-77510000D02*
X132823000Y-80509800D01*
X132823000Y-80509800D02*
X132823000Y-85217000D01*
G04 #@! TO.N,Net-(D3-Pad2)*
X133000000Y-58000000D02*
X133000000Y-59425300D01*
X136500000Y-71160000D02*
X135124700Y-71160000D01*
X135124700Y-71160000D02*
X135124700Y-61550000D01*
X135124700Y-61550000D02*
X133000000Y-59425300D01*
G04 #@! TO.N,Net-(D5-Pad2)*
X155470000Y-58000000D02*
X155470000Y-59425300D01*
X136500000Y-76240000D02*
X138375300Y-76240000D01*
X138375300Y-76240000D02*
X138375300Y-74251000D01*
X138375300Y-74251000D02*
X142736300Y-69890000D01*
X142736300Y-69890000D02*
X145005300Y-69890000D01*
X145005300Y-69890000D02*
X155470000Y-59425300D01*
G04 #@! TO.N,Net-(D6-Pad2)*
X138375300Y-78780000D02*
X140350400Y-76804900D01*
X140350400Y-76804900D02*
X140350400Y-75086500D01*
X140350400Y-75086500D02*
X143006900Y-72430000D01*
X143006900Y-72430000D02*
X144733000Y-72430000D01*
X144733000Y-72430000D02*
X155305000Y-61858000D01*
X155305000Y-61858000D02*
X162393500Y-61858000D01*
X162393500Y-61858000D02*
X165514700Y-58736800D01*
X165514700Y-58736800D02*
X165514700Y-58000000D01*
X166690000Y-58000000D02*
X165514700Y-58000000D01*
X136500000Y-78780000D02*
X138375300Y-78780000D01*
G04 #@! TO.N,Net-(D7-Pad2)*
X177910000Y-58000000D02*
X176734700Y-58000000D01*
X136500000Y-81320000D02*
X138375300Y-81320000D01*
X138375300Y-81320000D02*
X138375300Y-79558400D01*
X138375300Y-79558400D02*
X142963700Y-74970000D01*
X142963700Y-74970000D02*
X144795700Y-74970000D01*
X144795700Y-74970000D02*
X145522700Y-74243000D01*
X145522700Y-74243000D02*
X145522700Y-72646700D01*
X145522700Y-72646700D02*
X152719700Y-65449700D01*
X152719700Y-65449700D02*
X170021800Y-65449700D01*
X170021800Y-65449700D02*
X176734700Y-58736800D01*
X176734700Y-58736800D02*
X176734700Y-58000000D01*
G04 #@! TO.N,Net-(D8-Pad2)*
X188130000Y-58000000D02*
X186954700Y-58000000D01*
X136500000Y-83860000D02*
X138375300Y-83860000D01*
X138375300Y-83860000D02*
X138375300Y-82141000D01*
X138375300Y-82141000D02*
X143006300Y-77510000D01*
X143006300Y-77510000D02*
X144900200Y-77510000D01*
X144900200Y-77510000D02*
X147382900Y-75027300D01*
X147382900Y-75027300D02*
X150580800Y-75027300D01*
X150580800Y-75027300D02*
X152193800Y-73414300D01*
X152193800Y-73414300D02*
X152193800Y-73107500D01*
X152193800Y-73107500D02*
X158787600Y-66513700D01*
X158787600Y-66513700D02*
X179177800Y-66513700D01*
X179177800Y-66513700D02*
X186954700Y-58736800D01*
X186954700Y-58736800D02*
X186954700Y-58000000D01*
G04 #@! TO.N,Net-(D10-Pad2)*
X211540000Y-58000000D02*
X210364700Y-58000000D01*
X198300000Y-68620000D02*
X200481500Y-68620000D01*
X200481500Y-68620000D02*
X210364700Y-58736800D01*
X210364700Y-58736800D02*
X210364700Y-58000000D01*
G04 #@! TO.N,Net-(D11-Pad2)*
X211540000Y-73600000D02*
X210364700Y-73600000D01*
X198300000Y-71160000D02*
X200175300Y-71160000D01*
X200175300Y-71160000D02*
X201445300Y-69890000D01*
X201445300Y-69890000D02*
X207391500Y-69890000D01*
X207391500Y-69890000D02*
X210364700Y-72863200D01*
X210364700Y-72863200D02*
X210364700Y-73600000D01*
G04 #@! TO.N,Net-(D12-Pad2)*
X198300000Y-73700000D02*
X203369800Y-73700000D01*
X203369800Y-73700000D02*
X204639800Y-74970000D01*
X204639800Y-74970000D02*
X206588700Y-74970000D01*
X206588700Y-74970000D02*
X211540000Y-79921300D01*
X211540000Y-79921300D02*
X211540000Y-85217000D01*
G04 #@! TO.N,Net-(D17-Pad2)*
X159878800Y-127399000D02*
X160692000Y-126585800D01*
X160692000Y-126585800D02*
X160692000Y-124528000D01*
X160692000Y-124528000D02*
X162470900Y-122749100D01*
X162470900Y-122749100D02*
X162470900Y-108142600D01*
X162470900Y-108142600D02*
X171058900Y-99554600D01*
X171058900Y-99554600D02*
X171300200Y-99554600D01*
X171300200Y-99554600D02*
X178677200Y-92177600D01*
X178677200Y-92177600D02*
X178677200Y-90059800D01*
G04 #@! TO.N,Net-(D18-Pad2)*
X152100000Y-142100000D02*
X152100000Y-143475300D01*
X180800000Y-120400000D02*
X180800000Y-125458700D01*
X180800000Y-125458700D02*
X182482100Y-127140800D01*
X182482100Y-127140800D02*
X182482100Y-130515600D01*
X182482100Y-130515600D02*
X175273100Y-137724600D01*
X175273100Y-137724600D02*
X158867500Y-137724600D01*
X158867500Y-137724600D02*
X155910000Y-140682100D01*
X155910000Y-140682100D02*
X155910000Y-142801200D01*
X155910000Y-142801200D02*
X155235900Y-143475300D01*
X155235900Y-143475300D02*
X152100000Y-143475300D01*
G04 #@! TO.N,Net-(D19-Pad2)*
X180800000Y-129900000D02*
X179624700Y-129900000D01*
X154640000Y-142100000D02*
X154640000Y-140224700D01*
X154640000Y-140224700D02*
X157905300Y-136959400D01*
X157905300Y-136959400D02*
X173302100Y-136959400D01*
X173302100Y-136959400D02*
X179624700Y-130636800D01*
X179624700Y-130636800D02*
X179624700Y-129900000D01*
G04 #@! TO.N,Net-(D20-Pad2)*
X190340000Y-129900000D02*
X189164700Y-129900000D01*
X157180000Y-142100000D02*
X157180000Y-140224700D01*
X157180000Y-140224700D02*
X158516500Y-138888200D01*
X158516500Y-138888200D02*
X174887900Y-138888200D01*
X174887900Y-138888200D02*
X181880500Y-131895600D01*
X181880500Y-131895600D02*
X187905900Y-131895600D01*
X187905900Y-131895600D02*
X189164700Y-130636800D01*
X189164700Y-130636800D02*
X189164700Y-129900000D01*
G04 #@! TO.N,Net-(D21-Pad2)*
X190340000Y-146700000D02*
X189164700Y-146700000D01*
X159720000Y-142100000D02*
X159720000Y-140224700D01*
X159720000Y-140224700D02*
X160282100Y-139662600D01*
X160282100Y-139662600D02*
X175621000Y-139662600D01*
X175621000Y-139662600D02*
X180753400Y-144795000D01*
X180753400Y-144795000D02*
X187996500Y-144795000D01*
X187996500Y-144795000D02*
X189164700Y-145963200D01*
X189164700Y-145963200D02*
X189164700Y-146700000D01*
G04 #@! TO.N,Net-(D22-Pad2)*
X178340000Y-146700000D02*
X177164700Y-146700000D01*
X162260000Y-142100000D02*
X162260000Y-140224700D01*
X162260000Y-140224700D02*
X171426200Y-140224700D01*
X171426200Y-140224700D02*
X177164700Y-145963200D01*
X177164700Y-145963200D02*
X177164700Y-146700000D01*
G04 #@! TO.N,Net-(D24-Pad2)*
X154340000Y-146700000D02*
X154340000Y-145274700D01*
X167340000Y-142100000D02*
X167340000Y-143475300D01*
X167340000Y-143475300D02*
X156139400Y-143475300D01*
X156139400Y-143475300D02*
X154340000Y-145274700D01*
G04 #@! TO.N,Net-(D25-Pad2)*
X154340000Y-129900000D02*
X158332900Y-129900000D01*
X158332900Y-129900000D02*
X162501300Y-125731600D01*
X162501300Y-125731600D02*
X162501300Y-124859700D01*
X175020000Y-71160000D02*
X173144700Y-71160000D01*
X170563600Y-85705900D02*
X170563600Y-85908600D01*
X170563600Y-85908600D02*
X166952500Y-89519700D01*
X166952500Y-89519700D02*
X166205600Y-89519700D01*
X173144700Y-71160000D02*
X170477600Y-73827100D01*
X170477600Y-73827100D02*
X170477600Y-76889100D01*
G04 #@! TO.N,Net-(D26-Pad2)*
X166426600Y-117443700D02*
X166426600Y-120645200D01*
X166426600Y-120645200D02*
X163740000Y-123331800D01*
X163740000Y-123331800D02*
X163740000Y-129900000D01*
G04 #@! TO.N,Net-(D29-Pad2)*
X163740000Y-73600000D02*
X163740000Y-75025300D01*
X167400000Y-76240000D02*
X166024700Y-76240000D01*
X166024700Y-76240000D02*
X164810000Y-75025300D01*
X164810000Y-75025300D02*
X163740000Y-75025300D01*
G04 #@! TO.N,Net-(D30-Pad2)*
X156800000Y-73600000D02*
X156800000Y-75025300D01*
X167400000Y-78780000D02*
X166024700Y-78780000D01*
X166024700Y-78780000D02*
X162724200Y-75479500D01*
X162724200Y-75479500D02*
X157254200Y-75479500D01*
X157254200Y-75479500D02*
X156800000Y-75025300D01*
G04 #@! TO.N,Net-(D31-Pad2)*
X167400000Y-81320000D02*
X162172900Y-76092900D01*
X162172900Y-76092900D02*
X151761000Y-76092900D01*
X151761000Y-76092900D02*
X151643900Y-75975800D01*
G04 #@! TO.N,Net-(D32-Pad2)*
X167400000Y-83860000D02*
X166024700Y-83860000D01*
X166024700Y-83860000D02*
X166024700Y-83260500D01*
X166024700Y-83260500D02*
X160637800Y-77873600D01*
G04 #@! TO.N,Serial_Clock*
X175020000Y-127380000D02*
X176645300Y-127380000D01*
X176645300Y-127380000D02*
X179475700Y-124549600D01*
X179475700Y-124549600D02*
X179475700Y-84294400D01*
X179475700Y-84294400D02*
X177009500Y-81828200D01*
X174757200Y-127380000D02*
X175020000Y-127380000D01*
X177009500Y-81828200D02*
X176501300Y-81320000D01*
X176501300Y-81320000D02*
X175020000Y-81320000D01*
X204044700Y-81320000D02*
X202774700Y-82590000D01*
X202774700Y-82590000D02*
X197627600Y-82590000D01*
X197627600Y-82590000D02*
X191685000Y-76647400D01*
X191685000Y-76647400D02*
X182190300Y-76647400D01*
X182190300Y-76647400D02*
X177009500Y-81828200D01*
X174757200Y-127380000D02*
X173394700Y-127380000D01*
X144120000Y-81320000D02*
X145495300Y-81320000D01*
X145495300Y-81320000D02*
X150145000Y-76670300D01*
X150145000Y-76670300D02*
X160855900Y-76670300D01*
X160855900Y-76670300D02*
X166775600Y-82590000D01*
X166775600Y-82590000D02*
X170685300Y-82590000D01*
X170685300Y-82590000D02*
X171955300Y-81320000D01*
X171955300Y-81320000D02*
X175020000Y-81320000D01*
X164800000Y-134480000D02*
X164800000Y-136355300D01*
X164800000Y-136355300D02*
X167897100Y-136355300D01*
X167897100Y-136355300D02*
X168610000Y-135642400D01*
X168610000Y-135642400D02*
X168610000Y-132164700D01*
X168610000Y-132164700D02*
X173394700Y-127380000D01*
X205920000Y-81320000D02*
X204044700Y-81320000D01*
G04 #@! TO.N,Reg_Clock*
X175020000Y-78780000D02*
X176395300Y-78780000D01*
X176395300Y-78780000D02*
X179105400Y-76069900D01*
X179105400Y-76069900D02*
X193791100Y-76069900D01*
X193791100Y-76069900D02*
X195231200Y-77510000D01*
X195231200Y-77510000D02*
X202774700Y-77510000D01*
X202774700Y-77510000D02*
X204044700Y-78780000D01*
X175020000Y-78780000D02*
X171150700Y-78780000D01*
X171150700Y-78780000D02*
X169738500Y-77367800D01*
X169738500Y-77367800D02*
X169738500Y-71044800D01*
X169738500Y-71044800D02*
X168593900Y-69900200D01*
X168593900Y-69900200D02*
X158724100Y-69900200D01*
X158724100Y-69900200D02*
X155531200Y-73093100D01*
X155531200Y-73093100D02*
X155531200Y-74465600D01*
X155531200Y-74465600D02*
X154884400Y-75112400D01*
X154884400Y-75112400D02*
X151547600Y-75112400D01*
X151547600Y-75112400D02*
X151082300Y-75577700D01*
X151082300Y-75577700D02*
X148697600Y-75577700D01*
X148697600Y-75577700D02*
X145495300Y-78780000D01*
X205920000Y-78780000D02*
X204044700Y-78780000D01*
X144120000Y-78780000D02*
X145495300Y-78780000D01*
X176645300Y-124840000D02*
X176645300Y-121361200D01*
X176645300Y-121361200D02*
X176573700Y-121289600D01*
X176573700Y-121289600D02*
X176573700Y-119194700D01*
X176573700Y-119194700D02*
X176934900Y-118833500D01*
X175020000Y-124840000D02*
X176645300Y-124840000D01*
G04 #@! TO.N,Output_Enable*
X175371300Y-94492000D02*
X176361000Y-93502300D01*
X176361000Y-93502300D02*
X176361000Y-91524500D01*
X176361000Y-91524500D02*
X175371300Y-90534800D01*
X171041500Y-77629200D02*
X172430700Y-76240000D01*
X172430700Y-76240000D02*
X175020000Y-76240000D01*
X205920000Y-76240000D02*
X204044700Y-76240000D01*
X175020000Y-76240000D02*
X176395300Y-76240000D01*
X176395300Y-76240000D02*
X177190500Y-75444800D01*
X177190500Y-75444800D02*
X195911300Y-75444800D01*
X195911300Y-75444800D02*
X196373200Y-74982900D01*
X196373200Y-74982900D02*
X202787600Y-74982900D01*
X202787600Y-74982900D02*
X204044700Y-76240000D01*
G04 #@! TO.N,Net-(Shift3-Pad9)*
X169880000Y-134480000D02*
X169880000Y-132472500D01*
X169880000Y-132472500D02*
X173571500Y-128781000D01*
X175020000Y-73700000D02*
X173144700Y-73700000D01*
X171793100Y-75213300D02*
X173144700Y-73861700D01*
X173144700Y-73861700D02*
X173144700Y-73700000D01*
G04 #@! TO.N,Net-(Battery1-Pad2)*
X175050000Y-92040000D02*
X172510000Y-92040000D01*
G04 #@! TO.N,Net-(BTN1-Pad2)*
X187115000Y-140840000D02*
X180615000Y-140840000D01*
G04 #@! TO.N,GND*
X165490400Y-86934300D02*
X166024700Y-86400000D01*
X171196000Y-97169000D02*
X170195600Y-97169000D01*
X170195600Y-97169000D02*
X165490400Y-92463800D01*
X165490400Y-92463800D02*
X165490400Y-86934300D01*
X165490400Y-86934300D02*
X162917300Y-86934300D01*
X162917300Y-86934300D02*
X161200000Y-85217000D01*
X167400000Y-86400000D02*
X166024700Y-86400000D01*
X178260000Y-85217000D02*
X175633000Y-82590000D01*
X175633000Y-82590000D02*
X172724500Y-82590000D01*
X172724500Y-82590000D02*
X169275300Y-86039200D01*
X169275300Y-86039200D02*
X169275300Y-86400000D01*
X167400000Y-129920000D02*
X165774700Y-129920000D01*
X165774700Y-129920000D02*
X165774700Y-130142700D01*
X165774700Y-130142700D02*
X164591100Y-131326300D01*
X164591100Y-131326300D02*
X162626300Y-131326300D01*
X162626300Y-131326300D02*
X161200000Y-129900000D01*
X130400000Y-85217000D02*
X130400000Y-73600000D01*
X135124700Y-86400000D02*
X134869500Y-86655200D01*
X134869500Y-86655200D02*
X131838200Y-86655200D01*
X131838200Y-86655200D02*
X130400000Y-85217000D01*
X130400000Y-85217000D02*
X130283000Y-85217000D01*
X185590000Y-58000000D02*
X187015400Y-56574600D01*
X187015400Y-56574600D02*
X196384600Y-56574600D01*
X196384600Y-56574600D02*
X197810000Y-58000000D01*
X169799000Y-104412300D02*
X178260000Y-112873300D01*
X178260000Y-112873300D02*
X178260000Y-120400000D01*
X187800000Y-146700000D02*
X186370600Y-148129400D01*
X186370600Y-148129400D02*
X177229400Y-148129400D01*
X177229400Y-148129400D02*
X175800000Y-146700000D01*
X169880000Y-143475300D02*
X172575300Y-143475300D01*
X172575300Y-143475300D02*
X175800000Y-146700000D01*
X209000000Y-58000000D02*
X207546700Y-56546700D01*
X207546700Y-56546700D02*
X199263300Y-56546700D01*
X199263300Y-56546700D02*
X197810000Y-58000000D01*
X198300000Y-86400000D02*
X200175300Y-86400000D01*
X209000000Y-85217000D02*
X208913100Y-85130100D01*
X208913100Y-85130100D02*
X201445200Y-85130100D01*
X201445200Y-85130100D02*
X200175300Y-86400000D01*
X178260000Y-73600000D02*
X179685400Y-72174600D01*
X179685400Y-72174600D02*
X183834600Y-72174600D01*
X183834600Y-72174600D02*
X185260000Y-73600000D01*
X175370000Y-58000000D02*
X173944600Y-56574600D01*
X173944600Y-56574600D02*
X165575400Y-56574600D01*
X165575400Y-56574600D02*
X164150000Y-58000000D01*
X169880000Y-143475300D02*
X168646700Y-144708600D01*
X168646700Y-144708600D02*
X165791400Y-144708600D01*
X165791400Y-144708600D02*
X163800000Y-146700000D01*
X152930000Y-58000000D02*
X151474600Y-56544600D01*
X151474600Y-56544600D02*
X143165400Y-56544600D01*
X143165400Y-56544600D02*
X141710000Y-58000000D01*
X141710000Y-58000000D02*
X140241500Y-56531500D01*
X140241500Y-56531500D02*
X131928500Y-56531500D01*
X131928500Y-56531500D02*
X130460000Y-58000000D01*
X169799000Y-103137000D02*
X169799000Y-104412300D01*
X167400000Y-86400000D02*
X169275300Y-86400000D01*
X151800000Y-129900000D02*
X153260000Y-131360000D01*
X153260000Y-131360000D02*
X159740000Y-131360000D01*
X159740000Y-131360000D02*
X161200000Y-129900000D01*
X187115000Y-136340000D02*
X180615000Y-136340000D01*
X136500000Y-86400000D02*
X135124700Y-86400000D01*
X169880000Y-142100000D02*
X169880000Y-143475300D01*
G04 #@! TO.N,Serial_Data*
X171258200Y-121490300D02*
X171258200Y-121320200D01*
X171258200Y-121320200D02*
X164161700Y-114223700D01*
X164161700Y-114223700D02*
X164161700Y-107428600D01*
X165885700Y-85130000D02*
X165885700Y-85047000D01*
X165885700Y-85047000D02*
X163261700Y-82423000D01*
X163261700Y-82423000D02*
X163120400Y-82423000D01*
X172036300Y-127152200D02*
X172036300Y-125215500D01*
X172036300Y-125215500D02*
X171199500Y-124378700D01*
G04 #@! TO.N,Master_Reset*
X173394700Y-122300000D02*
X169025300Y-122300000D01*
X175020000Y-122300000D02*
X173394700Y-122300000D01*
X167340000Y-133104700D02*
X167340000Y-132430100D01*
X167340000Y-132430100D02*
X169025300Y-130744800D01*
X169025300Y-130744800D02*
X169025300Y-122300000D01*
X152100000Y-133104700D02*
X167340000Y-133104700D01*
X167400000Y-122300000D02*
X169025300Y-122300000D01*
X167340000Y-134480000D02*
X167340000Y-133104700D01*
X152100000Y-134480000D02*
X152100000Y-133104700D01*
X175020000Y-68620000D02*
X176395300Y-68620000D01*
X176395300Y-68620000D02*
X177635500Y-69860200D01*
X177635500Y-69860200D02*
X200580800Y-69860200D01*
X200580800Y-69860200D02*
X201821000Y-68620000D01*
X201821000Y-68620000D02*
X205920000Y-68620000D01*
X167430000Y-90764700D02*
X173144700Y-85050000D01*
X173144700Y-85050000D02*
X173144700Y-83860000D01*
X167430000Y-92040000D02*
X167430000Y-90764700D01*
X175020000Y-83860000D02*
X173144700Y-83860000D01*
G04 #@! TO.N,Out1*
X144120000Y-86400000D02*
X142244700Y-86400000D01*
X141294000Y-83757700D02*
X142244700Y-84708400D01*
X142244700Y-84708400D02*
X142244700Y-86400000D01*
G04 #@! TD*
D22*
G36*
X189770621Y-148678156D02*
X190383171Y-148800000D01*
X190796829Y-148800000D01*
X191409379Y-148678156D01*
X191865001Y-148373719D01*
X191865001Y-148741197D01*
X191842238Y-148870292D01*
X191828890Y-148893412D01*
X191808436Y-148910574D01*
X191734021Y-148937659D01*
X191718697Y-148939000D01*
X187302938Y-148939000D01*
X187322124Y-148910287D01*
X187410860Y-148821550D01*
X188050000Y-148821550D01*
X188670540Y-148698117D01*
X189196609Y-148346609D01*
X189220628Y-148310662D01*
X189770621Y-148678156D01*
X189770621Y-148678156D01*
G37*
X189770621Y-148678156D02*
X190383171Y-148800000D01*
X190796829Y-148800000D01*
X191409379Y-148678156D01*
X191865001Y-148373719D01*
X191865001Y-148741197D01*
X191842238Y-148870292D01*
X191828890Y-148893412D01*
X191808436Y-148910574D01*
X191734021Y-148937659D01*
X191718697Y-148939000D01*
X187302938Y-148939000D01*
X187322124Y-148910287D01*
X187410860Y-148821550D01*
X188050000Y-148821550D01*
X188670540Y-148698117D01*
X189196609Y-148346609D01*
X189220628Y-148310662D01*
X189770621Y-148678156D01*
G36*
X162429460Y-144701883D02*
X161903391Y-145053391D01*
X161551883Y-145579460D01*
X161428450Y-146200000D01*
X161428450Y-147200000D01*
X161551883Y-147820540D01*
X161903391Y-148346609D01*
X162429460Y-148698117D01*
X163050000Y-148821550D01*
X164050000Y-148821550D01*
X164670540Y-148698117D01*
X165196609Y-148346609D01*
X165220628Y-148310662D01*
X165770621Y-148678156D01*
X166383171Y-148800000D01*
X166796829Y-148800000D01*
X167409379Y-148678156D01*
X168104015Y-148214015D01*
X168568156Y-147519379D01*
X168731141Y-146700000D01*
X168580863Y-145944503D01*
X168646700Y-145957599D01*
X168767350Y-145933600D01*
X168767352Y-145933600D01*
X169124671Y-145862525D01*
X169529876Y-145591776D01*
X169598223Y-145489487D01*
X170387411Y-144700300D01*
X172067890Y-144700300D01*
X173451535Y-146083946D01*
X173428450Y-146200000D01*
X173428450Y-147200000D01*
X173551883Y-147820540D01*
X173903391Y-148346609D01*
X174429460Y-148698117D01*
X175050000Y-148821550D01*
X176050000Y-148821550D01*
X176166055Y-148798465D01*
X176277878Y-148910289D01*
X176297062Y-148939000D01*
X151227116Y-148939000D01*
X151022190Y-148904891D01*
X150926003Y-148852991D01*
X150862455Y-148784245D01*
X151050000Y-148821550D01*
X152050000Y-148821550D01*
X152670540Y-148698117D01*
X153196609Y-148346609D01*
X153220628Y-148310662D01*
X153770621Y-148678156D01*
X154383171Y-148800000D01*
X154796829Y-148800000D01*
X155409379Y-148678156D01*
X156104015Y-148214015D01*
X156568156Y-147519379D01*
X156731141Y-146700000D01*
X156568156Y-145880621D01*
X156126890Y-145220220D01*
X156646811Y-144700300D01*
X162437418Y-144700300D01*
X162429460Y-144701883D01*
X162429460Y-144701883D01*
G37*
X162429460Y-144701883D02*
X161903391Y-145053391D01*
X161551883Y-145579460D01*
X161428450Y-146200000D01*
X161428450Y-147200000D01*
X161551883Y-147820540D01*
X161903391Y-148346609D01*
X162429460Y-148698117D01*
X163050000Y-148821550D01*
X164050000Y-148821550D01*
X164670540Y-148698117D01*
X165196609Y-148346609D01*
X165220628Y-148310662D01*
X165770621Y-148678156D01*
X166383171Y-148800000D01*
X166796829Y-148800000D01*
X167409379Y-148678156D01*
X168104015Y-148214015D01*
X168568156Y-147519379D01*
X168731141Y-146700000D01*
X168580863Y-145944503D01*
X168646700Y-145957599D01*
X168767350Y-145933600D01*
X168767352Y-145933600D01*
X169124671Y-145862525D01*
X169529876Y-145591776D01*
X169598223Y-145489487D01*
X170387411Y-144700300D01*
X172067890Y-144700300D01*
X173451535Y-146083946D01*
X173428450Y-146200000D01*
X173428450Y-147200000D01*
X173551883Y-147820540D01*
X173903391Y-148346609D01*
X174429460Y-148698117D01*
X175050000Y-148821550D01*
X176050000Y-148821550D01*
X176166055Y-148798465D01*
X176277878Y-148910289D01*
X176297062Y-148939000D01*
X151227116Y-148939000D01*
X151022190Y-148904891D01*
X150926003Y-148852991D01*
X150862455Y-148784245D01*
X151050000Y-148821550D01*
X152050000Y-148821550D01*
X152670540Y-148698117D01*
X153196609Y-148346609D01*
X153220628Y-148310662D01*
X153770621Y-148678156D01*
X154383171Y-148800000D01*
X154796829Y-148800000D01*
X155409379Y-148678156D01*
X156104015Y-148214015D01*
X156568156Y-147519379D01*
X156731141Y-146700000D01*
X156568156Y-145880621D01*
X156126890Y-145220220D01*
X156646811Y-144700300D01*
X162437418Y-144700300D01*
X162429460Y-144701883D01*
G36*
X180632748Y-146020000D02*
X180632749Y-146020000D01*
X180753400Y-146043999D01*
X180874050Y-146020000D01*
X185464254Y-146020000D01*
X185428450Y-146200000D01*
X185428450Y-146904400D01*
X180690483Y-146904400D01*
X180731141Y-146700000D01*
X180594361Y-146012364D01*
X180632748Y-146020000D01*
X180632748Y-146020000D01*
G37*
X180632748Y-146020000D02*
X180632749Y-146020000D01*
X180753400Y-146043999D01*
X180874050Y-146020000D01*
X185464254Y-146020000D01*
X185428450Y-146200000D01*
X185428450Y-146904400D01*
X180690483Y-146904400D01*
X180731141Y-146700000D01*
X180594361Y-146012364D01*
X180632748Y-146020000D01*
G36*
X191865001Y-145026281D02*
X191409379Y-144721844D01*
X190796829Y-144600000D01*
X190383171Y-144600000D01*
X189770621Y-144721844D01*
X189701764Y-144767853D01*
X188948023Y-144014113D01*
X188879676Y-143911824D01*
X188474471Y-143641075D01*
X188117152Y-143570000D01*
X188117150Y-143570000D01*
X187996500Y-143546001D01*
X187875850Y-143570000D01*
X181260811Y-143570000D01*
X180630811Y-142940000D01*
X181032716Y-142940000D01*
X181804554Y-142620294D01*
X182359848Y-142065000D01*
X185370152Y-142065000D01*
X185925446Y-142620294D01*
X186697284Y-142940000D01*
X187532716Y-142940000D01*
X188304554Y-142620294D01*
X188895294Y-142029554D01*
X189215000Y-141257716D01*
X189215000Y-140422284D01*
X188895294Y-139650446D01*
X188304554Y-139059706D01*
X187532716Y-138740000D01*
X186697284Y-138740000D01*
X185925446Y-139059706D01*
X185370152Y-139615000D01*
X182359848Y-139615000D01*
X181804554Y-139059706D01*
X181032716Y-138740000D01*
X180197284Y-138740000D01*
X179425446Y-139059706D01*
X178834706Y-139650446D01*
X178515000Y-140422284D01*
X178515000Y-140824190D01*
X176599660Y-138908850D01*
X178584063Y-136924448D01*
X178834706Y-137529554D01*
X179425446Y-138120294D01*
X180197284Y-138440000D01*
X181032716Y-138440000D01*
X181804554Y-138120294D01*
X182359848Y-137565000D01*
X185370152Y-137565000D01*
X185925446Y-138120294D01*
X186697284Y-138440000D01*
X187532716Y-138440000D01*
X188304554Y-138120294D01*
X188895294Y-137529554D01*
X189215000Y-136757716D01*
X189215000Y-135922284D01*
X188895294Y-135150446D01*
X188304554Y-134559706D01*
X187532716Y-134240000D01*
X186697284Y-134240000D01*
X185925446Y-134559706D01*
X185370152Y-135115000D01*
X182359848Y-135115000D01*
X181804554Y-134559706D01*
X181199448Y-134309063D01*
X182387911Y-133120600D01*
X187785250Y-133120600D01*
X187905900Y-133144599D01*
X188026550Y-133120600D01*
X188026552Y-133120600D01*
X188383871Y-133049525D01*
X188789076Y-132778776D01*
X188857423Y-132676487D01*
X189701764Y-131832147D01*
X189770621Y-131878156D01*
X190383171Y-132000000D01*
X190796829Y-132000000D01*
X191409379Y-131878156D01*
X191865000Y-131573720D01*
X191865001Y-145026281D01*
X191865001Y-145026281D01*
G37*
X191865001Y-145026281D02*
X191409379Y-144721844D01*
X190796829Y-144600000D01*
X190383171Y-144600000D01*
X189770621Y-144721844D01*
X189701764Y-144767853D01*
X188948023Y-144014113D01*
X188879676Y-143911824D01*
X188474471Y-143641075D01*
X188117152Y-143570000D01*
X188117150Y-143570000D01*
X187996500Y-143546001D01*
X187875850Y-143570000D01*
X181260811Y-143570000D01*
X180630811Y-142940000D01*
X181032716Y-142940000D01*
X181804554Y-142620294D01*
X182359848Y-142065000D01*
X185370152Y-142065000D01*
X185925446Y-142620294D01*
X186697284Y-142940000D01*
X187532716Y-142940000D01*
X188304554Y-142620294D01*
X188895294Y-142029554D01*
X189215000Y-141257716D01*
X189215000Y-140422284D01*
X188895294Y-139650446D01*
X188304554Y-139059706D01*
X187532716Y-138740000D01*
X186697284Y-138740000D01*
X185925446Y-139059706D01*
X185370152Y-139615000D01*
X182359848Y-139615000D01*
X181804554Y-139059706D01*
X181032716Y-138740000D01*
X180197284Y-138740000D01*
X179425446Y-139059706D01*
X178834706Y-139650446D01*
X178515000Y-140422284D01*
X178515000Y-140824190D01*
X176599660Y-138908850D01*
X178584063Y-136924448D01*
X178834706Y-137529554D01*
X179425446Y-138120294D01*
X180197284Y-138440000D01*
X181032716Y-138440000D01*
X181804554Y-138120294D01*
X182359848Y-137565000D01*
X185370152Y-137565000D01*
X185925446Y-138120294D01*
X186697284Y-138440000D01*
X187532716Y-138440000D01*
X188304554Y-138120294D01*
X188895294Y-137529554D01*
X189215000Y-136757716D01*
X189215000Y-135922284D01*
X188895294Y-135150446D01*
X188304554Y-134559706D01*
X187532716Y-134240000D01*
X186697284Y-134240000D01*
X185925446Y-134559706D01*
X185370152Y-135115000D01*
X182359848Y-135115000D01*
X181804554Y-134559706D01*
X181199448Y-134309063D01*
X182387911Y-133120600D01*
X187785250Y-133120600D01*
X187905900Y-133144599D01*
X188026550Y-133120600D01*
X188026552Y-133120600D01*
X188383871Y-133049525D01*
X188789076Y-132778776D01*
X188857423Y-132676487D01*
X189701764Y-131832147D01*
X189770621Y-131878156D01*
X190383171Y-132000000D01*
X190796829Y-132000000D01*
X191409379Y-131878156D01*
X191865000Y-131573720D01*
X191865001Y-145026281D01*
G36*
X153186076Y-144796729D02*
X153142247Y-145017068D01*
X152670540Y-144701883D01*
X152662582Y-144700300D01*
X153250508Y-144700300D01*
X153186076Y-144796729D01*
X153186076Y-144796729D01*
G37*
X153186076Y-144796729D02*
X153142247Y-145017068D01*
X152670540Y-144701883D01*
X152662582Y-144700300D01*
X153250508Y-144700300D01*
X153186076Y-144796729D01*
G36*
X178833230Y-144607241D02*
X178796829Y-144600000D01*
X178383171Y-144600000D01*
X177770621Y-144721844D01*
X177701764Y-144767853D01*
X173821510Y-140887600D01*
X175113590Y-140887600D01*
X178833230Y-144607241D01*
X178833230Y-144607241D01*
G37*
X178833230Y-144607241D02*
X178796829Y-144600000D01*
X178383171Y-144600000D01*
X177770621Y-144721844D01*
X177701764Y-144767853D01*
X173821510Y-140887600D01*
X175113590Y-140887600D01*
X178833230Y-144607241D01*
G36*
X150870801Y-144086177D02*
X151060030Y-144123817D01*
X151216824Y-144358476D01*
X151546039Y-144578450D01*
X151050000Y-144578450D01*
X150781000Y-144631957D01*
X150781000Y-144026174D01*
X150870801Y-144086177D01*
X150870801Y-144086177D01*
G37*
X150870801Y-144086177D02*
X151060030Y-144123817D01*
X151216824Y-144358476D01*
X151546039Y-144578450D01*
X151050000Y-144578450D01*
X150781000Y-144631957D01*
X150781000Y-144026174D01*
X150870801Y-144086177D01*
G36*
X151358658Y-136919761D02*
X152100000Y-137067223D01*
X152841343Y-136919761D01*
X153370001Y-136566524D01*
X153898658Y-136919761D01*
X154640000Y-137067223D01*
X155381343Y-136919761D01*
X155910001Y-136566524D01*
X156303103Y-136829186D01*
X153859112Y-139273178D01*
X153756825Y-139341524D01*
X153537951Y-139669093D01*
X153499049Y-139727313D01*
X153329199Y-139613823D01*
X152900000Y-139528450D01*
X151300000Y-139528450D01*
X150870801Y-139613823D01*
X150781000Y-139673826D01*
X150781000Y-136533783D01*
X151358658Y-136919761D01*
X151358658Y-136919761D01*
G37*
X151358658Y-136919761D02*
X152100000Y-137067223D01*
X152841343Y-136919761D01*
X153370001Y-136566524D01*
X153898658Y-136919761D01*
X154640000Y-137067223D01*
X155381343Y-136919761D01*
X155910001Y-136566524D01*
X156303103Y-136829186D01*
X153859112Y-139273178D01*
X153756825Y-139341524D01*
X153537951Y-139669093D01*
X153499049Y-139727313D01*
X153329199Y-139613823D01*
X152900000Y-139528450D01*
X151300000Y-139528450D01*
X150870801Y-139613823D01*
X150781000Y-139673826D01*
X150781000Y-136533783D01*
X151358658Y-136919761D01*
G36*
X173250176Y-131289824D02*
X173878657Y-131709761D01*
X174432867Y-131820000D01*
X175607133Y-131820000D01*
X176161343Y-131709761D01*
X176384454Y-131560683D01*
X176734508Y-131794581D01*
X172794690Y-135734400D01*
X171697001Y-135734400D01*
X171780000Y-135317132D01*
X171780000Y-134142867D01*
X171669761Y-133588657D01*
X171249824Y-132960176D01*
X171174838Y-132910072D01*
X173067893Y-131017018D01*
X173250176Y-131289824D01*
X173250176Y-131289824D01*
G37*
X173250176Y-131289824D02*
X173878657Y-131709761D01*
X174432867Y-131820000D01*
X175607133Y-131820000D01*
X176161343Y-131709761D01*
X176384454Y-131560683D01*
X176734508Y-131794581D01*
X172794690Y-135734400D01*
X171697001Y-135734400D01*
X171780000Y-135317132D01*
X171780000Y-134142867D01*
X171669761Y-133588657D01*
X171249824Y-132960176D01*
X171174838Y-132910072D01*
X173067893Y-131017018D01*
X173250176Y-131289824D01*
G36*
X151050000Y-132021550D02*
X151516107Y-132021550D01*
X151216824Y-132221524D01*
X150973957Y-132585000D01*
X150946075Y-132626729D01*
X150902675Y-132844916D01*
X150781000Y-132926217D01*
X150781000Y-131968043D01*
X151050000Y-132021550D01*
X151050000Y-132021550D01*
G37*
X151050000Y-132021550D02*
X151516107Y-132021550D01*
X151216824Y-132221524D01*
X150973957Y-132585000D01*
X150946075Y-132626729D01*
X150902675Y-132844916D01*
X150781000Y-132926217D01*
X150781000Y-131968043D01*
X151050000Y-132021550D01*
G36*
X166258657Y-131709761D02*
X166337537Y-131725451D01*
X166234471Y-131879700D01*
X165770111Y-131879700D01*
X166067666Y-131582145D01*
X166258657Y-131709761D01*
X166258657Y-131709761D01*
G37*
X166258657Y-131709761D02*
X166337537Y-131725451D01*
X166234471Y-131879700D01*
X165770111Y-131879700D01*
X166067666Y-131582145D01*
X166258657Y-131709761D01*
G36*
X191623810Y-127701109D02*
X191719996Y-127753009D01*
X191794186Y-127833267D01*
X191847935Y-127954845D01*
X191865000Y-128089926D01*
X191865000Y-128226280D01*
X191409379Y-127921844D01*
X190796829Y-127800000D01*
X190383171Y-127800000D01*
X189770621Y-127921844D01*
X189220628Y-128289338D01*
X189196609Y-128253391D01*
X188670540Y-127901883D01*
X188050000Y-127778450D01*
X187050000Y-127778450D01*
X186429460Y-127901883D01*
X185903391Y-128253391D01*
X185551883Y-128779460D01*
X185428450Y-129400000D01*
X185428450Y-130400000D01*
X185482276Y-130670600D01*
X183700268Y-130670600D01*
X183731099Y-130515600D01*
X183707100Y-130394948D01*
X183707100Y-127667000D01*
X191418883Y-127667000D01*
X191623810Y-127701109D01*
X191623810Y-127701109D01*
G37*
X191623810Y-127701109D02*
X191719996Y-127753009D01*
X191794186Y-127833267D01*
X191847935Y-127954845D01*
X191865000Y-128089926D01*
X191865000Y-128226280D01*
X191409379Y-127921844D01*
X190796829Y-127800000D01*
X190383171Y-127800000D01*
X189770621Y-127921844D01*
X189220628Y-128289338D01*
X189196609Y-128253391D01*
X188670540Y-127901883D01*
X188050000Y-127778450D01*
X187050000Y-127778450D01*
X186429460Y-127901883D01*
X185903391Y-128253391D01*
X185551883Y-128779460D01*
X185428450Y-129400000D01*
X185428450Y-130400000D01*
X185482276Y-130670600D01*
X183700268Y-130670600D01*
X183731099Y-130515600D01*
X183707100Y-130394948D01*
X183707100Y-127667000D01*
X191418883Y-127667000D01*
X191623810Y-127701109D01*
G36*
X170434786Y-125523175D02*
X170736565Y-125648176D01*
X170811301Y-125722911D01*
X170811300Y-126581890D01*
X170686300Y-126883668D01*
X170686300Y-127420732D01*
X170891825Y-127916914D01*
X171008600Y-128033689D01*
X170250300Y-128791989D01*
X170250300Y-125338689D01*
X170434786Y-125523175D01*
X170434786Y-125523175D01*
G37*
X170434786Y-125523175D02*
X170736565Y-125648176D01*
X170811301Y-125722911D01*
X170811300Y-126581890D01*
X170686300Y-126883668D01*
X170686300Y-127420732D01*
X170891825Y-127916914D01*
X171008600Y-128033689D01*
X170250300Y-128791989D01*
X170250300Y-125338689D01*
X170434786Y-125523175D01*
G36*
X158528800Y-127667532D02*
X158617886Y-127882604D01*
X157825490Y-128675000D01*
X156297129Y-128675000D01*
X156104015Y-128385985D01*
X155409379Y-127921844D01*
X154796829Y-127800000D01*
X154383171Y-127800000D01*
X153770621Y-127921844D01*
X153220628Y-128289338D01*
X153196609Y-128253391D01*
X152670540Y-127901883D01*
X152050000Y-127778450D01*
X151050000Y-127778450D01*
X150865289Y-127815191D01*
X150867009Y-127812004D01*
X150947267Y-127737814D01*
X151068845Y-127684065D01*
X151203926Y-127667000D01*
X158528800Y-127667000D01*
X158528800Y-127667532D01*
X158528800Y-127667532D01*
G37*
X158528800Y-127667532D02*
X158617886Y-127882604D01*
X157825490Y-128675000D01*
X156297129Y-128675000D01*
X156104015Y-128385985D01*
X155409379Y-127921844D01*
X154796829Y-127800000D01*
X154383171Y-127800000D01*
X153770621Y-127921844D01*
X153220628Y-128289338D01*
X153196609Y-128253391D01*
X152670540Y-127901883D01*
X152050000Y-127778450D01*
X151050000Y-127778450D01*
X150865289Y-127815191D01*
X150867009Y-127812004D01*
X150947267Y-127737814D01*
X151068845Y-127684065D01*
X151203926Y-127667000D01*
X158528800Y-127667000D01*
X158528800Y-127667532D01*
G36*
X179916825Y-126341876D02*
X180019111Y-126410222D01*
X181257100Y-127648211D01*
X181257100Y-127800054D01*
X181256829Y-127800000D01*
X180843171Y-127800000D01*
X180230621Y-127921844D01*
X179680628Y-128289338D01*
X179656609Y-128253391D01*
X179130540Y-127901883D01*
X178510000Y-127778450D01*
X177979260Y-127778450D01*
X179716157Y-126041555D01*
X179916825Y-126341876D01*
X179916825Y-126341876D01*
G37*
X179916825Y-126341876D02*
X180019111Y-126410222D01*
X181257100Y-127648211D01*
X181257100Y-127800054D01*
X181256829Y-127800000D01*
X180843171Y-127800000D01*
X180230621Y-127921844D01*
X179680628Y-128289338D01*
X179656609Y-128253391D01*
X179130540Y-127901883D01*
X178510000Y-127778450D01*
X177979260Y-127778450D01*
X179716157Y-126041555D01*
X179916825Y-126341876D01*
G36*
X165377281Y-123848661D02*
X165210239Y-124098657D01*
X165062777Y-124840000D01*
X165210239Y-125581343D01*
X165563476Y-126110000D01*
X165210239Y-126638657D01*
X165062777Y-127380000D01*
X165210239Y-128121343D01*
X165292741Y-128244816D01*
X164965000Y-128025827D01*
X164965000Y-123839210D01*
X165208359Y-123595852D01*
X165377281Y-123848661D01*
X165377281Y-123848661D01*
G37*
X165377281Y-123848661D02*
X165210239Y-124098657D01*
X165062777Y-124840000D01*
X165210239Y-125581343D01*
X165563476Y-126110000D01*
X165210239Y-126638657D01*
X165062777Y-127380000D01*
X165210239Y-128121343D01*
X165292741Y-128244816D01*
X164965000Y-128025827D01*
X164965000Y-123839210D01*
X165208359Y-123595852D01*
X165377281Y-123848661D01*
G36*
X162515001Y-128198862D02*
X162070540Y-127901883D01*
X162064608Y-127900703D01*
X162515001Y-127450310D01*
X162515001Y-128198862D01*
X162515001Y-128198862D01*
G37*
X162515001Y-128198862D02*
X162070540Y-127901883D01*
X162064608Y-127900703D01*
X162515001Y-127450310D01*
X162515001Y-128198862D01*
G36*
X178250700Y-124042188D02*
X177870300Y-124422589D01*
X177870300Y-122521550D01*
X178250700Y-122521550D01*
X178250700Y-124042188D01*
X178250700Y-124042188D01*
G37*
X178250700Y-124042188D02*
X177870300Y-124422589D01*
X177870300Y-122521550D01*
X178250700Y-122521550D01*
X178250700Y-124042188D01*
G36*
X173183476Y-123570000D02*
X172830239Y-124098657D01*
X172800645Y-124247435D01*
X172468976Y-123915765D01*
X172343975Y-123613986D01*
X172254989Y-123525000D01*
X173153408Y-123525000D01*
X173183476Y-123570000D01*
X173183476Y-123570000D01*
G37*
X173183476Y-123570000D02*
X172830239Y-124098657D01*
X172800645Y-124247435D01*
X172468976Y-123915765D01*
X172343975Y-123613986D01*
X172254989Y-123525000D01*
X173153408Y-123525000D01*
X173183476Y-123570000D01*
G36*
X160687000Y-122800589D02*
X160687000Y-122521550D01*
X160966039Y-122521550D01*
X160687000Y-122800589D01*
X160687000Y-122800589D01*
G37*
X160687000Y-122800589D02*
X160687000Y-122521550D01*
X160966039Y-122521550D01*
X160687000Y-122800589D01*
G36*
X168155944Y-104780056D02*
X168519801Y-105023177D01*
X168766695Y-105072287D01*
X168915825Y-105295476D01*
X169018112Y-105363822D01*
X177035000Y-113380711D01*
X177035001Y-117483500D01*
X176666368Y-117483500D01*
X176170186Y-117689025D01*
X175790425Y-118068786D01*
X175688827Y-118314065D01*
X175505673Y-118588175D01*
X175419776Y-118716729D01*
X175324701Y-119194700D01*
X175348701Y-119315355D01*
X175348700Y-120400000D01*
X174432867Y-120400000D01*
X173878657Y-120510239D01*
X173250176Y-120930176D01*
X173153408Y-121075000D01*
X172547407Y-121075000D01*
X172402675Y-120725586D01*
X172196274Y-120519185D01*
X172141376Y-120437024D01*
X172059215Y-120382126D01*
X172022914Y-120345825D01*
X172011514Y-120341103D01*
X170661731Y-118991320D01*
X170728556Y-119019000D01*
X171663444Y-119019000D01*
X172527168Y-118661234D01*
X173188234Y-118000168D01*
X173546000Y-117136444D01*
X173546000Y-116201556D01*
X173188234Y-115337832D01*
X172527168Y-114676766D01*
X171663444Y-114319000D01*
X170728556Y-114319000D01*
X169864832Y-114676766D01*
X169203766Y-115337832D01*
X168846000Y-116201556D01*
X168846000Y-117136444D01*
X168873680Y-117203269D01*
X165386700Y-113716290D01*
X165386700Y-107998909D01*
X165511700Y-107697132D01*
X165511700Y-107160068D01*
X165416259Y-106929652D01*
X167919588Y-104426323D01*
X168155944Y-104780056D01*
X168155944Y-104780056D01*
G37*
X168155944Y-104780056D02*
X168519801Y-105023177D01*
X168766695Y-105072287D01*
X168915825Y-105295476D01*
X169018112Y-105363822D01*
X177035000Y-113380711D01*
X177035001Y-117483500D01*
X176666368Y-117483500D01*
X176170186Y-117689025D01*
X175790425Y-118068786D01*
X175688827Y-118314065D01*
X175505673Y-118588175D01*
X175419776Y-118716729D01*
X175324701Y-119194700D01*
X175348701Y-119315355D01*
X175348700Y-120400000D01*
X174432867Y-120400000D01*
X173878657Y-120510239D01*
X173250176Y-120930176D01*
X173153408Y-121075000D01*
X172547407Y-121075000D01*
X172402675Y-120725586D01*
X172196274Y-120519185D01*
X172141376Y-120437024D01*
X172059215Y-120382126D01*
X172022914Y-120345825D01*
X172011514Y-120341103D01*
X170661731Y-118991320D01*
X170728556Y-119019000D01*
X171663444Y-119019000D01*
X172527168Y-118661234D01*
X173188234Y-118000168D01*
X173546000Y-117136444D01*
X173546000Y-116201556D01*
X173188234Y-115337832D01*
X172527168Y-114676766D01*
X171663444Y-114319000D01*
X170728556Y-114319000D01*
X169864832Y-114676766D01*
X169203766Y-115337832D01*
X168846000Y-116201556D01*
X168846000Y-117136444D01*
X168873680Y-117203269D01*
X165386700Y-113716290D01*
X165386700Y-107998909D01*
X165511700Y-107697132D01*
X165511700Y-107160068D01*
X165416259Y-106929652D01*
X167919588Y-104426323D01*
X168155944Y-104780056D01*
G36*
X168584039Y-120378450D02*
X167651600Y-120378450D01*
X167651600Y-119446011D01*
X168584039Y-120378450D01*
X168584039Y-120378450D01*
G37*
X168584039Y-120378450D02*
X167651600Y-120378450D01*
X167651600Y-119446011D01*
X168584039Y-120378450D01*
G36*
X165165686Y-116960096D02*
X165076600Y-117175168D01*
X165076600Y-117712232D01*
X165201600Y-118014010D01*
X165201600Y-118683918D01*
X164809379Y-118421844D01*
X164196829Y-118300000D01*
X163783171Y-118300000D01*
X163695900Y-118317359D01*
X163695900Y-115490310D01*
X165165686Y-116960096D01*
X165165686Y-116960096D01*
G37*
X165165686Y-116960096D02*
X165076600Y-117175168D01*
X165076600Y-117712232D01*
X165201600Y-118014010D01*
X165201600Y-118683918D01*
X164809379Y-118421844D01*
X164196829Y-118300000D01*
X163783171Y-118300000D01*
X163695900Y-118317359D01*
X163695900Y-115490310D01*
X165165686Y-116960096D01*
G36*
X181705001Y-118389147D02*
X181256829Y-118300000D01*
X180843171Y-118300000D01*
X180700700Y-118328339D01*
X180700700Y-87288661D01*
X180843171Y-87317000D01*
X181256829Y-87317000D01*
X181705000Y-87227853D01*
X181705001Y-118389147D01*
X181705001Y-118389147D01*
G37*
X181705001Y-118389147D02*
X181256829Y-118300000D01*
X180843171Y-118300000D01*
X180700700Y-118328339D01*
X180700700Y-87288661D01*
X180843171Y-87317000D01*
X181256829Y-87317000D01*
X181705000Y-87227853D01*
X181705001Y-118389147D01*
G36*
X161965778Y-87715189D02*
X162034124Y-87817476D01*
X162439329Y-88088225D01*
X162796648Y-88159300D01*
X162796649Y-88159300D01*
X162917300Y-88183299D01*
X163037950Y-88159300D01*
X164265401Y-88159300D01*
X164265400Y-92343150D01*
X164241401Y-92463800D01*
X164265400Y-92584450D01*
X164265400Y-92584451D01*
X164336475Y-92941770D01*
X164607224Y-93346976D01*
X164709514Y-93415324D01*
X168846000Y-97551811D01*
X168846000Y-97636444D01*
X169203766Y-98500168D01*
X169792343Y-99088745D01*
X161690012Y-107191078D01*
X161587725Y-107259424D01*
X161316976Y-107664629D01*
X161221901Y-108142600D01*
X161245901Y-108263255D01*
X161245900Y-118278450D01*
X160687000Y-118278450D01*
X160687000Y-87338550D01*
X161450000Y-87338550D01*
X161566055Y-87315465D01*
X161965778Y-87715189D01*
X161965778Y-87715189D01*
G37*
X161965778Y-87715189D02*
X162034124Y-87817476D01*
X162439329Y-88088225D01*
X162796648Y-88159300D01*
X162796649Y-88159300D01*
X162917300Y-88183299D01*
X163037950Y-88159300D01*
X164265401Y-88159300D01*
X164265400Y-92343150D01*
X164241401Y-92463800D01*
X164265400Y-92584450D01*
X164265400Y-92584451D01*
X164336475Y-92941770D01*
X164607224Y-93346976D01*
X164709514Y-93415324D01*
X168846000Y-97551811D01*
X168846000Y-97636444D01*
X169203766Y-98500168D01*
X169792343Y-99088745D01*
X161690012Y-107191078D01*
X161587725Y-107259424D01*
X161316976Y-107664629D01*
X161221901Y-108142600D01*
X161245901Y-108263255D01*
X161245900Y-118278450D01*
X160687000Y-118278450D01*
X160687000Y-87338550D01*
X161450000Y-87338550D01*
X161566055Y-87315465D01*
X161965778Y-87715189D01*
G36*
X178250700Y-111131589D02*
X172206110Y-105087000D01*
X172531054Y-105087000D01*
X173099852Y-104973859D01*
X173744871Y-104542871D01*
X174175859Y-103897852D01*
X174327202Y-103137000D01*
X174175859Y-102376148D01*
X173744871Y-101731129D01*
X173099852Y-101300141D01*
X172531054Y-101187000D01*
X172146946Y-101187000D01*
X171578148Y-101300141D01*
X171365079Y-101442509D01*
X171088324Y-101257588D01*
X171602430Y-100743482D01*
X171778171Y-100708525D01*
X172183376Y-100437776D01*
X172251724Y-100335486D01*
X178250701Y-94336511D01*
X178250700Y-111131589D01*
X178250700Y-111131589D01*
G37*
X178250700Y-111131589D02*
X172206110Y-105087000D01*
X172531054Y-105087000D01*
X173099852Y-104973859D01*
X173744871Y-104542871D01*
X174175859Y-103897852D01*
X174327202Y-103137000D01*
X174175859Y-102376148D01*
X173744871Y-101731129D01*
X173099852Y-101300141D01*
X172531054Y-101187000D01*
X172146946Y-101187000D01*
X171578148Y-101300141D01*
X171365079Y-101442509D01*
X171088324Y-101257588D01*
X171602430Y-100743482D01*
X171778171Y-100708525D01*
X172183376Y-100437776D01*
X172251724Y-100335486D01*
X178250701Y-94336511D01*
X178250700Y-111131589D01*
G36*
X174191810Y-93811820D02*
X174021300Y-94223468D01*
X174021300Y-94760532D01*
X174121047Y-95001342D01*
X173216446Y-95905943D01*
X173188234Y-95837832D01*
X172527168Y-95176766D01*
X171663444Y-94819000D01*
X170728556Y-94819000D01*
X169914998Y-95155987D01*
X168689171Y-93930161D01*
X168709199Y-93926177D01*
X168996079Y-93734491D01*
X169209148Y-93876859D01*
X169777946Y-93990000D01*
X170162054Y-93990000D01*
X170730852Y-93876859D01*
X171240000Y-93536657D01*
X171749148Y-93876859D01*
X172317946Y-93990000D01*
X172702054Y-93990000D01*
X173270852Y-93876859D01*
X173780000Y-93536657D01*
X174191810Y-93811820D01*
X174191810Y-93811820D01*
G37*
X174191810Y-93811820D02*
X174021300Y-94223468D01*
X174021300Y-94760532D01*
X174121047Y-95001342D01*
X173216446Y-95905943D01*
X173188234Y-95837832D01*
X172527168Y-95176766D01*
X171663444Y-94819000D01*
X170728556Y-94819000D01*
X169914998Y-95155987D01*
X168689171Y-93930161D01*
X168709199Y-93926177D01*
X168996079Y-93734491D01*
X169209148Y-93876859D01*
X169777946Y-93990000D01*
X170162054Y-93990000D01*
X170730852Y-93876859D01*
X171240000Y-93536657D01*
X171749148Y-93876859D01*
X172317946Y-93990000D01*
X172702054Y-93990000D01*
X173270852Y-93876859D01*
X173780000Y-93536657D01*
X174191810Y-93811820D01*
G36*
X177510000Y-87338550D02*
X178250701Y-87338550D01*
X178250701Y-88775232D01*
X177912486Y-88915325D01*
X177532725Y-89295086D01*
X177327200Y-89791268D01*
X177327200Y-90328332D01*
X177452201Y-90630111D01*
X177452201Y-90952655D01*
X177244176Y-90641324D01*
X177141891Y-90572980D01*
X176640776Y-90071865D01*
X176515775Y-89770086D01*
X176136014Y-89390325D01*
X175639832Y-89184800D01*
X175102768Y-89184800D01*
X174606586Y-89390325D01*
X174226825Y-89770086D01*
X174021300Y-90266268D01*
X174021300Y-90382111D01*
X173780000Y-90543343D01*
X173270852Y-90203141D01*
X172702054Y-90090000D01*
X172317946Y-90090000D01*
X171749148Y-90203141D01*
X171240000Y-90543343D01*
X170730852Y-90203141D01*
X170162054Y-90090000D01*
X169837111Y-90090000D01*
X172662563Y-87264549D01*
X173000176Y-87769824D01*
X173628657Y-88189761D01*
X174182867Y-88300000D01*
X175357133Y-88300000D01*
X175911343Y-88189761D01*
X176539824Y-87769824D01*
X176908002Y-87218805D01*
X177510000Y-87338550D01*
X177510000Y-87338550D01*
G37*
X177510000Y-87338550D02*
X178250701Y-87338550D01*
X178250701Y-88775232D01*
X177912486Y-88915325D01*
X177532725Y-89295086D01*
X177327200Y-89791268D01*
X177327200Y-90328332D01*
X177452201Y-90630111D01*
X177452201Y-90952655D01*
X177244176Y-90641324D01*
X177141891Y-90572980D01*
X176640776Y-90071865D01*
X176515775Y-89770086D01*
X176136014Y-89390325D01*
X175639832Y-89184800D01*
X175102768Y-89184800D01*
X174606586Y-89390325D01*
X174226825Y-89770086D01*
X174021300Y-90266268D01*
X174021300Y-90382111D01*
X173780000Y-90543343D01*
X173270852Y-90203141D01*
X172702054Y-90090000D01*
X172317946Y-90090000D01*
X171749148Y-90203141D01*
X171240000Y-90543343D01*
X170730852Y-90203141D01*
X170162054Y-90090000D01*
X169837111Y-90090000D01*
X172662563Y-87264549D01*
X173000176Y-87769824D01*
X173628657Y-88189761D01*
X174182867Y-88300000D01*
X175357133Y-88300000D01*
X175911343Y-88189761D01*
X176539824Y-87769824D01*
X176908002Y-87218805D01*
X177510000Y-87338550D01*
G36*
X141680239Y-80578657D02*
X141532777Y-81320000D01*
X141680239Y-82061343D01*
X142033476Y-82590000D01*
X142026792Y-82600003D01*
X141562532Y-82407700D01*
X141025468Y-82407700D01*
X140529286Y-82613225D01*
X140149525Y-82992986D01*
X139944000Y-83489168D01*
X139944000Y-84026232D01*
X140149525Y-84522414D01*
X140529286Y-84902175D01*
X140831066Y-85027176D01*
X141019700Y-85215811D01*
X141019700Y-86279348D01*
X140995701Y-86400000D01*
X141090775Y-86877971D01*
X141361524Y-87283176D01*
X141766729Y-87553925D01*
X141984916Y-87597325D01*
X142070226Y-87725000D01*
X138549774Y-87725000D01*
X138939761Y-87141343D01*
X139087223Y-86400000D01*
X138939761Y-85658657D01*
X138586524Y-85130000D01*
X138635084Y-85057325D01*
X138853271Y-85013925D01*
X139258476Y-84743176D01*
X139529225Y-84337971D01*
X139624299Y-83860000D01*
X139600300Y-83739348D01*
X139600300Y-82648410D01*
X141700749Y-80547961D01*
X141680239Y-80578657D01*
X141680239Y-80578657D01*
G37*
X141680239Y-80578657D02*
X141532777Y-81320000D01*
X141680239Y-82061343D01*
X142033476Y-82590000D01*
X142026792Y-82600003D01*
X141562532Y-82407700D01*
X141025468Y-82407700D01*
X140529286Y-82613225D01*
X140149525Y-82992986D01*
X139944000Y-83489168D01*
X139944000Y-84026232D01*
X140149525Y-84522414D01*
X140529286Y-84902175D01*
X140831066Y-85027176D01*
X141019700Y-85215811D01*
X141019700Y-86279348D01*
X140995701Y-86400000D01*
X141090775Y-86877971D01*
X141361524Y-87283176D01*
X141766729Y-87553925D01*
X141984916Y-87597325D01*
X142070226Y-87725000D01*
X138549774Y-87725000D01*
X138939761Y-87141343D01*
X139087223Y-86400000D01*
X138939761Y-85658657D01*
X138586524Y-85130000D01*
X138635084Y-85057325D01*
X138853271Y-85013925D01*
X139258476Y-84743176D01*
X139529225Y-84337971D01*
X139624299Y-83860000D01*
X139600300Y-83739348D01*
X139600300Y-82648410D01*
X141700749Y-80547961D01*
X141680239Y-80578657D01*
G36*
X210970621Y-87195156D02*
X211583171Y-87317000D01*
X211996829Y-87317000D01*
X212609379Y-87195156D01*
X212693001Y-87139282D01*
X212693001Y-87278878D01*
X212658891Y-87483810D01*
X212606991Y-87579997D01*
X212526734Y-87654185D01*
X212405155Y-87707935D01*
X212270074Y-87725000D01*
X207469774Y-87725000D01*
X207789232Y-87246898D01*
X208250000Y-87338550D01*
X209250000Y-87338550D01*
X209870540Y-87215117D01*
X210396609Y-86863609D01*
X210420628Y-86827662D01*
X210970621Y-87195156D01*
X210970621Y-87195156D01*
G37*
X210970621Y-87195156D02*
X211583171Y-87317000D01*
X211996829Y-87317000D01*
X212609379Y-87195156D01*
X212693001Y-87139282D01*
X212693001Y-87278878D01*
X212658891Y-87483810D01*
X212606991Y-87579997D01*
X212526734Y-87654185D01*
X212405155Y-87707935D01*
X212270074Y-87725000D01*
X207469774Y-87725000D01*
X207789232Y-87246898D01*
X208250000Y-87338550D01*
X209250000Y-87338550D01*
X209870540Y-87215117D01*
X210396609Y-86863609D01*
X210420628Y-86827662D01*
X210970621Y-87195156D01*
G36*
X194170621Y-87195156D02*
X194783171Y-87317000D01*
X195196829Y-87317000D01*
X195809379Y-87195156D01*
X196305062Y-86863951D01*
X196360239Y-87141343D01*
X196750226Y-87725000D01*
X191675000Y-87725000D01*
X191675000Y-87338550D01*
X192450000Y-87338550D01*
X193070540Y-87215117D01*
X193596609Y-86863609D01*
X193620628Y-86827662D01*
X194170621Y-87195156D01*
X194170621Y-87195156D01*
G37*
X194170621Y-87195156D02*
X194783171Y-87317000D01*
X195196829Y-87317000D01*
X195809379Y-87195156D01*
X196305062Y-86863951D01*
X196360239Y-87141343D01*
X196750226Y-87725000D01*
X191675000Y-87725000D01*
X191675000Y-87338550D01*
X192450000Y-87338550D01*
X193070540Y-87215117D01*
X193596609Y-86863609D01*
X193620628Y-86827662D01*
X194170621Y-87195156D01*
G36*
X203332777Y-86400000D02*
X203480239Y-87141343D01*
X203870226Y-87725000D01*
X200349774Y-87725000D01*
X200435084Y-87597325D01*
X200653271Y-87553925D01*
X201058476Y-87283176D01*
X201126823Y-87180887D01*
X201952611Y-86355100D01*
X203341708Y-86355100D01*
X203332777Y-86400000D01*
X203332777Y-86400000D01*
G37*
X203332777Y-86400000D02*
X203480239Y-87141343D01*
X203870226Y-87725000D01*
X200349774Y-87725000D01*
X200435084Y-87597325D01*
X200653271Y-87553925D01*
X201058476Y-87283176D01*
X201126823Y-87180887D01*
X201952611Y-86355100D01*
X203341708Y-86355100D01*
X203332777Y-86400000D01*
G36*
X130886678Y-87436089D02*
X130955024Y-87538376D01*
X131234327Y-87725000D01*
X130145116Y-87725000D01*
X129940190Y-87690891D01*
X129844003Y-87638991D01*
X129769815Y-87558734D01*
X129716065Y-87437155D01*
X129703608Y-87338550D01*
X130533000Y-87338550D01*
X130746643Y-87296054D01*
X130886678Y-87436089D01*
X130886678Y-87436089D01*
G37*
X130886678Y-87436089D02*
X130955024Y-87538376D01*
X131234327Y-87725000D01*
X130145116Y-87725000D01*
X129940190Y-87690891D01*
X129844003Y-87638991D01*
X129769815Y-87558734D01*
X129716065Y-87437155D01*
X129703608Y-87338550D01*
X130533000Y-87338550D01*
X130746643Y-87296054D01*
X130886678Y-87436089D01*
G36*
X149230621Y-87195156D02*
X149843171Y-87317000D01*
X150256829Y-87317000D01*
X150717001Y-87225466D01*
X150717001Y-87725000D01*
X145669774Y-87725000D01*
X145996271Y-87236363D01*
X146510000Y-87338550D01*
X147510000Y-87338550D01*
X148130540Y-87215117D01*
X148656609Y-86863609D01*
X148680628Y-86827662D01*
X149230621Y-87195156D01*
X149230621Y-87195156D01*
G37*
X149230621Y-87195156D02*
X149843171Y-87317000D01*
X150256829Y-87317000D01*
X150717001Y-87225466D01*
X150717001Y-87725000D01*
X145669774Y-87725000D01*
X145996271Y-87236363D01*
X146510000Y-87338550D01*
X147510000Y-87338550D01*
X148130540Y-87215117D01*
X148656609Y-86863609D01*
X148680628Y-86827662D01*
X149230621Y-87195156D01*
G36*
X203332777Y-83860000D02*
X203341748Y-83905100D01*
X201565850Y-83905100D01*
X201445200Y-83881101D01*
X201324549Y-83905100D01*
X201324548Y-83905100D01*
X200967229Y-83976175D01*
X200848309Y-84055635D01*
X200887223Y-83860000D01*
X200878272Y-83815000D01*
X202654050Y-83815000D01*
X202774700Y-83838999D01*
X202895350Y-83815000D01*
X202895352Y-83815000D01*
X203252671Y-83743925D01*
X203371683Y-83664403D01*
X203332777Y-83860000D01*
X203332777Y-83860000D01*
G37*
X203332777Y-83860000D02*
X203341748Y-83905100D01*
X201565850Y-83905100D01*
X201445200Y-83881101D01*
X201324549Y-83905100D01*
X201324548Y-83905100D01*
X200967229Y-83976175D01*
X200848309Y-84055635D01*
X200887223Y-83860000D01*
X200878272Y-83815000D01*
X202654050Y-83815000D01*
X202774700Y-83838999D01*
X202895350Y-83815000D01*
X202895352Y-83815000D01*
X203252671Y-83743925D01*
X203371683Y-83664403D01*
X203332777Y-83860000D01*
G36*
X134560239Y-80578657D02*
X134412777Y-81320000D01*
X134560239Y-82061343D01*
X134913476Y-82590000D01*
X134560239Y-83118657D01*
X134460786Y-83618642D01*
X134048000Y-83342827D01*
X134048000Y-81017210D01*
X134708617Y-80356593D01*
X134560239Y-80578657D01*
X134560239Y-80578657D01*
G37*
X134560239Y-80578657D02*
X134412777Y-81320000D01*
X134560239Y-82061343D01*
X134913476Y-82590000D01*
X134560239Y-83118657D01*
X134460786Y-83618642D01*
X134048000Y-83342827D01*
X134048000Y-81017210D01*
X134708617Y-80356593D01*
X134560239Y-80578657D01*
G36*
X150717001Y-83208534D02*
X150256829Y-83117000D01*
X149843171Y-83117000D01*
X149230621Y-83238844D01*
X148680628Y-83606338D01*
X148656609Y-83570391D01*
X148130540Y-83218883D01*
X147510000Y-83095450D01*
X146510000Y-83095450D01*
X146072457Y-83182483D01*
X146059761Y-83118657D01*
X145706524Y-82590000D01*
X145755084Y-82517325D01*
X145973271Y-82473925D01*
X146378476Y-82203176D01*
X146446824Y-82100886D01*
X150652411Y-77895300D01*
X150717000Y-77895300D01*
X150717001Y-83208534D01*
X150717001Y-83208534D01*
G37*
X150717001Y-83208534D02*
X150256829Y-83117000D01*
X149843171Y-83117000D01*
X149230621Y-83238844D01*
X148680628Y-83606338D01*
X148656609Y-83570391D01*
X148130540Y-83218883D01*
X147510000Y-83095450D01*
X146510000Y-83095450D01*
X146072457Y-83182483D01*
X146059761Y-83118657D01*
X145706524Y-82590000D01*
X145755084Y-82517325D01*
X145973271Y-82473925D01*
X146378476Y-82203176D01*
X146446824Y-82100886D01*
X150652411Y-77895300D01*
X150717000Y-77895300D01*
X150717001Y-83208534D01*
G36*
X196385716Y-83080527D02*
X196360239Y-83118657D01*
X196274512Y-83549636D01*
X195809379Y-83238844D01*
X195196829Y-83117000D01*
X194783171Y-83117000D01*
X194170621Y-83238844D01*
X193620628Y-83606338D01*
X193596609Y-83570391D01*
X193070540Y-83218883D01*
X192450000Y-83095450D01*
X191675000Y-83095450D01*
X191675000Y-78369810D01*
X196385716Y-83080527D01*
X196385716Y-83080527D01*
G37*
X196385716Y-83080527D02*
X196360239Y-83118657D01*
X196274512Y-83549636D01*
X195809379Y-83238844D01*
X195196829Y-83117000D01*
X194783171Y-83117000D01*
X194170621Y-83238844D01*
X193620628Y-83606338D01*
X193596609Y-83570391D01*
X193070540Y-83218883D01*
X192450000Y-83095450D01*
X191675000Y-83095450D01*
X191675000Y-78369810D01*
X196385716Y-83080527D01*
G36*
X210315000Y-80428711D02*
X210315001Y-83515862D01*
X209870540Y-83218883D01*
X209250000Y-83095450D01*
X208250000Y-83095450D01*
X207870173Y-83171002D01*
X207859761Y-83118657D01*
X207506524Y-82590000D01*
X207859761Y-82061343D01*
X208007223Y-81320000D01*
X207859761Y-80578657D01*
X207506524Y-80050000D01*
X207859761Y-79521343D01*
X208007223Y-78780000D01*
X207859761Y-78038657D01*
X207728499Y-77842210D01*
X210315000Y-80428711D01*
X210315000Y-80428711D01*
G37*
X210315000Y-80428711D02*
X210315001Y-83515862D01*
X209870540Y-83218883D01*
X209250000Y-83095450D01*
X208250000Y-83095450D01*
X207870173Y-83171002D01*
X207859761Y-83118657D01*
X207506524Y-82590000D01*
X207859761Y-82061343D01*
X208007223Y-81320000D01*
X207859761Y-80578657D01*
X207506524Y-80050000D01*
X207859761Y-79521343D01*
X208007223Y-78780000D01*
X207859761Y-78038657D01*
X207728499Y-77842210D01*
X210315000Y-80428711D01*
G36*
X181705000Y-83206147D02*
X181256829Y-83117000D01*
X180843171Y-83117000D01*
X180230621Y-83238844D01*
X180183824Y-83270113D01*
X178741910Y-81828200D01*
X181705000Y-78865111D01*
X181705000Y-83206147D01*
X181705000Y-83206147D01*
G37*
X181705000Y-83206147D02*
X181256829Y-83117000D01*
X180843171Y-83117000D01*
X180230621Y-83238844D01*
X180183824Y-83270113D01*
X178741910Y-81828200D01*
X181705000Y-78865111D01*
X181705000Y-83206147D01*
G36*
X162333000Y-81301211D02*
X161975925Y-81658286D01*
X161770400Y-82154468D01*
X161770400Y-82691532D01*
X161975925Y-83187714D01*
X161991340Y-83203129D01*
X161450000Y-83095450D01*
X160687000Y-83095450D01*
X160687000Y-79655210D01*
X162333000Y-81301211D01*
X162333000Y-81301211D01*
G37*
X162333000Y-81301211D02*
X161975925Y-81658286D01*
X161770400Y-82154468D01*
X161770400Y-82691532D01*
X161975925Y-83187714D01*
X161991340Y-83203129D01*
X161450000Y-83095450D01*
X160687000Y-83095450D01*
X160687000Y-79655210D01*
X162333000Y-81301211D01*
G36*
X203093180Y-79560892D02*
X203161524Y-79663176D01*
X203566729Y-79933925D01*
X203784916Y-79977325D01*
X203833476Y-80050000D01*
X203784916Y-80122675D01*
X203566729Y-80166075D01*
X203161524Y-80436824D01*
X203093180Y-80539108D01*
X202267289Y-81365000D01*
X200878272Y-81365000D01*
X200887223Y-81320000D01*
X200739761Y-80578657D01*
X200386524Y-80050000D01*
X200739761Y-79521343D01*
X200887223Y-78780000D01*
X200878272Y-78735000D01*
X202267289Y-78735000D01*
X203093180Y-79560892D01*
X203093180Y-79560892D01*
G37*
X203093180Y-79560892D02*
X203161524Y-79663176D01*
X203566729Y-79933925D01*
X203784916Y-79977325D01*
X203833476Y-80050000D01*
X203784916Y-80122675D01*
X203566729Y-80166075D01*
X203161524Y-80436824D01*
X203093180Y-80539108D01*
X202267289Y-81365000D01*
X200878272Y-81365000D01*
X200887223Y-81320000D01*
X200739761Y-80578657D01*
X200386524Y-80050000D01*
X200739761Y-79521343D01*
X200887223Y-78780000D01*
X200878272Y-78735000D01*
X202267289Y-78735000D01*
X203093180Y-79560892D01*
G36*
X170199180Y-79560892D02*
X170267524Y-79663176D01*
X170672729Y-79933925D01*
X171030048Y-80005000D01*
X171030049Y-80005000D01*
X171150699Y-80028999D01*
X171271350Y-80005000D01*
X172903408Y-80005000D01*
X172933476Y-80050000D01*
X172903408Y-80095000D01*
X172075950Y-80095000D01*
X171955299Y-80071001D01*
X171834649Y-80095000D01*
X171834648Y-80095000D01*
X171477329Y-80166075D01*
X171072124Y-80436824D01*
X171003780Y-80539108D01*
X170177889Y-81365000D01*
X169978272Y-81365000D01*
X169987223Y-81320000D01*
X169839761Y-80578657D01*
X169486524Y-80050000D01*
X169839761Y-79521343D01*
X169892831Y-79254542D01*
X170199180Y-79560892D01*
X170199180Y-79560892D01*
G37*
X170199180Y-79560892D02*
X170267524Y-79663176D01*
X170672729Y-79933925D01*
X171030048Y-80005000D01*
X171030049Y-80005000D01*
X171150699Y-80028999D01*
X171271350Y-80005000D01*
X172903408Y-80005000D01*
X172933476Y-80050000D01*
X172903408Y-80095000D01*
X172075950Y-80095000D01*
X171955299Y-80071001D01*
X171834649Y-80095000D01*
X171834648Y-80095000D01*
X171477329Y-80166075D01*
X171072124Y-80436824D01*
X171003780Y-80539108D01*
X170177889Y-81365000D01*
X169978272Y-81365000D01*
X169987223Y-81320000D01*
X169839761Y-80578657D01*
X169486524Y-80050000D01*
X169839761Y-79521343D01*
X169892831Y-79254542D01*
X170199180Y-79560892D01*
G36*
X134913476Y-74970000D02*
X134560239Y-75498657D01*
X134412777Y-76240000D01*
X134560239Y-76981343D01*
X134583794Y-77016595D01*
X132042114Y-79558276D01*
X131939824Y-79626624D01*
X131669075Y-80031830D01*
X131642372Y-80166076D01*
X131625000Y-80253412D01*
X131625000Y-75361274D01*
X131796609Y-75246609D01*
X131820628Y-75210662D01*
X132370621Y-75578156D01*
X132983171Y-75700000D01*
X133396829Y-75700000D01*
X134009379Y-75578156D01*
X134704015Y-75114015D01*
X134856859Y-74885267D01*
X134913476Y-74970000D01*
X134913476Y-74970000D01*
G37*
X134913476Y-74970000D02*
X134560239Y-75498657D01*
X134412777Y-76240000D01*
X134560239Y-76981343D01*
X134583794Y-77016595D01*
X132042114Y-79558276D01*
X131939824Y-79626624D01*
X131669075Y-80031830D01*
X131642372Y-80166076D01*
X131625000Y-80253412D01*
X131625000Y-75361274D01*
X131796609Y-75246609D01*
X131820628Y-75210662D01*
X132370621Y-75578156D01*
X132983171Y-75700000D01*
X133396829Y-75700000D01*
X134009379Y-75578156D01*
X134704015Y-75114015D01*
X134856859Y-74885267D01*
X134913476Y-74970000D01*
G36*
X176945861Y-80159429D02*
X176638836Y-80098358D01*
X176606524Y-80050000D01*
X176655084Y-79977325D01*
X176873271Y-79933925D01*
X177278476Y-79663176D01*
X177346823Y-79560887D01*
X179612812Y-77294900D01*
X179810389Y-77294900D01*
X176945861Y-80159429D01*
X176945861Y-80159429D01*
G37*
X176945861Y-80159429D02*
X176638836Y-80098358D01*
X176606524Y-80050000D01*
X176655084Y-79977325D01*
X176873271Y-79933925D01*
X177278476Y-79663176D01*
X177346823Y-79560887D01*
X179612812Y-77294900D01*
X179810389Y-77294900D01*
X176945861Y-80159429D01*
G36*
X196212777Y-78780000D02*
X196360239Y-79521343D01*
X196498951Y-79728940D01*
X195505010Y-78735000D01*
X196221728Y-78735000D01*
X196212777Y-78780000D01*
X196212777Y-78780000D01*
G37*
X196212777Y-78780000D02*
X196360239Y-79521343D01*
X196498951Y-79728940D01*
X195505010Y-78735000D01*
X196221728Y-78735000D01*
X196212777Y-78780000D01*
G36*
X210970621Y-75578156D02*
X211583171Y-75700000D01*
X211996829Y-75700000D01*
X212609379Y-75578156D01*
X212693001Y-75522282D01*
X212693001Y-79441945D01*
X212570073Y-79257971D01*
X212423176Y-79038124D01*
X212320890Y-78969779D01*
X209072660Y-75721550D01*
X209250000Y-75721550D01*
X209870540Y-75598117D01*
X210396609Y-75246609D01*
X210420628Y-75210662D01*
X210970621Y-75578156D01*
X210970621Y-75578156D01*
G37*
X210970621Y-75578156D02*
X211583171Y-75700000D01*
X211996829Y-75700000D01*
X212609379Y-75578156D01*
X212693001Y-75522282D01*
X212693001Y-79441945D01*
X212570073Y-79257971D01*
X212423176Y-79038124D01*
X212320890Y-78969779D01*
X209072660Y-75721550D01*
X209250000Y-75721550D01*
X209870540Y-75598117D01*
X210396609Y-75246609D01*
X210420628Y-75210662D01*
X210970621Y-75578156D01*
G36*
X172933476Y-77510000D02*
X172903408Y-77555000D01*
X172848111Y-77555000D01*
X172917308Y-77485803D01*
X172933476Y-77510000D01*
X172933476Y-77510000D01*
G37*
X172933476Y-77510000D02*
X172903408Y-77555000D01*
X172848111Y-77555000D01*
X172917308Y-77485803D01*
X172933476Y-77510000D01*
G36*
X202357290Y-76285000D02*
X200878272Y-76285000D01*
X200887223Y-76240000D01*
X200880838Y-76207900D01*
X202280190Y-76207900D01*
X202357290Y-76285000D01*
X202357290Y-76285000D01*
G37*
X202357290Y-76285000D02*
X200878272Y-76285000D01*
X200887223Y-76240000D01*
X200880838Y-76207900D01*
X202280190Y-76207900D01*
X202357290Y-76285000D01*
G36*
X196212777Y-71160000D02*
X196360239Y-71901343D01*
X196467157Y-72061357D01*
X195809379Y-71621844D01*
X195196829Y-71500000D01*
X194783171Y-71500000D01*
X194170621Y-71621844D01*
X193620628Y-71989338D01*
X193596609Y-71953391D01*
X193070540Y-71601883D01*
X192450000Y-71478450D01*
X191450000Y-71478450D01*
X190829460Y-71601883D01*
X190303391Y-71953391D01*
X189951883Y-72479460D01*
X189923218Y-72623570D01*
X189564015Y-72085985D01*
X188869379Y-71621844D01*
X188256829Y-71500000D01*
X187843171Y-71500000D01*
X187230621Y-71621844D01*
X186680628Y-71989338D01*
X186656609Y-71953391D01*
X186130540Y-71601883D01*
X185510000Y-71478450D01*
X184870860Y-71478450D01*
X184786124Y-71393713D01*
X184717776Y-71291424D01*
X184409140Y-71085200D01*
X196227656Y-71085200D01*
X196212777Y-71160000D01*
X196212777Y-71160000D01*
G37*
X196212777Y-71160000D02*
X196360239Y-71901343D01*
X196467157Y-72061357D01*
X195809379Y-71621844D01*
X195196829Y-71500000D01*
X194783171Y-71500000D01*
X194170621Y-71621844D01*
X193620628Y-71989338D01*
X193596609Y-71953391D01*
X193070540Y-71601883D01*
X192450000Y-71478450D01*
X191450000Y-71478450D01*
X190829460Y-71601883D01*
X190303391Y-71953391D01*
X189951883Y-72479460D01*
X189923218Y-72623570D01*
X189564015Y-72085985D01*
X188869379Y-71621844D01*
X188256829Y-71500000D01*
X187843171Y-71500000D01*
X187230621Y-71621844D01*
X186680628Y-71989338D01*
X186656609Y-71953391D01*
X186130540Y-71601883D01*
X185510000Y-71478450D01*
X184870860Y-71478450D01*
X184786124Y-71393713D01*
X184717776Y-71291424D01*
X184409140Y-71085200D01*
X196227656Y-71085200D01*
X196212777Y-71160000D01*
G36*
X165312777Y-71160000D02*
X165460239Y-71901343D01*
X165813476Y-72430000D01*
X165773677Y-72489563D01*
X165504015Y-72085985D01*
X164809379Y-71621844D01*
X164196829Y-71500000D01*
X163783171Y-71500000D01*
X163170621Y-71621844D01*
X162620628Y-71989338D01*
X162596609Y-71953391D01*
X162070540Y-71601883D01*
X161450000Y-71478450D01*
X160450000Y-71478450D01*
X159829460Y-71601883D01*
X159303391Y-71953391D01*
X158951883Y-72479460D01*
X158923218Y-72623570D01*
X158564015Y-72085985D01*
X158388201Y-71968510D01*
X159231512Y-71125200D01*
X165319699Y-71125200D01*
X165312777Y-71160000D01*
X165312777Y-71160000D01*
G37*
X165312777Y-71160000D02*
X165460239Y-71901343D01*
X165813476Y-72430000D01*
X165773677Y-72489563D01*
X165504015Y-72085985D01*
X164809379Y-71621844D01*
X164196829Y-71500000D01*
X163783171Y-71500000D01*
X163170621Y-71621844D01*
X162620628Y-71989338D01*
X162596609Y-71953391D01*
X162070540Y-71601883D01*
X161450000Y-71478450D01*
X160450000Y-71478450D01*
X159829460Y-71601883D01*
X159303391Y-71953391D01*
X158951883Y-72479460D01*
X158923218Y-72623570D01*
X158564015Y-72085985D01*
X158388201Y-71968510D01*
X159231512Y-71125200D01*
X165319699Y-71125200D01*
X165312777Y-71160000D01*
G36*
X203332777Y-71160000D02*
X203480239Y-71901343D01*
X203833476Y-72430000D01*
X203766693Y-72529948D01*
X203490452Y-72475000D01*
X203490450Y-72475000D01*
X203369800Y-72451001D01*
X203249150Y-72475000D01*
X200416592Y-72475000D01*
X200386524Y-72430000D01*
X200435084Y-72357325D01*
X200653271Y-72313925D01*
X201058476Y-72043176D01*
X201126823Y-71940887D01*
X201952711Y-71115000D01*
X203341728Y-71115000D01*
X203332777Y-71160000D01*
X203332777Y-71160000D01*
G37*
X203332777Y-71160000D02*
X203480239Y-71901343D01*
X203833476Y-72430000D01*
X203766693Y-72529948D01*
X203490452Y-72475000D01*
X203490450Y-72475000D01*
X203369800Y-72451001D01*
X203249150Y-72475000D01*
X200416592Y-72475000D01*
X200386524Y-72430000D01*
X200435084Y-72357325D01*
X200653271Y-72313925D01*
X201058476Y-72043176D01*
X201126823Y-71940887D01*
X201952711Y-71115000D01*
X203341728Y-71115000D01*
X203332777Y-71160000D01*
G36*
X151491360Y-72077529D02*
X150809379Y-71621844D01*
X150196829Y-71500000D01*
X149783171Y-71500000D01*
X149170621Y-71621844D01*
X148620628Y-71989338D01*
X148596609Y-71953391D01*
X148208048Y-71693763D01*
X153227111Y-66674700D01*
X156894188Y-66674700D01*
X151491360Y-72077529D01*
X151491360Y-72077529D01*
G37*
X151491360Y-72077529D02*
X150809379Y-71621844D01*
X150196829Y-71500000D01*
X149783171Y-71500000D01*
X149170621Y-71621844D01*
X148620628Y-71989338D01*
X148596609Y-71953391D01*
X148208048Y-71693763D01*
X153227111Y-66674700D01*
X156894188Y-66674700D01*
X151491360Y-72077529D01*
G36*
X139338450Y-58500000D02*
X139461883Y-59120540D01*
X139813391Y-59646609D01*
X140339460Y-59998117D01*
X140960000Y-60121550D01*
X141960000Y-60121550D01*
X142580540Y-59998117D01*
X143106609Y-59646609D01*
X143130628Y-59610662D01*
X143680621Y-59978156D01*
X144293171Y-60100000D01*
X144706829Y-60100000D01*
X145319379Y-59978156D01*
X146014015Y-59514015D01*
X146478156Y-58819379D01*
X146641141Y-58000000D01*
X146595311Y-57769600D01*
X150558450Y-57769600D01*
X150558450Y-58500000D01*
X150681883Y-59120540D01*
X151033391Y-59646609D01*
X151559460Y-59998117D01*
X152180000Y-60121550D01*
X153041339Y-60121550D01*
X145749128Y-67413762D01*
X145639824Y-67250176D01*
X145011343Y-66830239D01*
X144457133Y-66720000D01*
X143282867Y-66720000D01*
X142728657Y-66830239D01*
X142100176Y-67250176D01*
X141680239Y-67878657D01*
X141532777Y-68620000D01*
X141655735Y-69238153D01*
X138833469Y-72060420D01*
X138939761Y-71901343D01*
X139087223Y-71160000D01*
X138939761Y-70418657D01*
X138772719Y-70168661D01*
X138986177Y-69849199D01*
X139071550Y-69420000D01*
X139071550Y-67820000D01*
X138986177Y-67390801D01*
X138743056Y-67026944D01*
X138379199Y-66783823D01*
X137950000Y-66698450D01*
X136349700Y-66698450D01*
X136349700Y-61670652D01*
X136373699Y-61550000D01*
X136278625Y-61072028D01*
X136168009Y-60906481D01*
X136007876Y-60666824D01*
X135905589Y-60598478D01*
X134786890Y-59479780D01*
X135228156Y-58819379D01*
X135391141Y-58000000D01*
X135342706Y-57756500D01*
X139338450Y-57756500D01*
X139338450Y-58500000D01*
X139338450Y-58500000D01*
G37*
X139338450Y-58500000D02*
X139461883Y-59120540D01*
X139813391Y-59646609D01*
X140339460Y-59998117D01*
X140960000Y-60121550D01*
X141960000Y-60121550D01*
X142580540Y-59998117D01*
X143106609Y-59646609D01*
X143130628Y-59610662D01*
X143680621Y-59978156D01*
X144293171Y-60100000D01*
X144706829Y-60100000D01*
X145319379Y-59978156D01*
X146014015Y-59514015D01*
X146478156Y-58819379D01*
X146641141Y-58000000D01*
X146595311Y-57769600D01*
X150558450Y-57769600D01*
X150558450Y-58500000D01*
X150681883Y-59120540D01*
X151033391Y-59646609D01*
X151559460Y-59998117D01*
X152180000Y-60121550D01*
X153041339Y-60121550D01*
X145749128Y-67413762D01*
X145639824Y-67250176D01*
X145011343Y-66830239D01*
X144457133Y-66720000D01*
X143282867Y-66720000D01*
X142728657Y-66830239D01*
X142100176Y-67250176D01*
X141680239Y-67878657D01*
X141532777Y-68620000D01*
X141655735Y-69238153D01*
X138833469Y-72060420D01*
X138939761Y-71901343D01*
X139087223Y-71160000D01*
X138939761Y-70418657D01*
X138772719Y-70168661D01*
X138986177Y-69849199D01*
X139071550Y-69420000D01*
X139071550Y-67820000D01*
X138986177Y-67390801D01*
X138743056Y-67026944D01*
X138379199Y-66783823D01*
X137950000Y-66698450D01*
X136349700Y-66698450D01*
X136349700Y-61670652D01*
X136373699Y-61550000D01*
X136278625Y-61072028D01*
X136168009Y-60906481D01*
X136007876Y-60666824D01*
X135905589Y-60598478D01*
X134786890Y-59479780D01*
X135228156Y-58819379D01*
X135391141Y-58000000D01*
X135342706Y-57756500D01*
X139338450Y-57756500D01*
X139338450Y-58500000D01*
G36*
X131846076Y-59903271D02*
X132116825Y-60308476D01*
X132219111Y-60376822D01*
X133899701Y-62057412D01*
X133899700Y-71039348D01*
X133875701Y-71160000D01*
X133965845Y-71613184D01*
X133396829Y-71500000D01*
X132983171Y-71500000D01*
X132370621Y-71621844D01*
X131820628Y-71989338D01*
X131796609Y-71953391D01*
X131270540Y-71601883D01*
X130650000Y-71478450D01*
X129699000Y-71478450D01*
X129699000Y-60119362D01*
X129710000Y-60121550D01*
X130710000Y-60121550D01*
X131330540Y-59998117D01*
X131802247Y-59682932D01*
X131846076Y-59903271D01*
X131846076Y-59903271D01*
G37*
X131846076Y-59903271D02*
X132116825Y-60308476D01*
X132219111Y-60376822D01*
X133899701Y-62057412D01*
X133899700Y-71039348D01*
X133875701Y-71160000D01*
X133965845Y-71613184D01*
X133396829Y-71500000D01*
X132983171Y-71500000D01*
X132370621Y-71621844D01*
X131820628Y-71989338D01*
X131796609Y-71953391D01*
X131270540Y-71601883D01*
X130650000Y-71478450D01*
X129699000Y-71478450D01*
X129699000Y-60119362D01*
X129710000Y-60121550D01*
X130710000Y-60121550D01*
X131330540Y-59998117D01*
X131802247Y-59682932D01*
X131846076Y-59903271D01*
G36*
X212693001Y-71677718D02*
X212609379Y-71621844D01*
X211996829Y-71500000D01*
X211583171Y-71500000D01*
X210970621Y-71621844D01*
X210901764Y-71667853D01*
X208343024Y-69109114D01*
X208274676Y-69006824D01*
X207970682Y-68803702D01*
X208007223Y-68620000D01*
X207859761Y-67878657D01*
X207439824Y-67250176D01*
X206811343Y-66830239D01*
X206257133Y-66720000D01*
X205082867Y-66720000D01*
X204528657Y-66830239D01*
X203900176Y-67250176D01*
X203803408Y-67395000D01*
X203438910Y-67395000D01*
X210901764Y-59932147D01*
X210970621Y-59978156D01*
X211583171Y-60100000D01*
X211996829Y-60100000D01*
X212609379Y-59978156D01*
X212693000Y-59922282D01*
X212693001Y-71677718D01*
X212693001Y-71677718D01*
G37*
X212693001Y-71677718D02*
X212609379Y-71621844D01*
X211996829Y-71500000D01*
X211583171Y-71500000D01*
X210970621Y-71621844D01*
X210901764Y-71667853D01*
X208343024Y-69109114D01*
X208274676Y-69006824D01*
X207970682Y-68803702D01*
X208007223Y-68620000D01*
X207859761Y-67878657D01*
X207439824Y-67250176D01*
X206811343Y-66830239D01*
X206257133Y-66720000D01*
X205082867Y-66720000D01*
X204528657Y-66830239D01*
X203900176Y-67250176D01*
X203803408Y-67395000D01*
X203438910Y-67395000D01*
X210901764Y-59932147D01*
X210970621Y-59978156D01*
X211583171Y-60100000D01*
X211996829Y-60100000D01*
X212609379Y-59978156D01*
X212693000Y-59922282D01*
X212693001Y-71677718D01*
G36*
X172580239Y-67878657D02*
X172432777Y-68620000D01*
X172580239Y-69361343D01*
X172933476Y-69890000D01*
X172884916Y-69962675D01*
X172666729Y-70006075D01*
X172261524Y-70276824D01*
X172193178Y-70379111D01*
X170963500Y-71608789D01*
X170963500Y-71165450D01*
X170987499Y-71044800D01*
X170947064Y-70841519D01*
X170892425Y-70566829D01*
X170621676Y-70161624D01*
X170519389Y-70093278D01*
X169950738Y-69524628D01*
X169971550Y-69420000D01*
X169971550Y-67820000D01*
X169955378Y-67738700D01*
X172673755Y-67738700D01*
X172580239Y-67878657D01*
X172580239Y-67878657D01*
G37*
X172580239Y-67878657D02*
X172432777Y-68620000D01*
X172580239Y-69361343D01*
X172933476Y-69890000D01*
X172884916Y-69962675D01*
X172666729Y-70006075D01*
X172261524Y-70276824D01*
X172193178Y-70379111D01*
X170963500Y-71608789D01*
X170963500Y-71165450D01*
X170987499Y-71044800D01*
X170947064Y-70841519D01*
X170892425Y-70566829D01*
X170621676Y-70161624D01*
X170519389Y-70093278D01*
X169950738Y-69524628D01*
X169971550Y-69420000D01*
X169971550Y-67820000D01*
X169955378Y-67738700D01*
X172673755Y-67738700D01*
X172580239Y-67878657D01*
G36*
X177157529Y-71014125D02*
X177514848Y-71085200D01*
X177514849Y-71085200D01*
X177635500Y-71109199D01*
X177756150Y-71085200D01*
X179110860Y-71085200D01*
X178802224Y-71291424D01*
X178733878Y-71393711D01*
X178626055Y-71501535D01*
X178510000Y-71478450D01*
X177510000Y-71478450D01*
X177024677Y-71574987D01*
X177107223Y-71160000D01*
X177066048Y-70953000D01*
X177157529Y-71014125D01*
X177157529Y-71014125D01*
G37*
X177157529Y-71014125D02*
X177514848Y-71085200D01*
X177514849Y-71085200D01*
X177635500Y-71109199D01*
X177756150Y-71085200D01*
X179110860Y-71085200D01*
X178802224Y-71291424D01*
X178733878Y-71393711D01*
X178626055Y-71501535D01*
X178510000Y-71478450D01*
X177510000Y-71478450D01*
X177024677Y-71574987D01*
X177107223Y-71160000D01*
X177066048Y-70953000D01*
X177157529Y-71014125D01*
G36*
X165328450Y-67820000D02*
X165328450Y-68675200D01*
X158844750Y-68675200D01*
X158724099Y-68651201D01*
X158603449Y-68675200D01*
X158603448Y-68675200D01*
X158297693Y-68736018D01*
X159295012Y-67738700D01*
X165344622Y-67738700D01*
X165328450Y-67820000D01*
X165328450Y-67820000D01*
G37*
X165328450Y-67820000D02*
X165328450Y-68675200D01*
X158844750Y-68675200D01*
X158724099Y-68651201D01*
X158603449Y-68675200D01*
X158603448Y-68675200D01*
X158297693Y-68736018D01*
X159295012Y-67738700D01*
X165344622Y-67738700D01*
X165328450Y-67820000D01*
G36*
X206628450Y-58500000D02*
X206751883Y-59120540D01*
X207103391Y-59646609D01*
X207474507Y-59894581D01*
X200422619Y-66946471D01*
X200179199Y-66783823D01*
X199750000Y-66698450D01*
X197350000Y-66698450D01*
X196920801Y-66783823D01*
X196556944Y-67026944D01*
X196313823Y-67390801D01*
X196228450Y-67820000D01*
X196228450Y-68635200D01*
X178142911Y-68635200D01*
X177346823Y-67839113D01*
X177279730Y-67738700D01*
X179057150Y-67738700D01*
X179177800Y-67762699D01*
X179298450Y-67738700D01*
X179298452Y-67738700D01*
X179655771Y-67667625D01*
X180060976Y-67396876D01*
X180129324Y-67294586D01*
X187491764Y-59932147D01*
X187560621Y-59978156D01*
X188173171Y-60100000D01*
X188586829Y-60100000D01*
X189199379Y-59978156D01*
X189894015Y-59514015D01*
X190358156Y-58819379D01*
X190521141Y-58000000D01*
X190481279Y-57799600D01*
X195438450Y-57799600D01*
X195438450Y-58500000D01*
X195561883Y-59120540D01*
X195913391Y-59646609D01*
X196439460Y-59998117D01*
X197060000Y-60121550D01*
X198060000Y-60121550D01*
X198680540Y-59998117D01*
X199206609Y-59646609D01*
X199230628Y-59610662D01*
X199780621Y-59978156D01*
X200393171Y-60100000D01*
X200806829Y-60100000D01*
X201419379Y-59978156D01*
X202114015Y-59514015D01*
X202578156Y-58819379D01*
X202741141Y-58000000D01*
X202695729Y-57771700D01*
X206628450Y-57771700D01*
X206628450Y-58500000D01*
X206628450Y-58500000D01*
G37*
X206628450Y-58500000D02*
X206751883Y-59120540D01*
X207103391Y-59646609D01*
X207474507Y-59894581D01*
X200422619Y-66946471D01*
X200179199Y-66783823D01*
X199750000Y-66698450D01*
X197350000Y-66698450D01*
X196920801Y-66783823D01*
X196556944Y-67026944D01*
X196313823Y-67390801D01*
X196228450Y-67820000D01*
X196228450Y-68635200D01*
X178142911Y-68635200D01*
X177346823Y-67839113D01*
X177279730Y-67738700D01*
X179057150Y-67738700D01*
X179177800Y-67762699D01*
X179298450Y-67738700D01*
X179298452Y-67738700D01*
X179655771Y-67667625D01*
X180060976Y-67396876D01*
X180129324Y-67294586D01*
X187491764Y-59932147D01*
X187560621Y-59978156D01*
X188173171Y-60100000D01*
X188586829Y-60100000D01*
X189199379Y-59978156D01*
X189894015Y-59514015D01*
X190358156Y-58819379D01*
X190521141Y-58000000D01*
X190481279Y-57799600D01*
X195438450Y-57799600D01*
X195438450Y-58500000D01*
X195561883Y-59120540D01*
X195913391Y-59646609D01*
X196439460Y-59998117D01*
X197060000Y-60121550D01*
X198060000Y-60121550D01*
X198680540Y-59998117D01*
X199206609Y-59646609D01*
X199230628Y-59610662D01*
X199780621Y-59978156D01*
X200393171Y-60100000D01*
X200806829Y-60100000D01*
X201419379Y-59978156D01*
X202114015Y-59514015D01*
X202578156Y-58819379D01*
X202741141Y-58000000D01*
X202695729Y-57771700D01*
X206628450Y-57771700D01*
X206628450Y-58500000D01*
G36*
X186132224Y-55691424D02*
X186063878Y-55793711D01*
X185956055Y-55901535D01*
X185840000Y-55878450D01*
X184840000Y-55878450D01*
X184219460Y-56001883D01*
X183693391Y-56353391D01*
X183341883Y-56879460D01*
X183218450Y-57500000D01*
X183218450Y-58500000D01*
X183341883Y-59120540D01*
X183693391Y-59646609D01*
X184064507Y-59894581D01*
X178670390Y-65288700D01*
X171915210Y-65288700D01*
X177271764Y-59932147D01*
X177340621Y-59978156D01*
X177953171Y-60100000D01*
X178366829Y-60100000D01*
X178979379Y-59978156D01*
X179674015Y-59514015D01*
X180138156Y-58819379D01*
X180301141Y-58000000D01*
X180138156Y-57180621D01*
X179674015Y-56485985D01*
X178979379Y-56021844D01*
X178366829Y-55900000D01*
X177953171Y-55900000D01*
X177340621Y-56021844D01*
X176790628Y-56389338D01*
X176766609Y-56353391D01*
X176240540Y-56001883D01*
X175620000Y-55878450D01*
X174980860Y-55878450D01*
X174896124Y-55793713D01*
X174827776Y-55691424D01*
X174587684Y-55531000D01*
X186372316Y-55531000D01*
X186132224Y-55691424D01*
X186132224Y-55691424D01*
G37*
X186132224Y-55691424D02*
X186063878Y-55793711D01*
X185956055Y-55901535D01*
X185840000Y-55878450D01*
X184840000Y-55878450D01*
X184219460Y-56001883D01*
X183693391Y-56353391D01*
X183341883Y-56879460D01*
X183218450Y-57500000D01*
X183218450Y-58500000D01*
X183341883Y-59120540D01*
X183693391Y-59646609D01*
X184064507Y-59894581D01*
X178670390Y-65288700D01*
X171915210Y-65288700D01*
X177271764Y-59932147D01*
X177340621Y-59978156D01*
X177953171Y-60100000D01*
X178366829Y-60100000D01*
X178979379Y-59978156D01*
X179674015Y-59514015D01*
X180138156Y-58819379D01*
X180301141Y-58000000D01*
X180138156Y-57180621D01*
X179674015Y-56485985D01*
X178979379Y-56021844D01*
X178366829Y-55900000D01*
X177953171Y-55900000D01*
X177340621Y-56021844D01*
X176790628Y-56389338D01*
X176766609Y-56353391D01*
X176240540Y-56001883D01*
X175620000Y-55878450D01*
X174980860Y-55878450D01*
X174896124Y-55793713D01*
X174827776Y-55691424D01*
X174587684Y-55531000D01*
X186372316Y-55531000D01*
X186132224Y-55691424D01*
G36*
X172998450Y-58500000D02*
X173121883Y-59120540D01*
X173473391Y-59646609D01*
X173844508Y-59894581D01*
X169514390Y-64224700D01*
X154670711Y-64224700D01*
X155812411Y-63083000D01*
X162272850Y-63083000D01*
X162393500Y-63106999D01*
X162514150Y-63083000D01*
X162514152Y-63083000D01*
X162871471Y-63011925D01*
X163276676Y-62741176D01*
X163345024Y-62638887D01*
X166051764Y-59932147D01*
X166120621Y-59978156D01*
X166733171Y-60100000D01*
X167146829Y-60100000D01*
X167759379Y-59978156D01*
X168454015Y-59514015D01*
X168918156Y-58819379D01*
X169081141Y-58000000D01*
X169041279Y-57799600D01*
X172998450Y-57799600D01*
X172998450Y-58500000D01*
X172998450Y-58500000D01*
G37*
X172998450Y-58500000D02*
X173121883Y-59120540D01*
X173473391Y-59646609D01*
X173844508Y-59894581D01*
X169514390Y-64224700D01*
X154670711Y-64224700D01*
X155812411Y-63083000D01*
X162272850Y-63083000D01*
X162393500Y-63106999D01*
X162514150Y-63083000D01*
X162514152Y-63083000D01*
X162871471Y-63011925D01*
X163276676Y-62741176D01*
X163345024Y-62638887D01*
X166051764Y-59932147D01*
X166120621Y-59978156D01*
X166733171Y-60100000D01*
X167146829Y-60100000D01*
X167759379Y-59978156D01*
X168454015Y-59514015D01*
X168918156Y-58819379D01*
X169081141Y-58000000D01*
X169041279Y-57799600D01*
X172998450Y-57799600D01*
X172998450Y-58500000D01*
G36*
X164692224Y-55691424D02*
X164623878Y-55793711D01*
X164516055Y-55901535D01*
X164400000Y-55878450D01*
X163400000Y-55878450D01*
X162779460Y-56001883D01*
X162253391Y-56353391D01*
X161901883Y-56879460D01*
X161778450Y-57500000D01*
X161778450Y-58500000D01*
X161901883Y-59120540D01*
X162253391Y-59646609D01*
X162624508Y-59894581D01*
X161886090Y-60633000D01*
X155994711Y-60633000D01*
X156250889Y-60376822D01*
X156353176Y-60308476D01*
X156601723Y-59936499D01*
X157234015Y-59514015D01*
X157698156Y-58819379D01*
X157861141Y-58000000D01*
X157698156Y-57180621D01*
X157234015Y-56485985D01*
X156539379Y-56021844D01*
X155926829Y-55900000D01*
X155513171Y-55900000D01*
X154900621Y-56021844D01*
X154350628Y-56389338D01*
X154326609Y-56353391D01*
X153800540Y-56001883D01*
X153180000Y-55878450D01*
X152540860Y-55878450D01*
X152426123Y-55763713D01*
X152357776Y-55661424D01*
X152162582Y-55531000D01*
X164932316Y-55531000D01*
X164692224Y-55691424D01*
X164692224Y-55691424D01*
G37*
X164692224Y-55691424D02*
X164623878Y-55793711D01*
X164516055Y-55901535D01*
X164400000Y-55878450D01*
X163400000Y-55878450D01*
X162779460Y-56001883D01*
X162253391Y-56353391D01*
X161901883Y-56879460D01*
X161778450Y-57500000D01*
X161778450Y-58500000D01*
X161901883Y-59120540D01*
X162253391Y-59646609D01*
X162624508Y-59894581D01*
X161886090Y-60633000D01*
X155994711Y-60633000D01*
X156250889Y-60376822D01*
X156353176Y-60308476D01*
X156601723Y-59936499D01*
X157234015Y-59514015D01*
X157698156Y-58819379D01*
X157861141Y-58000000D01*
X157698156Y-57180621D01*
X157234015Y-56485985D01*
X156539379Y-56021844D01*
X155926829Y-55900000D01*
X155513171Y-55900000D01*
X154900621Y-56021844D01*
X154350628Y-56389338D01*
X154326609Y-56353391D01*
X153800540Y-56001883D01*
X153180000Y-55878450D01*
X152540860Y-55878450D01*
X152426123Y-55763713D01*
X152357776Y-55661424D01*
X152162582Y-55531000D01*
X164932316Y-55531000D01*
X164692224Y-55691424D01*
G36*
X212451810Y-55565109D02*
X212547996Y-55617009D01*
X212622186Y-55697267D01*
X212675935Y-55818845D01*
X212693000Y-55953926D01*
X212693000Y-56077718D01*
X212609379Y-56021844D01*
X211996829Y-55900000D01*
X211583171Y-55900000D01*
X210970621Y-56021844D01*
X210420628Y-56389338D01*
X210396609Y-56353391D01*
X209870540Y-56001883D01*
X209250000Y-55878450D01*
X208610860Y-55878450D01*
X208498224Y-55765813D01*
X208429876Y-55663524D01*
X208231540Y-55531000D01*
X212246883Y-55531000D01*
X212451810Y-55565109D01*
X212451810Y-55565109D01*
G37*
X212451810Y-55565109D02*
X212547996Y-55617009D01*
X212622186Y-55697267D01*
X212675935Y-55818845D01*
X212693000Y-55953926D01*
X212693000Y-56077718D01*
X212609379Y-56021844D01*
X211996829Y-55900000D01*
X211583171Y-55900000D01*
X210970621Y-56021844D01*
X210420628Y-56389338D01*
X210396609Y-56353391D01*
X209870540Y-56001883D01*
X209250000Y-55878450D01*
X208610860Y-55878450D01*
X208498224Y-55765813D01*
X208429876Y-55663524D01*
X208231540Y-55531000D01*
X212246883Y-55531000D01*
X212451810Y-55565109D01*
G36*
X131045324Y-55648324D02*
X130976978Y-55750611D01*
X130826055Y-55901535D01*
X130710000Y-55878450D01*
X129710000Y-55878450D01*
X129699000Y-55880638D01*
X129699000Y-55531000D01*
X131220912Y-55531000D01*
X131045324Y-55648324D01*
X131045324Y-55648324D01*
G37*
X131045324Y-55648324D02*
X130976978Y-55750611D01*
X130826055Y-55901535D01*
X130710000Y-55878450D01*
X129710000Y-55878450D01*
X129699000Y-55880638D01*
X129699000Y-55531000D01*
X131220912Y-55531000D01*
X131045324Y-55648324D01*
G36*
X142282224Y-55661424D02*
X142213880Y-55763708D01*
X142076054Y-55901535D01*
X141960000Y-55878450D01*
X141320860Y-55878450D01*
X141193024Y-55750613D01*
X141124676Y-55648324D01*
X140949088Y-55531000D01*
X142477418Y-55531000D01*
X142282224Y-55661424D01*
X142282224Y-55661424D01*
G37*
X142282224Y-55661424D02*
X142213880Y-55763708D01*
X142076054Y-55901535D01*
X141960000Y-55878450D01*
X141320860Y-55878450D01*
X141193024Y-55750613D01*
X141124676Y-55648324D01*
X140949088Y-55531000D01*
X142477418Y-55531000D01*
X142282224Y-55661424D01*
G36*
X198380124Y-55663524D02*
X198311778Y-55765811D01*
X198176055Y-55901535D01*
X198060000Y-55878450D01*
X197420860Y-55878450D01*
X197336124Y-55793713D01*
X197267776Y-55691424D01*
X197027684Y-55531000D01*
X198578460Y-55531000D01*
X198380124Y-55663524D01*
X198380124Y-55663524D01*
G37*
X198380124Y-55663524D02*
X198311778Y-55765811D01*
X198176055Y-55901535D01*
X198060000Y-55878450D01*
X197420860Y-55878450D01*
X197336124Y-55793713D01*
X197267776Y-55691424D01*
X197027684Y-55531000D01*
X198578460Y-55531000D01*
X198380124Y-55663524D01*
M02*
