G04 #@! TF.GenerationSoftware,KiCad,Pcbnew,(5.0.0)*
G04 #@! TF.CreationDate,2019-09-06T11:34:28-04:00*
G04 #@! TF.ProjectId,MiniTempleT,4D696E6954656D706C65542E6B696361,rev?*
G04 #@! TF.SameCoordinates,Original*
G04 #@! TF.FileFunction,Copper,L1,Top,Signal*
G04 #@! TF.FilePolarity,Positive*
%FSLAX46Y46*%
G04 Gerber Fmt 4.6, Leading zero omitted, Abs format (unit mm)*
G04 Created by KiCad (PCBNEW (5.0.0)) date 09/06/19 11:34:28*
%MOMM*%
%LPD*%
G01*
G04 APERTURE LIST*
G04 #@! TA.AperFunction,NonConductor*
%ADD10C,0.300000*%
G04 #@! TD*
G04 #@! TA.AperFunction,ComponentPad*
%ADD11O,2.000000X2.000000*%
G04 #@! TD*
G04 #@! TA.AperFunction,Conductor*
%ADD12C,0.100000*%
G04 #@! TD*
G04 #@! TA.AperFunction,ComponentPad*
%ADD13C,2.000000*%
G04 #@! TD*
G04 #@! TA.AperFunction,ComponentPad*
%ADD14C,2.500000*%
G04 #@! TD*
G04 #@! TA.AperFunction,ComponentPad*
%ADD15R,1.700000X1.700000*%
G04 #@! TD*
G04 #@! TA.AperFunction,ComponentPad*
%ADD16O,1.700000X1.700000*%
G04 #@! TD*
G04 #@! TA.AperFunction,ComponentPad*
%ADD17O,2.400000X1.600000*%
G04 #@! TD*
G04 #@! TA.AperFunction,ComponentPad*
%ADD18R,2.400000X1.600000*%
G04 #@! TD*
G04 #@! TA.AperFunction,ComponentPad*
%ADD19R,1.600000X2.400000*%
G04 #@! TD*
G04 #@! TA.AperFunction,ComponentPad*
%ADD20O,1.600000X2.400000*%
G04 #@! TD*
G04 #@! TA.AperFunction,ViaPad*
%ADD21C,0.500000*%
G04 #@! TD*
G04 #@! TA.AperFunction,Conductor*
%ADD22C,0.250000*%
G04 #@! TD*
G04 #@! TA.AperFunction,NonConductor*
%ADD23C,0.200000*%
G04 #@! TD*
G04 APERTURE END LIST*
D10*
X153128571Y-63646428D02*
X153200000Y-63575000D01*
X153342857Y-63503571D01*
X153700000Y-63503571D01*
X153842857Y-63575000D01*
X153914285Y-63646428D01*
X153985714Y-63789285D01*
X153985714Y-63932142D01*
X153914285Y-64146428D01*
X153057142Y-65003571D01*
X153985714Y-65003571D01*
X154914285Y-63503571D02*
X155057142Y-63503571D01*
X155200000Y-63575000D01*
X155271428Y-63646428D01*
X155342857Y-63789285D01*
X155414285Y-64075000D01*
X155414285Y-64432142D01*
X155342857Y-64717857D01*
X155271428Y-64860714D01*
X155200000Y-64932142D01*
X155057142Y-65003571D01*
X154914285Y-65003571D01*
X154771428Y-64932142D01*
X154700000Y-64860714D01*
X154628571Y-64717857D01*
X154557142Y-64432142D01*
X154557142Y-64075000D01*
X154628571Y-63789285D01*
X154700000Y-63646428D01*
X154771428Y-63575000D01*
X154914285Y-63503571D01*
X156842857Y-65003571D02*
X155985714Y-65003571D01*
X156414285Y-65003571D02*
X156414285Y-63503571D01*
X156271428Y-63717857D01*
X156128571Y-63860714D01*
X155985714Y-63932142D01*
X157557142Y-65003571D02*
X157842857Y-65003571D01*
X157985714Y-64932142D01*
X158057142Y-64860714D01*
X158200000Y-64646428D01*
X158271428Y-64360714D01*
X158271428Y-63789285D01*
X158200000Y-63646428D01*
X158128571Y-63575000D01*
X157985714Y-63503571D01*
X157700000Y-63503571D01*
X157557142Y-63575000D01*
X157485714Y-63646428D01*
X157414285Y-63789285D01*
X157414285Y-64146428D01*
X157485714Y-64289285D01*
X157557142Y-64360714D01*
X157700000Y-64432142D01*
X157985714Y-64432142D01*
X158128571Y-64360714D01*
X158200000Y-64289285D01*
X158271428Y-64146428D01*
X147128571Y-67482142D02*
X147342857Y-67553571D01*
X147700000Y-67553571D01*
X147842857Y-67482142D01*
X147914285Y-67410714D01*
X147985714Y-67267857D01*
X147985714Y-67125000D01*
X147914285Y-66982142D01*
X147842857Y-66910714D01*
X147700000Y-66839285D01*
X147414285Y-66767857D01*
X147271428Y-66696428D01*
X147200000Y-66625000D01*
X147128571Y-66482142D01*
X147128571Y-66339285D01*
X147200000Y-66196428D01*
X147271428Y-66125000D01*
X147414285Y-66053571D01*
X147771428Y-66053571D01*
X147985714Y-66125000D01*
X148842857Y-67553571D02*
X148700000Y-67482142D01*
X148628571Y-67410714D01*
X148557142Y-67267857D01*
X148557142Y-66839285D01*
X148628571Y-66696428D01*
X148700000Y-66625000D01*
X148842857Y-66553571D01*
X149057142Y-66553571D01*
X149200000Y-66625000D01*
X149271428Y-66696428D01*
X149342857Y-66839285D01*
X149342857Y-67267857D01*
X149271428Y-67410714D01*
X149200000Y-67482142D01*
X149057142Y-67553571D01*
X148842857Y-67553571D01*
X150200000Y-67553571D02*
X150057142Y-67482142D01*
X149985714Y-67339285D01*
X149985714Y-66053571D01*
X151414285Y-67553571D02*
X151414285Y-66053571D01*
X151414285Y-67482142D02*
X151271428Y-67553571D01*
X150985714Y-67553571D01*
X150842857Y-67482142D01*
X150771428Y-67410714D01*
X150700000Y-67267857D01*
X150700000Y-66839285D01*
X150771428Y-66696428D01*
X150842857Y-66625000D01*
X150985714Y-66553571D01*
X151271428Y-66553571D01*
X151414285Y-66625000D01*
X152700000Y-67482142D02*
X152557142Y-67553571D01*
X152271428Y-67553571D01*
X152128571Y-67482142D01*
X152057142Y-67339285D01*
X152057142Y-66767857D01*
X152128571Y-66625000D01*
X152271428Y-66553571D01*
X152557142Y-66553571D01*
X152700000Y-66625000D01*
X152771428Y-66767857D01*
X152771428Y-66910714D01*
X152057142Y-67053571D01*
X153414285Y-67553571D02*
X153414285Y-66553571D01*
X153414285Y-66839285D02*
X153485714Y-66696428D01*
X153557142Y-66625000D01*
X153700000Y-66553571D01*
X153842857Y-66553571D01*
X154342857Y-67553571D02*
X154342857Y-66553571D01*
X154342857Y-66053571D02*
X154271428Y-66125000D01*
X154342857Y-66196428D01*
X154414285Y-66125000D01*
X154342857Y-66053571D01*
X154342857Y-66196428D01*
X155057142Y-66553571D02*
X155057142Y-67553571D01*
X155057142Y-66696428D02*
X155128571Y-66625000D01*
X155271428Y-66553571D01*
X155485714Y-66553571D01*
X155628571Y-66625000D01*
X155700000Y-66767857D01*
X155700000Y-67553571D01*
X157057142Y-66553571D02*
X157057142Y-67767857D01*
X156985714Y-67910714D01*
X156914285Y-67982142D01*
X156771428Y-68053571D01*
X156557142Y-68053571D01*
X156414285Y-67982142D01*
X157057142Y-67482142D02*
X156914285Y-67553571D01*
X156628571Y-67553571D01*
X156485714Y-67482142D01*
X156414285Y-67410714D01*
X156342857Y-67267857D01*
X156342857Y-66839285D01*
X156414285Y-66696428D01*
X156485714Y-66625000D01*
X156628571Y-66553571D01*
X156914285Y-66553571D01*
X157057142Y-66625000D01*
X158914285Y-66767857D02*
X159414285Y-66767857D01*
X159628571Y-67553571D02*
X158914285Y-67553571D01*
X158914285Y-66053571D01*
X159628571Y-66053571D01*
X160128571Y-66553571D02*
X160485714Y-67553571D01*
X160842857Y-66553571D01*
X161985714Y-67482142D02*
X161842857Y-67553571D01*
X161557142Y-67553571D01*
X161414285Y-67482142D01*
X161342857Y-67339285D01*
X161342857Y-66767857D01*
X161414285Y-66625000D01*
X161557142Y-66553571D01*
X161842857Y-66553571D01*
X161985714Y-66625000D01*
X162057142Y-66767857D01*
X162057142Y-66910714D01*
X161342857Y-67053571D01*
X162700000Y-66553571D02*
X162700000Y-67553571D01*
X162700000Y-66696428D02*
X162771428Y-66625000D01*
X162914285Y-66553571D01*
X163128571Y-66553571D01*
X163271428Y-66625000D01*
X163342857Y-66767857D01*
X163342857Y-67553571D01*
X163842857Y-66553571D02*
X164414285Y-66553571D01*
X164057142Y-66053571D02*
X164057142Y-67339285D01*
X164128571Y-67482142D01*
X164271428Y-67553571D01*
X164414285Y-67553571D01*
D11*
G04 #@! TO.P,D17,2*
G04 #@! TO.N,Net-(D17-Pad2)*
X181050000Y-85217000D03*
D12*
G04 #@! TD*
G04 #@! TO.N,GND*
G04 #@! TO.C,D17*
G36*
X178559009Y-84219408D02*
X178607545Y-84226607D01*
X178655142Y-84238530D01*
X178701342Y-84255060D01*
X178745698Y-84276039D01*
X178787785Y-84301265D01*
X178827197Y-84330495D01*
X178863553Y-84363447D01*
X178896505Y-84399803D01*
X178925735Y-84439215D01*
X178950961Y-84481302D01*
X178971940Y-84525658D01*
X178988470Y-84571858D01*
X179000393Y-84619455D01*
X179007592Y-84667991D01*
X179010000Y-84717000D01*
X179010000Y-85717000D01*
X179007592Y-85766009D01*
X179000393Y-85814545D01*
X178988470Y-85862142D01*
X178971940Y-85908342D01*
X178950961Y-85952698D01*
X178925735Y-85994785D01*
X178896505Y-86034197D01*
X178863553Y-86070553D01*
X178827197Y-86103505D01*
X178787785Y-86132735D01*
X178745698Y-86157961D01*
X178701342Y-86178940D01*
X178655142Y-86195470D01*
X178607545Y-86207393D01*
X178559009Y-86214592D01*
X178510000Y-86217000D01*
X177510000Y-86217000D01*
X177460991Y-86214592D01*
X177412455Y-86207393D01*
X177364858Y-86195470D01*
X177318658Y-86178940D01*
X177274302Y-86157961D01*
X177232215Y-86132735D01*
X177192803Y-86103505D01*
X177156447Y-86070553D01*
X177123495Y-86034197D01*
X177094265Y-85994785D01*
X177069039Y-85952698D01*
X177048060Y-85908342D01*
X177031530Y-85862142D01*
X177019607Y-85814545D01*
X177012408Y-85766009D01*
X177010000Y-85717000D01*
X177010000Y-84717000D01*
X177012408Y-84667991D01*
X177019607Y-84619455D01*
X177031530Y-84571858D01*
X177048060Y-84525658D01*
X177069039Y-84481302D01*
X177094265Y-84439215D01*
X177123495Y-84399803D01*
X177156447Y-84363447D01*
X177192803Y-84330495D01*
X177232215Y-84301265D01*
X177274302Y-84276039D01*
X177318658Y-84255060D01*
X177364858Y-84238530D01*
X177412455Y-84226607D01*
X177460991Y-84219408D01*
X177510000Y-84217000D01*
X178510000Y-84217000D01*
X178559009Y-84219408D01*
X178559009Y-84219408D01*
G37*
D13*
G04 #@! TO.P,D17,1*
G04 #@! TO.N,GND*
X178010000Y-85217000D03*
G04 #@! TD*
G04 #@! TO.P,BTN1,2*
G04 #@! TO.N,Net-(BTN1-Pad2)*
X180615000Y-140840000D03*
G04 #@! TO.P,BTN1,1*
G04 #@! TO.N,GND*
X180615000Y-136340000D03*
G04 #@! TO.P,BTN1,2*
G04 #@! TO.N,Net-(BTN1-Pad2)*
X187115000Y-140840000D03*
G04 #@! TO.P,BTN1,1*
G04 #@! TO.N,GND*
X187115000Y-136340000D03*
G04 #@! TD*
D14*
G04 #@! TO.P,Battery1,2*
G04 #@! TO.N,Net-(Battery1-Pad2)*
X171196000Y-116669000D03*
G04 #@! TO.P,Battery1,1*
G04 #@! TO.N,GND*
X171196000Y-97169000D03*
G04 #@! TD*
D15*
G04 #@! TO.P,Power1,1*
G04 #@! TO.N,GND*
X169799000Y-103137000D03*
D16*
G04 #@! TO.P,Power1,2*
G04 #@! TO.N,Net-(Battery1-Pad2)*
X172339000Y-103137000D03*
G04 #@! TD*
D11*
G04 #@! TO.P,D1,2*
G04 #@! TO.N,Net-(D1-Pad2)*
X133073000Y-85217000D03*
D12*
G04 #@! TD*
G04 #@! TO.N,GND*
G04 #@! TO.C,D1*
G36*
X130582009Y-84219408D02*
X130630545Y-84226607D01*
X130678142Y-84238530D01*
X130724342Y-84255060D01*
X130768698Y-84276039D01*
X130810785Y-84301265D01*
X130850197Y-84330495D01*
X130886553Y-84363447D01*
X130919505Y-84399803D01*
X130948735Y-84439215D01*
X130973961Y-84481302D01*
X130994940Y-84525658D01*
X131011470Y-84571858D01*
X131023393Y-84619455D01*
X131030592Y-84667991D01*
X131033000Y-84717000D01*
X131033000Y-85717000D01*
X131030592Y-85766009D01*
X131023393Y-85814545D01*
X131011470Y-85862142D01*
X130994940Y-85908342D01*
X130973961Y-85952698D01*
X130948735Y-85994785D01*
X130919505Y-86034197D01*
X130886553Y-86070553D01*
X130850197Y-86103505D01*
X130810785Y-86132735D01*
X130768698Y-86157961D01*
X130724342Y-86178940D01*
X130678142Y-86195470D01*
X130630545Y-86207393D01*
X130582009Y-86214592D01*
X130533000Y-86217000D01*
X129533000Y-86217000D01*
X129483991Y-86214592D01*
X129435455Y-86207393D01*
X129387858Y-86195470D01*
X129341658Y-86178940D01*
X129297302Y-86157961D01*
X129255215Y-86132735D01*
X129215803Y-86103505D01*
X129179447Y-86070553D01*
X129146495Y-86034197D01*
X129117265Y-85994785D01*
X129092039Y-85952698D01*
X129071060Y-85908342D01*
X129054530Y-85862142D01*
X129042607Y-85814545D01*
X129035408Y-85766009D01*
X129033000Y-85717000D01*
X129033000Y-84717000D01*
X129035408Y-84667991D01*
X129042607Y-84619455D01*
X129054530Y-84571858D01*
X129071060Y-84525658D01*
X129092039Y-84481302D01*
X129117265Y-84439215D01*
X129146495Y-84399803D01*
X129179447Y-84363447D01*
X129215803Y-84330495D01*
X129255215Y-84301265D01*
X129297302Y-84276039D01*
X129341658Y-84255060D01*
X129387858Y-84238530D01*
X129435455Y-84226607D01*
X129483991Y-84219408D01*
X129533000Y-84217000D01*
X130533000Y-84217000D01*
X130582009Y-84219408D01*
X130582009Y-84219408D01*
G37*
D13*
G04 #@! TO.P,D1,1*
G04 #@! TO.N,GND*
X130033000Y-85217000D03*
G04 #@! TD*
D11*
G04 #@! TO.P,D2,2*
G04 #@! TO.N,Net-(D2-Pad2)*
X133190000Y-73600000D03*
D12*
G04 #@! TD*
G04 #@! TO.N,GND*
G04 #@! TO.C,D2*
G36*
X130699009Y-72602408D02*
X130747545Y-72609607D01*
X130795142Y-72621530D01*
X130841342Y-72638060D01*
X130885698Y-72659039D01*
X130927785Y-72684265D01*
X130967197Y-72713495D01*
X131003553Y-72746447D01*
X131036505Y-72782803D01*
X131065735Y-72822215D01*
X131090961Y-72864302D01*
X131111940Y-72908658D01*
X131128470Y-72954858D01*
X131140393Y-73002455D01*
X131147592Y-73050991D01*
X131150000Y-73100000D01*
X131150000Y-74100000D01*
X131147592Y-74149009D01*
X131140393Y-74197545D01*
X131128470Y-74245142D01*
X131111940Y-74291342D01*
X131090961Y-74335698D01*
X131065735Y-74377785D01*
X131036505Y-74417197D01*
X131003553Y-74453553D01*
X130967197Y-74486505D01*
X130927785Y-74515735D01*
X130885698Y-74540961D01*
X130841342Y-74561940D01*
X130795142Y-74578470D01*
X130747545Y-74590393D01*
X130699009Y-74597592D01*
X130650000Y-74600000D01*
X129650000Y-74600000D01*
X129600991Y-74597592D01*
X129552455Y-74590393D01*
X129504858Y-74578470D01*
X129458658Y-74561940D01*
X129414302Y-74540961D01*
X129372215Y-74515735D01*
X129332803Y-74486505D01*
X129296447Y-74453553D01*
X129263495Y-74417197D01*
X129234265Y-74377785D01*
X129209039Y-74335698D01*
X129188060Y-74291342D01*
X129171530Y-74245142D01*
X129159607Y-74197545D01*
X129152408Y-74149009D01*
X129150000Y-74100000D01*
X129150000Y-73100000D01*
X129152408Y-73050991D01*
X129159607Y-73002455D01*
X129171530Y-72954858D01*
X129188060Y-72908658D01*
X129209039Y-72864302D01*
X129234265Y-72822215D01*
X129263495Y-72782803D01*
X129296447Y-72746447D01*
X129332803Y-72713495D01*
X129372215Y-72684265D01*
X129414302Y-72659039D01*
X129458658Y-72638060D01*
X129504858Y-72621530D01*
X129552455Y-72609607D01*
X129600991Y-72602408D01*
X129650000Y-72600000D01*
X130650000Y-72600000D01*
X130699009Y-72602408D01*
X130699009Y-72602408D01*
G37*
D13*
G04 #@! TO.P,D2,1*
G04 #@! TO.N,GND*
X130150000Y-73600000D03*
G04 #@! TD*
D11*
G04 #@! TO.P,D3,2*
G04 #@! TO.N,Net-(D3-Pad2)*
X133250000Y-58000000D03*
D12*
G04 #@! TD*
G04 #@! TO.N,GND*
G04 #@! TO.C,D3*
G36*
X130759009Y-57002408D02*
X130807545Y-57009607D01*
X130855142Y-57021530D01*
X130901342Y-57038060D01*
X130945698Y-57059039D01*
X130987785Y-57084265D01*
X131027197Y-57113495D01*
X131063553Y-57146447D01*
X131096505Y-57182803D01*
X131125735Y-57222215D01*
X131150961Y-57264302D01*
X131171940Y-57308658D01*
X131188470Y-57354858D01*
X131200393Y-57402455D01*
X131207592Y-57450991D01*
X131210000Y-57500000D01*
X131210000Y-58500000D01*
X131207592Y-58549009D01*
X131200393Y-58597545D01*
X131188470Y-58645142D01*
X131171940Y-58691342D01*
X131150961Y-58735698D01*
X131125735Y-58777785D01*
X131096505Y-58817197D01*
X131063553Y-58853553D01*
X131027197Y-58886505D01*
X130987785Y-58915735D01*
X130945698Y-58940961D01*
X130901342Y-58961940D01*
X130855142Y-58978470D01*
X130807545Y-58990393D01*
X130759009Y-58997592D01*
X130710000Y-59000000D01*
X129710000Y-59000000D01*
X129660991Y-58997592D01*
X129612455Y-58990393D01*
X129564858Y-58978470D01*
X129518658Y-58961940D01*
X129474302Y-58940961D01*
X129432215Y-58915735D01*
X129392803Y-58886505D01*
X129356447Y-58853553D01*
X129323495Y-58817197D01*
X129294265Y-58777785D01*
X129269039Y-58735698D01*
X129248060Y-58691342D01*
X129231530Y-58645142D01*
X129219607Y-58597545D01*
X129212408Y-58549009D01*
X129210000Y-58500000D01*
X129210000Y-57500000D01*
X129212408Y-57450991D01*
X129219607Y-57402455D01*
X129231530Y-57354858D01*
X129248060Y-57308658D01*
X129269039Y-57264302D01*
X129294265Y-57222215D01*
X129323495Y-57182803D01*
X129356447Y-57146447D01*
X129392803Y-57113495D01*
X129432215Y-57084265D01*
X129474302Y-57059039D01*
X129518658Y-57038060D01*
X129564858Y-57021530D01*
X129612455Y-57009607D01*
X129660991Y-57002408D01*
X129710000Y-57000000D01*
X130710000Y-57000000D01*
X130759009Y-57002408D01*
X130759009Y-57002408D01*
G37*
D13*
G04 #@! TO.P,D3,1*
G04 #@! TO.N,GND*
X130210000Y-58000000D03*
G04 #@! TD*
D11*
G04 #@! TO.P,D4,2*
G04 #@! TO.N,Net-(D4-Pad2)*
X144500000Y-58000000D03*
D12*
G04 #@! TD*
G04 #@! TO.N,GND*
G04 #@! TO.C,D4*
G36*
X142009009Y-57002408D02*
X142057545Y-57009607D01*
X142105142Y-57021530D01*
X142151342Y-57038060D01*
X142195698Y-57059039D01*
X142237785Y-57084265D01*
X142277197Y-57113495D01*
X142313553Y-57146447D01*
X142346505Y-57182803D01*
X142375735Y-57222215D01*
X142400961Y-57264302D01*
X142421940Y-57308658D01*
X142438470Y-57354858D01*
X142450393Y-57402455D01*
X142457592Y-57450991D01*
X142460000Y-57500000D01*
X142460000Y-58500000D01*
X142457592Y-58549009D01*
X142450393Y-58597545D01*
X142438470Y-58645142D01*
X142421940Y-58691342D01*
X142400961Y-58735698D01*
X142375735Y-58777785D01*
X142346505Y-58817197D01*
X142313553Y-58853553D01*
X142277197Y-58886505D01*
X142237785Y-58915735D01*
X142195698Y-58940961D01*
X142151342Y-58961940D01*
X142105142Y-58978470D01*
X142057545Y-58990393D01*
X142009009Y-58997592D01*
X141960000Y-59000000D01*
X140960000Y-59000000D01*
X140910991Y-58997592D01*
X140862455Y-58990393D01*
X140814858Y-58978470D01*
X140768658Y-58961940D01*
X140724302Y-58940961D01*
X140682215Y-58915735D01*
X140642803Y-58886505D01*
X140606447Y-58853553D01*
X140573495Y-58817197D01*
X140544265Y-58777785D01*
X140519039Y-58735698D01*
X140498060Y-58691342D01*
X140481530Y-58645142D01*
X140469607Y-58597545D01*
X140462408Y-58549009D01*
X140460000Y-58500000D01*
X140460000Y-57500000D01*
X140462408Y-57450991D01*
X140469607Y-57402455D01*
X140481530Y-57354858D01*
X140498060Y-57308658D01*
X140519039Y-57264302D01*
X140544265Y-57222215D01*
X140573495Y-57182803D01*
X140606447Y-57146447D01*
X140642803Y-57113495D01*
X140682215Y-57084265D01*
X140724302Y-57059039D01*
X140768658Y-57038060D01*
X140814858Y-57021530D01*
X140862455Y-57009607D01*
X140910991Y-57002408D01*
X140960000Y-57000000D01*
X141960000Y-57000000D01*
X142009009Y-57002408D01*
X142009009Y-57002408D01*
G37*
D13*
G04 #@! TO.P,D4,1*
G04 #@! TO.N,GND*
X141460000Y-58000000D03*
G04 #@! TD*
D11*
G04 #@! TO.P,D5,2*
G04 #@! TO.N,Net-(D5-Pad2)*
X155720000Y-58000000D03*
D12*
G04 #@! TD*
G04 #@! TO.N,GND*
G04 #@! TO.C,D5*
G36*
X153229009Y-57002408D02*
X153277545Y-57009607D01*
X153325142Y-57021530D01*
X153371342Y-57038060D01*
X153415698Y-57059039D01*
X153457785Y-57084265D01*
X153497197Y-57113495D01*
X153533553Y-57146447D01*
X153566505Y-57182803D01*
X153595735Y-57222215D01*
X153620961Y-57264302D01*
X153641940Y-57308658D01*
X153658470Y-57354858D01*
X153670393Y-57402455D01*
X153677592Y-57450991D01*
X153680000Y-57500000D01*
X153680000Y-58500000D01*
X153677592Y-58549009D01*
X153670393Y-58597545D01*
X153658470Y-58645142D01*
X153641940Y-58691342D01*
X153620961Y-58735698D01*
X153595735Y-58777785D01*
X153566505Y-58817197D01*
X153533553Y-58853553D01*
X153497197Y-58886505D01*
X153457785Y-58915735D01*
X153415698Y-58940961D01*
X153371342Y-58961940D01*
X153325142Y-58978470D01*
X153277545Y-58990393D01*
X153229009Y-58997592D01*
X153180000Y-59000000D01*
X152180000Y-59000000D01*
X152130991Y-58997592D01*
X152082455Y-58990393D01*
X152034858Y-58978470D01*
X151988658Y-58961940D01*
X151944302Y-58940961D01*
X151902215Y-58915735D01*
X151862803Y-58886505D01*
X151826447Y-58853553D01*
X151793495Y-58817197D01*
X151764265Y-58777785D01*
X151739039Y-58735698D01*
X151718060Y-58691342D01*
X151701530Y-58645142D01*
X151689607Y-58597545D01*
X151682408Y-58549009D01*
X151680000Y-58500000D01*
X151680000Y-57500000D01*
X151682408Y-57450991D01*
X151689607Y-57402455D01*
X151701530Y-57354858D01*
X151718060Y-57308658D01*
X151739039Y-57264302D01*
X151764265Y-57222215D01*
X151793495Y-57182803D01*
X151826447Y-57146447D01*
X151862803Y-57113495D01*
X151902215Y-57084265D01*
X151944302Y-57059039D01*
X151988658Y-57038060D01*
X152034858Y-57021530D01*
X152082455Y-57009607D01*
X152130991Y-57002408D01*
X152180000Y-57000000D01*
X153180000Y-57000000D01*
X153229009Y-57002408D01*
X153229009Y-57002408D01*
G37*
D13*
G04 #@! TO.P,D5,1*
G04 #@! TO.N,GND*
X152680000Y-58000000D03*
G04 #@! TD*
D11*
G04 #@! TO.P,D6,2*
G04 #@! TO.N,Net-(D6-Pad2)*
X166940000Y-58000000D03*
D12*
G04 #@! TD*
G04 #@! TO.N,GND*
G04 #@! TO.C,D6*
G36*
X164449009Y-57002408D02*
X164497545Y-57009607D01*
X164545142Y-57021530D01*
X164591342Y-57038060D01*
X164635698Y-57059039D01*
X164677785Y-57084265D01*
X164717197Y-57113495D01*
X164753553Y-57146447D01*
X164786505Y-57182803D01*
X164815735Y-57222215D01*
X164840961Y-57264302D01*
X164861940Y-57308658D01*
X164878470Y-57354858D01*
X164890393Y-57402455D01*
X164897592Y-57450991D01*
X164900000Y-57500000D01*
X164900000Y-58500000D01*
X164897592Y-58549009D01*
X164890393Y-58597545D01*
X164878470Y-58645142D01*
X164861940Y-58691342D01*
X164840961Y-58735698D01*
X164815735Y-58777785D01*
X164786505Y-58817197D01*
X164753553Y-58853553D01*
X164717197Y-58886505D01*
X164677785Y-58915735D01*
X164635698Y-58940961D01*
X164591342Y-58961940D01*
X164545142Y-58978470D01*
X164497545Y-58990393D01*
X164449009Y-58997592D01*
X164400000Y-59000000D01*
X163400000Y-59000000D01*
X163350991Y-58997592D01*
X163302455Y-58990393D01*
X163254858Y-58978470D01*
X163208658Y-58961940D01*
X163164302Y-58940961D01*
X163122215Y-58915735D01*
X163082803Y-58886505D01*
X163046447Y-58853553D01*
X163013495Y-58817197D01*
X162984265Y-58777785D01*
X162959039Y-58735698D01*
X162938060Y-58691342D01*
X162921530Y-58645142D01*
X162909607Y-58597545D01*
X162902408Y-58549009D01*
X162900000Y-58500000D01*
X162900000Y-57500000D01*
X162902408Y-57450991D01*
X162909607Y-57402455D01*
X162921530Y-57354858D01*
X162938060Y-57308658D01*
X162959039Y-57264302D01*
X162984265Y-57222215D01*
X163013495Y-57182803D01*
X163046447Y-57146447D01*
X163082803Y-57113495D01*
X163122215Y-57084265D01*
X163164302Y-57059039D01*
X163208658Y-57038060D01*
X163254858Y-57021530D01*
X163302455Y-57009607D01*
X163350991Y-57002408D01*
X163400000Y-57000000D01*
X164400000Y-57000000D01*
X164449009Y-57002408D01*
X164449009Y-57002408D01*
G37*
D13*
G04 #@! TO.P,D6,1*
G04 #@! TO.N,GND*
X163900000Y-58000000D03*
G04 #@! TD*
D11*
G04 #@! TO.P,D7,2*
G04 #@! TO.N,Net-(D7-Pad2)*
X178160000Y-58000000D03*
D12*
G04 #@! TD*
G04 #@! TO.N,GND*
G04 #@! TO.C,D7*
G36*
X175669009Y-57002408D02*
X175717545Y-57009607D01*
X175765142Y-57021530D01*
X175811342Y-57038060D01*
X175855698Y-57059039D01*
X175897785Y-57084265D01*
X175937197Y-57113495D01*
X175973553Y-57146447D01*
X176006505Y-57182803D01*
X176035735Y-57222215D01*
X176060961Y-57264302D01*
X176081940Y-57308658D01*
X176098470Y-57354858D01*
X176110393Y-57402455D01*
X176117592Y-57450991D01*
X176120000Y-57500000D01*
X176120000Y-58500000D01*
X176117592Y-58549009D01*
X176110393Y-58597545D01*
X176098470Y-58645142D01*
X176081940Y-58691342D01*
X176060961Y-58735698D01*
X176035735Y-58777785D01*
X176006505Y-58817197D01*
X175973553Y-58853553D01*
X175937197Y-58886505D01*
X175897785Y-58915735D01*
X175855698Y-58940961D01*
X175811342Y-58961940D01*
X175765142Y-58978470D01*
X175717545Y-58990393D01*
X175669009Y-58997592D01*
X175620000Y-59000000D01*
X174620000Y-59000000D01*
X174570991Y-58997592D01*
X174522455Y-58990393D01*
X174474858Y-58978470D01*
X174428658Y-58961940D01*
X174384302Y-58940961D01*
X174342215Y-58915735D01*
X174302803Y-58886505D01*
X174266447Y-58853553D01*
X174233495Y-58817197D01*
X174204265Y-58777785D01*
X174179039Y-58735698D01*
X174158060Y-58691342D01*
X174141530Y-58645142D01*
X174129607Y-58597545D01*
X174122408Y-58549009D01*
X174120000Y-58500000D01*
X174120000Y-57500000D01*
X174122408Y-57450991D01*
X174129607Y-57402455D01*
X174141530Y-57354858D01*
X174158060Y-57308658D01*
X174179039Y-57264302D01*
X174204265Y-57222215D01*
X174233495Y-57182803D01*
X174266447Y-57146447D01*
X174302803Y-57113495D01*
X174342215Y-57084265D01*
X174384302Y-57059039D01*
X174428658Y-57038060D01*
X174474858Y-57021530D01*
X174522455Y-57009607D01*
X174570991Y-57002408D01*
X174620000Y-57000000D01*
X175620000Y-57000000D01*
X175669009Y-57002408D01*
X175669009Y-57002408D01*
G37*
D13*
G04 #@! TO.P,D7,1*
G04 #@! TO.N,GND*
X175120000Y-58000000D03*
G04 #@! TD*
D11*
G04 #@! TO.P,D8,2*
G04 #@! TO.N,Net-(D8-Pad2)*
X188380000Y-58000000D03*
D12*
G04 #@! TD*
G04 #@! TO.N,GND*
G04 #@! TO.C,D8*
G36*
X185889009Y-57002408D02*
X185937545Y-57009607D01*
X185985142Y-57021530D01*
X186031342Y-57038060D01*
X186075698Y-57059039D01*
X186117785Y-57084265D01*
X186157197Y-57113495D01*
X186193553Y-57146447D01*
X186226505Y-57182803D01*
X186255735Y-57222215D01*
X186280961Y-57264302D01*
X186301940Y-57308658D01*
X186318470Y-57354858D01*
X186330393Y-57402455D01*
X186337592Y-57450991D01*
X186340000Y-57500000D01*
X186340000Y-58500000D01*
X186337592Y-58549009D01*
X186330393Y-58597545D01*
X186318470Y-58645142D01*
X186301940Y-58691342D01*
X186280961Y-58735698D01*
X186255735Y-58777785D01*
X186226505Y-58817197D01*
X186193553Y-58853553D01*
X186157197Y-58886505D01*
X186117785Y-58915735D01*
X186075698Y-58940961D01*
X186031342Y-58961940D01*
X185985142Y-58978470D01*
X185937545Y-58990393D01*
X185889009Y-58997592D01*
X185840000Y-59000000D01*
X184840000Y-59000000D01*
X184790991Y-58997592D01*
X184742455Y-58990393D01*
X184694858Y-58978470D01*
X184648658Y-58961940D01*
X184604302Y-58940961D01*
X184562215Y-58915735D01*
X184522803Y-58886505D01*
X184486447Y-58853553D01*
X184453495Y-58817197D01*
X184424265Y-58777785D01*
X184399039Y-58735698D01*
X184378060Y-58691342D01*
X184361530Y-58645142D01*
X184349607Y-58597545D01*
X184342408Y-58549009D01*
X184340000Y-58500000D01*
X184340000Y-57500000D01*
X184342408Y-57450991D01*
X184349607Y-57402455D01*
X184361530Y-57354858D01*
X184378060Y-57308658D01*
X184399039Y-57264302D01*
X184424265Y-57222215D01*
X184453495Y-57182803D01*
X184486447Y-57146447D01*
X184522803Y-57113495D01*
X184562215Y-57084265D01*
X184604302Y-57059039D01*
X184648658Y-57038060D01*
X184694858Y-57021530D01*
X184742455Y-57009607D01*
X184790991Y-57002408D01*
X184840000Y-57000000D01*
X185840000Y-57000000D01*
X185889009Y-57002408D01*
X185889009Y-57002408D01*
G37*
D13*
G04 #@! TO.P,D8,1*
G04 #@! TO.N,GND*
X185340000Y-58000000D03*
G04 #@! TD*
D11*
G04 #@! TO.P,D9,2*
G04 #@! TO.N,Net-(D9-Pad2)*
X200600000Y-58000000D03*
D12*
G04 #@! TD*
G04 #@! TO.N,GND*
G04 #@! TO.C,D9*
G36*
X198109009Y-57002408D02*
X198157545Y-57009607D01*
X198205142Y-57021530D01*
X198251342Y-57038060D01*
X198295698Y-57059039D01*
X198337785Y-57084265D01*
X198377197Y-57113495D01*
X198413553Y-57146447D01*
X198446505Y-57182803D01*
X198475735Y-57222215D01*
X198500961Y-57264302D01*
X198521940Y-57308658D01*
X198538470Y-57354858D01*
X198550393Y-57402455D01*
X198557592Y-57450991D01*
X198560000Y-57500000D01*
X198560000Y-58500000D01*
X198557592Y-58549009D01*
X198550393Y-58597545D01*
X198538470Y-58645142D01*
X198521940Y-58691342D01*
X198500961Y-58735698D01*
X198475735Y-58777785D01*
X198446505Y-58817197D01*
X198413553Y-58853553D01*
X198377197Y-58886505D01*
X198337785Y-58915735D01*
X198295698Y-58940961D01*
X198251342Y-58961940D01*
X198205142Y-58978470D01*
X198157545Y-58990393D01*
X198109009Y-58997592D01*
X198060000Y-59000000D01*
X197060000Y-59000000D01*
X197010991Y-58997592D01*
X196962455Y-58990393D01*
X196914858Y-58978470D01*
X196868658Y-58961940D01*
X196824302Y-58940961D01*
X196782215Y-58915735D01*
X196742803Y-58886505D01*
X196706447Y-58853553D01*
X196673495Y-58817197D01*
X196644265Y-58777785D01*
X196619039Y-58735698D01*
X196598060Y-58691342D01*
X196581530Y-58645142D01*
X196569607Y-58597545D01*
X196562408Y-58549009D01*
X196560000Y-58500000D01*
X196560000Y-57500000D01*
X196562408Y-57450991D01*
X196569607Y-57402455D01*
X196581530Y-57354858D01*
X196598060Y-57308658D01*
X196619039Y-57264302D01*
X196644265Y-57222215D01*
X196673495Y-57182803D01*
X196706447Y-57146447D01*
X196742803Y-57113495D01*
X196782215Y-57084265D01*
X196824302Y-57059039D01*
X196868658Y-57038060D01*
X196914858Y-57021530D01*
X196962455Y-57009607D01*
X197010991Y-57002408D01*
X197060000Y-57000000D01*
X198060000Y-57000000D01*
X198109009Y-57002408D01*
X198109009Y-57002408D01*
G37*
D13*
G04 #@! TO.P,D9,1*
G04 #@! TO.N,GND*
X197560000Y-58000000D03*
G04 #@! TD*
D11*
G04 #@! TO.P,D10,2*
G04 #@! TO.N,Net-(D10-Pad2)*
X211790000Y-58000000D03*
D12*
G04 #@! TD*
G04 #@! TO.N,GND*
G04 #@! TO.C,D10*
G36*
X209299009Y-57002408D02*
X209347545Y-57009607D01*
X209395142Y-57021530D01*
X209441342Y-57038060D01*
X209485698Y-57059039D01*
X209527785Y-57084265D01*
X209567197Y-57113495D01*
X209603553Y-57146447D01*
X209636505Y-57182803D01*
X209665735Y-57222215D01*
X209690961Y-57264302D01*
X209711940Y-57308658D01*
X209728470Y-57354858D01*
X209740393Y-57402455D01*
X209747592Y-57450991D01*
X209750000Y-57500000D01*
X209750000Y-58500000D01*
X209747592Y-58549009D01*
X209740393Y-58597545D01*
X209728470Y-58645142D01*
X209711940Y-58691342D01*
X209690961Y-58735698D01*
X209665735Y-58777785D01*
X209636505Y-58817197D01*
X209603553Y-58853553D01*
X209567197Y-58886505D01*
X209527785Y-58915735D01*
X209485698Y-58940961D01*
X209441342Y-58961940D01*
X209395142Y-58978470D01*
X209347545Y-58990393D01*
X209299009Y-58997592D01*
X209250000Y-59000000D01*
X208250000Y-59000000D01*
X208200991Y-58997592D01*
X208152455Y-58990393D01*
X208104858Y-58978470D01*
X208058658Y-58961940D01*
X208014302Y-58940961D01*
X207972215Y-58915735D01*
X207932803Y-58886505D01*
X207896447Y-58853553D01*
X207863495Y-58817197D01*
X207834265Y-58777785D01*
X207809039Y-58735698D01*
X207788060Y-58691342D01*
X207771530Y-58645142D01*
X207759607Y-58597545D01*
X207752408Y-58549009D01*
X207750000Y-58500000D01*
X207750000Y-57500000D01*
X207752408Y-57450991D01*
X207759607Y-57402455D01*
X207771530Y-57354858D01*
X207788060Y-57308658D01*
X207809039Y-57264302D01*
X207834265Y-57222215D01*
X207863495Y-57182803D01*
X207896447Y-57146447D01*
X207932803Y-57113495D01*
X207972215Y-57084265D01*
X208014302Y-57059039D01*
X208058658Y-57038060D01*
X208104858Y-57021530D01*
X208152455Y-57009607D01*
X208200991Y-57002408D01*
X208250000Y-57000000D01*
X209250000Y-57000000D01*
X209299009Y-57002408D01*
X209299009Y-57002408D01*
G37*
D13*
G04 #@! TO.P,D10,1*
G04 #@! TO.N,GND*
X208750000Y-58000000D03*
G04 #@! TD*
D11*
G04 #@! TO.P,D11,2*
G04 #@! TO.N,Net-(D11-Pad2)*
X211790000Y-73600000D03*
D12*
G04 #@! TD*
G04 #@! TO.N,GND*
G04 #@! TO.C,D11*
G36*
X209299009Y-72602408D02*
X209347545Y-72609607D01*
X209395142Y-72621530D01*
X209441342Y-72638060D01*
X209485698Y-72659039D01*
X209527785Y-72684265D01*
X209567197Y-72713495D01*
X209603553Y-72746447D01*
X209636505Y-72782803D01*
X209665735Y-72822215D01*
X209690961Y-72864302D01*
X209711940Y-72908658D01*
X209728470Y-72954858D01*
X209740393Y-73002455D01*
X209747592Y-73050991D01*
X209750000Y-73100000D01*
X209750000Y-74100000D01*
X209747592Y-74149009D01*
X209740393Y-74197545D01*
X209728470Y-74245142D01*
X209711940Y-74291342D01*
X209690961Y-74335698D01*
X209665735Y-74377785D01*
X209636505Y-74417197D01*
X209603553Y-74453553D01*
X209567197Y-74486505D01*
X209527785Y-74515735D01*
X209485698Y-74540961D01*
X209441342Y-74561940D01*
X209395142Y-74578470D01*
X209347545Y-74590393D01*
X209299009Y-74597592D01*
X209250000Y-74600000D01*
X208250000Y-74600000D01*
X208200991Y-74597592D01*
X208152455Y-74590393D01*
X208104858Y-74578470D01*
X208058658Y-74561940D01*
X208014302Y-74540961D01*
X207972215Y-74515735D01*
X207932803Y-74486505D01*
X207896447Y-74453553D01*
X207863495Y-74417197D01*
X207834265Y-74377785D01*
X207809039Y-74335698D01*
X207788060Y-74291342D01*
X207771530Y-74245142D01*
X207759607Y-74197545D01*
X207752408Y-74149009D01*
X207750000Y-74100000D01*
X207750000Y-73100000D01*
X207752408Y-73050991D01*
X207759607Y-73002455D01*
X207771530Y-72954858D01*
X207788060Y-72908658D01*
X207809039Y-72864302D01*
X207834265Y-72822215D01*
X207863495Y-72782803D01*
X207896447Y-72746447D01*
X207932803Y-72713495D01*
X207972215Y-72684265D01*
X208014302Y-72659039D01*
X208058658Y-72638060D01*
X208104858Y-72621530D01*
X208152455Y-72609607D01*
X208200991Y-72602408D01*
X208250000Y-72600000D01*
X209250000Y-72600000D01*
X209299009Y-72602408D01*
X209299009Y-72602408D01*
G37*
D13*
G04 #@! TO.P,D11,1*
G04 #@! TO.N,GND*
X208750000Y-73600000D03*
G04 #@! TD*
D11*
G04 #@! TO.P,D12,2*
G04 #@! TO.N,Net-(D12-Pad2)*
X211790000Y-85217000D03*
D12*
G04 #@! TD*
G04 #@! TO.N,GND*
G04 #@! TO.C,D12*
G36*
X209299009Y-84219408D02*
X209347545Y-84226607D01*
X209395142Y-84238530D01*
X209441342Y-84255060D01*
X209485698Y-84276039D01*
X209527785Y-84301265D01*
X209567197Y-84330495D01*
X209603553Y-84363447D01*
X209636505Y-84399803D01*
X209665735Y-84439215D01*
X209690961Y-84481302D01*
X209711940Y-84525658D01*
X209728470Y-84571858D01*
X209740393Y-84619455D01*
X209747592Y-84667991D01*
X209750000Y-84717000D01*
X209750000Y-85717000D01*
X209747592Y-85766009D01*
X209740393Y-85814545D01*
X209728470Y-85862142D01*
X209711940Y-85908342D01*
X209690961Y-85952698D01*
X209665735Y-85994785D01*
X209636505Y-86034197D01*
X209603553Y-86070553D01*
X209567197Y-86103505D01*
X209527785Y-86132735D01*
X209485698Y-86157961D01*
X209441342Y-86178940D01*
X209395142Y-86195470D01*
X209347545Y-86207393D01*
X209299009Y-86214592D01*
X209250000Y-86217000D01*
X208250000Y-86217000D01*
X208200991Y-86214592D01*
X208152455Y-86207393D01*
X208104858Y-86195470D01*
X208058658Y-86178940D01*
X208014302Y-86157961D01*
X207972215Y-86132735D01*
X207932803Y-86103505D01*
X207896447Y-86070553D01*
X207863495Y-86034197D01*
X207834265Y-85994785D01*
X207809039Y-85952698D01*
X207788060Y-85908342D01*
X207771530Y-85862142D01*
X207759607Y-85814545D01*
X207752408Y-85766009D01*
X207750000Y-85717000D01*
X207750000Y-84717000D01*
X207752408Y-84667991D01*
X207759607Y-84619455D01*
X207771530Y-84571858D01*
X207788060Y-84525658D01*
X207809039Y-84481302D01*
X207834265Y-84439215D01*
X207863495Y-84399803D01*
X207896447Y-84363447D01*
X207932803Y-84330495D01*
X207972215Y-84301265D01*
X208014302Y-84276039D01*
X208058658Y-84255060D01*
X208104858Y-84238530D01*
X208152455Y-84226607D01*
X208200991Y-84219408D01*
X208250000Y-84217000D01*
X209250000Y-84217000D01*
X209299009Y-84219408D01*
X209299009Y-84219408D01*
G37*
D13*
G04 #@! TO.P,D12,1*
G04 #@! TO.N,GND*
X208750000Y-85217000D03*
G04 #@! TD*
D11*
G04 #@! TO.P,D13,2*
G04 #@! TO.N,Net-(D13-Pad2)*
X194990000Y-85217000D03*
D12*
G04 #@! TD*
G04 #@! TO.N,GND*
G04 #@! TO.C,D13*
G36*
X192499009Y-84219408D02*
X192547545Y-84226607D01*
X192595142Y-84238530D01*
X192641342Y-84255060D01*
X192685698Y-84276039D01*
X192727785Y-84301265D01*
X192767197Y-84330495D01*
X192803553Y-84363447D01*
X192836505Y-84399803D01*
X192865735Y-84439215D01*
X192890961Y-84481302D01*
X192911940Y-84525658D01*
X192928470Y-84571858D01*
X192940393Y-84619455D01*
X192947592Y-84667991D01*
X192950000Y-84717000D01*
X192950000Y-85717000D01*
X192947592Y-85766009D01*
X192940393Y-85814545D01*
X192928470Y-85862142D01*
X192911940Y-85908342D01*
X192890961Y-85952698D01*
X192865735Y-85994785D01*
X192836505Y-86034197D01*
X192803553Y-86070553D01*
X192767197Y-86103505D01*
X192727785Y-86132735D01*
X192685698Y-86157961D01*
X192641342Y-86178940D01*
X192595142Y-86195470D01*
X192547545Y-86207393D01*
X192499009Y-86214592D01*
X192450000Y-86217000D01*
X191450000Y-86217000D01*
X191400991Y-86214592D01*
X191352455Y-86207393D01*
X191304858Y-86195470D01*
X191258658Y-86178940D01*
X191214302Y-86157961D01*
X191172215Y-86132735D01*
X191132803Y-86103505D01*
X191096447Y-86070553D01*
X191063495Y-86034197D01*
X191034265Y-85994785D01*
X191009039Y-85952698D01*
X190988060Y-85908342D01*
X190971530Y-85862142D01*
X190959607Y-85814545D01*
X190952408Y-85766009D01*
X190950000Y-85717000D01*
X190950000Y-84717000D01*
X190952408Y-84667991D01*
X190959607Y-84619455D01*
X190971530Y-84571858D01*
X190988060Y-84525658D01*
X191009039Y-84481302D01*
X191034265Y-84439215D01*
X191063495Y-84399803D01*
X191096447Y-84363447D01*
X191132803Y-84330495D01*
X191172215Y-84301265D01*
X191214302Y-84276039D01*
X191258658Y-84255060D01*
X191304858Y-84238530D01*
X191352455Y-84226607D01*
X191400991Y-84219408D01*
X191450000Y-84217000D01*
X192450000Y-84217000D01*
X192499009Y-84219408D01*
X192499009Y-84219408D01*
G37*
D13*
G04 #@! TO.P,D13,1*
G04 #@! TO.N,GND*
X191950000Y-85217000D03*
G04 #@! TD*
D11*
G04 #@! TO.P,D14,2*
G04 #@! TO.N,Net-(D14-Pad2)*
X194990000Y-73600000D03*
D12*
G04 #@! TD*
G04 #@! TO.N,GND*
G04 #@! TO.C,D14*
G36*
X192499009Y-72602408D02*
X192547545Y-72609607D01*
X192595142Y-72621530D01*
X192641342Y-72638060D01*
X192685698Y-72659039D01*
X192727785Y-72684265D01*
X192767197Y-72713495D01*
X192803553Y-72746447D01*
X192836505Y-72782803D01*
X192865735Y-72822215D01*
X192890961Y-72864302D01*
X192911940Y-72908658D01*
X192928470Y-72954858D01*
X192940393Y-73002455D01*
X192947592Y-73050991D01*
X192950000Y-73100000D01*
X192950000Y-74100000D01*
X192947592Y-74149009D01*
X192940393Y-74197545D01*
X192928470Y-74245142D01*
X192911940Y-74291342D01*
X192890961Y-74335698D01*
X192865735Y-74377785D01*
X192836505Y-74417197D01*
X192803553Y-74453553D01*
X192767197Y-74486505D01*
X192727785Y-74515735D01*
X192685698Y-74540961D01*
X192641342Y-74561940D01*
X192595142Y-74578470D01*
X192547545Y-74590393D01*
X192499009Y-74597592D01*
X192450000Y-74600000D01*
X191450000Y-74600000D01*
X191400991Y-74597592D01*
X191352455Y-74590393D01*
X191304858Y-74578470D01*
X191258658Y-74561940D01*
X191214302Y-74540961D01*
X191172215Y-74515735D01*
X191132803Y-74486505D01*
X191096447Y-74453553D01*
X191063495Y-74417197D01*
X191034265Y-74377785D01*
X191009039Y-74335698D01*
X190988060Y-74291342D01*
X190971530Y-74245142D01*
X190959607Y-74197545D01*
X190952408Y-74149009D01*
X190950000Y-74100000D01*
X190950000Y-73100000D01*
X190952408Y-73050991D01*
X190959607Y-73002455D01*
X190971530Y-72954858D01*
X190988060Y-72908658D01*
X191009039Y-72864302D01*
X191034265Y-72822215D01*
X191063495Y-72782803D01*
X191096447Y-72746447D01*
X191132803Y-72713495D01*
X191172215Y-72684265D01*
X191214302Y-72659039D01*
X191258658Y-72638060D01*
X191304858Y-72621530D01*
X191352455Y-72609607D01*
X191400991Y-72602408D01*
X191450000Y-72600000D01*
X192450000Y-72600000D01*
X192499009Y-72602408D01*
X192499009Y-72602408D01*
G37*
D13*
G04 #@! TO.P,D14,1*
G04 #@! TO.N,GND*
X191950000Y-73600000D03*
G04 #@! TD*
D11*
G04 #@! TO.P,D15,2*
G04 #@! TO.N,Net-(D15-Pad2)*
X188050000Y-73600000D03*
D12*
G04 #@! TD*
G04 #@! TO.N,GND*
G04 #@! TO.C,D15*
G36*
X185559009Y-72602408D02*
X185607545Y-72609607D01*
X185655142Y-72621530D01*
X185701342Y-72638060D01*
X185745698Y-72659039D01*
X185787785Y-72684265D01*
X185827197Y-72713495D01*
X185863553Y-72746447D01*
X185896505Y-72782803D01*
X185925735Y-72822215D01*
X185950961Y-72864302D01*
X185971940Y-72908658D01*
X185988470Y-72954858D01*
X186000393Y-73002455D01*
X186007592Y-73050991D01*
X186010000Y-73100000D01*
X186010000Y-74100000D01*
X186007592Y-74149009D01*
X186000393Y-74197545D01*
X185988470Y-74245142D01*
X185971940Y-74291342D01*
X185950961Y-74335698D01*
X185925735Y-74377785D01*
X185896505Y-74417197D01*
X185863553Y-74453553D01*
X185827197Y-74486505D01*
X185787785Y-74515735D01*
X185745698Y-74540961D01*
X185701342Y-74561940D01*
X185655142Y-74578470D01*
X185607545Y-74590393D01*
X185559009Y-74597592D01*
X185510000Y-74600000D01*
X184510000Y-74600000D01*
X184460991Y-74597592D01*
X184412455Y-74590393D01*
X184364858Y-74578470D01*
X184318658Y-74561940D01*
X184274302Y-74540961D01*
X184232215Y-74515735D01*
X184192803Y-74486505D01*
X184156447Y-74453553D01*
X184123495Y-74417197D01*
X184094265Y-74377785D01*
X184069039Y-74335698D01*
X184048060Y-74291342D01*
X184031530Y-74245142D01*
X184019607Y-74197545D01*
X184012408Y-74149009D01*
X184010000Y-74100000D01*
X184010000Y-73100000D01*
X184012408Y-73050991D01*
X184019607Y-73002455D01*
X184031530Y-72954858D01*
X184048060Y-72908658D01*
X184069039Y-72864302D01*
X184094265Y-72822215D01*
X184123495Y-72782803D01*
X184156447Y-72746447D01*
X184192803Y-72713495D01*
X184232215Y-72684265D01*
X184274302Y-72659039D01*
X184318658Y-72638060D01*
X184364858Y-72621530D01*
X184412455Y-72609607D01*
X184460991Y-72602408D01*
X184510000Y-72600000D01*
X185510000Y-72600000D01*
X185559009Y-72602408D01*
X185559009Y-72602408D01*
G37*
D13*
G04 #@! TO.P,D15,1*
G04 #@! TO.N,GND*
X185010000Y-73600000D03*
G04 #@! TD*
D11*
G04 #@! TO.P,D16,2*
G04 #@! TO.N,Net-(D16-Pad2)*
X181050000Y-73600000D03*
D12*
G04 #@! TD*
G04 #@! TO.N,GND*
G04 #@! TO.C,D16*
G36*
X178559009Y-72602408D02*
X178607545Y-72609607D01*
X178655142Y-72621530D01*
X178701342Y-72638060D01*
X178745698Y-72659039D01*
X178787785Y-72684265D01*
X178827197Y-72713495D01*
X178863553Y-72746447D01*
X178896505Y-72782803D01*
X178925735Y-72822215D01*
X178950961Y-72864302D01*
X178971940Y-72908658D01*
X178988470Y-72954858D01*
X179000393Y-73002455D01*
X179007592Y-73050991D01*
X179010000Y-73100000D01*
X179010000Y-74100000D01*
X179007592Y-74149009D01*
X179000393Y-74197545D01*
X178988470Y-74245142D01*
X178971940Y-74291342D01*
X178950961Y-74335698D01*
X178925735Y-74377785D01*
X178896505Y-74417197D01*
X178863553Y-74453553D01*
X178827197Y-74486505D01*
X178787785Y-74515735D01*
X178745698Y-74540961D01*
X178701342Y-74561940D01*
X178655142Y-74578470D01*
X178607545Y-74590393D01*
X178559009Y-74597592D01*
X178510000Y-74600000D01*
X177510000Y-74600000D01*
X177460991Y-74597592D01*
X177412455Y-74590393D01*
X177364858Y-74578470D01*
X177318658Y-74561940D01*
X177274302Y-74540961D01*
X177232215Y-74515735D01*
X177192803Y-74486505D01*
X177156447Y-74453553D01*
X177123495Y-74417197D01*
X177094265Y-74377785D01*
X177069039Y-74335698D01*
X177048060Y-74291342D01*
X177031530Y-74245142D01*
X177019607Y-74197545D01*
X177012408Y-74149009D01*
X177010000Y-74100000D01*
X177010000Y-73100000D01*
X177012408Y-73050991D01*
X177019607Y-73002455D01*
X177031530Y-72954858D01*
X177048060Y-72908658D01*
X177069039Y-72864302D01*
X177094265Y-72822215D01*
X177123495Y-72782803D01*
X177156447Y-72746447D01*
X177192803Y-72713495D01*
X177232215Y-72684265D01*
X177274302Y-72659039D01*
X177318658Y-72638060D01*
X177364858Y-72621530D01*
X177412455Y-72609607D01*
X177460991Y-72602408D01*
X177510000Y-72600000D01*
X178510000Y-72600000D01*
X178559009Y-72602408D01*
X178559009Y-72602408D01*
G37*
D13*
G04 #@! TO.P,D16,1*
G04 #@! TO.N,GND*
X178010000Y-73600000D03*
G04 #@! TD*
D11*
G04 #@! TO.P,D18,2*
G04 #@! TO.N,Net-(D18-Pad2)*
X181050000Y-120400000D03*
D12*
G04 #@! TD*
G04 #@! TO.N,GND*
G04 #@! TO.C,D18*
G36*
X178559009Y-119402408D02*
X178607545Y-119409607D01*
X178655142Y-119421530D01*
X178701342Y-119438060D01*
X178745698Y-119459039D01*
X178787785Y-119484265D01*
X178827197Y-119513495D01*
X178863553Y-119546447D01*
X178896505Y-119582803D01*
X178925735Y-119622215D01*
X178950961Y-119664302D01*
X178971940Y-119708658D01*
X178988470Y-119754858D01*
X179000393Y-119802455D01*
X179007592Y-119850991D01*
X179010000Y-119900000D01*
X179010000Y-120900000D01*
X179007592Y-120949009D01*
X179000393Y-120997545D01*
X178988470Y-121045142D01*
X178971940Y-121091342D01*
X178950961Y-121135698D01*
X178925735Y-121177785D01*
X178896505Y-121217197D01*
X178863553Y-121253553D01*
X178827197Y-121286505D01*
X178787785Y-121315735D01*
X178745698Y-121340961D01*
X178701342Y-121361940D01*
X178655142Y-121378470D01*
X178607545Y-121390393D01*
X178559009Y-121397592D01*
X178510000Y-121400000D01*
X177510000Y-121400000D01*
X177460991Y-121397592D01*
X177412455Y-121390393D01*
X177364858Y-121378470D01*
X177318658Y-121361940D01*
X177274302Y-121340961D01*
X177232215Y-121315735D01*
X177192803Y-121286505D01*
X177156447Y-121253553D01*
X177123495Y-121217197D01*
X177094265Y-121177785D01*
X177069039Y-121135698D01*
X177048060Y-121091342D01*
X177031530Y-121045142D01*
X177019607Y-120997545D01*
X177012408Y-120949009D01*
X177010000Y-120900000D01*
X177010000Y-119900000D01*
X177012408Y-119850991D01*
X177019607Y-119802455D01*
X177031530Y-119754858D01*
X177048060Y-119708658D01*
X177069039Y-119664302D01*
X177094265Y-119622215D01*
X177123495Y-119582803D01*
X177156447Y-119546447D01*
X177192803Y-119513495D01*
X177232215Y-119484265D01*
X177274302Y-119459039D01*
X177318658Y-119438060D01*
X177364858Y-119421530D01*
X177412455Y-119409607D01*
X177460991Y-119402408D01*
X177510000Y-119400000D01*
X178510000Y-119400000D01*
X178559009Y-119402408D01*
X178559009Y-119402408D01*
G37*
D13*
G04 #@! TO.P,D18,1*
G04 #@! TO.N,GND*
X178010000Y-120400000D03*
G04 #@! TD*
D11*
G04 #@! TO.P,D19,2*
G04 #@! TO.N,Net-(D19-Pad2)*
X181050000Y-129900000D03*
D12*
G04 #@! TD*
G04 #@! TO.N,GND*
G04 #@! TO.C,D19*
G36*
X178559009Y-128902408D02*
X178607545Y-128909607D01*
X178655142Y-128921530D01*
X178701342Y-128938060D01*
X178745698Y-128959039D01*
X178787785Y-128984265D01*
X178827197Y-129013495D01*
X178863553Y-129046447D01*
X178896505Y-129082803D01*
X178925735Y-129122215D01*
X178950961Y-129164302D01*
X178971940Y-129208658D01*
X178988470Y-129254858D01*
X179000393Y-129302455D01*
X179007592Y-129350991D01*
X179010000Y-129400000D01*
X179010000Y-130400000D01*
X179007592Y-130449009D01*
X179000393Y-130497545D01*
X178988470Y-130545142D01*
X178971940Y-130591342D01*
X178950961Y-130635698D01*
X178925735Y-130677785D01*
X178896505Y-130717197D01*
X178863553Y-130753553D01*
X178827197Y-130786505D01*
X178787785Y-130815735D01*
X178745698Y-130840961D01*
X178701342Y-130861940D01*
X178655142Y-130878470D01*
X178607545Y-130890393D01*
X178559009Y-130897592D01*
X178510000Y-130900000D01*
X177510000Y-130900000D01*
X177460991Y-130897592D01*
X177412455Y-130890393D01*
X177364858Y-130878470D01*
X177318658Y-130861940D01*
X177274302Y-130840961D01*
X177232215Y-130815735D01*
X177192803Y-130786505D01*
X177156447Y-130753553D01*
X177123495Y-130717197D01*
X177094265Y-130677785D01*
X177069039Y-130635698D01*
X177048060Y-130591342D01*
X177031530Y-130545142D01*
X177019607Y-130497545D01*
X177012408Y-130449009D01*
X177010000Y-130400000D01*
X177010000Y-129400000D01*
X177012408Y-129350991D01*
X177019607Y-129302455D01*
X177031530Y-129254858D01*
X177048060Y-129208658D01*
X177069039Y-129164302D01*
X177094265Y-129122215D01*
X177123495Y-129082803D01*
X177156447Y-129046447D01*
X177192803Y-129013495D01*
X177232215Y-128984265D01*
X177274302Y-128959039D01*
X177318658Y-128938060D01*
X177364858Y-128921530D01*
X177412455Y-128909607D01*
X177460991Y-128902408D01*
X177510000Y-128900000D01*
X178510000Y-128900000D01*
X178559009Y-128902408D01*
X178559009Y-128902408D01*
G37*
D13*
G04 #@! TO.P,D19,1*
G04 #@! TO.N,GND*
X178010000Y-129900000D03*
G04 #@! TD*
D11*
G04 #@! TO.P,D20,2*
G04 #@! TO.N,Net-(D20-Pad2)*
X190590000Y-129900000D03*
D12*
G04 #@! TD*
G04 #@! TO.N,GND*
G04 #@! TO.C,D20*
G36*
X188099009Y-128902408D02*
X188147545Y-128909607D01*
X188195142Y-128921530D01*
X188241342Y-128938060D01*
X188285698Y-128959039D01*
X188327785Y-128984265D01*
X188367197Y-129013495D01*
X188403553Y-129046447D01*
X188436505Y-129082803D01*
X188465735Y-129122215D01*
X188490961Y-129164302D01*
X188511940Y-129208658D01*
X188528470Y-129254858D01*
X188540393Y-129302455D01*
X188547592Y-129350991D01*
X188550000Y-129400000D01*
X188550000Y-130400000D01*
X188547592Y-130449009D01*
X188540393Y-130497545D01*
X188528470Y-130545142D01*
X188511940Y-130591342D01*
X188490961Y-130635698D01*
X188465735Y-130677785D01*
X188436505Y-130717197D01*
X188403553Y-130753553D01*
X188367197Y-130786505D01*
X188327785Y-130815735D01*
X188285698Y-130840961D01*
X188241342Y-130861940D01*
X188195142Y-130878470D01*
X188147545Y-130890393D01*
X188099009Y-130897592D01*
X188050000Y-130900000D01*
X187050000Y-130900000D01*
X187000991Y-130897592D01*
X186952455Y-130890393D01*
X186904858Y-130878470D01*
X186858658Y-130861940D01*
X186814302Y-130840961D01*
X186772215Y-130815735D01*
X186732803Y-130786505D01*
X186696447Y-130753553D01*
X186663495Y-130717197D01*
X186634265Y-130677785D01*
X186609039Y-130635698D01*
X186588060Y-130591342D01*
X186571530Y-130545142D01*
X186559607Y-130497545D01*
X186552408Y-130449009D01*
X186550000Y-130400000D01*
X186550000Y-129400000D01*
X186552408Y-129350991D01*
X186559607Y-129302455D01*
X186571530Y-129254858D01*
X186588060Y-129208658D01*
X186609039Y-129164302D01*
X186634265Y-129122215D01*
X186663495Y-129082803D01*
X186696447Y-129046447D01*
X186732803Y-129013495D01*
X186772215Y-128984265D01*
X186814302Y-128959039D01*
X186858658Y-128938060D01*
X186904858Y-128921530D01*
X186952455Y-128909607D01*
X187000991Y-128902408D01*
X187050000Y-128900000D01*
X188050000Y-128900000D01*
X188099009Y-128902408D01*
X188099009Y-128902408D01*
G37*
D13*
G04 #@! TO.P,D20,1*
G04 #@! TO.N,GND*
X187550000Y-129900000D03*
G04 #@! TD*
D11*
G04 #@! TO.P,D21,2*
G04 #@! TO.N,Net-(D21-Pad2)*
X190590000Y-146700000D03*
D12*
G04 #@! TD*
G04 #@! TO.N,GND*
G04 #@! TO.C,D21*
G36*
X188099009Y-145702408D02*
X188147545Y-145709607D01*
X188195142Y-145721530D01*
X188241342Y-145738060D01*
X188285698Y-145759039D01*
X188327785Y-145784265D01*
X188367197Y-145813495D01*
X188403553Y-145846447D01*
X188436505Y-145882803D01*
X188465735Y-145922215D01*
X188490961Y-145964302D01*
X188511940Y-146008658D01*
X188528470Y-146054858D01*
X188540393Y-146102455D01*
X188547592Y-146150991D01*
X188550000Y-146200000D01*
X188550000Y-147200000D01*
X188547592Y-147249009D01*
X188540393Y-147297545D01*
X188528470Y-147345142D01*
X188511940Y-147391342D01*
X188490961Y-147435698D01*
X188465735Y-147477785D01*
X188436505Y-147517197D01*
X188403553Y-147553553D01*
X188367197Y-147586505D01*
X188327785Y-147615735D01*
X188285698Y-147640961D01*
X188241342Y-147661940D01*
X188195142Y-147678470D01*
X188147545Y-147690393D01*
X188099009Y-147697592D01*
X188050000Y-147700000D01*
X187050000Y-147700000D01*
X187000991Y-147697592D01*
X186952455Y-147690393D01*
X186904858Y-147678470D01*
X186858658Y-147661940D01*
X186814302Y-147640961D01*
X186772215Y-147615735D01*
X186732803Y-147586505D01*
X186696447Y-147553553D01*
X186663495Y-147517197D01*
X186634265Y-147477785D01*
X186609039Y-147435698D01*
X186588060Y-147391342D01*
X186571530Y-147345142D01*
X186559607Y-147297545D01*
X186552408Y-147249009D01*
X186550000Y-147200000D01*
X186550000Y-146200000D01*
X186552408Y-146150991D01*
X186559607Y-146102455D01*
X186571530Y-146054858D01*
X186588060Y-146008658D01*
X186609039Y-145964302D01*
X186634265Y-145922215D01*
X186663495Y-145882803D01*
X186696447Y-145846447D01*
X186732803Y-145813495D01*
X186772215Y-145784265D01*
X186814302Y-145759039D01*
X186858658Y-145738060D01*
X186904858Y-145721530D01*
X186952455Y-145709607D01*
X187000991Y-145702408D01*
X187050000Y-145700000D01*
X188050000Y-145700000D01*
X188099009Y-145702408D01*
X188099009Y-145702408D01*
G37*
D13*
G04 #@! TO.P,D21,1*
G04 #@! TO.N,GND*
X187550000Y-146700000D03*
G04 #@! TD*
D11*
G04 #@! TO.P,D22,2*
G04 #@! TO.N,Net-(D22-Pad2)*
X178590000Y-146700000D03*
D12*
G04 #@! TD*
G04 #@! TO.N,GND*
G04 #@! TO.C,D22*
G36*
X176099009Y-145702408D02*
X176147545Y-145709607D01*
X176195142Y-145721530D01*
X176241342Y-145738060D01*
X176285698Y-145759039D01*
X176327785Y-145784265D01*
X176367197Y-145813495D01*
X176403553Y-145846447D01*
X176436505Y-145882803D01*
X176465735Y-145922215D01*
X176490961Y-145964302D01*
X176511940Y-146008658D01*
X176528470Y-146054858D01*
X176540393Y-146102455D01*
X176547592Y-146150991D01*
X176550000Y-146200000D01*
X176550000Y-147200000D01*
X176547592Y-147249009D01*
X176540393Y-147297545D01*
X176528470Y-147345142D01*
X176511940Y-147391342D01*
X176490961Y-147435698D01*
X176465735Y-147477785D01*
X176436505Y-147517197D01*
X176403553Y-147553553D01*
X176367197Y-147586505D01*
X176327785Y-147615735D01*
X176285698Y-147640961D01*
X176241342Y-147661940D01*
X176195142Y-147678470D01*
X176147545Y-147690393D01*
X176099009Y-147697592D01*
X176050000Y-147700000D01*
X175050000Y-147700000D01*
X175000991Y-147697592D01*
X174952455Y-147690393D01*
X174904858Y-147678470D01*
X174858658Y-147661940D01*
X174814302Y-147640961D01*
X174772215Y-147615735D01*
X174732803Y-147586505D01*
X174696447Y-147553553D01*
X174663495Y-147517197D01*
X174634265Y-147477785D01*
X174609039Y-147435698D01*
X174588060Y-147391342D01*
X174571530Y-147345142D01*
X174559607Y-147297545D01*
X174552408Y-147249009D01*
X174550000Y-147200000D01*
X174550000Y-146200000D01*
X174552408Y-146150991D01*
X174559607Y-146102455D01*
X174571530Y-146054858D01*
X174588060Y-146008658D01*
X174609039Y-145964302D01*
X174634265Y-145922215D01*
X174663495Y-145882803D01*
X174696447Y-145846447D01*
X174732803Y-145813495D01*
X174772215Y-145784265D01*
X174814302Y-145759039D01*
X174858658Y-145738060D01*
X174904858Y-145721530D01*
X174952455Y-145709607D01*
X175000991Y-145702408D01*
X175050000Y-145700000D01*
X176050000Y-145700000D01*
X176099009Y-145702408D01*
X176099009Y-145702408D01*
G37*
D13*
G04 #@! TO.P,D22,1*
G04 #@! TO.N,GND*
X175550000Y-146700000D03*
G04 #@! TD*
D11*
G04 #@! TO.P,D23,2*
G04 #@! TO.N,Net-(D23-Pad2)*
X166590000Y-146700000D03*
D12*
G04 #@! TD*
G04 #@! TO.N,GND*
G04 #@! TO.C,D23*
G36*
X164099009Y-145702408D02*
X164147545Y-145709607D01*
X164195142Y-145721530D01*
X164241342Y-145738060D01*
X164285698Y-145759039D01*
X164327785Y-145784265D01*
X164367197Y-145813495D01*
X164403553Y-145846447D01*
X164436505Y-145882803D01*
X164465735Y-145922215D01*
X164490961Y-145964302D01*
X164511940Y-146008658D01*
X164528470Y-146054858D01*
X164540393Y-146102455D01*
X164547592Y-146150991D01*
X164550000Y-146200000D01*
X164550000Y-147200000D01*
X164547592Y-147249009D01*
X164540393Y-147297545D01*
X164528470Y-147345142D01*
X164511940Y-147391342D01*
X164490961Y-147435698D01*
X164465735Y-147477785D01*
X164436505Y-147517197D01*
X164403553Y-147553553D01*
X164367197Y-147586505D01*
X164327785Y-147615735D01*
X164285698Y-147640961D01*
X164241342Y-147661940D01*
X164195142Y-147678470D01*
X164147545Y-147690393D01*
X164099009Y-147697592D01*
X164050000Y-147700000D01*
X163050000Y-147700000D01*
X163000991Y-147697592D01*
X162952455Y-147690393D01*
X162904858Y-147678470D01*
X162858658Y-147661940D01*
X162814302Y-147640961D01*
X162772215Y-147615735D01*
X162732803Y-147586505D01*
X162696447Y-147553553D01*
X162663495Y-147517197D01*
X162634265Y-147477785D01*
X162609039Y-147435698D01*
X162588060Y-147391342D01*
X162571530Y-147345142D01*
X162559607Y-147297545D01*
X162552408Y-147249009D01*
X162550000Y-147200000D01*
X162550000Y-146200000D01*
X162552408Y-146150991D01*
X162559607Y-146102455D01*
X162571530Y-146054858D01*
X162588060Y-146008658D01*
X162609039Y-145964302D01*
X162634265Y-145922215D01*
X162663495Y-145882803D01*
X162696447Y-145846447D01*
X162732803Y-145813495D01*
X162772215Y-145784265D01*
X162814302Y-145759039D01*
X162858658Y-145738060D01*
X162904858Y-145721530D01*
X162952455Y-145709607D01*
X163000991Y-145702408D01*
X163050000Y-145700000D01*
X164050000Y-145700000D01*
X164099009Y-145702408D01*
X164099009Y-145702408D01*
G37*
D13*
G04 #@! TO.P,D23,1*
G04 #@! TO.N,GND*
X163550000Y-146700000D03*
G04 #@! TD*
D11*
G04 #@! TO.P,D24,2*
G04 #@! TO.N,Net-(D24-Pad2)*
X154590000Y-146700000D03*
D12*
G04 #@! TD*
G04 #@! TO.N,GND*
G04 #@! TO.C,D24*
G36*
X152099009Y-145702408D02*
X152147545Y-145709607D01*
X152195142Y-145721530D01*
X152241342Y-145738060D01*
X152285698Y-145759039D01*
X152327785Y-145784265D01*
X152367197Y-145813495D01*
X152403553Y-145846447D01*
X152436505Y-145882803D01*
X152465735Y-145922215D01*
X152490961Y-145964302D01*
X152511940Y-146008658D01*
X152528470Y-146054858D01*
X152540393Y-146102455D01*
X152547592Y-146150991D01*
X152550000Y-146200000D01*
X152550000Y-147200000D01*
X152547592Y-147249009D01*
X152540393Y-147297545D01*
X152528470Y-147345142D01*
X152511940Y-147391342D01*
X152490961Y-147435698D01*
X152465735Y-147477785D01*
X152436505Y-147517197D01*
X152403553Y-147553553D01*
X152367197Y-147586505D01*
X152327785Y-147615735D01*
X152285698Y-147640961D01*
X152241342Y-147661940D01*
X152195142Y-147678470D01*
X152147545Y-147690393D01*
X152099009Y-147697592D01*
X152050000Y-147700000D01*
X151050000Y-147700000D01*
X151000991Y-147697592D01*
X150952455Y-147690393D01*
X150904858Y-147678470D01*
X150858658Y-147661940D01*
X150814302Y-147640961D01*
X150772215Y-147615735D01*
X150732803Y-147586505D01*
X150696447Y-147553553D01*
X150663495Y-147517197D01*
X150634265Y-147477785D01*
X150609039Y-147435698D01*
X150588060Y-147391342D01*
X150571530Y-147345142D01*
X150559607Y-147297545D01*
X150552408Y-147249009D01*
X150550000Y-147200000D01*
X150550000Y-146200000D01*
X150552408Y-146150991D01*
X150559607Y-146102455D01*
X150571530Y-146054858D01*
X150588060Y-146008658D01*
X150609039Y-145964302D01*
X150634265Y-145922215D01*
X150663495Y-145882803D01*
X150696447Y-145846447D01*
X150732803Y-145813495D01*
X150772215Y-145784265D01*
X150814302Y-145759039D01*
X150858658Y-145738060D01*
X150904858Y-145721530D01*
X150952455Y-145709607D01*
X151000991Y-145702408D01*
X151050000Y-145700000D01*
X152050000Y-145700000D01*
X152099009Y-145702408D01*
X152099009Y-145702408D01*
G37*
D13*
G04 #@! TO.P,D24,1*
G04 #@! TO.N,GND*
X151550000Y-146700000D03*
G04 #@! TD*
D11*
G04 #@! TO.P,D25,2*
G04 #@! TO.N,Net-(D25-Pad2)*
X154590000Y-129900000D03*
D12*
G04 #@! TD*
G04 #@! TO.N,GND*
G04 #@! TO.C,D25*
G36*
X152099009Y-128902408D02*
X152147545Y-128909607D01*
X152195142Y-128921530D01*
X152241342Y-128938060D01*
X152285698Y-128959039D01*
X152327785Y-128984265D01*
X152367197Y-129013495D01*
X152403553Y-129046447D01*
X152436505Y-129082803D01*
X152465735Y-129122215D01*
X152490961Y-129164302D01*
X152511940Y-129208658D01*
X152528470Y-129254858D01*
X152540393Y-129302455D01*
X152547592Y-129350991D01*
X152550000Y-129400000D01*
X152550000Y-130400000D01*
X152547592Y-130449009D01*
X152540393Y-130497545D01*
X152528470Y-130545142D01*
X152511940Y-130591342D01*
X152490961Y-130635698D01*
X152465735Y-130677785D01*
X152436505Y-130717197D01*
X152403553Y-130753553D01*
X152367197Y-130786505D01*
X152327785Y-130815735D01*
X152285698Y-130840961D01*
X152241342Y-130861940D01*
X152195142Y-130878470D01*
X152147545Y-130890393D01*
X152099009Y-130897592D01*
X152050000Y-130900000D01*
X151050000Y-130900000D01*
X151000991Y-130897592D01*
X150952455Y-130890393D01*
X150904858Y-130878470D01*
X150858658Y-130861940D01*
X150814302Y-130840961D01*
X150772215Y-130815735D01*
X150732803Y-130786505D01*
X150696447Y-130753553D01*
X150663495Y-130717197D01*
X150634265Y-130677785D01*
X150609039Y-130635698D01*
X150588060Y-130591342D01*
X150571530Y-130545142D01*
X150559607Y-130497545D01*
X150552408Y-130449009D01*
X150550000Y-130400000D01*
X150550000Y-129400000D01*
X150552408Y-129350991D01*
X150559607Y-129302455D01*
X150571530Y-129254858D01*
X150588060Y-129208658D01*
X150609039Y-129164302D01*
X150634265Y-129122215D01*
X150663495Y-129082803D01*
X150696447Y-129046447D01*
X150732803Y-129013495D01*
X150772215Y-128984265D01*
X150814302Y-128959039D01*
X150858658Y-128938060D01*
X150904858Y-128921530D01*
X150952455Y-128909607D01*
X151000991Y-128902408D01*
X151050000Y-128900000D01*
X152050000Y-128900000D01*
X152099009Y-128902408D01*
X152099009Y-128902408D01*
G37*
D13*
G04 #@! TO.P,D25,1*
G04 #@! TO.N,GND*
X151550000Y-129900000D03*
G04 #@! TD*
D11*
G04 #@! TO.P,D26,2*
G04 #@! TO.N,Net-(D26-Pad2)*
X163990000Y-129900000D03*
D12*
G04 #@! TD*
G04 #@! TO.N,GND*
G04 #@! TO.C,D26*
G36*
X161499009Y-128902408D02*
X161547545Y-128909607D01*
X161595142Y-128921530D01*
X161641342Y-128938060D01*
X161685698Y-128959039D01*
X161727785Y-128984265D01*
X161767197Y-129013495D01*
X161803553Y-129046447D01*
X161836505Y-129082803D01*
X161865735Y-129122215D01*
X161890961Y-129164302D01*
X161911940Y-129208658D01*
X161928470Y-129254858D01*
X161940393Y-129302455D01*
X161947592Y-129350991D01*
X161950000Y-129400000D01*
X161950000Y-130400000D01*
X161947592Y-130449009D01*
X161940393Y-130497545D01*
X161928470Y-130545142D01*
X161911940Y-130591342D01*
X161890961Y-130635698D01*
X161865735Y-130677785D01*
X161836505Y-130717197D01*
X161803553Y-130753553D01*
X161767197Y-130786505D01*
X161727785Y-130815735D01*
X161685698Y-130840961D01*
X161641342Y-130861940D01*
X161595142Y-130878470D01*
X161547545Y-130890393D01*
X161499009Y-130897592D01*
X161450000Y-130900000D01*
X160450000Y-130900000D01*
X160400991Y-130897592D01*
X160352455Y-130890393D01*
X160304858Y-130878470D01*
X160258658Y-130861940D01*
X160214302Y-130840961D01*
X160172215Y-130815735D01*
X160132803Y-130786505D01*
X160096447Y-130753553D01*
X160063495Y-130717197D01*
X160034265Y-130677785D01*
X160009039Y-130635698D01*
X159988060Y-130591342D01*
X159971530Y-130545142D01*
X159959607Y-130497545D01*
X159952408Y-130449009D01*
X159950000Y-130400000D01*
X159950000Y-129400000D01*
X159952408Y-129350991D01*
X159959607Y-129302455D01*
X159971530Y-129254858D01*
X159988060Y-129208658D01*
X160009039Y-129164302D01*
X160034265Y-129122215D01*
X160063495Y-129082803D01*
X160096447Y-129046447D01*
X160132803Y-129013495D01*
X160172215Y-128984265D01*
X160214302Y-128959039D01*
X160258658Y-128938060D01*
X160304858Y-128921530D01*
X160352455Y-128909607D01*
X160400991Y-128902408D01*
X160450000Y-128900000D01*
X161450000Y-128900000D01*
X161499009Y-128902408D01*
X161499009Y-128902408D01*
G37*
D13*
G04 #@! TO.P,D26,1*
G04 #@! TO.N,GND*
X160950000Y-129900000D03*
G04 #@! TD*
D11*
G04 #@! TO.P,D27,2*
G04 #@! TO.N,Net-(D27-Pad2)*
X163990000Y-120400000D03*
D12*
G04 #@! TD*
G04 #@! TO.N,GND*
G04 #@! TO.C,D27*
G36*
X161499009Y-119402408D02*
X161547545Y-119409607D01*
X161595142Y-119421530D01*
X161641342Y-119438060D01*
X161685698Y-119459039D01*
X161727785Y-119484265D01*
X161767197Y-119513495D01*
X161803553Y-119546447D01*
X161836505Y-119582803D01*
X161865735Y-119622215D01*
X161890961Y-119664302D01*
X161911940Y-119708658D01*
X161928470Y-119754858D01*
X161940393Y-119802455D01*
X161947592Y-119850991D01*
X161950000Y-119900000D01*
X161950000Y-120900000D01*
X161947592Y-120949009D01*
X161940393Y-120997545D01*
X161928470Y-121045142D01*
X161911940Y-121091342D01*
X161890961Y-121135698D01*
X161865735Y-121177785D01*
X161836505Y-121217197D01*
X161803553Y-121253553D01*
X161767197Y-121286505D01*
X161727785Y-121315735D01*
X161685698Y-121340961D01*
X161641342Y-121361940D01*
X161595142Y-121378470D01*
X161547545Y-121390393D01*
X161499009Y-121397592D01*
X161450000Y-121400000D01*
X160450000Y-121400000D01*
X160400991Y-121397592D01*
X160352455Y-121390393D01*
X160304858Y-121378470D01*
X160258658Y-121361940D01*
X160214302Y-121340961D01*
X160172215Y-121315735D01*
X160132803Y-121286505D01*
X160096447Y-121253553D01*
X160063495Y-121217197D01*
X160034265Y-121177785D01*
X160009039Y-121135698D01*
X159988060Y-121091342D01*
X159971530Y-121045142D01*
X159959607Y-120997545D01*
X159952408Y-120949009D01*
X159950000Y-120900000D01*
X159950000Y-119900000D01*
X159952408Y-119850991D01*
X159959607Y-119802455D01*
X159971530Y-119754858D01*
X159988060Y-119708658D01*
X160009039Y-119664302D01*
X160034265Y-119622215D01*
X160063495Y-119582803D01*
X160096447Y-119546447D01*
X160132803Y-119513495D01*
X160172215Y-119484265D01*
X160214302Y-119459039D01*
X160258658Y-119438060D01*
X160304858Y-119421530D01*
X160352455Y-119409607D01*
X160400991Y-119402408D01*
X160450000Y-119400000D01*
X161450000Y-119400000D01*
X161499009Y-119402408D01*
X161499009Y-119402408D01*
G37*
D13*
G04 #@! TO.P,D27,1*
G04 #@! TO.N,GND*
X160950000Y-120400000D03*
G04 #@! TD*
D11*
G04 #@! TO.P,D28,2*
G04 #@! TO.N,Net-(D28-Pad2)*
X163990000Y-85217000D03*
D12*
G04 #@! TD*
G04 #@! TO.N,GND*
G04 #@! TO.C,D28*
G36*
X161499009Y-84219408D02*
X161547545Y-84226607D01*
X161595142Y-84238530D01*
X161641342Y-84255060D01*
X161685698Y-84276039D01*
X161727785Y-84301265D01*
X161767197Y-84330495D01*
X161803553Y-84363447D01*
X161836505Y-84399803D01*
X161865735Y-84439215D01*
X161890961Y-84481302D01*
X161911940Y-84525658D01*
X161928470Y-84571858D01*
X161940393Y-84619455D01*
X161947592Y-84667991D01*
X161950000Y-84717000D01*
X161950000Y-85717000D01*
X161947592Y-85766009D01*
X161940393Y-85814545D01*
X161928470Y-85862142D01*
X161911940Y-85908342D01*
X161890961Y-85952698D01*
X161865735Y-85994785D01*
X161836505Y-86034197D01*
X161803553Y-86070553D01*
X161767197Y-86103505D01*
X161727785Y-86132735D01*
X161685698Y-86157961D01*
X161641342Y-86178940D01*
X161595142Y-86195470D01*
X161547545Y-86207393D01*
X161499009Y-86214592D01*
X161450000Y-86217000D01*
X160450000Y-86217000D01*
X160400991Y-86214592D01*
X160352455Y-86207393D01*
X160304858Y-86195470D01*
X160258658Y-86178940D01*
X160214302Y-86157961D01*
X160172215Y-86132735D01*
X160132803Y-86103505D01*
X160096447Y-86070553D01*
X160063495Y-86034197D01*
X160034265Y-85994785D01*
X160009039Y-85952698D01*
X159988060Y-85908342D01*
X159971530Y-85862142D01*
X159959607Y-85814545D01*
X159952408Y-85766009D01*
X159950000Y-85717000D01*
X159950000Y-84717000D01*
X159952408Y-84667991D01*
X159959607Y-84619455D01*
X159971530Y-84571858D01*
X159988060Y-84525658D01*
X160009039Y-84481302D01*
X160034265Y-84439215D01*
X160063495Y-84399803D01*
X160096447Y-84363447D01*
X160132803Y-84330495D01*
X160172215Y-84301265D01*
X160214302Y-84276039D01*
X160258658Y-84255060D01*
X160304858Y-84238530D01*
X160352455Y-84226607D01*
X160400991Y-84219408D01*
X160450000Y-84217000D01*
X161450000Y-84217000D01*
X161499009Y-84219408D01*
X161499009Y-84219408D01*
G37*
D13*
G04 #@! TO.P,D28,1*
G04 #@! TO.N,GND*
X160950000Y-85217000D03*
G04 #@! TD*
D11*
G04 #@! TO.P,D29,2*
G04 #@! TO.N,Net-(D29-Pad2)*
X163990000Y-73600000D03*
D12*
G04 #@! TD*
G04 #@! TO.N,GND*
G04 #@! TO.C,D29*
G36*
X161499009Y-72602408D02*
X161547545Y-72609607D01*
X161595142Y-72621530D01*
X161641342Y-72638060D01*
X161685698Y-72659039D01*
X161727785Y-72684265D01*
X161767197Y-72713495D01*
X161803553Y-72746447D01*
X161836505Y-72782803D01*
X161865735Y-72822215D01*
X161890961Y-72864302D01*
X161911940Y-72908658D01*
X161928470Y-72954858D01*
X161940393Y-73002455D01*
X161947592Y-73050991D01*
X161950000Y-73100000D01*
X161950000Y-74100000D01*
X161947592Y-74149009D01*
X161940393Y-74197545D01*
X161928470Y-74245142D01*
X161911940Y-74291342D01*
X161890961Y-74335698D01*
X161865735Y-74377785D01*
X161836505Y-74417197D01*
X161803553Y-74453553D01*
X161767197Y-74486505D01*
X161727785Y-74515735D01*
X161685698Y-74540961D01*
X161641342Y-74561940D01*
X161595142Y-74578470D01*
X161547545Y-74590393D01*
X161499009Y-74597592D01*
X161450000Y-74600000D01*
X160450000Y-74600000D01*
X160400991Y-74597592D01*
X160352455Y-74590393D01*
X160304858Y-74578470D01*
X160258658Y-74561940D01*
X160214302Y-74540961D01*
X160172215Y-74515735D01*
X160132803Y-74486505D01*
X160096447Y-74453553D01*
X160063495Y-74417197D01*
X160034265Y-74377785D01*
X160009039Y-74335698D01*
X159988060Y-74291342D01*
X159971530Y-74245142D01*
X159959607Y-74197545D01*
X159952408Y-74149009D01*
X159950000Y-74100000D01*
X159950000Y-73100000D01*
X159952408Y-73050991D01*
X159959607Y-73002455D01*
X159971530Y-72954858D01*
X159988060Y-72908658D01*
X160009039Y-72864302D01*
X160034265Y-72822215D01*
X160063495Y-72782803D01*
X160096447Y-72746447D01*
X160132803Y-72713495D01*
X160172215Y-72684265D01*
X160214302Y-72659039D01*
X160258658Y-72638060D01*
X160304858Y-72621530D01*
X160352455Y-72609607D01*
X160400991Y-72602408D01*
X160450000Y-72600000D01*
X161450000Y-72600000D01*
X161499009Y-72602408D01*
X161499009Y-72602408D01*
G37*
D13*
G04 #@! TO.P,D29,1*
G04 #@! TO.N,GND*
X160950000Y-73600000D03*
G04 #@! TD*
D11*
G04 #@! TO.P,D30,2*
G04 #@! TO.N,Net-(D30-Pad2)*
X157050000Y-73600000D03*
D12*
G04 #@! TD*
G04 #@! TO.N,GND*
G04 #@! TO.C,D30*
G36*
X154559009Y-72602408D02*
X154607545Y-72609607D01*
X154655142Y-72621530D01*
X154701342Y-72638060D01*
X154745698Y-72659039D01*
X154787785Y-72684265D01*
X154827197Y-72713495D01*
X154863553Y-72746447D01*
X154896505Y-72782803D01*
X154925735Y-72822215D01*
X154950961Y-72864302D01*
X154971940Y-72908658D01*
X154988470Y-72954858D01*
X155000393Y-73002455D01*
X155007592Y-73050991D01*
X155010000Y-73100000D01*
X155010000Y-74100000D01*
X155007592Y-74149009D01*
X155000393Y-74197545D01*
X154988470Y-74245142D01*
X154971940Y-74291342D01*
X154950961Y-74335698D01*
X154925735Y-74377785D01*
X154896505Y-74417197D01*
X154863553Y-74453553D01*
X154827197Y-74486505D01*
X154787785Y-74515735D01*
X154745698Y-74540961D01*
X154701342Y-74561940D01*
X154655142Y-74578470D01*
X154607545Y-74590393D01*
X154559009Y-74597592D01*
X154510000Y-74600000D01*
X153510000Y-74600000D01*
X153460991Y-74597592D01*
X153412455Y-74590393D01*
X153364858Y-74578470D01*
X153318658Y-74561940D01*
X153274302Y-74540961D01*
X153232215Y-74515735D01*
X153192803Y-74486505D01*
X153156447Y-74453553D01*
X153123495Y-74417197D01*
X153094265Y-74377785D01*
X153069039Y-74335698D01*
X153048060Y-74291342D01*
X153031530Y-74245142D01*
X153019607Y-74197545D01*
X153012408Y-74149009D01*
X153010000Y-74100000D01*
X153010000Y-73100000D01*
X153012408Y-73050991D01*
X153019607Y-73002455D01*
X153031530Y-72954858D01*
X153048060Y-72908658D01*
X153069039Y-72864302D01*
X153094265Y-72822215D01*
X153123495Y-72782803D01*
X153156447Y-72746447D01*
X153192803Y-72713495D01*
X153232215Y-72684265D01*
X153274302Y-72659039D01*
X153318658Y-72638060D01*
X153364858Y-72621530D01*
X153412455Y-72609607D01*
X153460991Y-72602408D01*
X153510000Y-72600000D01*
X154510000Y-72600000D01*
X154559009Y-72602408D01*
X154559009Y-72602408D01*
G37*
D13*
G04 #@! TO.P,D30,1*
G04 #@! TO.N,GND*
X154010000Y-73600000D03*
G04 #@! TD*
D11*
G04 #@! TO.P,D31,2*
G04 #@! TO.N,Net-(D31-Pad2)*
X149990000Y-73600000D03*
D12*
G04 #@! TD*
G04 #@! TO.N,GND*
G04 #@! TO.C,D31*
G36*
X147499009Y-72602408D02*
X147547545Y-72609607D01*
X147595142Y-72621530D01*
X147641342Y-72638060D01*
X147685698Y-72659039D01*
X147727785Y-72684265D01*
X147767197Y-72713495D01*
X147803553Y-72746447D01*
X147836505Y-72782803D01*
X147865735Y-72822215D01*
X147890961Y-72864302D01*
X147911940Y-72908658D01*
X147928470Y-72954858D01*
X147940393Y-73002455D01*
X147947592Y-73050991D01*
X147950000Y-73100000D01*
X147950000Y-74100000D01*
X147947592Y-74149009D01*
X147940393Y-74197545D01*
X147928470Y-74245142D01*
X147911940Y-74291342D01*
X147890961Y-74335698D01*
X147865735Y-74377785D01*
X147836505Y-74417197D01*
X147803553Y-74453553D01*
X147767197Y-74486505D01*
X147727785Y-74515735D01*
X147685698Y-74540961D01*
X147641342Y-74561940D01*
X147595142Y-74578470D01*
X147547545Y-74590393D01*
X147499009Y-74597592D01*
X147450000Y-74600000D01*
X146450000Y-74600000D01*
X146400991Y-74597592D01*
X146352455Y-74590393D01*
X146304858Y-74578470D01*
X146258658Y-74561940D01*
X146214302Y-74540961D01*
X146172215Y-74515735D01*
X146132803Y-74486505D01*
X146096447Y-74453553D01*
X146063495Y-74417197D01*
X146034265Y-74377785D01*
X146009039Y-74335698D01*
X145988060Y-74291342D01*
X145971530Y-74245142D01*
X145959607Y-74197545D01*
X145952408Y-74149009D01*
X145950000Y-74100000D01*
X145950000Y-73100000D01*
X145952408Y-73050991D01*
X145959607Y-73002455D01*
X145971530Y-72954858D01*
X145988060Y-72908658D01*
X146009039Y-72864302D01*
X146034265Y-72822215D01*
X146063495Y-72782803D01*
X146096447Y-72746447D01*
X146132803Y-72713495D01*
X146172215Y-72684265D01*
X146214302Y-72659039D01*
X146258658Y-72638060D01*
X146304858Y-72621530D01*
X146352455Y-72609607D01*
X146400991Y-72602408D01*
X146450000Y-72600000D01*
X147450000Y-72600000D01*
X147499009Y-72602408D01*
X147499009Y-72602408D01*
G37*
D13*
G04 #@! TO.P,D31,1*
G04 #@! TO.N,GND*
X146950000Y-73600000D03*
G04 #@! TD*
D11*
G04 #@! TO.P,D32,2*
G04 #@! TO.N,Net-(D32-Pad2)*
X150050000Y-85217000D03*
D12*
G04 #@! TD*
G04 #@! TO.N,GND*
G04 #@! TO.C,D32*
G36*
X147559009Y-84219408D02*
X147607545Y-84226607D01*
X147655142Y-84238530D01*
X147701342Y-84255060D01*
X147745698Y-84276039D01*
X147787785Y-84301265D01*
X147827197Y-84330495D01*
X147863553Y-84363447D01*
X147896505Y-84399803D01*
X147925735Y-84439215D01*
X147950961Y-84481302D01*
X147971940Y-84525658D01*
X147988470Y-84571858D01*
X148000393Y-84619455D01*
X148007592Y-84667991D01*
X148010000Y-84717000D01*
X148010000Y-85717000D01*
X148007592Y-85766009D01*
X148000393Y-85814545D01*
X147988470Y-85862142D01*
X147971940Y-85908342D01*
X147950961Y-85952698D01*
X147925735Y-85994785D01*
X147896505Y-86034197D01*
X147863553Y-86070553D01*
X147827197Y-86103505D01*
X147787785Y-86132735D01*
X147745698Y-86157961D01*
X147701342Y-86178940D01*
X147655142Y-86195470D01*
X147607545Y-86207393D01*
X147559009Y-86214592D01*
X147510000Y-86217000D01*
X146510000Y-86217000D01*
X146460991Y-86214592D01*
X146412455Y-86207393D01*
X146364858Y-86195470D01*
X146318658Y-86178940D01*
X146274302Y-86157961D01*
X146232215Y-86132735D01*
X146192803Y-86103505D01*
X146156447Y-86070553D01*
X146123495Y-86034197D01*
X146094265Y-85994785D01*
X146069039Y-85952698D01*
X146048060Y-85908342D01*
X146031530Y-85862142D01*
X146019607Y-85814545D01*
X146012408Y-85766009D01*
X146010000Y-85717000D01*
X146010000Y-84717000D01*
X146012408Y-84667991D01*
X146019607Y-84619455D01*
X146031530Y-84571858D01*
X146048060Y-84525658D01*
X146069039Y-84481302D01*
X146094265Y-84439215D01*
X146123495Y-84399803D01*
X146156447Y-84363447D01*
X146192803Y-84330495D01*
X146232215Y-84301265D01*
X146274302Y-84276039D01*
X146318658Y-84255060D01*
X146364858Y-84238530D01*
X146412455Y-84226607D01*
X146460991Y-84219408D01*
X146510000Y-84217000D01*
X147510000Y-84217000D01*
X147559009Y-84219408D01*
X147559009Y-84219408D01*
G37*
D13*
G04 #@! TO.P,D32,1*
G04 #@! TO.N,GND*
X147010000Y-85217000D03*
G04 #@! TD*
D15*
G04 #@! TO.P,POWER1,1*
G04 #@! TO.N,Master_Reset*
X167430000Y-92040000D03*
D16*
G04 #@! TO.P,POWER1,2*
G04 #@! TO.N,Net-(Battery1-Pad2)*
X169970000Y-92040000D03*
G04 #@! TO.P,POWER1,3*
X172510000Y-92040000D03*
G04 #@! TO.P,POWER1,4*
X175050000Y-92040000D03*
G04 #@! TD*
D17*
G04 #@! TO.P,Shift1,16*
G04 #@! TO.N,Master_Reset*
X143870000Y-68620000D03*
G04 #@! TO.P,Shift1,8*
G04 #@! TO.N,GND*
X136750000Y-86400000D03*
G04 #@! TO.P,Shift1,15*
G04 #@! TO.N,Net-(D1-Pad2)*
X143870000Y-71160000D03*
G04 #@! TO.P,Shift1,7*
G04 #@! TO.N,Net-(D8-Pad2)*
X136750000Y-83860000D03*
G04 #@! TO.P,Shift1,14*
G04 #@! TO.N,Serial_Data*
X143870000Y-73700000D03*
G04 #@! TO.P,Shift1,6*
G04 #@! TO.N,Net-(D7-Pad2)*
X136750000Y-81320000D03*
G04 #@! TO.P,Shift1,13*
G04 #@! TO.N,Output_Enable*
X143870000Y-76240000D03*
G04 #@! TO.P,Shift1,5*
G04 #@! TO.N,Net-(D6-Pad2)*
X136750000Y-78780000D03*
G04 #@! TO.P,Shift1,12*
G04 #@! TO.N,Reg_Clock*
X143870000Y-78780000D03*
G04 #@! TO.P,Shift1,4*
G04 #@! TO.N,Net-(D5-Pad2)*
X136750000Y-76240000D03*
G04 #@! TO.P,Shift1,11*
G04 #@! TO.N,Serial_Clock*
X143870000Y-81320000D03*
G04 #@! TO.P,Shift1,3*
G04 #@! TO.N,Net-(D4-Pad2)*
X136750000Y-73700000D03*
G04 #@! TO.P,Shift1,10*
G04 #@! TO.N,Master_Reset*
X143870000Y-83860000D03*
G04 #@! TO.P,Shift1,2*
G04 #@! TO.N,Net-(D3-Pad2)*
X136750000Y-71160000D03*
G04 #@! TO.P,Shift1,9*
G04 #@! TO.N,Out1*
X143870000Y-86400000D03*
D18*
G04 #@! TO.P,Shift1,1*
G04 #@! TO.N,Net-(D2-Pad2)*
X136750000Y-68620000D03*
G04 #@! TD*
D17*
G04 #@! TO.P,Shift2,16*
G04 #@! TO.N,Master_Reset*
X205670000Y-68620000D03*
G04 #@! TO.P,Shift2,8*
G04 #@! TO.N,GND*
X198550000Y-86400000D03*
G04 #@! TO.P,Shift2,15*
G04 #@! TO.N,Net-(D9-Pad2)*
X205670000Y-71160000D03*
G04 #@! TO.P,Shift2,7*
G04 #@! TO.N,Net-(D16-Pad2)*
X198550000Y-83860000D03*
G04 #@! TO.P,Shift2,14*
G04 #@! TO.N,Out1*
X205670000Y-73700000D03*
G04 #@! TO.P,Shift2,6*
G04 #@! TO.N,Net-(D15-Pad2)*
X198550000Y-81320000D03*
G04 #@! TO.P,Shift2,13*
G04 #@! TO.N,Output_Enable*
X205670000Y-76240000D03*
G04 #@! TO.P,Shift2,5*
G04 #@! TO.N,Net-(D14-Pad2)*
X198550000Y-78780000D03*
G04 #@! TO.P,Shift2,12*
G04 #@! TO.N,Reg_Clock*
X205670000Y-78780000D03*
G04 #@! TO.P,Shift2,4*
G04 #@! TO.N,Net-(D13-Pad2)*
X198550000Y-76240000D03*
G04 #@! TO.P,Shift2,11*
G04 #@! TO.N,Serial_Clock*
X205670000Y-81320000D03*
G04 #@! TO.P,Shift2,3*
G04 #@! TO.N,Net-(D12-Pad2)*
X198550000Y-73700000D03*
G04 #@! TO.P,Shift2,10*
G04 #@! TO.N,Master_Reset*
X205670000Y-83860000D03*
G04 #@! TO.P,Shift2,2*
G04 #@! TO.N,Net-(D11-Pad2)*
X198550000Y-71160000D03*
G04 #@! TO.P,Shift2,9*
G04 #@! TO.N,Net-(Shift2-Pad9)*
X205670000Y-86400000D03*
D18*
G04 #@! TO.P,Shift2,1*
G04 #@! TO.N,Net-(D10-Pad2)*
X198550000Y-68620000D03*
G04 #@! TD*
D17*
G04 #@! TO.P,Shift4,16*
G04 #@! TO.N,Master_Reset*
X174770000Y-68620000D03*
G04 #@! TO.P,Shift4,8*
G04 #@! TO.N,GND*
X167650000Y-86400000D03*
G04 #@! TO.P,Shift4,15*
G04 #@! TO.N,Net-(D25-Pad2)*
X174770000Y-71160000D03*
G04 #@! TO.P,Shift4,7*
G04 #@! TO.N,Net-(D32-Pad2)*
X167650000Y-83860000D03*
G04 #@! TO.P,Shift4,14*
G04 #@! TO.N,Net-(Shift3-Pad9)*
X174770000Y-73700000D03*
G04 #@! TO.P,Shift4,6*
G04 #@! TO.N,Net-(D31-Pad2)*
X167650000Y-81320000D03*
G04 #@! TO.P,Shift4,13*
G04 #@! TO.N,Output_Enable*
X174770000Y-76240000D03*
G04 #@! TO.P,Shift4,5*
G04 #@! TO.N,Net-(D30-Pad2)*
X167650000Y-78780000D03*
G04 #@! TO.P,Shift4,12*
G04 #@! TO.N,Reg_Clock*
X174770000Y-78780000D03*
G04 #@! TO.P,Shift4,4*
G04 #@! TO.N,Net-(D29-Pad2)*
X167650000Y-76240000D03*
G04 #@! TO.P,Shift4,11*
G04 #@! TO.N,Serial_Clock*
X174770000Y-81320000D03*
G04 #@! TO.P,Shift4,3*
G04 #@! TO.N,Net-(D28-Pad2)*
X167650000Y-73700000D03*
G04 #@! TO.P,Shift4,10*
G04 #@! TO.N,Master_Reset*
X174770000Y-83860000D03*
G04 #@! TO.P,Shift4,2*
G04 #@! TO.N,Net-(D27-Pad2)*
X167650000Y-71160000D03*
G04 #@! TO.P,Shift4,9*
G04 #@! TO.N,N/C*
X174770000Y-86400000D03*
D18*
G04 #@! TO.P,Shift4,1*
G04 #@! TO.N,Net-(D26-Pad2)*
X167650000Y-68620000D03*
G04 #@! TD*
G04 #@! TO.P,Tiny1,1*
G04 #@! TO.N,Master_Reset*
X167400000Y-122300000D03*
D17*
G04 #@! TO.P,Tiny1,5*
G04 #@! TO.N,Serial_Data*
X175020000Y-129920000D03*
G04 #@! TO.P,Tiny1,2*
G04 #@! TO.N,Output_Enable*
X167400000Y-124840000D03*
G04 #@! TO.P,Tiny1,6*
G04 #@! TO.N,Serial_Clock*
X175020000Y-127380000D03*
G04 #@! TO.P,Tiny1,3*
G04 #@! TO.N,Net-(BTN1-Pad2)*
X167400000Y-127380000D03*
G04 #@! TO.P,Tiny1,7*
G04 #@! TO.N,Reg_Clock*
X175020000Y-124840000D03*
G04 #@! TO.P,Tiny1,4*
G04 #@! TO.N,GND*
X167400000Y-129920000D03*
G04 #@! TO.P,Tiny1,8*
G04 #@! TO.N,Master_Reset*
X175020000Y-122300000D03*
G04 #@! TD*
D19*
G04 #@! TO.P,Shift3,1*
G04 #@! TO.N,Net-(D18-Pad2)*
X152100000Y-141850000D03*
D20*
G04 #@! TO.P,Shift3,9*
G04 #@! TO.N,Net-(Shift3-Pad9)*
X169880000Y-134730000D03*
G04 #@! TO.P,Shift3,2*
G04 #@! TO.N,Net-(D19-Pad2)*
X154640000Y-141850000D03*
G04 #@! TO.P,Shift3,10*
G04 #@! TO.N,Master_Reset*
X167340000Y-134730000D03*
G04 #@! TO.P,Shift3,3*
G04 #@! TO.N,Net-(D20-Pad2)*
X157180000Y-141850000D03*
G04 #@! TO.P,Shift3,11*
G04 #@! TO.N,Serial_Clock*
X164800000Y-134730000D03*
G04 #@! TO.P,Shift3,4*
G04 #@! TO.N,Net-(D21-Pad2)*
X159720000Y-141850000D03*
G04 #@! TO.P,Shift3,12*
G04 #@! TO.N,Reg_Clock*
X162260000Y-134730000D03*
G04 #@! TO.P,Shift3,5*
G04 #@! TO.N,Net-(D22-Pad2)*
X162260000Y-141850000D03*
G04 #@! TO.P,Shift3,13*
G04 #@! TO.N,Output_Enable*
X159720000Y-134730000D03*
G04 #@! TO.P,Shift3,6*
G04 #@! TO.N,Net-(D23-Pad2)*
X164800000Y-141850000D03*
G04 #@! TO.P,Shift3,14*
G04 #@! TO.N,Net-(Shift2-Pad9)*
X157180000Y-134730000D03*
G04 #@! TO.P,Shift3,7*
G04 #@! TO.N,Net-(D24-Pad2)*
X167340000Y-141850000D03*
G04 #@! TO.P,Shift3,15*
G04 #@! TO.N,Net-(D17-Pad2)*
X154640000Y-134730000D03*
G04 #@! TO.P,Shift3,8*
G04 #@! TO.N,GND*
X169880000Y-141850000D03*
G04 #@! TO.P,Shift3,16*
G04 #@! TO.N,Master_Reset*
X152100000Y-134730000D03*
G04 #@! TD*
D21*
G04 #@! TO.N,Net-(D17-Pad2)*
X178677200Y-90059800D03*
X159878800Y-127399000D03*
G04 #@! TO.N,Net-(D25-Pad2)*
X162501300Y-124859700D03*
X166205600Y-89519700D03*
X170563600Y-85705900D03*
X170477600Y-76889100D03*
G04 #@! TO.N,Net-(D26-Pad2)*
X166426600Y-117443700D03*
G04 #@! TO.N,Net-(D31-Pad2)*
X151643900Y-75975800D03*
G04 #@! TO.N,Net-(D32-Pad2)*
X160637800Y-77873600D03*
G04 #@! TO.N,Reg_Clock*
X176934900Y-118833500D03*
G04 #@! TO.N,Output_Enable*
X175371300Y-90534800D03*
X175371300Y-94492000D03*
X171041500Y-77629200D03*
G04 #@! TO.N,Net-(Shift3-Pad9)*
X171793100Y-75213300D03*
X173571500Y-128781000D03*
G04 #@! TO.N,Serial_Data*
X163120400Y-82423000D03*
X165885700Y-85130000D03*
X164161700Y-107428600D03*
X171258200Y-121490300D03*
X171199500Y-124378700D03*
X172036300Y-127152200D03*
G04 #@! TO.N,Out1*
X141294000Y-83757700D03*
G04 #@! TD*
D22*
G04 #@! TO.N,Net-(D2-Pad2)*
X132940000Y-73600000D02*
X132940000Y-72174700D01*
X136500000Y-68620000D02*
X135124700Y-68620000D01*
X135124700Y-68620000D02*
X135124700Y-69990000D01*
X135124700Y-69990000D02*
X132940000Y-72174700D01*
G04 #@! TO.N,Net-(D4-Pad2)*
X144250000Y-58000000D02*
X144250000Y-59425300D01*
X144250000Y-59425300D02*
X138375300Y-65300000D01*
X138375300Y-65300000D02*
X138375300Y-73700000D01*
X136500000Y-73700000D02*
X138375300Y-73700000D01*
G04 #@! TO.N,Net-(D9-Pad2)*
X200350000Y-58000000D02*
X200350000Y-59425300D01*
X205920000Y-71160000D02*
X204044700Y-71160000D01*
X204044700Y-71160000D02*
X204044700Y-63120000D01*
X204044700Y-63120000D02*
X200350000Y-59425300D01*
G04 #@! TO.N,Net-(D13-Pad2)*
X198300000Y-76240000D02*
X200175300Y-76240000D01*
X194740000Y-85217000D02*
X196415300Y-85217000D01*
X196415300Y-85217000D02*
X196502300Y-85130000D01*
X196502300Y-85130000D02*
X199428300Y-85130000D01*
X199428300Y-85130000D02*
X200175300Y-84383000D01*
X200175300Y-84383000D02*
X200175300Y-76240000D01*
G04 #@! TO.N,Net-(D14-Pad2)*
X194740000Y-73600000D02*
X194740000Y-75025300D01*
X198300000Y-78780000D02*
X196924700Y-78780000D01*
X196924700Y-78780000D02*
X196924700Y-77210000D01*
X196924700Y-77210000D02*
X194740000Y-75025300D01*
G04 #@! TO.N,Net-(D15-Pad2)*
X187800000Y-73600000D02*
X189475300Y-73600000D01*
X198300000Y-81320000D02*
X196924700Y-81320000D01*
X196924700Y-81320000D02*
X189475300Y-73870600D01*
X189475300Y-73870600D02*
X189475300Y-73600000D01*
G04 #@! TO.N,Net-(D16-Pad2)*
X180800000Y-73600000D02*
X180800000Y-75025300D01*
X198300000Y-83860000D02*
X196924700Y-83860000D01*
X196924700Y-83860000D02*
X196924700Y-82388100D01*
X196924700Y-82388100D02*
X191034300Y-76497700D01*
X191034300Y-76497700D02*
X182272400Y-76497700D01*
X182272400Y-76497700D02*
X180800000Y-75025300D01*
G04 #@! TO.N,Net-(D17-Pad2)*
X178677200Y-90059800D02*
X180800000Y-87937000D01*
X180800000Y-87937000D02*
X180800000Y-85217000D01*
X154640000Y-134480000D02*
X154640000Y-132637800D01*
X154640000Y-132637800D02*
X159878800Y-127399000D01*
G04 #@! TO.N,Net-(D23-Pad2)*
X164800000Y-142100000D02*
X164800000Y-143475300D01*
X166340000Y-146700000D02*
X165164700Y-146700000D01*
X164800000Y-143475300D02*
X165164700Y-143840000D01*
X165164700Y-143840000D02*
X165164700Y-146700000D01*
G04 #@! TO.N,Net-(D25-Pad2)*
X166205600Y-89519700D02*
X165572600Y-90152700D01*
X165572600Y-90152700D02*
X165572600Y-121788400D01*
X165572600Y-121788400D02*
X162501300Y-124859700D01*
X170477600Y-76889100D02*
X170322200Y-77044500D01*
X170322200Y-77044500D02*
X170322200Y-85464500D01*
X170322200Y-85464500D02*
X170563600Y-85705900D01*
G04 #@! TO.N,Net-(D26-Pad2)*
X167400000Y-68620000D02*
X169275300Y-68620000D01*
X169275300Y-68620000D02*
X169275300Y-87636400D01*
X169275300Y-87636400D02*
X166143900Y-90767800D01*
X166143900Y-90767800D02*
X166143900Y-117161000D01*
X166143900Y-117161000D02*
X166426600Y-117443700D01*
G04 #@! TO.N,Net-(D27-Pad2)*
X162564700Y-120400000D02*
X162564700Y-83960300D01*
X162564700Y-83960300D02*
X165415400Y-81109600D01*
X165415400Y-81109600D02*
X165415400Y-71769300D01*
X165415400Y-71769300D02*
X166024700Y-71160000D01*
X167400000Y-71160000D02*
X166024700Y-71160000D01*
X163740000Y-120400000D02*
X162564700Y-120400000D01*
G04 #@! TO.N,Net-(D28-Pad2)*
X163740000Y-85217000D02*
X163740000Y-83791700D01*
X167400000Y-73700000D02*
X166024700Y-73700000D01*
X166024700Y-73700000D02*
X166024700Y-81507000D01*
X166024700Y-81507000D02*
X163740000Y-83791700D01*
G04 #@! TO.N,Net-(D31-Pad2)*
X149740000Y-75025300D02*
X150693400Y-75025300D01*
X150693400Y-75025300D02*
X151643900Y-75975800D01*
X149740000Y-73600000D02*
X149740000Y-75025300D01*
G04 #@! TO.N,Net-(D32-Pad2)*
X149800000Y-85217000D02*
X149800000Y-78093800D01*
X149800000Y-78093800D02*
X151242700Y-76651100D01*
X151242700Y-76651100D02*
X160210400Y-76651100D01*
X160210400Y-76651100D02*
X160637800Y-77078500D01*
X160637800Y-77078500D02*
X160637800Y-77873600D01*
G04 #@! TO.N,Reg_Clock*
X176257700Y-78780000D02*
X176395300Y-78917600D01*
X176395300Y-78917600D02*
X176395300Y-86086100D01*
X176395300Y-86086100D02*
X176934900Y-86625700D01*
X176934900Y-86625700D02*
X176934900Y-118833500D01*
X175020000Y-124840000D02*
X173394700Y-124840000D01*
X162260000Y-134480000D02*
X162260000Y-133104700D01*
X162260000Y-133104700D02*
X162861700Y-133104700D01*
X162861700Y-133104700D02*
X165634800Y-130331600D01*
X165634800Y-130331600D02*
X165634800Y-126962000D01*
X165634800Y-126962000D02*
X166442200Y-126154600D01*
X166442200Y-126154600D02*
X172080100Y-126154600D01*
X172080100Y-126154600D02*
X173394700Y-124840000D01*
X175020000Y-78780000D02*
X176257700Y-78780000D01*
G04 #@! TO.N,Output_Enable*
X171041500Y-77629200D02*
X171197900Y-77472800D01*
X171197900Y-77472800D02*
X171197900Y-76279300D01*
X171197900Y-76279300D02*
X170047100Y-75128500D01*
X170047100Y-75128500D02*
X170047100Y-68359500D01*
X170047100Y-68359500D02*
X169065600Y-67378000D01*
X169065600Y-67378000D02*
X166278400Y-67378000D01*
X166278400Y-67378000D02*
X165969700Y-67686700D01*
X165969700Y-67686700D02*
X165969700Y-68184900D01*
X165969700Y-68184900D02*
X164414200Y-69740400D01*
X164414200Y-69740400D02*
X147589900Y-69740400D01*
X147589900Y-69740400D02*
X144900300Y-72430000D01*
X144900300Y-72430000D02*
X142938500Y-72430000D01*
X142938500Y-72430000D02*
X142244700Y-73123800D01*
X142244700Y-73123800D02*
X142244700Y-76240000D01*
X144120000Y-76240000D02*
X142244700Y-76240000D01*
X175371300Y-90534800D02*
X171238900Y-86402400D01*
X171238900Y-86402400D02*
X171238900Y-77826600D01*
X171238900Y-77826600D02*
X171041500Y-77629200D01*
X167400000Y-124840000D02*
X169025300Y-124840000D01*
X169025300Y-124840000D02*
X170516700Y-123348600D01*
X170516700Y-123348600D02*
X170516700Y-121276100D01*
X170516700Y-121276100D02*
X175371300Y-116421500D01*
X175371300Y-116421500D02*
X175371300Y-94492000D01*
X166623700Y-124840000D02*
X167400000Y-124840000D01*
X166623700Y-124840000D02*
X165774700Y-124840000D01*
X159720000Y-134480000D02*
X159720000Y-133104700D01*
X159720000Y-133104700D02*
X160063800Y-133104700D01*
X160063800Y-133104700D02*
X162377300Y-130791200D01*
X162377300Y-130791200D02*
X162377300Y-128237400D01*
X162377300Y-128237400D02*
X165774700Y-124840000D01*
G04 #@! TO.N,Net-(Shift2-Pad9)*
X205920000Y-86400000D02*
X204044700Y-86400000D01*
X157180000Y-134480000D02*
X157180000Y-136355300D01*
X157180000Y-136355300D02*
X163996700Y-136355300D01*
X163996700Y-136355300D02*
X168610200Y-140968800D01*
X168610200Y-140968800D02*
X168610200Y-142772600D01*
X168610200Y-142772600D02*
X169363000Y-143525400D01*
X169363000Y-143525400D02*
X179989700Y-143525400D01*
X179989700Y-143525400D02*
X182481000Y-141034100D01*
X182481000Y-141034100D02*
X182481000Y-128488200D01*
X182481000Y-128488200D02*
X179586500Y-125593700D01*
X179586500Y-125593700D02*
X179586500Y-97505200D01*
X179586500Y-97505200D02*
X177981900Y-95900600D01*
X177981900Y-95900600D02*
X177981900Y-88802600D01*
X177981900Y-88802600D02*
X179531000Y-87253500D01*
X179531000Y-87253500D02*
X179531000Y-73053600D01*
X179531000Y-73053600D02*
X182662600Y-69922000D01*
X182662600Y-69922000D02*
X199488300Y-69922000D01*
X199488300Y-69922000D02*
X204044700Y-74478400D01*
X204044700Y-74478400D02*
X204044700Y-86400000D01*
G04 #@! TO.N,Net-(Shift3-Pad9)*
X173571500Y-128781000D02*
X173702500Y-128650000D01*
X173702500Y-128650000D02*
X175949500Y-128650000D01*
X175949500Y-128650000D02*
X176685000Y-127914500D01*
X176685000Y-127914500D02*
X176685000Y-121520800D01*
X176685000Y-121520800D02*
X176245700Y-121081500D01*
X176245700Y-121081500D02*
X176245700Y-118526200D01*
X176245700Y-118526200D02*
X176342100Y-118429800D01*
X176342100Y-118429800D02*
X176342100Y-90550500D01*
X176342100Y-90550500D02*
X171793100Y-86001500D01*
X171793100Y-86001500D02*
X171793100Y-75213300D01*
G04 #@! TO.N,Net-(Battery1-Pad2)*
X169970000Y-92040000D02*
X171245300Y-92040000D01*
X172510000Y-92677600D02*
X171882900Y-92677600D01*
X171882900Y-92677600D02*
X171245300Y-92040000D01*
X172510000Y-92677600D02*
X172510000Y-93315300D01*
X172510000Y-92040000D02*
X172510000Y-92677600D01*
X172339000Y-103137000D02*
X172339000Y-101861700D01*
X172510000Y-93315300D02*
X172885400Y-93690700D01*
X172885400Y-93690700D02*
X172885400Y-101315300D01*
X172885400Y-101315300D02*
X172339000Y-101861700D01*
X172339000Y-103137000D02*
X172339000Y-104412300D01*
X172339000Y-104412300D02*
X168027500Y-108723800D01*
X168027500Y-108723800D02*
X168027500Y-113500500D01*
X168027500Y-113500500D02*
X171196000Y-116669000D01*
G04 #@! TO.N,Net-(BTN1-Pad2)*
X167400000Y-127380000D02*
X169025300Y-127380000D01*
X169025300Y-127380000D02*
X169025300Y-129250300D01*
X169025300Y-129250300D02*
X180615000Y-140840000D01*
G04 #@! TO.N,GND*
X154260000Y-73600000D02*
X152805700Y-72145700D01*
X152805700Y-72145700D02*
X148654300Y-72145700D01*
X148654300Y-72145700D02*
X147200000Y-73600000D01*
X161117400Y-75035400D02*
X155695400Y-75035400D01*
X155695400Y-75035400D02*
X154260000Y-73600000D01*
X185260000Y-73600000D02*
X186688800Y-72171200D01*
X186688800Y-72171200D02*
X190771200Y-72171200D01*
X190771200Y-72171200D02*
X192200000Y-73600000D01*
X187800000Y-146700000D02*
X188577900Y-145922100D01*
X188577900Y-145922100D02*
X188577900Y-137802900D01*
X188577900Y-137802900D02*
X187115000Y-136340000D01*
X147173000Y-85130000D02*
X147260000Y-85217000D01*
X138375300Y-86400000D02*
X139645300Y-85130000D01*
X139645300Y-85130000D02*
X147173000Y-85130000D01*
X147173000Y-85130000D02*
X147173000Y-73627000D01*
X147173000Y-73627000D02*
X147200000Y-73600000D01*
X136500000Y-86400000D02*
X138375300Y-86400000D01*
X164150000Y-58000000D02*
X162720200Y-59429800D01*
X162720200Y-59429800D02*
X154359800Y-59429800D01*
X154359800Y-59429800D02*
X152930000Y-58000000D01*
X178260000Y-120400000D02*
X178260000Y-129900000D01*
X180615000Y-136340000D02*
X180615000Y-132255000D01*
X180615000Y-132255000D02*
X178260000Y-129900000D01*
X198300000Y-86400000D02*
X196924700Y-86400000D01*
X196924700Y-86400000D02*
X196669500Y-86655200D01*
X196669500Y-86655200D02*
X193638200Y-86655200D01*
X193638200Y-86655200D02*
X192200000Y-85217000D01*
X178260000Y-60890000D02*
X178260000Y-73600000D01*
X175370000Y-58000000D02*
X178260000Y-60890000D01*
X178260000Y-60890000D02*
X181150000Y-58000000D01*
X181150000Y-58000000D02*
X185590000Y-58000000D01*
X161200000Y-85217000D02*
X161313100Y-85103900D01*
X161313100Y-85103900D02*
X161313100Y-75231100D01*
X161313100Y-75231100D02*
X161117400Y-75035400D01*
X163800000Y-146700000D02*
X162361300Y-148138700D01*
X162361300Y-148138700D02*
X153238700Y-148138700D01*
X153238700Y-148138700D02*
X151800000Y-146700000D01*
X161117400Y-75035400D02*
X161117400Y-73682600D01*
X161117400Y-73682600D02*
X161200000Y-73600000D01*
X161200000Y-129900000D02*
X161200000Y-120400000D01*
X178260000Y-85217000D02*
X178260000Y-73600000D01*
X209000000Y-73600000D02*
X209000000Y-58000000D01*
X209000000Y-85217000D02*
X209000000Y-73600000D01*
X169880000Y-142100000D02*
X169880000Y-140224700D01*
X167400000Y-129920000D02*
X168610000Y-131130000D01*
X168610000Y-131130000D02*
X168610000Y-138954700D01*
X168610000Y-138954700D02*
X169880000Y-140224700D01*
X187115000Y-136340000D02*
X187800000Y-135655000D01*
X187800000Y-135655000D02*
X187800000Y-129900000D01*
X169799000Y-103137000D02*
X169799000Y-101861700D01*
X169799000Y-101861700D02*
X171196000Y-100464700D01*
X171196000Y-100464700D02*
X171196000Y-97169000D01*
G04 #@! TO.N,Serial_Data*
X175020000Y-129920000D02*
X173394700Y-129920000D01*
X144120000Y-73700000D02*
X145495300Y-73700000D01*
X163120400Y-82423000D02*
X162436600Y-81739200D01*
X162436600Y-81739200D02*
X162436600Y-72716700D01*
X162436600Y-72716700D02*
X161315200Y-71595300D01*
X161315200Y-71595300D02*
X146550000Y-71595300D01*
X146550000Y-71595300D02*
X145495300Y-72650000D01*
X145495300Y-72650000D02*
X145495300Y-73700000D01*
X164161700Y-107428600D02*
X164161700Y-89560100D01*
X164161700Y-89560100D02*
X165885700Y-87836100D01*
X165885700Y-87836100D02*
X165885700Y-85130000D01*
X171199500Y-124378700D02*
X171199500Y-121549000D01*
X171199500Y-121549000D02*
X171258200Y-121490300D01*
X173394700Y-129920000D02*
X172036300Y-128561600D01*
X172036300Y-128561600D02*
X172036300Y-127152200D01*
G04 #@! TO.N,Master_Reset*
X142244700Y-83860000D02*
X142244700Y-83753300D01*
X142244700Y-83753300D02*
X141689500Y-83198100D01*
X141689500Y-83198100D02*
X141689500Y-69175200D01*
X141689500Y-69175200D02*
X142244700Y-68620000D01*
X144120000Y-83860000D02*
X142244700Y-83860000D01*
X144120000Y-68620000D02*
X142244700Y-68620000D01*
X144807700Y-68620000D02*
X144120000Y-68620000D01*
X144807700Y-68620000D02*
X145495300Y-68620000D01*
X173144700Y-68757600D02*
X173282300Y-68620000D01*
X173144700Y-83860000D02*
X173144700Y-68757600D01*
X173144700Y-68757600D02*
X167112100Y-62725000D01*
X167112100Y-62725000D02*
X146126500Y-62725000D01*
X146126500Y-62725000D02*
X145495300Y-63356200D01*
X145495300Y-63356200D02*
X145495300Y-68620000D01*
X175020000Y-68620000D02*
X173282300Y-68620000D01*
X175020000Y-83860000D02*
X173144700Y-83860000D01*
X167430000Y-93315300D02*
X167430000Y-119337900D01*
X167430000Y-119337900D02*
X169025300Y-120933200D01*
X169025300Y-120933200D02*
X169025300Y-122300000D01*
X167430000Y-92040000D02*
X167430000Y-93315300D01*
X205920000Y-68620000D02*
X207295300Y-68620000D01*
X205920000Y-83860000D02*
X207295300Y-83860000D01*
X207295300Y-83860000D02*
X207295300Y-68620000D01*
X167400000Y-122300000D02*
X169025300Y-122300000D01*
G04 #@! TO.N,Out1*
X205920000Y-73700000D02*
X204044700Y-73700000D01*
X204044700Y-73700000D02*
X201834900Y-71490200D01*
X201834900Y-71490200D02*
X201834900Y-69233500D01*
X201834900Y-69233500D02*
X189149300Y-56547900D01*
X189149300Y-56547900D02*
X151496300Y-56547900D01*
X151496300Y-56547900D02*
X141128900Y-66915300D01*
X141128900Y-66915300D02*
X141128900Y-83592600D01*
X141128900Y-83592600D02*
X141294000Y-83757700D01*
G04 #@! TD*
D23*
G36*
X191623810Y-127701109D02*
X191719996Y-127753009D01*
X191794186Y-127833267D01*
X191847935Y-127954845D01*
X191865000Y-128089926D01*
X191865000Y-128226280D01*
X191409379Y-127921844D01*
X190796829Y-127800000D01*
X190383171Y-127800000D01*
X189770621Y-127921844D01*
X189220628Y-128289338D01*
X189196609Y-128253391D01*
X188670540Y-127901883D01*
X188050000Y-127778450D01*
X187050000Y-127778450D01*
X186429460Y-127901883D01*
X185903391Y-128253391D01*
X185551883Y-128779460D01*
X185428450Y-129400000D01*
X185428450Y-130400000D01*
X185551883Y-131020540D01*
X185903391Y-131546609D01*
X186429460Y-131898117D01*
X186575001Y-131927067D01*
X186575000Y-134290652D01*
X185925446Y-134559706D01*
X185334706Y-135150446D01*
X185015000Y-135922284D01*
X185015000Y-136757716D01*
X185334706Y-137529554D01*
X185925446Y-138120294D01*
X186697284Y-138440000D01*
X187352901Y-138440000D01*
X187352901Y-138740000D01*
X186697284Y-138740000D01*
X185925446Y-139059706D01*
X185334706Y-139650446D01*
X185015000Y-140422284D01*
X185015000Y-141257716D01*
X185334706Y-142029554D01*
X185925446Y-142620294D01*
X186697284Y-142940000D01*
X187352900Y-142940000D01*
X187352900Y-144578450D01*
X187050000Y-144578450D01*
X186429460Y-144701883D01*
X185903391Y-145053391D01*
X185551883Y-145579460D01*
X185428450Y-146200000D01*
X185428450Y-147200000D01*
X185551883Y-147820540D01*
X185903391Y-148346609D01*
X186429460Y-148698117D01*
X187050000Y-148821550D01*
X188050000Y-148821550D01*
X188670540Y-148698117D01*
X189196609Y-148346609D01*
X189220628Y-148310662D01*
X189770621Y-148678156D01*
X190383171Y-148800000D01*
X190796829Y-148800000D01*
X191409379Y-148678156D01*
X191865001Y-148373719D01*
X191865001Y-148741197D01*
X191842238Y-148870292D01*
X191828890Y-148893412D01*
X191808436Y-148910574D01*
X191734021Y-148937659D01*
X191718697Y-148939000D01*
X163299852Y-148939000D01*
X163312824Y-148919587D01*
X163410860Y-148821550D01*
X164050000Y-148821550D01*
X164670540Y-148698117D01*
X165196609Y-148346609D01*
X165220628Y-148310662D01*
X165770621Y-148678156D01*
X166383171Y-148800000D01*
X166796829Y-148800000D01*
X167409379Y-148678156D01*
X168104015Y-148214015D01*
X168568156Y-147519379D01*
X168731141Y-146700000D01*
X168568156Y-145880621D01*
X168104015Y-145185985D01*
X167409379Y-144721844D01*
X166796829Y-144600000D01*
X166389700Y-144600000D01*
X166389700Y-143960650D01*
X166400324Y-143907239D01*
X166598658Y-144039761D01*
X167340000Y-144187223D01*
X168081343Y-144039761D01*
X168119473Y-144014283D01*
X168411476Y-144306286D01*
X168479824Y-144408576D01*
X168885029Y-144679325D01*
X169242348Y-144750400D01*
X169242349Y-144750400D01*
X169363000Y-144774399D01*
X169483650Y-144750400D01*
X174356849Y-144750400D01*
X173903391Y-145053391D01*
X173551883Y-145579460D01*
X173428450Y-146200000D01*
X173428450Y-147200000D01*
X173551883Y-147820540D01*
X173903391Y-148346609D01*
X174429460Y-148698117D01*
X175050000Y-148821550D01*
X176050000Y-148821550D01*
X176670540Y-148698117D01*
X177196609Y-148346609D01*
X177220628Y-148310662D01*
X177770621Y-148678156D01*
X178383171Y-148800000D01*
X178796829Y-148800000D01*
X179409379Y-148678156D01*
X180104015Y-148214015D01*
X180568156Y-147519379D01*
X180731141Y-146700000D01*
X180568156Y-145880621D01*
X180104015Y-145185985D01*
X179452116Y-144750400D01*
X179869050Y-144750400D01*
X179989700Y-144774399D01*
X180110350Y-144750400D01*
X180110352Y-144750400D01*
X180467671Y-144679325D01*
X180872876Y-144408576D01*
X180941223Y-144306287D01*
X183261892Y-141985619D01*
X183364176Y-141917276D01*
X183634925Y-141512071D01*
X183706000Y-141154752D01*
X183706000Y-141154751D01*
X183729999Y-141034101D01*
X183706000Y-140913450D01*
X183706000Y-128608850D01*
X183729999Y-128488199D01*
X183692321Y-128298781D01*
X183634925Y-128010229D01*
X183405587Y-127667000D01*
X191418883Y-127667000D01*
X191623810Y-127701109D01*
X191623810Y-127701109D01*
G37*
X191623810Y-127701109D02*
X191719996Y-127753009D01*
X191794186Y-127833267D01*
X191847935Y-127954845D01*
X191865000Y-128089926D01*
X191865000Y-128226280D01*
X191409379Y-127921844D01*
X190796829Y-127800000D01*
X190383171Y-127800000D01*
X189770621Y-127921844D01*
X189220628Y-128289338D01*
X189196609Y-128253391D01*
X188670540Y-127901883D01*
X188050000Y-127778450D01*
X187050000Y-127778450D01*
X186429460Y-127901883D01*
X185903391Y-128253391D01*
X185551883Y-128779460D01*
X185428450Y-129400000D01*
X185428450Y-130400000D01*
X185551883Y-131020540D01*
X185903391Y-131546609D01*
X186429460Y-131898117D01*
X186575001Y-131927067D01*
X186575000Y-134290652D01*
X185925446Y-134559706D01*
X185334706Y-135150446D01*
X185015000Y-135922284D01*
X185015000Y-136757716D01*
X185334706Y-137529554D01*
X185925446Y-138120294D01*
X186697284Y-138440000D01*
X187352901Y-138440000D01*
X187352901Y-138740000D01*
X186697284Y-138740000D01*
X185925446Y-139059706D01*
X185334706Y-139650446D01*
X185015000Y-140422284D01*
X185015000Y-141257716D01*
X185334706Y-142029554D01*
X185925446Y-142620294D01*
X186697284Y-142940000D01*
X187352900Y-142940000D01*
X187352900Y-144578450D01*
X187050000Y-144578450D01*
X186429460Y-144701883D01*
X185903391Y-145053391D01*
X185551883Y-145579460D01*
X185428450Y-146200000D01*
X185428450Y-147200000D01*
X185551883Y-147820540D01*
X185903391Y-148346609D01*
X186429460Y-148698117D01*
X187050000Y-148821550D01*
X188050000Y-148821550D01*
X188670540Y-148698117D01*
X189196609Y-148346609D01*
X189220628Y-148310662D01*
X189770621Y-148678156D01*
X190383171Y-148800000D01*
X190796829Y-148800000D01*
X191409379Y-148678156D01*
X191865001Y-148373719D01*
X191865001Y-148741197D01*
X191842238Y-148870292D01*
X191828890Y-148893412D01*
X191808436Y-148910574D01*
X191734021Y-148937659D01*
X191718697Y-148939000D01*
X163299852Y-148939000D01*
X163312824Y-148919587D01*
X163410860Y-148821550D01*
X164050000Y-148821550D01*
X164670540Y-148698117D01*
X165196609Y-148346609D01*
X165220628Y-148310662D01*
X165770621Y-148678156D01*
X166383171Y-148800000D01*
X166796829Y-148800000D01*
X167409379Y-148678156D01*
X168104015Y-148214015D01*
X168568156Y-147519379D01*
X168731141Y-146700000D01*
X168568156Y-145880621D01*
X168104015Y-145185985D01*
X167409379Y-144721844D01*
X166796829Y-144600000D01*
X166389700Y-144600000D01*
X166389700Y-143960650D01*
X166400324Y-143907239D01*
X166598658Y-144039761D01*
X167340000Y-144187223D01*
X168081343Y-144039761D01*
X168119473Y-144014283D01*
X168411476Y-144306286D01*
X168479824Y-144408576D01*
X168885029Y-144679325D01*
X169242348Y-144750400D01*
X169242349Y-144750400D01*
X169363000Y-144774399D01*
X169483650Y-144750400D01*
X174356849Y-144750400D01*
X173903391Y-145053391D01*
X173551883Y-145579460D01*
X173428450Y-146200000D01*
X173428450Y-147200000D01*
X173551883Y-147820540D01*
X173903391Y-148346609D01*
X174429460Y-148698117D01*
X175050000Y-148821550D01*
X176050000Y-148821550D01*
X176670540Y-148698117D01*
X177196609Y-148346609D01*
X177220628Y-148310662D01*
X177770621Y-148678156D01*
X178383171Y-148800000D01*
X178796829Y-148800000D01*
X179409379Y-148678156D01*
X180104015Y-148214015D01*
X180568156Y-147519379D01*
X180731141Y-146700000D01*
X180568156Y-145880621D01*
X180104015Y-145185985D01*
X179452116Y-144750400D01*
X179869050Y-144750400D01*
X179989700Y-144774399D01*
X180110350Y-144750400D01*
X180110352Y-144750400D01*
X180467671Y-144679325D01*
X180872876Y-144408576D01*
X180941223Y-144306287D01*
X183261892Y-141985619D01*
X183364176Y-141917276D01*
X183634925Y-141512071D01*
X183706000Y-141154752D01*
X183706000Y-141154751D01*
X183729999Y-141034101D01*
X183706000Y-140913450D01*
X183706000Y-128608850D01*
X183729999Y-128488199D01*
X183692321Y-128298781D01*
X183634925Y-128010229D01*
X183405587Y-127667000D01*
X191418883Y-127667000D01*
X191623810Y-127701109D01*
G36*
X151050000Y-148821550D02*
X152050000Y-148821550D01*
X152166055Y-148798465D01*
X152287178Y-148919589D01*
X152300148Y-148939000D01*
X151227116Y-148939000D01*
X151022190Y-148904891D01*
X150926003Y-148852991D01*
X150862455Y-148784245D01*
X151050000Y-148821550D01*
X151050000Y-148821550D01*
G37*
X151050000Y-148821550D02*
X152050000Y-148821550D01*
X152166055Y-148798465D01*
X152287178Y-148919589D01*
X152300148Y-148939000D01*
X151227116Y-148939000D01*
X151022190Y-148904891D01*
X150926003Y-148852991D01*
X150862455Y-148784245D01*
X151050000Y-148821550D01*
G36*
X163602675Y-143735083D02*
X163646075Y-143953271D01*
X163916825Y-144358476D01*
X163939700Y-144373761D01*
X163939700Y-144578450D01*
X163050000Y-144578450D01*
X162429460Y-144701883D01*
X161903391Y-145053391D01*
X161551883Y-145579460D01*
X161428450Y-146200000D01*
X161428450Y-146913700D01*
X156688633Y-146913700D01*
X156731141Y-146700000D01*
X156568156Y-145880621D01*
X156104015Y-145185985D01*
X155409379Y-144721844D01*
X154796829Y-144600000D01*
X154383171Y-144600000D01*
X153770621Y-144721844D01*
X153220628Y-145089338D01*
X153196609Y-145053391D01*
X152670540Y-144701883D01*
X152050000Y-144578450D01*
X151050000Y-144578450D01*
X150781000Y-144631957D01*
X150781000Y-144026174D01*
X150870801Y-144086177D01*
X151300000Y-144171550D01*
X152900000Y-144171550D01*
X153329199Y-144086177D01*
X153648662Y-143872719D01*
X153898658Y-144039761D01*
X154640000Y-144187223D01*
X155381343Y-144039761D01*
X155910000Y-143686524D01*
X156438658Y-144039761D01*
X157180000Y-144187223D01*
X157921343Y-144039761D01*
X158450000Y-143686524D01*
X158978658Y-144039761D01*
X159720000Y-144187223D01*
X160461343Y-144039761D01*
X160990000Y-143686524D01*
X161518658Y-144039761D01*
X162260000Y-144187223D01*
X163001343Y-144039761D01*
X163530000Y-143686524D01*
X163602675Y-143735083D01*
X163602675Y-143735083D01*
G37*
X163602675Y-143735083D02*
X163646075Y-143953271D01*
X163916825Y-144358476D01*
X163939700Y-144373761D01*
X163939700Y-144578450D01*
X163050000Y-144578450D01*
X162429460Y-144701883D01*
X161903391Y-145053391D01*
X161551883Y-145579460D01*
X161428450Y-146200000D01*
X161428450Y-146913700D01*
X156688633Y-146913700D01*
X156731141Y-146700000D01*
X156568156Y-145880621D01*
X156104015Y-145185985D01*
X155409379Y-144721844D01*
X154796829Y-144600000D01*
X154383171Y-144600000D01*
X153770621Y-144721844D01*
X153220628Y-145089338D01*
X153196609Y-145053391D01*
X152670540Y-144701883D01*
X152050000Y-144578450D01*
X151050000Y-144578450D01*
X150781000Y-144631957D01*
X150781000Y-144026174D01*
X150870801Y-144086177D01*
X151300000Y-144171550D01*
X152900000Y-144171550D01*
X153329199Y-144086177D01*
X153648662Y-143872719D01*
X153898658Y-144039761D01*
X154640000Y-144187223D01*
X155381343Y-144039761D01*
X155910000Y-143686524D01*
X156438658Y-144039761D01*
X157180000Y-144187223D01*
X157921343Y-144039761D01*
X158450000Y-143686524D01*
X158978658Y-144039761D01*
X159720000Y-144187223D01*
X160461343Y-144039761D01*
X160990000Y-143686524D01*
X161518658Y-144039761D01*
X162260000Y-144187223D01*
X163001343Y-144039761D01*
X163530000Y-143686524D01*
X163602675Y-143735083D01*
G36*
X177220628Y-145089338D02*
X177196609Y-145053391D01*
X176743151Y-144750400D01*
X177727884Y-144750400D01*
X177220628Y-145089338D01*
X177220628Y-145089338D01*
G37*
X177220628Y-145089338D02*
X177196609Y-145053391D01*
X176743151Y-144750400D01*
X177727884Y-144750400D01*
X177220628Y-145089338D01*
G36*
X189770621Y-131878156D02*
X190383171Y-132000000D01*
X190796829Y-132000000D01*
X191409379Y-131878156D01*
X191865000Y-131573720D01*
X191865001Y-145026281D01*
X191409379Y-144721844D01*
X190796829Y-144600000D01*
X190383171Y-144600000D01*
X189802900Y-144715423D01*
X189802900Y-137923550D01*
X189826899Y-137802899D01*
X189787395Y-137604299D01*
X189731825Y-137324929D01*
X189461076Y-136919724D01*
X189358789Y-136851378D01*
X189215000Y-136707589D01*
X189215000Y-135922284D01*
X189025000Y-135463584D01*
X189025000Y-131661274D01*
X189196609Y-131546609D01*
X189220628Y-131510662D01*
X189770621Y-131878156D01*
X189770621Y-131878156D01*
G37*
X189770621Y-131878156D02*
X190383171Y-132000000D01*
X190796829Y-132000000D01*
X191409379Y-131878156D01*
X191865000Y-131573720D01*
X191865001Y-145026281D01*
X191409379Y-144721844D01*
X190796829Y-144600000D01*
X190383171Y-144600000D01*
X189802900Y-144715423D01*
X189802900Y-137923550D01*
X189826899Y-137802899D01*
X189787395Y-137604299D01*
X189731825Y-137324929D01*
X189461076Y-136919724D01*
X189358789Y-136851378D01*
X189215000Y-136707589D01*
X189215000Y-135922284D01*
X189025000Y-135463584D01*
X189025000Y-131661274D01*
X189196609Y-131546609D01*
X189220628Y-131510662D01*
X189770621Y-131878156D01*
G36*
X178515000Y-140472411D02*
X178515000Y-141257716D01*
X178834706Y-142029554D01*
X179105552Y-142300400D01*
X171780000Y-142300400D01*
X171780000Y-141262867D01*
X171669761Y-140708657D01*
X171249824Y-140080176D01*
X171077325Y-139964916D01*
X171033925Y-139746729D01*
X170763176Y-139341524D01*
X170660892Y-139273180D01*
X169835000Y-138447289D01*
X169835000Y-137058272D01*
X169880000Y-137067223D01*
X170621343Y-136919761D01*
X171249824Y-136499824D01*
X171669761Y-135871343D01*
X171780000Y-135317132D01*
X171780000Y-134142867D01*
X171679324Y-133636734D01*
X178515000Y-140472411D01*
X178515000Y-140472411D01*
G37*
X178515000Y-140472411D02*
X178515000Y-141257716D01*
X178834706Y-142029554D01*
X179105552Y-142300400D01*
X171780000Y-142300400D01*
X171780000Y-141262867D01*
X171669761Y-140708657D01*
X171249824Y-140080176D01*
X171077325Y-139964916D01*
X171033925Y-139746729D01*
X170763176Y-139341524D01*
X170660892Y-139273180D01*
X169835000Y-138447289D01*
X169835000Y-137058272D01*
X169880000Y-137067223D01*
X170621343Y-136919761D01*
X171249824Y-136499824D01*
X171669761Y-135871343D01*
X171780000Y-135317132D01*
X171780000Y-134142867D01*
X171679324Y-133636734D01*
X178515000Y-140472411D01*
G36*
X151358658Y-136919761D02*
X152100000Y-137067223D01*
X152841343Y-136919761D01*
X153370001Y-136566524D01*
X153898658Y-136919761D01*
X154640000Y-137067223D01*
X155381343Y-136919761D01*
X155910001Y-136566524D01*
X155982675Y-136615083D01*
X156026075Y-136833271D01*
X156296824Y-137238476D01*
X156702029Y-137509225D01*
X157059348Y-137580300D01*
X157059349Y-137580300D01*
X157180000Y-137604299D01*
X157300652Y-137580300D01*
X163489290Y-137580300D01*
X165625380Y-139716392D01*
X165541342Y-139660239D01*
X164800000Y-139512777D01*
X164058657Y-139660239D01*
X163530000Y-140013476D01*
X163001342Y-139660239D01*
X162260000Y-139512777D01*
X161518657Y-139660239D01*
X160990000Y-140013476D01*
X160461342Y-139660239D01*
X159720000Y-139512777D01*
X158978657Y-139660239D01*
X158450000Y-140013476D01*
X157921342Y-139660239D01*
X157180000Y-139512777D01*
X156438657Y-139660239D01*
X155910000Y-140013476D01*
X155381342Y-139660239D01*
X154640000Y-139512777D01*
X153898657Y-139660239D01*
X153648661Y-139827281D01*
X153329199Y-139613823D01*
X152900000Y-139528450D01*
X151300000Y-139528450D01*
X150870801Y-139613823D01*
X150781000Y-139673826D01*
X150781000Y-136533783D01*
X151358658Y-136919761D01*
X151358658Y-136919761D01*
G37*
X151358658Y-136919761D02*
X152100000Y-137067223D01*
X152841343Y-136919761D01*
X153370001Y-136566524D01*
X153898658Y-136919761D01*
X154640000Y-137067223D01*
X155381343Y-136919761D01*
X155910001Y-136566524D01*
X155982675Y-136615083D01*
X156026075Y-136833271D01*
X156296824Y-137238476D01*
X156702029Y-137509225D01*
X157059348Y-137580300D01*
X157059349Y-137580300D01*
X157180000Y-137604299D01*
X157300652Y-137580300D01*
X163489290Y-137580300D01*
X165625380Y-139716392D01*
X165541342Y-139660239D01*
X164800000Y-139512777D01*
X164058657Y-139660239D01*
X163530000Y-140013476D01*
X163001342Y-139660239D01*
X162260000Y-139512777D01*
X161518657Y-139660239D01*
X160990000Y-140013476D01*
X160461342Y-139660239D01*
X159720000Y-139512777D01*
X158978657Y-139660239D01*
X158450000Y-140013476D01*
X157921342Y-139660239D01*
X157180000Y-139512777D01*
X156438657Y-139660239D01*
X155910000Y-140013476D01*
X155381342Y-139660239D01*
X154640000Y-139512777D01*
X153898657Y-139660239D01*
X153648661Y-139827281D01*
X153329199Y-139613823D01*
X152900000Y-139528450D01*
X151300000Y-139528450D01*
X150870801Y-139613823D01*
X150781000Y-139673826D01*
X150781000Y-136533783D01*
X151358658Y-136919761D01*
G36*
X180197284Y-138440000D02*
X181032716Y-138440000D01*
X181256000Y-138347513D01*
X181256000Y-138832487D01*
X181032716Y-138740000D01*
X180247411Y-138740000D01*
X179770724Y-138263313D01*
X180197284Y-138440000D01*
X180197284Y-138440000D01*
G37*
X180197284Y-138440000D02*
X181032716Y-138440000D01*
X181256000Y-138347513D01*
X181256000Y-138832487D01*
X181032716Y-138740000D01*
X180247411Y-138740000D01*
X179770724Y-138263313D01*
X180197284Y-138440000D01*
G36*
X166598658Y-136919761D02*
X167340000Y-137067223D01*
X167385001Y-137058272D01*
X167385001Y-138011190D01*
X165992271Y-136618461D01*
X166070001Y-136566524D01*
X166598658Y-136919761D01*
X166598658Y-136919761D01*
G37*
X166598658Y-136919761D02*
X167340000Y-137067223D01*
X167385001Y-137058272D01*
X167385001Y-138011190D01*
X165992271Y-136618461D01*
X166070001Y-136566524D01*
X166598658Y-136919761D01*
G36*
X170686300Y-127420732D02*
X170811300Y-127722509D01*
X170811300Y-128440950D01*
X170787301Y-128561600D01*
X170811300Y-128682250D01*
X170811300Y-128682251D01*
X170882375Y-129039570D01*
X171153124Y-129444776D01*
X171255413Y-129513124D01*
X172443178Y-130700889D01*
X172511524Y-130803176D01*
X172916729Y-131073925D01*
X173134916Y-131117325D01*
X173250176Y-131289824D01*
X173878657Y-131709761D01*
X174432867Y-131820000D01*
X175607133Y-131820000D01*
X176161343Y-131709761D01*
X176384454Y-131560683D01*
X176889460Y-131898117D01*
X177510000Y-132021550D01*
X178510000Y-132021550D01*
X178626055Y-131998465D01*
X179390001Y-132762412D01*
X179390000Y-134595152D01*
X178834706Y-135150446D01*
X178515000Y-135922284D01*
X178515000Y-136757716D01*
X178691687Y-137184277D01*
X170250300Y-128742890D01*
X170250300Y-127500652D01*
X170274299Y-127380000D01*
X170274219Y-127379600D01*
X170686300Y-127379600D01*
X170686300Y-127420732D01*
X170686300Y-127420732D01*
G37*
X170686300Y-127420732D02*
X170811300Y-127722509D01*
X170811300Y-128440950D01*
X170787301Y-128561600D01*
X170811300Y-128682250D01*
X170811300Y-128682251D01*
X170882375Y-129039570D01*
X171153124Y-129444776D01*
X171255413Y-129513124D01*
X172443178Y-130700889D01*
X172511524Y-130803176D01*
X172916729Y-131073925D01*
X173134916Y-131117325D01*
X173250176Y-131289824D01*
X173878657Y-131709761D01*
X174432867Y-131820000D01*
X175607133Y-131820000D01*
X176161343Y-131709761D01*
X176384454Y-131560683D01*
X176889460Y-131898117D01*
X177510000Y-132021550D01*
X178510000Y-132021550D01*
X178626055Y-131998465D01*
X179390001Y-132762412D01*
X179390000Y-134595152D01*
X178834706Y-135150446D01*
X178515000Y-135922284D01*
X178515000Y-136757716D01*
X178691687Y-137184277D01*
X170250300Y-128742890D01*
X170250300Y-127500652D01*
X170274299Y-127380000D01*
X170274219Y-127379600D01*
X170686300Y-127379600D01*
X170686300Y-127420732D01*
G36*
X153704019Y-131833654D02*
X153592870Y-132000000D01*
X153486076Y-132159829D01*
X153391001Y-132637800D01*
X153415001Y-132758455D01*
X153415001Y-132863407D01*
X153370000Y-132893476D01*
X152841342Y-132540239D01*
X152100000Y-132392777D01*
X151358657Y-132540239D01*
X150781000Y-132926217D01*
X150781000Y-131968043D01*
X151050000Y-132021550D01*
X152050000Y-132021550D01*
X152670540Y-131898117D01*
X153196609Y-131546609D01*
X153220628Y-131510662D01*
X153704019Y-131833654D01*
X153704019Y-131833654D01*
G37*
X153704019Y-131833654D02*
X153592870Y-132000000D01*
X153486076Y-132159829D01*
X153391001Y-132637800D01*
X153415001Y-132758455D01*
X153415001Y-132863407D01*
X153370000Y-132893476D01*
X152841342Y-132540239D01*
X152100000Y-132392777D01*
X151358657Y-132540239D01*
X150781000Y-132926217D01*
X150781000Y-131968043D01*
X151050000Y-132021550D01*
X152050000Y-132021550D01*
X152670540Y-131898117D01*
X153196609Y-131546609D01*
X153220628Y-131510662D01*
X153704019Y-131833654D01*
G36*
X166258657Y-131709761D02*
X166812867Y-131820000D01*
X167385000Y-131820000D01*
X167385000Y-132401728D01*
X167340000Y-132392777D01*
X166598657Y-132540239D01*
X166070000Y-132893476D01*
X165541342Y-132540239D01*
X165222077Y-132476733D01*
X166097039Y-131601772D01*
X166258657Y-131709761D01*
X166258657Y-131709761D01*
G37*
X166258657Y-131709761D02*
X166812867Y-131820000D01*
X167385000Y-131820000D01*
X167385000Y-132401728D01*
X167340000Y-132392777D01*
X166598657Y-132540239D01*
X166070000Y-132893476D01*
X165541342Y-132540239D01*
X165222077Y-132476733D01*
X166097039Y-131601772D01*
X166258657Y-131709761D01*
G36*
X158828450Y-130400000D02*
X158951883Y-131020540D01*
X159303391Y-131546609D01*
X159654726Y-131781364D01*
X159545723Y-131890367D01*
X159242029Y-131950775D01*
X158836824Y-132221524D01*
X158731603Y-132378999D01*
X158566075Y-132626729D01*
X158522675Y-132844916D01*
X158450000Y-132893476D01*
X157921342Y-132540239D01*
X157180000Y-132392777D01*
X156477747Y-132532464D01*
X158828450Y-130181761D01*
X158828450Y-130400000D01*
X158828450Y-130400000D01*
G37*
X158828450Y-130400000D02*
X158951883Y-131020540D01*
X159303391Y-131546609D01*
X159654726Y-131781364D01*
X159545723Y-131890367D01*
X159242029Y-131950775D01*
X158836824Y-132221524D01*
X158731603Y-132378999D01*
X158566075Y-132626729D01*
X158522675Y-132844916D01*
X158450000Y-132893476D01*
X157921342Y-132540239D01*
X157180000Y-132392777D01*
X156477747Y-132532464D01*
X158828450Y-130181761D01*
X158828450Y-130400000D01*
G36*
X170573266Y-132530676D02*
X169880000Y-132392777D01*
X169835000Y-132401728D01*
X169835000Y-131792410D01*
X170573266Y-132530676D01*
X170573266Y-132530676D01*
G37*
X170573266Y-132530676D02*
X169880000Y-132392777D01*
X169835000Y-132401728D01*
X169835000Y-131792410D01*
X170573266Y-132530676D01*
G36*
X156526745Y-129018645D02*
X156104015Y-128385985D01*
X155409379Y-127921844D01*
X154796829Y-127800000D01*
X154383171Y-127800000D01*
X153770621Y-127921844D01*
X153220628Y-128289338D01*
X153196609Y-128253391D01*
X152670540Y-127901883D01*
X152050000Y-127778450D01*
X151050000Y-127778450D01*
X150865289Y-127815191D01*
X150867009Y-127812004D01*
X150947267Y-127737814D01*
X151068845Y-127684065D01*
X151203926Y-127667000D01*
X157878389Y-127667000D01*
X156526745Y-129018645D01*
X156526745Y-129018645D01*
G37*
X156526745Y-129018645D02*
X156104015Y-128385985D01*
X155409379Y-127921844D01*
X154796829Y-127800000D01*
X154383171Y-127800000D01*
X153770621Y-127921844D01*
X153220628Y-128289338D01*
X153196609Y-128253391D01*
X152670540Y-127901883D01*
X152050000Y-127778450D01*
X151050000Y-127778450D01*
X150865289Y-127815191D01*
X150867009Y-127812004D01*
X150947267Y-127737814D01*
X151068845Y-127684065D01*
X151203926Y-127667000D01*
X157878389Y-127667000D01*
X156526745Y-129018645D01*
G36*
X180201615Y-127941226D02*
X179680628Y-128289338D01*
X179656609Y-128253391D01*
X179485000Y-128138726D01*
X179485000Y-127224611D01*
X180201615Y-127941226D01*
X180201615Y-127941226D01*
G37*
X180201615Y-127941226D02*
X179680628Y-128289338D01*
X179656609Y-128253391D01*
X179485000Y-128138726D01*
X179485000Y-127224611D01*
X180201615Y-127941226D01*
G36*
X162425000Y-126457289D02*
X162425000Y-126209700D01*
X162672589Y-126209700D01*
X162425000Y-126457289D01*
X162425000Y-126457289D01*
G37*
X162425000Y-126457289D02*
X162425000Y-126209700D01*
X162672589Y-126209700D01*
X162425000Y-126457289D01*
G36*
X181705001Y-125979790D02*
X180811500Y-125086290D01*
X180811500Y-122493700D01*
X180843171Y-122500000D01*
X181256829Y-122500000D01*
X181705001Y-122410853D01*
X181705001Y-125979790D01*
X181705001Y-125979790D01*
G37*
X181705001Y-125979790D02*
X180811500Y-125086290D01*
X180811500Y-122493700D01*
X180843171Y-122500000D01*
X181256829Y-122500000D01*
X181705001Y-122410853D01*
X181705001Y-125979790D01*
G36*
X175020701Y-118646855D02*
X175020700Y-120400000D01*
X174432867Y-120400000D01*
X173878657Y-120510239D01*
X173250176Y-120930176D01*
X172830239Y-121558657D01*
X172682777Y-122300000D01*
X172830239Y-123041343D01*
X173183476Y-123570000D01*
X173134916Y-123642675D01*
X172916729Y-123686075D01*
X172511524Y-123956824D01*
X172495757Y-123980421D01*
X172424500Y-123808391D01*
X172424500Y-122202324D01*
X172608200Y-121758832D01*
X172608200Y-121221768D01*
X172518939Y-121006272D01*
X174997084Y-118528127D01*
X175020701Y-118646855D01*
X175020701Y-118646855D01*
G37*
X175020701Y-118646855D02*
X175020700Y-120400000D01*
X174432867Y-120400000D01*
X173878657Y-120510239D01*
X173250176Y-120930176D01*
X172830239Y-121558657D01*
X172682777Y-122300000D01*
X172830239Y-123041343D01*
X173183476Y-123570000D01*
X173134916Y-123642675D01*
X172916729Y-123686075D01*
X172511524Y-123956824D01*
X172495757Y-123980421D01*
X172424500Y-123808391D01*
X172424500Y-122202324D01*
X172608200Y-121758832D01*
X172608200Y-121221768D01*
X172518939Y-121006272D01*
X174997084Y-118528127D01*
X175020701Y-118646855D01*
G36*
X163170621Y-122378156D02*
X163237191Y-122391398D01*
X162425000Y-123203589D01*
X162425000Y-122161274D01*
X162596609Y-122046609D01*
X162620628Y-122010662D01*
X163170621Y-122378156D01*
X163170621Y-122378156D01*
G37*
X163170621Y-122378156D02*
X163237191Y-122391398D01*
X162425000Y-123203589D01*
X162425000Y-122161274D01*
X162596609Y-122046609D01*
X162620628Y-122010662D01*
X163170621Y-122378156D01*
G36*
X168889977Y-116095387D02*
X168846000Y-116201556D01*
X168846000Y-117136444D01*
X169203766Y-118000168D01*
X169864832Y-118661234D01*
X170728556Y-119019000D01*
X171041389Y-119019000D01*
X169949287Y-120111103D01*
X169908476Y-120050024D01*
X169806189Y-119981679D01*
X168655000Y-118830490D01*
X168655000Y-115860410D01*
X168889977Y-116095387D01*
X168889977Y-116095387D01*
G37*
X168889977Y-116095387D02*
X168846000Y-116201556D01*
X168846000Y-117136444D01*
X169203766Y-118000168D01*
X169864832Y-118661234D01*
X170728556Y-119019000D01*
X171041389Y-119019000D01*
X169949287Y-120111103D01*
X169908476Y-120050024D01*
X169806189Y-119981679D01*
X168655000Y-118830490D01*
X168655000Y-115860410D01*
X168889977Y-116095387D01*
G36*
X181705001Y-118389147D02*
X181256829Y-118300000D01*
X180843171Y-118300000D01*
X180811500Y-118306300D01*
X180811500Y-97625850D01*
X180835499Y-97505199D01*
X180811500Y-97384548D01*
X180740425Y-97027229D01*
X180469676Y-96622024D01*
X180367392Y-96553680D01*
X179206900Y-95393189D01*
X179206900Y-91301621D01*
X179441914Y-91204275D01*
X179821675Y-90824514D01*
X179946676Y-90522734D01*
X181580890Y-88888521D01*
X181683176Y-88820176D01*
X181705000Y-88787514D01*
X181705001Y-118389147D01*
X181705001Y-118389147D01*
G37*
X181705001Y-118389147D02*
X181256829Y-118300000D01*
X180843171Y-118300000D01*
X180811500Y-118306300D01*
X180811500Y-97625850D01*
X180835499Y-97505199D01*
X180811500Y-97384548D01*
X180740425Y-97027229D01*
X180469676Y-96622024D01*
X180367392Y-96553680D01*
X179206900Y-95393189D01*
X179206900Y-91301621D01*
X179441914Y-91204275D01*
X179821675Y-90824514D01*
X179946676Y-90522734D01*
X181580890Y-88888521D01*
X181683176Y-88820176D01*
X181705000Y-88787514D01*
X181705001Y-118389147D01*
G36*
X163893168Y-108778600D02*
X164347601Y-108778600D01*
X164347601Y-118329990D01*
X164196829Y-118300000D01*
X163789700Y-118300000D01*
X163789700Y-108735742D01*
X163893168Y-108778600D01*
X163893168Y-108778600D01*
G37*
X163893168Y-108778600D02*
X164347601Y-108778600D01*
X164347601Y-118329990D01*
X164196829Y-118300000D01*
X163789700Y-118300000D01*
X163789700Y-108735742D01*
X163893168Y-108778600D01*
G36*
X178361501Y-98012612D02*
X178361500Y-118278450D01*
X178166221Y-118278450D01*
X178159900Y-118263191D01*
X178159900Y-97811011D01*
X178361501Y-98012612D01*
X178361501Y-98012612D01*
G37*
X178361501Y-98012612D02*
X178361500Y-118278450D01*
X178166221Y-118278450D01*
X178159900Y-118263191D01*
X178159900Y-97811011D01*
X178361501Y-98012612D01*
G36*
X161339700Y-118278450D02*
X160687000Y-118278450D01*
X160687000Y-87338550D01*
X161339701Y-87338550D01*
X161339700Y-118278450D01*
X161339700Y-118278450D01*
G37*
X161339700Y-118278450D02*
X160687000Y-118278450D01*
X160687000Y-87338550D01*
X161339701Y-87338550D01*
X161339700Y-118278450D01*
G36*
X174146300Y-115914088D02*
X173546000Y-116514388D01*
X173546000Y-116201556D01*
X173188234Y-115337832D01*
X172527168Y-114676766D01*
X171663444Y-114319000D01*
X170728556Y-114319000D01*
X170622387Y-114362977D01*
X169252500Y-112993090D01*
X169252500Y-109231210D01*
X173119889Y-105363822D01*
X173222176Y-105295476D01*
X173492925Y-104890271D01*
X173534000Y-104683770D01*
X173744871Y-104542871D01*
X174146301Y-103942089D01*
X174146300Y-115914088D01*
X174146300Y-115914088D01*
G37*
X174146300Y-115914088D02*
X173546000Y-116514388D01*
X173546000Y-116201556D01*
X173188234Y-115337832D01*
X172527168Y-114676766D01*
X171663444Y-114319000D01*
X170728556Y-114319000D01*
X170622387Y-114362977D01*
X169252500Y-112993090D01*
X169252500Y-109231210D01*
X173119889Y-105363822D01*
X173222176Y-105295476D01*
X173492925Y-104890271D01*
X173534000Y-104683770D01*
X173744871Y-104542871D01*
X174146301Y-103942089D01*
X174146300Y-115914088D01*
G36*
X168949000Y-105108550D02*
X169910339Y-105108550D01*
X168655000Y-106363890D01*
X168655000Y-105050070D01*
X168949000Y-105108550D01*
X168949000Y-105108550D01*
G37*
X168949000Y-105108550D02*
X169910339Y-105108550D01*
X168655000Y-106363890D01*
X168655000Y-105050070D01*
X168949000Y-105108550D01*
G36*
X174146301Y-95062311D02*
X174146301Y-102331911D01*
X173912859Y-101982541D01*
X174039325Y-101793271D01*
X174110400Y-101435952D01*
X174110400Y-101435951D01*
X174134399Y-101315301D01*
X174110400Y-101194650D01*
X174110400Y-94975639D01*
X174146301Y-95062311D01*
X174146301Y-95062311D01*
G37*
X174146301Y-95062311D02*
X174146301Y-102331911D01*
X173912859Y-101982541D01*
X174039325Y-101793271D01*
X174110400Y-101435952D01*
X174110400Y-101435951D01*
X174134399Y-101315301D01*
X174110400Y-101194650D01*
X174110400Y-94975639D01*
X174146301Y-95062311D01*
G36*
X171314493Y-93771098D02*
X171362848Y-93803408D01*
X171626825Y-94198476D01*
X171660400Y-94220910D01*
X171660400Y-94819000D01*
X170728556Y-94819000D01*
X169864832Y-95176766D01*
X169203766Y-95837832D01*
X168846000Y-96701556D01*
X168846000Y-97636444D01*
X169203766Y-98500168D01*
X169864832Y-99161234D01*
X169971000Y-99205210D01*
X169971000Y-99957288D01*
X169018111Y-100910179D01*
X168915825Y-100978524D01*
X168766695Y-101201713D01*
X168655000Y-101223930D01*
X168655000Y-93936958D01*
X168709199Y-93926177D01*
X168996079Y-93734491D01*
X169209148Y-93876859D01*
X169777946Y-93990000D01*
X170162054Y-93990000D01*
X170730852Y-93876859D01*
X171101814Y-93628990D01*
X171314493Y-93771098D01*
X171314493Y-93771098D01*
G37*
X171314493Y-93771098D02*
X171362848Y-93803408D01*
X171626825Y-94198476D01*
X171660400Y-94220910D01*
X171660400Y-94819000D01*
X170728556Y-94819000D01*
X169864832Y-95176766D01*
X169203766Y-95837832D01*
X168846000Y-96701556D01*
X168846000Y-97636444D01*
X169203766Y-98500168D01*
X169864832Y-99161234D01*
X169971000Y-99205210D01*
X169971000Y-99957288D01*
X169018111Y-100910179D01*
X168915825Y-100978524D01*
X168766695Y-101201713D01*
X168655000Y-101223930D01*
X168655000Y-93936958D01*
X168709199Y-93926177D01*
X168996079Y-93734491D01*
X169209148Y-93876859D01*
X169777946Y-93990000D01*
X170162054Y-93990000D01*
X170730852Y-93876859D01*
X171101814Y-93628990D01*
X171314493Y-93771098D01*
G36*
X174191810Y-93811820D02*
X174110400Y-94008361D01*
X174110400Y-93811350D01*
X174119868Y-93763750D01*
X174191810Y-93811820D01*
X174191810Y-93811820D01*
G37*
X174191810Y-93811820D02*
X174110400Y-94008361D01*
X174110400Y-93811350D01*
X174119868Y-93763750D01*
X174191810Y-93811820D01*
G36*
X173380482Y-90276393D02*
X173270852Y-90203141D01*
X172702054Y-90090000D01*
X172317946Y-90090000D01*
X171749148Y-90203141D01*
X171240000Y-90543343D01*
X170730852Y-90203141D01*
X170162054Y-90090000D01*
X169777946Y-90090000D01*
X169209148Y-90203141D01*
X168996079Y-90345509D01*
X168709199Y-90153823D01*
X168526608Y-90117503D01*
X170056192Y-88587920D01*
X170158476Y-88519576D01*
X170429225Y-88114371D01*
X170500300Y-87757052D01*
X170500300Y-87757051D01*
X170524299Y-87636401D01*
X170500300Y-87515750D01*
X170500300Y-87396210D01*
X173380482Y-90276393D01*
X173380482Y-90276393D01*
G37*
X173380482Y-90276393D02*
X173270852Y-90203141D01*
X172702054Y-90090000D01*
X172317946Y-90090000D01*
X171749148Y-90203141D01*
X171240000Y-90543343D01*
X170730852Y-90203141D01*
X170162054Y-90090000D01*
X169777946Y-90090000D01*
X169209148Y-90203141D01*
X168996079Y-90345509D01*
X168709199Y-90153823D01*
X168526608Y-90117503D01*
X170056192Y-88587920D01*
X170158476Y-88519576D01*
X170429225Y-88114371D01*
X170500300Y-87757052D01*
X170500300Y-87757051D01*
X170524299Y-87636401D01*
X170500300Y-87515750D01*
X170500300Y-87396210D01*
X173380482Y-90276393D01*
G36*
X164660700Y-87328688D02*
X163789700Y-88199689D01*
X163789700Y-87317000D01*
X164196829Y-87317000D01*
X164660700Y-87224730D01*
X164660700Y-87328688D01*
X164660700Y-87328688D01*
G37*
X164660700Y-87328688D02*
X163789700Y-88199689D01*
X163789700Y-87317000D01*
X164196829Y-87317000D01*
X164660700Y-87224730D01*
X164660700Y-87328688D01*
G36*
X149230621Y-87195156D02*
X149843171Y-87317000D01*
X150256829Y-87317000D01*
X150717001Y-87225466D01*
X150717001Y-87725000D01*
X145669774Y-87725000D01*
X145996271Y-87236363D01*
X146510000Y-87338550D01*
X147510000Y-87338550D01*
X148130540Y-87215117D01*
X148656609Y-86863609D01*
X148680628Y-86827662D01*
X149230621Y-87195156D01*
X149230621Y-87195156D01*
G37*
X149230621Y-87195156D02*
X149843171Y-87317000D01*
X150256829Y-87317000D01*
X150717001Y-87225466D01*
X150717001Y-87725000D01*
X145669774Y-87725000D01*
X145996271Y-87236363D01*
X146510000Y-87338550D01*
X147510000Y-87338550D01*
X148130540Y-87215117D01*
X148656609Y-86863609D01*
X148680628Y-86827662D01*
X149230621Y-87195156D01*
G36*
X134560239Y-87141343D02*
X134950226Y-87725000D01*
X130145116Y-87725000D01*
X129940190Y-87690891D01*
X129844003Y-87638991D01*
X129769815Y-87558734D01*
X129716065Y-87437155D01*
X129703608Y-87338550D01*
X130533000Y-87338550D01*
X131153540Y-87215117D01*
X131679609Y-86863609D01*
X131703628Y-86827662D01*
X132253621Y-87195156D01*
X132866171Y-87317000D01*
X133279829Y-87317000D01*
X133892379Y-87195156D01*
X134491336Y-86794945D01*
X134560239Y-87141343D01*
X134560239Y-87141343D01*
G37*
X134560239Y-87141343D02*
X134950226Y-87725000D01*
X130145116Y-87725000D01*
X129940190Y-87690891D01*
X129844003Y-87638991D01*
X129769815Y-87558734D01*
X129716065Y-87437155D01*
X129703608Y-87338550D01*
X130533000Y-87338550D01*
X131153540Y-87215117D01*
X131679609Y-86863609D01*
X131703628Y-86827662D01*
X132253621Y-87195156D01*
X132866171Y-87317000D01*
X133279829Y-87317000D01*
X133892379Y-87195156D01*
X134491336Y-86794945D01*
X134560239Y-87141343D01*
G36*
X210970621Y-87195156D02*
X211583171Y-87317000D01*
X211996829Y-87317000D01*
X212609379Y-87195156D01*
X212693001Y-87139282D01*
X212693001Y-87278878D01*
X212658891Y-87483810D01*
X212606991Y-87579997D01*
X212526734Y-87654185D01*
X212405155Y-87707935D01*
X212270074Y-87725000D01*
X207469774Y-87725000D01*
X207789232Y-87246898D01*
X208250000Y-87338550D01*
X209250000Y-87338550D01*
X209870540Y-87215117D01*
X210396609Y-86863609D01*
X210420628Y-86827662D01*
X210970621Y-87195156D01*
X210970621Y-87195156D01*
G37*
X210970621Y-87195156D02*
X211583171Y-87317000D01*
X211996829Y-87317000D01*
X212609379Y-87195156D01*
X212693001Y-87139282D01*
X212693001Y-87278878D01*
X212658891Y-87483810D01*
X212606991Y-87579997D01*
X212526734Y-87654185D01*
X212405155Y-87707935D01*
X212270074Y-87725000D01*
X207469774Y-87725000D01*
X207789232Y-87246898D01*
X208250000Y-87338550D01*
X209250000Y-87338550D01*
X209870540Y-87215117D01*
X210396609Y-86863609D01*
X210420628Y-86827662D01*
X210970621Y-87195156D01*
G36*
X202819700Y-74985811D02*
X202819701Y-86279344D01*
X202795701Y-86400000D01*
X202890775Y-86877971D01*
X203161524Y-87283176D01*
X203566729Y-87553925D01*
X203784916Y-87597325D01*
X203870226Y-87725000D01*
X200349774Y-87725000D01*
X200739761Y-87141343D01*
X200887223Y-86400000D01*
X200739761Y-85658657D01*
X200696619Y-85594091D01*
X200956187Y-85334523D01*
X201058476Y-85266176D01*
X201275627Y-84941186D01*
X201329225Y-84860972D01*
X201424299Y-84383000D01*
X201400300Y-84262348D01*
X201400300Y-76360652D01*
X201424299Y-76240000D01*
X201329225Y-75762029D01*
X201058476Y-75356824D01*
X200653271Y-75086075D01*
X200435084Y-75042675D01*
X200386524Y-74970000D01*
X200739761Y-74441343D01*
X200887223Y-73700000D01*
X200739761Y-72958657D01*
X200633469Y-72799579D01*
X202819700Y-74985811D01*
X202819700Y-74985811D01*
G37*
X202819700Y-74985811D02*
X202819701Y-86279344D01*
X202795701Y-86400000D01*
X202890775Y-86877971D01*
X203161524Y-87283176D01*
X203566729Y-87553925D01*
X203784916Y-87597325D01*
X203870226Y-87725000D01*
X200349774Y-87725000D01*
X200739761Y-87141343D01*
X200887223Y-86400000D01*
X200739761Y-85658657D01*
X200696619Y-85594091D01*
X200956187Y-85334523D01*
X201058476Y-85266176D01*
X201275627Y-84941186D01*
X201329225Y-84860972D01*
X201424299Y-84383000D01*
X201400300Y-84262348D01*
X201400300Y-76360652D01*
X201424299Y-76240000D01*
X201329225Y-75762029D01*
X201058476Y-75356824D01*
X200653271Y-75086075D01*
X200435084Y-75042675D01*
X200386524Y-74970000D01*
X200739761Y-74441343D01*
X200887223Y-73700000D01*
X200739761Y-72958657D01*
X200633469Y-72799579D01*
X202819700Y-74985811D01*
G36*
X192686678Y-87436089D02*
X192755024Y-87538376D01*
X193034327Y-87725000D01*
X191675000Y-87725000D01*
X191675000Y-87338550D01*
X192450000Y-87338550D01*
X192566055Y-87315465D01*
X192686678Y-87436089D01*
X192686678Y-87436089D01*
G37*
X192686678Y-87436089D02*
X192755024Y-87538376D01*
X193034327Y-87725000D01*
X191675000Y-87725000D01*
X191675000Y-87338550D01*
X192450000Y-87338550D01*
X192566055Y-87315465D01*
X192686678Y-87436089D01*
G36*
X141532777Y-86400000D02*
X141680239Y-87141343D01*
X142070226Y-87725000D01*
X138549774Y-87725000D01*
X138635084Y-87597325D01*
X138853271Y-87553925D01*
X139258476Y-87283176D01*
X139326823Y-87180887D01*
X140152711Y-86355000D01*
X141541728Y-86355000D01*
X141532777Y-86400000D01*
X141532777Y-86400000D01*
G37*
X141532777Y-86400000D02*
X141680239Y-87141343D01*
X142070226Y-87725000D01*
X138549774Y-87725000D01*
X138635084Y-87597325D01*
X138853271Y-87553925D01*
X139258476Y-87283176D01*
X139326823Y-87180887D01*
X140152711Y-86355000D01*
X141541728Y-86355000D01*
X141532777Y-86400000D01*
G36*
X150613124Y-55664724D02*
X150544778Y-55767011D01*
X140348014Y-65963776D01*
X140245724Y-66032124D01*
X139974975Y-66437330D01*
X139903900Y-66794648D01*
X139879901Y-66915300D01*
X139903900Y-67035950D01*
X139903901Y-83471945D01*
X139879901Y-83592600D01*
X139942042Y-83905000D01*
X139765950Y-83905000D01*
X139645299Y-83881001D01*
X139524649Y-83905000D01*
X139524648Y-83905000D01*
X139167329Y-83976075D01*
X139048317Y-84055597D01*
X139087223Y-83860000D01*
X138939761Y-83118657D01*
X138586524Y-82590000D01*
X138939761Y-82061343D01*
X139087223Y-81320000D01*
X138939761Y-80578657D01*
X138586524Y-80050000D01*
X138939761Y-79521343D01*
X139087223Y-78780000D01*
X138939761Y-78038657D01*
X138586524Y-77510000D01*
X138939761Y-76981343D01*
X139087223Y-76240000D01*
X138939761Y-75498657D01*
X138586524Y-74970000D01*
X138635084Y-74897325D01*
X138771572Y-74870176D01*
X138853271Y-74853925D01*
X139258476Y-74583176D01*
X139529225Y-74177971D01*
X139549116Y-74077970D01*
X139600300Y-73820652D01*
X139624299Y-73700000D01*
X139600300Y-73579348D01*
X139600300Y-65807410D01*
X145030892Y-60376820D01*
X145133176Y-60308476D01*
X145381723Y-59936499D01*
X146014015Y-59514015D01*
X146478156Y-58819379D01*
X146641141Y-58000000D01*
X146478156Y-57180621D01*
X146014015Y-56485985D01*
X145319379Y-56021844D01*
X144706829Y-55900000D01*
X144293171Y-55900000D01*
X143680621Y-56021844D01*
X143130628Y-56389338D01*
X143106609Y-56353391D01*
X142580540Y-56001883D01*
X141960000Y-55878450D01*
X140960000Y-55878450D01*
X140339460Y-56001883D01*
X139813391Y-56353391D01*
X139461883Y-56879460D01*
X139338450Y-57500000D01*
X139338450Y-58500000D01*
X139461883Y-59120540D01*
X139813391Y-59646609D01*
X140339460Y-59998117D01*
X140960000Y-60121550D01*
X141821339Y-60121550D01*
X137594414Y-64348476D01*
X137492124Y-64416824D01*
X137221375Y-64822030D01*
X137150300Y-65179348D01*
X137126301Y-65300000D01*
X137150300Y-65420650D01*
X137150300Y-66698450D01*
X135550000Y-66698450D01*
X135120801Y-66783823D01*
X134756944Y-67026944D01*
X134513823Y-67390801D01*
X134476183Y-67580030D01*
X134241524Y-67736824D01*
X133970775Y-68142029D01*
X133875701Y-68620000D01*
X133899700Y-68740652D01*
X133899700Y-69482588D01*
X132159111Y-71223179D01*
X132056825Y-71291524D01*
X131786076Y-71696729D01*
X131742247Y-71917068D01*
X131270540Y-71601883D01*
X130650000Y-71478450D01*
X129699000Y-71478450D01*
X129699000Y-60119362D01*
X129710000Y-60121550D01*
X130710000Y-60121550D01*
X131330540Y-59998117D01*
X131856609Y-59646609D01*
X131880628Y-59610662D01*
X132430621Y-59978156D01*
X133043171Y-60100000D01*
X133456829Y-60100000D01*
X134069379Y-59978156D01*
X134764015Y-59514015D01*
X135228156Y-58819379D01*
X135391141Y-58000000D01*
X135228156Y-57180621D01*
X134764015Y-56485985D01*
X134069379Y-56021844D01*
X133456829Y-55900000D01*
X133043171Y-55900000D01*
X132430621Y-56021844D01*
X131880628Y-56389338D01*
X131856609Y-56353391D01*
X131330540Y-56001883D01*
X130710000Y-55878450D01*
X129710000Y-55878450D01*
X129699000Y-55880638D01*
X129699000Y-55531000D01*
X150813256Y-55531000D01*
X150613124Y-55664724D01*
X150613124Y-55664724D01*
G37*
X150613124Y-55664724D02*
X150544778Y-55767011D01*
X140348014Y-65963776D01*
X140245724Y-66032124D01*
X139974975Y-66437330D01*
X139903900Y-66794648D01*
X139879901Y-66915300D01*
X139903900Y-67035950D01*
X139903901Y-83471945D01*
X139879901Y-83592600D01*
X139942042Y-83905000D01*
X139765950Y-83905000D01*
X139645299Y-83881001D01*
X139524649Y-83905000D01*
X139524648Y-83905000D01*
X139167329Y-83976075D01*
X139048317Y-84055597D01*
X139087223Y-83860000D01*
X138939761Y-83118657D01*
X138586524Y-82590000D01*
X138939761Y-82061343D01*
X139087223Y-81320000D01*
X138939761Y-80578657D01*
X138586524Y-80050000D01*
X138939761Y-79521343D01*
X139087223Y-78780000D01*
X138939761Y-78038657D01*
X138586524Y-77510000D01*
X138939761Y-76981343D01*
X139087223Y-76240000D01*
X138939761Y-75498657D01*
X138586524Y-74970000D01*
X138635084Y-74897325D01*
X138771572Y-74870176D01*
X138853271Y-74853925D01*
X139258476Y-74583176D01*
X139529225Y-74177971D01*
X139549116Y-74077970D01*
X139600300Y-73820652D01*
X139624299Y-73700000D01*
X139600300Y-73579348D01*
X139600300Y-65807410D01*
X145030892Y-60376820D01*
X145133176Y-60308476D01*
X145381723Y-59936499D01*
X146014015Y-59514015D01*
X146478156Y-58819379D01*
X146641141Y-58000000D01*
X146478156Y-57180621D01*
X146014015Y-56485985D01*
X145319379Y-56021844D01*
X144706829Y-55900000D01*
X144293171Y-55900000D01*
X143680621Y-56021844D01*
X143130628Y-56389338D01*
X143106609Y-56353391D01*
X142580540Y-56001883D01*
X141960000Y-55878450D01*
X140960000Y-55878450D01*
X140339460Y-56001883D01*
X139813391Y-56353391D01*
X139461883Y-56879460D01*
X139338450Y-57500000D01*
X139338450Y-58500000D01*
X139461883Y-59120540D01*
X139813391Y-59646609D01*
X140339460Y-59998117D01*
X140960000Y-60121550D01*
X141821339Y-60121550D01*
X137594414Y-64348476D01*
X137492124Y-64416824D01*
X137221375Y-64822030D01*
X137150300Y-65179348D01*
X137126301Y-65300000D01*
X137150300Y-65420650D01*
X137150300Y-66698450D01*
X135550000Y-66698450D01*
X135120801Y-66783823D01*
X134756944Y-67026944D01*
X134513823Y-67390801D01*
X134476183Y-67580030D01*
X134241524Y-67736824D01*
X133970775Y-68142029D01*
X133875701Y-68620000D01*
X133899700Y-68740652D01*
X133899700Y-69482588D01*
X132159111Y-71223179D01*
X132056825Y-71291524D01*
X131786076Y-71696729D01*
X131742247Y-71917068D01*
X131270540Y-71601883D01*
X130650000Y-71478450D01*
X129699000Y-71478450D01*
X129699000Y-60119362D01*
X129710000Y-60121550D01*
X130710000Y-60121550D01*
X131330540Y-59998117D01*
X131856609Y-59646609D01*
X131880628Y-59610662D01*
X132430621Y-59978156D01*
X133043171Y-60100000D01*
X133456829Y-60100000D01*
X134069379Y-59978156D01*
X134764015Y-59514015D01*
X135228156Y-58819379D01*
X135391141Y-58000000D01*
X135228156Y-57180621D01*
X134764015Y-56485985D01*
X134069379Y-56021844D01*
X133456829Y-55900000D01*
X133043171Y-55900000D01*
X132430621Y-56021844D01*
X131880628Y-56389338D01*
X131856609Y-56353391D01*
X131330540Y-56001883D01*
X130710000Y-55878450D01*
X129710000Y-55878450D01*
X129699000Y-55880638D01*
X129699000Y-55531000D01*
X150813256Y-55531000D01*
X150613124Y-55664724D01*
G36*
X134913476Y-74970000D02*
X134560239Y-75498657D01*
X134412777Y-76240000D01*
X134560239Y-76981343D01*
X134913476Y-77510000D01*
X134560239Y-78038657D01*
X134412777Y-78780000D01*
X134560239Y-79521343D01*
X134913476Y-80050000D01*
X134560239Y-80578657D01*
X134412777Y-81320000D01*
X134560239Y-82061343D01*
X134913476Y-82590000D01*
X134560239Y-83118657D01*
X134460786Y-83618642D01*
X133892379Y-83238844D01*
X133279829Y-83117000D01*
X132866171Y-83117000D01*
X132253621Y-83238844D01*
X131703628Y-83606338D01*
X131679609Y-83570391D01*
X131153540Y-83218883D01*
X130533000Y-83095450D01*
X129699000Y-83095450D01*
X129699000Y-75721550D01*
X130650000Y-75721550D01*
X131270540Y-75598117D01*
X131796609Y-75246609D01*
X131820628Y-75210662D01*
X132370621Y-75578156D01*
X132983171Y-75700000D01*
X133396829Y-75700000D01*
X134009379Y-75578156D01*
X134704015Y-75114015D01*
X134856859Y-74885267D01*
X134913476Y-74970000D01*
X134913476Y-74970000D01*
G37*
X134913476Y-74970000D02*
X134560239Y-75498657D01*
X134412777Y-76240000D01*
X134560239Y-76981343D01*
X134913476Y-77510000D01*
X134560239Y-78038657D01*
X134412777Y-78780000D01*
X134560239Y-79521343D01*
X134913476Y-80050000D01*
X134560239Y-80578657D01*
X134412777Y-81320000D01*
X134560239Y-82061343D01*
X134913476Y-82590000D01*
X134560239Y-83118657D01*
X134460786Y-83618642D01*
X133892379Y-83238844D01*
X133279829Y-83117000D01*
X132866171Y-83117000D01*
X132253621Y-83238844D01*
X131703628Y-83606338D01*
X131679609Y-83570391D01*
X131153540Y-83218883D01*
X130533000Y-83095450D01*
X129699000Y-83095450D01*
X129699000Y-75721550D01*
X130650000Y-75721550D01*
X131270540Y-75598117D01*
X131796609Y-75246609D01*
X131820628Y-75210662D01*
X132370621Y-75578156D01*
X132983171Y-75700000D01*
X133396829Y-75700000D01*
X134009379Y-75578156D01*
X134704015Y-75114015D01*
X134856859Y-74885267D01*
X134913476Y-74970000D01*
G36*
X195699700Y-82895511D02*
X195699700Y-83217027D01*
X195196829Y-83117000D01*
X194783171Y-83117000D01*
X194170621Y-83238844D01*
X193620628Y-83606338D01*
X193596609Y-83570391D01*
X193070540Y-83218883D01*
X192450000Y-83095450D01*
X191675000Y-83095450D01*
X191675000Y-78870810D01*
X195699700Y-82895511D01*
X195699700Y-82895511D01*
G37*
X195699700Y-82895511D02*
X195699700Y-83217027D01*
X195196829Y-83117000D01*
X194783171Y-83117000D01*
X194170621Y-83238844D01*
X193620628Y-83606338D01*
X193596609Y-83570391D01*
X193070540Y-83218883D01*
X192450000Y-83095450D01*
X191675000Y-83095450D01*
X191675000Y-78870810D01*
X195699700Y-82895511D01*
G36*
X210970621Y-75578156D02*
X211583171Y-75700000D01*
X211996829Y-75700000D01*
X212609379Y-75578156D01*
X212693001Y-75522282D01*
X212693001Y-83294718D01*
X212609379Y-83238844D01*
X211996829Y-83117000D01*
X211583171Y-83117000D01*
X210970621Y-83238844D01*
X210420628Y-83606338D01*
X210396609Y-83570391D01*
X210225000Y-83455726D01*
X210225000Y-75361274D01*
X210396609Y-75246609D01*
X210420628Y-75210662D01*
X210970621Y-75578156D01*
X210970621Y-75578156D01*
G37*
X210970621Y-75578156D02*
X211583171Y-75700000D01*
X211996829Y-75700000D01*
X212609379Y-75578156D01*
X212693001Y-75522282D01*
X212693001Y-83294718D01*
X212609379Y-83238844D01*
X211996829Y-83117000D01*
X211583171Y-83117000D01*
X210970621Y-83238844D01*
X210420628Y-83606338D01*
X210396609Y-83570391D01*
X210225000Y-83455726D01*
X210225000Y-75361274D01*
X210396609Y-75246609D01*
X210420628Y-75210662D01*
X210970621Y-75578156D01*
G36*
X148586075Y-75503271D02*
X148856824Y-75908476D01*
X149262029Y-76179225D01*
X149619348Y-76250300D01*
X149619349Y-76250300D01*
X149740000Y-76274299D01*
X149860652Y-76250300D01*
X149911089Y-76250300D01*
X149019111Y-77142278D01*
X148916825Y-77210624D01*
X148661028Y-77593452D01*
X148646076Y-77615829D01*
X148551001Y-78093800D01*
X148575001Y-78214455D01*
X148575000Y-83515862D01*
X148398000Y-83397594D01*
X148398000Y-75379315D01*
X148542247Y-75282932D01*
X148586075Y-75503271D01*
X148586075Y-75503271D01*
G37*
X148586075Y-75503271D02*
X148856824Y-75908476D01*
X149262029Y-76179225D01*
X149619348Y-76250300D01*
X149619349Y-76250300D01*
X149740000Y-76274299D01*
X149860652Y-76250300D01*
X149911089Y-76250300D01*
X149019111Y-77142278D01*
X148916825Y-77210624D01*
X148661028Y-77593452D01*
X148646076Y-77615829D01*
X148551001Y-78093800D01*
X148575001Y-78214455D01*
X148575000Y-83515862D01*
X148398000Y-83397594D01*
X148398000Y-75379315D01*
X148542247Y-75282932D01*
X148586075Y-75503271D01*
G36*
X181320878Y-77278589D02*
X181389224Y-77380876D01*
X181705000Y-77591871D01*
X181705000Y-83206147D01*
X181256829Y-83117000D01*
X180843171Y-83117000D01*
X180756000Y-83134339D01*
X180756000Y-76713711D01*
X181320878Y-77278589D01*
X181320878Y-77278589D01*
G37*
X181320878Y-77278589D02*
X181389224Y-77380876D01*
X181705000Y-77591871D01*
X181705000Y-83206147D01*
X181256829Y-83117000D01*
X180843171Y-83117000D01*
X180756000Y-83134339D01*
X180756000Y-76713711D01*
X181320878Y-77278589D01*
G36*
X145948000Y-82951395D02*
X145706524Y-82590000D01*
X145948000Y-82228605D01*
X145948000Y-82951395D01*
X145948000Y-82951395D01*
G37*
X145948000Y-82951395D02*
X145706524Y-82590000D01*
X145948000Y-82228605D01*
X145948000Y-82951395D01*
G36*
X163783171Y-75700000D02*
X164190401Y-75700000D01*
X164190400Y-80602189D01*
X163661600Y-81130989D01*
X163661600Y-75675818D01*
X163783171Y-75700000D01*
X163783171Y-75700000D01*
G37*
X163783171Y-75700000D02*
X164190401Y-75700000D01*
X164190400Y-80602189D01*
X163661600Y-81130989D01*
X163661600Y-75675818D01*
X163783171Y-75700000D01*
G36*
X145948000Y-80411395D02*
X145706524Y-80050000D01*
X145948000Y-79688605D01*
X145948000Y-80411395D01*
X145948000Y-80411395D01*
G37*
X145948000Y-80411395D02*
X145706524Y-80050000D01*
X145948000Y-79688605D01*
X145948000Y-80411395D01*
G36*
X193586076Y-75503271D02*
X193856825Y-75908476D01*
X193959111Y-75976821D01*
X195699700Y-77717412D01*
X195699700Y-78362589D01*
X192957677Y-75620567D01*
X193070540Y-75598117D01*
X193542247Y-75282932D01*
X193586076Y-75503271D01*
X193586076Y-75503271D01*
G37*
X193586076Y-75503271D02*
X193856825Y-75908476D01*
X193959111Y-75976821D01*
X195699700Y-77717412D01*
X195699700Y-78362589D01*
X192957677Y-75620567D01*
X193070540Y-75598117D01*
X193542247Y-75282932D01*
X193586076Y-75503271D01*
G36*
X145948001Y-77871396D02*
X145706524Y-77510000D01*
X145948001Y-77148604D01*
X145948001Y-77871396D01*
X145948001Y-77871396D01*
G37*
X145948001Y-77871396D02*
X145706524Y-77510000D01*
X145948001Y-77148604D01*
X145948001Y-77871396D01*
G36*
X177035001Y-77826080D02*
X176735671Y-77626075D01*
X176676175Y-77614241D01*
X176606524Y-77510000D01*
X176959761Y-76981343D01*
X177035001Y-76603087D01*
X177035001Y-77826080D01*
X177035001Y-77826080D01*
G37*
X177035001Y-77826080D02*
X176735671Y-77626075D01*
X176676175Y-77614241D01*
X176606524Y-77510000D01*
X176959761Y-76981343D01*
X177035001Y-76603087D01*
X177035001Y-77826080D01*
G36*
X177035001Y-75627067D02*
X177035001Y-75876914D01*
X176983256Y-75616774D01*
X177035001Y-75627067D01*
X177035001Y-75627067D01*
G37*
X177035001Y-75627067D02*
X177035001Y-75876914D01*
X176983256Y-75616774D01*
X177035001Y-75627067D01*
G36*
X186773474Y-75272700D02*
X186617561Y-75272700D01*
X186656609Y-75246609D01*
X186680628Y-75210662D01*
X186773474Y-75272700D01*
X186773474Y-75272700D01*
G37*
X186773474Y-75272700D02*
X186617561Y-75272700D01*
X186656609Y-75246609D01*
X186680628Y-75210662D01*
X186773474Y-75272700D01*
G36*
X183011883Y-74720540D02*
X183363391Y-75246609D01*
X183402439Y-75272700D01*
X182779811Y-75272700D01*
X182586890Y-75079780D01*
X182969454Y-74507233D01*
X183011883Y-74720540D01*
X183011883Y-74720540D01*
G37*
X183011883Y-74720540D02*
X183363391Y-75246609D01*
X183402439Y-75272700D01*
X182779811Y-75272700D01*
X182586890Y-75079780D01*
X182969454Y-74507233D01*
X183011883Y-74720540D01*
G36*
X196713476Y-74970000D02*
X196594769Y-75147658D01*
X196526890Y-75079780D01*
X196656859Y-74885267D01*
X196713476Y-74970000D01*
X196713476Y-74970000D01*
G37*
X196713476Y-74970000D02*
X196594769Y-75147658D01*
X196526890Y-75079780D01*
X196656859Y-74885267D01*
X196713476Y-74970000D01*
G36*
X151984776Y-74584266D02*
X151908769Y-74508258D01*
X151955690Y-74438036D01*
X151984776Y-74584266D01*
X151984776Y-74584266D01*
G37*
X151984776Y-74584266D02*
X151908769Y-74508258D01*
X151955690Y-74438036D01*
X151984776Y-74584266D01*
G36*
X171919701Y-69265012D02*
X171919701Y-73863300D01*
X171524568Y-73863300D01*
X171272100Y-73967876D01*
X171272100Y-68617411D01*
X171919701Y-69265012D01*
X171919701Y-69265012D01*
G37*
X171919701Y-69265012D02*
X171919701Y-73863300D01*
X171524568Y-73863300D01*
X171272100Y-73967876D01*
X171272100Y-68617411D01*
X171919701Y-69265012D01*
G36*
X185805624Y-71288024D02*
X185737280Y-71390308D01*
X185626054Y-71501535D01*
X185510000Y-71478450D01*
X184510000Y-71478450D01*
X183889460Y-71601883D01*
X183363391Y-71953391D01*
X183011883Y-72479460D01*
X182969454Y-72692767D01*
X182564015Y-72085985D01*
X182364403Y-71952608D01*
X183170012Y-71147000D01*
X186016682Y-71147000D01*
X185805624Y-71288024D01*
X185805624Y-71288024D01*
G37*
X185805624Y-71288024D02*
X185737280Y-71390308D01*
X185626054Y-71501535D01*
X185510000Y-71478450D01*
X184510000Y-71478450D01*
X183889460Y-71601883D01*
X183363391Y-71953391D01*
X183011883Y-72479460D01*
X182969454Y-72692767D01*
X182564015Y-72085985D01*
X182364403Y-71952608D01*
X183170012Y-71147000D01*
X186016682Y-71147000D01*
X185805624Y-71288024D01*
G36*
X196212777Y-71160000D02*
X196360239Y-71901343D01*
X196467157Y-72061357D01*
X195809379Y-71621844D01*
X195196829Y-71500000D01*
X194783171Y-71500000D01*
X194170621Y-71621844D01*
X193620628Y-71989338D01*
X193596609Y-71953391D01*
X193070540Y-71601883D01*
X192450000Y-71478450D01*
X191810860Y-71478450D01*
X191722723Y-71390313D01*
X191654376Y-71288024D01*
X191443318Y-71147000D01*
X196215363Y-71147000D01*
X196212777Y-71160000D01*
X196212777Y-71160000D01*
G37*
X196212777Y-71160000D02*
X196360239Y-71901343D01*
X196467157Y-72061357D01*
X195809379Y-71621844D01*
X195196829Y-71500000D01*
X194783171Y-71500000D01*
X194170621Y-71621844D01*
X193620628Y-71989338D01*
X193596609Y-71953391D01*
X193070540Y-71601883D01*
X192450000Y-71478450D01*
X191810860Y-71478450D01*
X191722723Y-71390313D01*
X191654376Y-71288024D01*
X191443318Y-71147000D01*
X196215363Y-71147000D01*
X196212777Y-71160000D01*
G36*
X210970621Y-59978156D02*
X211583171Y-60100000D01*
X211996829Y-60100000D01*
X212609379Y-59978156D01*
X212693000Y-59922282D01*
X212693001Y-71677718D01*
X212609379Y-71621844D01*
X211996829Y-71500000D01*
X211583171Y-71500000D01*
X210970621Y-71621844D01*
X210420628Y-71989338D01*
X210396609Y-71953391D01*
X210225000Y-71838726D01*
X210225000Y-59761274D01*
X210396609Y-59646609D01*
X210420628Y-59610662D01*
X210970621Y-59978156D01*
X210970621Y-59978156D01*
G37*
X210970621Y-59978156D02*
X211583171Y-60100000D01*
X211996829Y-60100000D01*
X212609379Y-59978156D01*
X212693000Y-59922282D01*
X212693001Y-71677718D01*
X212609379Y-71621844D01*
X211996829Y-71500000D01*
X211583171Y-71500000D01*
X210970621Y-71621844D01*
X210420628Y-71989338D01*
X210396609Y-71953391D01*
X210225000Y-71838726D01*
X210225000Y-59761274D01*
X210396609Y-59646609D01*
X210420628Y-59610662D01*
X210970621Y-59978156D01*
G36*
X164414200Y-70989399D02*
X164470733Y-70978154D01*
X164335195Y-71181001D01*
X164261476Y-71291329D01*
X164219088Y-71504428D01*
X164196829Y-71500000D01*
X163783171Y-71500000D01*
X163170621Y-71621844D01*
X163112794Y-71660483D01*
X162417710Y-70965400D01*
X164293550Y-70965400D01*
X164414200Y-70989399D01*
X164414200Y-70989399D01*
G37*
X164414200Y-70989399D02*
X164470733Y-70978154D01*
X164335195Y-71181001D01*
X164261476Y-71291329D01*
X164219088Y-71504428D01*
X164196829Y-71500000D01*
X163783171Y-71500000D01*
X163170621Y-71621844D01*
X163112794Y-71660483D01*
X162417710Y-70965400D01*
X164293550Y-70965400D01*
X164414200Y-70989399D01*
G36*
X177035001Y-71572933D02*
X177024677Y-71574987D01*
X177035001Y-71523086D01*
X177035001Y-71572933D01*
X177035001Y-71572933D01*
G37*
X177035001Y-71572933D02*
X177024677Y-71574987D01*
X177035001Y-71523086D01*
X177035001Y-71572933D01*
G36*
X197567439Y-66698450D02*
X197350000Y-66698450D01*
X196920801Y-66783823D01*
X196556944Y-67026944D01*
X196313823Y-67390801D01*
X196228450Y-67820000D01*
X196228450Y-68697000D01*
X182783250Y-68697000D01*
X182662599Y-68673001D01*
X182541949Y-68697000D01*
X182541948Y-68697000D01*
X182184629Y-68768075D01*
X181779424Y-69038824D01*
X181711080Y-69141108D01*
X179485000Y-71367189D01*
X179485000Y-61397410D01*
X181657412Y-59225000D01*
X183411681Y-59225000D01*
X183693391Y-59646609D01*
X184219460Y-59998117D01*
X184840000Y-60121550D01*
X185840000Y-60121550D01*
X186460540Y-59998117D01*
X186986609Y-59646609D01*
X187010628Y-59610662D01*
X187560621Y-59978156D01*
X188173171Y-60100000D01*
X188586829Y-60100000D01*
X189199379Y-59978156D01*
X189894015Y-59514015D01*
X190089877Y-59220887D01*
X197567439Y-66698450D01*
X197567439Y-66698450D01*
G37*
X197567439Y-66698450D02*
X197350000Y-66698450D01*
X196920801Y-66783823D01*
X196556944Y-67026944D01*
X196313823Y-67390801D01*
X196228450Y-67820000D01*
X196228450Y-68697000D01*
X182783250Y-68697000D01*
X182662599Y-68673001D01*
X182541949Y-68697000D01*
X182541948Y-68697000D01*
X182184629Y-68768075D01*
X181779424Y-69038824D01*
X181711080Y-69141108D01*
X179485000Y-71367189D01*
X179485000Y-61397410D01*
X181657412Y-59225000D01*
X183411681Y-59225000D01*
X183693391Y-59646609D01*
X184219460Y-59998117D01*
X184840000Y-60121550D01*
X185840000Y-60121550D01*
X186460540Y-59998117D01*
X186986609Y-59646609D01*
X187010628Y-59610662D01*
X187560621Y-59978156D01*
X188173171Y-60100000D01*
X188586829Y-60100000D01*
X189199379Y-59978156D01*
X189894015Y-59514015D01*
X190089877Y-59220887D01*
X197567439Y-66698450D01*
G36*
X177035001Y-70796914D02*
X176959761Y-70418657D01*
X176606524Y-69890000D01*
X176959761Y-69361343D01*
X177035001Y-68983087D01*
X177035001Y-70796914D01*
X177035001Y-70796914D01*
G37*
X177035001Y-70796914D02*
X176959761Y-70418657D01*
X176606524Y-69890000D01*
X176959761Y-69361343D01*
X177035001Y-68983087D01*
X177035001Y-70796914D01*
G36*
X145707071Y-69890818D02*
X145706524Y-69890000D01*
X145755084Y-69817325D01*
X145786891Y-69810998D01*
X145707071Y-69890818D01*
X145707071Y-69890818D01*
G37*
X145707071Y-69890818D02*
X145706524Y-69890000D01*
X145755084Y-69817325D01*
X145786891Y-69810998D01*
X145707071Y-69890818D01*
G36*
X212451810Y-55565109D02*
X212547996Y-55617009D01*
X212622186Y-55697267D01*
X212675935Y-55818845D01*
X212693000Y-55953926D01*
X212693000Y-56077718D01*
X212609379Y-56021844D01*
X211996829Y-55900000D01*
X211583171Y-55900000D01*
X210970621Y-56021844D01*
X210420628Y-56389338D01*
X210396609Y-56353391D01*
X209870540Y-56001883D01*
X209250000Y-55878450D01*
X208250000Y-55878450D01*
X207629460Y-56001883D01*
X207103391Y-56353391D01*
X206751883Y-56879460D01*
X206628450Y-57500000D01*
X206628450Y-58500000D01*
X206751883Y-59120540D01*
X207103391Y-59646609D01*
X207629460Y-59998117D01*
X207775001Y-60027067D01*
X207775000Y-67467231D01*
X207773271Y-67466075D01*
X207555084Y-67422675D01*
X207439824Y-67250176D01*
X206811343Y-66830239D01*
X206257133Y-66720000D01*
X205269700Y-66720000D01*
X205269700Y-63240650D01*
X205293699Y-63120000D01*
X205245608Y-62878229D01*
X205198625Y-62642029D01*
X204927876Y-62236824D01*
X204825589Y-62168478D01*
X202136890Y-59479780D01*
X202578156Y-58819379D01*
X202741141Y-58000000D01*
X202578156Y-57180621D01*
X202114015Y-56485985D01*
X201419379Y-56021844D01*
X200806829Y-55900000D01*
X200393171Y-55900000D01*
X199780621Y-56021844D01*
X199230628Y-56389338D01*
X199206609Y-56353391D01*
X198680540Y-56001883D01*
X198060000Y-55878450D01*
X197060000Y-55878450D01*
X196439460Y-56001883D01*
X195913391Y-56353391D01*
X195561883Y-56879460D01*
X195438450Y-57500000D01*
X195438450Y-58500000D01*
X195561883Y-59120540D01*
X195913391Y-59646609D01*
X196439460Y-59998117D01*
X197060000Y-60121550D01*
X198060000Y-60121550D01*
X198680540Y-59998117D01*
X199152247Y-59682932D01*
X199196076Y-59903271D01*
X199466825Y-60308476D01*
X199569112Y-60376822D01*
X202819701Y-63627412D01*
X202819700Y-68502416D01*
X202718076Y-68350324D01*
X202615789Y-68281978D01*
X190100824Y-55767014D01*
X190032476Y-55664724D01*
X189832344Y-55531000D01*
X212246883Y-55531000D01*
X212451810Y-55565109D01*
X212451810Y-55565109D01*
G37*
X212451810Y-55565109D02*
X212547996Y-55617009D01*
X212622186Y-55697267D01*
X212675935Y-55818845D01*
X212693000Y-55953926D01*
X212693000Y-56077718D01*
X212609379Y-56021844D01*
X211996829Y-55900000D01*
X211583171Y-55900000D01*
X210970621Y-56021844D01*
X210420628Y-56389338D01*
X210396609Y-56353391D01*
X209870540Y-56001883D01*
X209250000Y-55878450D01*
X208250000Y-55878450D01*
X207629460Y-56001883D01*
X207103391Y-56353391D01*
X206751883Y-56879460D01*
X206628450Y-57500000D01*
X206628450Y-58500000D01*
X206751883Y-59120540D01*
X207103391Y-59646609D01*
X207629460Y-59998117D01*
X207775001Y-60027067D01*
X207775000Y-67467231D01*
X207773271Y-67466075D01*
X207555084Y-67422675D01*
X207439824Y-67250176D01*
X206811343Y-66830239D01*
X206257133Y-66720000D01*
X205269700Y-66720000D01*
X205269700Y-63240650D01*
X205293699Y-63120000D01*
X205245608Y-62878229D01*
X205198625Y-62642029D01*
X204927876Y-62236824D01*
X204825589Y-62168478D01*
X202136890Y-59479780D01*
X202578156Y-58819379D01*
X202741141Y-58000000D01*
X202578156Y-57180621D01*
X202114015Y-56485985D01*
X201419379Y-56021844D01*
X200806829Y-55900000D01*
X200393171Y-55900000D01*
X199780621Y-56021844D01*
X199230628Y-56389338D01*
X199206609Y-56353391D01*
X198680540Y-56001883D01*
X198060000Y-55878450D01*
X197060000Y-55878450D01*
X196439460Y-56001883D01*
X195913391Y-56353391D01*
X195561883Y-56879460D01*
X195438450Y-57500000D01*
X195438450Y-58500000D01*
X195561883Y-59120540D01*
X195913391Y-59646609D01*
X196439460Y-59998117D01*
X197060000Y-60121550D01*
X198060000Y-60121550D01*
X198680540Y-59998117D01*
X199152247Y-59682932D01*
X199196076Y-59903271D01*
X199466825Y-60308476D01*
X199569112Y-60376822D01*
X202819701Y-63627412D01*
X202819700Y-68502416D01*
X202718076Y-68350324D01*
X202615789Y-68281978D01*
X190100824Y-55767014D01*
X190032476Y-55664724D01*
X189832344Y-55531000D01*
X212246883Y-55531000D01*
X212451810Y-55565109D01*
G36*
X172998450Y-58500000D02*
X173121883Y-59120540D01*
X173473391Y-59646609D01*
X173999460Y-59998117D01*
X174620000Y-60121550D01*
X175620000Y-60121550D01*
X175736054Y-60098465D01*
X177035000Y-61397412D01*
X177035001Y-68256913D01*
X176959761Y-67878657D01*
X176539824Y-67250176D01*
X175911343Y-66830239D01*
X175357133Y-66720000D01*
X174182867Y-66720000D01*
X173628657Y-66830239D01*
X173221682Y-67102171D01*
X168063624Y-61944114D01*
X167995276Y-61841824D01*
X167590071Y-61571075D01*
X167232752Y-61500000D01*
X167232750Y-61500000D01*
X167112100Y-61476001D01*
X166991450Y-61500000D01*
X148276611Y-61500000D01*
X150677600Y-59099010D01*
X150681883Y-59120540D01*
X151033391Y-59646609D01*
X151559460Y-59998117D01*
X152180000Y-60121550D01*
X153180000Y-60121550D01*
X153296055Y-60098465D01*
X153408278Y-60210689D01*
X153476624Y-60312976D01*
X153752904Y-60497580D01*
X153881828Y-60583725D01*
X154359800Y-60678799D01*
X154480452Y-60654800D01*
X162599550Y-60654800D01*
X162720200Y-60678799D01*
X162840850Y-60654800D01*
X162840852Y-60654800D01*
X163198171Y-60583725D01*
X163603376Y-60312976D01*
X163671724Y-60210687D01*
X163760860Y-60121550D01*
X164400000Y-60121550D01*
X165020540Y-59998117D01*
X165546609Y-59646609D01*
X165570628Y-59610662D01*
X166120621Y-59978156D01*
X166733171Y-60100000D01*
X167146829Y-60100000D01*
X167759379Y-59978156D01*
X168454015Y-59514015D01*
X168918156Y-58819379D01*
X169081141Y-58000000D01*
X169035968Y-57772900D01*
X172998450Y-57772900D01*
X172998450Y-58500000D01*
X172998450Y-58500000D01*
G37*
X172998450Y-58500000D02*
X173121883Y-59120540D01*
X173473391Y-59646609D01*
X173999460Y-59998117D01*
X174620000Y-60121550D01*
X175620000Y-60121550D01*
X175736054Y-60098465D01*
X177035000Y-61397412D01*
X177035001Y-68256913D01*
X176959761Y-67878657D01*
X176539824Y-67250176D01*
X175911343Y-66830239D01*
X175357133Y-66720000D01*
X174182867Y-66720000D01*
X173628657Y-66830239D01*
X173221682Y-67102171D01*
X168063624Y-61944114D01*
X167995276Y-61841824D01*
X167590071Y-61571075D01*
X167232752Y-61500000D01*
X167232750Y-61500000D01*
X167112100Y-61476001D01*
X166991450Y-61500000D01*
X148276611Y-61500000D01*
X150677600Y-59099010D01*
X150681883Y-59120540D01*
X151033391Y-59646609D01*
X151559460Y-59998117D01*
X152180000Y-60121550D01*
X153180000Y-60121550D01*
X153296055Y-60098465D01*
X153408278Y-60210689D01*
X153476624Y-60312976D01*
X153752904Y-60497580D01*
X153881828Y-60583725D01*
X154359800Y-60678799D01*
X154480452Y-60654800D01*
X162599550Y-60654800D01*
X162720200Y-60678799D01*
X162840850Y-60654800D01*
X162840852Y-60654800D01*
X163198171Y-60583725D01*
X163603376Y-60312976D01*
X163671724Y-60210687D01*
X163760860Y-60121550D01*
X164400000Y-60121550D01*
X165020540Y-59998117D01*
X165546609Y-59646609D01*
X165570628Y-59610662D01*
X166120621Y-59978156D01*
X166733171Y-60100000D01*
X167146829Y-60100000D01*
X167759379Y-59978156D01*
X168454015Y-59514015D01*
X168918156Y-58819379D01*
X169081141Y-58000000D01*
X169035968Y-57772900D01*
X172998450Y-57772900D01*
X172998450Y-58500000D01*
G36*
X144270301Y-66720000D02*
X143282867Y-66720000D01*
X143000430Y-66776180D01*
X144270300Y-65506310D01*
X144270301Y-66720000D01*
X144270301Y-66720000D01*
G37*
X144270301Y-66720000D02*
X143282867Y-66720000D01*
X143000430Y-66776180D01*
X144270300Y-65506310D01*
X144270301Y-66720000D01*
G36*
X168807690Y-66153000D02*
X166399050Y-66153000D01*
X166278400Y-66129001D01*
X166157750Y-66153000D01*
X166157748Y-66153000D01*
X165807143Y-66222740D01*
X165807143Y-63950000D01*
X166604690Y-63950000D01*
X168807690Y-66153000D01*
X168807690Y-66153000D01*
G37*
X168807690Y-66153000D02*
X166399050Y-66153000D01*
X166278400Y-66129001D01*
X166157750Y-66153000D01*
X166157748Y-66153000D01*
X165807143Y-66222740D01*
X165807143Y-63950000D01*
X166604690Y-63950000D01*
X168807690Y-66153000D01*
G36*
X161778450Y-58204800D02*
X157820404Y-58204800D01*
X157861141Y-58000000D01*
X157815968Y-57772900D01*
X161778450Y-57772900D01*
X161778450Y-58204800D01*
X161778450Y-58204800D01*
G37*
X161778450Y-58204800D02*
X157820404Y-58204800D01*
X157861141Y-58000000D01*
X157815968Y-57772900D01*
X161778450Y-57772900D01*
X161778450Y-58204800D01*
M02*
