G04 #@! TF.GenerationSoftware,KiCad,Pcbnew,(5.0.0)*
G04 #@! TF.CreationDate,2019-09-06T11:34:28-04:00*
G04 #@! TF.ProjectId,MiniTempleT,4D696E6954656D706C65542E6B696361,rev?*
G04 #@! TF.SameCoordinates,Original*
G04 #@! TF.FileFunction,Legend,Top*
G04 #@! TF.FilePolarity,Positive*
%FSLAX46Y46*%
G04 Gerber Fmt 4.6, Leading zero omitted, Abs format (unit mm)*
G04 Created by KiCad (PCBNEW (5.0.0)) date 09/06/19 11:34:28*
%MOMM*%
%LPD*%
G01*
G04 APERTURE LIST*
%ADD10C,0.300000*%
%ADD11C,0.120000*%
%ADD12C,0.250000*%
%ADD13C,0.010000*%
%ADD14C,0.150000*%
G04 APERTURE END LIST*
D10*
X163178571Y-91178571D02*
X163464285Y-91178571D01*
X163607142Y-91250000D01*
X163750000Y-91392857D01*
X163821428Y-91678571D01*
X163821428Y-92178571D01*
X163750000Y-92464285D01*
X163607142Y-92607142D01*
X163464285Y-92678571D01*
X163178571Y-92678571D01*
X163035714Y-92607142D01*
X162892857Y-92464285D01*
X162821428Y-92178571D01*
X162821428Y-91678571D01*
X162892857Y-91392857D01*
X163035714Y-91250000D01*
X163178571Y-91178571D01*
X164464285Y-91678571D02*
X164464285Y-92678571D01*
X164464285Y-91821428D02*
X164535714Y-91750000D01*
X164678571Y-91678571D01*
X164892857Y-91678571D01*
X165035714Y-91750000D01*
X165107142Y-91892857D01*
X165107142Y-92678571D01*
X177600000Y-91278571D02*
X177885714Y-91278571D01*
X178028571Y-91350000D01*
X178171428Y-91492857D01*
X178242857Y-91778571D01*
X178242857Y-92278571D01*
X178171428Y-92564285D01*
X178028571Y-92707142D01*
X177885714Y-92778571D01*
X177600000Y-92778571D01*
X177457142Y-92707142D01*
X177314285Y-92564285D01*
X177242857Y-92278571D01*
X177242857Y-91778571D01*
X177314285Y-91492857D01*
X177457142Y-91350000D01*
X177600000Y-91278571D01*
X178671428Y-91778571D02*
X179242857Y-91778571D01*
X178885714Y-92778571D02*
X178885714Y-91492857D01*
X178957142Y-91350000D01*
X179100000Y-91278571D01*
X179242857Y-91278571D01*
X179528571Y-91778571D02*
X180100000Y-91778571D01*
X179742857Y-92778571D02*
X179742857Y-91492857D01*
X179814285Y-91350000D01*
X179957142Y-91278571D01*
X180100000Y-91278571D01*
D11*
G04 #@! TO.C,D17*
X176970000Y-83577000D02*
X176970000Y-86857000D01*
X182030000Y-85217000D02*
G75*
G03X182030000Y-85217000I-2500000J0D01*
G01*
X182569999Y-85215042D02*
G75*
G02X176970000Y-86856512I-3039999J-1958D01*
G01*
X182569999Y-85218958D02*
G75*
G03X176970000Y-83577488I-3039999J1958D01*
G01*
G04 #@! TO.C,BTN1*
X181615000Y-141840000D02*
X186115000Y-141840000D01*
X180365000Y-137840000D02*
X180365000Y-139340000D01*
X186115000Y-135340000D02*
X181615000Y-135340000D01*
X187365000Y-139340000D02*
X187365000Y-137840000D01*
D12*
G04 #@! TO.C,Battery1*
X182196000Y-105169000D02*
G75*
G03X182196000Y-105169000I-11000000J0D01*
G01*
X174696000Y-117669000D02*
X174696000Y-115669000D01*
X174196000Y-117669000D02*
X174696000Y-117669000D01*
X171196000Y-117669000D02*
X174196000Y-117669000D01*
X167696000Y-117669000D02*
X167696000Y-115669000D01*
X171196000Y-117669000D02*
X167696000Y-117669000D01*
D11*
G04 #@! TO.C,Power1*
X173669000Y-104467000D02*
X173669000Y-101807000D01*
X171069000Y-104467000D02*
X173669000Y-104467000D01*
X171069000Y-101807000D02*
X173669000Y-101807000D01*
X171069000Y-104467000D02*
X171069000Y-101807000D01*
X169799000Y-104467000D02*
X168469000Y-104467000D01*
X168469000Y-104467000D02*
X168469000Y-103137000D01*
G04 #@! TO.C,D1*
X128993000Y-83577000D02*
X128993000Y-86857000D01*
X134053000Y-85217000D02*
G75*
G03X134053000Y-85217000I-2500000J0D01*
G01*
X134592999Y-85215042D02*
G75*
G02X128993000Y-86856512I-3039999J-1958D01*
G01*
X134592999Y-85218958D02*
G75*
G03X128993000Y-83577488I-3039999J1958D01*
G01*
G04 #@! TO.C,D2*
X129110000Y-71960000D02*
X129110000Y-75240000D01*
X134170000Y-73600000D02*
G75*
G03X134170000Y-73600000I-2500000J0D01*
G01*
X134709999Y-73598042D02*
G75*
G02X129110000Y-75239512I-3039999J-1958D01*
G01*
X134709999Y-73601958D02*
G75*
G03X129110000Y-71960488I-3039999J1958D01*
G01*
G04 #@! TO.C,D3*
X129170000Y-56360000D02*
X129170000Y-59640000D01*
X134230000Y-58000000D02*
G75*
G03X134230000Y-58000000I-2500000J0D01*
G01*
X134769999Y-57998042D02*
G75*
G02X129170000Y-59639512I-3039999J-1958D01*
G01*
X134769999Y-58001958D02*
G75*
G03X129170000Y-56360488I-3039999J1958D01*
G01*
G04 #@! TO.C,D4*
X140420000Y-56360000D02*
X140420000Y-59640000D01*
X145480000Y-58000000D02*
G75*
G03X145480000Y-58000000I-2500000J0D01*
G01*
X146019999Y-57998042D02*
G75*
G02X140420000Y-59639512I-3039999J-1958D01*
G01*
X146019999Y-58001958D02*
G75*
G03X140420000Y-56360488I-3039999J1958D01*
G01*
G04 #@! TO.C,D5*
X151640000Y-56360000D02*
X151640000Y-59640000D01*
X156700000Y-58000000D02*
G75*
G03X156700000Y-58000000I-2500000J0D01*
G01*
X157239999Y-57998042D02*
G75*
G02X151640000Y-59639512I-3039999J-1958D01*
G01*
X157239999Y-58001958D02*
G75*
G03X151640000Y-56360488I-3039999J1958D01*
G01*
G04 #@! TO.C,D6*
X162860000Y-56360000D02*
X162860000Y-59640000D01*
X167920000Y-58000000D02*
G75*
G03X167920000Y-58000000I-2500000J0D01*
G01*
X168459999Y-57998042D02*
G75*
G02X162860000Y-59639512I-3039999J-1958D01*
G01*
X168459999Y-58001958D02*
G75*
G03X162860000Y-56360488I-3039999J1958D01*
G01*
G04 #@! TO.C,D7*
X174080000Y-56360000D02*
X174080000Y-59640000D01*
X179140000Y-58000000D02*
G75*
G03X179140000Y-58000000I-2500000J0D01*
G01*
X179679999Y-57998042D02*
G75*
G02X174080000Y-59639512I-3039999J-1958D01*
G01*
X179679999Y-58001958D02*
G75*
G03X174080000Y-56360488I-3039999J1958D01*
G01*
G04 #@! TO.C,D8*
X184300000Y-56360000D02*
X184300000Y-59640000D01*
X189360000Y-58000000D02*
G75*
G03X189360000Y-58000000I-2500000J0D01*
G01*
X189899999Y-57998042D02*
G75*
G02X184300000Y-59639512I-3039999J-1958D01*
G01*
X189899999Y-58001958D02*
G75*
G03X184300000Y-56360488I-3039999J1958D01*
G01*
G04 #@! TO.C,D9*
X196520000Y-56360000D02*
X196520000Y-59640000D01*
X201580000Y-58000000D02*
G75*
G03X201580000Y-58000000I-2500000J0D01*
G01*
X202119999Y-57998042D02*
G75*
G02X196520000Y-59639512I-3039999J-1958D01*
G01*
X202119999Y-58001958D02*
G75*
G03X196520000Y-56360488I-3039999J1958D01*
G01*
G04 #@! TO.C,D10*
X207710000Y-56360000D02*
X207710000Y-59640000D01*
X212770000Y-58000000D02*
G75*
G03X212770000Y-58000000I-2500000J0D01*
G01*
X213309999Y-57998042D02*
G75*
G02X207710000Y-59639512I-3039999J-1958D01*
G01*
X213309999Y-58001958D02*
G75*
G03X207710000Y-56360488I-3039999J1958D01*
G01*
G04 #@! TO.C,D11*
X207710000Y-71960000D02*
X207710000Y-75240000D01*
X212770000Y-73600000D02*
G75*
G03X212770000Y-73600000I-2500000J0D01*
G01*
X213309999Y-73598042D02*
G75*
G02X207710000Y-75239512I-3039999J-1958D01*
G01*
X213309999Y-73601958D02*
G75*
G03X207710000Y-71960488I-3039999J1958D01*
G01*
G04 #@! TO.C,D12*
X207710000Y-83577000D02*
X207710000Y-86857000D01*
X212770000Y-85217000D02*
G75*
G03X212770000Y-85217000I-2500000J0D01*
G01*
X213309999Y-85215042D02*
G75*
G02X207710000Y-86856512I-3039999J-1958D01*
G01*
X213309999Y-85218958D02*
G75*
G03X207710000Y-83577488I-3039999J1958D01*
G01*
G04 #@! TO.C,D13*
X190910000Y-83577000D02*
X190910000Y-86857000D01*
X195970000Y-85217000D02*
G75*
G03X195970000Y-85217000I-2500000J0D01*
G01*
X196509999Y-85215042D02*
G75*
G02X190910000Y-86856512I-3039999J-1958D01*
G01*
X196509999Y-85218958D02*
G75*
G03X190910000Y-83577488I-3039999J1958D01*
G01*
G04 #@! TO.C,D14*
X190910000Y-71960000D02*
X190910000Y-75240000D01*
X195970000Y-73600000D02*
G75*
G03X195970000Y-73600000I-2500000J0D01*
G01*
X196509999Y-73598042D02*
G75*
G02X190910000Y-75239512I-3039999J-1958D01*
G01*
X196509999Y-73601958D02*
G75*
G03X190910000Y-71960488I-3039999J1958D01*
G01*
G04 #@! TO.C,D15*
X183970000Y-71960000D02*
X183970000Y-75240000D01*
X189030000Y-73600000D02*
G75*
G03X189030000Y-73600000I-2500000J0D01*
G01*
X189569999Y-73598042D02*
G75*
G02X183970000Y-75239512I-3039999J-1958D01*
G01*
X189569999Y-73601958D02*
G75*
G03X183970000Y-71960488I-3039999J1958D01*
G01*
G04 #@! TO.C,D16*
X176970000Y-71960000D02*
X176970000Y-75240000D01*
X182030000Y-73600000D02*
G75*
G03X182030000Y-73600000I-2500000J0D01*
G01*
X182569999Y-73598042D02*
G75*
G02X176970000Y-75239512I-3039999J-1958D01*
G01*
X182569999Y-73601958D02*
G75*
G03X176970000Y-71960488I-3039999J1958D01*
G01*
G04 #@! TO.C,D18*
X176970000Y-118760000D02*
X176970000Y-122040000D01*
X182030000Y-120400000D02*
G75*
G03X182030000Y-120400000I-2500000J0D01*
G01*
X182569999Y-120398042D02*
G75*
G02X176970000Y-122039512I-3039999J-1958D01*
G01*
X182569999Y-120401958D02*
G75*
G03X176970000Y-118760488I-3039999J1958D01*
G01*
G04 #@! TO.C,D19*
X176970000Y-128260000D02*
X176970000Y-131540000D01*
X182030000Y-129900000D02*
G75*
G03X182030000Y-129900000I-2500000J0D01*
G01*
X182569999Y-129898042D02*
G75*
G02X176970000Y-131539512I-3039999J-1958D01*
G01*
X182569999Y-129901958D02*
G75*
G03X176970000Y-128260488I-3039999J1958D01*
G01*
G04 #@! TO.C,D20*
X186510000Y-128260000D02*
X186510000Y-131540000D01*
X191570000Y-129900000D02*
G75*
G03X191570000Y-129900000I-2500000J0D01*
G01*
X192109999Y-129898042D02*
G75*
G02X186510000Y-131539512I-3039999J-1958D01*
G01*
X192109999Y-129901958D02*
G75*
G03X186510000Y-128260488I-3039999J1958D01*
G01*
G04 #@! TO.C,D21*
X186510000Y-145060000D02*
X186510000Y-148340000D01*
X191570000Y-146700000D02*
G75*
G03X191570000Y-146700000I-2500000J0D01*
G01*
X192109999Y-146698042D02*
G75*
G02X186510000Y-148339512I-3039999J-1958D01*
G01*
X192109999Y-146701958D02*
G75*
G03X186510000Y-145060488I-3039999J1958D01*
G01*
G04 #@! TO.C,D22*
X174510000Y-145060000D02*
X174510000Y-148340000D01*
X179570000Y-146700000D02*
G75*
G03X179570000Y-146700000I-2500000J0D01*
G01*
X180109999Y-146698042D02*
G75*
G02X174510000Y-148339512I-3039999J-1958D01*
G01*
X180109999Y-146701958D02*
G75*
G03X174510000Y-145060488I-3039999J1958D01*
G01*
G04 #@! TO.C,D23*
X162510000Y-145060000D02*
X162510000Y-148340000D01*
X167570000Y-146700000D02*
G75*
G03X167570000Y-146700000I-2500000J0D01*
G01*
X168109999Y-146698042D02*
G75*
G02X162510000Y-148339512I-3039999J-1958D01*
G01*
X168109999Y-146701958D02*
G75*
G03X162510000Y-145060488I-3039999J1958D01*
G01*
G04 #@! TO.C,D24*
X150510000Y-145060000D02*
X150510000Y-148340000D01*
X155570000Y-146700000D02*
G75*
G03X155570000Y-146700000I-2500000J0D01*
G01*
X156109999Y-146698042D02*
G75*
G02X150510000Y-148339512I-3039999J-1958D01*
G01*
X156109999Y-146701958D02*
G75*
G03X150510000Y-145060488I-3039999J1958D01*
G01*
G04 #@! TO.C,D25*
X150510000Y-128260000D02*
X150510000Y-131540000D01*
X155570000Y-129900000D02*
G75*
G03X155570000Y-129900000I-2500000J0D01*
G01*
X156109999Y-129898042D02*
G75*
G02X150510000Y-131539512I-3039999J-1958D01*
G01*
X156109999Y-129901958D02*
G75*
G03X150510000Y-128260488I-3039999J1958D01*
G01*
G04 #@! TO.C,D26*
X159910000Y-128260000D02*
X159910000Y-131540000D01*
X164970000Y-129900000D02*
G75*
G03X164970000Y-129900000I-2500000J0D01*
G01*
X165509999Y-129898042D02*
G75*
G02X159910000Y-131539512I-3039999J-1958D01*
G01*
X165509999Y-129901958D02*
G75*
G03X159910000Y-128260488I-3039999J1958D01*
G01*
G04 #@! TO.C,D27*
X159910000Y-118760000D02*
X159910000Y-122040000D01*
X164970000Y-120400000D02*
G75*
G03X164970000Y-120400000I-2500000J0D01*
G01*
X165509999Y-120398042D02*
G75*
G02X159910000Y-122039512I-3039999J-1958D01*
G01*
X165509999Y-120401958D02*
G75*
G03X159910000Y-118760488I-3039999J1958D01*
G01*
G04 #@! TO.C,D28*
X159910000Y-83577000D02*
X159910000Y-86857000D01*
X164970000Y-85217000D02*
G75*
G03X164970000Y-85217000I-2500000J0D01*
G01*
X165509999Y-85215042D02*
G75*
G02X159910000Y-86856512I-3039999J-1958D01*
G01*
X165509999Y-85218958D02*
G75*
G03X159910000Y-83577488I-3039999J1958D01*
G01*
G04 #@! TO.C,D29*
X159910000Y-71960000D02*
X159910000Y-75240000D01*
X164970000Y-73600000D02*
G75*
G03X164970000Y-73600000I-2500000J0D01*
G01*
X165509999Y-73598042D02*
G75*
G02X159910000Y-75239512I-3039999J-1958D01*
G01*
X165509999Y-73601958D02*
G75*
G03X159910000Y-71960488I-3039999J1958D01*
G01*
G04 #@! TO.C,D30*
X152970000Y-71960000D02*
X152970000Y-75240000D01*
X158030000Y-73600000D02*
G75*
G03X158030000Y-73600000I-2500000J0D01*
G01*
X158569999Y-73598042D02*
G75*
G02X152970000Y-75239512I-3039999J-1958D01*
G01*
X158569999Y-73601958D02*
G75*
G03X152970000Y-71960488I-3039999J1958D01*
G01*
G04 #@! TO.C,D31*
X145910000Y-71960000D02*
X145910000Y-75240000D01*
X150970000Y-73600000D02*
G75*
G03X150970000Y-73600000I-2500000J0D01*
G01*
X151509999Y-73598042D02*
G75*
G02X145910000Y-75239512I-3039999J-1958D01*
G01*
X151509999Y-73601958D02*
G75*
G03X145910000Y-71960488I-3039999J1958D01*
G01*
G04 #@! TO.C,D32*
X145970000Y-83577000D02*
X145970000Y-86857000D01*
X151030000Y-85217000D02*
G75*
G03X151030000Y-85217000I-2500000J0D01*
G01*
X151569999Y-85215042D02*
G75*
G02X145970000Y-86856512I-3039999J-1958D01*
G01*
X151569999Y-85218958D02*
G75*
G03X145970000Y-83577488I-3039999J1958D01*
G01*
G04 #@! TO.C,POWER1*
X176380000Y-93370000D02*
X176380000Y-90710000D01*
X168700000Y-93370000D02*
X176380000Y-93370000D01*
X168700000Y-90710000D02*
X176380000Y-90710000D01*
X168700000Y-93370000D02*
X168700000Y-90710000D01*
X167430000Y-93370000D02*
X166100000Y-93370000D01*
X166100000Y-93370000D02*
X166100000Y-92040000D01*
G04 #@! TO.C,Shift1*
X142560000Y-67290000D02*
X141310000Y-67290000D01*
X142560000Y-87730000D02*
X142560000Y-67290000D01*
X138060000Y-87730000D02*
X142560000Y-87730000D01*
X138060000Y-67290000D02*
X138060000Y-87730000D01*
X139310000Y-67290000D02*
X138060000Y-67290000D01*
X141310000Y-67290000D02*
G75*
G02X139310000Y-67290000I-1000000J0D01*
G01*
G04 #@! TO.C,Shift2*
X204360000Y-67290000D02*
X203110000Y-67290000D01*
X204360000Y-87730000D02*
X204360000Y-67290000D01*
X199860000Y-87730000D02*
X204360000Y-87730000D01*
X199860000Y-67290000D02*
X199860000Y-87730000D01*
X201110000Y-67290000D02*
X199860000Y-67290000D01*
X203110000Y-67290000D02*
G75*
G02X201110000Y-67290000I-1000000J0D01*
G01*
G04 #@! TO.C,Shift4*
X173460000Y-67290000D02*
X172210000Y-67290000D01*
X173460000Y-87730000D02*
X173460000Y-67290000D01*
X168960000Y-87730000D02*
X173460000Y-87730000D01*
X168960000Y-67290000D02*
X168960000Y-87730000D01*
X170210000Y-67290000D02*
X168960000Y-67290000D01*
X172210000Y-67290000D02*
G75*
G02X170210000Y-67290000I-1000000J0D01*
G01*
G04 #@! TO.C,Tiny1*
X172210000Y-120970000D02*
G75*
G02X170210000Y-120970000I-1000000J0D01*
G01*
X170210000Y-120970000D02*
X168960000Y-120970000D01*
X168960000Y-120970000D02*
X168960000Y-131250000D01*
X168960000Y-131250000D02*
X173460000Y-131250000D01*
X173460000Y-131250000D02*
X173460000Y-120970000D01*
X173460000Y-120970000D02*
X172210000Y-120970000D01*
D13*
G04 #@! TO.C,G2*
G36*
X193012687Y-63373589D02*
X193052626Y-63392372D01*
X193089733Y-63415274D01*
X193143872Y-63451912D01*
X193209930Y-63498525D01*
X193282794Y-63551354D01*
X193357352Y-63606638D01*
X193428491Y-63660616D01*
X193491098Y-63709529D01*
X193540061Y-63749617D01*
X193549881Y-63758091D01*
X193587974Y-63791005D01*
X193636215Y-63832057D01*
X193676041Y-63865555D01*
X193752124Y-63931225D01*
X193843692Y-64013688D01*
X193946874Y-64109196D01*
X194057801Y-64214002D01*
X194172605Y-64324355D01*
X194287416Y-64436510D01*
X194398364Y-64546716D01*
X194501581Y-64651227D01*
X194593197Y-64746293D01*
X194666569Y-64825111D01*
X194759612Y-64929337D01*
X194850912Y-65035088D01*
X194937860Y-65139090D01*
X195017846Y-65238070D01*
X195088261Y-65328753D01*
X195146497Y-65407867D01*
X195189945Y-65472136D01*
X195211135Y-65508396D01*
X195241358Y-65593216D01*
X195250005Y-65684164D01*
X195236946Y-65772309D01*
X195215771Y-65825767D01*
X195176299Y-65893860D01*
X195122747Y-65975933D01*
X195059878Y-66064956D01*
X194999910Y-66144384D01*
X194957471Y-66198896D01*
X194908011Y-66262593D01*
X194861749Y-66322315D01*
X194858799Y-66326129D01*
X194819619Y-66375866D01*
X194782387Y-66421527D01*
X194753779Y-66454966D01*
X194748556Y-66460675D01*
X194722456Y-66489391D01*
X194685231Y-66531457D01*
X194644063Y-66578745D01*
X194635667Y-66588487D01*
X194482679Y-66760134D01*
X194311171Y-66941547D01*
X194126518Y-67127473D01*
X193934093Y-67312655D01*
X193739269Y-67491842D01*
X193547422Y-67659779D01*
X193492667Y-67705996D01*
X193376312Y-67801650D01*
X193277386Y-67878792D01*
X193193264Y-67938766D01*
X193121318Y-67982916D01*
X193058921Y-68012586D01*
X193003449Y-68029120D01*
X192952274Y-68033862D01*
X192902769Y-68028156D01*
X192876353Y-68021368D01*
X192824251Y-68001564D01*
X192771699Y-67975496D01*
X192763464Y-67970635D01*
X192729767Y-67947979D01*
X192679046Y-67911284D01*
X192614838Y-67863327D01*
X192540680Y-67806883D01*
X192460107Y-67744727D01*
X192376657Y-67679636D01*
X192293866Y-67614384D01*
X192215270Y-67551747D01*
X192144407Y-67494501D01*
X192084813Y-67445421D01*
X192040025Y-67407283D01*
X192013578Y-67382862D01*
X192011000Y-67380094D01*
X191997919Y-67368002D01*
X191978709Y-67351000D01*
X192699577Y-67351000D01*
X193154000Y-67351000D01*
X193153988Y-67276917D01*
X193152667Y-67230254D01*
X193149127Y-67165868D01*
X193143990Y-67094116D01*
X193140655Y-67054667D01*
X193135774Y-66994498D01*
X193129932Y-66913123D01*
X193123588Y-66817521D01*
X193117205Y-66714670D01*
X193111241Y-66611550D01*
X193110272Y-66593959D01*
X193093211Y-66281418D01*
X192911953Y-66283515D01*
X192730696Y-66285611D01*
X192729709Y-66342055D01*
X192727921Y-66388644D01*
X192724824Y-66429223D01*
X192724295Y-66433778D01*
X192722881Y-66456302D01*
X192720984Y-66503295D01*
X192718721Y-66571007D01*
X192716205Y-66655690D01*
X192713550Y-66753597D01*
X192710873Y-66860979D01*
X192709722Y-66910028D01*
X192699577Y-67351000D01*
X191978709Y-67351000D01*
X191968408Y-67341884D01*
X191927433Y-67306112D01*
X191898111Y-67280710D01*
X191836613Y-67226586D01*
X191768390Y-67165006D01*
X191706094Y-67107417D01*
X191693500Y-67095529D01*
X191639189Y-67044317D01*
X191581885Y-66990828D01*
X191531765Y-66944547D01*
X191519738Y-66933565D01*
X191435680Y-66854172D01*
X191344266Y-66762666D01*
X191248120Y-66662107D01*
X191149869Y-66555552D01*
X191052139Y-66446060D01*
X190957555Y-66336689D01*
X190868743Y-66230498D01*
X190788330Y-66130544D01*
X190718940Y-66039887D01*
X190663200Y-65961584D01*
X190623736Y-65898694D01*
X190612059Y-65876389D01*
X190579124Y-65780265D01*
X190576148Y-65732315D01*
X191431313Y-65732315D01*
X191456421Y-65809041D01*
X191508949Y-65881847D01*
X191550398Y-65920459D01*
X191596971Y-65952983D01*
X191662165Y-65990793D01*
X191737985Y-66029794D01*
X191816434Y-66065891D01*
X191889515Y-66094990D01*
X191895135Y-66096978D01*
X191989429Y-66125364D01*
X192104805Y-66152756D01*
X192234126Y-66177899D01*
X192370253Y-66199542D01*
X192506048Y-66216430D01*
X192634372Y-66227310D01*
X192638945Y-66227585D01*
X192718532Y-66229765D01*
X192818255Y-66228640D01*
X192930269Y-66224566D01*
X193046726Y-66217897D01*
X193159779Y-66208988D01*
X193245723Y-66200111D01*
X193413414Y-66175180D01*
X193573769Y-66141215D01*
X193723092Y-66099482D01*
X193857688Y-66051247D01*
X193973862Y-65997778D01*
X194067918Y-65940340D01*
X194114459Y-65902401D01*
X194180616Y-65827638D01*
X194218596Y-65753603D01*
X194228437Y-65680456D01*
X194210180Y-65608355D01*
X194163864Y-65537463D01*
X194089527Y-65467939D01*
X193991976Y-65402711D01*
X193923945Y-65362979D01*
X193963225Y-65348045D01*
X194001562Y-65336933D01*
X194029808Y-65333111D01*
X194054858Y-65329519D01*
X194056411Y-65320799D01*
X194037971Y-65310040D01*
X194003042Y-65300328D01*
X193990084Y-65298111D01*
X193948081Y-65290762D01*
X193887717Y-65278819D01*
X193818106Y-65264132D01*
X193767834Y-65253001D01*
X193654184Y-65227429D01*
X193565659Y-65207873D01*
X193499918Y-65193851D01*
X193454620Y-65184882D01*
X193427426Y-65180485D01*
X193415994Y-65180178D01*
X193415423Y-65180529D01*
X193418684Y-65194207D01*
X193429607Y-65227468D01*
X193445727Y-65273550D01*
X193464577Y-65325693D01*
X193483692Y-65377137D01*
X193500605Y-65421121D01*
X193512851Y-65450886D01*
X193517143Y-65459408D01*
X193532046Y-65459264D01*
X193566614Y-65452784D01*
X193613372Y-65441370D01*
X193613497Y-65441336D01*
X193672596Y-65427922D01*
X193716250Y-65424697D01*
X193755049Y-65430951D01*
X193757663Y-65431671D01*
X193817925Y-65456291D01*
X193880561Y-65494335D01*
X193937160Y-65539531D01*
X193979308Y-65585609D01*
X193992022Y-65606374D01*
X194007281Y-65640211D01*
X194011498Y-65665051D01*
X194004638Y-65693483D01*
X193991690Y-65725977D01*
X193951361Y-65791626D01*
X193895924Y-65843040D01*
X193845389Y-65879246D01*
X193797827Y-65907754D01*
X193746350Y-65931557D01*
X193684069Y-65953650D01*
X193604093Y-65977028D01*
X193560876Y-65988663D01*
X193418694Y-66021583D01*
X193266312Y-66048569D01*
X193113897Y-66068203D01*
X192971611Y-66079067D01*
X192900000Y-66080794D01*
X192790540Y-66077035D01*
X192671295Y-66066362D01*
X192548016Y-66049854D01*
X192426453Y-66028590D01*
X192312355Y-66003648D01*
X192211473Y-65976108D01*
X192129558Y-65947049D01*
X192091383Y-65929051D01*
X192029974Y-65888718D01*
X191978732Y-65841836D01*
X191942640Y-65793983D01*
X191926685Y-65750735D01*
X191926334Y-65744410D01*
X191936920Y-65703310D01*
X191965877Y-65651779D01*
X192008999Y-65596325D01*
X192047989Y-65556183D01*
X192088146Y-65527364D01*
X192147370Y-65495450D01*
X192217337Y-65464138D01*
X192289722Y-65437128D01*
X192356199Y-65418117D01*
X192361371Y-65416976D01*
X192412823Y-65404886D01*
X192444835Y-65393062D01*
X192456520Y-65379008D01*
X192446987Y-65360227D01*
X192415348Y-65334221D01*
X192360716Y-65298495D01*
X192307614Y-65265939D01*
X192240427Y-65225435D01*
X192192215Y-65197704D01*
X192157887Y-65180773D01*
X192132356Y-65172670D01*
X192110530Y-65171423D01*
X192087320Y-65175059D01*
X192078237Y-65177051D01*
X191995394Y-65201766D01*
X191899831Y-65240019D01*
X191800582Y-65287375D01*
X191706685Y-65339396D01*
X191627174Y-65391642D01*
X191602562Y-65410673D01*
X191519247Y-65490848D01*
X191462851Y-65571996D01*
X191433498Y-65652892D01*
X191431313Y-65732315D01*
X190576148Y-65732315D01*
X190573395Y-65687983D01*
X190594942Y-65601025D01*
X190598359Y-65593207D01*
X190617948Y-65556605D01*
X190649021Y-65505381D01*
X190686285Y-65447606D01*
X190724447Y-65391353D01*
X190758211Y-65344693D01*
X190775564Y-65323017D01*
X190798237Y-65295651D01*
X190804500Y-65287740D01*
X190888646Y-65180500D01*
X190967250Y-65082438D01*
X191043084Y-64990493D01*
X191081424Y-64945554D01*
X192509801Y-64945554D01*
X192510284Y-64955422D01*
X192523926Y-64961635D01*
X192555251Y-64964958D01*
X192608787Y-64966160D01*
X192631617Y-64966222D01*
X192761365Y-64966222D01*
X192753279Y-65132028D01*
X192750599Y-65194535D01*
X192747525Y-65278772D01*
X192744264Y-65378250D01*
X192741023Y-65486483D01*
X192738010Y-65596983D01*
X192736580Y-65654139D01*
X192727967Y-66010444D01*
X192881011Y-66010228D01*
X192945383Y-66009078D01*
X193000180Y-66006137D01*
X193038681Y-66001881D01*
X193053022Y-65997991D01*
X193058051Y-65984816D01*
X193060952Y-65952271D01*
X193061682Y-65899268D01*
X193060199Y-65824720D01*
X193056462Y-65727537D01*
X193050428Y-65606634D01*
X193042054Y-65460920D01*
X193031300Y-65289310D01*
X193018122Y-65090715D01*
X193017574Y-65082639D01*
X193008712Y-64952111D01*
X193295836Y-64952111D01*
X193275977Y-64913305D01*
X193261104Y-64880503D01*
X193238065Y-64824902D01*
X193208290Y-64750244D01*
X193173204Y-64660272D01*
X193134236Y-64558729D01*
X193092813Y-64449356D01*
X193050363Y-64335897D01*
X193008314Y-64222094D01*
X192968094Y-64111690D01*
X192935509Y-64020778D01*
X192913402Y-63960080D01*
X192893863Y-63909267D01*
X192879233Y-63874252D01*
X192872448Y-63861376D01*
X192863811Y-63868302D01*
X192850279Y-63896748D01*
X192834443Y-63941024D01*
X192830671Y-63953098D01*
X192819435Y-63989183D01*
X192801479Y-64045838D01*
X192778033Y-64119261D01*
X192750327Y-64205648D01*
X192719590Y-64301195D01*
X192687052Y-64402099D01*
X192653942Y-64504558D01*
X192621491Y-64604766D01*
X192590928Y-64698922D01*
X192563483Y-64783222D01*
X192540384Y-64853862D01*
X192522863Y-64907039D01*
X192512149Y-64938950D01*
X192509801Y-64945554D01*
X191081424Y-64945554D01*
X191118921Y-64901604D01*
X191197532Y-64812708D01*
X191281691Y-64720746D01*
X191374168Y-64622655D01*
X191477736Y-64515375D01*
X191595167Y-64395845D01*
X191729234Y-64261002D01*
X191782638Y-64207587D01*
X191934219Y-64058643D01*
X192080687Y-63919604D01*
X192220133Y-63792102D01*
X192350649Y-63677768D01*
X192470324Y-63578234D01*
X192577251Y-63495132D01*
X192669520Y-63430093D01*
X192745224Y-63384749D01*
X192745390Y-63384662D01*
X192831171Y-63355150D01*
X192922177Y-63351506D01*
X193012687Y-63373589D01*
X193012687Y-63373589D01*
G37*
X193012687Y-63373589D02*
X193052626Y-63392372D01*
X193089733Y-63415274D01*
X193143872Y-63451912D01*
X193209930Y-63498525D01*
X193282794Y-63551354D01*
X193357352Y-63606638D01*
X193428491Y-63660616D01*
X193491098Y-63709529D01*
X193540061Y-63749617D01*
X193549881Y-63758091D01*
X193587974Y-63791005D01*
X193636215Y-63832057D01*
X193676041Y-63865555D01*
X193752124Y-63931225D01*
X193843692Y-64013688D01*
X193946874Y-64109196D01*
X194057801Y-64214002D01*
X194172605Y-64324355D01*
X194287416Y-64436510D01*
X194398364Y-64546716D01*
X194501581Y-64651227D01*
X194593197Y-64746293D01*
X194666569Y-64825111D01*
X194759612Y-64929337D01*
X194850912Y-65035088D01*
X194937860Y-65139090D01*
X195017846Y-65238070D01*
X195088261Y-65328753D01*
X195146497Y-65407867D01*
X195189945Y-65472136D01*
X195211135Y-65508396D01*
X195241358Y-65593216D01*
X195250005Y-65684164D01*
X195236946Y-65772309D01*
X195215771Y-65825767D01*
X195176299Y-65893860D01*
X195122747Y-65975933D01*
X195059878Y-66064956D01*
X194999910Y-66144384D01*
X194957471Y-66198896D01*
X194908011Y-66262593D01*
X194861749Y-66322315D01*
X194858799Y-66326129D01*
X194819619Y-66375866D01*
X194782387Y-66421527D01*
X194753779Y-66454966D01*
X194748556Y-66460675D01*
X194722456Y-66489391D01*
X194685231Y-66531457D01*
X194644063Y-66578745D01*
X194635667Y-66588487D01*
X194482679Y-66760134D01*
X194311171Y-66941547D01*
X194126518Y-67127473D01*
X193934093Y-67312655D01*
X193739269Y-67491842D01*
X193547422Y-67659779D01*
X193492667Y-67705996D01*
X193376312Y-67801650D01*
X193277386Y-67878792D01*
X193193264Y-67938766D01*
X193121318Y-67982916D01*
X193058921Y-68012586D01*
X193003449Y-68029120D01*
X192952274Y-68033862D01*
X192902769Y-68028156D01*
X192876353Y-68021368D01*
X192824251Y-68001564D01*
X192771699Y-67975496D01*
X192763464Y-67970635D01*
X192729767Y-67947979D01*
X192679046Y-67911284D01*
X192614838Y-67863327D01*
X192540680Y-67806883D01*
X192460107Y-67744727D01*
X192376657Y-67679636D01*
X192293866Y-67614384D01*
X192215270Y-67551747D01*
X192144407Y-67494501D01*
X192084813Y-67445421D01*
X192040025Y-67407283D01*
X192013578Y-67382862D01*
X192011000Y-67380094D01*
X191997919Y-67368002D01*
X191978709Y-67351000D01*
X192699577Y-67351000D01*
X193154000Y-67351000D01*
X193153988Y-67276917D01*
X193152667Y-67230254D01*
X193149127Y-67165868D01*
X193143990Y-67094116D01*
X193140655Y-67054667D01*
X193135774Y-66994498D01*
X193129932Y-66913123D01*
X193123588Y-66817521D01*
X193117205Y-66714670D01*
X193111241Y-66611550D01*
X193110272Y-66593959D01*
X193093211Y-66281418D01*
X192911953Y-66283515D01*
X192730696Y-66285611D01*
X192729709Y-66342055D01*
X192727921Y-66388644D01*
X192724824Y-66429223D01*
X192724295Y-66433778D01*
X192722881Y-66456302D01*
X192720984Y-66503295D01*
X192718721Y-66571007D01*
X192716205Y-66655690D01*
X192713550Y-66753597D01*
X192710873Y-66860979D01*
X192709722Y-66910028D01*
X192699577Y-67351000D01*
X191978709Y-67351000D01*
X191968408Y-67341884D01*
X191927433Y-67306112D01*
X191898111Y-67280710D01*
X191836613Y-67226586D01*
X191768390Y-67165006D01*
X191706094Y-67107417D01*
X191693500Y-67095529D01*
X191639189Y-67044317D01*
X191581885Y-66990828D01*
X191531765Y-66944547D01*
X191519738Y-66933565D01*
X191435680Y-66854172D01*
X191344266Y-66762666D01*
X191248120Y-66662107D01*
X191149869Y-66555552D01*
X191052139Y-66446060D01*
X190957555Y-66336689D01*
X190868743Y-66230498D01*
X190788330Y-66130544D01*
X190718940Y-66039887D01*
X190663200Y-65961584D01*
X190623736Y-65898694D01*
X190612059Y-65876389D01*
X190579124Y-65780265D01*
X190576148Y-65732315D01*
X191431313Y-65732315D01*
X191456421Y-65809041D01*
X191508949Y-65881847D01*
X191550398Y-65920459D01*
X191596971Y-65952983D01*
X191662165Y-65990793D01*
X191737985Y-66029794D01*
X191816434Y-66065891D01*
X191889515Y-66094990D01*
X191895135Y-66096978D01*
X191989429Y-66125364D01*
X192104805Y-66152756D01*
X192234126Y-66177899D01*
X192370253Y-66199542D01*
X192506048Y-66216430D01*
X192634372Y-66227310D01*
X192638945Y-66227585D01*
X192718532Y-66229765D01*
X192818255Y-66228640D01*
X192930269Y-66224566D01*
X193046726Y-66217897D01*
X193159779Y-66208988D01*
X193245723Y-66200111D01*
X193413414Y-66175180D01*
X193573769Y-66141215D01*
X193723092Y-66099482D01*
X193857688Y-66051247D01*
X193973862Y-65997778D01*
X194067918Y-65940340D01*
X194114459Y-65902401D01*
X194180616Y-65827638D01*
X194218596Y-65753603D01*
X194228437Y-65680456D01*
X194210180Y-65608355D01*
X194163864Y-65537463D01*
X194089527Y-65467939D01*
X193991976Y-65402711D01*
X193923945Y-65362979D01*
X193963225Y-65348045D01*
X194001562Y-65336933D01*
X194029808Y-65333111D01*
X194054858Y-65329519D01*
X194056411Y-65320799D01*
X194037971Y-65310040D01*
X194003042Y-65300328D01*
X193990084Y-65298111D01*
X193948081Y-65290762D01*
X193887717Y-65278819D01*
X193818106Y-65264132D01*
X193767834Y-65253001D01*
X193654184Y-65227429D01*
X193565659Y-65207873D01*
X193499918Y-65193851D01*
X193454620Y-65184882D01*
X193427426Y-65180485D01*
X193415994Y-65180178D01*
X193415423Y-65180529D01*
X193418684Y-65194207D01*
X193429607Y-65227468D01*
X193445727Y-65273550D01*
X193464577Y-65325693D01*
X193483692Y-65377137D01*
X193500605Y-65421121D01*
X193512851Y-65450886D01*
X193517143Y-65459408D01*
X193532046Y-65459264D01*
X193566614Y-65452784D01*
X193613372Y-65441370D01*
X193613497Y-65441336D01*
X193672596Y-65427922D01*
X193716250Y-65424697D01*
X193755049Y-65430951D01*
X193757663Y-65431671D01*
X193817925Y-65456291D01*
X193880561Y-65494335D01*
X193937160Y-65539531D01*
X193979308Y-65585609D01*
X193992022Y-65606374D01*
X194007281Y-65640211D01*
X194011498Y-65665051D01*
X194004638Y-65693483D01*
X193991690Y-65725977D01*
X193951361Y-65791626D01*
X193895924Y-65843040D01*
X193845389Y-65879246D01*
X193797827Y-65907754D01*
X193746350Y-65931557D01*
X193684069Y-65953650D01*
X193604093Y-65977028D01*
X193560876Y-65988663D01*
X193418694Y-66021583D01*
X193266312Y-66048569D01*
X193113897Y-66068203D01*
X192971611Y-66079067D01*
X192900000Y-66080794D01*
X192790540Y-66077035D01*
X192671295Y-66066362D01*
X192548016Y-66049854D01*
X192426453Y-66028590D01*
X192312355Y-66003648D01*
X192211473Y-65976108D01*
X192129558Y-65947049D01*
X192091383Y-65929051D01*
X192029974Y-65888718D01*
X191978732Y-65841836D01*
X191942640Y-65793983D01*
X191926685Y-65750735D01*
X191926334Y-65744410D01*
X191936920Y-65703310D01*
X191965877Y-65651779D01*
X192008999Y-65596325D01*
X192047989Y-65556183D01*
X192088146Y-65527364D01*
X192147370Y-65495450D01*
X192217337Y-65464138D01*
X192289722Y-65437128D01*
X192356199Y-65418117D01*
X192361371Y-65416976D01*
X192412823Y-65404886D01*
X192444835Y-65393062D01*
X192456520Y-65379008D01*
X192446987Y-65360227D01*
X192415348Y-65334221D01*
X192360716Y-65298495D01*
X192307614Y-65265939D01*
X192240427Y-65225435D01*
X192192215Y-65197704D01*
X192157887Y-65180773D01*
X192132356Y-65172670D01*
X192110530Y-65171423D01*
X192087320Y-65175059D01*
X192078237Y-65177051D01*
X191995394Y-65201766D01*
X191899831Y-65240019D01*
X191800582Y-65287375D01*
X191706685Y-65339396D01*
X191627174Y-65391642D01*
X191602562Y-65410673D01*
X191519247Y-65490848D01*
X191462851Y-65571996D01*
X191433498Y-65652892D01*
X191431313Y-65732315D01*
X190576148Y-65732315D01*
X190573395Y-65687983D01*
X190594942Y-65601025D01*
X190598359Y-65593207D01*
X190617948Y-65556605D01*
X190649021Y-65505381D01*
X190686285Y-65447606D01*
X190724447Y-65391353D01*
X190758211Y-65344693D01*
X190775564Y-65323017D01*
X190798237Y-65295651D01*
X190804500Y-65287740D01*
X190888646Y-65180500D01*
X190967250Y-65082438D01*
X191043084Y-64990493D01*
X191081424Y-64945554D01*
X192509801Y-64945554D01*
X192510284Y-64955422D01*
X192523926Y-64961635D01*
X192555251Y-64964958D01*
X192608787Y-64966160D01*
X192631617Y-64966222D01*
X192761365Y-64966222D01*
X192753279Y-65132028D01*
X192750599Y-65194535D01*
X192747525Y-65278772D01*
X192744264Y-65378250D01*
X192741023Y-65486483D01*
X192738010Y-65596983D01*
X192736580Y-65654139D01*
X192727967Y-66010444D01*
X192881011Y-66010228D01*
X192945383Y-66009078D01*
X193000180Y-66006137D01*
X193038681Y-66001881D01*
X193053022Y-65997991D01*
X193058051Y-65984816D01*
X193060952Y-65952271D01*
X193061682Y-65899268D01*
X193060199Y-65824720D01*
X193056462Y-65727537D01*
X193050428Y-65606634D01*
X193042054Y-65460920D01*
X193031300Y-65289310D01*
X193018122Y-65090715D01*
X193017574Y-65082639D01*
X193008712Y-64952111D01*
X193295836Y-64952111D01*
X193275977Y-64913305D01*
X193261104Y-64880503D01*
X193238065Y-64824902D01*
X193208290Y-64750244D01*
X193173204Y-64660272D01*
X193134236Y-64558729D01*
X193092813Y-64449356D01*
X193050363Y-64335897D01*
X193008314Y-64222094D01*
X192968094Y-64111690D01*
X192935509Y-64020778D01*
X192913402Y-63960080D01*
X192893863Y-63909267D01*
X192879233Y-63874252D01*
X192872448Y-63861376D01*
X192863811Y-63868302D01*
X192850279Y-63896748D01*
X192834443Y-63941024D01*
X192830671Y-63953098D01*
X192819435Y-63989183D01*
X192801479Y-64045838D01*
X192778033Y-64119261D01*
X192750327Y-64205648D01*
X192719590Y-64301195D01*
X192687052Y-64402099D01*
X192653942Y-64504558D01*
X192621491Y-64604766D01*
X192590928Y-64698922D01*
X192563483Y-64783222D01*
X192540384Y-64853862D01*
X192522863Y-64907039D01*
X192512149Y-64938950D01*
X192509801Y-64945554D01*
X191081424Y-64945554D01*
X191118921Y-64901604D01*
X191197532Y-64812708D01*
X191281691Y-64720746D01*
X191374168Y-64622655D01*
X191477736Y-64515375D01*
X191595167Y-64395845D01*
X191729234Y-64261002D01*
X191782638Y-64207587D01*
X191934219Y-64058643D01*
X192080687Y-63919604D01*
X192220133Y-63792102D01*
X192350649Y-63677768D01*
X192470324Y-63578234D01*
X192577251Y-63495132D01*
X192669520Y-63430093D01*
X192745224Y-63384749D01*
X192745390Y-63384662D01*
X192831171Y-63355150D01*
X192922177Y-63351506D01*
X193012687Y-63373589D01*
G36*
X192888940Y-62322225D02*
X192946044Y-62346607D01*
X193005173Y-62394572D01*
X193068983Y-62467484D01*
X193099072Y-62507604D01*
X193284437Y-62753821D01*
X193490669Y-63009242D01*
X193713950Y-63269390D01*
X193950462Y-63529790D01*
X194142941Y-63731500D01*
X194207765Y-63798266D01*
X194272537Y-63865515D01*
X194331897Y-63927646D01*
X194380488Y-63979059D01*
X194404683Y-64005081D01*
X194440911Y-64042692D01*
X194493718Y-64095108D01*
X194558752Y-64158201D01*
X194631664Y-64227842D01*
X194708105Y-64299901D01*
X194783725Y-64370251D01*
X194854173Y-64434762D01*
X194910834Y-64485541D01*
X195066729Y-64618779D01*
X195242276Y-64760940D01*
X195432083Y-64907938D01*
X195630757Y-65055688D01*
X195832903Y-65200105D01*
X196033131Y-65337103D01*
X196048465Y-65347327D01*
X196133700Y-65405746D01*
X196197180Y-65454097D01*
X196241891Y-65495889D01*
X196270818Y-65534629D01*
X196286950Y-65573828D01*
X196293271Y-65616992D01*
X196293723Y-65635466D01*
X196290856Y-65677996D01*
X196280281Y-65715617D01*
X196259031Y-65751895D01*
X196224140Y-65790395D01*
X196172643Y-65834682D01*
X196101575Y-65888320D01*
X196056469Y-65920688D01*
X195997388Y-65963792D01*
X195923259Y-66019651D01*
X195838463Y-66084800D01*
X195747382Y-66155770D01*
X195654398Y-66229096D01*
X195563894Y-66301309D01*
X195480252Y-66368942D01*
X195407852Y-66428529D01*
X195351078Y-66476602D01*
X195327111Y-66497774D01*
X195299030Y-66523183D01*
X195255152Y-66562821D01*
X195200645Y-66612023D01*
X195140676Y-66666124D01*
X195115445Y-66688878D01*
X195020145Y-66776539D01*
X194914053Y-66877148D01*
X194800248Y-66987556D01*
X194681809Y-67104617D01*
X194561814Y-67225183D01*
X194443343Y-67346105D01*
X194329473Y-67464236D01*
X194223283Y-67576427D01*
X194127852Y-67679533D01*
X194046259Y-67770403D01*
X193981582Y-67845892D01*
X193970001Y-67860033D01*
X193862883Y-67992485D01*
X193770482Y-68107498D01*
X193689532Y-68209379D01*
X193616761Y-68302436D01*
X193548901Y-68390977D01*
X193482683Y-68479310D01*
X193414838Y-68571742D01*
X193342096Y-68672581D01*
X193261189Y-68786136D01*
X193178839Y-68902553D01*
X193117832Y-68979652D01*
X193060607Y-69030907D01*
X193004149Y-69057867D01*
X192945445Y-69062081D01*
X192892945Y-69049446D01*
X192853033Y-69033648D01*
X192822575Y-69015872D01*
X192795265Y-68990413D01*
X192764801Y-68951566D01*
X192731353Y-68903222D01*
X192664051Y-68804394D01*
X192610704Y-68727643D01*
X192570096Y-68671246D01*
X192541518Y-68634098D01*
X192512826Y-68597863D01*
X192481047Y-68556345D01*
X192476667Y-68550494D01*
X192330172Y-68362240D01*
X192163737Y-68162906D01*
X191981248Y-67956538D01*
X191786593Y-67747179D01*
X191583658Y-67538873D01*
X191376332Y-67335665D01*
X191168502Y-67141598D01*
X190964054Y-66960717D01*
X190880710Y-66890136D01*
X190844246Y-66859414D01*
X190793236Y-66816068D01*
X190734500Y-66765913D01*
X190676098Y-66715822D01*
X190551286Y-66610504D01*
X190423273Y-66506694D01*
X190287796Y-66401125D01*
X190140588Y-66290531D01*
X189977386Y-66171646D01*
X189809667Y-66052296D01*
X189722586Y-65989915D01*
X189656456Y-65939488D01*
X189608466Y-65897737D01*
X189575809Y-65861383D01*
X189555674Y-65827149D01*
X189545254Y-65791758D01*
X189541738Y-65751931D01*
X189541609Y-65739506D01*
X189541887Y-65737394D01*
X190394929Y-65737394D01*
X190398378Y-65789582D01*
X190412697Y-65844489D01*
X190439211Y-65905051D01*
X190479244Y-65974199D01*
X190534121Y-66054867D01*
X190605166Y-66149990D01*
X190693705Y-66262500D01*
X190710831Y-66283866D01*
X190905725Y-66516676D01*
X191114050Y-66746082D01*
X191338718Y-66974995D01*
X191582638Y-67206328D01*
X191848721Y-67442993D01*
X191989120Y-67562667D01*
X192153392Y-67699388D01*
X192298993Y-67817274D01*
X192427351Y-67917303D01*
X192539891Y-68000455D01*
X192638041Y-68067708D01*
X192723226Y-68120041D01*
X192796872Y-68158434D01*
X192860406Y-68183866D01*
X192913146Y-68196986D01*
X192979278Y-68202791D01*
X193039570Y-68195477D01*
X193105627Y-68173104D01*
X193135678Y-68159775D01*
X193199765Y-68124230D01*
X193280701Y-68069911D01*
X193376244Y-67998829D01*
X193484150Y-67912995D01*
X193602178Y-67814418D01*
X193728085Y-67705111D01*
X193859628Y-67587084D01*
X193994564Y-67462347D01*
X194130651Y-67332912D01*
X194265647Y-67200788D01*
X194397308Y-67067987D01*
X194523393Y-66936520D01*
X194636420Y-66814190D01*
X194698907Y-66745092D01*
X194748864Y-66689484D01*
X194790326Y-66642560D01*
X194827326Y-66599516D01*
X194863900Y-66555546D01*
X194904083Y-66505844D01*
X194951909Y-66445606D01*
X195011413Y-66370027D01*
X195041315Y-66331970D01*
X195139452Y-66205112D01*
X195219940Y-66096304D01*
X195284275Y-66002859D01*
X195333950Y-65922089D01*
X195370460Y-65851308D01*
X195395300Y-65787827D01*
X195409964Y-65728960D01*
X195415945Y-65672018D01*
X195416260Y-65657667D01*
X195413787Y-65609783D01*
X195404570Y-65562350D01*
X195386883Y-65512306D01*
X195359001Y-65456592D01*
X195319197Y-65392148D01*
X195265745Y-65315913D01*
X195196920Y-65224828D01*
X195110996Y-65115833D01*
X195109843Y-65114389D01*
X195067977Y-65062188D01*
X195031677Y-65017566D01*
X194997294Y-64976312D01*
X194961174Y-64934213D01*
X194919669Y-64887058D01*
X194869125Y-64830633D01*
X194805893Y-64760728D01*
X194748556Y-64697590D01*
X194687040Y-64631227D01*
X194613336Y-64553890D01*
X194530033Y-64468119D01*
X194439720Y-64376453D01*
X194344988Y-64281433D01*
X194248426Y-64185598D01*
X194152623Y-64091488D01*
X194060169Y-64001643D01*
X193973653Y-63918603D01*
X193895666Y-63844907D01*
X193828796Y-63783096D01*
X193775633Y-63735710D01*
X193738767Y-63705288D01*
X193731365Y-63699914D01*
X193706111Y-63681059D01*
X193665696Y-63649235D01*
X193616602Y-63609589D01*
X193584389Y-63583126D01*
X193513498Y-63525854D01*
X193435577Y-63465191D01*
X193356006Y-63405113D01*
X193280162Y-63349600D01*
X193213423Y-63302628D01*
X193161168Y-63268175D01*
X193146945Y-63259607D01*
X193071396Y-63222525D01*
X192990727Y-63193914D01*
X192915501Y-63177121D01*
X192877154Y-63174111D01*
X192813445Y-63180919D01*
X192745253Y-63202525D01*
X192668881Y-63240700D01*
X192580633Y-63297215D01*
X192504312Y-63352791D01*
X192427737Y-63412361D01*
X192341110Y-63482448D01*
X192248085Y-63559851D01*
X192152313Y-63641370D01*
X192057448Y-63723806D01*
X191967141Y-63803959D01*
X191885046Y-63878628D01*
X191814815Y-63944613D01*
X191760100Y-63998716D01*
X191730253Y-64030944D01*
X191711589Y-64051478D01*
X191676338Y-64089218D01*
X191627472Y-64141024D01*
X191567960Y-64203757D01*
X191500773Y-64274275D01*
X191432818Y-64345333D01*
X191233367Y-64556515D01*
X191054987Y-64751693D01*
X190897824Y-64930682D01*
X190762026Y-65093294D01*
X190647740Y-65239345D01*
X190555113Y-65368649D01*
X190484293Y-65481019D01*
X190435428Y-65576269D01*
X190415343Y-65629444D01*
X190401025Y-65684993D01*
X190394929Y-65737394D01*
X189541887Y-65737394D01*
X189548644Y-65686251D01*
X189571269Y-65634705D01*
X189611902Y-65581908D01*
X189672964Y-65524899D01*
X189756874Y-65460718D01*
X189786489Y-65439882D01*
X189843539Y-65398698D01*
X189917634Y-65342714D01*
X190004354Y-65275452D01*
X190099278Y-65200437D01*
X190197986Y-65121191D01*
X190296060Y-65041240D01*
X190389078Y-64964107D01*
X190472621Y-64893314D01*
X190479622Y-64887291D01*
X190606608Y-64776796D01*
X190724282Y-64671906D01*
X190835549Y-64569687D01*
X190943314Y-64467206D01*
X191050481Y-64361527D01*
X191159955Y-64249716D01*
X191274641Y-64128839D01*
X191397444Y-63995963D01*
X191531269Y-63848151D01*
X191679020Y-63682471D01*
X191735539Y-63618611D01*
X191931477Y-63389904D01*
X192122641Y-63152222D01*
X192314052Y-62899170D01*
X192465069Y-62689391D01*
X192531767Y-62595285D01*
X192584973Y-62521493D01*
X192627226Y-62465098D01*
X192661061Y-62423186D01*
X192689015Y-62392841D01*
X192713627Y-62371147D01*
X192737431Y-62355189D01*
X192762966Y-62342051D01*
X192770169Y-62338753D01*
X192831201Y-62320062D01*
X192888940Y-62322225D01*
X192888940Y-62322225D01*
G37*
X192888940Y-62322225D02*
X192946044Y-62346607D01*
X193005173Y-62394572D01*
X193068983Y-62467484D01*
X193099072Y-62507604D01*
X193284437Y-62753821D01*
X193490669Y-63009242D01*
X193713950Y-63269390D01*
X193950462Y-63529790D01*
X194142941Y-63731500D01*
X194207765Y-63798266D01*
X194272537Y-63865515D01*
X194331897Y-63927646D01*
X194380488Y-63979059D01*
X194404683Y-64005081D01*
X194440911Y-64042692D01*
X194493718Y-64095108D01*
X194558752Y-64158201D01*
X194631664Y-64227842D01*
X194708105Y-64299901D01*
X194783725Y-64370251D01*
X194854173Y-64434762D01*
X194910834Y-64485541D01*
X195066729Y-64618779D01*
X195242276Y-64760940D01*
X195432083Y-64907938D01*
X195630757Y-65055688D01*
X195832903Y-65200105D01*
X196033131Y-65337103D01*
X196048465Y-65347327D01*
X196133700Y-65405746D01*
X196197180Y-65454097D01*
X196241891Y-65495889D01*
X196270818Y-65534629D01*
X196286950Y-65573828D01*
X196293271Y-65616992D01*
X196293723Y-65635466D01*
X196290856Y-65677996D01*
X196280281Y-65715617D01*
X196259031Y-65751895D01*
X196224140Y-65790395D01*
X196172643Y-65834682D01*
X196101575Y-65888320D01*
X196056469Y-65920688D01*
X195997388Y-65963792D01*
X195923259Y-66019651D01*
X195838463Y-66084800D01*
X195747382Y-66155770D01*
X195654398Y-66229096D01*
X195563894Y-66301309D01*
X195480252Y-66368942D01*
X195407852Y-66428529D01*
X195351078Y-66476602D01*
X195327111Y-66497774D01*
X195299030Y-66523183D01*
X195255152Y-66562821D01*
X195200645Y-66612023D01*
X195140676Y-66666124D01*
X195115445Y-66688878D01*
X195020145Y-66776539D01*
X194914053Y-66877148D01*
X194800248Y-66987556D01*
X194681809Y-67104617D01*
X194561814Y-67225183D01*
X194443343Y-67346105D01*
X194329473Y-67464236D01*
X194223283Y-67576427D01*
X194127852Y-67679533D01*
X194046259Y-67770403D01*
X193981582Y-67845892D01*
X193970001Y-67860033D01*
X193862883Y-67992485D01*
X193770482Y-68107498D01*
X193689532Y-68209379D01*
X193616761Y-68302436D01*
X193548901Y-68390977D01*
X193482683Y-68479310D01*
X193414838Y-68571742D01*
X193342096Y-68672581D01*
X193261189Y-68786136D01*
X193178839Y-68902553D01*
X193117832Y-68979652D01*
X193060607Y-69030907D01*
X193004149Y-69057867D01*
X192945445Y-69062081D01*
X192892945Y-69049446D01*
X192853033Y-69033648D01*
X192822575Y-69015872D01*
X192795265Y-68990413D01*
X192764801Y-68951566D01*
X192731353Y-68903222D01*
X192664051Y-68804394D01*
X192610704Y-68727643D01*
X192570096Y-68671246D01*
X192541518Y-68634098D01*
X192512826Y-68597863D01*
X192481047Y-68556345D01*
X192476667Y-68550494D01*
X192330172Y-68362240D01*
X192163737Y-68162906D01*
X191981248Y-67956538D01*
X191786593Y-67747179D01*
X191583658Y-67538873D01*
X191376332Y-67335665D01*
X191168502Y-67141598D01*
X190964054Y-66960717D01*
X190880710Y-66890136D01*
X190844246Y-66859414D01*
X190793236Y-66816068D01*
X190734500Y-66765913D01*
X190676098Y-66715822D01*
X190551286Y-66610504D01*
X190423273Y-66506694D01*
X190287796Y-66401125D01*
X190140588Y-66290531D01*
X189977386Y-66171646D01*
X189809667Y-66052296D01*
X189722586Y-65989915D01*
X189656456Y-65939488D01*
X189608466Y-65897737D01*
X189575809Y-65861383D01*
X189555674Y-65827149D01*
X189545254Y-65791758D01*
X189541738Y-65751931D01*
X189541609Y-65739506D01*
X189541887Y-65737394D01*
X190394929Y-65737394D01*
X190398378Y-65789582D01*
X190412697Y-65844489D01*
X190439211Y-65905051D01*
X190479244Y-65974199D01*
X190534121Y-66054867D01*
X190605166Y-66149990D01*
X190693705Y-66262500D01*
X190710831Y-66283866D01*
X190905725Y-66516676D01*
X191114050Y-66746082D01*
X191338718Y-66974995D01*
X191582638Y-67206328D01*
X191848721Y-67442993D01*
X191989120Y-67562667D01*
X192153392Y-67699388D01*
X192298993Y-67817274D01*
X192427351Y-67917303D01*
X192539891Y-68000455D01*
X192638041Y-68067708D01*
X192723226Y-68120041D01*
X192796872Y-68158434D01*
X192860406Y-68183866D01*
X192913146Y-68196986D01*
X192979278Y-68202791D01*
X193039570Y-68195477D01*
X193105627Y-68173104D01*
X193135678Y-68159775D01*
X193199765Y-68124230D01*
X193280701Y-68069911D01*
X193376244Y-67998829D01*
X193484150Y-67912995D01*
X193602178Y-67814418D01*
X193728085Y-67705111D01*
X193859628Y-67587084D01*
X193994564Y-67462347D01*
X194130651Y-67332912D01*
X194265647Y-67200788D01*
X194397308Y-67067987D01*
X194523393Y-66936520D01*
X194636420Y-66814190D01*
X194698907Y-66745092D01*
X194748864Y-66689484D01*
X194790326Y-66642560D01*
X194827326Y-66599516D01*
X194863900Y-66555546D01*
X194904083Y-66505844D01*
X194951909Y-66445606D01*
X195011413Y-66370027D01*
X195041315Y-66331970D01*
X195139452Y-66205112D01*
X195219940Y-66096304D01*
X195284275Y-66002859D01*
X195333950Y-65922089D01*
X195370460Y-65851308D01*
X195395300Y-65787827D01*
X195409964Y-65728960D01*
X195415945Y-65672018D01*
X195416260Y-65657667D01*
X195413787Y-65609783D01*
X195404570Y-65562350D01*
X195386883Y-65512306D01*
X195359001Y-65456592D01*
X195319197Y-65392148D01*
X195265745Y-65315913D01*
X195196920Y-65224828D01*
X195110996Y-65115833D01*
X195109843Y-65114389D01*
X195067977Y-65062188D01*
X195031677Y-65017566D01*
X194997294Y-64976312D01*
X194961174Y-64934213D01*
X194919669Y-64887058D01*
X194869125Y-64830633D01*
X194805893Y-64760728D01*
X194748556Y-64697590D01*
X194687040Y-64631227D01*
X194613336Y-64553890D01*
X194530033Y-64468119D01*
X194439720Y-64376453D01*
X194344988Y-64281433D01*
X194248426Y-64185598D01*
X194152623Y-64091488D01*
X194060169Y-64001643D01*
X193973653Y-63918603D01*
X193895666Y-63844907D01*
X193828796Y-63783096D01*
X193775633Y-63735710D01*
X193738767Y-63705288D01*
X193731365Y-63699914D01*
X193706111Y-63681059D01*
X193665696Y-63649235D01*
X193616602Y-63609589D01*
X193584389Y-63583126D01*
X193513498Y-63525854D01*
X193435577Y-63465191D01*
X193356006Y-63405113D01*
X193280162Y-63349600D01*
X193213423Y-63302628D01*
X193161168Y-63268175D01*
X193146945Y-63259607D01*
X193071396Y-63222525D01*
X192990727Y-63193914D01*
X192915501Y-63177121D01*
X192877154Y-63174111D01*
X192813445Y-63180919D01*
X192745253Y-63202525D01*
X192668881Y-63240700D01*
X192580633Y-63297215D01*
X192504312Y-63352791D01*
X192427737Y-63412361D01*
X192341110Y-63482448D01*
X192248085Y-63559851D01*
X192152313Y-63641370D01*
X192057448Y-63723806D01*
X191967141Y-63803959D01*
X191885046Y-63878628D01*
X191814815Y-63944613D01*
X191760100Y-63998716D01*
X191730253Y-64030944D01*
X191711589Y-64051478D01*
X191676338Y-64089218D01*
X191627472Y-64141024D01*
X191567960Y-64203757D01*
X191500773Y-64274275D01*
X191432818Y-64345333D01*
X191233367Y-64556515D01*
X191054987Y-64751693D01*
X190897824Y-64930682D01*
X190762026Y-65093294D01*
X190647740Y-65239345D01*
X190555113Y-65368649D01*
X190484293Y-65481019D01*
X190435428Y-65576269D01*
X190415343Y-65629444D01*
X190401025Y-65684993D01*
X190394929Y-65737394D01*
X189541887Y-65737394D01*
X189548644Y-65686251D01*
X189571269Y-65634705D01*
X189611902Y-65581908D01*
X189672964Y-65524899D01*
X189756874Y-65460718D01*
X189786489Y-65439882D01*
X189843539Y-65398698D01*
X189917634Y-65342714D01*
X190004354Y-65275452D01*
X190099278Y-65200437D01*
X190197986Y-65121191D01*
X190296060Y-65041240D01*
X190389078Y-64964107D01*
X190472621Y-64893314D01*
X190479622Y-64887291D01*
X190606608Y-64776796D01*
X190724282Y-64671906D01*
X190835549Y-64569687D01*
X190943314Y-64467206D01*
X191050481Y-64361527D01*
X191159955Y-64249716D01*
X191274641Y-64128839D01*
X191397444Y-63995963D01*
X191531269Y-63848151D01*
X191679020Y-63682471D01*
X191735539Y-63618611D01*
X191931477Y-63389904D01*
X192122641Y-63152222D01*
X192314052Y-62899170D01*
X192465069Y-62689391D01*
X192531767Y-62595285D01*
X192584973Y-62521493D01*
X192627226Y-62465098D01*
X192661061Y-62423186D01*
X192689015Y-62392841D01*
X192713627Y-62371147D01*
X192737431Y-62355189D01*
X192762966Y-62342051D01*
X192770169Y-62338753D01*
X192831201Y-62320062D01*
X192888940Y-62322225D01*
D11*
G04 #@! TO.C,Shift3*
X150770000Y-137290000D02*
G75*
G02X150770000Y-139290000I0J-1000000D01*
G01*
X150770000Y-139290000D02*
X150770000Y-140540000D01*
X150770000Y-140540000D02*
X171210000Y-140540000D01*
X171210000Y-140540000D02*
X171210000Y-136040000D01*
X171210000Y-136040000D02*
X150770000Y-136040000D01*
X150770000Y-136040000D02*
X150770000Y-137290000D01*
G04 #@! TO.C,BTN1*
D14*
X182663356Y-134363571D02*
X182806213Y-134411190D01*
X182853832Y-134458809D01*
X182901451Y-134554047D01*
X182901451Y-134696904D01*
X182853832Y-134792142D01*
X182806213Y-134839761D01*
X182710975Y-134887380D01*
X182330022Y-134887380D01*
X182330022Y-133887380D01*
X182663356Y-133887380D01*
X182758594Y-133935000D01*
X182806213Y-133982619D01*
X182853832Y-134077857D01*
X182853832Y-134173095D01*
X182806213Y-134268333D01*
X182758594Y-134315952D01*
X182663356Y-134363571D01*
X182330022Y-134363571D01*
X183187165Y-133887380D02*
X183758594Y-133887380D01*
X183472880Y-134887380D02*
X183472880Y-133887380D01*
X184091927Y-134887380D02*
X184091927Y-133887380D01*
X184663356Y-134887380D01*
X184663356Y-133887380D01*
X185663356Y-134887380D02*
X185091927Y-134887380D01*
X185377641Y-134887380D02*
X185377641Y-133887380D01*
X185282403Y-134030238D01*
X185187165Y-134125476D01*
X185091927Y-134173095D01*
G04 #@! TO.C,Battery1*
X168648380Y-105597571D02*
X168791238Y-105645190D01*
X168838857Y-105692809D01*
X168886476Y-105788047D01*
X168886476Y-105930904D01*
X168838857Y-106026142D01*
X168791238Y-106073761D01*
X168696000Y-106121380D01*
X168315047Y-106121380D01*
X168315047Y-105121380D01*
X168648380Y-105121380D01*
X168743619Y-105169000D01*
X168791238Y-105216619D01*
X168838857Y-105311857D01*
X168838857Y-105407095D01*
X168791238Y-105502333D01*
X168743619Y-105549952D01*
X168648380Y-105597571D01*
X168315047Y-105597571D01*
X169743619Y-106121380D02*
X169743619Y-105597571D01*
X169696000Y-105502333D01*
X169600761Y-105454714D01*
X169410285Y-105454714D01*
X169315047Y-105502333D01*
X169743619Y-106073761D02*
X169648380Y-106121380D01*
X169410285Y-106121380D01*
X169315047Y-106073761D01*
X169267428Y-105978523D01*
X169267428Y-105883285D01*
X169315047Y-105788047D01*
X169410285Y-105740428D01*
X169648380Y-105740428D01*
X169743619Y-105692809D01*
X170076952Y-105454714D02*
X170457904Y-105454714D01*
X170219809Y-105121380D02*
X170219809Y-105978523D01*
X170267428Y-106073761D01*
X170362666Y-106121380D01*
X170457904Y-106121380D01*
X170648380Y-105454714D02*
X171029333Y-105454714D01*
X170791238Y-105121380D02*
X170791238Y-105978523D01*
X170838857Y-106073761D01*
X170934095Y-106121380D01*
X171029333Y-106121380D01*
X171743619Y-106073761D02*
X171648380Y-106121380D01*
X171457904Y-106121380D01*
X171362666Y-106073761D01*
X171315047Y-105978523D01*
X171315047Y-105597571D01*
X171362666Y-105502333D01*
X171457904Y-105454714D01*
X171648380Y-105454714D01*
X171743619Y-105502333D01*
X171791238Y-105597571D01*
X171791238Y-105692809D01*
X171315047Y-105788047D01*
X172219809Y-106121380D02*
X172219809Y-105454714D01*
X172219809Y-105645190D02*
X172267428Y-105549952D01*
X172315047Y-105502333D01*
X172410285Y-105454714D01*
X172505523Y-105454714D01*
X172743619Y-105454714D02*
X172981714Y-106121380D01*
X173219809Y-105454714D02*
X172981714Y-106121380D01*
X172886476Y-106359476D01*
X172838857Y-106407095D01*
X172743619Y-106454714D01*
X174124571Y-106121380D02*
X173553142Y-106121380D01*
X173838857Y-106121380D02*
X173838857Y-105121380D01*
X173743619Y-105264238D01*
X173648380Y-105359476D01*
X173553142Y-105407095D01*
D10*
X170434095Y-114311857D02*
X171957904Y-114311857D01*
X171196000Y-115073761D02*
X171196000Y-113549952D01*
X170434095Y-99811857D02*
X171957904Y-99811857D01*
X167005523Y-108550285D02*
X166910285Y-108645523D01*
X166624571Y-108740761D01*
X166434095Y-108740761D01*
X166148380Y-108645523D01*
X165957904Y-108455047D01*
X165862666Y-108264571D01*
X165767428Y-107883619D01*
X165767428Y-107597904D01*
X165862666Y-107216952D01*
X165957904Y-107026476D01*
X166148380Y-106836000D01*
X166434095Y-106740761D01*
X166624571Y-106740761D01*
X166910285Y-106836000D01*
X167005523Y-106931238D01*
X169005523Y-108740761D02*
X168338857Y-107788380D01*
X167862666Y-108740761D02*
X167862666Y-106740761D01*
X168624571Y-106740761D01*
X168815047Y-106836000D01*
X168910285Y-106931238D01*
X169005523Y-107121714D01*
X169005523Y-107407428D01*
X168910285Y-107597904D01*
X168815047Y-107693142D01*
X168624571Y-107788380D01*
X167862666Y-107788380D01*
X169767428Y-106931238D02*
X169862666Y-106836000D01*
X170053142Y-106740761D01*
X170529333Y-106740761D01*
X170719809Y-106836000D01*
X170815047Y-106931238D01*
X170910285Y-107121714D01*
X170910285Y-107312190D01*
X170815047Y-107597904D01*
X169672190Y-108740761D01*
X170910285Y-108740761D01*
X172148380Y-106740761D02*
X172338857Y-106740761D01*
X172529333Y-106836000D01*
X172624571Y-106931238D01*
X172719809Y-107121714D01*
X172815047Y-107502666D01*
X172815047Y-107978857D01*
X172719809Y-108359809D01*
X172624571Y-108550285D01*
X172529333Y-108645523D01*
X172338857Y-108740761D01*
X172148380Y-108740761D01*
X171957904Y-108645523D01*
X171862666Y-108550285D01*
X171767428Y-108359809D01*
X171672190Y-107978857D01*
X171672190Y-107502666D01*
X171767428Y-107121714D01*
X171862666Y-106931238D01*
X171957904Y-106836000D01*
X172148380Y-106740761D01*
X173481714Y-106740761D02*
X174719809Y-106740761D01*
X174053142Y-107502666D01*
X174338857Y-107502666D01*
X174529333Y-107597904D01*
X174624571Y-107693142D01*
X174719809Y-107883619D01*
X174719809Y-108359809D01*
X174624571Y-108550285D01*
X174529333Y-108645523D01*
X174338857Y-108740761D01*
X173767428Y-108740761D01*
X173576952Y-108645523D01*
X173481714Y-108550285D01*
X175481714Y-106931238D02*
X175576952Y-106836000D01*
X175767428Y-106740761D01*
X176243619Y-106740761D01*
X176434095Y-106836000D01*
X176529333Y-106931238D01*
X176624571Y-107121714D01*
X176624571Y-107312190D01*
X176529333Y-107597904D01*
X175386476Y-108740761D01*
X176624571Y-108740761D01*
G04 #@! TO.C,Power1*
D14*
X168743619Y-101430380D02*
X168743619Y-100430380D01*
X169124571Y-100430380D01*
X169219809Y-100478000D01*
X169267428Y-100525619D01*
X169315047Y-100620857D01*
X169315047Y-100763714D01*
X169267428Y-100858952D01*
X169219809Y-100906571D01*
X169124571Y-100954190D01*
X168743619Y-100954190D01*
X169886476Y-101430380D02*
X169791238Y-101382761D01*
X169743619Y-101335142D01*
X169696000Y-101239904D01*
X169696000Y-100954190D01*
X169743619Y-100858952D01*
X169791238Y-100811333D01*
X169886476Y-100763714D01*
X170029333Y-100763714D01*
X170124571Y-100811333D01*
X170172190Y-100858952D01*
X170219809Y-100954190D01*
X170219809Y-101239904D01*
X170172190Y-101335142D01*
X170124571Y-101382761D01*
X170029333Y-101430380D01*
X169886476Y-101430380D01*
X170553142Y-100763714D02*
X170743619Y-101430380D01*
X170934095Y-100954190D01*
X171124571Y-101430380D01*
X171315047Y-100763714D01*
X172076952Y-101382761D02*
X171981714Y-101430380D01*
X171791238Y-101430380D01*
X171696000Y-101382761D01*
X171648380Y-101287523D01*
X171648380Y-100906571D01*
X171696000Y-100811333D01*
X171791238Y-100763714D01*
X171981714Y-100763714D01*
X172076952Y-100811333D01*
X172124571Y-100906571D01*
X172124571Y-101001809D01*
X171648380Y-101097047D01*
X172553142Y-101430380D02*
X172553142Y-100763714D01*
X172553142Y-100954190D02*
X172600761Y-100858952D01*
X172648380Y-100811333D01*
X172743619Y-100763714D01*
X172838857Y-100763714D01*
X173696000Y-101430380D02*
X173124571Y-101430380D01*
X173410285Y-101430380D02*
X173410285Y-100430380D01*
X173315047Y-100573238D01*
X173219809Y-100668476D01*
X173124571Y-100716095D01*
G04 #@! TO.C,POWER1*
X168414285Y-89952380D02*
X168414285Y-88952380D01*
X168795238Y-88952380D01*
X168890476Y-89000000D01*
X168938095Y-89047619D01*
X168985714Y-89142857D01*
X168985714Y-89285714D01*
X168938095Y-89380952D01*
X168890476Y-89428571D01*
X168795238Y-89476190D01*
X168414285Y-89476190D01*
X169604761Y-88952380D02*
X169795238Y-88952380D01*
X169890476Y-89000000D01*
X169985714Y-89095238D01*
X170033333Y-89285714D01*
X170033333Y-89619047D01*
X169985714Y-89809523D01*
X169890476Y-89904761D01*
X169795238Y-89952380D01*
X169604761Y-89952380D01*
X169509523Y-89904761D01*
X169414285Y-89809523D01*
X169366666Y-89619047D01*
X169366666Y-89285714D01*
X169414285Y-89095238D01*
X169509523Y-89000000D01*
X169604761Y-88952380D01*
X170366666Y-88952380D02*
X170604761Y-89952380D01*
X170795238Y-89238095D01*
X170985714Y-89952380D01*
X171223809Y-88952380D01*
X171604761Y-89428571D02*
X171938095Y-89428571D01*
X172080952Y-89952380D02*
X171604761Y-89952380D01*
X171604761Y-88952380D01*
X172080952Y-88952380D01*
X173080952Y-89952380D02*
X172747619Y-89476190D01*
X172509523Y-89952380D02*
X172509523Y-88952380D01*
X172890476Y-88952380D01*
X172985714Y-89000000D01*
X173033333Y-89047619D01*
X173080952Y-89142857D01*
X173080952Y-89285714D01*
X173033333Y-89380952D01*
X172985714Y-89428571D01*
X172890476Y-89476190D01*
X172509523Y-89476190D01*
X174033333Y-89952380D02*
X173461904Y-89952380D01*
X173747619Y-89952380D02*
X173747619Y-88952380D01*
X173652380Y-89095238D01*
X173557142Y-89190476D01*
X173461904Y-89238095D01*
G04 #@! TO.C,Shift1*
X138286190Y-69704761D02*
X138429047Y-69752380D01*
X138667142Y-69752380D01*
X138762380Y-69704761D01*
X138810000Y-69657142D01*
X138857619Y-69561904D01*
X138857619Y-69466666D01*
X138810000Y-69371428D01*
X138762380Y-69323809D01*
X138667142Y-69276190D01*
X138476666Y-69228571D01*
X138381428Y-69180952D01*
X138333809Y-69133333D01*
X138286190Y-69038095D01*
X138286190Y-68942857D01*
X138333809Y-68847619D01*
X138381428Y-68800000D01*
X138476666Y-68752380D01*
X138714761Y-68752380D01*
X138857619Y-68800000D01*
X139286190Y-69752380D02*
X139286190Y-68752380D01*
X139714761Y-69752380D02*
X139714761Y-69228571D01*
X139667142Y-69133333D01*
X139571904Y-69085714D01*
X139429047Y-69085714D01*
X139333809Y-69133333D01*
X139286190Y-69180952D01*
X140190952Y-69752380D02*
X140190952Y-69085714D01*
X140190952Y-68752380D02*
X140143333Y-68800000D01*
X140190952Y-68847619D01*
X140238571Y-68800000D01*
X140190952Y-68752380D01*
X140190952Y-68847619D01*
X140524285Y-69085714D02*
X140905238Y-69085714D01*
X140667142Y-69752380D02*
X140667142Y-68895238D01*
X140714761Y-68800000D01*
X140810000Y-68752380D01*
X140905238Y-68752380D01*
X141095714Y-69085714D02*
X141476666Y-69085714D01*
X141238571Y-68752380D02*
X141238571Y-69609523D01*
X141286190Y-69704761D01*
X141381428Y-69752380D01*
X141476666Y-69752380D01*
X142333809Y-69752380D02*
X141762380Y-69752380D01*
X142048095Y-69752380D02*
X142048095Y-68752380D01*
X141952857Y-68895238D01*
X141857619Y-68990476D01*
X141762380Y-69038095D01*
G04 #@! TO.C,Shift2*
X200076190Y-69504761D02*
X200219047Y-69552380D01*
X200457142Y-69552380D01*
X200552380Y-69504761D01*
X200600000Y-69457142D01*
X200647619Y-69361904D01*
X200647619Y-69266666D01*
X200600000Y-69171428D01*
X200552380Y-69123809D01*
X200457142Y-69076190D01*
X200266666Y-69028571D01*
X200171428Y-68980952D01*
X200123809Y-68933333D01*
X200076190Y-68838095D01*
X200076190Y-68742857D01*
X200123809Y-68647619D01*
X200171428Y-68600000D01*
X200266666Y-68552380D01*
X200504761Y-68552380D01*
X200647619Y-68600000D01*
X201076190Y-69552380D02*
X201076190Y-68552380D01*
X201504761Y-69552380D02*
X201504761Y-69028571D01*
X201457142Y-68933333D01*
X201361904Y-68885714D01*
X201219047Y-68885714D01*
X201123809Y-68933333D01*
X201076190Y-68980952D01*
X201980952Y-69552380D02*
X201980952Y-68885714D01*
X201980952Y-68552380D02*
X201933333Y-68600000D01*
X201980952Y-68647619D01*
X202028571Y-68600000D01*
X201980952Y-68552380D01*
X201980952Y-68647619D01*
X202314285Y-68885714D02*
X202695238Y-68885714D01*
X202457142Y-69552380D02*
X202457142Y-68695238D01*
X202504761Y-68600000D01*
X202600000Y-68552380D01*
X202695238Y-68552380D01*
X202885714Y-68885714D02*
X203266666Y-68885714D01*
X203028571Y-68552380D02*
X203028571Y-69409523D01*
X203076190Y-69504761D01*
X203171428Y-69552380D01*
X203266666Y-69552380D01*
X203552380Y-68647619D02*
X203600000Y-68600000D01*
X203695238Y-68552380D01*
X203933333Y-68552380D01*
X204028571Y-68600000D01*
X204076190Y-68647619D01*
X204123809Y-68742857D01*
X204123809Y-68838095D01*
X204076190Y-68980952D01*
X203504761Y-69552380D01*
X204123809Y-69552380D01*
G04 #@! TO.C,Shift4*
X169276190Y-69804761D02*
X169419047Y-69852380D01*
X169657142Y-69852380D01*
X169752380Y-69804761D01*
X169800000Y-69757142D01*
X169847619Y-69661904D01*
X169847619Y-69566666D01*
X169800000Y-69471428D01*
X169752380Y-69423809D01*
X169657142Y-69376190D01*
X169466666Y-69328571D01*
X169371428Y-69280952D01*
X169323809Y-69233333D01*
X169276190Y-69138095D01*
X169276190Y-69042857D01*
X169323809Y-68947619D01*
X169371428Y-68900000D01*
X169466666Y-68852380D01*
X169704761Y-68852380D01*
X169847619Y-68900000D01*
X170276190Y-69852380D02*
X170276190Y-68852380D01*
X170704761Y-69852380D02*
X170704761Y-69328571D01*
X170657142Y-69233333D01*
X170561904Y-69185714D01*
X170419047Y-69185714D01*
X170323809Y-69233333D01*
X170276190Y-69280952D01*
X171180952Y-69852380D02*
X171180952Y-69185714D01*
X171180952Y-68852380D02*
X171133333Y-68900000D01*
X171180952Y-68947619D01*
X171228571Y-68900000D01*
X171180952Y-68852380D01*
X171180952Y-68947619D01*
X171514285Y-69185714D02*
X171895238Y-69185714D01*
X171657142Y-69852380D02*
X171657142Y-68995238D01*
X171704761Y-68900000D01*
X171800000Y-68852380D01*
X171895238Y-68852380D01*
X172085714Y-69185714D02*
X172466666Y-69185714D01*
X172228571Y-68852380D02*
X172228571Y-69709523D01*
X172276190Y-69804761D01*
X172371428Y-69852380D01*
X172466666Y-69852380D01*
X173228571Y-69185714D02*
X173228571Y-69852380D01*
X172990476Y-68804761D02*
X172752380Y-69519047D01*
X173371428Y-69519047D01*
G04 #@! TO.C,Tiny1*
X169366666Y-122052380D02*
X169938095Y-122052380D01*
X169652380Y-123052380D02*
X169652380Y-122052380D01*
X170271428Y-123052380D02*
X170271428Y-122385714D01*
X170271428Y-122052380D02*
X170223809Y-122100000D01*
X170271428Y-122147619D01*
X170319047Y-122100000D01*
X170271428Y-122052380D01*
X170271428Y-122147619D01*
X170747619Y-122385714D02*
X170747619Y-123052380D01*
X170747619Y-122480952D02*
X170795238Y-122433333D01*
X170890476Y-122385714D01*
X171033333Y-122385714D01*
X171128571Y-122433333D01*
X171176190Y-122528571D01*
X171176190Y-123052380D01*
X171557142Y-122385714D02*
X171795238Y-123052380D01*
X172033333Y-122385714D02*
X171795238Y-123052380D01*
X171700000Y-123290476D01*
X171652380Y-123338095D01*
X171557142Y-123385714D01*
X172938095Y-123052380D02*
X172366666Y-123052380D01*
X172652380Y-123052380D02*
X172652380Y-122052380D01*
X172557142Y-122195238D01*
X172461904Y-122290476D01*
X172366666Y-122338095D01*
G04 #@! TO.C,Shift3*
X153004761Y-140313809D02*
X153052380Y-140170952D01*
X153052380Y-139932857D01*
X153004761Y-139837619D01*
X152957142Y-139790000D01*
X152861904Y-139742380D01*
X152766666Y-139742380D01*
X152671428Y-139790000D01*
X152623809Y-139837619D01*
X152576190Y-139932857D01*
X152528571Y-140123333D01*
X152480952Y-140218571D01*
X152433333Y-140266190D01*
X152338095Y-140313809D01*
X152242857Y-140313809D01*
X152147619Y-140266190D01*
X152100000Y-140218571D01*
X152052380Y-140123333D01*
X152052380Y-139885238D01*
X152100000Y-139742380D01*
X153052380Y-139313809D02*
X152052380Y-139313809D01*
X153052380Y-138885238D02*
X152528571Y-138885238D01*
X152433333Y-138932857D01*
X152385714Y-139028095D01*
X152385714Y-139170952D01*
X152433333Y-139266190D01*
X152480952Y-139313809D01*
X153052380Y-138409047D02*
X152385714Y-138409047D01*
X152052380Y-138409047D02*
X152100000Y-138456666D01*
X152147619Y-138409047D01*
X152100000Y-138361428D01*
X152052380Y-138409047D01*
X152147619Y-138409047D01*
X152385714Y-138075714D02*
X152385714Y-137694761D01*
X153052380Y-137932857D02*
X152195238Y-137932857D01*
X152100000Y-137885238D01*
X152052380Y-137790000D01*
X152052380Y-137694761D01*
X152385714Y-137504285D02*
X152385714Y-137123333D01*
X152052380Y-137361428D02*
X152909523Y-137361428D01*
X153004761Y-137313809D01*
X153052380Y-137218571D01*
X153052380Y-137123333D01*
X152052380Y-136885238D02*
X152052380Y-136266190D01*
X152433333Y-136599523D01*
X152433333Y-136456666D01*
X152480952Y-136361428D01*
X152528571Y-136313809D01*
X152623809Y-136266190D01*
X152861904Y-136266190D01*
X152957142Y-136313809D01*
X153004761Y-136361428D01*
X153052380Y-136456666D01*
X153052380Y-136742380D01*
X153004761Y-136837619D01*
X152957142Y-136885238D01*
G04 #@! TD*
M02*
