G04 #@! TF.GenerationSoftware,KiCad,Pcbnew,(5.0.0)*
G04 #@! TF.CreationDate,2019-09-06T11:34:28-04:00*
G04 #@! TF.ProjectId,MiniTempleT,4D696E6954656D706C65542E6B696361,rev?*
G04 #@! TF.SameCoordinates,Original*
G04 #@! TF.FileFunction,Legend,Bot*
G04 #@! TF.FilePolarity,Positive*
%FSLAX46Y46*%
G04 Gerber Fmt 4.6, Leading zero omitted, Abs format (unit mm)*
G04 Created by KiCad (PCBNEW (5.0.0)) date 09/06/19 11:34:28*
%MOMM*%
%LPD*%
G01*
G04 APERTURE LIST*
%ADD10C,0.300000*%
%ADD11C,0.250000*%
%ADD12C,0.175000*%
%ADD13C,0.200000*%
%ADD14C,0.120000*%
%ADD15C,0.150000*%
G04 APERTURE END LIST*
D10*
X197152380Y-64021428D02*
X197057142Y-63950000D01*
X196866666Y-63878571D01*
X196390476Y-63878571D01*
X196200000Y-63950000D01*
X196104761Y-64021428D01*
X196009523Y-64164285D01*
X196009523Y-64307142D01*
X196104761Y-64521428D01*
X197247619Y-65378571D01*
X196009523Y-65378571D01*
X194771428Y-63878571D02*
X194580952Y-63878571D01*
X194390476Y-63950000D01*
X194295238Y-64021428D01*
X194200000Y-64164285D01*
X194104761Y-64450000D01*
X194104761Y-64807142D01*
X194200000Y-65092857D01*
X194295238Y-65235714D01*
X194390476Y-65307142D01*
X194580952Y-65378571D01*
X194771428Y-65378571D01*
X194961904Y-65307142D01*
X195057142Y-65235714D01*
X195152380Y-65092857D01*
X195247619Y-64807142D01*
X195247619Y-64450000D01*
X195152380Y-64164285D01*
X195057142Y-64021428D01*
X194961904Y-63950000D01*
X194771428Y-63878571D01*
X192200000Y-65378571D02*
X193342857Y-65378571D01*
X192771428Y-65378571D02*
X192771428Y-63878571D01*
X192961904Y-64092857D01*
X193152380Y-64235714D01*
X193342857Y-64307142D01*
X191247619Y-65378571D02*
X190866666Y-65378571D01*
X190676190Y-65307142D01*
X190580952Y-65235714D01*
X190390476Y-65021428D01*
X190295238Y-64735714D01*
X190295238Y-64164285D01*
X190390476Y-64021428D01*
X190485714Y-63950000D01*
X190676190Y-63878571D01*
X191057142Y-63878571D01*
X191247619Y-63950000D01*
X191342857Y-64021428D01*
X191438095Y-64164285D01*
X191438095Y-64521428D01*
X191342857Y-64664285D01*
X191247619Y-64735714D01*
X191057142Y-64807142D01*
X190676190Y-64807142D01*
X190485714Y-64735714D01*
X190390476Y-64664285D01*
X190295238Y-64521428D01*
X188200000Y-63878571D02*
X187057142Y-63878571D01*
X187628571Y-65378571D02*
X187628571Y-63878571D01*
X185628571Y-65307142D02*
X185819047Y-65378571D01*
X186200000Y-65378571D01*
X186390476Y-65307142D01*
X186485714Y-65164285D01*
X186485714Y-64592857D01*
X186390476Y-64450000D01*
X186200000Y-64378571D01*
X185819047Y-64378571D01*
X185628571Y-64450000D01*
X185533333Y-64592857D01*
X185533333Y-64735714D01*
X186485714Y-64878571D01*
X184676190Y-65378571D02*
X184676190Y-64378571D01*
X184676190Y-64521428D02*
X184580952Y-64450000D01*
X184390476Y-64378571D01*
X184104761Y-64378571D01*
X183914285Y-64450000D01*
X183819047Y-64592857D01*
X183819047Y-65378571D01*
X183819047Y-64592857D02*
X183723809Y-64450000D01*
X183533333Y-64378571D01*
X183247619Y-64378571D01*
X183057142Y-64450000D01*
X182961904Y-64592857D01*
X182961904Y-65378571D01*
X182009523Y-64378571D02*
X182009523Y-65878571D01*
X182009523Y-64450000D02*
X181819047Y-64378571D01*
X181438095Y-64378571D01*
X181247619Y-64450000D01*
X181152380Y-64521428D01*
X181057142Y-64664285D01*
X181057142Y-65092857D01*
X181152380Y-65235714D01*
X181247619Y-65307142D01*
X181438095Y-65378571D01*
X181819047Y-65378571D01*
X182009523Y-65307142D01*
X179914285Y-65378571D02*
X180104761Y-65307142D01*
X180200000Y-65164285D01*
X180200000Y-63878571D01*
X178390476Y-65307142D02*
X178580952Y-65378571D01*
X178961904Y-65378571D01*
X179152380Y-65307142D01*
X179247619Y-65164285D01*
X179247619Y-64592857D01*
X179152380Y-64450000D01*
X178961904Y-64378571D01*
X178580952Y-64378571D01*
X178390476Y-64450000D01*
X178295238Y-64592857D01*
X178295238Y-64735714D01*
X179247619Y-64878571D01*
X175914285Y-65378571D02*
X175914285Y-63878571D01*
X174961904Y-64592857D02*
X174295238Y-64592857D01*
X174009523Y-65378571D02*
X174961904Y-65378571D01*
X174961904Y-63878571D01*
X174009523Y-63878571D01*
X173152380Y-64592857D02*
X172485714Y-64592857D01*
X172200000Y-65378571D02*
X173152380Y-65378571D01*
X173152380Y-63878571D01*
X172200000Y-63878571D01*
X171342857Y-64592857D02*
X170676190Y-64592857D01*
X170390476Y-65378571D02*
X171342857Y-65378571D01*
X171342857Y-63878571D01*
X170390476Y-63878571D01*
X168104761Y-65307142D02*
X167819047Y-65378571D01*
X167342857Y-65378571D01*
X167152380Y-65307142D01*
X167057142Y-65235714D01*
X166961904Y-65092857D01*
X166961904Y-64950000D01*
X167057142Y-64807142D01*
X167152380Y-64735714D01*
X167342857Y-64664285D01*
X167723809Y-64592857D01*
X167914285Y-64521428D01*
X168009523Y-64450000D01*
X168104761Y-64307142D01*
X168104761Y-64164285D01*
X168009523Y-64021428D01*
X167914285Y-63950000D01*
X167723809Y-63878571D01*
X167247619Y-63878571D01*
X166961904Y-63950000D01*
X165819047Y-65378571D02*
X166009523Y-65307142D01*
X166104761Y-65235714D01*
X166200000Y-65092857D01*
X166200000Y-64664285D01*
X166104761Y-64521428D01*
X166009523Y-64450000D01*
X165819047Y-64378571D01*
X165533333Y-64378571D01*
X165342857Y-64450000D01*
X165247619Y-64521428D01*
X165152380Y-64664285D01*
X165152380Y-65092857D01*
X165247619Y-65235714D01*
X165342857Y-65307142D01*
X165533333Y-65378571D01*
X165819047Y-65378571D01*
X164009523Y-65378571D02*
X164200000Y-65307142D01*
X164295238Y-65164285D01*
X164295238Y-63878571D01*
X162390476Y-65378571D02*
X162390476Y-63878571D01*
X162390476Y-65307142D02*
X162580952Y-65378571D01*
X162961904Y-65378571D01*
X163152380Y-65307142D01*
X163247619Y-65235714D01*
X163342857Y-65092857D01*
X163342857Y-64664285D01*
X163247619Y-64521428D01*
X163152380Y-64450000D01*
X162961904Y-64378571D01*
X162580952Y-64378571D01*
X162390476Y-64450000D01*
X160676190Y-65307142D02*
X160866666Y-65378571D01*
X161247619Y-65378571D01*
X161438095Y-65307142D01*
X161533333Y-65164285D01*
X161533333Y-64592857D01*
X161438095Y-64450000D01*
X161247619Y-64378571D01*
X160866666Y-64378571D01*
X160676190Y-64450000D01*
X160580952Y-64592857D01*
X160580952Y-64735714D01*
X161533333Y-64878571D01*
X159723809Y-65378571D02*
X159723809Y-64378571D01*
X159723809Y-64664285D02*
X159628571Y-64521428D01*
X159533333Y-64450000D01*
X159342857Y-64378571D01*
X159152380Y-64378571D01*
X158485714Y-65378571D02*
X158485714Y-64378571D01*
X158485714Y-63878571D02*
X158580952Y-63950000D01*
X158485714Y-64021428D01*
X158390476Y-63950000D01*
X158485714Y-63878571D01*
X158485714Y-64021428D01*
X157533333Y-64378571D02*
X157533333Y-65378571D01*
X157533333Y-64521428D02*
X157438095Y-64450000D01*
X157247619Y-64378571D01*
X156961904Y-64378571D01*
X156771428Y-64450000D01*
X156676190Y-64592857D01*
X156676190Y-65378571D01*
X154866666Y-64378571D02*
X154866666Y-65592857D01*
X154961904Y-65735714D01*
X155057142Y-65807142D01*
X155247619Y-65878571D01*
X155533333Y-65878571D01*
X155723809Y-65807142D01*
X154866666Y-65307142D02*
X155057142Y-65378571D01*
X155438095Y-65378571D01*
X155628571Y-65307142D01*
X155723809Y-65235714D01*
X155819047Y-65092857D01*
X155819047Y-64664285D01*
X155723809Y-64521428D01*
X155628571Y-64450000D01*
X155438095Y-64378571D01*
X155057142Y-64378571D01*
X154866666Y-64450000D01*
X152390476Y-64592857D02*
X151723809Y-64592857D01*
X151438095Y-65378571D02*
X152390476Y-65378571D01*
X152390476Y-63878571D01*
X151438095Y-63878571D01*
X150771428Y-64378571D02*
X150295238Y-65378571D01*
X149819047Y-64378571D01*
X148295238Y-65307142D02*
X148485714Y-65378571D01*
X148866666Y-65378571D01*
X149057142Y-65307142D01*
X149152380Y-65164285D01*
X149152380Y-64592857D01*
X149057142Y-64450000D01*
X148866666Y-64378571D01*
X148485714Y-64378571D01*
X148295238Y-64450000D01*
X148200000Y-64592857D01*
X148200000Y-64735714D01*
X149152380Y-64878571D01*
X147342857Y-64378571D02*
X147342857Y-65378571D01*
X147342857Y-64521428D02*
X147247619Y-64450000D01*
X147057142Y-64378571D01*
X146771428Y-64378571D01*
X146580952Y-64450000D01*
X146485714Y-64592857D01*
X146485714Y-65378571D01*
X145819047Y-64378571D02*
X145057142Y-64378571D01*
X145533333Y-63878571D02*
X145533333Y-65164285D01*
X145438095Y-65307142D01*
X145247619Y-65378571D01*
X145057142Y-65378571D01*
D11*
X174128571Y-120666666D02*
X173652380Y-120666666D01*
X174223809Y-120952380D02*
X173890476Y-119952380D01*
X173557142Y-120952380D01*
X173366666Y-119952380D02*
X172795238Y-119952380D01*
X173080952Y-120952380D02*
X173080952Y-119952380D01*
X172604761Y-120285714D02*
X172223809Y-120285714D01*
X172461904Y-119952380D02*
X172461904Y-120809523D01*
X172414285Y-120904761D01*
X172319047Y-120952380D01*
X172223809Y-120952380D01*
X171890476Y-120952380D02*
X171890476Y-120285714D01*
X171890476Y-119952380D02*
X171938095Y-120000000D01*
X171890476Y-120047619D01*
X171842857Y-120000000D01*
X171890476Y-119952380D01*
X171890476Y-120047619D01*
X171414285Y-120285714D02*
X171414285Y-120952380D01*
X171414285Y-120380952D02*
X171366666Y-120333333D01*
X171271428Y-120285714D01*
X171128571Y-120285714D01*
X171033333Y-120333333D01*
X170985714Y-120428571D01*
X170985714Y-120952380D01*
X170604761Y-120285714D02*
X170366666Y-120952380D01*
X170128571Y-120285714D02*
X170366666Y-120952380D01*
X170461904Y-121190476D01*
X170509523Y-121238095D01*
X170604761Y-121285714D01*
X169604761Y-120380952D02*
X169700000Y-120333333D01*
X169747619Y-120285714D01*
X169795238Y-120190476D01*
X169795238Y-120142857D01*
X169747619Y-120047619D01*
X169700000Y-120000000D01*
X169604761Y-119952380D01*
X169414285Y-119952380D01*
X169319047Y-120000000D01*
X169271428Y-120047619D01*
X169223809Y-120142857D01*
X169223809Y-120190476D01*
X169271428Y-120285714D01*
X169319047Y-120333333D01*
X169414285Y-120380952D01*
X169604761Y-120380952D01*
X169700000Y-120428571D01*
X169747619Y-120476190D01*
X169795238Y-120571428D01*
X169795238Y-120761904D01*
X169747619Y-120857142D01*
X169700000Y-120904761D01*
X169604761Y-120952380D01*
X169414285Y-120952380D01*
X169319047Y-120904761D01*
X169271428Y-120857142D01*
X169223809Y-120761904D01*
X169223809Y-120571428D01*
X169271428Y-120476190D01*
X169319047Y-120428571D01*
X169414285Y-120380952D01*
X168319047Y-119952380D02*
X168795238Y-119952380D01*
X168842857Y-120428571D01*
X168795238Y-120380952D01*
X168700000Y-120333333D01*
X168461904Y-120333333D01*
X168366666Y-120380952D01*
X168319047Y-120428571D01*
X168271428Y-120523809D01*
X168271428Y-120761904D01*
X168319047Y-120857142D01*
X168366666Y-120904761D01*
X168461904Y-120952380D01*
X168700000Y-120952380D01*
X168795238Y-120904761D01*
X168842857Y-120857142D01*
D10*
X165812857Y-137478571D02*
X164812857Y-137478571D01*
X165455714Y-138978571D01*
X163598571Y-137978571D02*
X163598571Y-138978571D01*
X163955714Y-137407142D02*
X164312857Y-138478571D01*
X163384285Y-138478571D01*
X162812857Y-138978571D02*
X162812857Y-137478571D01*
X162812857Y-138192857D02*
X161955714Y-138192857D01*
X161955714Y-138978571D02*
X161955714Y-137478571D01*
X160384285Y-138835714D02*
X160455714Y-138907142D01*
X160670000Y-138978571D01*
X160812857Y-138978571D01*
X161027142Y-138907142D01*
X161170000Y-138764285D01*
X161241428Y-138621428D01*
X161312857Y-138335714D01*
X161312857Y-138121428D01*
X161241428Y-137835714D01*
X161170000Y-137692857D01*
X161027142Y-137550000D01*
X160812857Y-137478571D01*
X160670000Y-137478571D01*
X160455714Y-137550000D01*
X160384285Y-137621428D01*
X159027142Y-137478571D02*
X159741428Y-137478571D01*
X159812857Y-138192857D01*
X159741428Y-138121428D01*
X159598571Y-138050000D01*
X159241428Y-138050000D01*
X159098571Y-138121428D01*
X159027142Y-138192857D01*
X158955714Y-138335714D01*
X158955714Y-138692857D01*
X159027142Y-138835714D01*
X159098571Y-138907142D01*
X159241428Y-138978571D01*
X159598571Y-138978571D01*
X159741428Y-138907142D01*
X159812857Y-138835714D01*
X158241428Y-138978571D02*
X157955714Y-138978571D01*
X157812857Y-138907142D01*
X157741428Y-138835714D01*
X157598571Y-138621428D01*
X157527142Y-138335714D01*
X157527142Y-137764285D01*
X157598571Y-137621428D01*
X157670000Y-137550000D01*
X157812857Y-137478571D01*
X158098571Y-137478571D01*
X158241428Y-137550000D01*
X158312857Y-137621428D01*
X158384285Y-137764285D01*
X158384285Y-138121428D01*
X158312857Y-138264285D01*
X158241428Y-138335714D01*
X158098571Y-138407142D01*
X157812857Y-138407142D01*
X157670000Y-138335714D01*
X157598571Y-138264285D01*
X157527142Y-138121428D01*
X156170000Y-137478571D02*
X156884285Y-137478571D01*
X156955714Y-138192857D01*
X156884285Y-138121428D01*
X156741428Y-138050000D01*
X156384285Y-138050000D01*
X156241428Y-138121428D01*
X156170000Y-138192857D01*
X156098571Y-138335714D01*
X156098571Y-138692857D01*
X156170000Y-138835714D01*
X156241428Y-138907142D01*
X156384285Y-138978571D01*
X156741428Y-138978571D01*
X156884285Y-138907142D01*
X156955714Y-138835714D01*
X201578571Y-73207142D02*
X201578571Y-74207142D01*
X203078571Y-73564285D01*
X202078571Y-75421428D02*
X203078571Y-75421428D01*
X201507142Y-75064285D02*
X202578571Y-74707142D01*
X202578571Y-75635714D01*
X203078571Y-76207142D02*
X201578571Y-76207142D01*
X202292857Y-76207142D02*
X202292857Y-77064285D01*
X203078571Y-77064285D02*
X201578571Y-77064285D01*
X202935714Y-78635714D02*
X203007142Y-78564285D01*
X203078571Y-78350000D01*
X203078571Y-78207142D01*
X203007142Y-77992857D01*
X202864285Y-77850000D01*
X202721428Y-77778571D01*
X202435714Y-77707142D01*
X202221428Y-77707142D01*
X201935714Y-77778571D01*
X201792857Y-77850000D01*
X201650000Y-77992857D01*
X201578571Y-78207142D01*
X201578571Y-78350000D01*
X201650000Y-78564285D01*
X201721428Y-78635714D01*
X201578571Y-79992857D02*
X201578571Y-79278571D01*
X202292857Y-79207142D01*
X202221428Y-79278571D01*
X202150000Y-79421428D01*
X202150000Y-79778571D01*
X202221428Y-79921428D01*
X202292857Y-79992857D01*
X202435714Y-80064285D01*
X202792857Y-80064285D01*
X202935714Y-79992857D01*
X203007142Y-79921428D01*
X203078571Y-79778571D01*
X203078571Y-79421428D01*
X203007142Y-79278571D01*
X202935714Y-79207142D01*
X203078571Y-80778571D02*
X203078571Y-81064285D01*
X203007142Y-81207142D01*
X202935714Y-81278571D01*
X202721428Y-81421428D01*
X202435714Y-81492857D01*
X201864285Y-81492857D01*
X201721428Y-81421428D01*
X201650000Y-81350000D01*
X201578571Y-81207142D01*
X201578571Y-80921428D01*
X201650000Y-80778571D01*
X201721428Y-80707142D01*
X201864285Y-80635714D01*
X202221428Y-80635714D01*
X202364285Y-80707142D01*
X202435714Y-80778571D01*
X202507142Y-80921428D01*
X202507142Y-81207142D01*
X202435714Y-81350000D01*
X202364285Y-81421428D01*
X202221428Y-81492857D01*
X201578571Y-82850000D02*
X201578571Y-82135714D01*
X202292857Y-82064285D01*
X202221428Y-82135714D01*
X202150000Y-82278571D01*
X202150000Y-82635714D01*
X202221428Y-82778571D01*
X202292857Y-82850000D01*
X202435714Y-82921428D01*
X202792857Y-82921428D01*
X202935714Y-82850000D01*
X203007142Y-82778571D01*
X203078571Y-82635714D01*
X203078571Y-82278571D01*
X203007142Y-82135714D01*
X202935714Y-82064285D01*
X170578571Y-72407142D02*
X170578571Y-73407142D01*
X172078571Y-72764285D01*
X171078571Y-74621428D02*
X172078571Y-74621428D01*
X170507142Y-74264285D02*
X171578571Y-73907142D01*
X171578571Y-74835714D01*
X172078571Y-75407142D02*
X170578571Y-75407142D01*
X171292857Y-75407142D02*
X171292857Y-76264285D01*
X172078571Y-76264285D02*
X170578571Y-76264285D01*
X171935714Y-77835714D02*
X172007142Y-77764285D01*
X172078571Y-77550000D01*
X172078571Y-77407142D01*
X172007142Y-77192857D01*
X171864285Y-77050000D01*
X171721428Y-76978571D01*
X171435714Y-76907142D01*
X171221428Y-76907142D01*
X170935714Y-76978571D01*
X170792857Y-77050000D01*
X170650000Y-77192857D01*
X170578571Y-77407142D01*
X170578571Y-77550000D01*
X170650000Y-77764285D01*
X170721428Y-77835714D01*
X170578571Y-79192857D02*
X170578571Y-78478571D01*
X171292857Y-78407142D01*
X171221428Y-78478571D01*
X171150000Y-78621428D01*
X171150000Y-78978571D01*
X171221428Y-79121428D01*
X171292857Y-79192857D01*
X171435714Y-79264285D01*
X171792857Y-79264285D01*
X171935714Y-79192857D01*
X172007142Y-79121428D01*
X172078571Y-78978571D01*
X172078571Y-78621428D01*
X172007142Y-78478571D01*
X171935714Y-78407142D01*
X172078571Y-79978571D02*
X172078571Y-80264285D01*
X172007142Y-80407142D01*
X171935714Y-80478571D01*
X171721428Y-80621428D01*
X171435714Y-80692857D01*
X170864285Y-80692857D01*
X170721428Y-80621428D01*
X170650000Y-80550000D01*
X170578571Y-80407142D01*
X170578571Y-80121428D01*
X170650000Y-79978571D01*
X170721428Y-79907142D01*
X170864285Y-79835714D01*
X171221428Y-79835714D01*
X171364285Y-79907142D01*
X171435714Y-79978571D01*
X171507142Y-80121428D01*
X171507142Y-80407142D01*
X171435714Y-80550000D01*
X171364285Y-80621428D01*
X171221428Y-80692857D01*
X170578571Y-82050000D02*
X170578571Y-81335714D01*
X171292857Y-81264285D01*
X171221428Y-81335714D01*
X171150000Y-81478571D01*
X171150000Y-81835714D01*
X171221428Y-81978571D01*
X171292857Y-82050000D01*
X171435714Y-82121428D01*
X171792857Y-82121428D01*
X171935714Y-82050000D01*
X172007142Y-81978571D01*
X172078571Y-81835714D01*
X172078571Y-81478571D01*
X172007142Y-81335714D01*
X171935714Y-81264285D01*
X139578571Y-72507142D02*
X139578571Y-73507142D01*
X141078571Y-72864285D01*
X140078571Y-74721428D02*
X141078571Y-74721428D01*
X139507142Y-74364285D02*
X140578571Y-74007142D01*
X140578571Y-74935714D01*
X141078571Y-75507142D02*
X139578571Y-75507142D01*
X140292857Y-75507142D02*
X140292857Y-76364285D01*
X141078571Y-76364285D02*
X139578571Y-76364285D01*
X140935714Y-77935714D02*
X141007142Y-77864285D01*
X141078571Y-77650000D01*
X141078571Y-77507142D01*
X141007142Y-77292857D01*
X140864285Y-77150000D01*
X140721428Y-77078571D01*
X140435714Y-77007142D01*
X140221428Y-77007142D01*
X139935714Y-77078571D01*
X139792857Y-77150000D01*
X139650000Y-77292857D01*
X139578571Y-77507142D01*
X139578571Y-77650000D01*
X139650000Y-77864285D01*
X139721428Y-77935714D01*
X139578571Y-79292857D02*
X139578571Y-78578571D01*
X140292857Y-78507142D01*
X140221428Y-78578571D01*
X140150000Y-78721428D01*
X140150000Y-79078571D01*
X140221428Y-79221428D01*
X140292857Y-79292857D01*
X140435714Y-79364285D01*
X140792857Y-79364285D01*
X140935714Y-79292857D01*
X141007142Y-79221428D01*
X141078571Y-79078571D01*
X141078571Y-78721428D01*
X141007142Y-78578571D01*
X140935714Y-78507142D01*
X141078571Y-80078571D02*
X141078571Y-80364285D01*
X141007142Y-80507142D01*
X140935714Y-80578571D01*
X140721428Y-80721428D01*
X140435714Y-80792857D01*
X139864285Y-80792857D01*
X139721428Y-80721428D01*
X139650000Y-80650000D01*
X139578571Y-80507142D01*
X139578571Y-80221428D01*
X139650000Y-80078571D01*
X139721428Y-80007142D01*
X139864285Y-79935714D01*
X140221428Y-79935714D01*
X140364285Y-80007142D01*
X140435714Y-80078571D01*
X140507142Y-80221428D01*
X140507142Y-80507142D01*
X140435714Y-80650000D01*
X140364285Y-80721428D01*
X140221428Y-80792857D01*
X139578571Y-82150000D02*
X139578571Y-81435714D01*
X140292857Y-81364285D01*
X140221428Y-81435714D01*
X140150000Y-81578571D01*
X140150000Y-81935714D01*
X140221428Y-82078571D01*
X140292857Y-82150000D01*
X140435714Y-82221428D01*
X140792857Y-82221428D01*
X140935714Y-82150000D01*
X141007142Y-82078571D01*
X141078571Y-81935714D01*
X141078571Y-81578571D01*
X141007142Y-81435714D01*
X140935714Y-81364285D01*
D11*
X177168404Y-102442571D02*
X176835071Y-103942571D01*
X176501738Y-102442571D01*
X175596976Y-103799714D02*
X175644595Y-103871142D01*
X175787452Y-103942571D01*
X175882690Y-103942571D01*
X176025547Y-103871142D01*
X176120785Y-103728285D01*
X176168404Y-103585428D01*
X176216023Y-103299714D01*
X176216023Y-103085428D01*
X176168404Y-102799714D01*
X176120785Y-102656857D01*
X176025547Y-102514000D01*
X175882690Y-102442571D01*
X175787452Y-102442571D01*
X175644595Y-102514000D01*
X175596976Y-102585428D01*
X174596976Y-103799714D02*
X174644595Y-103871142D01*
X174787452Y-103942571D01*
X174882690Y-103942571D01*
X175025547Y-103871142D01*
X175120785Y-103728285D01*
X175168404Y-103585428D01*
X175216023Y-103299714D01*
X175216023Y-103085428D01*
X175168404Y-102799714D01*
X175120785Y-102656857D01*
X175025547Y-102514000D01*
X174882690Y-102442571D01*
X174787452Y-102442571D01*
X174644595Y-102514000D01*
X174596976Y-102585428D01*
D10*
X185116320Y-138564577D02*
X184902034Y-138636005D01*
X184830605Y-138707434D01*
X184759177Y-138850291D01*
X184759177Y-139064577D01*
X184830605Y-139207434D01*
X184902034Y-139278862D01*
X185044891Y-139350291D01*
X185616320Y-139350291D01*
X185616320Y-137850291D01*
X185116320Y-137850291D01*
X184973462Y-137921720D01*
X184902034Y-137993148D01*
X184830605Y-138136005D01*
X184830605Y-138278862D01*
X184902034Y-138421720D01*
X184973462Y-138493148D01*
X185116320Y-138564577D01*
X185616320Y-138564577D01*
X184330605Y-137850291D02*
X183473462Y-137850291D01*
X183902034Y-139350291D02*
X183902034Y-137850291D01*
X182973462Y-139350291D02*
X182973462Y-137850291D01*
X182116320Y-139350291D01*
X182116320Y-137850291D01*
D12*
X173710059Y-121841071D02*
X173443392Y-123341071D01*
X173176726Y-121841071D01*
X172452916Y-123198214D02*
X172491011Y-123269642D01*
X172605297Y-123341071D01*
X172681488Y-123341071D01*
X172795773Y-123269642D01*
X172871964Y-123126785D01*
X172910059Y-122983928D01*
X172948154Y-122698214D01*
X172948154Y-122483928D01*
X172910059Y-122198214D01*
X172871964Y-122055357D01*
X172795773Y-121912500D01*
X172681488Y-121841071D01*
X172605297Y-121841071D01*
X172491011Y-121912500D01*
X172452916Y-121983928D01*
X171652916Y-123198214D02*
X171691011Y-123269642D01*
X171805297Y-123341071D01*
X171881488Y-123341071D01*
X171995773Y-123269642D01*
X172071964Y-123126785D01*
X172110059Y-122983928D01*
X172148154Y-122698214D01*
X172148154Y-122483928D01*
X172110059Y-122198214D01*
X172071964Y-122055357D01*
X171995773Y-121912500D01*
X171881488Y-121841071D01*
X171805297Y-121841071D01*
X171691011Y-121912500D01*
X171652916Y-121983928D01*
X170243392Y-123341071D02*
X170510059Y-122626785D01*
X170700535Y-123341071D02*
X170700535Y-121841071D01*
X170395773Y-121841071D01*
X170319583Y-121912500D01*
X170281488Y-121983928D01*
X170243392Y-122126785D01*
X170243392Y-122341071D01*
X170281488Y-122483928D01*
X170319583Y-122555357D01*
X170395773Y-122626785D01*
X170700535Y-122626785D01*
X169938630Y-123269642D02*
X169824345Y-123341071D01*
X169633869Y-123341071D01*
X169557678Y-123269642D01*
X169519583Y-123198214D01*
X169481488Y-123055357D01*
X169481488Y-122912500D01*
X169519583Y-122769642D01*
X169557678Y-122698214D01*
X169633869Y-122626785D01*
X169786250Y-122555357D01*
X169862440Y-122483928D01*
X169900535Y-122412500D01*
X169938630Y-122269642D01*
X169938630Y-122126785D01*
X169900535Y-121983928D01*
X169862440Y-121912500D01*
X169786250Y-121841071D01*
X169595773Y-121841071D01*
X169481488Y-121912500D01*
X169252916Y-121841071D02*
X168795773Y-121841071D01*
X169024345Y-123341071D02*
X169024345Y-121841071D01*
X173138630Y-125766071D02*
X173405297Y-125051785D01*
X173595773Y-125766071D02*
X173595773Y-124266071D01*
X173291011Y-124266071D01*
X173214821Y-124337500D01*
X173176726Y-124408928D01*
X173138630Y-124551785D01*
X173138630Y-124766071D01*
X173176726Y-124908928D01*
X173214821Y-124980357D01*
X173291011Y-125051785D01*
X173595773Y-125051785D01*
X172338630Y-125623214D02*
X172376726Y-125694642D01*
X172491011Y-125766071D01*
X172567202Y-125766071D01*
X172681488Y-125694642D01*
X172757678Y-125551785D01*
X172795773Y-125408928D01*
X172833869Y-125123214D01*
X172833869Y-124908928D01*
X172795773Y-124623214D01*
X172757678Y-124480357D01*
X172681488Y-124337500D01*
X172567202Y-124266071D01*
X172491011Y-124266071D01*
X172376726Y-124337500D01*
X172338630Y-124408928D01*
X171614821Y-125766071D02*
X171995773Y-125766071D01*
X171995773Y-124266071D01*
X171348154Y-125766071D02*
X171348154Y-124266071D01*
X170891011Y-125766071D02*
X171233869Y-124908928D01*
X170891011Y-124266071D02*
X171348154Y-125123214D01*
X169786250Y-124266071D02*
X169633869Y-124266071D01*
X169557678Y-124337500D01*
X169481488Y-124480357D01*
X169443392Y-124766071D01*
X169443392Y-125266071D01*
X169481488Y-125551785D01*
X169557678Y-125694642D01*
X169633869Y-125766071D01*
X169786250Y-125766071D01*
X169862440Y-125694642D01*
X169938630Y-125551785D01*
X169976726Y-125266071D01*
X169976726Y-124766071D01*
X169938630Y-124480357D01*
X169862440Y-124337500D01*
X169786250Y-124266071D01*
X169100535Y-124980357D02*
X168833869Y-124980357D01*
X168719583Y-125766071D02*
X169100535Y-125766071D01*
X169100535Y-124266071D01*
X168719583Y-124266071D01*
X173138630Y-128048214D02*
X173176726Y-128119642D01*
X173291011Y-128191071D01*
X173367202Y-128191071D01*
X173481488Y-128119642D01*
X173557678Y-127976785D01*
X173595773Y-127833928D01*
X173633869Y-127548214D01*
X173633869Y-127333928D01*
X173595773Y-127048214D01*
X173557678Y-126905357D01*
X173481488Y-126762500D01*
X173367202Y-126691071D01*
X173291011Y-126691071D01*
X173176726Y-126762500D01*
X173138630Y-126833928D01*
X172414821Y-128191071D02*
X172795773Y-128191071D01*
X172795773Y-126691071D01*
X172148154Y-128191071D02*
X172148154Y-126691071D01*
X171691011Y-128191071D02*
X172033869Y-127333928D01*
X171691011Y-126691071D02*
X172148154Y-127548214D01*
X170471964Y-127405357D02*
X170357678Y-127476785D01*
X170319583Y-127548214D01*
X170281488Y-127691071D01*
X170281488Y-127905357D01*
X170319583Y-128048214D01*
X170357678Y-128119642D01*
X170433869Y-128191071D01*
X170738630Y-128191071D01*
X170738630Y-126691071D01*
X170471964Y-126691071D01*
X170395773Y-126762500D01*
X170357678Y-126833928D01*
X170319583Y-126976785D01*
X170319583Y-127119642D01*
X170357678Y-127262500D01*
X170395773Y-127333928D01*
X170471964Y-127405357D01*
X170738630Y-127405357D01*
X170052916Y-126691071D02*
X169595773Y-126691071D01*
X169824345Y-128191071D02*
X169824345Y-126691071D01*
X169329107Y-128191071D02*
X169329107Y-126691071D01*
X168871964Y-128191071D01*
X168871964Y-126691071D01*
X173595773Y-130616071D02*
X173595773Y-129116071D01*
X173405297Y-129116071D01*
X173291011Y-129187500D01*
X173214821Y-129330357D01*
X173176726Y-129473214D01*
X173138630Y-129758928D01*
X173138630Y-129973214D01*
X173176726Y-130258928D01*
X173214821Y-130401785D01*
X173291011Y-130544642D01*
X173405297Y-130616071D01*
X173595773Y-130616071D01*
X172833869Y-130187500D02*
X172452916Y-130187500D01*
X172910059Y-130616071D02*
X172643392Y-129116071D01*
X172376726Y-130616071D01*
X172224345Y-129116071D02*
X171767202Y-129116071D01*
X171995773Y-130616071D02*
X171995773Y-129116071D01*
X170471964Y-129187500D02*
X170548154Y-129116071D01*
X170662440Y-129116071D01*
X170776726Y-129187500D01*
X170852916Y-129330357D01*
X170891011Y-129473214D01*
X170929107Y-129758928D01*
X170929107Y-129973214D01*
X170891011Y-130258928D01*
X170852916Y-130401785D01*
X170776726Y-130544642D01*
X170662440Y-130616071D01*
X170586250Y-130616071D01*
X170471964Y-130544642D01*
X170433869Y-130473214D01*
X170433869Y-129973214D01*
X170586250Y-129973214D01*
X170091011Y-130616071D02*
X170091011Y-129116071D01*
X169633869Y-130616071D01*
X169633869Y-129116071D01*
X169252916Y-130616071D02*
X169252916Y-129116071D01*
X169062440Y-129116071D01*
X168948154Y-129187500D01*
X168871964Y-129330357D01*
X168833869Y-129473214D01*
X168795773Y-129758928D01*
X168795773Y-129973214D01*
X168833869Y-130258928D01*
X168871964Y-130401785D01*
X168948154Y-130544642D01*
X169062440Y-130616071D01*
X169252916Y-130616071D01*
D10*
X173196000Y-113110571D02*
X172696000Y-114610571D01*
X172196000Y-113110571D01*
X170838857Y-114467714D02*
X170910285Y-114539142D01*
X171124571Y-114610571D01*
X171267428Y-114610571D01*
X171481714Y-114539142D01*
X171624571Y-114396285D01*
X171696000Y-114253428D01*
X171767428Y-113967714D01*
X171767428Y-113753428D01*
X171696000Y-113467714D01*
X171624571Y-113324857D01*
X171481714Y-113182000D01*
X171267428Y-113110571D01*
X171124571Y-113110571D01*
X170910285Y-113182000D01*
X170838857Y-113253428D01*
X169338857Y-114467714D02*
X169410285Y-114539142D01*
X169624571Y-114610571D01*
X169767428Y-114610571D01*
X169981714Y-114539142D01*
X170124571Y-114396285D01*
X170196000Y-114253428D01*
X170267428Y-113967714D01*
X170267428Y-113753428D01*
X170196000Y-113467714D01*
X170124571Y-113324857D01*
X169981714Y-113182000D01*
X169767428Y-113110571D01*
X169624571Y-113110571D01*
X169410285Y-113182000D01*
X169338857Y-113253428D01*
X172338857Y-99466000D02*
X172481714Y-99394571D01*
X172696000Y-99394571D01*
X172910285Y-99466000D01*
X173053142Y-99608857D01*
X173124571Y-99751714D01*
X173196000Y-100037428D01*
X173196000Y-100251714D01*
X173124571Y-100537428D01*
X173053142Y-100680285D01*
X172910285Y-100823142D01*
X172696000Y-100894571D01*
X172553142Y-100894571D01*
X172338857Y-100823142D01*
X172267428Y-100751714D01*
X172267428Y-100251714D01*
X172553142Y-100251714D01*
X171624571Y-100894571D02*
X171624571Y-99394571D01*
X170767428Y-100894571D01*
X170767428Y-99394571D01*
X170053142Y-100894571D02*
X170053142Y-99394571D01*
X169696000Y-99394571D01*
X169481714Y-99466000D01*
X169338857Y-99608857D01*
X169267428Y-99751714D01*
X169196000Y-100037428D01*
X169196000Y-100251714D01*
X169267428Y-100537428D01*
X169338857Y-100680285D01*
X169481714Y-100823142D01*
X169696000Y-100894571D01*
X170053142Y-100894571D01*
D13*
X182120953Y-105296000D02*
G75*
G03X182120953Y-105296000I-10924953J0D01*
G01*
D11*
X167294214Y-102641000D02*
X167389452Y-102569571D01*
X167532309Y-102569571D01*
X167675166Y-102641000D01*
X167770404Y-102783857D01*
X167818023Y-102926714D01*
X167865642Y-103212428D01*
X167865642Y-103426714D01*
X167818023Y-103712428D01*
X167770404Y-103855285D01*
X167675166Y-103998142D01*
X167532309Y-104069571D01*
X167437071Y-104069571D01*
X167294214Y-103998142D01*
X167246595Y-103926714D01*
X167246595Y-103426714D01*
X167437071Y-103426714D01*
X166818023Y-104069571D02*
X166818023Y-102569571D01*
X166246595Y-104069571D01*
X166246595Y-102569571D01*
X165770404Y-104069571D02*
X165770404Y-102569571D01*
X165532309Y-102569571D01*
X165389452Y-102641000D01*
X165294214Y-102783857D01*
X165246595Y-102926714D01*
X165198976Y-103212428D01*
X165198976Y-103426714D01*
X165246595Y-103712428D01*
X165294214Y-103855285D01*
X165389452Y-103998142D01*
X165532309Y-104069571D01*
X165770404Y-104069571D01*
D14*
G04 #@! TO.C,D17*
X176970000Y-83577488D02*
X176970000Y-86857488D01*
X182569999Y-85215042D02*
G75*
G02X176970000Y-86856512I-3039999J-1958D01*
G01*
X182569999Y-85218958D02*
G75*
G03X176970000Y-83577488I-3039999J1958D01*
G01*
G04 #@! TO.C,D1*
X128993000Y-83577488D02*
X128993000Y-86857488D01*
X134592999Y-85215042D02*
G75*
G02X128993000Y-86856512I-3039999J-1958D01*
G01*
X134592999Y-85218958D02*
G75*
G03X128993000Y-83577488I-3039999J1958D01*
G01*
G04 #@! TO.C,D2*
X129110000Y-71960488D02*
X129110000Y-75240488D01*
X134709999Y-73598042D02*
G75*
G02X129110000Y-75239512I-3039999J-1958D01*
G01*
X134709999Y-73601958D02*
G75*
G03X129110000Y-71960488I-3039999J1958D01*
G01*
G04 #@! TO.C,D3*
X129170000Y-56360488D02*
X129170000Y-59640488D01*
X134769999Y-57998042D02*
G75*
G02X129170000Y-59639512I-3039999J-1958D01*
G01*
X134769999Y-58001958D02*
G75*
G03X129170000Y-56360488I-3039999J1958D01*
G01*
G04 #@! TO.C,D4*
X140420000Y-56360488D02*
X140420000Y-59640488D01*
X146019999Y-57998042D02*
G75*
G02X140420000Y-59639512I-3039999J-1958D01*
G01*
X146019999Y-58001958D02*
G75*
G03X140420000Y-56360488I-3039999J1958D01*
G01*
G04 #@! TO.C,D5*
X151640000Y-56360488D02*
X151640000Y-59640488D01*
X157239999Y-57998042D02*
G75*
G02X151640000Y-59639512I-3039999J-1958D01*
G01*
X157239999Y-58001958D02*
G75*
G03X151640000Y-56360488I-3039999J1958D01*
G01*
G04 #@! TO.C,D6*
X162860000Y-56360488D02*
X162860000Y-59640488D01*
X168459999Y-57998042D02*
G75*
G02X162860000Y-59639512I-3039999J-1958D01*
G01*
X168459999Y-58001958D02*
G75*
G03X162860000Y-56360488I-3039999J1958D01*
G01*
G04 #@! TO.C,D7*
X174080000Y-56360488D02*
X174080000Y-59640488D01*
X179679999Y-57998042D02*
G75*
G02X174080000Y-59639512I-3039999J-1958D01*
G01*
X179679999Y-58001958D02*
G75*
G03X174080000Y-56360488I-3039999J1958D01*
G01*
G04 #@! TO.C,D8*
X184300000Y-56360488D02*
X184300000Y-59640488D01*
X189899999Y-57998042D02*
G75*
G02X184300000Y-59639512I-3039999J-1958D01*
G01*
X189899999Y-58001958D02*
G75*
G03X184300000Y-56360488I-3039999J1958D01*
G01*
G04 #@! TO.C,D9*
X196520000Y-56360488D02*
X196520000Y-59640488D01*
X202119999Y-57998042D02*
G75*
G02X196520000Y-59639512I-3039999J-1958D01*
G01*
X202119999Y-58001958D02*
G75*
G03X196520000Y-56360488I-3039999J1958D01*
G01*
G04 #@! TO.C,D10*
X207710000Y-56360488D02*
X207710000Y-59640488D01*
X213309999Y-57998042D02*
G75*
G02X207710000Y-59639512I-3039999J-1958D01*
G01*
X213309999Y-58001958D02*
G75*
G03X207710000Y-56360488I-3039999J1958D01*
G01*
G04 #@! TO.C,D11*
X207710000Y-71960488D02*
X207710000Y-75240488D01*
X213309999Y-73598042D02*
G75*
G02X207710000Y-75239512I-3039999J-1958D01*
G01*
X213309999Y-73601958D02*
G75*
G03X207710000Y-71960488I-3039999J1958D01*
G01*
G04 #@! TO.C,D12*
X207710000Y-83577488D02*
X207710000Y-86857488D01*
X213309999Y-85215042D02*
G75*
G02X207710000Y-86856512I-3039999J-1958D01*
G01*
X213309999Y-85218958D02*
G75*
G03X207710000Y-83577488I-3039999J1958D01*
G01*
G04 #@! TO.C,D13*
X190910000Y-83577488D02*
X190910000Y-86857488D01*
X196509999Y-85215042D02*
G75*
G02X190910000Y-86856512I-3039999J-1958D01*
G01*
X196509999Y-85218958D02*
G75*
G03X190910000Y-83577488I-3039999J1958D01*
G01*
G04 #@! TO.C,D14*
X190910000Y-71960488D02*
X190910000Y-75240488D01*
X196509999Y-73598042D02*
G75*
G02X190910000Y-75239512I-3039999J-1958D01*
G01*
X196509999Y-73601958D02*
G75*
G03X190910000Y-71960488I-3039999J1958D01*
G01*
G04 #@! TO.C,D15*
X183970000Y-71960488D02*
X183970000Y-75240488D01*
X189569999Y-73598042D02*
G75*
G02X183970000Y-75239512I-3039999J-1958D01*
G01*
X189569999Y-73601958D02*
G75*
G03X183970000Y-71960488I-3039999J1958D01*
G01*
G04 #@! TO.C,D16*
X176970000Y-71960488D02*
X176970000Y-75240488D01*
X182569999Y-73598042D02*
G75*
G02X176970000Y-75239512I-3039999J-1958D01*
G01*
X182569999Y-73601958D02*
G75*
G03X176970000Y-71960488I-3039999J1958D01*
G01*
G04 #@! TO.C,D18*
X176970000Y-118760488D02*
X176970000Y-122040488D01*
X182569999Y-120398042D02*
G75*
G02X176970000Y-122039512I-3039999J-1958D01*
G01*
X182569999Y-120401958D02*
G75*
G03X176970000Y-118760488I-3039999J1958D01*
G01*
G04 #@! TO.C,D19*
X176970000Y-128260488D02*
X176970000Y-131540488D01*
X182569999Y-129898042D02*
G75*
G02X176970000Y-131539512I-3039999J-1958D01*
G01*
X182569999Y-129901958D02*
G75*
G03X176970000Y-128260488I-3039999J1958D01*
G01*
G04 #@! TO.C,D20*
X186510000Y-128260488D02*
X186510000Y-131540488D01*
X192109999Y-129898042D02*
G75*
G02X186510000Y-131539512I-3039999J-1958D01*
G01*
X192109999Y-129901958D02*
G75*
G03X186510000Y-128260488I-3039999J1958D01*
G01*
G04 #@! TO.C,D21*
X186510000Y-145060488D02*
X186510000Y-148340488D01*
X192109999Y-146698042D02*
G75*
G02X186510000Y-148339512I-3039999J-1958D01*
G01*
X192109999Y-146701958D02*
G75*
G03X186510000Y-145060488I-3039999J1958D01*
G01*
G04 #@! TO.C,D22*
X174510000Y-145060488D02*
X174510000Y-148340488D01*
X180109999Y-146698042D02*
G75*
G02X174510000Y-148339512I-3039999J-1958D01*
G01*
X180109999Y-146701958D02*
G75*
G03X174510000Y-145060488I-3039999J1958D01*
G01*
G04 #@! TO.C,D23*
X162510000Y-145060488D02*
X162510000Y-148340488D01*
X168109999Y-146698042D02*
G75*
G02X162510000Y-148339512I-3039999J-1958D01*
G01*
X168109999Y-146701958D02*
G75*
G03X162510000Y-145060488I-3039999J1958D01*
G01*
G04 #@! TO.C,D24*
X150510000Y-145060488D02*
X150510000Y-148340488D01*
X156109999Y-146698042D02*
G75*
G02X150510000Y-148339512I-3039999J-1958D01*
G01*
X156109999Y-146701958D02*
G75*
G03X150510000Y-145060488I-3039999J1958D01*
G01*
G04 #@! TO.C,D25*
X150510000Y-128260488D02*
X150510000Y-131540488D01*
X156109999Y-129898042D02*
G75*
G02X150510000Y-131539512I-3039999J-1958D01*
G01*
X156109999Y-129901958D02*
G75*
G03X150510000Y-128260488I-3039999J1958D01*
G01*
G04 #@! TO.C,D26*
X159910000Y-128260488D02*
X159910000Y-131540488D01*
X165509999Y-129898042D02*
G75*
G02X159910000Y-131539512I-3039999J-1958D01*
G01*
X165509999Y-129901958D02*
G75*
G03X159910000Y-128260488I-3039999J1958D01*
G01*
G04 #@! TO.C,D27*
X159910000Y-118760488D02*
X159910000Y-122040488D01*
X165509999Y-120398042D02*
G75*
G02X159910000Y-122039512I-3039999J-1958D01*
G01*
X165509999Y-120401958D02*
G75*
G03X159910000Y-118760488I-3039999J1958D01*
G01*
G04 #@! TO.C,D28*
X159910000Y-83577488D02*
X159910000Y-86857488D01*
X165509999Y-85215042D02*
G75*
G02X159910000Y-86856512I-3039999J-1958D01*
G01*
X165509999Y-85218958D02*
G75*
G03X159910000Y-83577488I-3039999J1958D01*
G01*
G04 #@! TO.C,D29*
X159910000Y-71960488D02*
X159910000Y-75240488D01*
X165509999Y-73598042D02*
G75*
G02X159910000Y-75239512I-3039999J-1958D01*
G01*
X165509999Y-73601958D02*
G75*
G03X159910000Y-71960488I-3039999J1958D01*
G01*
G04 #@! TO.C,D30*
X152970000Y-71960488D02*
X152970000Y-75240488D01*
X158569999Y-73598042D02*
G75*
G02X152970000Y-75239512I-3039999J-1958D01*
G01*
X158569999Y-73601958D02*
G75*
G03X152970000Y-71960488I-3039999J1958D01*
G01*
G04 #@! TO.C,D31*
X145910000Y-71960488D02*
X145910000Y-75240488D01*
X151509999Y-73598042D02*
G75*
G02X145910000Y-75239512I-3039999J-1958D01*
G01*
X151509999Y-73601958D02*
G75*
G03X145910000Y-71960488I-3039999J1958D01*
G01*
G04 #@! TO.C,D32*
X145970000Y-83577488D02*
X145970000Y-86857488D01*
X151569999Y-85215042D02*
G75*
G02X145970000Y-86856512I-3039999J-1958D01*
G01*
X151569999Y-85218958D02*
G75*
G03X145970000Y-83577488I-3039999J1958D01*
G01*
G04 #@! TO.C,D17*
D15*
X181150685Y-87853780D02*
X181150685Y-86853780D01*
X180912590Y-86853780D01*
X180769733Y-86901400D01*
X180674495Y-86996638D01*
X180626876Y-87091876D01*
X180579257Y-87282352D01*
X180579257Y-87425209D01*
X180626876Y-87615685D01*
X180674495Y-87710923D01*
X180769733Y-87806161D01*
X180912590Y-87853780D01*
X181150685Y-87853780D01*
X179626876Y-87853780D02*
X180198304Y-87853780D01*
X179912590Y-87853780D02*
X179912590Y-86853780D01*
X180007828Y-86996638D01*
X180103066Y-87091876D01*
X180198304Y-87139495D01*
X179293542Y-86853780D02*
X178626876Y-86853780D01*
X179055447Y-87853780D01*
X180961752Y-83205628D02*
X180199847Y-83205628D01*
X180580800Y-83586580D02*
X180580800Y-82824676D01*
X178961752Y-83205628D02*
X178199847Y-83205628D01*
G04 #@! TO.C,D1*
X132697495Y-87853780D02*
X132697495Y-86853780D01*
X132459400Y-86853780D01*
X132316542Y-86901400D01*
X132221304Y-86996638D01*
X132173685Y-87091876D01*
X132126066Y-87282352D01*
X132126066Y-87425209D01*
X132173685Y-87615685D01*
X132221304Y-87710923D01*
X132316542Y-87806161D01*
X132459400Y-87853780D01*
X132697495Y-87853780D01*
X131173685Y-87853780D02*
X131745114Y-87853780D01*
X131459400Y-87853780D02*
X131459400Y-86853780D01*
X131554638Y-86996638D01*
X131649876Y-87091876D01*
X131745114Y-87139495D01*
X132984752Y-83205628D02*
X132222847Y-83205628D01*
X132603800Y-83586580D02*
X132603800Y-82824676D01*
X130984752Y-83205628D02*
X130222847Y-83205628D01*
G04 #@! TO.C,D2*
X132814495Y-76236780D02*
X132814495Y-75236780D01*
X132576400Y-75236780D01*
X132433542Y-75284400D01*
X132338304Y-75379638D01*
X132290685Y-75474876D01*
X132243066Y-75665352D01*
X132243066Y-75808209D01*
X132290685Y-75998685D01*
X132338304Y-76093923D01*
X132433542Y-76189161D01*
X132576400Y-76236780D01*
X132814495Y-76236780D01*
X131862114Y-75332019D02*
X131814495Y-75284400D01*
X131719257Y-75236780D01*
X131481161Y-75236780D01*
X131385923Y-75284400D01*
X131338304Y-75332019D01*
X131290685Y-75427257D01*
X131290685Y-75522495D01*
X131338304Y-75665352D01*
X131909733Y-76236780D01*
X131290685Y-76236780D01*
X133101752Y-71588628D02*
X132339847Y-71588628D01*
X132720800Y-71969580D02*
X132720800Y-71207676D01*
X131101752Y-71588628D02*
X130339847Y-71588628D01*
G04 #@! TO.C,D3*
X132874495Y-60636780D02*
X132874495Y-59636780D01*
X132636400Y-59636780D01*
X132493542Y-59684400D01*
X132398304Y-59779638D01*
X132350685Y-59874876D01*
X132303066Y-60065352D01*
X132303066Y-60208209D01*
X132350685Y-60398685D01*
X132398304Y-60493923D01*
X132493542Y-60589161D01*
X132636400Y-60636780D01*
X132874495Y-60636780D01*
X131969733Y-59636780D02*
X131350685Y-59636780D01*
X131684019Y-60017733D01*
X131541161Y-60017733D01*
X131445923Y-60065352D01*
X131398304Y-60112971D01*
X131350685Y-60208209D01*
X131350685Y-60446304D01*
X131398304Y-60541542D01*
X131445923Y-60589161D01*
X131541161Y-60636780D01*
X131826876Y-60636780D01*
X131922114Y-60589161D01*
X131969733Y-60541542D01*
X133161752Y-55988628D02*
X132399847Y-55988628D01*
X132780800Y-56369580D02*
X132780800Y-55607676D01*
X131161752Y-55988628D02*
X130399847Y-55988628D01*
G04 #@! TO.C,D4*
X144124495Y-60636780D02*
X144124495Y-59636780D01*
X143886400Y-59636780D01*
X143743542Y-59684400D01*
X143648304Y-59779638D01*
X143600685Y-59874876D01*
X143553066Y-60065352D01*
X143553066Y-60208209D01*
X143600685Y-60398685D01*
X143648304Y-60493923D01*
X143743542Y-60589161D01*
X143886400Y-60636780D01*
X144124495Y-60636780D01*
X142695923Y-59970114D02*
X142695923Y-60636780D01*
X142934019Y-59589161D02*
X143172114Y-60303447D01*
X142553066Y-60303447D01*
X144411752Y-55988628D02*
X143649847Y-55988628D01*
X144030800Y-56369580D02*
X144030800Y-55607676D01*
X142411752Y-55988628D02*
X141649847Y-55988628D01*
G04 #@! TO.C,D5*
X155344495Y-60636780D02*
X155344495Y-59636780D01*
X155106400Y-59636780D01*
X154963542Y-59684400D01*
X154868304Y-59779638D01*
X154820685Y-59874876D01*
X154773066Y-60065352D01*
X154773066Y-60208209D01*
X154820685Y-60398685D01*
X154868304Y-60493923D01*
X154963542Y-60589161D01*
X155106400Y-60636780D01*
X155344495Y-60636780D01*
X153868304Y-59636780D02*
X154344495Y-59636780D01*
X154392114Y-60112971D01*
X154344495Y-60065352D01*
X154249257Y-60017733D01*
X154011161Y-60017733D01*
X153915923Y-60065352D01*
X153868304Y-60112971D01*
X153820685Y-60208209D01*
X153820685Y-60446304D01*
X153868304Y-60541542D01*
X153915923Y-60589161D01*
X154011161Y-60636780D01*
X154249257Y-60636780D01*
X154344495Y-60589161D01*
X154392114Y-60541542D01*
X155631752Y-55988628D02*
X154869847Y-55988628D01*
X155250800Y-56369580D02*
X155250800Y-55607676D01*
X153631752Y-55988628D02*
X152869847Y-55988628D01*
G04 #@! TO.C,D6*
X166564495Y-60636780D02*
X166564495Y-59636780D01*
X166326400Y-59636780D01*
X166183542Y-59684400D01*
X166088304Y-59779638D01*
X166040685Y-59874876D01*
X165993066Y-60065352D01*
X165993066Y-60208209D01*
X166040685Y-60398685D01*
X166088304Y-60493923D01*
X166183542Y-60589161D01*
X166326400Y-60636780D01*
X166564495Y-60636780D01*
X165135923Y-59636780D02*
X165326400Y-59636780D01*
X165421638Y-59684400D01*
X165469257Y-59732019D01*
X165564495Y-59874876D01*
X165612114Y-60065352D01*
X165612114Y-60446304D01*
X165564495Y-60541542D01*
X165516876Y-60589161D01*
X165421638Y-60636780D01*
X165231161Y-60636780D01*
X165135923Y-60589161D01*
X165088304Y-60541542D01*
X165040685Y-60446304D01*
X165040685Y-60208209D01*
X165088304Y-60112971D01*
X165135923Y-60065352D01*
X165231161Y-60017733D01*
X165421638Y-60017733D01*
X165516876Y-60065352D01*
X165564495Y-60112971D01*
X165612114Y-60208209D01*
X166851752Y-55988628D02*
X166089847Y-55988628D01*
X166470800Y-56369580D02*
X166470800Y-55607676D01*
X164851752Y-55988628D02*
X164089847Y-55988628D01*
G04 #@! TO.C,D7*
X177784495Y-60636780D02*
X177784495Y-59636780D01*
X177546400Y-59636780D01*
X177403542Y-59684400D01*
X177308304Y-59779638D01*
X177260685Y-59874876D01*
X177213066Y-60065352D01*
X177213066Y-60208209D01*
X177260685Y-60398685D01*
X177308304Y-60493923D01*
X177403542Y-60589161D01*
X177546400Y-60636780D01*
X177784495Y-60636780D01*
X176879733Y-59636780D02*
X176213066Y-59636780D01*
X176641638Y-60636780D01*
X178071752Y-55988628D02*
X177309847Y-55988628D01*
X177690800Y-56369580D02*
X177690800Y-55607676D01*
X176071752Y-55988628D02*
X175309847Y-55988628D01*
G04 #@! TO.C,D8*
X188004495Y-60636780D02*
X188004495Y-59636780D01*
X187766400Y-59636780D01*
X187623542Y-59684400D01*
X187528304Y-59779638D01*
X187480685Y-59874876D01*
X187433066Y-60065352D01*
X187433066Y-60208209D01*
X187480685Y-60398685D01*
X187528304Y-60493923D01*
X187623542Y-60589161D01*
X187766400Y-60636780D01*
X188004495Y-60636780D01*
X186861638Y-60065352D02*
X186956876Y-60017733D01*
X187004495Y-59970114D01*
X187052114Y-59874876D01*
X187052114Y-59827257D01*
X187004495Y-59732019D01*
X186956876Y-59684400D01*
X186861638Y-59636780D01*
X186671161Y-59636780D01*
X186575923Y-59684400D01*
X186528304Y-59732019D01*
X186480685Y-59827257D01*
X186480685Y-59874876D01*
X186528304Y-59970114D01*
X186575923Y-60017733D01*
X186671161Y-60065352D01*
X186861638Y-60065352D01*
X186956876Y-60112971D01*
X187004495Y-60160590D01*
X187052114Y-60255828D01*
X187052114Y-60446304D01*
X187004495Y-60541542D01*
X186956876Y-60589161D01*
X186861638Y-60636780D01*
X186671161Y-60636780D01*
X186575923Y-60589161D01*
X186528304Y-60541542D01*
X186480685Y-60446304D01*
X186480685Y-60255828D01*
X186528304Y-60160590D01*
X186575923Y-60112971D01*
X186671161Y-60065352D01*
X188291752Y-55988628D02*
X187529847Y-55988628D01*
X187910800Y-56369580D02*
X187910800Y-55607676D01*
X186291752Y-55988628D02*
X185529847Y-55988628D01*
G04 #@! TO.C,D9*
X200224495Y-60636780D02*
X200224495Y-59636780D01*
X199986400Y-59636780D01*
X199843542Y-59684400D01*
X199748304Y-59779638D01*
X199700685Y-59874876D01*
X199653066Y-60065352D01*
X199653066Y-60208209D01*
X199700685Y-60398685D01*
X199748304Y-60493923D01*
X199843542Y-60589161D01*
X199986400Y-60636780D01*
X200224495Y-60636780D01*
X199176876Y-60636780D02*
X198986400Y-60636780D01*
X198891161Y-60589161D01*
X198843542Y-60541542D01*
X198748304Y-60398685D01*
X198700685Y-60208209D01*
X198700685Y-59827257D01*
X198748304Y-59732019D01*
X198795923Y-59684400D01*
X198891161Y-59636780D01*
X199081638Y-59636780D01*
X199176876Y-59684400D01*
X199224495Y-59732019D01*
X199272114Y-59827257D01*
X199272114Y-60065352D01*
X199224495Y-60160590D01*
X199176876Y-60208209D01*
X199081638Y-60255828D01*
X198891161Y-60255828D01*
X198795923Y-60208209D01*
X198748304Y-60160590D01*
X198700685Y-60065352D01*
X200511752Y-55988628D02*
X199749847Y-55988628D01*
X200130800Y-56369580D02*
X200130800Y-55607676D01*
X198511752Y-55988628D02*
X197749847Y-55988628D01*
G04 #@! TO.C,D10*
X211890685Y-60636780D02*
X211890685Y-59636780D01*
X211652590Y-59636780D01*
X211509733Y-59684400D01*
X211414495Y-59779638D01*
X211366876Y-59874876D01*
X211319257Y-60065352D01*
X211319257Y-60208209D01*
X211366876Y-60398685D01*
X211414495Y-60493923D01*
X211509733Y-60589161D01*
X211652590Y-60636780D01*
X211890685Y-60636780D01*
X210366876Y-60636780D02*
X210938304Y-60636780D01*
X210652590Y-60636780D02*
X210652590Y-59636780D01*
X210747828Y-59779638D01*
X210843066Y-59874876D01*
X210938304Y-59922495D01*
X209747828Y-59636780D02*
X209652590Y-59636780D01*
X209557352Y-59684400D01*
X209509733Y-59732019D01*
X209462114Y-59827257D01*
X209414495Y-60017733D01*
X209414495Y-60255828D01*
X209462114Y-60446304D01*
X209509733Y-60541542D01*
X209557352Y-60589161D01*
X209652590Y-60636780D01*
X209747828Y-60636780D01*
X209843066Y-60589161D01*
X209890685Y-60541542D01*
X209938304Y-60446304D01*
X209985923Y-60255828D01*
X209985923Y-60017733D01*
X209938304Y-59827257D01*
X209890685Y-59732019D01*
X209843066Y-59684400D01*
X209747828Y-59636780D01*
X211701752Y-55988628D02*
X210939847Y-55988628D01*
X211320800Y-56369580D02*
X211320800Y-55607676D01*
X209701752Y-55988628D02*
X208939847Y-55988628D01*
G04 #@! TO.C,D11*
X211890685Y-76236780D02*
X211890685Y-75236780D01*
X211652590Y-75236780D01*
X211509733Y-75284400D01*
X211414495Y-75379638D01*
X211366876Y-75474876D01*
X211319257Y-75665352D01*
X211319257Y-75808209D01*
X211366876Y-75998685D01*
X211414495Y-76093923D01*
X211509733Y-76189161D01*
X211652590Y-76236780D01*
X211890685Y-76236780D01*
X210366876Y-76236780D02*
X210938304Y-76236780D01*
X210652590Y-76236780D02*
X210652590Y-75236780D01*
X210747828Y-75379638D01*
X210843066Y-75474876D01*
X210938304Y-75522495D01*
X209414495Y-76236780D02*
X209985923Y-76236780D01*
X209700209Y-76236780D02*
X209700209Y-75236780D01*
X209795447Y-75379638D01*
X209890685Y-75474876D01*
X209985923Y-75522495D01*
X211701752Y-71588628D02*
X210939847Y-71588628D01*
X211320800Y-71969580D02*
X211320800Y-71207676D01*
X209701752Y-71588628D02*
X208939847Y-71588628D01*
G04 #@! TO.C,D12*
X211890685Y-87853780D02*
X211890685Y-86853780D01*
X211652590Y-86853780D01*
X211509733Y-86901400D01*
X211414495Y-86996638D01*
X211366876Y-87091876D01*
X211319257Y-87282352D01*
X211319257Y-87425209D01*
X211366876Y-87615685D01*
X211414495Y-87710923D01*
X211509733Y-87806161D01*
X211652590Y-87853780D01*
X211890685Y-87853780D01*
X210366876Y-87853780D02*
X210938304Y-87853780D01*
X210652590Y-87853780D02*
X210652590Y-86853780D01*
X210747828Y-86996638D01*
X210843066Y-87091876D01*
X210938304Y-87139495D01*
X209985923Y-86949019D02*
X209938304Y-86901400D01*
X209843066Y-86853780D01*
X209604971Y-86853780D01*
X209509733Y-86901400D01*
X209462114Y-86949019D01*
X209414495Y-87044257D01*
X209414495Y-87139495D01*
X209462114Y-87282352D01*
X210033542Y-87853780D01*
X209414495Y-87853780D01*
X211701752Y-83205628D02*
X210939847Y-83205628D01*
X211320800Y-83586580D02*
X211320800Y-82824676D01*
X209701752Y-83205628D02*
X208939847Y-83205628D01*
G04 #@! TO.C,D13*
X195090685Y-87853780D02*
X195090685Y-86853780D01*
X194852590Y-86853780D01*
X194709733Y-86901400D01*
X194614495Y-86996638D01*
X194566876Y-87091876D01*
X194519257Y-87282352D01*
X194519257Y-87425209D01*
X194566876Y-87615685D01*
X194614495Y-87710923D01*
X194709733Y-87806161D01*
X194852590Y-87853780D01*
X195090685Y-87853780D01*
X193566876Y-87853780D02*
X194138304Y-87853780D01*
X193852590Y-87853780D02*
X193852590Y-86853780D01*
X193947828Y-86996638D01*
X194043066Y-87091876D01*
X194138304Y-87139495D01*
X193233542Y-86853780D02*
X192614495Y-86853780D01*
X192947828Y-87234733D01*
X192804971Y-87234733D01*
X192709733Y-87282352D01*
X192662114Y-87329971D01*
X192614495Y-87425209D01*
X192614495Y-87663304D01*
X192662114Y-87758542D01*
X192709733Y-87806161D01*
X192804971Y-87853780D01*
X193090685Y-87853780D01*
X193185923Y-87806161D01*
X193233542Y-87758542D01*
X194901752Y-83205628D02*
X194139847Y-83205628D01*
X194520800Y-83586580D02*
X194520800Y-82824676D01*
X192901752Y-83205628D02*
X192139847Y-83205628D01*
G04 #@! TO.C,D14*
X195090685Y-76236780D02*
X195090685Y-75236780D01*
X194852590Y-75236780D01*
X194709733Y-75284400D01*
X194614495Y-75379638D01*
X194566876Y-75474876D01*
X194519257Y-75665352D01*
X194519257Y-75808209D01*
X194566876Y-75998685D01*
X194614495Y-76093923D01*
X194709733Y-76189161D01*
X194852590Y-76236780D01*
X195090685Y-76236780D01*
X193566876Y-76236780D02*
X194138304Y-76236780D01*
X193852590Y-76236780D02*
X193852590Y-75236780D01*
X193947828Y-75379638D01*
X194043066Y-75474876D01*
X194138304Y-75522495D01*
X192709733Y-75570114D02*
X192709733Y-76236780D01*
X192947828Y-75189161D02*
X193185923Y-75903447D01*
X192566876Y-75903447D01*
X194901752Y-71588628D02*
X194139847Y-71588628D01*
X194520800Y-71969580D02*
X194520800Y-71207676D01*
X192901752Y-71588628D02*
X192139847Y-71588628D01*
G04 #@! TO.C,D15*
X188150685Y-76236780D02*
X188150685Y-75236780D01*
X187912590Y-75236780D01*
X187769733Y-75284400D01*
X187674495Y-75379638D01*
X187626876Y-75474876D01*
X187579257Y-75665352D01*
X187579257Y-75808209D01*
X187626876Y-75998685D01*
X187674495Y-76093923D01*
X187769733Y-76189161D01*
X187912590Y-76236780D01*
X188150685Y-76236780D01*
X186626876Y-76236780D02*
X187198304Y-76236780D01*
X186912590Y-76236780D02*
X186912590Y-75236780D01*
X187007828Y-75379638D01*
X187103066Y-75474876D01*
X187198304Y-75522495D01*
X185722114Y-75236780D02*
X186198304Y-75236780D01*
X186245923Y-75712971D01*
X186198304Y-75665352D01*
X186103066Y-75617733D01*
X185864971Y-75617733D01*
X185769733Y-75665352D01*
X185722114Y-75712971D01*
X185674495Y-75808209D01*
X185674495Y-76046304D01*
X185722114Y-76141542D01*
X185769733Y-76189161D01*
X185864971Y-76236780D01*
X186103066Y-76236780D01*
X186198304Y-76189161D01*
X186245923Y-76141542D01*
X187961752Y-71588628D02*
X187199847Y-71588628D01*
X187580800Y-71969580D02*
X187580800Y-71207676D01*
X185961752Y-71588628D02*
X185199847Y-71588628D01*
G04 #@! TO.C,D16*
X181150685Y-76236780D02*
X181150685Y-75236780D01*
X180912590Y-75236780D01*
X180769733Y-75284400D01*
X180674495Y-75379638D01*
X180626876Y-75474876D01*
X180579257Y-75665352D01*
X180579257Y-75808209D01*
X180626876Y-75998685D01*
X180674495Y-76093923D01*
X180769733Y-76189161D01*
X180912590Y-76236780D01*
X181150685Y-76236780D01*
X179626876Y-76236780D02*
X180198304Y-76236780D01*
X179912590Y-76236780D02*
X179912590Y-75236780D01*
X180007828Y-75379638D01*
X180103066Y-75474876D01*
X180198304Y-75522495D01*
X178769733Y-75236780D02*
X178960209Y-75236780D01*
X179055447Y-75284400D01*
X179103066Y-75332019D01*
X179198304Y-75474876D01*
X179245923Y-75665352D01*
X179245923Y-76046304D01*
X179198304Y-76141542D01*
X179150685Y-76189161D01*
X179055447Y-76236780D01*
X178864971Y-76236780D01*
X178769733Y-76189161D01*
X178722114Y-76141542D01*
X178674495Y-76046304D01*
X178674495Y-75808209D01*
X178722114Y-75712971D01*
X178769733Y-75665352D01*
X178864971Y-75617733D01*
X179055447Y-75617733D01*
X179150685Y-75665352D01*
X179198304Y-75712971D01*
X179245923Y-75808209D01*
X180961752Y-71588628D02*
X180199847Y-71588628D01*
X180580800Y-71969580D02*
X180580800Y-71207676D01*
X178961752Y-71588628D02*
X178199847Y-71588628D01*
G04 #@! TO.C,D18*
X181150685Y-123036780D02*
X181150685Y-122036780D01*
X180912590Y-122036780D01*
X180769733Y-122084400D01*
X180674495Y-122179638D01*
X180626876Y-122274876D01*
X180579257Y-122465352D01*
X180579257Y-122608209D01*
X180626876Y-122798685D01*
X180674495Y-122893923D01*
X180769733Y-122989161D01*
X180912590Y-123036780D01*
X181150685Y-123036780D01*
X179626876Y-123036780D02*
X180198304Y-123036780D01*
X179912590Y-123036780D02*
X179912590Y-122036780D01*
X180007828Y-122179638D01*
X180103066Y-122274876D01*
X180198304Y-122322495D01*
X179055447Y-122465352D02*
X179150685Y-122417733D01*
X179198304Y-122370114D01*
X179245923Y-122274876D01*
X179245923Y-122227257D01*
X179198304Y-122132019D01*
X179150685Y-122084400D01*
X179055447Y-122036780D01*
X178864971Y-122036780D01*
X178769733Y-122084400D01*
X178722114Y-122132019D01*
X178674495Y-122227257D01*
X178674495Y-122274876D01*
X178722114Y-122370114D01*
X178769733Y-122417733D01*
X178864971Y-122465352D01*
X179055447Y-122465352D01*
X179150685Y-122512971D01*
X179198304Y-122560590D01*
X179245923Y-122655828D01*
X179245923Y-122846304D01*
X179198304Y-122941542D01*
X179150685Y-122989161D01*
X179055447Y-123036780D01*
X178864971Y-123036780D01*
X178769733Y-122989161D01*
X178722114Y-122941542D01*
X178674495Y-122846304D01*
X178674495Y-122655828D01*
X178722114Y-122560590D01*
X178769733Y-122512971D01*
X178864971Y-122465352D01*
X180961752Y-118388628D02*
X180199847Y-118388628D01*
X180580800Y-118769580D02*
X180580800Y-118007676D01*
X178961752Y-118388628D02*
X178199847Y-118388628D01*
G04 #@! TO.C,D19*
X181150685Y-132536780D02*
X181150685Y-131536780D01*
X180912590Y-131536780D01*
X180769733Y-131584400D01*
X180674495Y-131679638D01*
X180626876Y-131774876D01*
X180579257Y-131965352D01*
X180579257Y-132108209D01*
X180626876Y-132298685D01*
X180674495Y-132393923D01*
X180769733Y-132489161D01*
X180912590Y-132536780D01*
X181150685Y-132536780D01*
X179626876Y-132536780D02*
X180198304Y-132536780D01*
X179912590Y-132536780D02*
X179912590Y-131536780D01*
X180007828Y-131679638D01*
X180103066Y-131774876D01*
X180198304Y-131822495D01*
X179150685Y-132536780D02*
X178960209Y-132536780D01*
X178864971Y-132489161D01*
X178817352Y-132441542D01*
X178722114Y-132298685D01*
X178674495Y-132108209D01*
X178674495Y-131727257D01*
X178722114Y-131632019D01*
X178769733Y-131584400D01*
X178864971Y-131536780D01*
X179055447Y-131536780D01*
X179150685Y-131584400D01*
X179198304Y-131632019D01*
X179245923Y-131727257D01*
X179245923Y-131965352D01*
X179198304Y-132060590D01*
X179150685Y-132108209D01*
X179055447Y-132155828D01*
X178864971Y-132155828D01*
X178769733Y-132108209D01*
X178722114Y-132060590D01*
X178674495Y-131965352D01*
X180961752Y-127888628D02*
X180199847Y-127888628D01*
X180580800Y-128269580D02*
X180580800Y-127507676D01*
X178961752Y-127888628D02*
X178199847Y-127888628D01*
G04 #@! TO.C,D20*
X190690685Y-132536780D02*
X190690685Y-131536780D01*
X190452590Y-131536780D01*
X190309733Y-131584400D01*
X190214495Y-131679638D01*
X190166876Y-131774876D01*
X190119257Y-131965352D01*
X190119257Y-132108209D01*
X190166876Y-132298685D01*
X190214495Y-132393923D01*
X190309733Y-132489161D01*
X190452590Y-132536780D01*
X190690685Y-132536780D01*
X189738304Y-131632019D02*
X189690685Y-131584400D01*
X189595447Y-131536780D01*
X189357352Y-131536780D01*
X189262114Y-131584400D01*
X189214495Y-131632019D01*
X189166876Y-131727257D01*
X189166876Y-131822495D01*
X189214495Y-131965352D01*
X189785923Y-132536780D01*
X189166876Y-132536780D01*
X188547828Y-131536780D02*
X188452590Y-131536780D01*
X188357352Y-131584400D01*
X188309733Y-131632019D01*
X188262114Y-131727257D01*
X188214495Y-131917733D01*
X188214495Y-132155828D01*
X188262114Y-132346304D01*
X188309733Y-132441542D01*
X188357352Y-132489161D01*
X188452590Y-132536780D01*
X188547828Y-132536780D01*
X188643066Y-132489161D01*
X188690685Y-132441542D01*
X188738304Y-132346304D01*
X188785923Y-132155828D01*
X188785923Y-131917733D01*
X188738304Y-131727257D01*
X188690685Y-131632019D01*
X188643066Y-131584400D01*
X188547828Y-131536780D01*
X190501752Y-127888628D02*
X189739847Y-127888628D01*
X190120800Y-128269580D02*
X190120800Y-127507676D01*
X188501752Y-127888628D02*
X187739847Y-127888628D01*
G04 #@! TO.C,D21*
X190690685Y-149336780D02*
X190690685Y-148336780D01*
X190452590Y-148336780D01*
X190309733Y-148384400D01*
X190214495Y-148479638D01*
X190166876Y-148574876D01*
X190119257Y-148765352D01*
X190119257Y-148908209D01*
X190166876Y-149098685D01*
X190214495Y-149193923D01*
X190309733Y-149289161D01*
X190452590Y-149336780D01*
X190690685Y-149336780D01*
X189738304Y-148432019D02*
X189690685Y-148384400D01*
X189595447Y-148336780D01*
X189357352Y-148336780D01*
X189262114Y-148384400D01*
X189214495Y-148432019D01*
X189166876Y-148527257D01*
X189166876Y-148622495D01*
X189214495Y-148765352D01*
X189785923Y-149336780D01*
X189166876Y-149336780D01*
X188214495Y-149336780D02*
X188785923Y-149336780D01*
X188500209Y-149336780D02*
X188500209Y-148336780D01*
X188595447Y-148479638D01*
X188690685Y-148574876D01*
X188785923Y-148622495D01*
X190501752Y-144688628D02*
X189739847Y-144688628D01*
X190120800Y-145069580D02*
X190120800Y-144307676D01*
X188501752Y-144688628D02*
X187739847Y-144688628D01*
G04 #@! TO.C,D22*
X178690685Y-149336780D02*
X178690685Y-148336780D01*
X178452590Y-148336780D01*
X178309733Y-148384400D01*
X178214495Y-148479638D01*
X178166876Y-148574876D01*
X178119257Y-148765352D01*
X178119257Y-148908209D01*
X178166876Y-149098685D01*
X178214495Y-149193923D01*
X178309733Y-149289161D01*
X178452590Y-149336780D01*
X178690685Y-149336780D01*
X177738304Y-148432019D02*
X177690685Y-148384400D01*
X177595447Y-148336780D01*
X177357352Y-148336780D01*
X177262114Y-148384400D01*
X177214495Y-148432019D01*
X177166876Y-148527257D01*
X177166876Y-148622495D01*
X177214495Y-148765352D01*
X177785923Y-149336780D01*
X177166876Y-149336780D01*
X176785923Y-148432019D02*
X176738304Y-148384400D01*
X176643066Y-148336780D01*
X176404971Y-148336780D01*
X176309733Y-148384400D01*
X176262114Y-148432019D01*
X176214495Y-148527257D01*
X176214495Y-148622495D01*
X176262114Y-148765352D01*
X176833542Y-149336780D01*
X176214495Y-149336780D01*
X178501752Y-144688628D02*
X177739847Y-144688628D01*
X178120800Y-145069580D02*
X178120800Y-144307676D01*
X176501752Y-144688628D02*
X175739847Y-144688628D01*
G04 #@! TO.C,D23*
X166690685Y-149336780D02*
X166690685Y-148336780D01*
X166452590Y-148336780D01*
X166309733Y-148384400D01*
X166214495Y-148479638D01*
X166166876Y-148574876D01*
X166119257Y-148765352D01*
X166119257Y-148908209D01*
X166166876Y-149098685D01*
X166214495Y-149193923D01*
X166309733Y-149289161D01*
X166452590Y-149336780D01*
X166690685Y-149336780D01*
X165738304Y-148432019D02*
X165690685Y-148384400D01*
X165595447Y-148336780D01*
X165357352Y-148336780D01*
X165262114Y-148384400D01*
X165214495Y-148432019D01*
X165166876Y-148527257D01*
X165166876Y-148622495D01*
X165214495Y-148765352D01*
X165785923Y-149336780D01*
X165166876Y-149336780D01*
X164833542Y-148336780D02*
X164214495Y-148336780D01*
X164547828Y-148717733D01*
X164404971Y-148717733D01*
X164309733Y-148765352D01*
X164262114Y-148812971D01*
X164214495Y-148908209D01*
X164214495Y-149146304D01*
X164262114Y-149241542D01*
X164309733Y-149289161D01*
X164404971Y-149336780D01*
X164690685Y-149336780D01*
X164785923Y-149289161D01*
X164833542Y-149241542D01*
X166501752Y-144688628D02*
X165739847Y-144688628D01*
X166120800Y-145069580D02*
X166120800Y-144307676D01*
X164501752Y-144688628D02*
X163739847Y-144688628D01*
G04 #@! TO.C,D24*
X154690685Y-149336780D02*
X154690685Y-148336780D01*
X154452590Y-148336780D01*
X154309733Y-148384400D01*
X154214495Y-148479638D01*
X154166876Y-148574876D01*
X154119257Y-148765352D01*
X154119257Y-148908209D01*
X154166876Y-149098685D01*
X154214495Y-149193923D01*
X154309733Y-149289161D01*
X154452590Y-149336780D01*
X154690685Y-149336780D01*
X153738304Y-148432019D02*
X153690685Y-148384400D01*
X153595447Y-148336780D01*
X153357352Y-148336780D01*
X153262114Y-148384400D01*
X153214495Y-148432019D01*
X153166876Y-148527257D01*
X153166876Y-148622495D01*
X153214495Y-148765352D01*
X153785923Y-149336780D01*
X153166876Y-149336780D01*
X152309733Y-148670114D02*
X152309733Y-149336780D01*
X152547828Y-148289161D02*
X152785923Y-149003447D01*
X152166876Y-149003447D01*
X154501752Y-144688628D02*
X153739847Y-144688628D01*
X154120800Y-145069580D02*
X154120800Y-144307676D01*
X152501752Y-144688628D02*
X151739847Y-144688628D01*
G04 #@! TO.C,D25*
X154690685Y-132536780D02*
X154690685Y-131536780D01*
X154452590Y-131536780D01*
X154309733Y-131584400D01*
X154214495Y-131679638D01*
X154166876Y-131774876D01*
X154119257Y-131965352D01*
X154119257Y-132108209D01*
X154166876Y-132298685D01*
X154214495Y-132393923D01*
X154309733Y-132489161D01*
X154452590Y-132536780D01*
X154690685Y-132536780D01*
X153738304Y-131632019D02*
X153690685Y-131584400D01*
X153595447Y-131536780D01*
X153357352Y-131536780D01*
X153262114Y-131584400D01*
X153214495Y-131632019D01*
X153166876Y-131727257D01*
X153166876Y-131822495D01*
X153214495Y-131965352D01*
X153785923Y-132536780D01*
X153166876Y-132536780D01*
X152262114Y-131536780D02*
X152738304Y-131536780D01*
X152785923Y-132012971D01*
X152738304Y-131965352D01*
X152643066Y-131917733D01*
X152404971Y-131917733D01*
X152309733Y-131965352D01*
X152262114Y-132012971D01*
X152214495Y-132108209D01*
X152214495Y-132346304D01*
X152262114Y-132441542D01*
X152309733Y-132489161D01*
X152404971Y-132536780D01*
X152643066Y-132536780D01*
X152738304Y-132489161D01*
X152785923Y-132441542D01*
X154501752Y-127888628D02*
X153739847Y-127888628D01*
X154120800Y-128269580D02*
X154120800Y-127507676D01*
X152501752Y-127888628D02*
X151739847Y-127888628D01*
G04 #@! TO.C,D26*
X164090685Y-132536780D02*
X164090685Y-131536780D01*
X163852590Y-131536780D01*
X163709733Y-131584400D01*
X163614495Y-131679638D01*
X163566876Y-131774876D01*
X163519257Y-131965352D01*
X163519257Y-132108209D01*
X163566876Y-132298685D01*
X163614495Y-132393923D01*
X163709733Y-132489161D01*
X163852590Y-132536780D01*
X164090685Y-132536780D01*
X163138304Y-131632019D02*
X163090685Y-131584400D01*
X162995447Y-131536780D01*
X162757352Y-131536780D01*
X162662114Y-131584400D01*
X162614495Y-131632019D01*
X162566876Y-131727257D01*
X162566876Y-131822495D01*
X162614495Y-131965352D01*
X163185923Y-132536780D01*
X162566876Y-132536780D01*
X161709733Y-131536780D02*
X161900209Y-131536780D01*
X161995447Y-131584400D01*
X162043066Y-131632019D01*
X162138304Y-131774876D01*
X162185923Y-131965352D01*
X162185923Y-132346304D01*
X162138304Y-132441542D01*
X162090685Y-132489161D01*
X161995447Y-132536780D01*
X161804971Y-132536780D01*
X161709733Y-132489161D01*
X161662114Y-132441542D01*
X161614495Y-132346304D01*
X161614495Y-132108209D01*
X161662114Y-132012971D01*
X161709733Y-131965352D01*
X161804971Y-131917733D01*
X161995447Y-131917733D01*
X162090685Y-131965352D01*
X162138304Y-132012971D01*
X162185923Y-132108209D01*
X163901752Y-127888628D02*
X163139847Y-127888628D01*
X163520800Y-128269580D02*
X163520800Y-127507676D01*
X161901752Y-127888628D02*
X161139847Y-127888628D01*
G04 #@! TO.C,D27*
X164090685Y-123036780D02*
X164090685Y-122036780D01*
X163852590Y-122036780D01*
X163709733Y-122084400D01*
X163614495Y-122179638D01*
X163566876Y-122274876D01*
X163519257Y-122465352D01*
X163519257Y-122608209D01*
X163566876Y-122798685D01*
X163614495Y-122893923D01*
X163709733Y-122989161D01*
X163852590Y-123036780D01*
X164090685Y-123036780D01*
X163138304Y-122132019D02*
X163090685Y-122084400D01*
X162995447Y-122036780D01*
X162757352Y-122036780D01*
X162662114Y-122084400D01*
X162614495Y-122132019D01*
X162566876Y-122227257D01*
X162566876Y-122322495D01*
X162614495Y-122465352D01*
X163185923Y-123036780D01*
X162566876Y-123036780D01*
X162233542Y-122036780D02*
X161566876Y-122036780D01*
X161995447Y-123036780D01*
X163901752Y-118388628D02*
X163139847Y-118388628D01*
X163520800Y-118769580D02*
X163520800Y-118007676D01*
X161901752Y-118388628D02*
X161139847Y-118388628D01*
G04 #@! TO.C,D28*
X164090685Y-87853780D02*
X164090685Y-86853780D01*
X163852590Y-86853780D01*
X163709733Y-86901400D01*
X163614495Y-86996638D01*
X163566876Y-87091876D01*
X163519257Y-87282352D01*
X163519257Y-87425209D01*
X163566876Y-87615685D01*
X163614495Y-87710923D01*
X163709733Y-87806161D01*
X163852590Y-87853780D01*
X164090685Y-87853780D01*
X163138304Y-86949019D02*
X163090685Y-86901400D01*
X162995447Y-86853780D01*
X162757352Y-86853780D01*
X162662114Y-86901400D01*
X162614495Y-86949019D01*
X162566876Y-87044257D01*
X162566876Y-87139495D01*
X162614495Y-87282352D01*
X163185923Y-87853780D01*
X162566876Y-87853780D01*
X161995447Y-87282352D02*
X162090685Y-87234733D01*
X162138304Y-87187114D01*
X162185923Y-87091876D01*
X162185923Y-87044257D01*
X162138304Y-86949019D01*
X162090685Y-86901400D01*
X161995447Y-86853780D01*
X161804971Y-86853780D01*
X161709733Y-86901400D01*
X161662114Y-86949019D01*
X161614495Y-87044257D01*
X161614495Y-87091876D01*
X161662114Y-87187114D01*
X161709733Y-87234733D01*
X161804971Y-87282352D01*
X161995447Y-87282352D01*
X162090685Y-87329971D01*
X162138304Y-87377590D01*
X162185923Y-87472828D01*
X162185923Y-87663304D01*
X162138304Y-87758542D01*
X162090685Y-87806161D01*
X161995447Y-87853780D01*
X161804971Y-87853780D01*
X161709733Y-87806161D01*
X161662114Y-87758542D01*
X161614495Y-87663304D01*
X161614495Y-87472828D01*
X161662114Y-87377590D01*
X161709733Y-87329971D01*
X161804971Y-87282352D01*
X163901752Y-83205628D02*
X163139847Y-83205628D01*
X163520800Y-83586580D02*
X163520800Y-82824676D01*
X161901752Y-83205628D02*
X161139847Y-83205628D01*
G04 #@! TO.C,D29*
X164090685Y-76236780D02*
X164090685Y-75236780D01*
X163852590Y-75236780D01*
X163709733Y-75284400D01*
X163614495Y-75379638D01*
X163566876Y-75474876D01*
X163519257Y-75665352D01*
X163519257Y-75808209D01*
X163566876Y-75998685D01*
X163614495Y-76093923D01*
X163709733Y-76189161D01*
X163852590Y-76236780D01*
X164090685Y-76236780D01*
X163138304Y-75332019D02*
X163090685Y-75284400D01*
X162995447Y-75236780D01*
X162757352Y-75236780D01*
X162662114Y-75284400D01*
X162614495Y-75332019D01*
X162566876Y-75427257D01*
X162566876Y-75522495D01*
X162614495Y-75665352D01*
X163185923Y-76236780D01*
X162566876Y-76236780D01*
X162090685Y-76236780D02*
X161900209Y-76236780D01*
X161804971Y-76189161D01*
X161757352Y-76141542D01*
X161662114Y-75998685D01*
X161614495Y-75808209D01*
X161614495Y-75427257D01*
X161662114Y-75332019D01*
X161709733Y-75284400D01*
X161804971Y-75236780D01*
X161995447Y-75236780D01*
X162090685Y-75284400D01*
X162138304Y-75332019D01*
X162185923Y-75427257D01*
X162185923Y-75665352D01*
X162138304Y-75760590D01*
X162090685Y-75808209D01*
X161995447Y-75855828D01*
X161804971Y-75855828D01*
X161709733Y-75808209D01*
X161662114Y-75760590D01*
X161614495Y-75665352D01*
X163901752Y-71588628D02*
X163139847Y-71588628D01*
X163520800Y-71969580D02*
X163520800Y-71207676D01*
X161901752Y-71588628D02*
X161139847Y-71588628D01*
G04 #@! TO.C,D30*
X157150685Y-76236780D02*
X157150685Y-75236780D01*
X156912590Y-75236780D01*
X156769733Y-75284400D01*
X156674495Y-75379638D01*
X156626876Y-75474876D01*
X156579257Y-75665352D01*
X156579257Y-75808209D01*
X156626876Y-75998685D01*
X156674495Y-76093923D01*
X156769733Y-76189161D01*
X156912590Y-76236780D01*
X157150685Y-76236780D01*
X156245923Y-75236780D02*
X155626876Y-75236780D01*
X155960209Y-75617733D01*
X155817352Y-75617733D01*
X155722114Y-75665352D01*
X155674495Y-75712971D01*
X155626876Y-75808209D01*
X155626876Y-76046304D01*
X155674495Y-76141542D01*
X155722114Y-76189161D01*
X155817352Y-76236780D01*
X156103066Y-76236780D01*
X156198304Y-76189161D01*
X156245923Y-76141542D01*
X155007828Y-75236780D02*
X154912590Y-75236780D01*
X154817352Y-75284400D01*
X154769733Y-75332019D01*
X154722114Y-75427257D01*
X154674495Y-75617733D01*
X154674495Y-75855828D01*
X154722114Y-76046304D01*
X154769733Y-76141542D01*
X154817352Y-76189161D01*
X154912590Y-76236780D01*
X155007828Y-76236780D01*
X155103066Y-76189161D01*
X155150685Y-76141542D01*
X155198304Y-76046304D01*
X155245923Y-75855828D01*
X155245923Y-75617733D01*
X155198304Y-75427257D01*
X155150685Y-75332019D01*
X155103066Y-75284400D01*
X155007828Y-75236780D01*
X156961752Y-71588628D02*
X156199847Y-71588628D01*
X156580800Y-71969580D02*
X156580800Y-71207676D01*
X154961752Y-71588628D02*
X154199847Y-71588628D01*
G04 #@! TO.C,D31*
X150090685Y-76236780D02*
X150090685Y-75236780D01*
X149852590Y-75236780D01*
X149709733Y-75284400D01*
X149614495Y-75379638D01*
X149566876Y-75474876D01*
X149519257Y-75665352D01*
X149519257Y-75808209D01*
X149566876Y-75998685D01*
X149614495Y-76093923D01*
X149709733Y-76189161D01*
X149852590Y-76236780D01*
X150090685Y-76236780D01*
X149185923Y-75236780D02*
X148566876Y-75236780D01*
X148900209Y-75617733D01*
X148757352Y-75617733D01*
X148662114Y-75665352D01*
X148614495Y-75712971D01*
X148566876Y-75808209D01*
X148566876Y-76046304D01*
X148614495Y-76141542D01*
X148662114Y-76189161D01*
X148757352Y-76236780D01*
X149043066Y-76236780D01*
X149138304Y-76189161D01*
X149185923Y-76141542D01*
X147614495Y-76236780D02*
X148185923Y-76236780D01*
X147900209Y-76236780D02*
X147900209Y-75236780D01*
X147995447Y-75379638D01*
X148090685Y-75474876D01*
X148185923Y-75522495D01*
X149901752Y-71588628D02*
X149139847Y-71588628D01*
X149520800Y-71969580D02*
X149520800Y-71207676D01*
X147901752Y-71588628D02*
X147139847Y-71588628D01*
G04 #@! TO.C,D32*
X150150685Y-87853780D02*
X150150685Y-86853780D01*
X149912590Y-86853780D01*
X149769733Y-86901400D01*
X149674495Y-86996638D01*
X149626876Y-87091876D01*
X149579257Y-87282352D01*
X149579257Y-87425209D01*
X149626876Y-87615685D01*
X149674495Y-87710923D01*
X149769733Y-87806161D01*
X149912590Y-87853780D01*
X150150685Y-87853780D01*
X149245923Y-86853780D02*
X148626876Y-86853780D01*
X148960209Y-87234733D01*
X148817352Y-87234733D01*
X148722114Y-87282352D01*
X148674495Y-87329971D01*
X148626876Y-87425209D01*
X148626876Y-87663304D01*
X148674495Y-87758542D01*
X148722114Y-87806161D01*
X148817352Y-87853780D01*
X149103066Y-87853780D01*
X149198304Y-87806161D01*
X149245923Y-87758542D01*
X148245923Y-86949019D02*
X148198304Y-86901400D01*
X148103066Y-86853780D01*
X147864971Y-86853780D01*
X147769733Y-86901400D01*
X147722114Y-86949019D01*
X147674495Y-87044257D01*
X147674495Y-87139495D01*
X147722114Y-87282352D01*
X148293542Y-87853780D01*
X147674495Y-87853780D01*
X149961752Y-83205628D02*
X149199847Y-83205628D01*
X149580800Y-83586580D02*
X149580800Y-82824676D01*
X147961752Y-83205628D02*
X147199847Y-83205628D01*
G04 #@! TD*
M02*
