M48
;DRILL file {KiCad (5.0.0)} date 09/06/19 11:34:31
;FORMAT={-:-/ absolute / metric / decimal}
FMAT,2
METRIC,TZ
T1C0.350
T2C0.800
T3C0.820
T4C1.000
T5C1.100
T6C1.200
%
G90
G05
M71
T1
X141.294Y-83.758
X151.644Y-75.976
X159.879Y-127.399
X160.638Y-77.874
X162.501Y-124.86
X163.12Y-82.423
X164.162Y-107.429
X165.886Y-85.13
X166.206Y-89.52
X166.427Y-117.444
X170.478Y-76.889
X170.564Y-85.706
X171.041Y-77.629
X171.2Y-124.379
X171.258Y-121.49
X171.793Y-75.213
X172.036Y-127.152
X173.571Y-128.781
X175.371Y-90.535
X175.371Y-94.492
X176.935Y-118.834
X178.677Y-90.06
T2
X167.4Y-122.3
X167.4Y-124.84
X167.4Y-127.38
X167.4Y-129.92
X175.02Y-122.3
X175.02Y-124.84
X175.02Y-127.38
X175.02Y-129.92
T3
X152.93Y-58.
X155.47Y-58.
X192.2Y-85.217
X194.74Y-85.217
X178.26Y-120.4
X180.8Y-120.4
X175.8Y-146.7
X178.34Y-146.7
X130.283Y-85.217
X132.823Y-85.217
X185.59Y-58.
X188.13Y-58.
X147.26Y-85.217
X149.8Y-85.217
X161.2Y-129.9
X163.74Y-129.9
X163.8Y-146.7
X166.34Y-146.7
X130.4Y-73.6
X132.94Y-73.6
X197.81Y-58.
X200.35Y-58.
X178.26Y-85.217
X180.8Y-85.217
X178.26Y-73.6
X180.8Y-73.6
X161.2Y-120.4
X163.74Y-120.4
X164.15Y-58.
X166.69Y-58.
X209.Y-73.6
X211.54Y-73.6
X151.8Y-129.9
X154.34Y-129.9
X161.2Y-85.217
X163.74Y-85.217
X209.Y-58.
X211.54Y-58.
X175.37Y-58.
X177.91Y-58.
X209.Y-85.217
X211.54Y-85.217
X192.2Y-73.6
X194.74Y-73.6
X178.26Y-129.9
X180.8Y-129.9
X130.46Y-58.
X133.Y-58.
X151.8Y-146.7
X154.34Y-146.7
X185.26Y-73.6
X187.8Y-73.6
X187.8Y-129.9
X190.34Y-129.9
X187.8Y-146.7
X190.34Y-146.7
X141.71Y-58.
X144.25Y-58.
X147.2Y-73.6
X149.74Y-73.6
X161.2Y-73.6
X163.74Y-73.6
X154.26Y-73.6
X156.8Y-73.6
T4
X169.799Y-103.137
X172.339Y-103.137
X136.5Y-68.62
X136.5Y-71.16
X136.5Y-73.7
X136.5Y-76.24
X136.5Y-78.78
X136.5Y-81.32
X136.5Y-83.86
X136.5Y-86.4
X144.12Y-68.62
X144.12Y-71.16
X144.12Y-73.7
X144.12Y-76.24
X144.12Y-78.78
X144.12Y-81.32
X144.12Y-83.86
X144.12Y-86.4
X167.4Y-68.62
X167.4Y-71.16
X167.4Y-73.7
X167.4Y-76.24
X167.4Y-78.78
X167.4Y-81.32
X167.4Y-83.86
X167.4Y-86.4
X175.02Y-68.62
X175.02Y-71.16
X175.02Y-73.7
X175.02Y-76.24
X175.02Y-78.78
X175.02Y-81.32
X175.02Y-83.86
X175.02Y-86.4
X152.1Y-134.48
X152.1Y-142.1
X154.64Y-134.48
X154.64Y-142.1
X157.18Y-134.48
X157.18Y-142.1
X159.72Y-134.48
X159.72Y-142.1
X162.26Y-134.48
X162.26Y-142.1
X164.8Y-134.48
X164.8Y-142.1
X167.34Y-134.48
X167.34Y-142.1
X169.88Y-134.48
X169.88Y-142.1
X167.43Y-92.04
X169.97Y-92.04
X172.51Y-92.04
X175.05Y-92.04
X198.3Y-68.62
X198.3Y-71.16
X198.3Y-73.7
X198.3Y-76.24
X198.3Y-78.78
X198.3Y-81.32
X198.3Y-83.86
X198.3Y-86.4
X205.92Y-68.62
X205.92Y-71.16
X205.92Y-73.7
X205.92Y-76.24
X205.92Y-78.78
X205.92Y-81.32
X205.92Y-83.86
X205.92Y-86.4
T5
X180.615Y-136.34
X180.615Y-140.84
X187.115Y-136.34
X187.115Y-140.84
T6
X171.196Y-97.169
X171.196Y-116.669
T0
M30
