G04 #@! TF.GenerationSoftware,KiCad,Pcbnew,(5.0.0)*
G04 #@! TF.CreationDate,2019-09-07T09:52:17-04:00*
G04 #@! TF.ProjectId,Snowflake,536E6F77666C616B652E6B696361645F,rev?*
G04 #@! TF.SameCoordinates,Original*
G04 #@! TF.FileFunction,Soldermask,Bot*
G04 #@! TF.FilePolarity,Negative*
%FSLAX46Y46*%
G04 Gerber Fmt 4.6, Leading zero omitted, Abs format (unit mm)*
G04 Created by KiCad (PCBNEW (5.0.0)) date 09/07/19 09:52:17*
%MOMM*%
%LPD*%
G01*
G04 APERTURE LIST*
%ADD10C,5.400000*%
%ADD11C,2.400000*%
%ADD12O,2.400000X2.400000*%
%ADD13C,0.100000*%
%ADD14R,2.800000X2.000000*%
%ADD15O,2.800000X2.000000*%
%ADD16C,2.900000*%
%ADD17R,2.100000X2.100000*%
%ADD18O,2.100000X2.100000*%
G04 APERTURE END LIST*
D10*
G04 #@! TO.C,g1*
X126950000Y-54450000D03*
G04 #@! TD*
D11*
G04 #@! TO.C,Button1*
X99314000Y-86415000D03*
X99314000Y-81915000D03*
X105814000Y-86415000D03*
X105814000Y-81915000D03*
G04 #@! TD*
D12*
G04 #@! TO.C,D1*
X128400000Y-60300000D03*
D13*
G36*
X126018810Y-59102889D02*
X126077054Y-59111529D01*
X126134171Y-59125836D01*
X126189610Y-59145672D01*
X126242838Y-59170847D01*
X126293342Y-59201118D01*
X126340636Y-59236194D01*
X126384264Y-59275736D01*
X126423806Y-59319364D01*
X126458882Y-59366658D01*
X126489153Y-59417162D01*
X126514328Y-59470390D01*
X126534164Y-59525829D01*
X126548471Y-59582946D01*
X126557111Y-59641190D01*
X126560000Y-59700000D01*
X126560000Y-60900000D01*
X126557111Y-60958810D01*
X126548471Y-61017054D01*
X126534164Y-61074171D01*
X126514328Y-61129610D01*
X126489153Y-61182838D01*
X126458882Y-61233342D01*
X126423806Y-61280636D01*
X126384264Y-61324264D01*
X126340636Y-61363806D01*
X126293342Y-61398882D01*
X126242838Y-61429153D01*
X126189610Y-61454328D01*
X126134171Y-61474164D01*
X126077054Y-61488471D01*
X126018810Y-61497111D01*
X125960000Y-61500000D01*
X124760000Y-61500000D01*
X124701190Y-61497111D01*
X124642946Y-61488471D01*
X124585829Y-61474164D01*
X124530390Y-61454328D01*
X124477162Y-61429153D01*
X124426658Y-61398882D01*
X124379364Y-61363806D01*
X124335736Y-61324264D01*
X124296194Y-61280636D01*
X124261118Y-61233342D01*
X124230847Y-61182838D01*
X124205672Y-61129610D01*
X124185836Y-61074171D01*
X124171529Y-61017054D01*
X124162889Y-60958810D01*
X124160000Y-60900000D01*
X124160000Y-59700000D01*
X124162889Y-59641190D01*
X124171529Y-59582946D01*
X124185836Y-59525829D01*
X124205672Y-59470390D01*
X124230847Y-59417162D01*
X124261118Y-59366658D01*
X124296194Y-59319364D01*
X124335736Y-59275736D01*
X124379364Y-59236194D01*
X124426658Y-59201118D01*
X124477162Y-59170847D01*
X124530390Y-59145672D01*
X124585829Y-59125836D01*
X124642946Y-59111529D01*
X124701190Y-59102889D01*
X124760000Y-59100000D01*
X125960000Y-59100000D01*
X126018810Y-59102889D01*
X126018810Y-59102889D01*
G37*
D11*
X125360000Y-60300000D03*
G04 #@! TD*
D12*
G04 #@! TO.C,D2*
X139442000Y-78740000D03*
D13*
G36*
X137060810Y-77542889D02*
X137119054Y-77551529D01*
X137176171Y-77565836D01*
X137231610Y-77585672D01*
X137284838Y-77610847D01*
X137335342Y-77641118D01*
X137382636Y-77676194D01*
X137426264Y-77715736D01*
X137465806Y-77759364D01*
X137500882Y-77806658D01*
X137531153Y-77857162D01*
X137556328Y-77910390D01*
X137576164Y-77965829D01*
X137590471Y-78022946D01*
X137599111Y-78081190D01*
X137602000Y-78140000D01*
X137602000Y-79340000D01*
X137599111Y-79398810D01*
X137590471Y-79457054D01*
X137576164Y-79514171D01*
X137556328Y-79569610D01*
X137531153Y-79622838D01*
X137500882Y-79673342D01*
X137465806Y-79720636D01*
X137426264Y-79764264D01*
X137382636Y-79803806D01*
X137335342Y-79838882D01*
X137284838Y-79869153D01*
X137231610Y-79894328D01*
X137176171Y-79914164D01*
X137119054Y-79928471D01*
X137060810Y-79937111D01*
X137002000Y-79940000D01*
X135802000Y-79940000D01*
X135743190Y-79937111D01*
X135684946Y-79928471D01*
X135627829Y-79914164D01*
X135572390Y-79894328D01*
X135519162Y-79869153D01*
X135468658Y-79838882D01*
X135421364Y-79803806D01*
X135377736Y-79764264D01*
X135338194Y-79720636D01*
X135303118Y-79673342D01*
X135272847Y-79622838D01*
X135247672Y-79569610D01*
X135227836Y-79514171D01*
X135213529Y-79457054D01*
X135204889Y-79398810D01*
X135202000Y-79340000D01*
X135202000Y-78140000D01*
X135204889Y-78081190D01*
X135213529Y-78022946D01*
X135227836Y-77965829D01*
X135247672Y-77910390D01*
X135272847Y-77857162D01*
X135303118Y-77806658D01*
X135338194Y-77759364D01*
X135377736Y-77715736D01*
X135421364Y-77676194D01*
X135468658Y-77641118D01*
X135519162Y-77610847D01*
X135572390Y-77585672D01*
X135627829Y-77565836D01*
X135684946Y-77551529D01*
X135743190Y-77542889D01*
X135802000Y-77540000D01*
X137002000Y-77540000D01*
X137060810Y-77542889D01*
X137060810Y-77542889D01*
G37*
D11*
X136402000Y-78740000D03*
G04 #@! TD*
D12*
G04 #@! TO.C,D3*
X161794000Y-78613000D03*
D13*
G36*
X159412810Y-77415889D02*
X159471054Y-77424529D01*
X159528171Y-77438836D01*
X159583610Y-77458672D01*
X159636838Y-77483847D01*
X159687342Y-77514118D01*
X159734636Y-77549194D01*
X159778264Y-77588736D01*
X159817806Y-77632364D01*
X159852882Y-77679658D01*
X159883153Y-77730162D01*
X159908328Y-77783390D01*
X159928164Y-77838829D01*
X159942471Y-77895946D01*
X159951111Y-77954190D01*
X159954000Y-78013000D01*
X159954000Y-79213000D01*
X159951111Y-79271810D01*
X159942471Y-79330054D01*
X159928164Y-79387171D01*
X159908328Y-79442610D01*
X159883153Y-79495838D01*
X159852882Y-79546342D01*
X159817806Y-79593636D01*
X159778264Y-79637264D01*
X159734636Y-79676806D01*
X159687342Y-79711882D01*
X159636838Y-79742153D01*
X159583610Y-79767328D01*
X159528171Y-79787164D01*
X159471054Y-79801471D01*
X159412810Y-79810111D01*
X159354000Y-79813000D01*
X158154000Y-79813000D01*
X158095190Y-79810111D01*
X158036946Y-79801471D01*
X157979829Y-79787164D01*
X157924390Y-79767328D01*
X157871162Y-79742153D01*
X157820658Y-79711882D01*
X157773364Y-79676806D01*
X157729736Y-79637264D01*
X157690194Y-79593636D01*
X157655118Y-79546342D01*
X157624847Y-79495838D01*
X157599672Y-79442610D01*
X157579836Y-79387171D01*
X157565529Y-79330054D01*
X157556889Y-79271810D01*
X157554000Y-79213000D01*
X157554000Y-78013000D01*
X157556889Y-77954190D01*
X157565529Y-77895946D01*
X157579836Y-77838829D01*
X157599672Y-77783390D01*
X157624847Y-77730162D01*
X157655118Y-77679658D01*
X157690194Y-77632364D01*
X157729736Y-77588736D01*
X157773364Y-77549194D01*
X157820658Y-77514118D01*
X157871162Y-77483847D01*
X157924390Y-77458672D01*
X157979829Y-77438836D01*
X158036946Y-77424529D01*
X158095190Y-77415889D01*
X158154000Y-77413000D01*
X159354000Y-77413000D01*
X159412810Y-77415889D01*
X159412810Y-77415889D01*
G37*
D11*
X158754000Y-78613000D03*
G04 #@! TD*
D12*
G04 #@! TO.C,D4*
X150364000Y-97790000D03*
D13*
G36*
X147982810Y-96592889D02*
X148041054Y-96601529D01*
X148098171Y-96615836D01*
X148153610Y-96635672D01*
X148206838Y-96660847D01*
X148257342Y-96691118D01*
X148304636Y-96726194D01*
X148348264Y-96765736D01*
X148387806Y-96809364D01*
X148422882Y-96856658D01*
X148453153Y-96907162D01*
X148478328Y-96960390D01*
X148498164Y-97015829D01*
X148512471Y-97072946D01*
X148521111Y-97131190D01*
X148524000Y-97190000D01*
X148524000Y-98390000D01*
X148521111Y-98448810D01*
X148512471Y-98507054D01*
X148498164Y-98564171D01*
X148478328Y-98619610D01*
X148453153Y-98672838D01*
X148422882Y-98723342D01*
X148387806Y-98770636D01*
X148348264Y-98814264D01*
X148304636Y-98853806D01*
X148257342Y-98888882D01*
X148206838Y-98919153D01*
X148153610Y-98944328D01*
X148098171Y-98964164D01*
X148041054Y-98978471D01*
X147982810Y-98987111D01*
X147924000Y-98990000D01*
X146724000Y-98990000D01*
X146665190Y-98987111D01*
X146606946Y-98978471D01*
X146549829Y-98964164D01*
X146494390Y-98944328D01*
X146441162Y-98919153D01*
X146390658Y-98888882D01*
X146343364Y-98853806D01*
X146299736Y-98814264D01*
X146260194Y-98770636D01*
X146225118Y-98723342D01*
X146194847Y-98672838D01*
X146169672Y-98619610D01*
X146149836Y-98564171D01*
X146135529Y-98507054D01*
X146126889Y-98448810D01*
X146124000Y-98390000D01*
X146124000Y-97190000D01*
X146126889Y-97131190D01*
X146135529Y-97072946D01*
X146149836Y-97015829D01*
X146169672Y-96960390D01*
X146194847Y-96907162D01*
X146225118Y-96856658D01*
X146260194Y-96809364D01*
X146299736Y-96765736D01*
X146343364Y-96726194D01*
X146390658Y-96691118D01*
X146441162Y-96660847D01*
X146494390Y-96635672D01*
X146549829Y-96615836D01*
X146606946Y-96601529D01*
X146665190Y-96592889D01*
X146724000Y-96590000D01*
X147924000Y-96590000D01*
X147982810Y-96592889D01*
X147982810Y-96592889D01*
G37*
D11*
X147324000Y-97790000D03*
G04 #@! TD*
D12*
G04 #@! TO.C,D5*
X161921000Y-117602000D03*
D13*
G36*
X159539810Y-116404889D02*
X159598054Y-116413529D01*
X159655171Y-116427836D01*
X159710610Y-116447672D01*
X159763838Y-116472847D01*
X159814342Y-116503118D01*
X159861636Y-116538194D01*
X159905264Y-116577736D01*
X159944806Y-116621364D01*
X159979882Y-116668658D01*
X160010153Y-116719162D01*
X160035328Y-116772390D01*
X160055164Y-116827829D01*
X160069471Y-116884946D01*
X160078111Y-116943190D01*
X160081000Y-117002000D01*
X160081000Y-118202000D01*
X160078111Y-118260810D01*
X160069471Y-118319054D01*
X160055164Y-118376171D01*
X160035328Y-118431610D01*
X160010153Y-118484838D01*
X159979882Y-118535342D01*
X159944806Y-118582636D01*
X159905264Y-118626264D01*
X159861636Y-118665806D01*
X159814342Y-118700882D01*
X159763838Y-118731153D01*
X159710610Y-118756328D01*
X159655171Y-118776164D01*
X159598054Y-118790471D01*
X159539810Y-118799111D01*
X159481000Y-118802000D01*
X158281000Y-118802000D01*
X158222190Y-118799111D01*
X158163946Y-118790471D01*
X158106829Y-118776164D01*
X158051390Y-118756328D01*
X157998162Y-118731153D01*
X157947658Y-118700882D01*
X157900364Y-118665806D01*
X157856736Y-118626264D01*
X157817194Y-118582636D01*
X157782118Y-118535342D01*
X157751847Y-118484838D01*
X157726672Y-118431610D01*
X157706836Y-118376171D01*
X157692529Y-118319054D01*
X157683889Y-118260810D01*
X157681000Y-118202000D01*
X157681000Y-117002000D01*
X157683889Y-116943190D01*
X157692529Y-116884946D01*
X157706836Y-116827829D01*
X157726672Y-116772390D01*
X157751847Y-116719162D01*
X157782118Y-116668658D01*
X157817194Y-116621364D01*
X157856736Y-116577736D01*
X157900364Y-116538194D01*
X157947658Y-116503118D01*
X157998162Y-116472847D01*
X158051390Y-116447672D01*
X158106829Y-116427836D01*
X158163946Y-116413529D01*
X158222190Y-116404889D01*
X158281000Y-116402000D01*
X159481000Y-116402000D01*
X159539810Y-116404889D01*
X159539810Y-116404889D01*
G37*
D11*
X158881000Y-117602000D03*
G04 #@! TD*
D12*
G04 #@! TO.C,D6*
X139569000Y-117348000D03*
D13*
G36*
X137187810Y-116150889D02*
X137246054Y-116159529D01*
X137303171Y-116173836D01*
X137358610Y-116193672D01*
X137411838Y-116218847D01*
X137462342Y-116249118D01*
X137509636Y-116284194D01*
X137553264Y-116323736D01*
X137592806Y-116367364D01*
X137627882Y-116414658D01*
X137658153Y-116465162D01*
X137683328Y-116518390D01*
X137703164Y-116573829D01*
X137717471Y-116630946D01*
X137726111Y-116689190D01*
X137729000Y-116748000D01*
X137729000Y-117948000D01*
X137726111Y-118006810D01*
X137717471Y-118065054D01*
X137703164Y-118122171D01*
X137683328Y-118177610D01*
X137658153Y-118230838D01*
X137627882Y-118281342D01*
X137592806Y-118328636D01*
X137553264Y-118372264D01*
X137509636Y-118411806D01*
X137462342Y-118446882D01*
X137411838Y-118477153D01*
X137358610Y-118502328D01*
X137303171Y-118522164D01*
X137246054Y-118536471D01*
X137187810Y-118545111D01*
X137129000Y-118548000D01*
X135929000Y-118548000D01*
X135870190Y-118545111D01*
X135811946Y-118536471D01*
X135754829Y-118522164D01*
X135699390Y-118502328D01*
X135646162Y-118477153D01*
X135595658Y-118446882D01*
X135548364Y-118411806D01*
X135504736Y-118372264D01*
X135465194Y-118328636D01*
X135430118Y-118281342D01*
X135399847Y-118230838D01*
X135374672Y-118177610D01*
X135354836Y-118122171D01*
X135340529Y-118065054D01*
X135331889Y-118006810D01*
X135329000Y-117948000D01*
X135329000Y-116748000D01*
X135331889Y-116689190D01*
X135340529Y-116630946D01*
X135354836Y-116573829D01*
X135374672Y-116518390D01*
X135399847Y-116465162D01*
X135430118Y-116414658D01*
X135465194Y-116367364D01*
X135504736Y-116323736D01*
X135548364Y-116284194D01*
X135595658Y-116249118D01*
X135646162Y-116218847D01*
X135699390Y-116193672D01*
X135754829Y-116173836D01*
X135811946Y-116159529D01*
X135870190Y-116150889D01*
X135929000Y-116148000D01*
X137129000Y-116148000D01*
X137187810Y-116150889D01*
X137187810Y-116150889D01*
G37*
D11*
X136529000Y-117348000D03*
G04 #@! TD*
D12*
G04 #@! TO.C,D7*
X128266000Y-137541000D03*
D13*
G36*
X125884810Y-136343889D02*
X125943054Y-136352529D01*
X126000171Y-136366836D01*
X126055610Y-136386672D01*
X126108838Y-136411847D01*
X126159342Y-136442118D01*
X126206636Y-136477194D01*
X126250264Y-136516736D01*
X126289806Y-136560364D01*
X126324882Y-136607658D01*
X126355153Y-136658162D01*
X126380328Y-136711390D01*
X126400164Y-136766829D01*
X126414471Y-136823946D01*
X126423111Y-136882190D01*
X126426000Y-136941000D01*
X126426000Y-138141000D01*
X126423111Y-138199810D01*
X126414471Y-138258054D01*
X126400164Y-138315171D01*
X126380328Y-138370610D01*
X126355153Y-138423838D01*
X126324882Y-138474342D01*
X126289806Y-138521636D01*
X126250264Y-138565264D01*
X126206636Y-138604806D01*
X126159342Y-138639882D01*
X126108838Y-138670153D01*
X126055610Y-138695328D01*
X126000171Y-138715164D01*
X125943054Y-138729471D01*
X125884810Y-138738111D01*
X125826000Y-138741000D01*
X124626000Y-138741000D01*
X124567190Y-138738111D01*
X124508946Y-138729471D01*
X124451829Y-138715164D01*
X124396390Y-138695328D01*
X124343162Y-138670153D01*
X124292658Y-138639882D01*
X124245364Y-138604806D01*
X124201736Y-138565264D01*
X124162194Y-138521636D01*
X124127118Y-138474342D01*
X124096847Y-138423838D01*
X124071672Y-138370610D01*
X124051836Y-138315171D01*
X124037529Y-138258054D01*
X124028889Y-138199810D01*
X124026000Y-138141000D01*
X124026000Y-136941000D01*
X124028889Y-136882190D01*
X124037529Y-136823946D01*
X124051836Y-136766829D01*
X124071672Y-136711390D01*
X124096847Y-136658162D01*
X124127118Y-136607658D01*
X124162194Y-136560364D01*
X124201736Y-136516736D01*
X124245364Y-136477194D01*
X124292658Y-136442118D01*
X124343162Y-136411847D01*
X124396390Y-136386672D01*
X124451829Y-136366836D01*
X124508946Y-136352529D01*
X124567190Y-136343889D01*
X124626000Y-136341000D01*
X125826000Y-136341000D01*
X125884810Y-136343889D01*
X125884810Y-136343889D01*
G37*
D11*
X125226000Y-137541000D03*
G04 #@! TD*
D12*
G04 #@! TO.C,D8*
X117090000Y-118110000D03*
D13*
G36*
X114708810Y-116912889D02*
X114767054Y-116921529D01*
X114824171Y-116935836D01*
X114879610Y-116955672D01*
X114932838Y-116980847D01*
X114983342Y-117011118D01*
X115030636Y-117046194D01*
X115074264Y-117085736D01*
X115113806Y-117129364D01*
X115148882Y-117176658D01*
X115179153Y-117227162D01*
X115204328Y-117280390D01*
X115224164Y-117335829D01*
X115238471Y-117392946D01*
X115247111Y-117451190D01*
X115250000Y-117510000D01*
X115250000Y-118710000D01*
X115247111Y-118768810D01*
X115238471Y-118827054D01*
X115224164Y-118884171D01*
X115204328Y-118939610D01*
X115179153Y-118992838D01*
X115148882Y-119043342D01*
X115113806Y-119090636D01*
X115074264Y-119134264D01*
X115030636Y-119173806D01*
X114983342Y-119208882D01*
X114932838Y-119239153D01*
X114879610Y-119264328D01*
X114824171Y-119284164D01*
X114767054Y-119298471D01*
X114708810Y-119307111D01*
X114650000Y-119310000D01*
X113450000Y-119310000D01*
X113391190Y-119307111D01*
X113332946Y-119298471D01*
X113275829Y-119284164D01*
X113220390Y-119264328D01*
X113167162Y-119239153D01*
X113116658Y-119208882D01*
X113069364Y-119173806D01*
X113025736Y-119134264D01*
X112986194Y-119090636D01*
X112951118Y-119043342D01*
X112920847Y-118992838D01*
X112895672Y-118939610D01*
X112875836Y-118884171D01*
X112861529Y-118827054D01*
X112852889Y-118768810D01*
X112850000Y-118710000D01*
X112850000Y-117510000D01*
X112852889Y-117451190D01*
X112861529Y-117392946D01*
X112875836Y-117335829D01*
X112895672Y-117280390D01*
X112920847Y-117227162D01*
X112951118Y-117176658D01*
X112986194Y-117129364D01*
X113025736Y-117085736D01*
X113069364Y-117046194D01*
X113116658Y-117011118D01*
X113167162Y-116980847D01*
X113220390Y-116955672D01*
X113275829Y-116935836D01*
X113332946Y-116921529D01*
X113391190Y-116912889D01*
X113450000Y-116910000D01*
X114650000Y-116910000D01*
X114708810Y-116912889D01*
X114708810Y-116912889D01*
G37*
D11*
X114050000Y-118110000D03*
G04 #@! TD*
D12*
G04 #@! TO.C,D9*
X94230000Y-117602000D03*
D13*
G36*
X91848810Y-116404889D02*
X91907054Y-116413529D01*
X91964171Y-116427836D01*
X92019610Y-116447672D01*
X92072838Y-116472847D01*
X92123342Y-116503118D01*
X92170636Y-116538194D01*
X92214264Y-116577736D01*
X92253806Y-116621364D01*
X92288882Y-116668658D01*
X92319153Y-116719162D01*
X92344328Y-116772390D01*
X92364164Y-116827829D01*
X92378471Y-116884946D01*
X92387111Y-116943190D01*
X92390000Y-117002000D01*
X92390000Y-118202000D01*
X92387111Y-118260810D01*
X92378471Y-118319054D01*
X92364164Y-118376171D01*
X92344328Y-118431610D01*
X92319153Y-118484838D01*
X92288882Y-118535342D01*
X92253806Y-118582636D01*
X92214264Y-118626264D01*
X92170636Y-118665806D01*
X92123342Y-118700882D01*
X92072838Y-118731153D01*
X92019610Y-118756328D01*
X91964171Y-118776164D01*
X91907054Y-118790471D01*
X91848810Y-118799111D01*
X91790000Y-118802000D01*
X90590000Y-118802000D01*
X90531190Y-118799111D01*
X90472946Y-118790471D01*
X90415829Y-118776164D01*
X90360390Y-118756328D01*
X90307162Y-118731153D01*
X90256658Y-118700882D01*
X90209364Y-118665806D01*
X90165736Y-118626264D01*
X90126194Y-118582636D01*
X90091118Y-118535342D01*
X90060847Y-118484838D01*
X90035672Y-118431610D01*
X90015836Y-118376171D01*
X90001529Y-118319054D01*
X89992889Y-118260810D01*
X89990000Y-118202000D01*
X89990000Y-117002000D01*
X89992889Y-116943190D01*
X90001529Y-116884946D01*
X90015836Y-116827829D01*
X90035672Y-116772390D01*
X90060847Y-116719162D01*
X90091118Y-116668658D01*
X90126194Y-116621364D01*
X90165736Y-116577736D01*
X90209364Y-116538194D01*
X90256658Y-116503118D01*
X90307162Y-116472847D01*
X90360390Y-116447672D01*
X90415829Y-116427836D01*
X90472946Y-116413529D01*
X90531190Y-116404889D01*
X90590000Y-116402000D01*
X91790000Y-116402000D01*
X91848810Y-116404889D01*
X91848810Y-116404889D01*
G37*
D11*
X91190000Y-117602000D03*
G04 #@! TD*
D12*
G04 #@! TO.C,D10*
X105914000Y-98044000D03*
D13*
G36*
X103532810Y-96846889D02*
X103591054Y-96855529D01*
X103648171Y-96869836D01*
X103703610Y-96889672D01*
X103756838Y-96914847D01*
X103807342Y-96945118D01*
X103854636Y-96980194D01*
X103898264Y-97019736D01*
X103937806Y-97063364D01*
X103972882Y-97110658D01*
X104003153Y-97161162D01*
X104028328Y-97214390D01*
X104048164Y-97269829D01*
X104062471Y-97326946D01*
X104071111Y-97385190D01*
X104074000Y-97444000D01*
X104074000Y-98644000D01*
X104071111Y-98702810D01*
X104062471Y-98761054D01*
X104048164Y-98818171D01*
X104028328Y-98873610D01*
X104003153Y-98926838D01*
X103972882Y-98977342D01*
X103937806Y-99024636D01*
X103898264Y-99068264D01*
X103854636Y-99107806D01*
X103807342Y-99142882D01*
X103756838Y-99173153D01*
X103703610Y-99198328D01*
X103648171Y-99218164D01*
X103591054Y-99232471D01*
X103532810Y-99241111D01*
X103474000Y-99244000D01*
X102274000Y-99244000D01*
X102215190Y-99241111D01*
X102156946Y-99232471D01*
X102099829Y-99218164D01*
X102044390Y-99198328D01*
X101991162Y-99173153D01*
X101940658Y-99142882D01*
X101893364Y-99107806D01*
X101849736Y-99068264D01*
X101810194Y-99024636D01*
X101775118Y-98977342D01*
X101744847Y-98926838D01*
X101719672Y-98873610D01*
X101699836Y-98818171D01*
X101685529Y-98761054D01*
X101676889Y-98702810D01*
X101674000Y-98644000D01*
X101674000Y-97444000D01*
X101676889Y-97385190D01*
X101685529Y-97326946D01*
X101699836Y-97269829D01*
X101719672Y-97214390D01*
X101744847Y-97161162D01*
X101775118Y-97110658D01*
X101810194Y-97063364D01*
X101849736Y-97019736D01*
X101893364Y-96980194D01*
X101940658Y-96945118D01*
X101991162Y-96914847D01*
X102044390Y-96889672D01*
X102099829Y-96869836D01*
X102156946Y-96855529D01*
X102215190Y-96846889D01*
X102274000Y-96844000D01*
X103474000Y-96844000D01*
X103532810Y-96846889D01*
X103532810Y-96846889D01*
G37*
D11*
X102874000Y-98044000D03*
G04 #@! TD*
D12*
G04 #@! TO.C,D11*
X93595000Y-77978000D03*
D13*
G36*
X91213810Y-76780889D02*
X91272054Y-76789529D01*
X91329171Y-76803836D01*
X91384610Y-76823672D01*
X91437838Y-76848847D01*
X91488342Y-76879118D01*
X91535636Y-76914194D01*
X91579264Y-76953736D01*
X91618806Y-76997364D01*
X91653882Y-77044658D01*
X91684153Y-77095162D01*
X91709328Y-77148390D01*
X91729164Y-77203829D01*
X91743471Y-77260946D01*
X91752111Y-77319190D01*
X91755000Y-77378000D01*
X91755000Y-78578000D01*
X91752111Y-78636810D01*
X91743471Y-78695054D01*
X91729164Y-78752171D01*
X91709328Y-78807610D01*
X91684153Y-78860838D01*
X91653882Y-78911342D01*
X91618806Y-78958636D01*
X91579264Y-79002264D01*
X91535636Y-79041806D01*
X91488342Y-79076882D01*
X91437838Y-79107153D01*
X91384610Y-79132328D01*
X91329171Y-79152164D01*
X91272054Y-79166471D01*
X91213810Y-79175111D01*
X91155000Y-79178000D01*
X89955000Y-79178000D01*
X89896190Y-79175111D01*
X89837946Y-79166471D01*
X89780829Y-79152164D01*
X89725390Y-79132328D01*
X89672162Y-79107153D01*
X89621658Y-79076882D01*
X89574364Y-79041806D01*
X89530736Y-79002264D01*
X89491194Y-78958636D01*
X89456118Y-78911342D01*
X89425847Y-78860838D01*
X89400672Y-78807610D01*
X89380836Y-78752171D01*
X89366529Y-78695054D01*
X89357889Y-78636810D01*
X89355000Y-78578000D01*
X89355000Y-77378000D01*
X89357889Y-77319190D01*
X89366529Y-77260946D01*
X89380836Y-77203829D01*
X89400672Y-77148390D01*
X89425847Y-77095162D01*
X89456118Y-77044658D01*
X89491194Y-76997364D01*
X89530736Y-76953736D01*
X89574364Y-76914194D01*
X89621658Y-76879118D01*
X89672162Y-76848847D01*
X89725390Y-76823672D01*
X89780829Y-76803836D01*
X89837946Y-76789529D01*
X89896190Y-76780889D01*
X89955000Y-76778000D01*
X91155000Y-76778000D01*
X91213810Y-76780889D01*
X91213810Y-76780889D01*
G37*
D11*
X90555000Y-77978000D03*
G04 #@! TD*
D12*
G04 #@! TO.C,D12*
X117344000Y-78486000D03*
D13*
G36*
X114962810Y-77288889D02*
X115021054Y-77297529D01*
X115078171Y-77311836D01*
X115133610Y-77331672D01*
X115186838Y-77356847D01*
X115237342Y-77387118D01*
X115284636Y-77422194D01*
X115328264Y-77461736D01*
X115367806Y-77505364D01*
X115402882Y-77552658D01*
X115433153Y-77603162D01*
X115458328Y-77656390D01*
X115478164Y-77711829D01*
X115492471Y-77768946D01*
X115501111Y-77827190D01*
X115504000Y-77886000D01*
X115504000Y-79086000D01*
X115501111Y-79144810D01*
X115492471Y-79203054D01*
X115478164Y-79260171D01*
X115458328Y-79315610D01*
X115433153Y-79368838D01*
X115402882Y-79419342D01*
X115367806Y-79466636D01*
X115328264Y-79510264D01*
X115284636Y-79549806D01*
X115237342Y-79584882D01*
X115186838Y-79615153D01*
X115133610Y-79640328D01*
X115078171Y-79660164D01*
X115021054Y-79674471D01*
X114962810Y-79683111D01*
X114904000Y-79686000D01*
X113704000Y-79686000D01*
X113645190Y-79683111D01*
X113586946Y-79674471D01*
X113529829Y-79660164D01*
X113474390Y-79640328D01*
X113421162Y-79615153D01*
X113370658Y-79584882D01*
X113323364Y-79549806D01*
X113279736Y-79510264D01*
X113240194Y-79466636D01*
X113205118Y-79419342D01*
X113174847Y-79368838D01*
X113149672Y-79315610D01*
X113129836Y-79260171D01*
X113115529Y-79203054D01*
X113106889Y-79144810D01*
X113104000Y-79086000D01*
X113104000Y-77886000D01*
X113106889Y-77827190D01*
X113115529Y-77768946D01*
X113129836Y-77711829D01*
X113149672Y-77656390D01*
X113174847Y-77603162D01*
X113205118Y-77552658D01*
X113240194Y-77505364D01*
X113279736Y-77461736D01*
X113323364Y-77422194D01*
X113370658Y-77387118D01*
X113421162Y-77356847D01*
X113474390Y-77331672D01*
X113529829Y-77311836D01*
X113586946Y-77297529D01*
X113645190Y-77288889D01*
X113704000Y-77286000D01*
X114904000Y-77286000D01*
X114962810Y-77288889D01*
X114962810Y-77288889D01*
G37*
D11*
X114304000Y-78486000D03*
G04 #@! TD*
D12*
G04 #@! TO.C,D13*
X116817000Y-88900000D03*
D13*
G36*
X114435810Y-87702889D02*
X114494054Y-87711529D01*
X114551171Y-87725836D01*
X114606610Y-87745672D01*
X114659838Y-87770847D01*
X114710342Y-87801118D01*
X114757636Y-87836194D01*
X114801264Y-87875736D01*
X114840806Y-87919364D01*
X114875882Y-87966658D01*
X114906153Y-88017162D01*
X114931328Y-88070390D01*
X114951164Y-88125829D01*
X114965471Y-88182946D01*
X114974111Y-88241190D01*
X114977000Y-88300000D01*
X114977000Y-89500000D01*
X114974111Y-89558810D01*
X114965471Y-89617054D01*
X114951164Y-89674171D01*
X114931328Y-89729610D01*
X114906153Y-89782838D01*
X114875882Y-89833342D01*
X114840806Y-89880636D01*
X114801264Y-89924264D01*
X114757636Y-89963806D01*
X114710342Y-89998882D01*
X114659838Y-90029153D01*
X114606610Y-90054328D01*
X114551171Y-90074164D01*
X114494054Y-90088471D01*
X114435810Y-90097111D01*
X114377000Y-90100000D01*
X113177000Y-90100000D01*
X113118190Y-90097111D01*
X113059946Y-90088471D01*
X113002829Y-90074164D01*
X112947390Y-90054328D01*
X112894162Y-90029153D01*
X112843658Y-89998882D01*
X112796364Y-89963806D01*
X112752736Y-89924264D01*
X112713194Y-89880636D01*
X112678118Y-89833342D01*
X112647847Y-89782838D01*
X112622672Y-89729610D01*
X112602836Y-89674171D01*
X112588529Y-89617054D01*
X112579889Y-89558810D01*
X112577000Y-89500000D01*
X112577000Y-88300000D01*
X112579889Y-88241190D01*
X112588529Y-88182946D01*
X112602836Y-88125829D01*
X112622672Y-88070390D01*
X112647847Y-88017162D01*
X112678118Y-87966658D01*
X112713194Y-87919364D01*
X112752736Y-87875736D01*
X112796364Y-87836194D01*
X112843658Y-87801118D01*
X112894162Y-87770847D01*
X112947390Y-87745672D01*
X113002829Y-87725836D01*
X113059946Y-87711529D01*
X113118190Y-87702889D01*
X113177000Y-87700000D01*
X114377000Y-87700000D01*
X114435810Y-87702889D01*
X114435810Y-87702889D01*
G37*
D11*
X113777000Y-88900000D03*
G04 #@! TD*
D12*
G04 #@! TO.C,D14*
X139950000Y-106680000D03*
D13*
G36*
X137568810Y-105482889D02*
X137627054Y-105491529D01*
X137684171Y-105505836D01*
X137739610Y-105525672D01*
X137792838Y-105550847D01*
X137843342Y-105581118D01*
X137890636Y-105616194D01*
X137934264Y-105655736D01*
X137973806Y-105699364D01*
X138008882Y-105746658D01*
X138039153Y-105797162D01*
X138064328Y-105850390D01*
X138084164Y-105905829D01*
X138098471Y-105962946D01*
X138107111Y-106021190D01*
X138110000Y-106080000D01*
X138110000Y-107280000D01*
X138107111Y-107338810D01*
X138098471Y-107397054D01*
X138084164Y-107454171D01*
X138064328Y-107509610D01*
X138039153Y-107562838D01*
X138008882Y-107613342D01*
X137973806Y-107660636D01*
X137934264Y-107704264D01*
X137890636Y-107743806D01*
X137843342Y-107778882D01*
X137792838Y-107809153D01*
X137739610Y-107834328D01*
X137684171Y-107854164D01*
X137627054Y-107868471D01*
X137568810Y-107877111D01*
X137510000Y-107880000D01*
X136310000Y-107880000D01*
X136251190Y-107877111D01*
X136192946Y-107868471D01*
X136135829Y-107854164D01*
X136080390Y-107834328D01*
X136027162Y-107809153D01*
X135976658Y-107778882D01*
X135929364Y-107743806D01*
X135885736Y-107704264D01*
X135846194Y-107660636D01*
X135811118Y-107613342D01*
X135780847Y-107562838D01*
X135755672Y-107509610D01*
X135735836Y-107454171D01*
X135721529Y-107397054D01*
X135712889Y-107338810D01*
X135710000Y-107280000D01*
X135710000Y-106080000D01*
X135712889Y-106021190D01*
X135721529Y-105962946D01*
X135735836Y-105905829D01*
X135755672Y-105850390D01*
X135780847Y-105797162D01*
X135811118Y-105746658D01*
X135846194Y-105699364D01*
X135885736Y-105655736D01*
X135929364Y-105616194D01*
X135976658Y-105581118D01*
X136027162Y-105550847D01*
X136080390Y-105525672D01*
X136135829Y-105505836D01*
X136192946Y-105491529D01*
X136251190Y-105482889D01*
X136310000Y-105480000D01*
X137510000Y-105480000D01*
X137568810Y-105482889D01*
X137568810Y-105482889D01*
G37*
D11*
X136910000Y-106680000D03*
G04 #@! TD*
D12*
G04 #@! TO.C,D15*
X139950000Y-88900000D03*
D13*
G36*
X137568810Y-87702889D02*
X137627054Y-87711529D01*
X137684171Y-87725836D01*
X137739610Y-87745672D01*
X137792838Y-87770847D01*
X137843342Y-87801118D01*
X137890636Y-87836194D01*
X137934264Y-87875736D01*
X137973806Y-87919364D01*
X138008882Y-87966658D01*
X138039153Y-88017162D01*
X138064328Y-88070390D01*
X138084164Y-88125829D01*
X138098471Y-88182946D01*
X138107111Y-88241190D01*
X138110000Y-88300000D01*
X138110000Y-89500000D01*
X138107111Y-89558810D01*
X138098471Y-89617054D01*
X138084164Y-89674171D01*
X138064328Y-89729610D01*
X138039153Y-89782838D01*
X138008882Y-89833342D01*
X137973806Y-89880636D01*
X137934264Y-89924264D01*
X137890636Y-89963806D01*
X137843342Y-89998882D01*
X137792838Y-90029153D01*
X137739610Y-90054328D01*
X137684171Y-90074164D01*
X137627054Y-90088471D01*
X137568810Y-90097111D01*
X137510000Y-90100000D01*
X136310000Y-90100000D01*
X136251190Y-90097111D01*
X136192946Y-90088471D01*
X136135829Y-90074164D01*
X136080390Y-90054328D01*
X136027162Y-90029153D01*
X135976658Y-89998882D01*
X135929364Y-89963806D01*
X135885736Y-89924264D01*
X135846194Y-89880636D01*
X135811118Y-89833342D01*
X135780847Y-89782838D01*
X135755672Y-89729610D01*
X135735836Y-89674171D01*
X135721529Y-89617054D01*
X135712889Y-89558810D01*
X135710000Y-89500000D01*
X135710000Y-88300000D01*
X135712889Y-88241190D01*
X135721529Y-88182946D01*
X135735836Y-88125829D01*
X135755672Y-88070390D01*
X135780847Y-88017162D01*
X135811118Y-87966658D01*
X135846194Y-87919364D01*
X135885736Y-87875736D01*
X135929364Y-87836194D01*
X135976658Y-87801118D01*
X136027162Y-87770847D01*
X136080390Y-87745672D01*
X136135829Y-87725836D01*
X136192946Y-87711529D01*
X136251190Y-87702889D01*
X136310000Y-87700000D01*
X137510000Y-87700000D01*
X137568810Y-87702889D01*
X137568810Y-87702889D01*
G37*
D11*
X136910000Y-88900000D03*
G04 #@! TD*
D12*
G04 #@! TO.C,D16*
X117325000Y-106680000D03*
D13*
G36*
X114943810Y-105482889D02*
X115002054Y-105491529D01*
X115059171Y-105505836D01*
X115114610Y-105525672D01*
X115167838Y-105550847D01*
X115218342Y-105581118D01*
X115265636Y-105616194D01*
X115309264Y-105655736D01*
X115348806Y-105699364D01*
X115383882Y-105746658D01*
X115414153Y-105797162D01*
X115439328Y-105850390D01*
X115459164Y-105905829D01*
X115473471Y-105962946D01*
X115482111Y-106021190D01*
X115485000Y-106080000D01*
X115485000Y-107280000D01*
X115482111Y-107338810D01*
X115473471Y-107397054D01*
X115459164Y-107454171D01*
X115439328Y-107509610D01*
X115414153Y-107562838D01*
X115383882Y-107613342D01*
X115348806Y-107660636D01*
X115309264Y-107704264D01*
X115265636Y-107743806D01*
X115218342Y-107778882D01*
X115167838Y-107809153D01*
X115114610Y-107834328D01*
X115059171Y-107854164D01*
X115002054Y-107868471D01*
X114943810Y-107877111D01*
X114885000Y-107880000D01*
X113685000Y-107880000D01*
X113626190Y-107877111D01*
X113567946Y-107868471D01*
X113510829Y-107854164D01*
X113455390Y-107834328D01*
X113402162Y-107809153D01*
X113351658Y-107778882D01*
X113304364Y-107743806D01*
X113260736Y-107704264D01*
X113221194Y-107660636D01*
X113186118Y-107613342D01*
X113155847Y-107562838D01*
X113130672Y-107509610D01*
X113110836Y-107454171D01*
X113096529Y-107397054D01*
X113087889Y-107338810D01*
X113085000Y-107280000D01*
X113085000Y-106080000D01*
X113087889Y-106021190D01*
X113096529Y-105962946D01*
X113110836Y-105905829D01*
X113130672Y-105850390D01*
X113155847Y-105797162D01*
X113186118Y-105746658D01*
X113221194Y-105699364D01*
X113260736Y-105655736D01*
X113304364Y-105616194D01*
X113351658Y-105581118D01*
X113402162Y-105550847D01*
X113455390Y-105525672D01*
X113510829Y-105505836D01*
X113567946Y-105491529D01*
X113626190Y-105482889D01*
X113685000Y-105480000D01*
X114885000Y-105480000D01*
X114943810Y-105482889D01*
X114943810Y-105482889D01*
G37*
D11*
X114285000Y-106680000D03*
G04 #@! TD*
D14*
G04 #@! TO.C,Tiny85*
X123220000Y-75990000D03*
D15*
X130840000Y-83610000D03*
X123220000Y-78530000D03*
X130840000Y-81070000D03*
X123220000Y-81070000D03*
X130840000Y-78530000D03*
X123220000Y-83610000D03*
X130840000Y-75990000D03*
G04 #@! TD*
D16*
G04 #@! TO.C,Battery1*
X138500000Y-97800000D03*
X119000000Y-97800000D03*
G04 #@! TD*
D17*
G04 #@! TO.C,Power1*
X146100000Y-86000000D03*
D18*
X148640000Y-86000000D03*
X151180000Y-86000000D03*
X153720000Y-86000000D03*
G04 #@! TD*
D15*
G04 #@! TO.C,Shift1*
X123480000Y-130810000D03*
X130600000Y-113030000D03*
X123480000Y-128270000D03*
X130600000Y-115570000D03*
X123480000Y-125730000D03*
X130600000Y-118110000D03*
X123480000Y-123190000D03*
X130600000Y-120650000D03*
X123480000Y-120650000D03*
X130600000Y-123190000D03*
X123480000Y-118110000D03*
X130600000Y-125730000D03*
X123480000Y-115570000D03*
X130600000Y-128270000D03*
X123480000Y-113030000D03*
D14*
X130600000Y-130810000D03*
G04 #@! TD*
M02*
