M48
;DRILL file {KiCad (5.0.0)} date 09/07/19 09:52:19
;FORMAT={-:-/ absolute / metric / decimal}
FMAT,2
METRIC,TZ
T1C0.400
T2C0.800
T3C0.820
T4C1.000
T5C1.100
T6C1.200
T7C3.500
%
G90
G05
M71
T1
X119.735Y-118.281
X127.057Y-116.684
X127.345Y-112.539
X129.993Y-106.42
T2
X123.22Y-75.99
X123.22Y-78.53
X123.22Y-81.07
X123.22Y-83.61
X130.84Y-75.99
X130.84Y-78.53
X130.84Y-81.07
X130.84Y-83.61
T3
X114.535Y-106.68
X117.075Y-106.68
X136.652Y-78.74
X139.192Y-78.74
X125.476Y-137.541
X128.016Y-137.541
X114.027Y-88.9
X116.567Y-88.9
X147.574Y-97.79
X150.114Y-97.79
X136.779Y-117.348
X139.319Y-117.348
X137.16Y-106.68
X139.7Y-106.68
X103.124Y-98.044
X105.664Y-98.044
X125.61Y-60.3
X128.15Y-60.3
X114.3Y-118.11
X116.84Y-118.11
X137.16Y-88.9
X139.7Y-88.9
X91.44Y-117.602
X93.98Y-117.602
X114.554Y-78.486
X117.094Y-78.486
X90.805Y-77.978
X93.345Y-77.978
X159.131Y-117.602
X161.671Y-117.602
X159.004Y-78.613
X161.544Y-78.613
T4
X123.23Y-113.03
X123.23Y-115.57
X123.23Y-118.11
X123.23Y-120.65
X123.23Y-123.19
X123.23Y-125.73
X123.23Y-128.27
X123.23Y-130.81
X130.85Y-113.03
X130.85Y-115.57
X130.85Y-118.11
X130.85Y-120.65
X130.85Y-123.19
X130.85Y-125.73
X130.85Y-128.27
X130.85Y-130.81
X146.1Y-86.
X148.64Y-86.
X151.18Y-86.
X153.72Y-86.
T5
X99.314Y-81.915
X99.314Y-86.415
X105.814Y-81.915
X105.814Y-86.415
T6
X119.Y-97.8
X138.5Y-97.8
T7
X126.95Y-54.45
T0
M30
