G04 #@! TF.GenerationSoftware,KiCad,Pcbnew,(5.0.0)*
G04 #@! TF.CreationDate,2019-09-07T09:52:17-04:00*
G04 #@! TF.ProjectId,Snowflake,536E6F77666C616B652E6B696361645F,rev?*
G04 #@! TF.SameCoordinates,Original*
G04 #@! TF.FileFunction,Legend,Bot*
G04 #@! TF.FilePolarity,Positive*
%FSLAX46Y46*%
G04 Gerber Fmt 4.6, Leading zero omitted, Abs format (unit mm)*
G04 Created by KiCad (PCBNEW (5.0.0)) date 09/07/19 09:52:17*
%MOMM*%
%LPD*%
G01*
G04 APERTURE LIST*
%ADD10C,0.200000*%
%ADD11C,0.120000*%
%ADD12C,0.250000*%
%ADD13C,0.150000*%
%ADD14C,0.300000*%
G04 APERTURE END LIST*
D10*
X132935714Y-64338095D02*
X132192857Y-64338095D01*
X132564285Y-65638095D02*
X132564285Y-64338095D01*
X131759523Y-64957142D02*
X131326190Y-64957142D01*
X131140476Y-65638095D02*
X131759523Y-65638095D01*
X131759523Y-64338095D01*
X131140476Y-64338095D01*
X130583333Y-65638095D02*
X130583333Y-64338095D01*
X130150000Y-65266666D01*
X129716666Y-64338095D01*
X129716666Y-65638095D01*
X129097619Y-65638095D02*
X129097619Y-64338095D01*
X128602380Y-64338095D01*
X128478571Y-64400000D01*
X128416666Y-64461904D01*
X128354761Y-64585714D01*
X128354761Y-64771428D01*
X128416666Y-64895238D01*
X128478571Y-64957142D01*
X128602380Y-65019047D01*
X129097619Y-65019047D01*
X127178571Y-65638095D02*
X127797619Y-65638095D01*
X127797619Y-64338095D01*
X126745238Y-64957142D02*
X126311904Y-64957142D01*
X126126190Y-65638095D02*
X126745238Y-65638095D01*
X126745238Y-64338095D01*
X126126190Y-64338095D01*
X124578571Y-65638095D02*
X124578571Y-64338095D01*
X123959523Y-64957142D02*
X123526190Y-64957142D01*
X123340476Y-65638095D02*
X123959523Y-65638095D01*
X123959523Y-64338095D01*
X123340476Y-64338095D01*
X122783333Y-64957142D02*
X122350000Y-64957142D01*
X122164285Y-65638095D02*
X122783333Y-65638095D01*
X122783333Y-64338095D01*
X122164285Y-64338095D01*
X121607142Y-64957142D02*
X121173809Y-64957142D01*
X120988095Y-65638095D02*
X121607142Y-65638095D01*
X121607142Y-64338095D01*
X120988095Y-64338095D01*
X132007142Y-67726190D02*
X131821428Y-67788095D01*
X131511904Y-67788095D01*
X131388095Y-67726190D01*
X131326190Y-67664285D01*
X131264285Y-67540476D01*
X131264285Y-67416666D01*
X131326190Y-67292857D01*
X131388095Y-67230952D01*
X131511904Y-67169047D01*
X131759523Y-67107142D01*
X131883333Y-67045238D01*
X131945238Y-66983333D01*
X132007142Y-66859523D01*
X132007142Y-66735714D01*
X131945238Y-66611904D01*
X131883333Y-66550000D01*
X131759523Y-66488095D01*
X131450000Y-66488095D01*
X131264285Y-66550000D01*
X130459523Y-66488095D02*
X130211904Y-66488095D01*
X130088095Y-66550000D01*
X129964285Y-66673809D01*
X129902380Y-66921428D01*
X129902380Y-67354761D01*
X129964285Y-67602380D01*
X130088095Y-67726190D01*
X130211904Y-67788095D01*
X130459523Y-67788095D01*
X130583333Y-67726190D01*
X130707142Y-67602380D01*
X130769047Y-67354761D01*
X130769047Y-66921428D01*
X130707142Y-66673809D01*
X130583333Y-66550000D01*
X130459523Y-66488095D01*
X128726190Y-67788095D02*
X129345238Y-67788095D01*
X129345238Y-66488095D01*
X128292857Y-67788095D02*
X128292857Y-66488095D01*
X127983333Y-66488095D01*
X127797619Y-66550000D01*
X127673809Y-66673809D01*
X127611904Y-66797619D01*
X127550000Y-67045238D01*
X127550000Y-67230952D01*
X127611904Y-67478571D01*
X127673809Y-67602380D01*
X127797619Y-67726190D01*
X127983333Y-67788095D01*
X128292857Y-67788095D01*
X126992857Y-67107142D02*
X126559523Y-67107142D01*
X126373809Y-67788095D02*
X126992857Y-67788095D01*
X126992857Y-66488095D01*
X126373809Y-66488095D01*
X125073809Y-67788095D02*
X125507142Y-67169047D01*
X125816666Y-67788095D02*
X125816666Y-66488095D01*
X125321428Y-66488095D01*
X125197619Y-66550000D01*
X125135714Y-66611904D01*
X125073809Y-66735714D01*
X125073809Y-66921428D01*
X125135714Y-67045238D01*
X125197619Y-67107142D01*
X125321428Y-67169047D01*
X125816666Y-67169047D01*
X124516666Y-67788095D02*
X124516666Y-66488095D01*
X123897619Y-67788095D02*
X123897619Y-66488095D01*
X123154761Y-67788095D01*
X123154761Y-66488095D01*
X121854761Y-66550000D02*
X121978571Y-66488095D01*
X122164285Y-66488095D01*
X122350000Y-66550000D01*
X122473809Y-66673809D01*
X122535714Y-66797619D01*
X122597619Y-67045238D01*
X122597619Y-67230952D01*
X122535714Y-67478571D01*
X122473809Y-67602380D01*
X122350000Y-67726190D01*
X122164285Y-67788095D01*
X122040476Y-67788095D01*
X121854761Y-67726190D01*
X121792857Y-67664285D01*
X121792857Y-67230952D01*
X122040476Y-67230952D01*
X132471428Y-69257142D02*
X132038095Y-69257142D01*
X131852380Y-69938095D02*
X132471428Y-69938095D01*
X132471428Y-68638095D01*
X131852380Y-68638095D01*
X131480952Y-68638095D02*
X131047619Y-69938095D01*
X130614285Y-68638095D01*
X130180952Y-69257142D02*
X129747619Y-69257142D01*
X129561904Y-69938095D02*
X130180952Y-69938095D01*
X130180952Y-68638095D01*
X129561904Y-68638095D01*
X129004761Y-69938095D02*
X129004761Y-68638095D01*
X128261904Y-69938095D01*
X128261904Y-68638095D01*
X127828571Y-68638095D02*
X127085714Y-68638095D01*
X127457142Y-69938095D02*
X127457142Y-68638095D01*
X125723809Y-68761904D02*
X125661904Y-68700000D01*
X125538095Y-68638095D01*
X125228571Y-68638095D01*
X125104761Y-68700000D01*
X125042857Y-68761904D01*
X124980952Y-68885714D01*
X124980952Y-69009523D01*
X125042857Y-69195238D01*
X125785714Y-69938095D01*
X124980952Y-69938095D01*
X124176190Y-68638095D02*
X124052380Y-68638095D01*
X123928571Y-68700000D01*
X123866666Y-68761904D01*
X123804761Y-68885714D01*
X123742857Y-69133333D01*
X123742857Y-69442857D01*
X123804761Y-69690476D01*
X123866666Y-69814285D01*
X123928571Y-69876190D01*
X124052380Y-69938095D01*
X124176190Y-69938095D01*
X124300000Y-69876190D01*
X124361904Y-69814285D01*
X124423809Y-69690476D01*
X124485714Y-69442857D01*
X124485714Y-69133333D01*
X124423809Y-68885714D01*
X124361904Y-68761904D01*
X124300000Y-68700000D01*
X124176190Y-68638095D01*
X122504761Y-69938095D02*
X123247619Y-69938095D01*
X122876190Y-69938095D02*
X122876190Y-68638095D01*
X123000000Y-68823809D01*
X123123809Y-68947619D01*
X123247619Y-69009523D01*
X121885714Y-69938095D02*
X121638095Y-69938095D01*
X121514285Y-69876190D01*
X121452380Y-69814285D01*
X121328571Y-69628571D01*
X121266666Y-69380952D01*
X121266666Y-68885714D01*
X121328571Y-68761904D01*
X121390476Y-68700000D01*
X121514285Y-68638095D01*
X121761904Y-68638095D01*
X121885714Y-68700000D01*
X121947619Y-68761904D01*
X122009523Y-68885714D01*
X122009523Y-69195238D01*
X121947619Y-69319047D01*
X121885714Y-69380952D01*
X121761904Y-69442857D01*
X121514285Y-69442857D01*
X121390476Y-69380952D01*
X121328571Y-69319047D01*
X121266666Y-69195238D01*
D11*
G04 #@! TO.C,D1*
X124320000Y-58660488D02*
X124320000Y-61940488D01*
X129919999Y-60298042D02*
G75*
G02X124320000Y-61939512I-3039999J-1958D01*
G01*
X129919999Y-60301958D02*
G75*
G03X124320000Y-58660488I-3039999J1958D01*
G01*
G04 #@! TO.C,D2*
X135362000Y-77100488D02*
X135362000Y-80380488D01*
X140961999Y-78738042D02*
G75*
G02X135362000Y-80379512I-3039999J-1958D01*
G01*
X140961999Y-78741958D02*
G75*
G03X135362000Y-77100488I-3039999J1958D01*
G01*
G04 #@! TO.C,D3*
X157714000Y-76973488D02*
X157714000Y-80253488D01*
X163313999Y-78611042D02*
G75*
G02X157714000Y-80252512I-3039999J-1958D01*
G01*
X163313999Y-78614958D02*
G75*
G03X157714000Y-76973488I-3039999J1958D01*
G01*
G04 #@! TO.C,D4*
X146284000Y-96150488D02*
X146284000Y-99430488D01*
X151883999Y-97788042D02*
G75*
G02X146284000Y-99429512I-3039999J-1958D01*
G01*
X151883999Y-97791958D02*
G75*
G03X146284000Y-96150488I-3039999J1958D01*
G01*
G04 #@! TO.C,D5*
X157841000Y-115962488D02*
X157841000Y-119242488D01*
X163440999Y-117600042D02*
G75*
G02X157841000Y-119241512I-3039999J-1958D01*
G01*
X163440999Y-117603958D02*
G75*
G03X157841000Y-115962488I-3039999J1958D01*
G01*
G04 #@! TO.C,D6*
X135489000Y-115708488D02*
X135489000Y-118988488D01*
X141088999Y-117346042D02*
G75*
G02X135489000Y-118987512I-3039999J-1958D01*
G01*
X141088999Y-117349958D02*
G75*
G03X135489000Y-115708488I-3039999J1958D01*
G01*
G04 #@! TO.C,D7*
X124186000Y-135901488D02*
X124186000Y-139181488D01*
X129785999Y-137539042D02*
G75*
G02X124186000Y-139180512I-3039999J-1958D01*
G01*
X129785999Y-137542958D02*
G75*
G03X124186000Y-135901488I-3039999J1958D01*
G01*
G04 #@! TO.C,D8*
X113010000Y-116470488D02*
X113010000Y-119750488D01*
X118609999Y-118108042D02*
G75*
G02X113010000Y-119749512I-3039999J-1958D01*
G01*
X118609999Y-118111958D02*
G75*
G03X113010000Y-116470488I-3039999J1958D01*
G01*
G04 #@! TO.C,D9*
X90150000Y-115962488D02*
X90150000Y-119242488D01*
X95749999Y-117600042D02*
G75*
G02X90150000Y-119241512I-3039999J-1958D01*
G01*
X95749999Y-117603958D02*
G75*
G03X90150000Y-115962488I-3039999J1958D01*
G01*
G04 #@! TO.C,D10*
X101834000Y-96404488D02*
X101834000Y-99684488D01*
X107433999Y-98042042D02*
G75*
G02X101834000Y-99683512I-3039999J-1958D01*
G01*
X107433999Y-98045958D02*
G75*
G03X101834000Y-96404488I-3039999J1958D01*
G01*
G04 #@! TO.C,D11*
X89515000Y-76338488D02*
X89515000Y-79618488D01*
X95114999Y-77976042D02*
G75*
G02X89515000Y-79617512I-3039999J-1958D01*
G01*
X95114999Y-77979958D02*
G75*
G03X89515000Y-76338488I-3039999J1958D01*
G01*
G04 #@! TO.C,D12*
X113264000Y-76846488D02*
X113264000Y-80126488D01*
X118863999Y-78484042D02*
G75*
G02X113264000Y-80125512I-3039999J-1958D01*
G01*
X118863999Y-78487958D02*
G75*
G03X113264000Y-76846488I-3039999J1958D01*
G01*
G04 #@! TO.C,D13*
X112737000Y-87260488D02*
X112737000Y-90540488D01*
X118336999Y-88898042D02*
G75*
G02X112737000Y-90539512I-3039999J-1958D01*
G01*
X118336999Y-88901958D02*
G75*
G03X112737000Y-87260488I-3039999J1958D01*
G01*
G04 #@! TO.C,D14*
X135870000Y-105040488D02*
X135870000Y-108320488D01*
X141469999Y-106678042D02*
G75*
G02X135870000Y-108319512I-3039999J-1958D01*
G01*
X141469999Y-106681958D02*
G75*
G03X135870000Y-105040488I-3039999J1958D01*
G01*
G04 #@! TO.C,D15*
X135870000Y-87260488D02*
X135870000Y-90540488D01*
X141469999Y-88898042D02*
G75*
G02X135870000Y-90539512I-3039999J-1958D01*
G01*
X141469999Y-88901958D02*
G75*
G03X135870000Y-87260488I-3039999J1958D01*
G01*
G04 #@! TO.C,D16*
X113245000Y-105040488D02*
X113245000Y-108320488D01*
X118844999Y-106678042D02*
G75*
G02X113245000Y-108319512I-3039999J-1958D01*
G01*
X118844999Y-106681958D02*
G75*
G03X113245000Y-105040488I-3039999J1958D01*
G01*
D12*
G04 #@! TO.C,Battery1*
X138000000Y-97800000D02*
G75*
G03X138000000Y-97800000I-11000000J0D01*
G01*
X139500000Y-101300000D02*
X137500000Y-101300000D01*
X139500000Y-100800000D02*
X139500000Y-101300000D01*
X139500000Y-97800000D02*
X139500000Y-100800000D01*
X139500000Y-94300000D02*
X137500000Y-94300000D01*
X139500000Y-97800000D02*
X139500000Y-94300000D01*
G04 #@! TO.C,D1*
D13*
X128024495Y-62936780D02*
X128024495Y-61936780D01*
X127786400Y-61936780D01*
X127643542Y-61984400D01*
X127548304Y-62079638D01*
X127500685Y-62174876D01*
X127453066Y-62365352D01*
X127453066Y-62508209D01*
X127500685Y-62698685D01*
X127548304Y-62793923D01*
X127643542Y-62889161D01*
X127786400Y-62936780D01*
X128024495Y-62936780D01*
X126500685Y-62936780D02*
X127072114Y-62936780D01*
X126786400Y-62936780D02*
X126786400Y-61936780D01*
X126881638Y-62079638D01*
X126976876Y-62174876D01*
X127072114Y-62222495D01*
X128311752Y-58288628D02*
X127549847Y-58288628D01*
X127930800Y-58669580D02*
X127930800Y-57907676D01*
X126311752Y-58288628D02*
X125549847Y-58288628D01*
G04 #@! TO.C,D2*
X139066495Y-81376780D02*
X139066495Y-80376780D01*
X138828400Y-80376780D01*
X138685542Y-80424400D01*
X138590304Y-80519638D01*
X138542685Y-80614876D01*
X138495066Y-80805352D01*
X138495066Y-80948209D01*
X138542685Y-81138685D01*
X138590304Y-81233923D01*
X138685542Y-81329161D01*
X138828400Y-81376780D01*
X139066495Y-81376780D01*
X138114114Y-80472019D02*
X138066495Y-80424400D01*
X137971257Y-80376780D01*
X137733161Y-80376780D01*
X137637923Y-80424400D01*
X137590304Y-80472019D01*
X137542685Y-80567257D01*
X137542685Y-80662495D01*
X137590304Y-80805352D01*
X138161733Y-81376780D01*
X137542685Y-81376780D01*
X139353752Y-76728628D02*
X138591847Y-76728628D01*
X138972800Y-77109580D02*
X138972800Y-76347676D01*
X137353752Y-76728628D02*
X136591847Y-76728628D01*
G04 #@! TO.C,D3*
X161418495Y-81249780D02*
X161418495Y-80249780D01*
X161180400Y-80249780D01*
X161037542Y-80297400D01*
X160942304Y-80392638D01*
X160894685Y-80487876D01*
X160847066Y-80678352D01*
X160847066Y-80821209D01*
X160894685Y-81011685D01*
X160942304Y-81106923D01*
X161037542Y-81202161D01*
X161180400Y-81249780D01*
X161418495Y-81249780D01*
X160513733Y-80249780D02*
X159894685Y-80249780D01*
X160228019Y-80630733D01*
X160085161Y-80630733D01*
X159989923Y-80678352D01*
X159942304Y-80725971D01*
X159894685Y-80821209D01*
X159894685Y-81059304D01*
X159942304Y-81154542D01*
X159989923Y-81202161D01*
X160085161Y-81249780D01*
X160370876Y-81249780D01*
X160466114Y-81202161D01*
X160513733Y-81154542D01*
X161705752Y-76601628D02*
X160943847Y-76601628D01*
X161324800Y-76982580D02*
X161324800Y-76220676D01*
X159705752Y-76601628D02*
X158943847Y-76601628D01*
G04 #@! TO.C,D4*
X149988495Y-100426780D02*
X149988495Y-99426780D01*
X149750400Y-99426780D01*
X149607542Y-99474400D01*
X149512304Y-99569638D01*
X149464685Y-99664876D01*
X149417066Y-99855352D01*
X149417066Y-99998209D01*
X149464685Y-100188685D01*
X149512304Y-100283923D01*
X149607542Y-100379161D01*
X149750400Y-100426780D01*
X149988495Y-100426780D01*
X148559923Y-99760114D02*
X148559923Y-100426780D01*
X148798019Y-99379161D02*
X149036114Y-100093447D01*
X148417066Y-100093447D01*
X150275752Y-95778628D02*
X149513847Y-95778628D01*
X149894800Y-96159580D02*
X149894800Y-95397676D01*
X148275752Y-95778628D02*
X147513847Y-95778628D01*
G04 #@! TO.C,D5*
X161545495Y-120238780D02*
X161545495Y-119238780D01*
X161307400Y-119238780D01*
X161164542Y-119286400D01*
X161069304Y-119381638D01*
X161021685Y-119476876D01*
X160974066Y-119667352D01*
X160974066Y-119810209D01*
X161021685Y-120000685D01*
X161069304Y-120095923D01*
X161164542Y-120191161D01*
X161307400Y-120238780D01*
X161545495Y-120238780D01*
X160069304Y-119238780D02*
X160545495Y-119238780D01*
X160593114Y-119714971D01*
X160545495Y-119667352D01*
X160450257Y-119619733D01*
X160212161Y-119619733D01*
X160116923Y-119667352D01*
X160069304Y-119714971D01*
X160021685Y-119810209D01*
X160021685Y-120048304D01*
X160069304Y-120143542D01*
X160116923Y-120191161D01*
X160212161Y-120238780D01*
X160450257Y-120238780D01*
X160545495Y-120191161D01*
X160593114Y-120143542D01*
X161832752Y-115590628D02*
X161070847Y-115590628D01*
X161451800Y-115971580D02*
X161451800Y-115209676D01*
X159832752Y-115590628D02*
X159070847Y-115590628D01*
G04 #@! TO.C,D6*
X139193495Y-119984780D02*
X139193495Y-118984780D01*
X138955400Y-118984780D01*
X138812542Y-119032400D01*
X138717304Y-119127638D01*
X138669685Y-119222876D01*
X138622066Y-119413352D01*
X138622066Y-119556209D01*
X138669685Y-119746685D01*
X138717304Y-119841923D01*
X138812542Y-119937161D01*
X138955400Y-119984780D01*
X139193495Y-119984780D01*
X137764923Y-118984780D02*
X137955400Y-118984780D01*
X138050638Y-119032400D01*
X138098257Y-119080019D01*
X138193495Y-119222876D01*
X138241114Y-119413352D01*
X138241114Y-119794304D01*
X138193495Y-119889542D01*
X138145876Y-119937161D01*
X138050638Y-119984780D01*
X137860161Y-119984780D01*
X137764923Y-119937161D01*
X137717304Y-119889542D01*
X137669685Y-119794304D01*
X137669685Y-119556209D01*
X137717304Y-119460971D01*
X137764923Y-119413352D01*
X137860161Y-119365733D01*
X138050638Y-119365733D01*
X138145876Y-119413352D01*
X138193495Y-119460971D01*
X138241114Y-119556209D01*
X139480752Y-115336628D02*
X138718847Y-115336628D01*
X139099800Y-115717580D02*
X139099800Y-114955676D01*
X137480752Y-115336628D02*
X136718847Y-115336628D01*
G04 #@! TO.C,D7*
X127890495Y-140177780D02*
X127890495Y-139177780D01*
X127652400Y-139177780D01*
X127509542Y-139225400D01*
X127414304Y-139320638D01*
X127366685Y-139415876D01*
X127319066Y-139606352D01*
X127319066Y-139749209D01*
X127366685Y-139939685D01*
X127414304Y-140034923D01*
X127509542Y-140130161D01*
X127652400Y-140177780D01*
X127890495Y-140177780D01*
X126985733Y-139177780D02*
X126319066Y-139177780D01*
X126747638Y-140177780D01*
X128177752Y-135529628D02*
X127415847Y-135529628D01*
X127796800Y-135910580D02*
X127796800Y-135148676D01*
X126177752Y-135529628D02*
X125415847Y-135529628D01*
G04 #@! TO.C,D8*
X116714495Y-120746780D02*
X116714495Y-119746780D01*
X116476400Y-119746780D01*
X116333542Y-119794400D01*
X116238304Y-119889638D01*
X116190685Y-119984876D01*
X116143066Y-120175352D01*
X116143066Y-120318209D01*
X116190685Y-120508685D01*
X116238304Y-120603923D01*
X116333542Y-120699161D01*
X116476400Y-120746780D01*
X116714495Y-120746780D01*
X115571638Y-120175352D02*
X115666876Y-120127733D01*
X115714495Y-120080114D01*
X115762114Y-119984876D01*
X115762114Y-119937257D01*
X115714495Y-119842019D01*
X115666876Y-119794400D01*
X115571638Y-119746780D01*
X115381161Y-119746780D01*
X115285923Y-119794400D01*
X115238304Y-119842019D01*
X115190685Y-119937257D01*
X115190685Y-119984876D01*
X115238304Y-120080114D01*
X115285923Y-120127733D01*
X115381161Y-120175352D01*
X115571638Y-120175352D01*
X115666876Y-120222971D01*
X115714495Y-120270590D01*
X115762114Y-120365828D01*
X115762114Y-120556304D01*
X115714495Y-120651542D01*
X115666876Y-120699161D01*
X115571638Y-120746780D01*
X115381161Y-120746780D01*
X115285923Y-120699161D01*
X115238304Y-120651542D01*
X115190685Y-120556304D01*
X115190685Y-120365828D01*
X115238304Y-120270590D01*
X115285923Y-120222971D01*
X115381161Y-120175352D01*
X117001752Y-116098628D02*
X116239847Y-116098628D01*
X116620800Y-116479580D02*
X116620800Y-115717676D01*
X115001752Y-116098628D02*
X114239847Y-116098628D01*
G04 #@! TO.C,D9*
X93854495Y-120238780D02*
X93854495Y-119238780D01*
X93616400Y-119238780D01*
X93473542Y-119286400D01*
X93378304Y-119381638D01*
X93330685Y-119476876D01*
X93283066Y-119667352D01*
X93283066Y-119810209D01*
X93330685Y-120000685D01*
X93378304Y-120095923D01*
X93473542Y-120191161D01*
X93616400Y-120238780D01*
X93854495Y-120238780D01*
X92806876Y-120238780D02*
X92616400Y-120238780D01*
X92521161Y-120191161D01*
X92473542Y-120143542D01*
X92378304Y-120000685D01*
X92330685Y-119810209D01*
X92330685Y-119429257D01*
X92378304Y-119334019D01*
X92425923Y-119286400D01*
X92521161Y-119238780D01*
X92711638Y-119238780D01*
X92806876Y-119286400D01*
X92854495Y-119334019D01*
X92902114Y-119429257D01*
X92902114Y-119667352D01*
X92854495Y-119762590D01*
X92806876Y-119810209D01*
X92711638Y-119857828D01*
X92521161Y-119857828D01*
X92425923Y-119810209D01*
X92378304Y-119762590D01*
X92330685Y-119667352D01*
X94141752Y-115590628D02*
X93379847Y-115590628D01*
X93760800Y-115971580D02*
X93760800Y-115209676D01*
X92141752Y-115590628D02*
X91379847Y-115590628D01*
G04 #@! TO.C,D10*
X106014685Y-100680780D02*
X106014685Y-99680780D01*
X105776590Y-99680780D01*
X105633733Y-99728400D01*
X105538495Y-99823638D01*
X105490876Y-99918876D01*
X105443257Y-100109352D01*
X105443257Y-100252209D01*
X105490876Y-100442685D01*
X105538495Y-100537923D01*
X105633733Y-100633161D01*
X105776590Y-100680780D01*
X106014685Y-100680780D01*
X104490876Y-100680780D02*
X105062304Y-100680780D01*
X104776590Y-100680780D02*
X104776590Y-99680780D01*
X104871828Y-99823638D01*
X104967066Y-99918876D01*
X105062304Y-99966495D01*
X103871828Y-99680780D02*
X103776590Y-99680780D01*
X103681352Y-99728400D01*
X103633733Y-99776019D01*
X103586114Y-99871257D01*
X103538495Y-100061733D01*
X103538495Y-100299828D01*
X103586114Y-100490304D01*
X103633733Y-100585542D01*
X103681352Y-100633161D01*
X103776590Y-100680780D01*
X103871828Y-100680780D01*
X103967066Y-100633161D01*
X104014685Y-100585542D01*
X104062304Y-100490304D01*
X104109923Y-100299828D01*
X104109923Y-100061733D01*
X104062304Y-99871257D01*
X104014685Y-99776019D01*
X103967066Y-99728400D01*
X103871828Y-99680780D01*
X105825752Y-96032628D02*
X105063847Y-96032628D01*
X105444800Y-96413580D02*
X105444800Y-95651676D01*
X103825752Y-96032628D02*
X103063847Y-96032628D01*
G04 #@! TO.C,D11*
X93695685Y-80614780D02*
X93695685Y-79614780D01*
X93457590Y-79614780D01*
X93314733Y-79662400D01*
X93219495Y-79757638D01*
X93171876Y-79852876D01*
X93124257Y-80043352D01*
X93124257Y-80186209D01*
X93171876Y-80376685D01*
X93219495Y-80471923D01*
X93314733Y-80567161D01*
X93457590Y-80614780D01*
X93695685Y-80614780D01*
X92171876Y-80614780D02*
X92743304Y-80614780D01*
X92457590Y-80614780D02*
X92457590Y-79614780D01*
X92552828Y-79757638D01*
X92648066Y-79852876D01*
X92743304Y-79900495D01*
X91219495Y-80614780D02*
X91790923Y-80614780D01*
X91505209Y-80614780D02*
X91505209Y-79614780D01*
X91600447Y-79757638D01*
X91695685Y-79852876D01*
X91790923Y-79900495D01*
X93506752Y-75966628D02*
X92744847Y-75966628D01*
X93125800Y-76347580D02*
X93125800Y-75585676D01*
X91506752Y-75966628D02*
X90744847Y-75966628D01*
G04 #@! TO.C,D12*
X117444685Y-81122780D02*
X117444685Y-80122780D01*
X117206590Y-80122780D01*
X117063733Y-80170400D01*
X116968495Y-80265638D01*
X116920876Y-80360876D01*
X116873257Y-80551352D01*
X116873257Y-80694209D01*
X116920876Y-80884685D01*
X116968495Y-80979923D01*
X117063733Y-81075161D01*
X117206590Y-81122780D01*
X117444685Y-81122780D01*
X115920876Y-81122780D02*
X116492304Y-81122780D01*
X116206590Y-81122780D02*
X116206590Y-80122780D01*
X116301828Y-80265638D01*
X116397066Y-80360876D01*
X116492304Y-80408495D01*
X115539923Y-80218019D02*
X115492304Y-80170400D01*
X115397066Y-80122780D01*
X115158971Y-80122780D01*
X115063733Y-80170400D01*
X115016114Y-80218019D01*
X114968495Y-80313257D01*
X114968495Y-80408495D01*
X115016114Y-80551352D01*
X115587542Y-81122780D01*
X114968495Y-81122780D01*
X117255752Y-76474628D02*
X116493847Y-76474628D01*
X116874800Y-76855580D02*
X116874800Y-76093676D01*
X115255752Y-76474628D02*
X114493847Y-76474628D01*
G04 #@! TO.C,D13*
X116917685Y-91536780D02*
X116917685Y-90536780D01*
X116679590Y-90536780D01*
X116536733Y-90584400D01*
X116441495Y-90679638D01*
X116393876Y-90774876D01*
X116346257Y-90965352D01*
X116346257Y-91108209D01*
X116393876Y-91298685D01*
X116441495Y-91393923D01*
X116536733Y-91489161D01*
X116679590Y-91536780D01*
X116917685Y-91536780D01*
X115393876Y-91536780D02*
X115965304Y-91536780D01*
X115679590Y-91536780D02*
X115679590Y-90536780D01*
X115774828Y-90679638D01*
X115870066Y-90774876D01*
X115965304Y-90822495D01*
X115060542Y-90536780D02*
X114441495Y-90536780D01*
X114774828Y-90917733D01*
X114631971Y-90917733D01*
X114536733Y-90965352D01*
X114489114Y-91012971D01*
X114441495Y-91108209D01*
X114441495Y-91346304D01*
X114489114Y-91441542D01*
X114536733Y-91489161D01*
X114631971Y-91536780D01*
X114917685Y-91536780D01*
X115012923Y-91489161D01*
X115060542Y-91441542D01*
X116728752Y-86888628D02*
X115966847Y-86888628D01*
X116347800Y-87269580D02*
X116347800Y-86507676D01*
X114728752Y-86888628D02*
X113966847Y-86888628D01*
G04 #@! TO.C,D14*
X140050685Y-109316780D02*
X140050685Y-108316780D01*
X139812590Y-108316780D01*
X139669733Y-108364400D01*
X139574495Y-108459638D01*
X139526876Y-108554876D01*
X139479257Y-108745352D01*
X139479257Y-108888209D01*
X139526876Y-109078685D01*
X139574495Y-109173923D01*
X139669733Y-109269161D01*
X139812590Y-109316780D01*
X140050685Y-109316780D01*
X138526876Y-109316780D02*
X139098304Y-109316780D01*
X138812590Y-109316780D02*
X138812590Y-108316780D01*
X138907828Y-108459638D01*
X139003066Y-108554876D01*
X139098304Y-108602495D01*
X137669733Y-108650114D02*
X137669733Y-109316780D01*
X137907828Y-108269161D02*
X138145923Y-108983447D01*
X137526876Y-108983447D01*
X139861752Y-104668628D02*
X139099847Y-104668628D01*
X139480800Y-105049580D02*
X139480800Y-104287676D01*
X137861752Y-104668628D02*
X137099847Y-104668628D01*
G04 #@! TO.C,D15*
X140050685Y-91536780D02*
X140050685Y-90536780D01*
X139812590Y-90536780D01*
X139669733Y-90584400D01*
X139574495Y-90679638D01*
X139526876Y-90774876D01*
X139479257Y-90965352D01*
X139479257Y-91108209D01*
X139526876Y-91298685D01*
X139574495Y-91393923D01*
X139669733Y-91489161D01*
X139812590Y-91536780D01*
X140050685Y-91536780D01*
X138526876Y-91536780D02*
X139098304Y-91536780D01*
X138812590Y-91536780D02*
X138812590Y-90536780D01*
X138907828Y-90679638D01*
X139003066Y-90774876D01*
X139098304Y-90822495D01*
X137622114Y-90536780D02*
X138098304Y-90536780D01*
X138145923Y-91012971D01*
X138098304Y-90965352D01*
X138003066Y-90917733D01*
X137764971Y-90917733D01*
X137669733Y-90965352D01*
X137622114Y-91012971D01*
X137574495Y-91108209D01*
X137574495Y-91346304D01*
X137622114Y-91441542D01*
X137669733Y-91489161D01*
X137764971Y-91536780D01*
X138003066Y-91536780D01*
X138098304Y-91489161D01*
X138145923Y-91441542D01*
X139861752Y-86888628D02*
X139099847Y-86888628D01*
X139480800Y-87269580D02*
X139480800Y-86507676D01*
X137861752Y-86888628D02*
X137099847Y-86888628D01*
G04 #@! TO.C,D16*
X117425685Y-109316780D02*
X117425685Y-108316780D01*
X117187590Y-108316780D01*
X117044733Y-108364400D01*
X116949495Y-108459638D01*
X116901876Y-108554876D01*
X116854257Y-108745352D01*
X116854257Y-108888209D01*
X116901876Y-109078685D01*
X116949495Y-109173923D01*
X117044733Y-109269161D01*
X117187590Y-109316780D01*
X117425685Y-109316780D01*
X115901876Y-109316780D02*
X116473304Y-109316780D01*
X116187590Y-109316780D02*
X116187590Y-108316780D01*
X116282828Y-108459638D01*
X116378066Y-108554876D01*
X116473304Y-108602495D01*
X115044733Y-108316780D02*
X115235209Y-108316780D01*
X115330447Y-108364400D01*
X115378066Y-108412019D01*
X115473304Y-108554876D01*
X115520923Y-108745352D01*
X115520923Y-109126304D01*
X115473304Y-109221542D01*
X115425685Y-109269161D01*
X115330447Y-109316780D01*
X115139971Y-109316780D01*
X115044733Y-109269161D01*
X114997114Y-109221542D01*
X114949495Y-109126304D01*
X114949495Y-108888209D01*
X114997114Y-108792971D01*
X115044733Y-108745352D01*
X115139971Y-108697733D01*
X115330447Y-108697733D01*
X115425685Y-108745352D01*
X115473304Y-108792971D01*
X115520923Y-108888209D01*
X117236752Y-104668628D02*
X116474847Y-104668628D01*
X116855800Y-105049580D02*
X116855800Y-104287676D01*
X115236752Y-104668628D02*
X114474847Y-104668628D01*
G04 #@! TO.C,Battery1*
X130047619Y-97678571D02*
X129904761Y-97726190D01*
X129857142Y-97773809D01*
X129809523Y-97869047D01*
X129809523Y-98011904D01*
X129857142Y-98107142D01*
X129904761Y-98154761D01*
X130000000Y-98202380D01*
X130380952Y-98202380D01*
X130380952Y-97202380D01*
X130047619Y-97202380D01*
X129952380Y-97250000D01*
X129904761Y-97297619D01*
X129857142Y-97392857D01*
X129857142Y-97488095D01*
X129904761Y-97583333D01*
X129952380Y-97630952D01*
X130047619Y-97678571D01*
X130380952Y-97678571D01*
X128952380Y-98202380D02*
X128952380Y-97678571D01*
X129000000Y-97583333D01*
X129095238Y-97535714D01*
X129285714Y-97535714D01*
X129380952Y-97583333D01*
X128952380Y-98154761D02*
X129047619Y-98202380D01*
X129285714Y-98202380D01*
X129380952Y-98154761D01*
X129428571Y-98059523D01*
X129428571Y-97964285D01*
X129380952Y-97869047D01*
X129285714Y-97821428D01*
X129047619Y-97821428D01*
X128952380Y-97773809D01*
X128619047Y-97535714D02*
X128238095Y-97535714D01*
X128476190Y-97202380D02*
X128476190Y-98059523D01*
X128428571Y-98154761D01*
X128333333Y-98202380D01*
X128238095Y-98202380D01*
X128047619Y-97535714D02*
X127666666Y-97535714D01*
X127904761Y-97202380D02*
X127904761Y-98059523D01*
X127857142Y-98154761D01*
X127761904Y-98202380D01*
X127666666Y-98202380D01*
X126952380Y-98154761D02*
X127047619Y-98202380D01*
X127238095Y-98202380D01*
X127333333Y-98154761D01*
X127380952Y-98059523D01*
X127380952Y-97678571D01*
X127333333Y-97583333D01*
X127238095Y-97535714D01*
X127047619Y-97535714D01*
X126952380Y-97583333D01*
X126904761Y-97678571D01*
X126904761Y-97773809D01*
X127380952Y-97869047D01*
X126476190Y-98202380D02*
X126476190Y-97535714D01*
X126476190Y-97726190D02*
X126428571Y-97630952D01*
X126380952Y-97583333D01*
X126285714Y-97535714D01*
X126190476Y-97535714D01*
X125952380Y-97535714D02*
X125714285Y-98202380D01*
X125476190Y-97535714D02*
X125714285Y-98202380D01*
X125809523Y-98440476D01*
X125857142Y-98488095D01*
X125952380Y-98535714D01*
X124571428Y-98202380D02*
X125142857Y-98202380D01*
X124857142Y-98202380D02*
X124857142Y-97202380D01*
X124952380Y-97345238D01*
X125047619Y-97440476D01*
X125142857Y-97488095D01*
D14*
X136142857Y-97038095D02*
X136142857Y-98561904D01*
X136904761Y-97800000D02*
X135380952Y-97800000D01*
X121642857Y-97038095D02*
X121642857Y-98561904D01*
X132090476Y-95364285D02*
X132185714Y-95459523D01*
X132471428Y-95554761D01*
X132661904Y-95554761D01*
X132947619Y-95459523D01*
X133138095Y-95269047D01*
X133233333Y-95078571D01*
X133328571Y-94697619D01*
X133328571Y-94411904D01*
X133233333Y-94030952D01*
X133138095Y-93840476D01*
X132947619Y-93650000D01*
X132661904Y-93554761D01*
X132471428Y-93554761D01*
X132185714Y-93650000D01*
X132090476Y-93745238D01*
X130090476Y-95554761D02*
X130757142Y-94602380D01*
X131233333Y-95554761D02*
X131233333Y-93554761D01*
X130471428Y-93554761D01*
X130280952Y-93650000D01*
X130185714Y-93745238D01*
X130090476Y-93935714D01*
X130090476Y-94221428D01*
X130185714Y-94411904D01*
X130280952Y-94507142D01*
X130471428Y-94602380D01*
X131233333Y-94602380D01*
X129328571Y-93745238D02*
X129233333Y-93650000D01*
X129042857Y-93554761D01*
X128566666Y-93554761D01*
X128376190Y-93650000D01*
X128280952Y-93745238D01*
X128185714Y-93935714D01*
X128185714Y-94126190D01*
X128280952Y-94411904D01*
X129423809Y-95554761D01*
X128185714Y-95554761D01*
X126947619Y-93554761D02*
X126757142Y-93554761D01*
X126566666Y-93650000D01*
X126471428Y-93745238D01*
X126376190Y-93935714D01*
X126280952Y-94316666D01*
X126280952Y-94792857D01*
X126376190Y-95173809D01*
X126471428Y-95364285D01*
X126566666Y-95459523D01*
X126757142Y-95554761D01*
X126947619Y-95554761D01*
X127138095Y-95459523D01*
X127233333Y-95364285D01*
X127328571Y-95173809D01*
X127423809Y-94792857D01*
X127423809Y-94316666D01*
X127328571Y-93935714D01*
X127233333Y-93745238D01*
X127138095Y-93650000D01*
X126947619Y-93554761D01*
X125614285Y-93554761D02*
X124376190Y-93554761D01*
X125042857Y-94316666D01*
X124757142Y-94316666D01*
X124566666Y-94411904D01*
X124471428Y-94507142D01*
X124376190Y-94697619D01*
X124376190Y-95173809D01*
X124471428Y-95364285D01*
X124566666Y-95459523D01*
X124757142Y-95554761D01*
X125328571Y-95554761D01*
X125519047Y-95459523D01*
X125614285Y-95364285D01*
X123614285Y-93745238D02*
X123519047Y-93650000D01*
X123328571Y-93554761D01*
X122852380Y-93554761D01*
X122661904Y-93650000D01*
X122566666Y-93745238D01*
X122471428Y-93935714D01*
X122471428Y-94126190D01*
X122566666Y-94411904D01*
X123709523Y-95554761D01*
X122471428Y-95554761D01*
G04 #@! TD*
M02*
