G04 #@! TF.FileFunction,Soldermask,Bot*
%FSLAX46Y46*%
G04 Gerber Fmt 4.6, Leading zero omitted, Abs format (unit mm)*
G04 Created by KiCad (PCBNEW 4.0.7) date 08/16/18 21:07:37*
%MOMM*%
%LPD*%
G01*
G04 APERTURE LIST*
%ADD10C,0.100000*%
%ADD11R,2.200000X2.200000*%
%ADD12C,2.200000*%
%ADD13R,2.100000X2.100000*%
%ADD14O,2.100000X2.100000*%
%ADD15R,2.000000X2.000000*%
%ADD16O,2.000000X2.000000*%
%ADD17C,2.400000*%
%ADD18C,2.900000*%
G04 APERTURE END LIST*
D10*
D11*
X130683000Y-85217000D03*
D12*
X133223000Y-85217000D03*
D11*
X130683000Y-76117000D03*
D12*
X133223000Y-76117000D03*
D11*
X130683000Y-67017000D03*
D12*
X133223000Y-67017000D03*
D11*
X130683000Y-57917000D03*
D12*
X133223000Y-57917000D03*
D11*
X150283000Y-57917000D03*
D12*
X152823000Y-57917000D03*
D11*
X160083000Y-57917000D03*
D12*
X162623000Y-57917000D03*
D11*
X169883000Y-57917000D03*
D12*
X172423000Y-57917000D03*
D11*
X179683000Y-57917000D03*
D12*
X182223000Y-57917000D03*
D11*
X189483000Y-57917000D03*
D12*
X192023000Y-57917000D03*
D11*
X199283000Y-57917000D03*
D12*
X201823000Y-57917000D03*
D11*
X209083000Y-57917000D03*
D12*
X211623000Y-57917000D03*
D11*
X209083000Y-76117000D03*
D12*
X211623000Y-76117000D03*
D11*
X209083000Y-85217000D03*
D12*
X211623000Y-85217000D03*
D11*
X192557000Y-85217000D03*
D12*
X195097000Y-85217000D03*
D11*
X192557000Y-73837800D03*
D12*
X195097000Y-73837800D03*
D11*
X185369000Y-73837800D03*
D12*
X187909000Y-73837800D03*
D11*
X178156000Y-73837800D03*
D12*
X180696000Y-73837800D03*
D11*
X178156000Y-83037800D03*
D12*
X180696000Y-83037800D03*
D11*
X178156000Y-120699000D03*
D12*
X180696000Y-120699000D03*
D11*
X178156000Y-129899000D03*
D12*
X180696000Y-129899000D03*
D11*
X188156000Y-129899000D03*
D12*
X190696000Y-129899000D03*
D11*
X188150000Y-146558000D03*
D12*
X190690000Y-146558000D03*
D11*
X178950000Y-146558000D03*
D12*
X181490000Y-146558000D03*
D11*
X169926000Y-146558000D03*
D12*
X172466000Y-146558000D03*
D11*
X160902000Y-146558000D03*
D12*
X163442000Y-146558000D03*
D11*
X151877000Y-129899000D03*
D12*
X154417000Y-129899000D03*
D11*
X161734000Y-129921000D03*
D12*
X164274000Y-129921000D03*
D11*
X161734000Y-120699000D03*
D12*
X164274000Y-120699000D03*
D13*
X168656000Y-93345000D03*
D14*
X171196000Y-93345000D03*
X173736000Y-93345000D03*
D15*
X167450000Y-122618000D03*
D16*
X175070000Y-130238000D03*
X167450000Y-125158000D03*
X175070000Y-127698000D03*
X167450000Y-127698000D03*
X175070000Y-125158000D03*
X167450000Y-130238000D03*
X175070000Y-122618000D03*
D11*
X140483000Y-57917000D03*
D12*
X143023000Y-57917000D03*
D11*
X209083000Y-67017000D03*
D12*
X211623000Y-67017000D03*
D11*
X178156000Y-92237800D03*
D12*
X180696000Y-92237800D03*
D11*
X151877000Y-146558000D03*
D12*
X154417000Y-146558000D03*
D11*
X161734000Y-92237800D03*
D12*
X164274000Y-92237800D03*
D11*
X161734000Y-83037800D03*
D12*
X164274000Y-83037800D03*
D11*
X161734000Y-73837800D03*
D12*
X164274000Y-73837800D03*
D11*
X154496000Y-73850500D03*
D12*
X157036000Y-73850500D03*
D11*
X147256000Y-73850500D03*
D12*
X149796000Y-73850500D03*
D11*
X147256000Y-85217000D03*
D12*
X149796000Y-85217000D03*
D17*
X183388000Y-67746000D03*
X183388000Y-63246000D03*
X189888000Y-67746000D03*
X189888000Y-63246000D03*
D18*
X171196000Y-99569000D03*
X171196000Y-119069000D03*
D13*
X152400000Y-67310000D03*
D14*
X154940000Y-67310000D03*
X157480000Y-67310000D03*
X160020000Y-67310000D03*
X162560000Y-67310000D03*
D13*
X170180000Y-64770000D03*
D14*
X172720000Y-64770000D03*
D15*
X198298000Y-69215000D03*
D16*
X205918000Y-86995000D03*
X198298000Y-71755000D03*
X205918000Y-84455000D03*
X198298000Y-74295000D03*
X205918000Y-81915000D03*
X198298000Y-76835000D03*
X205918000Y-79375000D03*
X198298000Y-79375000D03*
X205918000Y-76835000D03*
X198298000Y-81915000D03*
X205918000Y-74295000D03*
X198298000Y-84455000D03*
X205918000Y-71755000D03*
X198298000Y-86995000D03*
X205918000Y-69215000D03*
D15*
X167373000Y-69215000D03*
D16*
X174993000Y-86995000D03*
X167373000Y-71755000D03*
X174993000Y-84455000D03*
X167373000Y-74295000D03*
X174993000Y-81915000D03*
X167373000Y-76835000D03*
X174993000Y-79375000D03*
X167373000Y-79375000D03*
X174993000Y-76835000D03*
X167373000Y-81915000D03*
X174993000Y-74295000D03*
X167373000Y-84455000D03*
X174993000Y-71755000D03*
X167373000Y-86995000D03*
X174993000Y-69215000D03*
D15*
X136449000Y-69215000D03*
D16*
X144069000Y-86995000D03*
X136449000Y-71755000D03*
X144069000Y-84455000D03*
X136449000Y-74295000D03*
X144069000Y-81915000D03*
X136449000Y-76835000D03*
X144069000Y-79375000D03*
X136449000Y-79375000D03*
X144069000Y-76835000D03*
X136449000Y-81915000D03*
X144069000Y-74295000D03*
X136449000Y-84455000D03*
X144069000Y-71755000D03*
X136449000Y-86995000D03*
X144069000Y-69215000D03*
D15*
X173418000Y-142002000D03*
D16*
X191198000Y-134382000D03*
X175958000Y-142002000D03*
X188658000Y-134382000D03*
X178498000Y-142002000D03*
X186118000Y-134382000D03*
X181038000Y-142002000D03*
X183578000Y-134382000D03*
X183578000Y-142002000D03*
X181038000Y-134382000D03*
X186118000Y-142002000D03*
X178498000Y-134382000D03*
X188658000Y-142002000D03*
X175958000Y-134382000D03*
X191198000Y-142002000D03*
X173418000Y-134382000D03*
D15*
X151511000Y-141922000D03*
D16*
X169291000Y-134302000D03*
X154051000Y-141922000D03*
X166751000Y-134302000D03*
X156591000Y-141922000D03*
X164211000Y-134302000D03*
X159131000Y-141922000D03*
X161671000Y-134302000D03*
X161671000Y-141922000D03*
X159131000Y-134302000D03*
X164211000Y-141922000D03*
X156591000Y-134302000D03*
X166751000Y-141922000D03*
X154051000Y-134302000D03*
X169291000Y-141922000D03*
X151511000Y-134302000D03*
M02*
