G04 #@! TF.FileFunction,Legend,Bot*
%FSLAX46Y46*%
G04 Gerber Fmt 4.6, Leading zero omitted, Abs format (unit mm)*
G04 Created by KiCad (PCBNEW 4.0.7) date 08/16/18 21:07:37*
%MOMM*%
%LPD*%
G01*
G04 APERTURE LIST*
%ADD10C,0.100000*%
%ADD11C,0.300000*%
%ADD12C,0.175000*%
%ADD13C,0.200000*%
%ADD14C,0.250000*%
%ADD15C,0.150000*%
G04 APERTURE END LIST*
D10*
D11*
X187686000Y-65424857D02*
X187471714Y-65496286D01*
X187400286Y-65567714D01*
X187328857Y-65710571D01*
X187328857Y-65924857D01*
X187400286Y-66067714D01*
X187471714Y-66139143D01*
X187614572Y-66210571D01*
X188186000Y-66210571D01*
X188186000Y-64710571D01*
X187686000Y-64710571D01*
X187543143Y-64782000D01*
X187471714Y-64853429D01*
X187400286Y-64996286D01*
X187400286Y-65139143D01*
X187471714Y-65282000D01*
X187543143Y-65353429D01*
X187686000Y-65424857D01*
X188186000Y-65424857D01*
X186900286Y-64710571D02*
X186043143Y-64710571D01*
X186471714Y-66210571D02*
X186471714Y-64710571D01*
X185543143Y-66210571D02*
X185543143Y-64710571D01*
X184686000Y-66210571D01*
X184686000Y-64710571D01*
D12*
X174158286Y-122033071D02*
X173858286Y-123533071D01*
X173558286Y-122033071D01*
X172744000Y-123390214D02*
X172786857Y-123461643D01*
X172915428Y-123533071D01*
X173001142Y-123533071D01*
X173129714Y-123461643D01*
X173215428Y-123318786D01*
X173258285Y-123175929D01*
X173301142Y-122890214D01*
X173301142Y-122675929D01*
X173258285Y-122390214D01*
X173215428Y-122247357D01*
X173129714Y-122104500D01*
X173001142Y-122033071D01*
X172915428Y-122033071D01*
X172786857Y-122104500D01*
X172744000Y-122175929D01*
X171844000Y-123390214D02*
X171886857Y-123461643D01*
X172015428Y-123533071D01*
X172101142Y-123533071D01*
X172229714Y-123461643D01*
X172315428Y-123318786D01*
X172358285Y-123175929D01*
X172401142Y-122890214D01*
X172401142Y-122675929D01*
X172358285Y-122390214D01*
X172315428Y-122247357D01*
X172229714Y-122104500D01*
X172101142Y-122033071D01*
X172015428Y-122033071D01*
X171886857Y-122104500D01*
X171844000Y-122175929D01*
X170258286Y-123533071D02*
X170558286Y-122818786D01*
X170772571Y-123533071D02*
X170772571Y-122033071D01*
X170429714Y-122033071D01*
X170344000Y-122104500D01*
X170301143Y-122175929D01*
X170258286Y-122318786D01*
X170258286Y-122533071D01*
X170301143Y-122675929D01*
X170344000Y-122747357D01*
X170429714Y-122818786D01*
X170772571Y-122818786D01*
X169915428Y-123461643D02*
X169786857Y-123533071D01*
X169572571Y-123533071D01*
X169486857Y-123461643D01*
X169444000Y-123390214D01*
X169401143Y-123247357D01*
X169401143Y-123104500D01*
X169444000Y-122961643D01*
X169486857Y-122890214D01*
X169572571Y-122818786D01*
X169744000Y-122747357D01*
X169829714Y-122675929D01*
X169872571Y-122604500D01*
X169915428Y-122461643D01*
X169915428Y-122318786D01*
X169872571Y-122175929D01*
X169829714Y-122104500D01*
X169744000Y-122033071D01*
X169529714Y-122033071D01*
X169401143Y-122104500D01*
X169144000Y-122033071D02*
X168629714Y-122033071D01*
X168886857Y-123533071D02*
X168886857Y-122033071D01*
X173515429Y-125958071D02*
X173815429Y-125243786D01*
X174029714Y-125958071D02*
X174029714Y-124458071D01*
X173686857Y-124458071D01*
X173601143Y-124529500D01*
X173558286Y-124600929D01*
X173515429Y-124743786D01*
X173515429Y-124958071D01*
X173558286Y-125100929D01*
X173601143Y-125172357D01*
X173686857Y-125243786D01*
X174029714Y-125243786D01*
X172615429Y-125815214D02*
X172658286Y-125886643D01*
X172786857Y-125958071D01*
X172872571Y-125958071D01*
X173001143Y-125886643D01*
X173086857Y-125743786D01*
X173129714Y-125600929D01*
X173172571Y-125315214D01*
X173172571Y-125100929D01*
X173129714Y-124815214D01*
X173086857Y-124672357D01*
X173001143Y-124529500D01*
X172872571Y-124458071D01*
X172786857Y-124458071D01*
X172658286Y-124529500D01*
X172615429Y-124600929D01*
X171801143Y-125958071D02*
X172229714Y-125958071D01*
X172229714Y-124458071D01*
X171501143Y-125958071D02*
X171501143Y-124458071D01*
X170986858Y-125958071D02*
X171372572Y-125100929D01*
X170986858Y-124458071D02*
X171501143Y-125315214D01*
X169744001Y-124458071D02*
X169572572Y-124458071D01*
X169486858Y-124529500D01*
X169401144Y-124672357D01*
X169358286Y-124958071D01*
X169358286Y-125458071D01*
X169401144Y-125743786D01*
X169486858Y-125886643D01*
X169572572Y-125958071D01*
X169744001Y-125958071D01*
X169829715Y-125886643D01*
X169915429Y-125743786D01*
X169958286Y-125458071D01*
X169958286Y-124958071D01*
X169915429Y-124672357D01*
X169829715Y-124529500D01*
X169744001Y-124458071D01*
X168972572Y-125172357D02*
X168672572Y-125172357D01*
X168544001Y-125958071D02*
X168972572Y-125958071D01*
X168972572Y-124458071D01*
X168544001Y-124458071D01*
X173515429Y-128240214D02*
X173558286Y-128311643D01*
X173686857Y-128383071D01*
X173772571Y-128383071D01*
X173901143Y-128311643D01*
X173986857Y-128168786D01*
X174029714Y-128025929D01*
X174072571Y-127740214D01*
X174072571Y-127525929D01*
X174029714Y-127240214D01*
X173986857Y-127097357D01*
X173901143Y-126954500D01*
X173772571Y-126883071D01*
X173686857Y-126883071D01*
X173558286Y-126954500D01*
X173515429Y-127025929D01*
X172701143Y-128383071D02*
X173129714Y-128383071D01*
X173129714Y-126883071D01*
X172401143Y-128383071D02*
X172401143Y-126883071D01*
X171886858Y-128383071D02*
X172272572Y-127525929D01*
X171886858Y-126883071D02*
X172401143Y-127740214D01*
X170515429Y-127597357D02*
X170386858Y-127668786D01*
X170344001Y-127740214D01*
X170301144Y-127883071D01*
X170301144Y-128097357D01*
X170344001Y-128240214D01*
X170386858Y-128311643D01*
X170472572Y-128383071D01*
X170815429Y-128383071D01*
X170815429Y-126883071D01*
X170515429Y-126883071D01*
X170429715Y-126954500D01*
X170386858Y-127025929D01*
X170344001Y-127168786D01*
X170344001Y-127311643D01*
X170386858Y-127454500D01*
X170429715Y-127525929D01*
X170515429Y-127597357D01*
X170815429Y-127597357D01*
X170044001Y-126883071D02*
X169529715Y-126883071D01*
X169786858Y-128383071D02*
X169786858Y-126883071D01*
X169229715Y-128383071D02*
X169229715Y-126883071D01*
X168715430Y-128383071D01*
X168715430Y-126883071D01*
X174029714Y-130808071D02*
X174029714Y-129308071D01*
X173815429Y-129308071D01*
X173686857Y-129379500D01*
X173601143Y-129522357D01*
X173558286Y-129665214D01*
X173515429Y-129950929D01*
X173515429Y-130165214D01*
X173558286Y-130450929D01*
X173601143Y-130593786D01*
X173686857Y-130736643D01*
X173815429Y-130808071D01*
X174029714Y-130808071D01*
X173172571Y-130379500D02*
X172744000Y-130379500D01*
X173258286Y-130808071D02*
X172958286Y-129308071D01*
X172658286Y-130808071D01*
X172486857Y-129308071D02*
X171972571Y-129308071D01*
X172229714Y-130808071D02*
X172229714Y-129308071D01*
X170515429Y-129379500D02*
X170601143Y-129308071D01*
X170729714Y-129308071D01*
X170858286Y-129379500D01*
X170944000Y-129522357D01*
X170986857Y-129665214D01*
X171029714Y-129950929D01*
X171029714Y-130165214D01*
X170986857Y-130450929D01*
X170944000Y-130593786D01*
X170858286Y-130736643D01*
X170729714Y-130808071D01*
X170644000Y-130808071D01*
X170515429Y-130736643D01*
X170472572Y-130665214D01*
X170472572Y-130165214D01*
X170644000Y-130165214D01*
X170086857Y-130808071D02*
X170086857Y-129308071D01*
X169572572Y-130808071D01*
X169572572Y-129308071D01*
X169144000Y-130808071D02*
X169144000Y-129308071D01*
X168929715Y-129308071D01*
X168801143Y-129379500D01*
X168715429Y-129522357D01*
X168672572Y-129665214D01*
X168629715Y-129950929D01*
X168629715Y-130165214D01*
X168672572Y-130450929D01*
X168715429Y-130593786D01*
X168801143Y-130736643D01*
X168929715Y-130808071D01*
X169144000Y-130808071D01*
D11*
X173196000Y-115510571D02*
X172696000Y-117010571D01*
X172196000Y-115510571D01*
X170838857Y-116867714D02*
X170910286Y-116939143D01*
X171124572Y-117010571D01*
X171267429Y-117010571D01*
X171481714Y-116939143D01*
X171624572Y-116796286D01*
X171696000Y-116653429D01*
X171767429Y-116367714D01*
X171767429Y-116153429D01*
X171696000Y-115867714D01*
X171624572Y-115724857D01*
X171481714Y-115582000D01*
X171267429Y-115510571D01*
X171124572Y-115510571D01*
X170910286Y-115582000D01*
X170838857Y-115653429D01*
X169338857Y-116867714D02*
X169410286Y-116939143D01*
X169624572Y-117010571D01*
X169767429Y-117010571D01*
X169981714Y-116939143D01*
X170124572Y-116796286D01*
X170196000Y-116653429D01*
X170267429Y-116367714D01*
X170267429Y-116153429D01*
X170196000Y-115867714D01*
X170124572Y-115724857D01*
X169981714Y-115582000D01*
X169767429Y-115510571D01*
X169624572Y-115510571D01*
X169410286Y-115582000D01*
X169338857Y-115653429D01*
X172338857Y-101866000D02*
X172481714Y-101794571D01*
X172696000Y-101794571D01*
X172910285Y-101866000D01*
X173053143Y-102008857D01*
X173124571Y-102151714D01*
X173196000Y-102437429D01*
X173196000Y-102651714D01*
X173124571Y-102937429D01*
X173053143Y-103080286D01*
X172910285Y-103223143D01*
X172696000Y-103294571D01*
X172553143Y-103294571D01*
X172338857Y-103223143D01*
X172267428Y-103151714D01*
X172267428Y-102651714D01*
X172553143Y-102651714D01*
X171624571Y-103294571D02*
X171624571Y-101794571D01*
X170767428Y-103294571D01*
X170767428Y-101794571D01*
X170053142Y-103294571D02*
X170053142Y-101794571D01*
X169695999Y-101794571D01*
X169481714Y-101866000D01*
X169338856Y-102008857D01*
X169267428Y-102151714D01*
X169195999Y-102437429D01*
X169195999Y-102651714D01*
X169267428Y-102937429D01*
X169338856Y-103080286D01*
X169481714Y-103223143D01*
X169695999Y-103294571D01*
X170053142Y-103294571D01*
D13*
X182120953Y-107696000D02*
G75*
G03X182120953Y-107696000I-10924953J0D01*
G01*
D14*
X169450000Y-60960286D02*
X169378571Y-60865048D01*
X169378571Y-60722191D01*
X169450000Y-60579333D01*
X169592857Y-60484095D01*
X169735714Y-60436476D01*
X170021429Y-60388857D01*
X170235714Y-60388857D01*
X170521429Y-60436476D01*
X170664286Y-60484095D01*
X170807143Y-60579333D01*
X170878571Y-60722191D01*
X170878571Y-60817429D01*
X170807143Y-60960286D01*
X170735714Y-61007905D01*
X170235714Y-61007905D01*
X170235714Y-60817429D01*
X170878571Y-61436476D02*
X169378571Y-61436476D01*
X170878571Y-62007905D01*
X169378571Y-62007905D01*
X170878571Y-62484095D02*
X169378571Y-62484095D01*
X169378571Y-62722190D01*
X169450000Y-62865048D01*
X169592857Y-62960286D01*
X169735714Y-63007905D01*
X170021429Y-63055524D01*
X170235714Y-63055524D01*
X170521429Y-63007905D01*
X170664286Y-62960286D01*
X170807143Y-62865048D01*
X170878571Y-62722190D01*
X170878571Y-62484095D01*
X171878571Y-60484095D02*
X173378571Y-60817428D01*
X171878571Y-61150762D01*
X173235714Y-62055524D02*
X173307143Y-62007905D01*
X173378571Y-61865048D01*
X173378571Y-61769810D01*
X173307143Y-61626952D01*
X173164286Y-61531714D01*
X173021429Y-61484095D01*
X172735714Y-61436476D01*
X172521429Y-61436476D01*
X172235714Y-61484095D01*
X172092857Y-61531714D01*
X171950000Y-61626952D01*
X171878571Y-61769810D01*
X171878571Y-61865048D01*
X171950000Y-62007905D01*
X172021429Y-62055524D01*
X173235714Y-63055524D02*
X173307143Y-63007905D01*
X173378571Y-62865048D01*
X173378571Y-62769810D01*
X173307143Y-62626952D01*
X173164286Y-62531714D01*
X173021429Y-62484095D01*
X172735714Y-62436476D01*
X172521429Y-62436476D01*
X172235714Y-62484095D01*
X172092857Y-62531714D01*
X171950000Y-62626952D01*
X171878571Y-62769810D01*
X171878571Y-62865048D01*
X171950000Y-63007905D01*
X172021429Y-63055524D01*
X153412571Y-62389142D02*
X151912571Y-62389142D01*
X151912571Y-62627237D01*
X151984000Y-62770095D01*
X152126857Y-62865333D01*
X152269714Y-62912952D01*
X152555429Y-62960571D01*
X152769714Y-62960571D01*
X153055429Y-62912952D01*
X153198286Y-62865333D01*
X153341143Y-62770095D01*
X153412571Y-62627237D01*
X153412571Y-62389142D01*
X153412571Y-63817714D02*
X152626857Y-63817714D01*
X152484000Y-63770095D01*
X152412571Y-63674857D01*
X152412571Y-63484380D01*
X152484000Y-63389142D01*
X153341143Y-63817714D02*
X153412571Y-63722476D01*
X153412571Y-63484380D01*
X153341143Y-63389142D01*
X153198286Y-63341523D01*
X153055429Y-63341523D01*
X152912571Y-63389142D01*
X152841143Y-63484380D01*
X152841143Y-63722476D01*
X152769714Y-63817714D01*
X152412571Y-64151047D02*
X152412571Y-64531999D01*
X151912571Y-64293904D02*
X153198286Y-64293904D01*
X153341143Y-64341523D01*
X153412571Y-64436761D01*
X153412571Y-64531999D01*
X153412571Y-65293905D02*
X152626857Y-65293905D01*
X152484000Y-65246286D01*
X152412571Y-65151048D01*
X152412571Y-64960571D01*
X152484000Y-64865333D01*
X153341143Y-65293905D02*
X153412571Y-65198667D01*
X153412571Y-64960571D01*
X153341143Y-64865333D01*
X153198286Y-64817714D01*
X153055429Y-64817714D01*
X152912571Y-64865333D01*
X152841143Y-64960571D01*
X152841143Y-65198667D01*
X152769714Y-65293905D01*
X155769714Y-62246285D02*
X155841143Y-62198666D01*
X155912571Y-62055809D01*
X155912571Y-61960571D01*
X155841143Y-61817713D01*
X155698286Y-61722475D01*
X155555429Y-61674856D01*
X155269714Y-61627237D01*
X155055429Y-61627237D01*
X154769714Y-61674856D01*
X154626857Y-61722475D01*
X154484000Y-61817713D01*
X154412571Y-61960571D01*
X154412571Y-62055809D01*
X154484000Y-62198666D01*
X154555429Y-62246285D01*
X155912571Y-62817713D02*
X155841143Y-62722475D01*
X155698286Y-62674856D01*
X154412571Y-62674856D01*
X155912571Y-63341523D02*
X155841143Y-63246285D01*
X155769714Y-63198666D01*
X155626857Y-63151047D01*
X155198286Y-63151047D01*
X155055429Y-63198666D01*
X154984000Y-63246285D01*
X154912571Y-63341523D01*
X154912571Y-63484381D01*
X154984000Y-63579619D01*
X155055429Y-63627238D01*
X155198286Y-63674857D01*
X155626857Y-63674857D01*
X155769714Y-63627238D01*
X155841143Y-63579619D01*
X155912571Y-63484381D01*
X155912571Y-63341523D01*
X155841143Y-64532000D02*
X155912571Y-64436762D01*
X155912571Y-64246285D01*
X155841143Y-64151047D01*
X155769714Y-64103428D01*
X155626857Y-64055809D01*
X155198286Y-64055809D01*
X155055429Y-64103428D01*
X154984000Y-64151047D01*
X154912571Y-64246285D01*
X154912571Y-64436762D01*
X154984000Y-64532000D01*
X155912571Y-64960571D02*
X154412571Y-64960571D01*
X155341143Y-65055809D02*
X155912571Y-65341524D01*
X154912571Y-65341524D02*
X155484000Y-64960571D01*
X158412571Y-62246285D02*
X157698286Y-61912951D01*
X158412571Y-61674856D02*
X156912571Y-61674856D01*
X156912571Y-62055809D01*
X156984000Y-62151047D01*
X157055429Y-62198666D01*
X157198286Y-62246285D01*
X157412571Y-62246285D01*
X157555429Y-62198666D01*
X157626857Y-62151047D01*
X157698286Y-62055809D01*
X157698286Y-61674856D01*
X158341143Y-63055809D02*
X158412571Y-62960571D01*
X158412571Y-62770094D01*
X158341143Y-62674856D01*
X158198286Y-62627237D01*
X157626857Y-62627237D01*
X157484000Y-62674856D01*
X157412571Y-62770094D01*
X157412571Y-62960571D01*
X157484000Y-63055809D01*
X157626857Y-63103428D01*
X157769714Y-63103428D01*
X157912571Y-62627237D01*
X158341143Y-63484380D02*
X158412571Y-63579618D01*
X158412571Y-63770094D01*
X158341143Y-63865333D01*
X158198286Y-63912952D01*
X158126857Y-63912952D01*
X157984000Y-63865333D01*
X157912571Y-63770094D01*
X157912571Y-63627237D01*
X157841143Y-63531999D01*
X157698286Y-63484380D01*
X157626857Y-63484380D01*
X157484000Y-63531999D01*
X157412571Y-63627237D01*
X157412571Y-63770094D01*
X157484000Y-63865333D01*
X158341143Y-64722476D02*
X158412571Y-64627238D01*
X158412571Y-64436761D01*
X158341143Y-64341523D01*
X158198286Y-64293904D01*
X157626857Y-64293904D01*
X157484000Y-64341523D01*
X157412571Y-64436761D01*
X157412571Y-64627238D01*
X157484000Y-64722476D01*
X157626857Y-64770095D01*
X157769714Y-64770095D01*
X157912571Y-64293904D01*
X157412571Y-65055809D02*
X157412571Y-65436761D01*
X156912571Y-65198666D02*
X158198286Y-65198666D01*
X158341143Y-65246285D01*
X158412571Y-65341523D01*
X158412571Y-65436761D01*
X160912571Y-60770095D02*
X160198286Y-60436761D01*
X160912571Y-60198666D02*
X159412571Y-60198666D01*
X159412571Y-60579619D01*
X159484000Y-60674857D01*
X159555429Y-60722476D01*
X159698286Y-60770095D01*
X159912571Y-60770095D01*
X160055429Y-60722476D01*
X160126857Y-60674857D01*
X160198286Y-60579619D01*
X160198286Y-60198666D01*
X160769714Y-61198666D02*
X160841143Y-61246285D01*
X160912571Y-61198666D01*
X160841143Y-61151047D01*
X160769714Y-61198666D01*
X160912571Y-61198666D01*
X160769714Y-62246285D02*
X160841143Y-62198666D01*
X160912571Y-62055809D01*
X160912571Y-61960571D01*
X160841143Y-61817713D01*
X160698286Y-61722475D01*
X160555429Y-61674856D01*
X160269714Y-61627237D01*
X160055429Y-61627237D01*
X159769714Y-61674856D01*
X159626857Y-61722475D01*
X159484000Y-61817713D01*
X159412571Y-61960571D01*
X159412571Y-62055809D01*
X159484000Y-62198666D01*
X159555429Y-62246285D01*
X160912571Y-62817713D02*
X160841143Y-62722475D01*
X160698286Y-62674856D01*
X159412571Y-62674856D01*
X160912571Y-63341523D02*
X160841143Y-63246285D01*
X160769714Y-63198666D01*
X160626857Y-63151047D01*
X160198286Y-63151047D01*
X160055429Y-63198666D01*
X159984000Y-63246285D01*
X159912571Y-63341523D01*
X159912571Y-63484381D01*
X159984000Y-63579619D01*
X160055429Y-63627238D01*
X160198286Y-63674857D01*
X160626857Y-63674857D01*
X160769714Y-63627238D01*
X160841143Y-63579619D01*
X160912571Y-63484381D01*
X160912571Y-63341523D01*
X160841143Y-64532000D02*
X160912571Y-64436762D01*
X160912571Y-64246285D01*
X160841143Y-64151047D01*
X160769714Y-64103428D01*
X160626857Y-64055809D01*
X160198286Y-64055809D01*
X160055429Y-64103428D01*
X159984000Y-64151047D01*
X159912571Y-64246285D01*
X159912571Y-64436762D01*
X159984000Y-64532000D01*
X160912571Y-64960571D02*
X159412571Y-64960571D01*
X160341143Y-65055809D02*
X160912571Y-65341524D01*
X159912571Y-65341524D02*
X160484000Y-64960571D01*
X161912571Y-64008190D02*
X161912571Y-64198667D01*
X161984000Y-64293905D01*
X162126857Y-64389143D01*
X162412571Y-64436762D01*
X162912571Y-64436762D01*
X163198286Y-64389143D01*
X163341143Y-64293905D01*
X163412571Y-64198667D01*
X163412571Y-64008190D01*
X163341143Y-63912952D01*
X163198286Y-63817714D01*
X162912571Y-63770095D01*
X162412571Y-63770095D01*
X162126857Y-63817714D01*
X161984000Y-63912952D01*
X161912571Y-64008190D01*
X162626857Y-64865333D02*
X162626857Y-65198667D01*
X163412571Y-65341524D02*
X163412571Y-64865333D01*
X161912571Y-64865333D01*
X161912571Y-65341524D01*
D15*
X204731333Y-68667381D02*
X204398000Y-69667381D01*
X204064666Y-68667381D01*
X203159904Y-69572143D02*
X203207523Y-69619762D01*
X203350380Y-69667381D01*
X203445618Y-69667381D01*
X203588476Y-69619762D01*
X203683714Y-69524524D01*
X203731333Y-69429286D01*
X203778952Y-69238810D01*
X203778952Y-69095952D01*
X203731333Y-68905476D01*
X203683714Y-68810238D01*
X203588476Y-68715000D01*
X203445618Y-68667381D01*
X203350380Y-68667381D01*
X203207523Y-68715000D01*
X203159904Y-68762619D01*
X202159904Y-69572143D02*
X202207523Y-69619762D01*
X202350380Y-69667381D01*
X202445618Y-69667381D01*
X202588476Y-69619762D01*
X202683714Y-69524524D01*
X202731333Y-69429286D01*
X202778952Y-69238810D01*
X202778952Y-69095952D01*
X202731333Y-68905476D01*
X202683714Y-68810238D01*
X202588476Y-68715000D01*
X202445618Y-68667381D01*
X202350380Y-68667381D01*
X202207523Y-68715000D01*
X202159904Y-68762619D01*
X203793238Y-72162619D02*
X203888476Y-72115000D01*
X203983714Y-72019762D01*
X204126571Y-71876905D01*
X204221810Y-71829286D01*
X204317048Y-71829286D01*
X204269429Y-72067381D02*
X204364667Y-72019762D01*
X204459905Y-71924524D01*
X204507524Y-71734048D01*
X204507524Y-71400714D01*
X204459905Y-71210238D01*
X204364667Y-71115000D01*
X204269429Y-71067381D01*
X204078952Y-71067381D01*
X203983714Y-71115000D01*
X203888476Y-71210238D01*
X203840857Y-71400714D01*
X203840857Y-71734048D01*
X203888476Y-71924524D01*
X203983714Y-72019762D01*
X204078952Y-72067381D01*
X204269429Y-72067381D01*
X203221810Y-71067381D02*
X203126571Y-71067381D01*
X203031333Y-71115000D01*
X202983714Y-71162619D01*
X202936095Y-71257857D01*
X202888476Y-71448333D01*
X202888476Y-71686429D01*
X202936095Y-71876905D01*
X202983714Y-71972143D01*
X203031333Y-72019762D01*
X203126571Y-72067381D01*
X203221810Y-72067381D01*
X203317048Y-72019762D01*
X203364667Y-71972143D01*
X203412286Y-71876905D01*
X203459905Y-71686429D01*
X203459905Y-71448333D01*
X203412286Y-71257857D01*
X203364667Y-71162619D01*
X203317048Y-71115000D01*
X203221810Y-71067381D01*
X204498000Y-74667381D02*
X204498000Y-73667381D01*
X204259905Y-73667381D01*
X204117047Y-73715000D01*
X204021809Y-73810238D01*
X203974190Y-73905476D01*
X203926571Y-74095952D01*
X203926571Y-74238810D01*
X203974190Y-74429286D01*
X204021809Y-74524524D01*
X204117047Y-74619762D01*
X204259905Y-74667381D01*
X204498000Y-74667381D01*
X203545619Y-74381667D02*
X203069428Y-74381667D01*
X203640857Y-74667381D02*
X203307524Y-73667381D01*
X202974190Y-74667381D01*
X202783714Y-73667381D02*
X202212285Y-73667381D01*
X202498000Y-74667381D02*
X202498000Y-73667381D01*
X201926571Y-74381667D02*
X201450380Y-74381667D01*
X202021809Y-74667381D02*
X201688476Y-73667381D01*
X201355142Y-74667381D01*
X204145619Y-76267381D02*
X203955142Y-76267381D01*
X203859904Y-76315000D01*
X203764666Y-76410238D01*
X203717047Y-76600714D01*
X203717047Y-76934048D01*
X203764666Y-77124524D01*
X203859904Y-77219762D01*
X203955142Y-77267381D01*
X204145619Y-77267381D01*
X204240857Y-77219762D01*
X204336095Y-77124524D01*
X204383714Y-76934048D01*
X204383714Y-76600714D01*
X204336095Y-76410238D01*
X204240857Y-76315000D01*
X204145619Y-76267381D01*
X203288476Y-76743571D02*
X202955142Y-76743571D01*
X202812285Y-77267381D02*
X203288476Y-77267381D01*
X203288476Y-76267381D01*
X202812285Y-76267381D01*
X204764667Y-79919762D02*
X204621810Y-79967381D01*
X204383714Y-79967381D01*
X204288476Y-79919762D01*
X204240857Y-79872143D01*
X204193238Y-79776905D01*
X204193238Y-79681667D01*
X204240857Y-79586429D01*
X204288476Y-79538810D01*
X204383714Y-79491190D01*
X204574191Y-79443571D01*
X204669429Y-79395952D01*
X204717048Y-79348333D01*
X204764667Y-79253095D01*
X204764667Y-79157857D01*
X204717048Y-79062619D01*
X204669429Y-79015000D01*
X204574191Y-78967381D01*
X204336095Y-78967381D01*
X204193238Y-79015000D01*
X203907524Y-78967381D02*
X203336095Y-78967381D01*
X203621810Y-79967381D02*
X203621810Y-78967381D01*
X202431333Y-79872143D02*
X202478952Y-79919762D01*
X202621809Y-79967381D01*
X202717047Y-79967381D01*
X202859905Y-79919762D01*
X202955143Y-79824524D01*
X203002762Y-79729286D01*
X203050381Y-79538810D01*
X203050381Y-79395952D01*
X203002762Y-79205476D01*
X202955143Y-79110238D01*
X202859905Y-79015000D01*
X202717047Y-78967381D01*
X202621809Y-78967381D01*
X202478952Y-79015000D01*
X202431333Y-79062619D01*
X202002762Y-79967381D02*
X202002762Y-78967381D01*
X201621809Y-78967381D01*
X201526571Y-79015000D01*
X201478952Y-79062619D01*
X201431333Y-79157857D01*
X201431333Y-79300714D01*
X201478952Y-79395952D01*
X201526571Y-79443571D01*
X201621809Y-79491190D01*
X202002762Y-79491190D01*
X204907524Y-82219762D02*
X204764667Y-82267381D01*
X204526571Y-82267381D01*
X204431333Y-82219762D01*
X204383714Y-82172143D01*
X204336095Y-82076905D01*
X204336095Y-81981667D01*
X204383714Y-81886429D01*
X204431333Y-81838810D01*
X204526571Y-81791190D01*
X204717048Y-81743571D01*
X204812286Y-81695952D01*
X204859905Y-81648333D01*
X204907524Y-81553095D01*
X204907524Y-81457857D01*
X204859905Y-81362619D01*
X204812286Y-81315000D01*
X204717048Y-81267381D01*
X204478952Y-81267381D01*
X204336095Y-81315000D01*
X203907524Y-82267381D02*
X203907524Y-81267381D01*
X203907524Y-81743571D02*
X203336095Y-81743571D01*
X203336095Y-82267381D02*
X203336095Y-81267381D01*
X202288476Y-82172143D02*
X202336095Y-82219762D01*
X202478952Y-82267381D01*
X202574190Y-82267381D01*
X202717048Y-82219762D01*
X202812286Y-82124524D01*
X202859905Y-82029286D01*
X202907524Y-81838810D01*
X202907524Y-81695952D01*
X202859905Y-81505476D01*
X202812286Y-81410238D01*
X202717048Y-81315000D01*
X202574190Y-81267381D01*
X202478952Y-81267381D01*
X202336095Y-81315000D01*
X202288476Y-81362619D01*
X201859905Y-82267381D02*
X201859905Y-81267381D01*
X201478952Y-81267381D01*
X201383714Y-81315000D01*
X201336095Y-81362619D01*
X201288476Y-81457857D01*
X201288476Y-81600714D01*
X201336095Y-81695952D01*
X201383714Y-81743571D01*
X201478952Y-81791190D01*
X201859905Y-81791190D01*
X204731333Y-84867381D02*
X204731333Y-83867381D01*
X204397999Y-84581667D01*
X204064666Y-83867381D01*
X204064666Y-84867381D01*
X203017047Y-84867381D02*
X203350381Y-84391190D01*
X203588476Y-84867381D02*
X203588476Y-83867381D01*
X203207523Y-83867381D01*
X203112285Y-83915000D01*
X203064666Y-83962619D01*
X203017047Y-84057857D01*
X203017047Y-84200714D01*
X203064666Y-84295952D01*
X203112285Y-84343571D01*
X203207523Y-84391190D01*
X203588476Y-84391190D01*
X204231333Y-87462619D02*
X204326571Y-87415000D01*
X204421809Y-87319762D01*
X204564666Y-87176905D01*
X204659905Y-87129286D01*
X204755143Y-87129286D01*
X204707524Y-87367381D02*
X204802762Y-87319762D01*
X204898000Y-87224524D01*
X204945619Y-87034048D01*
X204945619Y-86700714D01*
X204898000Y-86510238D01*
X204802762Y-86415000D01*
X204707524Y-86367381D01*
X204517047Y-86367381D01*
X204421809Y-86415000D01*
X204326571Y-86510238D01*
X204278952Y-86700714D01*
X204278952Y-87034048D01*
X204326571Y-87224524D01*
X204421809Y-87319762D01*
X204517047Y-87367381D01*
X204707524Y-87367381D01*
X203945619Y-86367381D02*
X203278952Y-86367381D01*
X203707524Y-87367381D01*
X202850381Y-86367381D02*
X202945619Y-86557857D01*
X201559904Y-86415000D02*
X201655142Y-86367381D01*
X201797999Y-86367381D01*
X201940857Y-86415000D01*
X202036095Y-86510238D01*
X202083714Y-86605476D01*
X202131333Y-86795952D01*
X202131333Y-86938810D01*
X202083714Y-87129286D01*
X202036095Y-87224524D01*
X201940857Y-87319762D01*
X201797999Y-87367381D01*
X201702761Y-87367381D01*
X201559904Y-87319762D01*
X201512285Y-87272143D01*
X201512285Y-86938810D01*
X201702761Y-86938810D01*
X201083714Y-87367381D02*
X201083714Y-86367381D01*
X200512285Y-87367381D01*
X200512285Y-86367381D01*
X200036095Y-87367381D02*
X200036095Y-86367381D01*
X199798000Y-86367381D01*
X199655142Y-86415000D01*
X199559904Y-86510238D01*
X199512285Y-86605476D01*
X199464666Y-86795952D01*
X199464666Y-86938810D01*
X199512285Y-87129286D01*
X199559904Y-87224524D01*
X199655142Y-87319762D01*
X199798000Y-87367381D01*
X200036095Y-87367381D01*
X200393238Y-82362619D02*
X200488476Y-82315000D01*
X200583714Y-82219762D01*
X200726571Y-82076905D01*
X200821810Y-82029286D01*
X200917048Y-82029286D01*
X200869429Y-82267381D02*
X200964667Y-82219762D01*
X201059905Y-82124524D01*
X201107524Y-81934048D01*
X201107524Y-81600714D01*
X201059905Y-81410238D01*
X200964667Y-81315000D01*
X200869429Y-81267381D01*
X200678952Y-81267381D01*
X200583714Y-81315000D01*
X200488476Y-81410238D01*
X200440857Y-81600714D01*
X200440857Y-81934048D01*
X200488476Y-82124524D01*
X200583714Y-82219762D01*
X200678952Y-82267381D01*
X200869429Y-82267381D01*
X199583714Y-81267381D02*
X199774191Y-81267381D01*
X199869429Y-81315000D01*
X199917048Y-81362619D01*
X200012286Y-81505476D01*
X200059905Y-81695952D01*
X200059905Y-82076905D01*
X200012286Y-82172143D01*
X199964667Y-82219762D01*
X199869429Y-82267381D01*
X199678952Y-82267381D01*
X199583714Y-82219762D01*
X199536095Y-82172143D01*
X199488476Y-82076905D01*
X199488476Y-81838810D01*
X199536095Y-81743571D01*
X199583714Y-81695952D01*
X199678952Y-81648333D01*
X199869429Y-81648333D01*
X199964667Y-81695952D01*
X200012286Y-81743571D01*
X200059905Y-81838810D01*
X200393238Y-84962619D02*
X200488476Y-84915000D01*
X200583714Y-84819762D01*
X200726571Y-84676905D01*
X200821810Y-84629286D01*
X200917048Y-84629286D01*
X200869429Y-84867381D02*
X200964667Y-84819762D01*
X201059905Y-84724524D01*
X201107524Y-84534048D01*
X201107524Y-84200714D01*
X201059905Y-84010238D01*
X200964667Y-83915000D01*
X200869429Y-83867381D01*
X200678952Y-83867381D01*
X200583714Y-83915000D01*
X200488476Y-84010238D01*
X200440857Y-84200714D01*
X200440857Y-84534048D01*
X200488476Y-84724524D01*
X200583714Y-84819762D01*
X200678952Y-84867381D01*
X200869429Y-84867381D01*
X200107524Y-83867381D02*
X199440857Y-83867381D01*
X199869429Y-84867381D01*
X200393238Y-80012619D02*
X200488476Y-79965000D01*
X200583714Y-79869762D01*
X200726571Y-79726905D01*
X200821810Y-79679286D01*
X200917048Y-79679286D01*
X200869429Y-79917381D02*
X200964667Y-79869762D01*
X201059905Y-79774524D01*
X201107524Y-79584048D01*
X201107524Y-79250714D01*
X201059905Y-79060238D01*
X200964667Y-78965000D01*
X200869429Y-78917381D01*
X200678952Y-78917381D01*
X200583714Y-78965000D01*
X200488476Y-79060238D01*
X200440857Y-79250714D01*
X200440857Y-79584048D01*
X200488476Y-79774524D01*
X200583714Y-79869762D01*
X200678952Y-79917381D01*
X200869429Y-79917381D01*
X199536095Y-78917381D02*
X200012286Y-78917381D01*
X200059905Y-79393571D01*
X200012286Y-79345952D01*
X199917048Y-79298333D01*
X199678952Y-79298333D01*
X199583714Y-79345952D01*
X199536095Y-79393571D01*
X199488476Y-79488810D01*
X199488476Y-79726905D01*
X199536095Y-79822143D01*
X199583714Y-79869762D01*
X199678952Y-79917381D01*
X199917048Y-79917381D01*
X200012286Y-79869762D01*
X200059905Y-79822143D01*
X200393238Y-77262619D02*
X200488476Y-77215000D01*
X200583714Y-77119762D01*
X200726571Y-76976905D01*
X200821810Y-76929286D01*
X200917048Y-76929286D01*
X200869429Y-77167381D02*
X200964667Y-77119762D01*
X201059905Y-77024524D01*
X201107524Y-76834048D01*
X201107524Y-76500714D01*
X201059905Y-76310238D01*
X200964667Y-76215000D01*
X200869429Y-76167381D01*
X200678952Y-76167381D01*
X200583714Y-76215000D01*
X200488476Y-76310238D01*
X200440857Y-76500714D01*
X200440857Y-76834048D01*
X200488476Y-77024524D01*
X200583714Y-77119762D01*
X200678952Y-77167381D01*
X200869429Y-77167381D01*
X199583714Y-76500714D02*
X199583714Y-77167381D01*
X199821810Y-76119762D02*
X200059905Y-76834048D01*
X199440857Y-76834048D01*
X200393238Y-74762619D02*
X200488476Y-74715000D01*
X200583714Y-74619762D01*
X200726571Y-74476905D01*
X200821810Y-74429286D01*
X200917048Y-74429286D01*
X200869429Y-74667381D02*
X200964667Y-74619762D01*
X201059905Y-74524524D01*
X201107524Y-74334048D01*
X201107524Y-74000714D01*
X201059905Y-73810238D01*
X200964667Y-73715000D01*
X200869429Y-73667381D01*
X200678952Y-73667381D01*
X200583714Y-73715000D01*
X200488476Y-73810238D01*
X200440857Y-74000714D01*
X200440857Y-74334048D01*
X200488476Y-74524524D01*
X200583714Y-74619762D01*
X200678952Y-74667381D01*
X200869429Y-74667381D01*
X200107524Y-73667381D02*
X199488476Y-73667381D01*
X199821810Y-74048333D01*
X199678952Y-74048333D01*
X199583714Y-74095952D01*
X199536095Y-74143571D01*
X199488476Y-74238810D01*
X199488476Y-74476905D01*
X199536095Y-74572143D01*
X199583714Y-74619762D01*
X199678952Y-74667381D01*
X199964667Y-74667381D01*
X200059905Y-74619762D01*
X200107524Y-74572143D01*
X200393238Y-72262619D02*
X200488476Y-72215000D01*
X200583714Y-72119762D01*
X200726571Y-71976905D01*
X200821810Y-71929286D01*
X200917048Y-71929286D01*
X200869429Y-72167381D02*
X200964667Y-72119762D01*
X201059905Y-72024524D01*
X201107524Y-71834048D01*
X201107524Y-71500714D01*
X201059905Y-71310238D01*
X200964667Y-71215000D01*
X200869429Y-71167381D01*
X200678952Y-71167381D01*
X200583714Y-71215000D01*
X200488476Y-71310238D01*
X200440857Y-71500714D01*
X200440857Y-71834048D01*
X200488476Y-72024524D01*
X200583714Y-72119762D01*
X200678952Y-72167381D01*
X200869429Y-72167381D01*
X200059905Y-71262619D02*
X200012286Y-71215000D01*
X199917048Y-71167381D01*
X199678952Y-71167381D01*
X199583714Y-71215000D01*
X199536095Y-71262619D01*
X199488476Y-71357857D01*
X199488476Y-71453095D01*
X199536095Y-71595952D01*
X200107524Y-72167381D01*
X199488476Y-72167381D01*
X200393238Y-69762619D02*
X200488476Y-69715000D01*
X200583714Y-69619762D01*
X200726571Y-69476905D01*
X200821810Y-69429286D01*
X200917048Y-69429286D01*
X200869429Y-69667381D02*
X200964667Y-69619762D01*
X201059905Y-69524524D01*
X201107524Y-69334048D01*
X201107524Y-69000714D01*
X201059905Y-68810238D01*
X200964667Y-68715000D01*
X200869429Y-68667381D01*
X200678952Y-68667381D01*
X200583714Y-68715000D01*
X200488476Y-68810238D01*
X200440857Y-69000714D01*
X200440857Y-69334048D01*
X200488476Y-69524524D01*
X200583714Y-69619762D01*
X200678952Y-69667381D01*
X200869429Y-69667381D01*
X199488476Y-69667381D02*
X200059905Y-69667381D01*
X199774191Y-69667381D02*
X199774191Y-68667381D01*
X199869429Y-68810238D01*
X199964667Y-68905476D01*
X200059905Y-68953095D01*
X173806333Y-68667381D02*
X173473000Y-69667381D01*
X173139666Y-68667381D01*
X172234904Y-69572143D02*
X172282523Y-69619762D01*
X172425380Y-69667381D01*
X172520618Y-69667381D01*
X172663476Y-69619762D01*
X172758714Y-69524524D01*
X172806333Y-69429286D01*
X172853952Y-69238810D01*
X172853952Y-69095952D01*
X172806333Y-68905476D01*
X172758714Y-68810238D01*
X172663476Y-68715000D01*
X172520618Y-68667381D01*
X172425380Y-68667381D01*
X172282523Y-68715000D01*
X172234904Y-68762619D01*
X171234904Y-69572143D02*
X171282523Y-69619762D01*
X171425380Y-69667381D01*
X171520618Y-69667381D01*
X171663476Y-69619762D01*
X171758714Y-69524524D01*
X171806333Y-69429286D01*
X171853952Y-69238810D01*
X171853952Y-69095952D01*
X171806333Y-68905476D01*
X171758714Y-68810238D01*
X171663476Y-68715000D01*
X171520618Y-68667381D01*
X171425380Y-68667381D01*
X171282523Y-68715000D01*
X171234904Y-68762619D01*
X172868238Y-72162619D02*
X172963476Y-72115000D01*
X173058714Y-72019762D01*
X173201571Y-71876905D01*
X173296810Y-71829286D01*
X173392048Y-71829286D01*
X173344429Y-72067381D02*
X173439667Y-72019762D01*
X173534905Y-71924524D01*
X173582524Y-71734048D01*
X173582524Y-71400714D01*
X173534905Y-71210238D01*
X173439667Y-71115000D01*
X173344429Y-71067381D01*
X173153952Y-71067381D01*
X173058714Y-71115000D01*
X172963476Y-71210238D01*
X172915857Y-71400714D01*
X172915857Y-71734048D01*
X172963476Y-71924524D01*
X173058714Y-72019762D01*
X173153952Y-72067381D01*
X173344429Y-72067381D01*
X172296810Y-71067381D02*
X172201571Y-71067381D01*
X172106333Y-71115000D01*
X172058714Y-71162619D01*
X172011095Y-71257857D01*
X171963476Y-71448333D01*
X171963476Y-71686429D01*
X172011095Y-71876905D01*
X172058714Y-71972143D01*
X172106333Y-72019762D01*
X172201571Y-72067381D01*
X172296810Y-72067381D01*
X172392048Y-72019762D01*
X172439667Y-71972143D01*
X172487286Y-71876905D01*
X172534905Y-71686429D01*
X172534905Y-71448333D01*
X172487286Y-71257857D01*
X172439667Y-71162619D01*
X172392048Y-71115000D01*
X172296810Y-71067381D01*
X173573000Y-74667381D02*
X173573000Y-73667381D01*
X173334905Y-73667381D01*
X173192047Y-73715000D01*
X173096809Y-73810238D01*
X173049190Y-73905476D01*
X173001571Y-74095952D01*
X173001571Y-74238810D01*
X173049190Y-74429286D01*
X173096809Y-74524524D01*
X173192047Y-74619762D01*
X173334905Y-74667381D01*
X173573000Y-74667381D01*
X172620619Y-74381667D02*
X172144428Y-74381667D01*
X172715857Y-74667381D02*
X172382524Y-73667381D01*
X172049190Y-74667381D01*
X171858714Y-73667381D02*
X171287285Y-73667381D01*
X171573000Y-74667381D02*
X171573000Y-73667381D01*
X171001571Y-74381667D02*
X170525380Y-74381667D01*
X171096809Y-74667381D02*
X170763476Y-73667381D01*
X170430142Y-74667381D01*
X173220619Y-76267381D02*
X173030142Y-76267381D01*
X172934904Y-76315000D01*
X172839666Y-76410238D01*
X172792047Y-76600714D01*
X172792047Y-76934048D01*
X172839666Y-77124524D01*
X172934904Y-77219762D01*
X173030142Y-77267381D01*
X173220619Y-77267381D01*
X173315857Y-77219762D01*
X173411095Y-77124524D01*
X173458714Y-76934048D01*
X173458714Y-76600714D01*
X173411095Y-76410238D01*
X173315857Y-76315000D01*
X173220619Y-76267381D01*
X172363476Y-76743571D02*
X172030142Y-76743571D01*
X171887285Y-77267381D02*
X172363476Y-77267381D01*
X172363476Y-76267381D01*
X171887285Y-76267381D01*
X173839667Y-79919762D02*
X173696810Y-79967381D01*
X173458714Y-79967381D01*
X173363476Y-79919762D01*
X173315857Y-79872143D01*
X173268238Y-79776905D01*
X173268238Y-79681667D01*
X173315857Y-79586429D01*
X173363476Y-79538810D01*
X173458714Y-79491190D01*
X173649191Y-79443571D01*
X173744429Y-79395952D01*
X173792048Y-79348333D01*
X173839667Y-79253095D01*
X173839667Y-79157857D01*
X173792048Y-79062619D01*
X173744429Y-79015000D01*
X173649191Y-78967381D01*
X173411095Y-78967381D01*
X173268238Y-79015000D01*
X172982524Y-78967381D02*
X172411095Y-78967381D01*
X172696810Y-79967381D02*
X172696810Y-78967381D01*
X171506333Y-79872143D02*
X171553952Y-79919762D01*
X171696809Y-79967381D01*
X171792047Y-79967381D01*
X171934905Y-79919762D01*
X172030143Y-79824524D01*
X172077762Y-79729286D01*
X172125381Y-79538810D01*
X172125381Y-79395952D01*
X172077762Y-79205476D01*
X172030143Y-79110238D01*
X171934905Y-79015000D01*
X171792047Y-78967381D01*
X171696809Y-78967381D01*
X171553952Y-79015000D01*
X171506333Y-79062619D01*
X171077762Y-79967381D02*
X171077762Y-78967381D01*
X170696809Y-78967381D01*
X170601571Y-79015000D01*
X170553952Y-79062619D01*
X170506333Y-79157857D01*
X170506333Y-79300714D01*
X170553952Y-79395952D01*
X170601571Y-79443571D01*
X170696809Y-79491190D01*
X171077762Y-79491190D01*
X173982524Y-82219762D02*
X173839667Y-82267381D01*
X173601571Y-82267381D01*
X173506333Y-82219762D01*
X173458714Y-82172143D01*
X173411095Y-82076905D01*
X173411095Y-81981667D01*
X173458714Y-81886429D01*
X173506333Y-81838810D01*
X173601571Y-81791190D01*
X173792048Y-81743571D01*
X173887286Y-81695952D01*
X173934905Y-81648333D01*
X173982524Y-81553095D01*
X173982524Y-81457857D01*
X173934905Y-81362619D01*
X173887286Y-81315000D01*
X173792048Y-81267381D01*
X173553952Y-81267381D01*
X173411095Y-81315000D01*
X172982524Y-82267381D02*
X172982524Y-81267381D01*
X172982524Y-81743571D02*
X172411095Y-81743571D01*
X172411095Y-82267381D02*
X172411095Y-81267381D01*
X171363476Y-82172143D02*
X171411095Y-82219762D01*
X171553952Y-82267381D01*
X171649190Y-82267381D01*
X171792048Y-82219762D01*
X171887286Y-82124524D01*
X171934905Y-82029286D01*
X171982524Y-81838810D01*
X171982524Y-81695952D01*
X171934905Y-81505476D01*
X171887286Y-81410238D01*
X171792048Y-81315000D01*
X171649190Y-81267381D01*
X171553952Y-81267381D01*
X171411095Y-81315000D01*
X171363476Y-81362619D01*
X170934905Y-82267381D02*
X170934905Y-81267381D01*
X170553952Y-81267381D01*
X170458714Y-81315000D01*
X170411095Y-81362619D01*
X170363476Y-81457857D01*
X170363476Y-81600714D01*
X170411095Y-81695952D01*
X170458714Y-81743571D01*
X170553952Y-81791190D01*
X170934905Y-81791190D01*
X173806333Y-84867381D02*
X173806333Y-83867381D01*
X173472999Y-84581667D01*
X173139666Y-83867381D01*
X173139666Y-84867381D01*
X172092047Y-84867381D02*
X172425381Y-84391190D01*
X172663476Y-84867381D02*
X172663476Y-83867381D01*
X172282523Y-83867381D01*
X172187285Y-83915000D01*
X172139666Y-83962619D01*
X172092047Y-84057857D01*
X172092047Y-84200714D01*
X172139666Y-84295952D01*
X172187285Y-84343571D01*
X172282523Y-84391190D01*
X172663476Y-84391190D01*
X173306333Y-87462619D02*
X173401571Y-87415000D01*
X173496809Y-87319762D01*
X173639666Y-87176905D01*
X173734905Y-87129286D01*
X173830143Y-87129286D01*
X173782524Y-87367381D02*
X173877762Y-87319762D01*
X173973000Y-87224524D01*
X174020619Y-87034048D01*
X174020619Y-86700714D01*
X173973000Y-86510238D01*
X173877762Y-86415000D01*
X173782524Y-86367381D01*
X173592047Y-86367381D01*
X173496809Y-86415000D01*
X173401571Y-86510238D01*
X173353952Y-86700714D01*
X173353952Y-87034048D01*
X173401571Y-87224524D01*
X173496809Y-87319762D01*
X173592047Y-87367381D01*
X173782524Y-87367381D01*
X173020619Y-86367381D02*
X172353952Y-86367381D01*
X172782524Y-87367381D01*
X171925381Y-86367381D02*
X172020619Y-86557857D01*
X170634904Y-86415000D02*
X170730142Y-86367381D01*
X170872999Y-86367381D01*
X171015857Y-86415000D01*
X171111095Y-86510238D01*
X171158714Y-86605476D01*
X171206333Y-86795952D01*
X171206333Y-86938810D01*
X171158714Y-87129286D01*
X171111095Y-87224524D01*
X171015857Y-87319762D01*
X170872999Y-87367381D01*
X170777761Y-87367381D01*
X170634904Y-87319762D01*
X170587285Y-87272143D01*
X170587285Y-86938810D01*
X170777761Y-86938810D01*
X170158714Y-87367381D02*
X170158714Y-86367381D01*
X169587285Y-87367381D01*
X169587285Y-86367381D01*
X169111095Y-87367381D02*
X169111095Y-86367381D01*
X168873000Y-86367381D01*
X168730142Y-86415000D01*
X168634904Y-86510238D01*
X168587285Y-86605476D01*
X168539666Y-86795952D01*
X168539666Y-86938810D01*
X168587285Y-87129286D01*
X168634904Y-87224524D01*
X168730142Y-87319762D01*
X168873000Y-87367381D01*
X169111095Y-87367381D01*
X169468238Y-82362619D02*
X169563476Y-82315000D01*
X169658714Y-82219762D01*
X169801571Y-82076905D01*
X169896810Y-82029286D01*
X169992048Y-82029286D01*
X169944429Y-82267381D02*
X170039667Y-82219762D01*
X170134905Y-82124524D01*
X170182524Y-81934048D01*
X170182524Y-81600714D01*
X170134905Y-81410238D01*
X170039667Y-81315000D01*
X169944429Y-81267381D01*
X169753952Y-81267381D01*
X169658714Y-81315000D01*
X169563476Y-81410238D01*
X169515857Y-81600714D01*
X169515857Y-81934048D01*
X169563476Y-82124524D01*
X169658714Y-82219762D01*
X169753952Y-82267381D01*
X169944429Y-82267381D01*
X168658714Y-81267381D02*
X168849191Y-81267381D01*
X168944429Y-81315000D01*
X168992048Y-81362619D01*
X169087286Y-81505476D01*
X169134905Y-81695952D01*
X169134905Y-82076905D01*
X169087286Y-82172143D01*
X169039667Y-82219762D01*
X168944429Y-82267381D01*
X168753952Y-82267381D01*
X168658714Y-82219762D01*
X168611095Y-82172143D01*
X168563476Y-82076905D01*
X168563476Y-81838810D01*
X168611095Y-81743571D01*
X168658714Y-81695952D01*
X168753952Y-81648333D01*
X168944429Y-81648333D01*
X169039667Y-81695952D01*
X169087286Y-81743571D01*
X169134905Y-81838810D01*
X169468238Y-84962619D02*
X169563476Y-84915000D01*
X169658714Y-84819762D01*
X169801571Y-84676905D01*
X169896810Y-84629286D01*
X169992048Y-84629286D01*
X169944429Y-84867381D02*
X170039667Y-84819762D01*
X170134905Y-84724524D01*
X170182524Y-84534048D01*
X170182524Y-84200714D01*
X170134905Y-84010238D01*
X170039667Y-83915000D01*
X169944429Y-83867381D01*
X169753952Y-83867381D01*
X169658714Y-83915000D01*
X169563476Y-84010238D01*
X169515857Y-84200714D01*
X169515857Y-84534048D01*
X169563476Y-84724524D01*
X169658714Y-84819762D01*
X169753952Y-84867381D01*
X169944429Y-84867381D01*
X169182524Y-83867381D02*
X168515857Y-83867381D01*
X168944429Y-84867381D01*
X169468238Y-80012619D02*
X169563476Y-79965000D01*
X169658714Y-79869762D01*
X169801571Y-79726905D01*
X169896810Y-79679286D01*
X169992048Y-79679286D01*
X169944429Y-79917381D02*
X170039667Y-79869762D01*
X170134905Y-79774524D01*
X170182524Y-79584048D01*
X170182524Y-79250714D01*
X170134905Y-79060238D01*
X170039667Y-78965000D01*
X169944429Y-78917381D01*
X169753952Y-78917381D01*
X169658714Y-78965000D01*
X169563476Y-79060238D01*
X169515857Y-79250714D01*
X169515857Y-79584048D01*
X169563476Y-79774524D01*
X169658714Y-79869762D01*
X169753952Y-79917381D01*
X169944429Y-79917381D01*
X168611095Y-78917381D02*
X169087286Y-78917381D01*
X169134905Y-79393571D01*
X169087286Y-79345952D01*
X168992048Y-79298333D01*
X168753952Y-79298333D01*
X168658714Y-79345952D01*
X168611095Y-79393571D01*
X168563476Y-79488810D01*
X168563476Y-79726905D01*
X168611095Y-79822143D01*
X168658714Y-79869762D01*
X168753952Y-79917381D01*
X168992048Y-79917381D01*
X169087286Y-79869762D01*
X169134905Y-79822143D01*
X169468238Y-77262619D02*
X169563476Y-77215000D01*
X169658714Y-77119762D01*
X169801571Y-76976905D01*
X169896810Y-76929286D01*
X169992048Y-76929286D01*
X169944429Y-77167381D02*
X170039667Y-77119762D01*
X170134905Y-77024524D01*
X170182524Y-76834048D01*
X170182524Y-76500714D01*
X170134905Y-76310238D01*
X170039667Y-76215000D01*
X169944429Y-76167381D01*
X169753952Y-76167381D01*
X169658714Y-76215000D01*
X169563476Y-76310238D01*
X169515857Y-76500714D01*
X169515857Y-76834048D01*
X169563476Y-77024524D01*
X169658714Y-77119762D01*
X169753952Y-77167381D01*
X169944429Y-77167381D01*
X168658714Y-76500714D02*
X168658714Y-77167381D01*
X168896810Y-76119762D02*
X169134905Y-76834048D01*
X168515857Y-76834048D01*
X169468238Y-74762619D02*
X169563476Y-74715000D01*
X169658714Y-74619762D01*
X169801571Y-74476905D01*
X169896810Y-74429286D01*
X169992048Y-74429286D01*
X169944429Y-74667381D02*
X170039667Y-74619762D01*
X170134905Y-74524524D01*
X170182524Y-74334048D01*
X170182524Y-74000714D01*
X170134905Y-73810238D01*
X170039667Y-73715000D01*
X169944429Y-73667381D01*
X169753952Y-73667381D01*
X169658714Y-73715000D01*
X169563476Y-73810238D01*
X169515857Y-74000714D01*
X169515857Y-74334048D01*
X169563476Y-74524524D01*
X169658714Y-74619762D01*
X169753952Y-74667381D01*
X169944429Y-74667381D01*
X169182524Y-73667381D02*
X168563476Y-73667381D01*
X168896810Y-74048333D01*
X168753952Y-74048333D01*
X168658714Y-74095952D01*
X168611095Y-74143571D01*
X168563476Y-74238810D01*
X168563476Y-74476905D01*
X168611095Y-74572143D01*
X168658714Y-74619762D01*
X168753952Y-74667381D01*
X169039667Y-74667381D01*
X169134905Y-74619762D01*
X169182524Y-74572143D01*
X169468238Y-72262619D02*
X169563476Y-72215000D01*
X169658714Y-72119762D01*
X169801571Y-71976905D01*
X169896810Y-71929286D01*
X169992048Y-71929286D01*
X169944429Y-72167381D02*
X170039667Y-72119762D01*
X170134905Y-72024524D01*
X170182524Y-71834048D01*
X170182524Y-71500714D01*
X170134905Y-71310238D01*
X170039667Y-71215000D01*
X169944429Y-71167381D01*
X169753952Y-71167381D01*
X169658714Y-71215000D01*
X169563476Y-71310238D01*
X169515857Y-71500714D01*
X169515857Y-71834048D01*
X169563476Y-72024524D01*
X169658714Y-72119762D01*
X169753952Y-72167381D01*
X169944429Y-72167381D01*
X169134905Y-71262619D02*
X169087286Y-71215000D01*
X168992048Y-71167381D01*
X168753952Y-71167381D01*
X168658714Y-71215000D01*
X168611095Y-71262619D01*
X168563476Y-71357857D01*
X168563476Y-71453095D01*
X168611095Y-71595952D01*
X169182524Y-72167381D01*
X168563476Y-72167381D01*
X169468238Y-69762619D02*
X169563476Y-69715000D01*
X169658714Y-69619762D01*
X169801571Y-69476905D01*
X169896810Y-69429286D01*
X169992048Y-69429286D01*
X169944429Y-69667381D02*
X170039667Y-69619762D01*
X170134905Y-69524524D01*
X170182524Y-69334048D01*
X170182524Y-69000714D01*
X170134905Y-68810238D01*
X170039667Y-68715000D01*
X169944429Y-68667381D01*
X169753952Y-68667381D01*
X169658714Y-68715000D01*
X169563476Y-68810238D01*
X169515857Y-69000714D01*
X169515857Y-69334048D01*
X169563476Y-69524524D01*
X169658714Y-69619762D01*
X169753952Y-69667381D01*
X169944429Y-69667381D01*
X168563476Y-69667381D02*
X169134905Y-69667381D01*
X168849191Y-69667381D02*
X168849191Y-68667381D01*
X168944429Y-68810238D01*
X169039667Y-68905476D01*
X169134905Y-68953095D01*
X142882333Y-68667381D02*
X142549000Y-69667381D01*
X142215666Y-68667381D01*
X141310904Y-69572143D02*
X141358523Y-69619762D01*
X141501380Y-69667381D01*
X141596618Y-69667381D01*
X141739476Y-69619762D01*
X141834714Y-69524524D01*
X141882333Y-69429286D01*
X141929952Y-69238810D01*
X141929952Y-69095952D01*
X141882333Y-68905476D01*
X141834714Y-68810238D01*
X141739476Y-68715000D01*
X141596618Y-68667381D01*
X141501380Y-68667381D01*
X141358523Y-68715000D01*
X141310904Y-68762619D01*
X140310904Y-69572143D02*
X140358523Y-69619762D01*
X140501380Y-69667381D01*
X140596618Y-69667381D01*
X140739476Y-69619762D01*
X140834714Y-69524524D01*
X140882333Y-69429286D01*
X140929952Y-69238810D01*
X140929952Y-69095952D01*
X140882333Y-68905476D01*
X140834714Y-68810238D01*
X140739476Y-68715000D01*
X140596618Y-68667381D01*
X140501380Y-68667381D01*
X140358523Y-68715000D01*
X140310904Y-68762619D01*
X141944238Y-72162619D02*
X142039476Y-72115000D01*
X142134714Y-72019762D01*
X142277571Y-71876905D01*
X142372810Y-71829286D01*
X142468048Y-71829286D01*
X142420429Y-72067381D02*
X142515667Y-72019762D01*
X142610905Y-71924524D01*
X142658524Y-71734048D01*
X142658524Y-71400714D01*
X142610905Y-71210238D01*
X142515667Y-71115000D01*
X142420429Y-71067381D01*
X142229952Y-71067381D01*
X142134714Y-71115000D01*
X142039476Y-71210238D01*
X141991857Y-71400714D01*
X141991857Y-71734048D01*
X142039476Y-71924524D01*
X142134714Y-72019762D01*
X142229952Y-72067381D01*
X142420429Y-72067381D01*
X141372810Y-71067381D02*
X141277571Y-71067381D01*
X141182333Y-71115000D01*
X141134714Y-71162619D01*
X141087095Y-71257857D01*
X141039476Y-71448333D01*
X141039476Y-71686429D01*
X141087095Y-71876905D01*
X141134714Y-71972143D01*
X141182333Y-72019762D01*
X141277571Y-72067381D01*
X141372810Y-72067381D01*
X141468048Y-72019762D01*
X141515667Y-71972143D01*
X141563286Y-71876905D01*
X141610905Y-71686429D01*
X141610905Y-71448333D01*
X141563286Y-71257857D01*
X141515667Y-71162619D01*
X141468048Y-71115000D01*
X141372810Y-71067381D01*
X142649000Y-74667381D02*
X142649000Y-73667381D01*
X142410905Y-73667381D01*
X142268047Y-73715000D01*
X142172809Y-73810238D01*
X142125190Y-73905476D01*
X142077571Y-74095952D01*
X142077571Y-74238810D01*
X142125190Y-74429286D01*
X142172809Y-74524524D01*
X142268047Y-74619762D01*
X142410905Y-74667381D01*
X142649000Y-74667381D01*
X141696619Y-74381667D02*
X141220428Y-74381667D01*
X141791857Y-74667381D02*
X141458524Y-73667381D01*
X141125190Y-74667381D01*
X140934714Y-73667381D02*
X140363285Y-73667381D01*
X140649000Y-74667381D02*
X140649000Y-73667381D01*
X140077571Y-74381667D02*
X139601380Y-74381667D01*
X140172809Y-74667381D02*
X139839476Y-73667381D01*
X139506142Y-74667381D01*
X142296619Y-76267381D02*
X142106142Y-76267381D01*
X142010904Y-76315000D01*
X141915666Y-76410238D01*
X141868047Y-76600714D01*
X141868047Y-76934048D01*
X141915666Y-77124524D01*
X142010904Y-77219762D01*
X142106142Y-77267381D01*
X142296619Y-77267381D01*
X142391857Y-77219762D01*
X142487095Y-77124524D01*
X142534714Y-76934048D01*
X142534714Y-76600714D01*
X142487095Y-76410238D01*
X142391857Y-76315000D01*
X142296619Y-76267381D01*
X141439476Y-76743571D02*
X141106142Y-76743571D01*
X140963285Y-77267381D02*
X141439476Y-77267381D01*
X141439476Y-76267381D01*
X140963285Y-76267381D01*
X142915667Y-79919762D02*
X142772810Y-79967381D01*
X142534714Y-79967381D01*
X142439476Y-79919762D01*
X142391857Y-79872143D01*
X142344238Y-79776905D01*
X142344238Y-79681667D01*
X142391857Y-79586429D01*
X142439476Y-79538810D01*
X142534714Y-79491190D01*
X142725191Y-79443571D01*
X142820429Y-79395952D01*
X142868048Y-79348333D01*
X142915667Y-79253095D01*
X142915667Y-79157857D01*
X142868048Y-79062619D01*
X142820429Y-79015000D01*
X142725191Y-78967381D01*
X142487095Y-78967381D01*
X142344238Y-79015000D01*
X142058524Y-78967381D02*
X141487095Y-78967381D01*
X141772810Y-79967381D02*
X141772810Y-78967381D01*
X140582333Y-79872143D02*
X140629952Y-79919762D01*
X140772809Y-79967381D01*
X140868047Y-79967381D01*
X141010905Y-79919762D01*
X141106143Y-79824524D01*
X141153762Y-79729286D01*
X141201381Y-79538810D01*
X141201381Y-79395952D01*
X141153762Y-79205476D01*
X141106143Y-79110238D01*
X141010905Y-79015000D01*
X140868047Y-78967381D01*
X140772809Y-78967381D01*
X140629952Y-79015000D01*
X140582333Y-79062619D01*
X140153762Y-79967381D02*
X140153762Y-78967381D01*
X139772809Y-78967381D01*
X139677571Y-79015000D01*
X139629952Y-79062619D01*
X139582333Y-79157857D01*
X139582333Y-79300714D01*
X139629952Y-79395952D01*
X139677571Y-79443571D01*
X139772809Y-79491190D01*
X140153762Y-79491190D01*
X143058524Y-82219762D02*
X142915667Y-82267381D01*
X142677571Y-82267381D01*
X142582333Y-82219762D01*
X142534714Y-82172143D01*
X142487095Y-82076905D01*
X142487095Y-81981667D01*
X142534714Y-81886429D01*
X142582333Y-81838810D01*
X142677571Y-81791190D01*
X142868048Y-81743571D01*
X142963286Y-81695952D01*
X143010905Y-81648333D01*
X143058524Y-81553095D01*
X143058524Y-81457857D01*
X143010905Y-81362619D01*
X142963286Y-81315000D01*
X142868048Y-81267381D01*
X142629952Y-81267381D01*
X142487095Y-81315000D01*
X142058524Y-82267381D02*
X142058524Y-81267381D01*
X142058524Y-81743571D02*
X141487095Y-81743571D01*
X141487095Y-82267381D02*
X141487095Y-81267381D01*
X140439476Y-82172143D02*
X140487095Y-82219762D01*
X140629952Y-82267381D01*
X140725190Y-82267381D01*
X140868048Y-82219762D01*
X140963286Y-82124524D01*
X141010905Y-82029286D01*
X141058524Y-81838810D01*
X141058524Y-81695952D01*
X141010905Y-81505476D01*
X140963286Y-81410238D01*
X140868048Y-81315000D01*
X140725190Y-81267381D01*
X140629952Y-81267381D01*
X140487095Y-81315000D01*
X140439476Y-81362619D01*
X140010905Y-82267381D02*
X140010905Y-81267381D01*
X139629952Y-81267381D01*
X139534714Y-81315000D01*
X139487095Y-81362619D01*
X139439476Y-81457857D01*
X139439476Y-81600714D01*
X139487095Y-81695952D01*
X139534714Y-81743571D01*
X139629952Y-81791190D01*
X140010905Y-81791190D01*
X142882333Y-84867381D02*
X142882333Y-83867381D01*
X142548999Y-84581667D01*
X142215666Y-83867381D01*
X142215666Y-84867381D01*
X141168047Y-84867381D02*
X141501381Y-84391190D01*
X141739476Y-84867381D02*
X141739476Y-83867381D01*
X141358523Y-83867381D01*
X141263285Y-83915000D01*
X141215666Y-83962619D01*
X141168047Y-84057857D01*
X141168047Y-84200714D01*
X141215666Y-84295952D01*
X141263285Y-84343571D01*
X141358523Y-84391190D01*
X141739476Y-84391190D01*
X142382333Y-87462619D02*
X142477571Y-87415000D01*
X142572809Y-87319762D01*
X142715666Y-87176905D01*
X142810905Y-87129286D01*
X142906143Y-87129286D01*
X142858524Y-87367381D02*
X142953762Y-87319762D01*
X143049000Y-87224524D01*
X143096619Y-87034048D01*
X143096619Y-86700714D01*
X143049000Y-86510238D01*
X142953762Y-86415000D01*
X142858524Y-86367381D01*
X142668047Y-86367381D01*
X142572809Y-86415000D01*
X142477571Y-86510238D01*
X142429952Y-86700714D01*
X142429952Y-87034048D01*
X142477571Y-87224524D01*
X142572809Y-87319762D01*
X142668047Y-87367381D01*
X142858524Y-87367381D01*
X142096619Y-86367381D02*
X141429952Y-86367381D01*
X141858524Y-87367381D01*
X141001381Y-86367381D02*
X141096619Y-86557857D01*
X139710904Y-86415000D02*
X139806142Y-86367381D01*
X139948999Y-86367381D01*
X140091857Y-86415000D01*
X140187095Y-86510238D01*
X140234714Y-86605476D01*
X140282333Y-86795952D01*
X140282333Y-86938810D01*
X140234714Y-87129286D01*
X140187095Y-87224524D01*
X140091857Y-87319762D01*
X139948999Y-87367381D01*
X139853761Y-87367381D01*
X139710904Y-87319762D01*
X139663285Y-87272143D01*
X139663285Y-86938810D01*
X139853761Y-86938810D01*
X139234714Y-87367381D02*
X139234714Y-86367381D01*
X138663285Y-87367381D01*
X138663285Y-86367381D01*
X138187095Y-87367381D02*
X138187095Y-86367381D01*
X137949000Y-86367381D01*
X137806142Y-86415000D01*
X137710904Y-86510238D01*
X137663285Y-86605476D01*
X137615666Y-86795952D01*
X137615666Y-86938810D01*
X137663285Y-87129286D01*
X137710904Y-87224524D01*
X137806142Y-87319762D01*
X137949000Y-87367381D01*
X138187095Y-87367381D01*
X138544238Y-82362619D02*
X138639476Y-82315000D01*
X138734714Y-82219762D01*
X138877571Y-82076905D01*
X138972810Y-82029286D01*
X139068048Y-82029286D01*
X139020429Y-82267381D02*
X139115667Y-82219762D01*
X139210905Y-82124524D01*
X139258524Y-81934048D01*
X139258524Y-81600714D01*
X139210905Y-81410238D01*
X139115667Y-81315000D01*
X139020429Y-81267381D01*
X138829952Y-81267381D01*
X138734714Y-81315000D01*
X138639476Y-81410238D01*
X138591857Y-81600714D01*
X138591857Y-81934048D01*
X138639476Y-82124524D01*
X138734714Y-82219762D01*
X138829952Y-82267381D01*
X139020429Y-82267381D01*
X137734714Y-81267381D02*
X137925191Y-81267381D01*
X138020429Y-81315000D01*
X138068048Y-81362619D01*
X138163286Y-81505476D01*
X138210905Y-81695952D01*
X138210905Y-82076905D01*
X138163286Y-82172143D01*
X138115667Y-82219762D01*
X138020429Y-82267381D01*
X137829952Y-82267381D01*
X137734714Y-82219762D01*
X137687095Y-82172143D01*
X137639476Y-82076905D01*
X137639476Y-81838810D01*
X137687095Y-81743571D01*
X137734714Y-81695952D01*
X137829952Y-81648333D01*
X138020429Y-81648333D01*
X138115667Y-81695952D01*
X138163286Y-81743571D01*
X138210905Y-81838810D01*
X138544238Y-84962619D02*
X138639476Y-84915000D01*
X138734714Y-84819762D01*
X138877571Y-84676905D01*
X138972810Y-84629286D01*
X139068048Y-84629286D01*
X139020429Y-84867381D02*
X139115667Y-84819762D01*
X139210905Y-84724524D01*
X139258524Y-84534048D01*
X139258524Y-84200714D01*
X139210905Y-84010238D01*
X139115667Y-83915000D01*
X139020429Y-83867381D01*
X138829952Y-83867381D01*
X138734714Y-83915000D01*
X138639476Y-84010238D01*
X138591857Y-84200714D01*
X138591857Y-84534048D01*
X138639476Y-84724524D01*
X138734714Y-84819762D01*
X138829952Y-84867381D01*
X139020429Y-84867381D01*
X138258524Y-83867381D02*
X137591857Y-83867381D01*
X138020429Y-84867381D01*
X138544238Y-80012619D02*
X138639476Y-79965000D01*
X138734714Y-79869762D01*
X138877571Y-79726905D01*
X138972810Y-79679286D01*
X139068048Y-79679286D01*
X139020429Y-79917381D02*
X139115667Y-79869762D01*
X139210905Y-79774524D01*
X139258524Y-79584048D01*
X139258524Y-79250714D01*
X139210905Y-79060238D01*
X139115667Y-78965000D01*
X139020429Y-78917381D01*
X138829952Y-78917381D01*
X138734714Y-78965000D01*
X138639476Y-79060238D01*
X138591857Y-79250714D01*
X138591857Y-79584048D01*
X138639476Y-79774524D01*
X138734714Y-79869762D01*
X138829952Y-79917381D01*
X139020429Y-79917381D01*
X137687095Y-78917381D02*
X138163286Y-78917381D01*
X138210905Y-79393571D01*
X138163286Y-79345952D01*
X138068048Y-79298333D01*
X137829952Y-79298333D01*
X137734714Y-79345952D01*
X137687095Y-79393571D01*
X137639476Y-79488810D01*
X137639476Y-79726905D01*
X137687095Y-79822143D01*
X137734714Y-79869762D01*
X137829952Y-79917381D01*
X138068048Y-79917381D01*
X138163286Y-79869762D01*
X138210905Y-79822143D01*
X138544238Y-77262619D02*
X138639476Y-77215000D01*
X138734714Y-77119762D01*
X138877571Y-76976905D01*
X138972810Y-76929286D01*
X139068048Y-76929286D01*
X139020429Y-77167381D02*
X139115667Y-77119762D01*
X139210905Y-77024524D01*
X139258524Y-76834048D01*
X139258524Y-76500714D01*
X139210905Y-76310238D01*
X139115667Y-76215000D01*
X139020429Y-76167381D01*
X138829952Y-76167381D01*
X138734714Y-76215000D01*
X138639476Y-76310238D01*
X138591857Y-76500714D01*
X138591857Y-76834048D01*
X138639476Y-77024524D01*
X138734714Y-77119762D01*
X138829952Y-77167381D01*
X139020429Y-77167381D01*
X137734714Y-76500714D02*
X137734714Y-77167381D01*
X137972810Y-76119762D02*
X138210905Y-76834048D01*
X137591857Y-76834048D01*
X138544238Y-74762619D02*
X138639476Y-74715000D01*
X138734714Y-74619762D01*
X138877571Y-74476905D01*
X138972810Y-74429286D01*
X139068048Y-74429286D01*
X139020429Y-74667381D02*
X139115667Y-74619762D01*
X139210905Y-74524524D01*
X139258524Y-74334048D01*
X139258524Y-74000714D01*
X139210905Y-73810238D01*
X139115667Y-73715000D01*
X139020429Y-73667381D01*
X138829952Y-73667381D01*
X138734714Y-73715000D01*
X138639476Y-73810238D01*
X138591857Y-74000714D01*
X138591857Y-74334048D01*
X138639476Y-74524524D01*
X138734714Y-74619762D01*
X138829952Y-74667381D01*
X139020429Y-74667381D01*
X138258524Y-73667381D02*
X137639476Y-73667381D01*
X137972810Y-74048333D01*
X137829952Y-74048333D01*
X137734714Y-74095952D01*
X137687095Y-74143571D01*
X137639476Y-74238810D01*
X137639476Y-74476905D01*
X137687095Y-74572143D01*
X137734714Y-74619762D01*
X137829952Y-74667381D01*
X138115667Y-74667381D01*
X138210905Y-74619762D01*
X138258524Y-74572143D01*
X138544238Y-72262619D02*
X138639476Y-72215000D01*
X138734714Y-72119762D01*
X138877571Y-71976905D01*
X138972810Y-71929286D01*
X139068048Y-71929286D01*
X139020429Y-72167381D02*
X139115667Y-72119762D01*
X139210905Y-72024524D01*
X139258524Y-71834048D01*
X139258524Y-71500714D01*
X139210905Y-71310238D01*
X139115667Y-71215000D01*
X139020429Y-71167381D01*
X138829952Y-71167381D01*
X138734714Y-71215000D01*
X138639476Y-71310238D01*
X138591857Y-71500714D01*
X138591857Y-71834048D01*
X138639476Y-72024524D01*
X138734714Y-72119762D01*
X138829952Y-72167381D01*
X139020429Y-72167381D01*
X138210905Y-71262619D02*
X138163286Y-71215000D01*
X138068048Y-71167381D01*
X137829952Y-71167381D01*
X137734714Y-71215000D01*
X137687095Y-71262619D01*
X137639476Y-71357857D01*
X137639476Y-71453095D01*
X137687095Y-71595952D01*
X138258524Y-72167381D01*
X137639476Y-72167381D01*
X138544238Y-69762619D02*
X138639476Y-69715000D01*
X138734714Y-69619762D01*
X138877571Y-69476905D01*
X138972810Y-69429286D01*
X139068048Y-69429286D01*
X139020429Y-69667381D02*
X139115667Y-69619762D01*
X139210905Y-69524524D01*
X139258524Y-69334048D01*
X139258524Y-69000714D01*
X139210905Y-68810238D01*
X139115667Y-68715000D01*
X139020429Y-68667381D01*
X138829952Y-68667381D01*
X138734714Y-68715000D01*
X138639476Y-68810238D01*
X138591857Y-69000714D01*
X138591857Y-69334048D01*
X138639476Y-69524524D01*
X138734714Y-69619762D01*
X138829952Y-69667381D01*
X139020429Y-69667381D01*
X137639476Y-69667381D02*
X138210905Y-69667381D01*
X137925191Y-69667381D02*
X137925191Y-68667381D01*
X138020429Y-68810238D01*
X138115667Y-68905476D01*
X138210905Y-68953095D01*
X172870381Y-135568667D02*
X173870381Y-135902000D01*
X172870381Y-136235334D01*
X173775143Y-137140096D02*
X173822762Y-137092477D01*
X173870381Y-136949620D01*
X173870381Y-136854382D01*
X173822762Y-136711524D01*
X173727524Y-136616286D01*
X173632286Y-136568667D01*
X173441810Y-136521048D01*
X173298952Y-136521048D01*
X173108476Y-136568667D01*
X173013238Y-136616286D01*
X172918000Y-136711524D01*
X172870381Y-136854382D01*
X172870381Y-136949620D01*
X172918000Y-137092477D01*
X172965619Y-137140096D01*
X173775143Y-138140096D02*
X173822762Y-138092477D01*
X173870381Y-137949620D01*
X173870381Y-137854382D01*
X173822762Y-137711524D01*
X173727524Y-137616286D01*
X173632286Y-137568667D01*
X173441810Y-137521048D01*
X173298952Y-137521048D01*
X173108476Y-137568667D01*
X173013238Y-137616286D01*
X172918000Y-137711524D01*
X172870381Y-137854382D01*
X172870381Y-137949620D01*
X172918000Y-138092477D01*
X172965619Y-138140096D01*
X176365619Y-136506762D02*
X176318000Y-136411524D01*
X176222762Y-136316286D01*
X176079905Y-136173429D01*
X176032286Y-136078190D01*
X176032286Y-135982952D01*
X176270381Y-136030571D02*
X176222762Y-135935333D01*
X176127524Y-135840095D01*
X175937048Y-135792476D01*
X175603714Y-135792476D01*
X175413238Y-135840095D01*
X175318000Y-135935333D01*
X175270381Y-136030571D01*
X175270381Y-136221048D01*
X175318000Y-136316286D01*
X175413238Y-136411524D01*
X175603714Y-136459143D01*
X175937048Y-136459143D01*
X176127524Y-136411524D01*
X176222762Y-136316286D01*
X176270381Y-136221048D01*
X176270381Y-136030571D01*
X175270381Y-137078190D02*
X175270381Y-137173429D01*
X175318000Y-137268667D01*
X175365619Y-137316286D01*
X175460857Y-137363905D01*
X175651333Y-137411524D01*
X175889429Y-137411524D01*
X176079905Y-137363905D01*
X176175143Y-137316286D01*
X176222762Y-137268667D01*
X176270381Y-137173429D01*
X176270381Y-137078190D01*
X176222762Y-136982952D01*
X176175143Y-136935333D01*
X176079905Y-136887714D01*
X175889429Y-136840095D01*
X175651333Y-136840095D01*
X175460857Y-136887714D01*
X175365619Y-136935333D01*
X175318000Y-136982952D01*
X175270381Y-137078190D01*
X178870381Y-135802000D02*
X177870381Y-135802000D01*
X177870381Y-136040095D01*
X177918000Y-136182953D01*
X178013238Y-136278191D01*
X178108476Y-136325810D01*
X178298952Y-136373429D01*
X178441810Y-136373429D01*
X178632286Y-136325810D01*
X178727524Y-136278191D01*
X178822762Y-136182953D01*
X178870381Y-136040095D01*
X178870381Y-135802000D01*
X178584667Y-136754381D02*
X178584667Y-137230572D01*
X178870381Y-136659143D02*
X177870381Y-136992476D01*
X178870381Y-137325810D01*
X177870381Y-137516286D02*
X177870381Y-138087715D01*
X178870381Y-137802000D02*
X177870381Y-137802000D01*
X178584667Y-138373429D02*
X178584667Y-138849620D01*
X178870381Y-138278191D02*
X177870381Y-138611524D01*
X178870381Y-138944858D01*
X180470381Y-136154381D02*
X180470381Y-136344858D01*
X180518000Y-136440096D01*
X180613238Y-136535334D01*
X180803714Y-136582953D01*
X181137048Y-136582953D01*
X181327524Y-136535334D01*
X181422762Y-136440096D01*
X181470381Y-136344858D01*
X181470381Y-136154381D01*
X181422762Y-136059143D01*
X181327524Y-135963905D01*
X181137048Y-135916286D01*
X180803714Y-135916286D01*
X180613238Y-135963905D01*
X180518000Y-136059143D01*
X180470381Y-136154381D01*
X180946571Y-137011524D02*
X180946571Y-137344858D01*
X181470381Y-137487715D02*
X181470381Y-137011524D01*
X180470381Y-137011524D01*
X180470381Y-137487715D01*
X184122762Y-135535333D02*
X184170381Y-135678190D01*
X184170381Y-135916286D01*
X184122762Y-136011524D01*
X184075143Y-136059143D01*
X183979905Y-136106762D01*
X183884667Y-136106762D01*
X183789429Y-136059143D01*
X183741810Y-136011524D01*
X183694190Y-135916286D01*
X183646571Y-135725809D01*
X183598952Y-135630571D01*
X183551333Y-135582952D01*
X183456095Y-135535333D01*
X183360857Y-135535333D01*
X183265619Y-135582952D01*
X183218000Y-135630571D01*
X183170381Y-135725809D01*
X183170381Y-135963905D01*
X183218000Y-136106762D01*
X183170381Y-136392476D02*
X183170381Y-136963905D01*
X184170381Y-136678190D02*
X183170381Y-136678190D01*
X184075143Y-137868667D02*
X184122762Y-137821048D01*
X184170381Y-137678191D01*
X184170381Y-137582953D01*
X184122762Y-137440095D01*
X184027524Y-137344857D01*
X183932286Y-137297238D01*
X183741810Y-137249619D01*
X183598952Y-137249619D01*
X183408476Y-137297238D01*
X183313238Y-137344857D01*
X183218000Y-137440095D01*
X183170381Y-137582953D01*
X183170381Y-137678191D01*
X183218000Y-137821048D01*
X183265619Y-137868667D01*
X184170381Y-138297238D02*
X183170381Y-138297238D01*
X183170381Y-138678191D01*
X183218000Y-138773429D01*
X183265619Y-138821048D01*
X183360857Y-138868667D01*
X183503714Y-138868667D01*
X183598952Y-138821048D01*
X183646571Y-138773429D01*
X183694190Y-138678191D01*
X183694190Y-138297238D01*
X186422762Y-135392476D02*
X186470381Y-135535333D01*
X186470381Y-135773429D01*
X186422762Y-135868667D01*
X186375143Y-135916286D01*
X186279905Y-135963905D01*
X186184667Y-135963905D01*
X186089429Y-135916286D01*
X186041810Y-135868667D01*
X185994190Y-135773429D01*
X185946571Y-135582952D01*
X185898952Y-135487714D01*
X185851333Y-135440095D01*
X185756095Y-135392476D01*
X185660857Y-135392476D01*
X185565619Y-135440095D01*
X185518000Y-135487714D01*
X185470381Y-135582952D01*
X185470381Y-135821048D01*
X185518000Y-135963905D01*
X186470381Y-136392476D02*
X185470381Y-136392476D01*
X185946571Y-136392476D02*
X185946571Y-136963905D01*
X186470381Y-136963905D02*
X185470381Y-136963905D01*
X186375143Y-138011524D02*
X186422762Y-137963905D01*
X186470381Y-137821048D01*
X186470381Y-137725810D01*
X186422762Y-137582952D01*
X186327524Y-137487714D01*
X186232286Y-137440095D01*
X186041810Y-137392476D01*
X185898952Y-137392476D01*
X185708476Y-137440095D01*
X185613238Y-137487714D01*
X185518000Y-137582952D01*
X185470381Y-137725810D01*
X185470381Y-137821048D01*
X185518000Y-137963905D01*
X185565619Y-138011524D01*
X186470381Y-138440095D02*
X185470381Y-138440095D01*
X185470381Y-138821048D01*
X185518000Y-138916286D01*
X185565619Y-138963905D01*
X185660857Y-139011524D01*
X185803714Y-139011524D01*
X185898952Y-138963905D01*
X185946571Y-138916286D01*
X185994190Y-138821048D01*
X185994190Y-138440095D01*
X189070381Y-135568667D02*
X188070381Y-135568667D01*
X188784667Y-135902001D01*
X188070381Y-136235334D01*
X189070381Y-136235334D01*
X189070381Y-137282953D02*
X188594190Y-136949619D01*
X189070381Y-136711524D02*
X188070381Y-136711524D01*
X188070381Y-137092477D01*
X188118000Y-137187715D01*
X188165619Y-137235334D01*
X188260857Y-137282953D01*
X188403714Y-137282953D01*
X188498952Y-137235334D01*
X188546571Y-137187715D01*
X188594190Y-137092477D01*
X188594190Y-136711524D01*
X191665619Y-136068667D02*
X191618000Y-135973429D01*
X191522762Y-135878191D01*
X191379905Y-135735334D01*
X191332286Y-135640095D01*
X191332286Y-135544857D01*
X191570381Y-135592476D02*
X191522762Y-135497238D01*
X191427524Y-135402000D01*
X191237048Y-135354381D01*
X190903714Y-135354381D01*
X190713238Y-135402000D01*
X190618000Y-135497238D01*
X190570381Y-135592476D01*
X190570381Y-135782953D01*
X190618000Y-135878191D01*
X190713238Y-135973429D01*
X190903714Y-136021048D01*
X191237048Y-136021048D01*
X191427524Y-135973429D01*
X191522762Y-135878191D01*
X191570381Y-135782953D01*
X191570381Y-135592476D01*
X190570381Y-136354381D02*
X190570381Y-137021048D01*
X191570381Y-136592476D01*
X190570381Y-137449619D02*
X190760857Y-137354381D01*
X190618000Y-138740096D02*
X190570381Y-138644858D01*
X190570381Y-138502001D01*
X190618000Y-138359143D01*
X190713238Y-138263905D01*
X190808476Y-138216286D01*
X190998952Y-138168667D01*
X191141810Y-138168667D01*
X191332286Y-138216286D01*
X191427524Y-138263905D01*
X191522762Y-138359143D01*
X191570381Y-138502001D01*
X191570381Y-138597239D01*
X191522762Y-138740096D01*
X191475143Y-138787715D01*
X191141810Y-138787715D01*
X191141810Y-138597239D01*
X191570381Y-139216286D02*
X190570381Y-139216286D01*
X191570381Y-139787715D01*
X190570381Y-139787715D01*
X191570381Y-140263905D02*
X190570381Y-140263905D01*
X190570381Y-140502000D01*
X190618000Y-140644858D01*
X190713238Y-140740096D01*
X190808476Y-140787715D01*
X190998952Y-140835334D01*
X191141810Y-140835334D01*
X191332286Y-140787715D01*
X191427524Y-140740096D01*
X191522762Y-140644858D01*
X191570381Y-140502000D01*
X191570381Y-140263905D01*
X186565619Y-139906762D02*
X186518000Y-139811524D01*
X186422762Y-139716286D01*
X186279905Y-139573429D01*
X186232286Y-139478190D01*
X186232286Y-139382952D01*
X186470381Y-139430571D02*
X186422762Y-139335333D01*
X186327524Y-139240095D01*
X186137048Y-139192476D01*
X185803714Y-139192476D01*
X185613238Y-139240095D01*
X185518000Y-139335333D01*
X185470381Y-139430571D01*
X185470381Y-139621048D01*
X185518000Y-139716286D01*
X185613238Y-139811524D01*
X185803714Y-139859143D01*
X186137048Y-139859143D01*
X186327524Y-139811524D01*
X186422762Y-139716286D01*
X186470381Y-139621048D01*
X186470381Y-139430571D01*
X185470381Y-140716286D02*
X185470381Y-140525809D01*
X185518000Y-140430571D01*
X185565619Y-140382952D01*
X185708476Y-140287714D01*
X185898952Y-140240095D01*
X186279905Y-140240095D01*
X186375143Y-140287714D01*
X186422762Y-140335333D01*
X186470381Y-140430571D01*
X186470381Y-140621048D01*
X186422762Y-140716286D01*
X186375143Y-140763905D01*
X186279905Y-140811524D01*
X186041810Y-140811524D01*
X185946571Y-140763905D01*
X185898952Y-140716286D01*
X185851333Y-140621048D01*
X185851333Y-140430571D01*
X185898952Y-140335333D01*
X185946571Y-140287714D01*
X186041810Y-140240095D01*
X189165619Y-139906762D02*
X189118000Y-139811524D01*
X189022762Y-139716286D01*
X188879905Y-139573429D01*
X188832286Y-139478190D01*
X188832286Y-139382952D01*
X189070381Y-139430571D02*
X189022762Y-139335333D01*
X188927524Y-139240095D01*
X188737048Y-139192476D01*
X188403714Y-139192476D01*
X188213238Y-139240095D01*
X188118000Y-139335333D01*
X188070381Y-139430571D01*
X188070381Y-139621048D01*
X188118000Y-139716286D01*
X188213238Y-139811524D01*
X188403714Y-139859143D01*
X188737048Y-139859143D01*
X188927524Y-139811524D01*
X189022762Y-139716286D01*
X189070381Y-139621048D01*
X189070381Y-139430571D01*
X188070381Y-140192476D02*
X188070381Y-140859143D01*
X189070381Y-140430571D01*
X184215619Y-139906762D02*
X184168000Y-139811524D01*
X184072762Y-139716286D01*
X183929905Y-139573429D01*
X183882286Y-139478190D01*
X183882286Y-139382952D01*
X184120381Y-139430571D02*
X184072762Y-139335333D01*
X183977524Y-139240095D01*
X183787048Y-139192476D01*
X183453714Y-139192476D01*
X183263238Y-139240095D01*
X183168000Y-139335333D01*
X183120381Y-139430571D01*
X183120381Y-139621048D01*
X183168000Y-139716286D01*
X183263238Y-139811524D01*
X183453714Y-139859143D01*
X183787048Y-139859143D01*
X183977524Y-139811524D01*
X184072762Y-139716286D01*
X184120381Y-139621048D01*
X184120381Y-139430571D01*
X183120381Y-140763905D02*
X183120381Y-140287714D01*
X183596571Y-140240095D01*
X183548952Y-140287714D01*
X183501333Y-140382952D01*
X183501333Y-140621048D01*
X183548952Y-140716286D01*
X183596571Y-140763905D01*
X183691810Y-140811524D01*
X183929905Y-140811524D01*
X184025143Y-140763905D01*
X184072762Y-140716286D01*
X184120381Y-140621048D01*
X184120381Y-140382952D01*
X184072762Y-140287714D01*
X184025143Y-140240095D01*
X181465619Y-139906762D02*
X181418000Y-139811524D01*
X181322762Y-139716286D01*
X181179905Y-139573429D01*
X181132286Y-139478190D01*
X181132286Y-139382952D01*
X181370381Y-139430571D02*
X181322762Y-139335333D01*
X181227524Y-139240095D01*
X181037048Y-139192476D01*
X180703714Y-139192476D01*
X180513238Y-139240095D01*
X180418000Y-139335333D01*
X180370381Y-139430571D01*
X180370381Y-139621048D01*
X180418000Y-139716286D01*
X180513238Y-139811524D01*
X180703714Y-139859143D01*
X181037048Y-139859143D01*
X181227524Y-139811524D01*
X181322762Y-139716286D01*
X181370381Y-139621048D01*
X181370381Y-139430571D01*
X180703714Y-140716286D02*
X181370381Y-140716286D01*
X180322762Y-140478190D02*
X181037048Y-140240095D01*
X181037048Y-140859143D01*
X178965619Y-139906762D02*
X178918000Y-139811524D01*
X178822762Y-139716286D01*
X178679905Y-139573429D01*
X178632286Y-139478190D01*
X178632286Y-139382952D01*
X178870381Y-139430571D02*
X178822762Y-139335333D01*
X178727524Y-139240095D01*
X178537048Y-139192476D01*
X178203714Y-139192476D01*
X178013238Y-139240095D01*
X177918000Y-139335333D01*
X177870381Y-139430571D01*
X177870381Y-139621048D01*
X177918000Y-139716286D01*
X178013238Y-139811524D01*
X178203714Y-139859143D01*
X178537048Y-139859143D01*
X178727524Y-139811524D01*
X178822762Y-139716286D01*
X178870381Y-139621048D01*
X178870381Y-139430571D01*
X177870381Y-140192476D02*
X177870381Y-140811524D01*
X178251333Y-140478190D01*
X178251333Y-140621048D01*
X178298952Y-140716286D01*
X178346571Y-140763905D01*
X178441810Y-140811524D01*
X178679905Y-140811524D01*
X178775143Y-140763905D01*
X178822762Y-140716286D01*
X178870381Y-140621048D01*
X178870381Y-140335333D01*
X178822762Y-140240095D01*
X178775143Y-140192476D01*
X176465619Y-139906762D02*
X176418000Y-139811524D01*
X176322762Y-139716286D01*
X176179905Y-139573429D01*
X176132286Y-139478190D01*
X176132286Y-139382952D01*
X176370381Y-139430571D02*
X176322762Y-139335333D01*
X176227524Y-139240095D01*
X176037048Y-139192476D01*
X175703714Y-139192476D01*
X175513238Y-139240095D01*
X175418000Y-139335333D01*
X175370381Y-139430571D01*
X175370381Y-139621048D01*
X175418000Y-139716286D01*
X175513238Y-139811524D01*
X175703714Y-139859143D01*
X176037048Y-139859143D01*
X176227524Y-139811524D01*
X176322762Y-139716286D01*
X176370381Y-139621048D01*
X176370381Y-139430571D01*
X175465619Y-140240095D02*
X175418000Y-140287714D01*
X175370381Y-140382952D01*
X175370381Y-140621048D01*
X175418000Y-140716286D01*
X175465619Y-140763905D01*
X175560857Y-140811524D01*
X175656095Y-140811524D01*
X175798952Y-140763905D01*
X176370381Y-140192476D01*
X176370381Y-140811524D01*
X173965619Y-139906762D02*
X173918000Y-139811524D01*
X173822762Y-139716286D01*
X173679905Y-139573429D01*
X173632286Y-139478190D01*
X173632286Y-139382952D01*
X173870381Y-139430571D02*
X173822762Y-139335333D01*
X173727524Y-139240095D01*
X173537048Y-139192476D01*
X173203714Y-139192476D01*
X173013238Y-139240095D01*
X172918000Y-139335333D01*
X172870381Y-139430571D01*
X172870381Y-139621048D01*
X172918000Y-139716286D01*
X173013238Y-139811524D01*
X173203714Y-139859143D01*
X173537048Y-139859143D01*
X173727524Y-139811524D01*
X173822762Y-139716286D01*
X173870381Y-139621048D01*
X173870381Y-139430571D01*
X173870381Y-140811524D02*
X173870381Y-140240095D01*
X173870381Y-140525809D02*
X172870381Y-140525809D01*
X173013238Y-140430571D01*
X173108476Y-140335333D01*
X173156095Y-140240095D01*
X150963381Y-135488667D02*
X151963381Y-135822000D01*
X150963381Y-136155334D01*
X151868143Y-137060096D02*
X151915762Y-137012477D01*
X151963381Y-136869620D01*
X151963381Y-136774382D01*
X151915762Y-136631524D01*
X151820524Y-136536286D01*
X151725286Y-136488667D01*
X151534810Y-136441048D01*
X151391952Y-136441048D01*
X151201476Y-136488667D01*
X151106238Y-136536286D01*
X151011000Y-136631524D01*
X150963381Y-136774382D01*
X150963381Y-136869620D01*
X151011000Y-137012477D01*
X151058619Y-137060096D01*
X151868143Y-138060096D02*
X151915762Y-138012477D01*
X151963381Y-137869620D01*
X151963381Y-137774382D01*
X151915762Y-137631524D01*
X151820524Y-137536286D01*
X151725286Y-137488667D01*
X151534810Y-137441048D01*
X151391952Y-137441048D01*
X151201476Y-137488667D01*
X151106238Y-137536286D01*
X151011000Y-137631524D01*
X150963381Y-137774382D01*
X150963381Y-137869620D01*
X151011000Y-138012477D01*
X151058619Y-138060096D01*
X154458619Y-136426762D02*
X154411000Y-136331524D01*
X154315762Y-136236286D01*
X154172905Y-136093429D01*
X154125286Y-135998190D01*
X154125286Y-135902952D01*
X154363381Y-135950571D02*
X154315762Y-135855333D01*
X154220524Y-135760095D01*
X154030048Y-135712476D01*
X153696714Y-135712476D01*
X153506238Y-135760095D01*
X153411000Y-135855333D01*
X153363381Y-135950571D01*
X153363381Y-136141048D01*
X153411000Y-136236286D01*
X153506238Y-136331524D01*
X153696714Y-136379143D01*
X154030048Y-136379143D01*
X154220524Y-136331524D01*
X154315762Y-136236286D01*
X154363381Y-136141048D01*
X154363381Y-135950571D01*
X153363381Y-136998190D02*
X153363381Y-137093429D01*
X153411000Y-137188667D01*
X153458619Y-137236286D01*
X153553857Y-137283905D01*
X153744333Y-137331524D01*
X153982429Y-137331524D01*
X154172905Y-137283905D01*
X154268143Y-137236286D01*
X154315762Y-137188667D01*
X154363381Y-137093429D01*
X154363381Y-136998190D01*
X154315762Y-136902952D01*
X154268143Y-136855333D01*
X154172905Y-136807714D01*
X153982429Y-136760095D01*
X153744333Y-136760095D01*
X153553857Y-136807714D01*
X153458619Y-136855333D01*
X153411000Y-136902952D01*
X153363381Y-136998190D01*
X156963381Y-135722000D02*
X155963381Y-135722000D01*
X155963381Y-135960095D01*
X156011000Y-136102953D01*
X156106238Y-136198191D01*
X156201476Y-136245810D01*
X156391952Y-136293429D01*
X156534810Y-136293429D01*
X156725286Y-136245810D01*
X156820524Y-136198191D01*
X156915762Y-136102953D01*
X156963381Y-135960095D01*
X156963381Y-135722000D01*
X156677667Y-136674381D02*
X156677667Y-137150572D01*
X156963381Y-136579143D02*
X155963381Y-136912476D01*
X156963381Y-137245810D01*
X155963381Y-137436286D02*
X155963381Y-138007715D01*
X156963381Y-137722000D02*
X155963381Y-137722000D01*
X156677667Y-138293429D02*
X156677667Y-138769620D01*
X156963381Y-138198191D02*
X155963381Y-138531524D01*
X156963381Y-138864858D01*
X158563381Y-136074381D02*
X158563381Y-136264858D01*
X158611000Y-136360096D01*
X158706238Y-136455334D01*
X158896714Y-136502953D01*
X159230048Y-136502953D01*
X159420524Y-136455334D01*
X159515762Y-136360096D01*
X159563381Y-136264858D01*
X159563381Y-136074381D01*
X159515762Y-135979143D01*
X159420524Y-135883905D01*
X159230048Y-135836286D01*
X158896714Y-135836286D01*
X158706238Y-135883905D01*
X158611000Y-135979143D01*
X158563381Y-136074381D01*
X159039571Y-136931524D02*
X159039571Y-137264858D01*
X159563381Y-137407715D02*
X159563381Y-136931524D01*
X158563381Y-136931524D01*
X158563381Y-137407715D01*
X162215762Y-135455333D02*
X162263381Y-135598190D01*
X162263381Y-135836286D01*
X162215762Y-135931524D01*
X162168143Y-135979143D01*
X162072905Y-136026762D01*
X161977667Y-136026762D01*
X161882429Y-135979143D01*
X161834810Y-135931524D01*
X161787190Y-135836286D01*
X161739571Y-135645809D01*
X161691952Y-135550571D01*
X161644333Y-135502952D01*
X161549095Y-135455333D01*
X161453857Y-135455333D01*
X161358619Y-135502952D01*
X161311000Y-135550571D01*
X161263381Y-135645809D01*
X161263381Y-135883905D01*
X161311000Y-136026762D01*
X161263381Y-136312476D02*
X161263381Y-136883905D01*
X162263381Y-136598190D02*
X161263381Y-136598190D01*
X162168143Y-137788667D02*
X162215762Y-137741048D01*
X162263381Y-137598191D01*
X162263381Y-137502953D01*
X162215762Y-137360095D01*
X162120524Y-137264857D01*
X162025286Y-137217238D01*
X161834810Y-137169619D01*
X161691952Y-137169619D01*
X161501476Y-137217238D01*
X161406238Y-137264857D01*
X161311000Y-137360095D01*
X161263381Y-137502953D01*
X161263381Y-137598191D01*
X161311000Y-137741048D01*
X161358619Y-137788667D01*
X162263381Y-138217238D02*
X161263381Y-138217238D01*
X161263381Y-138598191D01*
X161311000Y-138693429D01*
X161358619Y-138741048D01*
X161453857Y-138788667D01*
X161596714Y-138788667D01*
X161691952Y-138741048D01*
X161739571Y-138693429D01*
X161787190Y-138598191D01*
X161787190Y-138217238D01*
X164515762Y-135312476D02*
X164563381Y-135455333D01*
X164563381Y-135693429D01*
X164515762Y-135788667D01*
X164468143Y-135836286D01*
X164372905Y-135883905D01*
X164277667Y-135883905D01*
X164182429Y-135836286D01*
X164134810Y-135788667D01*
X164087190Y-135693429D01*
X164039571Y-135502952D01*
X163991952Y-135407714D01*
X163944333Y-135360095D01*
X163849095Y-135312476D01*
X163753857Y-135312476D01*
X163658619Y-135360095D01*
X163611000Y-135407714D01*
X163563381Y-135502952D01*
X163563381Y-135741048D01*
X163611000Y-135883905D01*
X164563381Y-136312476D02*
X163563381Y-136312476D01*
X164039571Y-136312476D02*
X164039571Y-136883905D01*
X164563381Y-136883905D02*
X163563381Y-136883905D01*
X164468143Y-137931524D02*
X164515762Y-137883905D01*
X164563381Y-137741048D01*
X164563381Y-137645810D01*
X164515762Y-137502952D01*
X164420524Y-137407714D01*
X164325286Y-137360095D01*
X164134810Y-137312476D01*
X163991952Y-137312476D01*
X163801476Y-137360095D01*
X163706238Y-137407714D01*
X163611000Y-137502952D01*
X163563381Y-137645810D01*
X163563381Y-137741048D01*
X163611000Y-137883905D01*
X163658619Y-137931524D01*
X164563381Y-138360095D02*
X163563381Y-138360095D01*
X163563381Y-138741048D01*
X163611000Y-138836286D01*
X163658619Y-138883905D01*
X163753857Y-138931524D01*
X163896714Y-138931524D01*
X163991952Y-138883905D01*
X164039571Y-138836286D01*
X164087190Y-138741048D01*
X164087190Y-138360095D01*
X167163381Y-135488667D02*
X166163381Y-135488667D01*
X166877667Y-135822001D01*
X166163381Y-136155334D01*
X167163381Y-136155334D01*
X167163381Y-137202953D02*
X166687190Y-136869619D01*
X167163381Y-136631524D02*
X166163381Y-136631524D01*
X166163381Y-137012477D01*
X166211000Y-137107715D01*
X166258619Y-137155334D01*
X166353857Y-137202953D01*
X166496714Y-137202953D01*
X166591952Y-137155334D01*
X166639571Y-137107715D01*
X166687190Y-137012477D01*
X166687190Y-136631524D01*
X169758619Y-135988667D02*
X169711000Y-135893429D01*
X169615762Y-135798191D01*
X169472905Y-135655334D01*
X169425286Y-135560095D01*
X169425286Y-135464857D01*
X169663381Y-135512476D02*
X169615762Y-135417238D01*
X169520524Y-135322000D01*
X169330048Y-135274381D01*
X168996714Y-135274381D01*
X168806238Y-135322000D01*
X168711000Y-135417238D01*
X168663381Y-135512476D01*
X168663381Y-135702953D01*
X168711000Y-135798191D01*
X168806238Y-135893429D01*
X168996714Y-135941048D01*
X169330048Y-135941048D01*
X169520524Y-135893429D01*
X169615762Y-135798191D01*
X169663381Y-135702953D01*
X169663381Y-135512476D01*
X168663381Y-136274381D02*
X168663381Y-136941048D01*
X169663381Y-136512476D01*
X168663381Y-137369619D02*
X168853857Y-137274381D01*
X168711000Y-138660096D02*
X168663381Y-138564858D01*
X168663381Y-138422001D01*
X168711000Y-138279143D01*
X168806238Y-138183905D01*
X168901476Y-138136286D01*
X169091952Y-138088667D01*
X169234810Y-138088667D01*
X169425286Y-138136286D01*
X169520524Y-138183905D01*
X169615762Y-138279143D01*
X169663381Y-138422001D01*
X169663381Y-138517239D01*
X169615762Y-138660096D01*
X169568143Y-138707715D01*
X169234810Y-138707715D01*
X169234810Y-138517239D01*
X169663381Y-139136286D02*
X168663381Y-139136286D01*
X169663381Y-139707715D01*
X168663381Y-139707715D01*
X169663381Y-140183905D02*
X168663381Y-140183905D01*
X168663381Y-140422000D01*
X168711000Y-140564858D01*
X168806238Y-140660096D01*
X168901476Y-140707715D01*
X169091952Y-140755334D01*
X169234810Y-140755334D01*
X169425286Y-140707715D01*
X169520524Y-140660096D01*
X169615762Y-140564858D01*
X169663381Y-140422000D01*
X169663381Y-140183905D01*
X164658619Y-139826762D02*
X164611000Y-139731524D01*
X164515762Y-139636286D01*
X164372905Y-139493429D01*
X164325286Y-139398190D01*
X164325286Y-139302952D01*
X164563381Y-139350571D02*
X164515762Y-139255333D01*
X164420524Y-139160095D01*
X164230048Y-139112476D01*
X163896714Y-139112476D01*
X163706238Y-139160095D01*
X163611000Y-139255333D01*
X163563381Y-139350571D01*
X163563381Y-139541048D01*
X163611000Y-139636286D01*
X163706238Y-139731524D01*
X163896714Y-139779143D01*
X164230048Y-139779143D01*
X164420524Y-139731524D01*
X164515762Y-139636286D01*
X164563381Y-139541048D01*
X164563381Y-139350571D01*
X163563381Y-140636286D02*
X163563381Y-140445809D01*
X163611000Y-140350571D01*
X163658619Y-140302952D01*
X163801476Y-140207714D01*
X163991952Y-140160095D01*
X164372905Y-140160095D01*
X164468143Y-140207714D01*
X164515762Y-140255333D01*
X164563381Y-140350571D01*
X164563381Y-140541048D01*
X164515762Y-140636286D01*
X164468143Y-140683905D01*
X164372905Y-140731524D01*
X164134810Y-140731524D01*
X164039571Y-140683905D01*
X163991952Y-140636286D01*
X163944333Y-140541048D01*
X163944333Y-140350571D01*
X163991952Y-140255333D01*
X164039571Y-140207714D01*
X164134810Y-140160095D01*
X167258619Y-139826762D02*
X167211000Y-139731524D01*
X167115762Y-139636286D01*
X166972905Y-139493429D01*
X166925286Y-139398190D01*
X166925286Y-139302952D01*
X167163381Y-139350571D02*
X167115762Y-139255333D01*
X167020524Y-139160095D01*
X166830048Y-139112476D01*
X166496714Y-139112476D01*
X166306238Y-139160095D01*
X166211000Y-139255333D01*
X166163381Y-139350571D01*
X166163381Y-139541048D01*
X166211000Y-139636286D01*
X166306238Y-139731524D01*
X166496714Y-139779143D01*
X166830048Y-139779143D01*
X167020524Y-139731524D01*
X167115762Y-139636286D01*
X167163381Y-139541048D01*
X167163381Y-139350571D01*
X166163381Y-140112476D02*
X166163381Y-140779143D01*
X167163381Y-140350571D01*
X162308619Y-139826762D02*
X162261000Y-139731524D01*
X162165762Y-139636286D01*
X162022905Y-139493429D01*
X161975286Y-139398190D01*
X161975286Y-139302952D01*
X162213381Y-139350571D02*
X162165762Y-139255333D01*
X162070524Y-139160095D01*
X161880048Y-139112476D01*
X161546714Y-139112476D01*
X161356238Y-139160095D01*
X161261000Y-139255333D01*
X161213381Y-139350571D01*
X161213381Y-139541048D01*
X161261000Y-139636286D01*
X161356238Y-139731524D01*
X161546714Y-139779143D01*
X161880048Y-139779143D01*
X162070524Y-139731524D01*
X162165762Y-139636286D01*
X162213381Y-139541048D01*
X162213381Y-139350571D01*
X161213381Y-140683905D02*
X161213381Y-140207714D01*
X161689571Y-140160095D01*
X161641952Y-140207714D01*
X161594333Y-140302952D01*
X161594333Y-140541048D01*
X161641952Y-140636286D01*
X161689571Y-140683905D01*
X161784810Y-140731524D01*
X162022905Y-140731524D01*
X162118143Y-140683905D01*
X162165762Y-140636286D01*
X162213381Y-140541048D01*
X162213381Y-140302952D01*
X162165762Y-140207714D01*
X162118143Y-140160095D01*
X159558619Y-139826762D02*
X159511000Y-139731524D01*
X159415762Y-139636286D01*
X159272905Y-139493429D01*
X159225286Y-139398190D01*
X159225286Y-139302952D01*
X159463381Y-139350571D02*
X159415762Y-139255333D01*
X159320524Y-139160095D01*
X159130048Y-139112476D01*
X158796714Y-139112476D01*
X158606238Y-139160095D01*
X158511000Y-139255333D01*
X158463381Y-139350571D01*
X158463381Y-139541048D01*
X158511000Y-139636286D01*
X158606238Y-139731524D01*
X158796714Y-139779143D01*
X159130048Y-139779143D01*
X159320524Y-139731524D01*
X159415762Y-139636286D01*
X159463381Y-139541048D01*
X159463381Y-139350571D01*
X158796714Y-140636286D02*
X159463381Y-140636286D01*
X158415762Y-140398190D02*
X159130048Y-140160095D01*
X159130048Y-140779143D01*
X157058619Y-139826762D02*
X157011000Y-139731524D01*
X156915762Y-139636286D01*
X156772905Y-139493429D01*
X156725286Y-139398190D01*
X156725286Y-139302952D01*
X156963381Y-139350571D02*
X156915762Y-139255333D01*
X156820524Y-139160095D01*
X156630048Y-139112476D01*
X156296714Y-139112476D01*
X156106238Y-139160095D01*
X156011000Y-139255333D01*
X155963381Y-139350571D01*
X155963381Y-139541048D01*
X156011000Y-139636286D01*
X156106238Y-139731524D01*
X156296714Y-139779143D01*
X156630048Y-139779143D01*
X156820524Y-139731524D01*
X156915762Y-139636286D01*
X156963381Y-139541048D01*
X156963381Y-139350571D01*
X155963381Y-140112476D02*
X155963381Y-140731524D01*
X156344333Y-140398190D01*
X156344333Y-140541048D01*
X156391952Y-140636286D01*
X156439571Y-140683905D01*
X156534810Y-140731524D01*
X156772905Y-140731524D01*
X156868143Y-140683905D01*
X156915762Y-140636286D01*
X156963381Y-140541048D01*
X156963381Y-140255333D01*
X156915762Y-140160095D01*
X156868143Y-140112476D01*
X154558619Y-139826762D02*
X154511000Y-139731524D01*
X154415762Y-139636286D01*
X154272905Y-139493429D01*
X154225286Y-139398190D01*
X154225286Y-139302952D01*
X154463381Y-139350571D02*
X154415762Y-139255333D01*
X154320524Y-139160095D01*
X154130048Y-139112476D01*
X153796714Y-139112476D01*
X153606238Y-139160095D01*
X153511000Y-139255333D01*
X153463381Y-139350571D01*
X153463381Y-139541048D01*
X153511000Y-139636286D01*
X153606238Y-139731524D01*
X153796714Y-139779143D01*
X154130048Y-139779143D01*
X154320524Y-139731524D01*
X154415762Y-139636286D01*
X154463381Y-139541048D01*
X154463381Y-139350571D01*
X153558619Y-140160095D02*
X153511000Y-140207714D01*
X153463381Y-140302952D01*
X153463381Y-140541048D01*
X153511000Y-140636286D01*
X153558619Y-140683905D01*
X153653857Y-140731524D01*
X153749095Y-140731524D01*
X153891952Y-140683905D01*
X154463381Y-140112476D01*
X154463381Y-140731524D01*
X152058619Y-139826762D02*
X152011000Y-139731524D01*
X151915762Y-139636286D01*
X151772905Y-139493429D01*
X151725286Y-139398190D01*
X151725286Y-139302952D01*
X151963381Y-139350571D02*
X151915762Y-139255333D01*
X151820524Y-139160095D01*
X151630048Y-139112476D01*
X151296714Y-139112476D01*
X151106238Y-139160095D01*
X151011000Y-139255333D01*
X150963381Y-139350571D01*
X150963381Y-139541048D01*
X151011000Y-139636286D01*
X151106238Y-139731524D01*
X151296714Y-139779143D01*
X151630048Y-139779143D01*
X151820524Y-139731524D01*
X151915762Y-139636286D01*
X151963381Y-139541048D01*
X151963381Y-139350571D01*
X151963381Y-140731524D02*
X151963381Y-140160095D01*
X151963381Y-140445809D02*
X150963381Y-140445809D01*
X151106238Y-140350571D01*
X151201476Y-140255333D01*
X151249095Y-140160095D01*
M02*
