G04 #@! TF.FileFunction,Copper,L1,Top,Signal*
%FSLAX46Y46*%
G04 Gerber Fmt 4.6, Leading zero omitted, Abs format (unit mm)*
G04 Created by KiCad (PCBNEW 4.0.7) date 08/16/18 21:07:37*
%MOMM*%
%LPD*%
G01*
G04 APERTURE LIST*
%ADD10C,0.100000*%
%ADD11R,1.800000X1.800000*%
%ADD12C,1.800000*%
%ADD13R,1.700000X1.700000*%
%ADD14O,1.700000X1.700000*%
%ADD15R,1.600000X1.600000*%
%ADD16O,1.600000X1.600000*%
%ADD17C,2.000000*%
%ADD18C,2.500000*%
%ADD19C,0.600000*%
%ADD20C,0.300000*%
%ADD21C,0.200000*%
G04 APERTURE END LIST*
D10*
D11*
X130683000Y-85217000D03*
D12*
X133223000Y-85217000D03*
D11*
X130683000Y-76117000D03*
D12*
X133223000Y-76117000D03*
D11*
X130683000Y-67017000D03*
D12*
X133223000Y-67017000D03*
D11*
X130683000Y-57917000D03*
D12*
X133223000Y-57917000D03*
D11*
X150283000Y-57917000D03*
D12*
X152823000Y-57917000D03*
D11*
X160083000Y-57917000D03*
D12*
X162623000Y-57917000D03*
D11*
X169883000Y-57917000D03*
D12*
X172423000Y-57917000D03*
D11*
X179683000Y-57917000D03*
D12*
X182223000Y-57917000D03*
D11*
X189483000Y-57917000D03*
D12*
X192023000Y-57917000D03*
D11*
X199283000Y-57917000D03*
D12*
X201823000Y-57917000D03*
D11*
X209083000Y-57917000D03*
D12*
X211623000Y-57917000D03*
D11*
X209083000Y-76117000D03*
D12*
X211623000Y-76117000D03*
D11*
X209083000Y-85217000D03*
D12*
X211623000Y-85217000D03*
D11*
X192557000Y-85217000D03*
D12*
X195097000Y-85217000D03*
D11*
X192557000Y-73837800D03*
D12*
X195097000Y-73837800D03*
D11*
X185369000Y-73837800D03*
D12*
X187909000Y-73837800D03*
D11*
X178156000Y-73837800D03*
D12*
X180696000Y-73837800D03*
D11*
X178156000Y-83037800D03*
D12*
X180696000Y-83037800D03*
D11*
X178156000Y-120699000D03*
D12*
X180696000Y-120699000D03*
D11*
X178156000Y-129899000D03*
D12*
X180696000Y-129899000D03*
D11*
X188156000Y-129899000D03*
D12*
X190696000Y-129899000D03*
D11*
X188150000Y-146558000D03*
D12*
X190690000Y-146558000D03*
D11*
X178950000Y-146558000D03*
D12*
X181490000Y-146558000D03*
D11*
X169926000Y-146558000D03*
D12*
X172466000Y-146558000D03*
D11*
X160902000Y-146558000D03*
D12*
X163442000Y-146558000D03*
D11*
X151877000Y-129899000D03*
D12*
X154417000Y-129899000D03*
D11*
X161734000Y-129921000D03*
D12*
X164274000Y-129921000D03*
D11*
X161734000Y-120699000D03*
D12*
X164274000Y-120699000D03*
D13*
X168656000Y-93345000D03*
D14*
X171196000Y-93345000D03*
X173736000Y-93345000D03*
D15*
X167450000Y-122618000D03*
D16*
X175070000Y-130238000D03*
X167450000Y-125158000D03*
X175070000Y-127698000D03*
X167450000Y-127698000D03*
X175070000Y-125158000D03*
X167450000Y-130238000D03*
X175070000Y-122618000D03*
D11*
X140483000Y-57917000D03*
D12*
X143023000Y-57917000D03*
D11*
X209083000Y-67017000D03*
D12*
X211623000Y-67017000D03*
D11*
X178156000Y-92237800D03*
D12*
X180696000Y-92237800D03*
D11*
X151877000Y-146558000D03*
D12*
X154417000Y-146558000D03*
D11*
X161734000Y-92237800D03*
D12*
X164274000Y-92237800D03*
D11*
X161734000Y-83037800D03*
D12*
X164274000Y-83037800D03*
D11*
X161734000Y-73837800D03*
D12*
X164274000Y-73837800D03*
D11*
X154496000Y-73850500D03*
D12*
X157036000Y-73850500D03*
D11*
X147256000Y-73850500D03*
D12*
X149796000Y-73850500D03*
D11*
X147256000Y-85217000D03*
D12*
X149796000Y-85217000D03*
D17*
X183388000Y-67746000D03*
X183388000Y-63246000D03*
X189888000Y-67746000D03*
X189888000Y-63246000D03*
D18*
X171196000Y-99569000D03*
X171196000Y-119069000D03*
D10*
G36*
X153150000Y-63750000D02*
X152650000Y-64750000D01*
X152150000Y-64750000D01*
X151650000Y-63750000D01*
X153150000Y-63750000D01*
X153150000Y-63750000D01*
G37*
G36*
X155650000Y-63750000D02*
X155150000Y-64750000D01*
X154650000Y-64750000D01*
X154150000Y-63750000D01*
X155650000Y-63750000D01*
X155650000Y-63750000D01*
G37*
G36*
X158150000Y-63750000D02*
X157650000Y-64750000D01*
X157150000Y-64750000D01*
X156650000Y-63750000D01*
X158150000Y-63750000D01*
X158150000Y-63750000D01*
G37*
G36*
X160650000Y-63750000D02*
X160150000Y-64750000D01*
X159650000Y-64750000D01*
X159150000Y-63750000D01*
X160650000Y-63750000D01*
X160650000Y-63750000D01*
G37*
G36*
X163150000Y-63750000D02*
X162650000Y-64750000D01*
X162150000Y-64750000D01*
X161650000Y-63750000D01*
X163150000Y-63750000D01*
X163150000Y-63750000D01*
G37*
G36*
X161650000Y-63250000D02*
X162150000Y-62250000D01*
X162650000Y-62250000D01*
X163150000Y-63250000D01*
X161650000Y-63250000D01*
X161650000Y-63250000D01*
G37*
G36*
X159150000Y-63250000D02*
X159650000Y-62250000D01*
X160150000Y-62250000D01*
X160650000Y-63250000D01*
X159150000Y-63250000D01*
X159150000Y-63250000D01*
G37*
G36*
X156650000Y-63250000D02*
X157150000Y-62250000D01*
X157650000Y-62250000D01*
X158150000Y-63250000D01*
X156650000Y-63250000D01*
X156650000Y-63250000D01*
G37*
G36*
X154150000Y-63250000D02*
X154650000Y-62250000D01*
X155150000Y-62250000D01*
X155650000Y-63250000D01*
X154150000Y-63250000D01*
X154150000Y-63250000D01*
G37*
G36*
X151650000Y-63250000D02*
X152150000Y-62250000D01*
X152650000Y-62250000D01*
X153150000Y-63250000D01*
X151650000Y-63250000D01*
X151650000Y-63250000D01*
G37*
D13*
X152400000Y-67310000D03*
D14*
X154940000Y-67310000D03*
X157480000Y-67310000D03*
X160020000Y-67310000D03*
X162560000Y-67310000D03*
D13*
X170180000Y-64770000D03*
D14*
X172720000Y-64770000D03*
D15*
X198298000Y-69215000D03*
D16*
X205918000Y-86995000D03*
X198298000Y-71755000D03*
X205918000Y-84455000D03*
X198298000Y-74295000D03*
X205918000Y-81915000D03*
X198298000Y-76835000D03*
X205918000Y-79375000D03*
X198298000Y-79375000D03*
X205918000Y-76835000D03*
X198298000Y-81915000D03*
X205918000Y-74295000D03*
X198298000Y-84455000D03*
X205918000Y-71755000D03*
X198298000Y-86995000D03*
X205918000Y-69215000D03*
D15*
X167373000Y-69215000D03*
D16*
X174993000Y-86995000D03*
X167373000Y-71755000D03*
X174993000Y-84455000D03*
X167373000Y-74295000D03*
X174993000Y-81915000D03*
X167373000Y-76835000D03*
X174993000Y-79375000D03*
X167373000Y-79375000D03*
X174993000Y-76835000D03*
X167373000Y-81915000D03*
X174993000Y-74295000D03*
X167373000Y-84455000D03*
X174993000Y-71755000D03*
X167373000Y-86995000D03*
X174993000Y-69215000D03*
D15*
X136449000Y-69215000D03*
D16*
X144069000Y-86995000D03*
X136449000Y-71755000D03*
X144069000Y-84455000D03*
X136449000Y-74295000D03*
X144069000Y-81915000D03*
X136449000Y-76835000D03*
X144069000Y-79375000D03*
X136449000Y-79375000D03*
X144069000Y-76835000D03*
X136449000Y-81915000D03*
X144069000Y-74295000D03*
X136449000Y-84455000D03*
X144069000Y-71755000D03*
X136449000Y-86995000D03*
X144069000Y-69215000D03*
D15*
X173418000Y-142002000D03*
D16*
X191198000Y-134382000D03*
X175958000Y-142002000D03*
X188658000Y-134382000D03*
X178498000Y-142002000D03*
X186118000Y-134382000D03*
X181038000Y-142002000D03*
X183578000Y-134382000D03*
X183578000Y-142002000D03*
X181038000Y-134382000D03*
X186118000Y-142002000D03*
X178498000Y-134382000D03*
X188658000Y-142002000D03*
X175958000Y-134382000D03*
X191198000Y-142002000D03*
X173418000Y-134382000D03*
D15*
X151511000Y-141922000D03*
D16*
X169291000Y-134302000D03*
X154051000Y-141922000D03*
X166751000Y-134302000D03*
X156591000Y-141922000D03*
X164211000Y-134302000D03*
X159131000Y-141922000D03*
X161671000Y-134302000D03*
X161671000Y-141922000D03*
X159131000Y-134302000D03*
X164211000Y-141922000D03*
X156591000Y-134302000D03*
X166751000Y-141922000D03*
X154051000Y-134302000D03*
X169291000Y-141922000D03*
X151511000Y-134302000D03*
D19*
X167046200Y-103734400D03*
X179525400Y-91085000D03*
X172086000Y-82953700D03*
X176016900Y-131240800D03*
X181889800Y-81916600D03*
X168681300Y-73148100D03*
X179407000Y-136363700D03*
X159139400Y-137125900D03*
X158786200Y-127586800D03*
X159556300Y-75783400D03*
X171585000Y-90001000D03*
X182454900Y-85741900D03*
X155484800Y-69172700D03*
X169460300Y-91405700D03*
X166858500Y-91485500D03*
D20*
X133223000Y-83619300D02*
X133223000Y-85217000D01*
X136197300Y-80645000D02*
X133223000Y-83619300D01*
X136676500Y-80645000D02*
X136197300Y-80645000D01*
X142969000Y-74352500D02*
X136676500Y-80645000D01*
X142969000Y-73817400D02*
X142969000Y-74352500D01*
X143931400Y-72855000D02*
X142969000Y-73817400D01*
X144069000Y-72855000D02*
X143931400Y-72855000D01*
X144069000Y-71755000D02*
X144069000Y-72855000D01*
X135349000Y-60043000D02*
X133223000Y-57917000D01*
X135349000Y-72232600D02*
X135349000Y-60043000D01*
X136311400Y-73195000D02*
X135349000Y-72232600D01*
X136449000Y-73195000D02*
X136311400Y-73195000D01*
X136449000Y-74295000D02*
X136449000Y-73195000D01*
X136563000Y-75735000D02*
X136449000Y-75735000D01*
X137549000Y-74749000D02*
X136563000Y-75735000D01*
X137549000Y-63391000D02*
X137549000Y-74749000D01*
X143023000Y-57917000D02*
X137549000Y-63391000D01*
X136449000Y-76835000D02*
X136449000Y-75735000D01*
X141338700Y-69401300D02*
X152823000Y-57917000D01*
X141338700Y-73522800D02*
X141338700Y-69401300D01*
X136586500Y-78275000D02*
X141338700Y-73522800D01*
X136449000Y-78275000D02*
X136586500Y-78275000D01*
X136449000Y-79375000D02*
X136449000Y-78275000D01*
X160769900Y-59770100D02*
X162623000Y-57917000D01*
X152004900Y-59770100D02*
X160769900Y-59770100D01*
X143018500Y-68756500D02*
X152004900Y-59770100D01*
X143018500Y-69686800D02*
X143018500Y-68756500D01*
X143816700Y-70485000D02*
X143018500Y-69686800D01*
X144295600Y-70485000D02*
X143816700Y-70485000D01*
X145119400Y-71308800D02*
X144295600Y-70485000D01*
X145119400Y-74745900D02*
X145119400Y-71308800D01*
X144300300Y-75565000D02*
X145119400Y-74745900D01*
X143761500Y-75565000D02*
X144300300Y-75565000D01*
X137549000Y-81777500D02*
X143761500Y-75565000D01*
X137549000Y-81915000D02*
X137549000Y-81777500D01*
X136449000Y-81915000D02*
X137549000Y-81915000D01*
X192023000Y-61840000D02*
X192023000Y-57917000D01*
X198298000Y-68115000D02*
X192023000Y-61840000D01*
X198298000Y-69215000D02*
X198298000Y-68115000D01*
X201823000Y-67680000D02*
X201823000Y-57917000D01*
X198848000Y-70655000D02*
X201823000Y-67680000D01*
X198298000Y-70655000D02*
X198848000Y-70655000D01*
X198298000Y-71755000D02*
X198298000Y-70655000D01*
X211623000Y-60007500D02*
X211623000Y-57917000D01*
X198435500Y-73195000D02*
X211623000Y-60007500D01*
X198298000Y-73195000D02*
X198435500Y-73195000D01*
X198298000Y-74295000D02*
X198298000Y-73195000D01*
X208155000Y-70485000D02*
X211623000Y-67017000D01*
X205610500Y-70485000D02*
X208155000Y-70485000D01*
X199398000Y-76697500D02*
X205610500Y-70485000D01*
X199398000Y-76835000D02*
X199398000Y-76697500D01*
X198298000Y-76835000D02*
X199398000Y-76835000D01*
X167373000Y-79375000D02*
X167373000Y-80475000D01*
X167259000Y-80475000D02*
X167373000Y-80475000D01*
X166276200Y-81457800D02*
X167259000Y-80475000D01*
X166276200Y-102964400D02*
X166276200Y-81457800D01*
X167046200Y-103734400D02*
X166276200Y-102964400D01*
X179525400Y-128728400D02*
X180696000Y-129899000D01*
X179525400Y-91085000D02*
X179525400Y-128728400D01*
X187529700Y-143397700D02*
X190690000Y-146558000D01*
X187529700Y-141907900D02*
X187529700Y-143397700D01*
X185991900Y-140370100D02*
X187529700Y-141907900D01*
X181946100Y-140370100D02*
X185991900Y-140370100D01*
X175958000Y-134382000D02*
X181946100Y-140370100D01*
X177318400Y-142386400D02*
X181490000Y-146558000D01*
X177318400Y-141840300D02*
X177318400Y-142386400D01*
X176414700Y-140936600D02*
X177318400Y-141840300D01*
X175450100Y-140936600D02*
X176414700Y-140936600D01*
X174518000Y-141868700D02*
X175450100Y-140936600D01*
X174518000Y-142002000D02*
X174518000Y-141868700D01*
X173418000Y-142002000D02*
X174518000Y-142002000D01*
X175922000Y-143102000D02*
X172466000Y-146558000D01*
X175958000Y-143102000D02*
X175922000Y-143102000D01*
X175958000Y-142002000D02*
X175958000Y-143102000D01*
X163148500Y-131046500D02*
X164274000Y-129921000D01*
X163148500Y-134740000D02*
X163148500Y-131046500D01*
X165364100Y-136955600D02*
X163148500Y-134740000D01*
X174506000Y-136955600D02*
X165364100Y-136955600D01*
X178479900Y-140929500D02*
X174506000Y-136955600D01*
X184079700Y-140929500D02*
X178479900Y-140929500D01*
X185018000Y-141867800D02*
X184079700Y-140929500D01*
X185018000Y-142002000D02*
X185018000Y-141867800D01*
X186118000Y-142002000D02*
X185018000Y-142002000D01*
X200932000Y-78029000D02*
X204818000Y-81915000D01*
X197942800Y-78029000D02*
X200932000Y-78029000D01*
X196861000Y-76947200D02*
X197942800Y-78029000D01*
X196861000Y-73960500D02*
X196861000Y-76947200D01*
X195170300Y-72269800D02*
X196861000Y-73960500D01*
X176587900Y-72269800D02*
X195170300Y-72269800D01*
X175613100Y-73244600D02*
X176587900Y-72269800D01*
X174508600Y-73244600D02*
X175613100Y-73244600D01*
X173938600Y-73814600D02*
X174508600Y-73244600D01*
X173938600Y-79886700D02*
X173938600Y-73814600D01*
X174866900Y-80815000D02*
X173938600Y-79886700D01*
X174993000Y-80815000D02*
X174866900Y-80815000D01*
X205918000Y-81915000D02*
X204818000Y-81915000D01*
X174993000Y-81365000D02*
X174993000Y-80815000D01*
X174993000Y-81915000D02*
X174993000Y-81365000D01*
X154900000Y-66120000D02*
X154940000Y-66160000D01*
X154900000Y-64250000D02*
X154900000Y-66120000D01*
X154940000Y-67310000D02*
X154940000Y-66160000D01*
X164211000Y-134302000D02*
X165311000Y-134302000D01*
X174993000Y-81915000D02*
X174993000Y-83015000D01*
X172869700Y-82953700D02*
X173893100Y-83977100D01*
X172086000Y-82953700D02*
X172869700Y-82953700D01*
X174855200Y-83015000D02*
X174993000Y-83015000D01*
X173893100Y-83977100D02*
X174855200Y-83015000D01*
X175857400Y-131400300D02*
X176016900Y-131240800D01*
X168075200Y-131400300D02*
X175857400Y-131400300D01*
X165311000Y-134164500D02*
X168075200Y-131400300D01*
X165311000Y-134302000D02*
X165311000Y-134164500D01*
X173893100Y-91530600D02*
X173893100Y-83977100D01*
X176120400Y-93757900D02*
X173893100Y-91530600D01*
X176120400Y-131137300D02*
X176120400Y-93757900D01*
X176016900Y-131240800D02*
X176120400Y-131137300D01*
X159900000Y-66040000D02*
X159900000Y-64250000D01*
X160020000Y-66160000D02*
X159900000Y-66040000D01*
X160020000Y-67310000D02*
X160020000Y-66160000D01*
X181889800Y-131593800D02*
X183578000Y-133282000D01*
X181889800Y-81916600D02*
X181889800Y-131593800D01*
X183578000Y-134382000D02*
X183578000Y-133282000D01*
X168681300Y-71565600D02*
X168681300Y-73148100D01*
X167459000Y-70343300D02*
X168681300Y-71565600D01*
X166527700Y-70343300D02*
X167459000Y-70343300D01*
X163710000Y-67525600D02*
X166527700Y-70343300D01*
X163710000Y-67310000D02*
X163710000Y-67525600D01*
X162560000Y-67310000D02*
X163710000Y-67310000D01*
X162560000Y-64410000D02*
X162560000Y-67310000D01*
X162400000Y-64250000D02*
X162560000Y-64410000D01*
X181038000Y-134382000D02*
X180488000Y-134382000D01*
X179407000Y-135463000D02*
X179407000Y-136363700D01*
X180488000Y-134382000D02*
X179407000Y-135463000D01*
X159131000Y-137117500D02*
X159131000Y-134302000D01*
X159139400Y-137125900D02*
X159131000Y-137117500D01*
X174993000Y-76835000D02*
X174993000Y-77935000D01*
X175130500Y-77935000D02*
X174993000Y-77935000D01*
X176967500Y-79772000D02*
X175130500Y-77935000D01*
X176967500Y-130875500D02*
X176967500Y-79772000D01*
X180474000Y-134382000D02*
X176967500Y-130875500D01*
X180488000Y-134382000D02*
X180474000Y-134382000D01*
X144069000Y-69215000D02*
X145169000Y-69215000D01*
X145169000Y-68862900D02*
X145169000Y-69215000D01*
X152034600Y-61997300D02*
X145169000Y-68862900D01*
X156647300Y-61997300D02*
X152034600Y-61997300D01*
X157400000Y-62750000D02*
X156647300Y-61997300D01*
X168656000Y-93345000D02*
X168656000Y-92195000D01*
X169518500Y-92195000D02*
X168656000Y-92195000D01*
X170016100Y-91697400D02*
X169518500Y-92195000D01*
X170016100Y-65870400D02*
X170016100Y-91697400D01*
X171152200Y-65870400D02*
X170016100Y-65870400D01*
X171308400Y-65714200D02*
X171152200Y-65870400D01*
X171308400Y-64614700D02*
X171308400Y-65714200D01*
X172253500Y-63669600D02*
X171308400Y-64614700D01*
X173185100Y-63669600D02*
X172253500Y-63669600D01*
X174993000Y-65477500D02*
X173185100Y-63669600D01*
X174993000Y-69215000D02*
X174993000Y-65477500D01*
X158187700Y-61962300D02*
X157400000Y-62750000D01*
X163167100Y-61962300D02*
X158187700Y-61962300D01*
X167075200Y-65870400D02*
X163167100Y-61962300D01*
X170016100Y-65870400D02*
X167075200Y-65870400D01*
X168871600Y-94495000D02*
X168656000Y-94495000D01*
X175070000Y-100693400D02*
X168871600Y-94495000D01*
X175070000Y-122618000D02*
X175070000Y-100693400D01*
X168656000Y-93345000D02*
X168656000Y-94495000D01*
X204818000Y-86881000D02*
X204818000Y-86995000D01*
X198395800Y-80458800D02*
X204818000Y-86881000D01*
X197896000Y-80458800D02*
X198395800Y-80458800D01*
X193827000Y-76389800D02*
X197896000Y-80458800D01*
X193827000Y-72945100D02*
X193827000Y-76389800D01*
X193569300Y-72687400D02*
X193827000Y-72945100D01*
X177098100Y-72687400D02*
X193569300Y-72687400D01*
X176093000Y-73692500D02*
X177098100Y-72687400D01*
X176093000Y-74295000D02*
X176093000Y-73692500D01*
X174993000Y-74295000D02*
X176093000Y-74295000D01*
X205918000Y-86995000D02*
X204818000Y-86995000D01*
X178498000Y-134382000D02*
X178498000Y-133282000D01*
X174993000Y-86995000D02*
X174993000Y-88095000D01*
X176567200Y-89669200D02*
X174993000Y-88095000D01*
X176567200Y-131351200D02*
X176567200Y-89669200D01*
X178498000Y-133282000D02*
X176567200Y-131351200D01*
X154051000Y-132322000D02*
X158786200Y-127586800D01*
X154051000Y-134302000D02*
X154051000Y-132322000D01*
X162884400Y-84427400D02*
X164274000Y-83037800D01*
X162884400Y-126616600D02*
X162884400Y-84427400D01*
X160181400Y-129319600D02*
X162884400Y-126616600D01*
X160181400Y-142382100D02*
X160181400Y-129319600D01*
X159109700Y-143453800D02*
X160181400Y-142382100D01*
X153042800Y-143453800D02*
X159109700Y-143453800D01*
X151511000Y-141922000D02*
X153042800Y-143453800D01*
X160176700Y-76403800D02*
X159556300Y-75783400D01*
X160176700Y-127523600D02*
X160176700Y-76403800D01*
X155151000Y-132549300D02*
X160176700Y-127523600D01*
X155151000Y-139722000D02*
X155151000Y-132549300D01*
X154051000Y-140822000D02*
X155151000Y-139722000D01*
X154051000Y-141922000D02*
X154051000Y-140822000D01*
X156591000Y-141922000D02*
X155491000Y-141922000D01*
X155491000Y-142059500D02*
X155491000Y-141922000D01*
X154515500Y-143035000D02*
X155491000Y-142059500D01*
X153572300Y-143035000D02*
X154515500Y-143035000D01*
X152948700Y-142411400D02*
X153572300Y-143035000D01*
X152948700Y-132427700D02*
X152948700Y-142411400D01*
X153027400Y-132349000D02*
X152948700Y-132427700D01*
X153027400Y-129625900D02*
X153027400Y-132349000D01*
X155895600Y-126757700D02*
X153027400Y-129625900D01*
X159647800Y-126757700D02*
X155895600Y-126757700D01*
X159776300Y-126629200D02*
X159647800Y-126757700D01*
X159776300Y-76781500D02*
X159776300Y-126629200D01*
X157036000Y-74041200D02*
X159776300Y-76781500D01*
X157036000Y-73850500D02*
X157036000Y-74041200D01*
X150946400Y-72700100D02*
X149796000Y-73850500D01*
X157574600Y-72700100D02*
X150946400Y-72700100D01*
X160583600Y-75709100D02*
X157574600Y-72700100D01*
X160583600Y-128010900D02*
X160583600Y-75709100D01*
X158067400Y-130527100D02*
X160583600Y-128010900D01*
X158067400Y-139758400D02*
X158067400Y-130527100D01*
X159131000Y-140822000D02*
X158067400Y-139758400D01*
X159131000Y-141922000D02*
X159131000Y-140822000D01*
X171196000Y-93345000D02*
X171196000Y-92195000D01*
X172720000Y-64770000D02*
X172720000Y-65920000D01*
X171034700Y-92033700D02*
X171196000Y-92195000D01*
X171034700Y-67605300D02*
X171034700Y-92033700D01*
X172720000Y-65920000D02*
X171034700Y-67605300D01*
X171535700Y-89951700D02*
X171585000Y-90001000D01*
X171535700Y-75622200D02*
X171535700Y-89951700D01*
X174352500Y-72805400D02*
X171535700Y-75622200D01*
X175486000Y-72805400D02*
X174352500Y-72805400D01*
X180545400Y-67746000D02*
X175486000Y-72805400D01*
X183388000Y-67746000D02*
X180545400Y-67746000D01*
X170180000Y-64770000D02*
X170180000Y-63620000D01*
X154496000Y-73850500D02*
X153296000Y-73850500D01*
X147256000Y-73850500D02*
X147256000Y-75011700D01*
X147256000Y-75011700D02*
X147256000Y-85217000D01*
X130683000Y-57917000D02*
X130683000Y-67017000D01*
X178156000Y-92237800D02*
X178156000Y-91037800D01*
X130683000Y-67017000D02*
X130683000Y-76117000D01*
X130683000Y-76117000D02*
X130683000Y-85217000D01*
X169926000Y-146558000D02*
X169926000Y-145358000D01*
X178156000Y-120699000D02*
X178156000Y-129899000D01*
X178156000Y-93437800D02*
X178156000Y-119499000D01*
X178156000Y-92237800D02*
X178156000Y-93437800D01*
X178156000Y-120699000D02*
X178156000Y-119499000D01*
X152134800Y-75011700D02*
X147256000Y-75011700D01*
X153296000Y-73850500D02*
X152134800Y-75011700D01*
X169883000Y-57917000D02*
X169883000Y-59117000D01*
X179683000Y-57917000D02*
X178483000Y-57917000D01*
X176986000Y-59414000D02*
X178483000Y-57917000D01*
X170180000Y-59414000D02*
X176986000Y-59414000D01*
X169883000Y-59117000D02*
X170180000Y-59414000D01*
X170180000Y-59414000D02*
X170180000Y-63620000D01*
X183388000Y-62822000D02*
X179683000Y-59117000D01*
X183388000Y-63246000D02*
X183388000Y-62822000D01*
X179683000Y-57917000D02*
X179683000Y-59117000D01*
X178156000Y-83636000D02*
X178156000Y-84237800D01*
X196926800Y-56760800D02*
X198083000Y-57917000D01*
X191550000Y-56760800D02*
X196926800Y-56760800D01*
X190683000Y-57627800D02*
X191550000Y-56760800D01*
X190683000Y-57917000D02*
X190683000Y-57627800D01*
X189483000Y-57917000D02*
X190683000Y-57917000D01*
X199283000Y-57917000D02*
X198083000Y-57917000D01*
X209083000Y-76117000D02*
X209083000Y-85217000D01*
X145378000Y-85895000D02*
X146056000Y-85217000D01*
X138649000Y-85895000D02*
X145378000Y-85895000D01*
X137549000Y-86995000D02*
X138649000Y-85895000D01*
X136449000Y-86995000D02*
X137549000Y-86995000D01*
X147256000Y-85217000D02*
X146056000Y-85217000D01*
X161734000Y-81837800D02*
X161734000Y-75037800D01*
X161734000Y-83037800D02*
X161734000Y-81837800D01*
X161734000Y-73837800D02*
X161734000Y-75037800D01*
X185369000Y-73837800D02*
X184169000Y-73837800D01*
X178156000Y-73837800D02*
X179356000Y-73837800D01*
X183010200Y-74996600D02*
X180225000Y-74996600D01*
X184169000Y-73837800D02*
X183010200Y-74996600D01*
X179356000Y-74127600D02*
X179356000Y-73837800D01*
X180225000Y-74996600D02*
X179356000Y-74127600D01*
X178156000Y-83636000D02*
X178156000Y-83037800D01*
X180225000Y-79768800D02*
X180225000Y-74996600D01*
X178156000Y-81837800D02*
X180225000Y-79768800D01*
X178156000Y-83037800D02*
X178156000Y-81837800D01*
X190098000Y-133041000D02*
X188156000Y-131099000D01*
X190098000Y-139802000D02*
X190098000Y-133041000D01*
X191198000Y-140902000D02*
X190098000Y-139802000D01*
X191198000Y-142002000D02*
X191198000Y-140902000D01*
X188156000Y-129899000D02*
X188156000Y-131099000D01*
X178156000Y-84237800D02*
X178156000Y-91037800D01*
X192557000Y-85217000D02*
X192557000Y-73837800D01*
X160902000Y-146558000D02*
X162102000Y-146558000D01*
X169309500Y-144741500D02*
X169291000Y-144741500D01*
X169926000Y-145358000D02*
X169309500Y-144741500D01*
X162102000Y-146258000D02*
X162102000Y-146558000D01*
X163618500Y-144741500D02*
X162102000Y-146258000D01*
X169291000Y-144741500D02*
X163618500Y-144741500D01*
X161734000Y-129921000D02*
X161734000Y-131121000D01*
X169291000Y-141922000D02*
X169291000Y-144741500D01*
X162748100Y-132135100D02*
X161734000Y-131121000D01*
X162748100Y-134966600D02*
X162748100Y-132135100D01*
X168603500Y-140822000D02*
X162748100Y-134966600D01*
X169291000Y-140822000D02*
X168603500Y-140822000D01*
X169291000Y-141922000D02*
X169291000Y-140822000D01*
X152400000Y-67310000D02*
X152400000Y-64250000D01*
X157400000Y-66080000D02*
X157400000Y-64250000D01*
X157480000Y-66160000D02*
X157400000Y-66080000D01*
X157480000Y-67310000D02*
X157480000Y-66160000D01*
X188658000Y-134382000D02*
X187603600Y-134382000D01*
X166751000Y-134302000D02*
X167851000Y-134302000D01*
X182454900Y-130055000D02*
X185687600Y-133287700D01*
X182454900Y-85741900D02*
X182454900Y-130055000D01*
X184935800Y-134039500D02*
X185687600Y-133287700D01*
X184935800Y-134543400D02*
X184935800Y-134039500D01*
X182550800Y-136928400D02*
X184935800Y-134543400D01*
X179114500Y-136928400D02*
X182550800Y-136928400D01*
X177228000Y-135041900D02*
X179114500Y-136928400D01*
X177228000Y-134099800D02*
X177228000Y-135041900D01*
X176379900Y-133251700D02*
X177228000Y-134099800D01*
X168801900Y-133251700D02*
X176379900Y-133251700D01*
X167851000Y-134202600D02*
X168801900Y-133251700D01*
X167851000Y-134302000D02*
X167851000Y-134202600D01*
X186509300Y-133287700D02*
X187603600Y-134382000D01*
X185687600Y-133287700D02*
X186509300Y-133287700D01*
X144183000Y-83355000D02*
X144069000Y-83355000D01*
X145558600Y-81979400D02*
X144183000Y-83355000D01*
X145558600Y-73331800D02*
X145558600Y-81979400D01*
X149717700Y-69172700D02*
X145558600Y-73331800D01*
X155484800Y-69172700D02*
X149717700Y-69172700D01*
X144069000Y-84455000D02*
X144069000Y-83355000D01*
X167450000Y-125158000D02*
X167450000Y-124058000D01*
X166676600Y-91667400D02*
X166858500Y-91485500D01*
X166676600Y-100702400D02*
X166676600Y-91667400D01*
X168500300Y-102526100D02*
X166676600Y-100702400D01*
X168500300Y-123532500D02*
X168500300Y-102526100D01*
X167974800Y-124058000D02*
X168500300Y-123532500D01*
X167450000Y-124058000D02*
X167974800Y-124058000D01*
X169460300Y-69314700D02*
X169460300Y-91405700D01*
X162895600Y-62750000D02*
X169460300Y-69314700D01*
X162400000Y-62750000D02*
X162895600Y-62750000D01*
X161120400Y-64050000D02*
X161120400Y-63470400D01*
X160400000Y-62750000D02*
X159900000Y-62750000D01*
X161120400Y-63470400D02*
X160400000Y-62750000D01*
X175070000Y-125158000D02*
X175070000Y-124058000D01*
X174959800Y-124058000D02*
X175070000Y-124058000D01*
X172777700Y-121875900D02*
X174959800Y-124058000D01*
X172777700Y-99027500D02*
X172777700Y-121875900D01*
X170393900Y-96643700D02*
X172777700Y-99027500D01*
X169829400Y-96643700D02*
X170393900Y-96643700D01*
X167538300Y-94352600D02*
X169829400Y-96643700D01*
X167538300Y-92150100D02*
X167538300Y-94352600D01*
X168864200Y-90824200D02*
X167538300Y-92150100D01*
X168864200Y-74263300D02*
X168864200Y-90824200D01*
X167643000Y-73042100D02*
X168864200Y-74263300D01*
X166679300Y-73042100D02*
X167643000Y-73042100D01*
X161120400Y-67483200D02*
X166679300Y-73042100D01*
X161120400Y-64050000D02*
X161120400Y-67483200D01*
X159900000Y-62750000D02*
X160031600Y-62750000D01*
X156210000Y-64050000D02*
X156210000Y-63560000D01*
X155400000Y-62750000D02*
X154900000Y-62750000D01*
X156210000Y-63560000D02*
X155400000Y-62750000D01*
X174956000Y-126598000D02*
X175070000Y-126598000D01*
X169570600Y-121212600D02*
X174956000Y-126598000D01*
X169570600Y-99495500D02*
X169570600Y-121212600D01*
X167095700Y-97020600D02*
X169570600Y-99495500D01*
X167095700Y-92026700D02*
X167095700Y-97020600D01*
X167408900Y-91713500D02*
X167095700Y-92026700D01*
X167408900Y-88522300D02*
X167408900Y-91713500D01*
X168462500Y-87468700D02*
X167408900Y-88522300D01*
X168462500Y-76404500D02*
X168462500Y-87468700D01*
X167623000Y-75565000D02*
X168462500Y-76404500D01*
X167142600Y-75565000D02*
X167623000Y-75565000D01*
X166092200Y-74514600D02*
X167142600Y-75565000D01*
X166092200Y-74016500D02*
X166092200Y-74514600D01*
X161812100Y-69736400D02*
X166092200Y-74016500D01*
X158273500Y-69736400D02*
X161812100Y-69736400D01*
X156210000Y-67672900D02*
X158273500Y-69736400D01*
X156210000Y-64050000D02*
X156210000Y-67672900D01*
X154900000Y-62750000D02*
X155004000Y-62750000D01*
X175070000Y-127698000D02*
X175070000Y-126598000D01*
X153528400Y-64050000D02*
X153528400Y-63428400D01*
X153528400Y-63428400D02*
X152850000Y-62750000D01*
X152850000Y-62750000D02*
X152400000Y-62750000D01*
X175070000Y-130238000D02*
X173970000Y-130238000D01*
X152510900Y-62750000D02*
X152400000Y-62750000D01*
X153528400Y-67508000D02*
X153528400Y-64050000D01*
X154642800Y-68622400D02*
X153528400Y-67508000D01*
X155712700Y-68622400D02*
X154642800Y-68622400D01*
X159105800Y-72015500D02*
X155712700Y-68622400D01*
X162093000Y-72015500D02*
X159105800Y-72015500D01*
X162884400Y-72806900D02*
X162093000Y-72015500D01*
X162884400Y-76063700D02*
X162884400Y-72806900D01*
X165849200Y-79028500D02*
X162884400Y-76063700D01*
X165849200Y-125047100D02*
X165849200Y-79028500D01*
X167230100Y-126428000D02*
X165849200Y-125047100D01*
X170160000Y-126428000D02*
X167230100Y-126428000D01*
X173970000Y-130238000D02*
X170160000Y-126428000D01*
D21*
G36*
X163257489Y-143563310D02*
X163171803Y-143580354D01*
X163140146Y-143586651D01*
X162734617Y-143857616D01*
X162013046Y-144579188D01*
X161802000Y-144536450D01*
X160002000Y-144536450D01*
X159594364Y-144613152D01*
X159219976Y-144854064D01*
X158968812Y-145221654D01*
X158880450Y-145658000D01*
X158880450Y-147458000D01*
X158957152Y-147865636D01*
X159198064Y-148240024D01*
X159565654Y-148491188D01*
X160002000Y-148579550D01*
X161802000Y-148579550D01*
X162209636Y-148502848D01*
X162484499Y-148325979D01*
X163042430Y-148557652D01*
X163838079Y-148558346D01*
X164573429Y-148254506D01*
X165136529Y-147692388D01*
X165441652Y-146957570D01*
X165442346Y-146161921D01*
X165371930Y-145991500D01*
X167904450Y-145991500D01*
X167904450Y-147458000D01*
X167981152Y-147865636D01*
X168222064Y-148240024D01*
X168589654Y-148491188D01*
X169026000Y-148579550D01*
X170826000Y-148579550D01*
X171233636Y-148502848D01*
X171508499Y-148325979D01*
X172066430Y-148557652D01*
X172862079Y-148558346D01*
X173597429Y-148254506D01*
X174160529Y-147692388D01*
X174465652Y-146957570D01*
X174466203Y-146325563D01*
X176733394Y-144058373D01*
X176841883Y-143985883D01*
X176965344Y-143801110D01*
X177756003Y-144591769D01*
X177642364Y-144613152D01*
X177267976Y-144854064D01*
X177016812Y-145221654D01*
X176928450Y-145658000D01*
X176928450Y-147458000D01*
X177005152Y-147865636D01*
X177246064Y-148240024D01*
X177613654Y-148491188D01*
X178050000Y-148579550D01*
X179850000Y-148579550D01*
X180257636Y-148502848D01*
X180532499Y-148325979D01*
X181090430Y-148557652D01*
X181886079Y-148558346D01*
X182621429Y-148254506D01*
X183184529Y-147692388D01*
X183489652Y-146957570D01*
X183490346Y-146161921D01*
X183186506Y-145426571D01*
X182624388Y-144863471D01*
X181889570Y-144558348D01*
X181257563Y-144557797D01*
X180539914Y-143840148D01*
X181038000Y-143939223D01*
X181765099Y-143794594D01*
X182308000Y-143431839D01*
X182850901Y-143794594D01*
X183578000Y-143939223D01*
X184305099Y-143794594D01*
X184848000Y-143431839D01*
X185390901Y-143794594D01*
X186118000Y-143939223D01*
X186381975Y-143886715D01*
X186645817Y-144281583D01*
X186956003Y-144591769D01*
X186842364Y-144613152D01*
X186467976Y-144854064D01*
X186216812Y-145221654D01*
X186128450Y-145658000D01*
X186128450Y-147458000D01*
X186205152Y-147865636D01*
X186446064Y-148240024D01*
X186813654Y-148491188D01*
X187250000Y-148579550D01*
X189050000Y-148579550D01*
X189457636Y-148502848D01*
X189732499Y-148325979D01*
X190290430Y-148557652D01*
X191086079Y-148558346D01*
X191821429Y-148254506D01*
X191865000Y-148211011D01*
X191865000Y-148728271D01*
X191836501Y-148871547D01*
X191820897Y-148894899D01*
X191797548Y-148910500D01*
X191654271Y-148939000D01*
X151245730Y-148939000D01*
X151005250Y-148891165D01*
X150899497Y-148820503D01*
X150828835Y-148714750D01*
X150794594Y-148542612D01*
X150977000Y-148579550D01*
X152777000Y-148579550D01*
X153184636Y-148502848D01*
X153459499Y-148325979D01*
X154017430Y-148557652D01*
X154813079Y-148558346D01*
X155548429Y-148254506D01*
X156111529Y-147692388D01*
X156416652Y-146957570D01*
X156417346Y-146161921D01*
X156113506Y-145426571D01*
X155551388Y-144863471D01*
X155166857Y-144703800D01*
X159109700Y-144703800D01*
X159588054Y-144608649D01*
X159993583Y-144337683D01*
X160747742Y-143583525D01*
X160943901Y-143714594D01*
X161671000Y-143859223D01*
X162398099Y-143714594D01*
X162941000Y-143351839D01*
X163257489Y-143563310D01*
X163257489Y-143563310D01*
G37*
X163257489Y-143563310D02*
X163171803Y-143580354D01*
X163140146Y-143586651D01*
X162734617Y-143857616D01*
X162013046Y-144579188D01*
X161802000Y-144536450D01*
X160002000Y-144536450D01*
X159594364Y-144613152D01*
X159219976Y-144854064D01*
X158968812Y-145221654D01*
X158880450Y-145658000D01*
X158880450Y-147458000D01*
X158957152Y-147865636D01*
X159198064Y-148240024D01*
X159565654Y-148491188D01*
X160002000Y-148579550D01*
X161802000Y-148579550D01*
X162209636Y-148502848D01*
X162484499Y-148325979D01*
X163042430Y-148557652D01*
X163838079Y-148558346D01*
X164573429Y-148254506D01*
X165136529Y-147692388D01*
X165441652Y-146957570D01*
X165442346Y-146161921D01*
X165371930Y-145991500D01*
X167904450Y-145991500D01*
X167904450Y-147458000D01*
X167981152Y-147865636D01*
X168222064Y-148240024D01*
X168589654Y-148491188D01*
X169026000Y-148579550D01*
X170826000Y-148579550D01*
X171233636Y-148502848D01*
X171508499Y-148325979D01*
X172066430Y-148557652D01*
X172862079Y-148558346D01*
X173597429Y-148254506D01*
X174160529Y-147692388D01*
X174465652Y-146957570D01*
X174466203Y-146325563D01*
X176733394Y-144058373D01*
X176841883Y-143985883D01*
X176965344Y-143801110D01*
X177756003Y-144591769D01*
X177642364Y-144613152D01*
X177267976Y-144854064D01*
X177016812Y-145221654D01*
X176928450Y-145658000D01*
X176928450Y-147458000D01*
X177005152Y-147865636D01*
X177246064Y-148240024D01*
X177613654Y-148491188D01*
X178050000Y-148579550D01*
X179850000Y-148579550D01*
X180257636Y-148502848D01*
X180532499Y-148325979D01*
X181090430Y-148557652D01*
X181886079Y-148558346D01*
X182621429Y-148254506D01*
X183184529Y-147692388D01*
X183489652Y-146957570D01*
X183490346Y-146161921D01*
X183186506Y-145426571D01*
X182624388Y-144863471D01*
X181889570Y-144558348D01*
X181257563Y-144557797D01*
X180539914Y-143840148D01*
X181038000Y-143939223D01*
X181765099Y-143794594D01*
X182308000Y-143431839D01*
X182850901Y-143794594D01*
X183578000Y-143939223D01*
X184305099Y-143794594D01*
X184848000Y-143431839D01*
X185390901Y-143794594D01*
X186118000Y-143939223D01*
X186381975Y-143886715D01*
X186645817Y-144281583D01*
X186956003Y-144591769D01*
X186842364Y-144613152D01*
X186467976Y-144854064D01*
X186216812Y-145221654D01*
X186128450Y-145658000D01*
X186128450Y-147458000D01*
X186205152Y-147865636D01*
X186446064Y-148240024D01*
X186813654Y-148491188D01*
X187250000Y-148579550D01*
X189050000Y-148579550D01*
X189457636Y-148502848D01*
X189732499Y-148325979D01*
X190290430Y-148557652D01*
X191086079Y-148558346D01*
X191821429Y-148254506D01*
X191865000Y-148211011D01*
X191865000Y-148728271D01*
X191836501Y-148871547D01*
X191820897Y-148894899D01*
X191797548Y-148910500D01*
X191654271Y-148939000D01*
X151245730Y-148939000D01*
X151005250Y-148891165D01*
X150899497Y-148820503D01*
X150828835Y-148714750D01*
X150794594Y-148542612D01*
X150977000Y-148579550D01*
X152777000Y-148579550D01*
X153184636Y-148502848D01*
X153459499Y-148325979D01*
X154017430Y-148557652D01*
X154813079Y-148558346D01*
X155548429Y-148254506D01*
X156111529Y-147692388D01*
X156416652Y-146957570D01*
X156417346Y-146161921D01*
X156113506Y-145426571D01*
X155551388Y-144863471D01*
X155166857Y-144703800D01*
X159109700Y-144703800D01*
X159588054Y-144608649D01*
X159993583Y-144337683D01*
X160747742Y-143583525D01*
X160943901Y-143714594D01*
X161671000Y-143859223D01*
X162398099Y-143714594D01*
X162941000Y-143351839D01*
X163257489Y-143563310D01*
G36*
X190470901Y-143794594D02*
X191198000Y-143939223D01*
X191865000Y-143806548D01*
X191865000Y-144904154D01*
X191824388Y-144863471D01*
X191089570Y-144558348D01*
X190457563Y-144557797D01*
X189570488Y-143670721D01*
X189928000Y-143431839D01*
X190470901Y-143794594D01*
X190470901Y-143794594D01*
G37*
X190470901Y-143794594D02*
X191198000Y-143939223D01*
X191865000Y-143806548D01*
X191865000Y-144904154D01*
X191824388Y-144863471D01*
X191089570Y-144558348D01*
X190457563Y-144557797D01*
X189570488Y-143670721D01*
X189928000Y-143431839D01*
X190470901Y-143794594D01*
G36*
X175469234Y-139686600D02*
X175450100Y-139686600D01*
X175089139Y-139758400D01*
X174971745Y-139781751D01*
X174566216Y-140052717D01*
X174484513Y-140134420D01*
X174218000Y-140080450D01*
X172618000Y-140080450D01*
X172210364Y-140157152D01*
X171835976Y-140398064D01*
X171584812Y-140765654D01*
X171496450Y-141202000D01*
X171496450Y-142802000D01*
X171573152Y-143209636D01*
X171814064Y-143584024D01*
X172181654Y-143835188D01*
X172618000Y-143923550D01*
X173332683Y-143923550D01*
X172698032Y-144558202D01*
X172069921Y-144557654D01*
X171505423Y-144790900D01*
X171262346Y-144624812D01*
X170855529Y-144542430D01*
X170809884Y-144474117D01*
X170541000Y-144205233D01*
X170541000Y-143365203D01*
X170634503Y-143302726D01*
X171046371Y-142686322D01*
X171191000Y-141959223D01*
X171191000Y-141884777D01*
X171046371Y-141157678D01*
X170634503Y-140541274D01*
X170462268Y-140426190D01*
X170445849Y-140343646D01*
X170174883Y-139938117D01*
X169769354Y-139667151D01*
X169291000Y-139572000D01*
X169121267Y-139572000D01*
X167754867Y-138205600D01*
X173988234Y-138205600D01*
X175469234Y-139686600D01*
X175469234Y-139686600D01*
G37*
X175469234Y-139686600D02*
X175450100Y-139686600D01*
X175089139Y-139758400D01*
X174971745Y-139781751D01*
X174566216Y-140052717D01*
X174484513Y-140134420D01*
X174218000Y-140080450D01*
X172618000Y-140080450D01*
X172210364Y-140157152D01*
X171835976Y-140398064D01*
X171584812Y-140765654D01*
X171496450Y-141202000D01*
X171496450Y-142802000D01*
X171573152Y-143209636D01*
X171814064Y-143584024D01*
X172181654Y-143835188D01*
X172618000Y-143923550D01*
X173332683Y-143923550D01*
X172698032Y-144558202D01*
X172069921Y-144557654D01*
X171505423Y-144790900D01*
X171262346Y-144624812D01*
X170855529Y-144542430D01*
X170809884Y-144474117D01*
X170541000Y-144205233D01*
X170541000Y-143365203D01*
X170634503Y-143302726D01*
X171046371Y-142686322D01*
X171191000Y-141959223D01*
X171191000Y-141884777D01*
X171046371Y-141157678D01*
X170634503Y-140541274D01*
X170462268Y-140426190D01*
X170445849Y-140343646D01*
X170174883Y-139938117D01*
X169769354Y-139667151D01*
X169291000Y-139572000D01*
X169121267Y-139572000D01*
X167754867Y-138205600D01*
X173988234Y-138205600D01*
X175469234Y-139686600D01*
G36*
X153456423Y-144790900D02*
X153328949Y-144703800D01*
X153667220Y-144703800D01*
X153456423Y-144790900D01*
X153456423Y-144790900D01*
G37*
X153456423Y-144790900D02*
X153328949Y-144703800D01*
X153667220Y-144703800D01*
X153456423Y-144790900D01*
G36*
X152158916Y-144337683D02*
X152456392Y-144536450D01*
X150977000Y-144536450D01*
X150781000Y-144573330D01*
X150781000Y-143843550D01*
X151664783Y-143843550D01*
X152158916Y-144337683D01*
X152158916Y-144337683D01*
G37*
X152158916Y-144337683D02*
X152456392Y-144536450D01*
X150977000Y-144536450D01*
X150781000Y-144573330D01*
X150781000Y-143843550D01*
X151664783Y-143843550D01*
X152158916Y-144337683D01*
G36*
X165690017Y-143491500D02*
X165271983Y-143491500D01*
X165481000Y-143351839D01*
X165690017Y-143491500D01*
X165690017Y-143491500D01*
G37*
X165690017Y-143491500D02*
X165271983Y-143491500D01*
X165481000Y-143351839D01*
X165690017Y-143491500D01*
G36*
X168041000Y-143365203D02*
X168041000Y-143491500D01*
X167811983Y-143491500D01*
X168021000Y-143351839D01*
X168041000Y-143365203D01*
X168041000Y-143365203D01*
G37*
X168041000Y-143365203D02*
X168041000Y-143491500D01*
X167811983Y-143491500D01*
X168021000Y-143351839D01*
X168041000Y-143365203D01*
G36*
X166123356Y-140109623D02*
X166023901Y-140129406D01*
X165481000Y-140492161D01*
X164938099Y-140129406D01*
X164211000Y-139984777D01*
X163483901Y-140129406D01*
X162941000Y-140492161D01*
X162398099Y-140129406D01*
X161671000Y-139984777D01*
X161431400Y-140032436D01*
X161431400Y-136191564D01*
X161671000Y-136239223D01*
X162156404Y-136142670D01*
X166123356Y-140109623D01*
X166123356Y-140109623D01*
G37*
X166123356Y-140109623D02*
X166023901Y-140129406D01*
X165481000Y-140492161D01*
X164938099Y-140129406D01*
X164211000Y-139984777D01*
X163483901Y-140129406D01*
X162941000Y-140492161D01*
X162398099Y-140129406D01*
X161671000Y-139984777D01*
X161431400Y-140032436D01*
X161431400Y-136191564D01*
X161671000Y-136239223D01*
X162156404Y-136142670D01*
X166123356Y-140109623D01*
G36*
X187930901Y-136174594D02*
X188658000Y-136319223D01*
X188848000Y-136281430D01*
X188848000Y-139802000D01*
X188910250Y-140114953D01*
X188658000Y-140064777D01*
X187930901Y-140209406D01*
X187731924Y-140342358D01*
X186875783Y-139486217D01*
X186470254Y-139215251D01*
X185991900Y-139120100D01*
X182463867Y-139120100D01*
X181522167Y-138178400D01*
X182550800Y-138178400D01*
X183029154Y-138083249D01*
X183434683Y-137812283D01*
X185199957Y-136047009D01*
X185390901Y-136174594D01*
X186118000Y-136319223D01*
X186845099Y-136174594D01*
X187388000Y-135811839D01*
X187930901Y-136174594D01*
X187930901Y-136174594D01*
G37*
X187930901Y-136174594D02*
X188658000Y-136319223D01*
X188848000Y-136281430D01*
X188848000Y-139802000D01*
X188910250Y-140114953D01*
X188658000Y-140064777D01*
X187930901Y-140209406D01*
X187731924Y-140342358D01*
X186875783Y-139486217D01*
X186470254Y-139215251D01*
X185991900Y-139120100D01*
X182463867Y-139120100D01*
X181522167Y-138178400D01*
X182550800Y-138178400D01*
X183029154Y-138083249D01*
X183434683Y-137812283D01*
X185199957Y-136047009D01*
X185390901Y-136174594D01*
X186118000Y-136319223D01*
X186845099Y-136174594D01*
X187388000Y-135811839D01*
X187930901Y-136174594D01*
G36*
X156817400Y-139758400D02*
X156873611Y-140040992D01*
X156591000Y-139984777D01*
X156338750Y-140034953D01*
X156401000Y-139722000D01*
X156401000Y-136201430D01*
X156591000Y-136239223D01*
X156817400Y-136194189D01*
X156817400Y-139758400D01*
X156817400Y-139758400D01*
G37*
X156817400Y-139758400D02*
X156873611Y-140040992D01*
X156591000Y-139984777D01*
X156338750Y-140034953D01*
X156401000Y-139722000D01*
X156401000Y-136201430D01*
X156591000Y-136239223D01*
X156817400Y-136194189D01*
X156817400Y-139758400D01*
G36*
X150783901Y-136094594D02*
X151511000Y-136239223D01*
X151698700Y-136201887D01*
X151698700Y-140000450D01*
X150781000Y-140000450D01*
X150781000Y-136092656D01*
X150783901Y-136094594D01*
X150783901Y-136094594D01*
G37*
X150783901Y-136094594D02*
X151511000Y-136239223D01*
X151698700Y-136201887D01*
X151698700Y-140000450D01*
X150781000Y-140000450D01*
X150781000Y-136092656D01*
X150783901Y-136094594D01*
G36*
X191865000Y-139801233D02*
X191348000Y-139284234D01*
X191348000Y-136289386D01*
X191865000Y-136186548D01*
X191865000Y-139801233D01*
X191865000Y-139801233D01*
G37*
X191865000Y-139801233D02*
X191348000Y-139284234D01*
X191348000Y-136289386D01*
X191865000Y-136186548D01*
X191865000Y-139801233D01*
G36*
X175958000Y-136319223D02*
X176099342Y-136291108D01*
X179487733Y-139679500D01*
X178997667Y-139679500D01*
X175557780Y-136239614D01*
X175958000Y-136319223D01*
X175958000Y-136319223D01*
G37*
X175958000Y-136319223D02*
X176099342Y-136291108D01*
X179487733Y-139679500D01*
X178997667Y-139679500D01*
X175557780Y-136239614D01*
X175958000Y-136319223D01*
G36*
X171662629Y-135146322D02*
X172036327Y-135705600D01*
X170600270Y-135705600D01*
X170634503Y-135682726D01*
X171046371Y-135066322D01*
X171158681Y-134501700D01*
X171534406Y-134501700D01*
X171662629Y-135146322D01*
X171662629Y-135146322D01*
G37*
X171662629Y-135146322D02*
X172036327Y-135705600D01*
X170600270Y-135705600D01*
X170634503Y-135682726D01*
X171046371Y-135066322D01*
X171158681Y-134501700D01*
X171534406Y-134501700D01*
X171662629Y-135146322D01*
G36*
X191640750Y-127714835D02*
X191746503Y-127785497D01*
X191817165Y-127891250D01*
X191865000Y-128131730D01*
X191865000Y-128239143D01*
X191830388Y-128204471D01*
X191095570Y-127899348D01*
X190299921Y-127898654D01*
X189735423Y-128131900D01*
X189492346Y-127965812D01*
X189056000Y-127877450D01*
X187256000Y-127877450D01*
X186848364Y-127954152D01*
X186473976Y-128195064D01*
X186222812Y-128562654D01*
X186134450Y-128999000D01*
X186134450Y-130799000D01*
X186211152Y-131206636D01*
X186452064Y-131581024D01*
X186819654Y-131832188D01*
X187226472Y-131914570D01*
X187272117Y-131982883D01*
X187899573Y-132610339D01*
X187719815Y-132730449D01*
X187393183Y-132403817D01*
X186987654Y-132132851D01*
X186950698Y-132125500D01*
X186509300Y-132037700D01*
X186205367Y-132037700D01*
X183704900Y-129537234D01*
X183704900Y-127667000D01*
X191400270Y-127667000D01*
X191640750Y-127714835D01*
X191640750Y-127714835D01*
G37*
X191640750Y-127714835D02*
X191746503Y-127785497D01*
X191817165Y-127891250D01*
X191865000Y-128131730D01*
X191865000Y-128239143D01*
X191830388Y-128204471D01*
X191095570Y-127899348D01*
X190299921Y-127898654D01*
X189735423Y-128131900D01*
X189492346Y-127965812D01*
X189056000Y-127877450D01*
X187256000Y-127877450D01*
X186848364Y-127954152D01*
X186473976Y-128195064D01*
X186222812Y-128562654D01*
X186134450Y-128999000D01*
X186134450Y-130799000D01*
X186211152Y-131206636D01*
X186452064Y-131581024D01*
X186819654Y-131832188D01*
X187226472Y-131914570D01*
X187272117Y-131982883D01*
X187899573Y-132610339D01*
X187719815Y-132730449D01*
X187393183Y-132403817D01*
X186987654Y-132132851D01*
X186950698Y-132125500D01*
X186509300Y-132037700D01*
X186205367Y-132037700D01*
X183704900Y-129537234D01*
X183704900Y-127667000D01*
X191400270Y-127667000D01*
X191640750Y-127714835D01*
G36*
X166069274Y-131581503D02*
X166103417Y-131604317D01*
X165094095Y-132613639D01*
X164938099Y-132509406D01*
X164398500Y-132402073D01*
X164398500Y-131921109D01*
X164670079Y-131921346D01*
X165405429Y-131617506D01*
X165818084Y-131205571D01*
X166069274Y-131581503D01*
X166069274Y-131581503D01*
G37*
X166069274Y-131581503D02*
X166103417Y-131604317D01*
X165094095Y-132613639D01*
X164938099Y-132509406D01*
X164398500Y-132402073D01*
X164398500Y-131921109D01*
X164670079Y-131921346D01*
X165405429Y-131617506D01*
X165818084Y-131205571D01*
X166069274Y-131581503D01*
G36*
X191865000Y-132577452D02*
X191198000Y-132444777D01*
X191176897Y-132448975D01*
X190981884Y-132157117D01*
X190723792Y-131899025D01*
X191092079Y-131899346D01*
X191827429Y-131595506D01*
X191865000Y-131558001D01*
X191865000Y-132577452D01*
X191865000Y-132577452D01*
G37*
X191865000Y-132577452D02*
X191198000Y-132444777D01*
X191176897Y-132448975D01*
X190981884Y-132157117D01*
X190723792Y-131899025D01*
X191092079Y-131899346D01*
X191827429Y-131595506D01*
X191865000Y-131558001D01*
X191865000Y-132577452D01*
G36*
X180296430Y-131898652D02*
X180700509Y-131899004D01*
X180726964Y-132032000D01*
X180734951Y-132072154D01*
X180990273Y-132454270D01*
X180426232Y-132566465D01*
X179609654Y-131749888D01*
X179738499Y-131666979D01*
X180296430Y-131898652D01*
X180296430Y-131898652D01*
G37*
X180296430Y-131898652D02*
X180700509Y-131899004D01*
X180726964Y-132032000D01*
X180734951Y-132072154D01*
X180990273Y-132454270D01*
X180426232Y-132566465D01*
X179609654Y-131749888D01*
X179738499Y-131666979D01*
X180296430Y-131898652D01*
G36*
X150977000Y-131920550D02*
X151777400Y-131920550D01*
X151777400Y-132032050D01*
X151703596Y-132403087D01*
X151511000Y-132364777D01*
X150783901Y-132509406D01*
X150781000Y-132511344D01*
X150781000Y-131880859D01*
X150977000Y-131920550D01*
X150977000Y-131920550D01*
G37*
X150977000Y-131920550D02*
X151777400Y-131920550D01*
X151777400Y-132032050D01*
X151703596Y-132403087D01*
X151511000Y-132364777D01*
X150783901Y-132509406D01*
X150781000Y-132511344D01*
X150781000Y-131880859D01*
X150977000Y-131920550D01*
G36*
X172114533Y-130150300D02*
X169369778Y-130150300D01*
X169242594Y-129510901D01*
X168879839Y-128968000D01*
X169242594Y-128425099D01*
X169387223Y-127698000D01*
X169383245Y-127678000D01*
X169642234Y-127678000D01*
X172114533Y-130150300D01*
X172114533Y-130150300D01*
G37*
X172114533Y-130150300D02*
X169369778Y-130150300D01*
X169242594Y-129510901D01*
X168879839Y-128968000D01*
X169242594Y-128425099D01*
X169387223Y-127698000D01*
X169383245Y-127678000D01*
X169642234Y-127678000D01*
X172114533Y-130150300D01*
G36*
X155975705Y-128629529D02*
X155883702Y-128537365D01*
X156413367Y-128007700D01*
X156597533Y-128007700D01*
X155975705Y-128629529D01*
X155975705Y-128629529D01*
G37*
X155975705Y-128629529D02*
X155883702Y-128537365D01*
X156413367Y-128007700D01*
X156597533Y-128007700D01*
X155975705Y-128629529D01*
G36*
X164599200Y-122699284D02*
X164599200Y-125047100D01*
X164690820Y-125507701D01*
X164694351Y-125525454D01*
X164965317Y-125930983D01*
X165796727Y-126762393D01*
X165657406Y-126970901D01*
X165512777Y-127698000D01*
X165657406Y-128425099D01*
X165760112Y-128578810D01*
X165408388Y-128226471D01*
X164673570Y-127921348D01*
X163877921Y-127920654D01*
X163313423Y-128153900D01*
X163195465Y-128073302D01*
X163768283Y-127500484D01*
X164039249Y-127094954D01*
X164046600Y-127058000D01*
X164134400Y-126616600D01*
X164134400Y-122698879D01*
X164599200Y-122699284D01*
X164599200Y-122699284D01*
G37*
X164599200Y-122699284D02*
X164599200Y-125047100D01*
X164690820Y-125507701D01*
X164694351Y-125525454D01*
X164965317Y-125930983D01*
X165796727Y-126762393D01*
X165657406Y-126970901D01*
X165512777Y-127698000D01*
X165657406Y-128425099D01*
X165760112Y-128578810D01*
X165408388Y-128226471D01*
X164673570Y-127921348D01*
X163877921Y-127920654D01*
X163313423Y-128153900D01*
X163195465Y-128073302D01*
X163768283Y-127500484D01*
X164039249Y-127094954D01*
X164046600Y-127058000D01*
X164134400Y-126616600D01*
X164134400Y-122698879D01*
X164599200Y-122699284D01*
G36*
X152969169Y-127916365D02*
X152777000Y-127877450D01*
X150977000Y-127877450D01*
X150825925Y-127905877D01*
X150828835Y-127891250D01*
X150899497Y-127785497D01*
X151005250Y-127714835D01*
X151245730Y-127667000D01*
X153218534Y-127667000D01*
X152969169Y-127916365D01*
X152969169Y-127916365D01*
G37*
X152969169Y-127916365D02*
X152777000Y-127877450D01*
X150977000Y-127877450D01*
X150825925Y-127905877D01*
X150828835Y-127891250D01*
X150899497Y-127785497D01*
X151005250Y-127714835D01*
X151245730Y-127667000D01*
X153218534Y-127667000D01*
X152969169Y-127916365D01*
G36*
X173391052Y-126800818D02*
X173277406Y-126970901D01*
X173143559Y-127643793D01*
X171043883Y-125544117D01*
X170638354Y-125273151D01*
X170160000Y-125178000D01*
X169383245Y-125178000D01*
X169387223Y-125158000D01*
X169263677Y-124536890D01*
X169384183Y-124416384D01*
X169655149Y-124010854D01*
X169750300Y-123532500D01*
X169750300Y-123160066D01*
X173391052Y-126800818D01*
X173391052Y-126800818D01*
G37*
X173391052Y-126800818D02*
X173277406Y-126970901D01*
X173143559Y-127643793D01*
X171043883Y-125544117D01*
X170638354Y-125273151D01*
X170160000Y-125178000D01*
X169383245Y-125178000D01*
X169387223Y-125158000D01*
X169263677Y-124536890D01*
X169384183Y-124416384D01*
X169655149Y-124010854D01*
X169750300Y-123532500D01*
X169750300Y-123160066D01*
X173391052Y-126800818D01*
G36*
X167250300Y-105134579D02*
X167250300Y-120696450D01*
X167099200Y-120696450D01*
X167099200Y-105134447D01*
X167250300Y-105134579D01*
X167250300Y-105134579D01*
G37*
X167250300Y-105134579D02*
X167250300Y-120696450D01*
X167099200Y-120696450D01*
X167099200Y-105134447D01*
X167250300Y-105134579D01*
G36*
X164599200Y-94238084D02*
X164599200Y-118699283D01*
X164134400Y-118698878D01*
X164134400Y-94237679D01*
X164599200Y-94238084D01*
X164599200Y-94238084D01*
G37*
X164599200Y-94238084D02*
X164599200Y-118699283D01*
X164134400Y-118698878D01*
X164134400Y-94237679D01*
X164599200Y-94238084D01*
G36*
X171527700Y-101919290D02*
X171527700Y-116719289D01*
X170820600Y-116718672D01*
X170820600Y-101918673D01*
X171527700Y-101919290D01*
X171527700Y-101919290D01*
G37*
X171527700Y-101919290D02*
X171527700Y-116719289D01*
X170820600Y-116718672D01*
X170820600Y-101918673D01*
X171527700Y-101919290D01*
G36*
X168320600Y-100013267D02*
X168320600Y-100578634D01*
X167926600Y-100184634D01*
X167926600Y-99619267D01*
X168320600Y-100013267D01*
X168320600Y-100013267D01*
G37*
X168320600Y-100013267D02*
X168320600Y-100578634D01*
X167926600Y-100184634D01*
X167926600Y-99619267D01*
X168320600Y-100013267D01*
G36*
X172989767Y-95184768D02*
X173736000Y-95333203D01*
X174482233Y-95184768D01*
X174870400Y-94925403D01*
X174870400Y-98726033D01*
X171430854Y-95286488D01*
X171942233Y-95184768D01*
X172466000Y-94834798D01*
X172989767Y-95184768D01*
X172989767Y-95184768D01*
G37*
X172989767Y-95184768D02*
X173736000Y-95333203D01*
X174482233Y-95184768D01*
X174870400Y-94925403D01*
X174870400Y-98726033D01*
X171430854Y-95286488D01*
X171942233Y-95184768D01*
X172466000Y-94834798D01*
X172989767Y-95184768D01*
G36*
X172643100Y-91530600D02*
X172679316Y-91712669D01*
X172466000Y-91855202D01*
X172364984Y-91787705D01*
X172350849Y-91716646D01*
X172284700Y-91617647D01*
X172284700Y-91226693D01*
X172377000Y-91188555D01*
X172643100Y-90922919D01*
X172643100Y-91530600D01*
X172643100Y-91530600D01*
G37*
X172643100Y-91530600D02*
X172679316Y-91712669D01*
X172466000Y-91855202D01*
X172364984Y-91787705D01*
X172350849Y-91716646D01*
X172284700Y-91617647D01*
X172284700Y-91226693D01*
X172377000Y-91188555D01*
X172643100Y-90922919D01*
X172643100Y-91530600D01*
G36*
X175317200Y-90186966D02*
X175317200Y-91186934D01*
X175143100Y-91012834D01*
X175143100Y-90012866D01*
X175317200Y-90186966D01*
X175317200Y-90186966D01*
G37*
X175317200Y-90186966D02*
X175317200Y-91186934D01*
X175143100Y-91012834D01*
X175143100Y-90012866D01*
X175317200Y-90186966D01*
G36*
X164599200Y-85038084D02*
X164599200Y-90238083D01*
X164134400Y-90237678D01*
X164134400Y-85037679D01*
X164599200Y-85038084D01*
X164599200Y-85038084D01*
G37*
X164599200Y-85038084D02*
X164599200Y-90238083D01*
X164134400Y-90237678D01*
X164134400Y-85037679D01*
X164599200Y-85038084D01*
G36*
X180296430Y-85037452D02*
X180639800Y-85037752D01*
X180639800Y-90219717D01*
X180319472Y-89898830D01*
X179805099Y-89685243D01*
X179406000Y-89684895D01*
X179406000Y-84993493D01*
X179463636Y-84982648D01*
X179738499Y-84805779D01*
X180296430Y-85037452D01*
X180296430Y-85037452D01*
G37*
X180296430Y-85037452D02*
X180639800Y-85037752D01*
X180639800Y-90219717D01*
X180319472Y-89898830D01*
X179805099Y-89685243D01*
X179406000Y-89684895D01*
X179406000Y-84993493D01*
X179463636Y-84982648D01*
X179738499Y-84805779D01*
X180296430Y-85037452D01*
G36*
X142276406Y-87722099D02*
X142278344Y-87725000D01*
X138586766Y-87725000D01*
X139166767Y-87145000D01*
X142161614Y-87145000D01*
X142276406Y-87722099D01*
X142276406Y-87722099D01*
G37*
X142276406Y-87722099D02*
X142278344Y-87725000D01*
X138586766Y-87725000D01*
X139166767Y-87145000D01*
X142161614Y-87145000D01*
X142276406Y-87722099D01*
G36*
X149396430Y-87216652D02*
X150192079Y-87217346D01*
X150717000Y-87000453D01*
X150717000Y-87725000D01*
X145859656Y-87725000D01*
X145861594Y-87722099D01*
X145973197Y-87161031D01*
X146356000Y-87238550D01*
X148156000Y-87238550D01*
X148563636Y-87161848D01*
X148838499Y-86984979D01*
X149396430Y-87216652D01*
X149396430Y-87216652D01*
G37*
X149396430Y-87216652D02*
X150192079Y-87217346D01*
X150717000Y-87000453D01*
X150717000Y-87725000D01*
X145859656Y-87725000D01*
X145861594Y-87722099D01*
X145973197Y-87161031D01*
X146356000Y-87238550D01*
X148156000Y-87238550D01*
X148563636Y-87161848D01*
X148838499Y-86984979D01*
X149396430Y-87216652D01*
G36*
X134511777Y-86995000D02*
X134656406Y-87722099D01*
X134658344Y-87725000D01*
X130163730Y-87725000D01*
X129923250Y-87677165D01*
X129817497Y-87606503D01*
X129746835Y-87500750D01*
X129699000Y-87260270D01*
X129699000Y-87221540D01*
X129783000Y-87238550D01*
X131583000Y-87238550D01*
X131990636Y-87161848D01*
X132265499Y-86984979D01*
X132823430Y-87216652D01*
X133619079Y-87217346D01*
X134354429Y-86913506D01*
X134570988Y-86697324D01*
X134511777Y-86995000D01*
X134511777Y-86995000D01*
G37*
X134511777Y-86995000D02*
X134656406Y-87722099D01*
X134658344Y-87725000D01*
X130163730Y-87725000D01*
X129923250Y-87677165D01*
X129817497Y-87606503D01*
X129746835Y-87500750D01*
X129699000Y-87260270D01*
X129699000Y-87221540D01*
X129783000Y-87238550D01*
X131583000Y-87238550D01*
X131990636Y-87161848D01*
X132265499Y-86984979D01*
X132823430Y-87216652D01*
X133619079Y-87217346D01*
X134354429Y-86913506D01*
X134570988Y-86697324D01*
X134511777Y-86995000D01*
G36*
X196360777Y-86995000D02*
X196505406Y-87722099D01*
X196507344Y-87725000D01*
X191675000Y-87725000D01*
X191675000Y-87238550D01*
X193457000Y-87238550D01*
X193864636Y-87161848D01*
X194139499Y-86984979D01*
X194697430Y-87216652D01*
X195493079Y-87217346D01*
X196228429Y-86913506D01*
X196413794Y-86728464D01*
X196360777Y-86995000D01*
X196360777Y-86995000D01*
G37*
X196360777Y-86995000D02*
X196505406Y-87722099D01*
X196507344Y-87725000D01*
X191675000Y-87725000D01*
X191675000Y-87238550D01*
X193457000Y-87238550D01*
X193864636Y-87161848D01*
X194139499Y-86984979D01*
X194697430Y-87216652D01*
X195493079Y-87217346D01*
X196228429Y-86913506D01*
X196413794Y-86728464D01*
X196360777Y-86995000D01*
G36*
X212693000Y-87260270D02*
X212645165Y-87500750D01*
X212574503Y-87606503D01*
X212468750Y-87677165D01*
X212228270Y-87725000D01*
X207708656Y-87725000D01*
X207710594Y-87722099D01*
X207821346Y-87165313D01*
X208183000Y-87238550D01*
X209983000Y-87238550D01*
X210390636Y-87161848D01*
X210665499Y-86984979D01*
X211223430Y-87216652D01*
X212019079Y-87217346D01*
X212693000Y-86938888D01*
X212693000Y-87260270D01*
X212693000Y-87260270D01*
G37*
X212693000Y-87260270D02*
X212645165Y-87500750D01*
X212574503Y-87606503D01*
X212468750Y-87677165D01*
X212228270Y-87725000D01*
X207708656Y-87725000D01*
X207710594Y-87722099D01*
X207821346Y-87165313D01*
X208183000Y-87238550D01*
X209983000Y-87238550D01*
X210390636Y-87161848D01*
X210665499Y-86984979D01*
X211223430Y-87216652D01*
X212019079Y-87217346D01*
X212693000Y-86938888D01*
X212693000Y-87260270D01*
G36*
X203704560Y-87535327D02*
X203831296Y-87725000D01*
X200088656Y-87725000D01*
X200090594Y-87722099D01*
X200235223Y-86995000D01*
X200090594Y-86267901D01*
X199727839Y-85725000D01*
X200090594Y-85182099D01*
X200235223Y-84455000D01*
X200138631Y-83969397D01*
X203704560Y-87535327D01*
X203704560Y-87535327D01*
G37*
X203704560Y-87535327D02*
X203831296Y-87725000D01*
X200088656Y-87725000D01*
X200090594Y-87722099D01*
X200235223Y-86995000D01*
X200090594Y-86267901D01*
X199727839Y-85725000D01*
X200090594Y-85182099D01*
X200235223Y-84455000D01*
X200138631Y-83969397D01*
X203704560Y-87535327D01*
G36*
X142131777Y-79375000D02*
X142276406Y-80102099D01*
X142639161Y-80645000D01*
X142276406Y-81187901D01*
X142131777Y-81915000D01*
X142276406Y-82642099D01*
X142639161Y-83185000D01*
X142276406Y-83727901D01*
X142131777Y-84455000D01*
X142169570Y-84645000D01*
X138649000Y-84645000D01*
X138336047Y-84707250D01*
X138386223Y-84455000D01*
X138241594Y-83727901D01*
X137878839Y-83185000D01*
X137944810Y-83086268D01*
X138027354Y-83069849D01*
X138432883Y-82798883D01*
X138703849Y-82393354D01*
X138704578Y-82389688D01*
X142234205Y-78860062D01*
X142131777Y-79375000D01*
X142131777Y-79375000D01*
G37*
X142131777Y-79375000D02*
X142276406Y-80102099D01*
X142639161Y-80645000D01*
X142276406Y-81187901D01*
X142131777Y-81915000D01*
X142276406Y-82642099D01*
X142639161Y-83185000D01*
X142276406Y-83727901D01*
X142131777Y-84455000D01*
X142169570Y-84645000D01*
X138649000Y-84645000D01*
X138336047Y-84707250D01*
X138386223Y-84455000D01*
X138241594Y-83727901D01*
X137878839Y-83185000D01*
X137944810Y-83086268D01*
X138027354Y-83069849D01*
X138432883Y-82798883D01*
X138703849Y-82393354D01*
X138704578Y-82389688D01*
X142234205Y-78860062D01*
X142131777Y-79375000D01*
G36*
X203934117Y-82798884D02*
X204276265Y-83027499D01*
X204339646Y-83069849D01*
X204422190Y-83086268D01*
X204488161Y-83185000D01*
X204125406Y-83727901D01*
X204010473Y-84305707D01*
X199976948Y-80272182D01*
X200090594Y-80102099D01*
X200235223Y-79375000D01*
X200216127Y-79279000D01*
X200414234Y-79279000D01*
X203934117Y-82798884D01*
X203934117Y-82798884D01*
G37*
X203934117Y-82798884D02*
X204276265Y-83027499D01*
X204339646Y-83069849D01*
X204422190Y-83086268D01*
X204488161Y-83185000D01*
X204125406Y-83727901D01*
X204010473Y-84305707D01*
X199976948Y-80272182D01*
X200090594Y-80102099D01*
X200235223Y-79375000D01*
X200216127Y-79279000D01*
X200414234Y-79279000D01*
X203934117Y-82798884D01*
G36*
X196646369Y-80976935D02*
X196505406Y-81187901D01*
X196360777Y-81915000D01*
X196505406Y-82642099D01*
X196868161Y-83185000D01*
X196505406Y-83727901D01*
X196493950Y-83785492D01*
X196231388Y-83522471D01*
X195496570Y-83217348D01*
X194700921Y-83216654D01*
X194136423Y-83449900D01*
X193893346Y-83283812D01*
X193807000Y-83266327D01*
X193807000Y-78137566D01*
X196646369Y-80976935D01*
X196646369Y-80976935D01*
G37*
X196646369Y-80976935D02*
X196505406Y-81187901D01*
X196360777Y-81915000D01*
X196505406Y-82642099D01*
X196868161Y-83185000D01*
X196505406Y-83727901D01*
X196493950Y-83785492D01*
X196231388Y-83522471D01*
X195496570Y-83217348D01*
X194700921Y-83216654D01*
X194136423Y-83449900D01*
X193893346Y-83283812D01*
X193807000Y-83266327D01*
X193807000Y-78137566D01*
X196646369Y-80976935D01*
G36*
X212693000Y-83495735D02*
X212022570Y-83217348D01*
X211226921Y-83216654D01*
X210662423Y-83449900D01*
X210419346Y-83283812D01*
X210333000Y-83266327D01*
X210333000Y-78072693D01*
X210390636Y-78061848D01*
X210665499Y-77884979D01*
X211223430Y-78116652D01*
X212019079Y-78117346D01*
X212693000Y-77838888D01*
X212693000Y-83495735D01*
X212693000Y-83495735D01*
G37*
X212693000Y-83495735D02*
X212022570Y-83217348D01*
X211226921Y-83216654D01*
X210662423Y-83449900D01*
X210419346Y-83283812D01*
X210333000Y-83266327D01*
X210333000Y-78072693D01*
X210390636Y-78061848D01*
X210665499Y-77884979D01*
X211223430Y-78116652D01*
X212019079Y-78117346D01*
X212693000Y-77838888D01*
X212693000Y-83495735D01*
G36*
X156636430Y-75850152D02*
X157077570Y-75850537D01*
X157522034Y-76295000D01*
X151892000Y-76295000D01*
X151442347Y-76384442D01*
X151061150Y-76639150D01*
X150806442Y-77020347D01*
X150717000Y-77470000D01*
X150717000Y-83433865D01*
X150195570Y-83217348D01*
X149399921Y-83216654D01*
X148835423Y-83449900D01*
X148592346Y-83283812D01*
X148506000Y-83266327D01*
X148506000Y-76261700D01*
X152134800Y-76261700D01*
X152613154Y-76166549D01*
X153018683Y-75895583D01*
X153142381Y-75771886D01*
X153159654Y-75783688D01*
X153596000Y-75872050D01*
X155396000Y-75872050D01*
X155803636Y-75795348D01*
X156078499Y-75618479D01*
X156636430Y-75850152D01*
X156636430Y-75850152D01*
G37*
X156636430Y-75850152D02*
X157077570Y-75850537D01*
X157522034Y-76295000D01*
X151892000Y-76295000D01*
X151442347Y-76384442D01*
X151061150Y-76639150D01*
X150806442Y-77020347D01*
X150717000Y-77470000D01*
X150717000Y-83433865D01*
X150195570Y-83217348D01*
X149399921Y-83216654D01*
X148835423Y-83449900D01*
X148592346Y-83283812D01*
X148506000Y-83266327D01*
X148506000Y-76261700D01*
X152134800Y-76261700D01*
X152613154Y-76166549D01*
X153018683Y-75895583D01*
X153142381Y-75771886D01*
X153159654Y-75783688D01*
X153596000Y-75872050D01*
X155396000Y-75872050D01*
X155803636Y-75795348D01*
X156078499Y-75618479D01*
X156636430Y-75850152D01*
G36*
X207833000Y-83261307D02*
X207775364Y-83272152D01*
X207517111Y-83438333D01*
X207347839Y-83185000D01*
X207710594Y-82642099D01*
X207833000Y-82026723D01*
X207833000Y-83261307D01*
X207833000Y-83261307D01*
G37*
X207833000Y-83261307D02*
X207775364Y-83272152D01*
X207517111Y-83438333D01*
X207347839Y-83185000D01*
X207710594Y-82642099D01*
X207833000Y-82026723D01*
X207833000Y-83261307D01*
G36*
X134656406Y-77562099D02*
X135019161Y-78105000D01*
X134656406Y-78647901D01*
X134511777Y-79375000D01*
X134656406Y-80102099D01*
X134782989Y-80291544D01*
X132339117Y-82735417D01*
X132068151Y-83140946D01*
X132037294Y-83296075D01*
X132019346Y-83283812D01*
X131933000Y-83266327D01*
X131933000Y-78072693D01*
X131990636Y-78061848D01*
X132265499Y-77884979D01*
X132823430Y-78116652D01*
X133619079Y-78117346D01*
X134354429Y-77813506D01*
X134648101Y-77520346D01*
X134656406Y-77562099D01*
X134656406Y-77562099D01*
G37*
X134656406Y-77562099D02*
X135019161Y-78105000D01*
X134656406Y-78647901D01*
X134511777Y-79375000D01*
X134656406Y-80102099D01*
X134782989Y-80291544D01*
X132339117Y-82735417D01*
X132068151Y-83140946D01*
X132037294Y-83296075D01*
X132019346Y-83283812D01*
X131933000Y-83266327D01*
X131933000Y-78072693D01*
X131990636Y-78061848D01*
X132265499Y-77884979D01*
X132823430Y-78116652D01*
X133619079Y-78117346D01*
X134354429Y-77813506D01*
X134648101Y-77520346D01*
X134656406Y-77562099D01*
G36*
X207833000Y-81803277D02*
X207710594Y-81187901D01*
X207347839Y-80645000D01*
X207710594Y-80102099D01*
X207833000Y-79486723D01*
X207833000Y-81803277D01*
X207833000Y-81803277D01*
G37*
X207833000Y-81803277D02*
X207710594Y-81187901D01*
X207347839Y-80645000D01*
X207710594Y-80102099D01*
X207833000Y-79486723D01*
X207833000Y-81803277D01*
G36*
X173054717Y-80770583D02*
X173309205Y-81025071D01*
X173200406Y-81187901D01*
X173089125Y-81747347D01*
X172869700Y-81703700D01*
X172785700Y-81703700D01*
X172785700Y-80367971D01*
X173054717Y-80770583D01*
X173054717Y-80770583D01*
G37*
X173054717Y-80770583D02*
X173309205Y-81025071D01*
X173200406Y-81187901D01*
X173089125Y-81747347D01*
X172869700Y-81703700D01*
X172785700Y-81703700D01*
X172785700Y-80367971D01*
X173054717Y-80770583D01*
G36*
X164599200Y-79546267D02*
X164599200Y-81038083D01*
X163877921Y-81037454D01*
X163313423Y-81270700D01*
X163070346Y-81104612D01*
X162984000Y-81087127D01*
X162984000Y-77931066D01*
X164599200Y-79546267D01*
X164599200Y-79546267D01*
G37*
X164599200Y-79546267D02*
X164599200Y-81038083D01*
X163877921Y-81037454D01*
X163313423Y-81270700D01*
X163070346Y-81104612D01*
X162984000Y-81087127D01*
X162984000Y-77931066D01*
X164599200Y-79546267D01*
G36*
X190535450Y-74737800D02*
X190612152Y-75145436D01*
X190853064Y-75519824D01*
X191220654Y-75770988D01*
X191307000Y-75788473D01*
X191307000Y-76623214D01*
X190949653Y-76384442D01*
X190500000Y-76295000D01*
X182880000Y-76295000D01*
X182430347Y-76384442D01*
X182049150Y-76639150D01*
X181794442Y-77020347D01*
X181705000Y-77470000D01*
X181705000Y-80516438D01*
X181612544Y-80516357D01*
X181097800Y-80729045D01*
X180788426Y-81037880D01*
X180723743Y-81037824D01*
X181108884Y-80652683D01*
X181379849Y-80247154D01*
X181408702Y-80102099D01*
X181475000Y-79768800D01*
X181475000Y-76246600D01*
X183010200Y-76246600D01*
X183488554Y-76151449D01*
X183894083Y-75880483D01*
X184015381Y-75759186D01*
X184032654Y-75770988D01*
X184469000Y-75859350D01*
X186269000Y-75859350D01*
X186676636Y-75782648D01*
X186951499Y-75605779D01*
X187509430Y-75837452D01*
X188305079Y-75838146D01*
X189040429Y-75534306D01*
X189603529Y-74972188D01*
X189908652Y-74237370D01*
X189908914Y-73937400D01*
X190535450Y-73937400D01*
X190535450Y-74737800D01*
X190535450Y-74737800D01*
G37*
X190535450Y-74737800D02*
X190612152Y-75145436D01*
X190853064Y-75519824D01*
X191220654Y-75770988D01*
X191307000Y-75788473D01*
X191307000Y-76623214D01*
X190949653Y-76384442D01*
X190500000Y-76295000D01*
X182880000Y-76295000D01*
X182430347Y-76384442D01*
X182049150Y-76639150D01*
X181794442Y-77020347D01*
X181705000Y-77470000D01*
X181705000Y-80516438D01*
X181612544Y-80516357D01*
X181097800Y-80729045D01*
X180788426Y-81037880D01*
X180723743Y-81037824D01*
X181108884Y-80652683D01*
X181379849Y-80247154D01*
X181408702Y-80102099D01*
X181475000Y-79768800D01*
X181475000Y-76246600D01*
X183010200Y-76246600D01*
X183488554Y-76151449D01*
X183894083Y-75880483D01*
X184015381Y-75759186D01*
X184032654Y-75770988D01*
X184469000Y-75859350D01*
X186269000Y-75859350D01*
X186676636Y-75782648D01*
X186951499Y-75605779D01*
X187509430Y-75837452D01*
X188305079Y-75838146D01*
X189040429Y-75534306D01*
X189603529Y-74972188D01*
X189908652Y-74237370D01*
X189908914Y-73937400D01*
X190535450Y-73937400D01*
X190535450Y-74737800D01*
G36*
X176819654Y-75770988D02*
X177256000Y-75859350D01*
X178975000Y-75859350D01*
X178975000Y-79251033D01*
X178217500Y-80008534D01*
X178217500Y-79772000D01*
X178122349Y-79293646D01*
X177945184Y-79028500D01*
X177851383Y-78888116D01*
X176681361Y-77718095D01*
X176785594Y-77562099D01*
X176930223Y-76835000D01*
X176785594Y-76107901D01*
X176422839Y-75565000D01*
X176452724Y-75520275D01*
X176819654Y-75770988D01*
X176819654Y-75770988D01*
G37*
X176819654Y-75770988D02*
X177256000Y-75859350D01*
X178975000Y-75859350D01*
X178975000Y-79251033D01*
X178217500Y-80008534D01*
X178217500Y-79772000D01*
X178122349Y-79293646D01*
X177945184Y-79028500D01*
X177851383Y-78888116D01*
X176681361Y-77718095D01*
X176785594Y-77562099D01*
X176930223Y-76835000D01*
X176785594Y-76107901D01*
X176422839Y-75565000D01*
X176452724Y-75520275D01*
X176819654Y-75770988D01*
G36*
X203980777Y-74295000D02*
X204125406Y-75022099D01*
X204488161Y-75565000D01*
X204125406Y-76107901D01*
X203980777Y-76835000D01*
X204125406Y-77562099D01*
X204488161Y-78105000D01*
X204125406Y-78647901D01*
X203991559Y-79320793D01*
X201815883Y-77145117D01*
X201410354Y-76874151D01*
X201359065Y-76863949D01*
X201059003Y-76804263D01*
X204083205Y-73780062D01*
X203980777Y-74295000D01*
X203980777Y-74295000D01*
G37*
X203980777Y-74295000D02*
X204125406Y-75022099D01*
X204488161Y-75565000D01*
X204125406Y-76107901D01*
X203980777Y-76835000D01*
X204125406Y-77562099D01*
X204488161Y-78105000D01*
X204125406Y-78647901D01*
X203991559Y-79320793D01*
X201815883Y-77145117D01*
X201410354Y-76874151D01*
X201359065Y-76863949D01*
X201059003Y-76804263D01*
X204083205Y-73780062D01*
X203980777Y-74295000D01*
G36*
X207746654Y-78050188D02*
X207833000Y-78067673D01*
X207833000Y-79263277D01*
X207710594Y-78647901D01*
X207347839Y-78105000D01*
X207497990Y-77880283D01*
X207746654Y-78050188D01*
X207746654Y-78050188D01*
G37*
X207746654Y-78050188D02*
X207833000Y-78067673D01*
X207833000Y-79263277D01*
X207710594Y-78647901D01*
X207347839Y-78105000D01*
X207497990Y-77880283D01*
X207746654Y-78050188D01*
G36*
X165715521Y-75905687D02*
X165580406Y-76107901D01*
X165435777Y-76835000D01*
X165438834Y-76850367D01*
X164426400Y-75837933D01*
X164670079Y-75838146D01*
X165362060Y-75552226D01*
X165715521Y-75905687D01*
X165715521Y-75905687D01*
G37*
X165715521Y-75905687D02*
X165580406Y-76107901D01*
X165435777Y-76835000D01*
X165438834Y-76850367D01*
X164426400Y-75837933D01*
X164670079Y-75838146D01*
X165362060Y-75552226D01*
X165715521Y-75905687D01*
G36*
X195611000Y-76406034D02*
X195077000Y-75872034D01*
X195077000Y-75837783D01*
X195493079Y-75838146D01*
X195611000Y-75789422D01*
X195611000Y-76406034D01*
X195611000Y-76406034D01*
G37*
X195611000Y-76406034D02*
X195077000Y-75872034D01*
X195077000Y-75837783D01*
X195493079Y-75838146D01*
X195611000Y-75789422D01*
X195611000Y-76406034D01*
G36*
X132823430Y-69016652D02*
X133619079Y-69017346D01*
X134099000Y-68819047D01*
X134099000Y-72232600D01*
X134179815Y-72638883D01*
X134194151Y-72710954D01*
X134465117Y-73116483D01*
X134760599Y-73411965D01*
X134656406Y-73567901D01*
X134511777Y-74295000D01*
X134581861Y-74647336D01*
X134357388Y-74422471D01*
X133622570Y-74117348D01*
X132826921Y-74116654D01*
X132262423Y-74349900D01*
X132019346Y-74183812D01*
X131933000Y-74166327D01*
X131933000Y-68972693D01*
X131990636Y-68961848D01*
X132265499Y-68784979D01*
X132823430Y-69016652D01*
X132823430Y-69016652D01*
G37*
X132823430Y-69016652D02*
X133619079Y-69017346D01*
X134099000Y-68819047D01*
X134099000Y-72232600D01*
X134179815Y-72638883D01*
X134194151Y-72710954D01*
X134465117Y-73116483D01*
X134760599Y-73411965D01*
X134656406Y-73567901D01*
X134511777Y-74295000D01*
X134581861Y-74647336D01*
X134357388Y-74422471D01*
X133622570Y-74117348D01*
X132826921Y-74116654D01*
X132262423Y-74349900D01*
X132019346Y-74183812D01*
X131933000Y-74166327D01*
X131933000Y-68972693D01*
X131990636Y-68961848D01*
X132265499Y-68784979D01*
X132823430Y-69016652D01*
G36*
X212693000Y-74395735D02*
X212022570Y-74117348D01*
X211226921Y-74116654D01*
X210662423Y-74349900D01*
X210419346Y-74183812D01*
X209983000Y-74095450D01*
X208183000Y-74095450D01*
X207828787Y-74162100D01*
X207710594Y-73567901D01*
X207347839Y-73025000D01*
X207710594Y-72482099D01*
X207855223Y-71755000D01*
X207851245Y-71735000D01*
X208155000Y-71735000D01*
X208633354Y-71639849D01*
X209038883Y-71368883D01*
X211390969Y-69016798D01*
X212019079Y-69017346D01*
X212693000Y-68738888D01*
X212693000Y-74395735D01*
X212693000Y-74395735D01*
G37*
X212693000Y-74395735D02*
X212022570Y-74117348D01*
X211226921Y-74116654D01*
X210662423Y-74349900D01*
X210419346Y-74183812D01*
X209983000Y-74095450D01*
X208183000Y-74095450D01*
X207828787Y-74162100D01*
X207710594Y-73567901D01*
X207347839Y-73025000D01*
X207710594Y-72482099D01*
X207855223Y-71755000D01*
X207851245Y-71735000D01*
X208155000Y-71735000D01*
X208633354Y-71639849D01*
X209038883Y-71368883D01*
X211390969Y-69016798D01*
X212019079Y-69017346D01*
X212693000Y-68738888D01*
X212693000Y-74395735D01*
G36*
X191095380Y-55601230D02*
X191071646Y-55605951D01*
X190666116Y-55876917D01*
X190603027Y-55940006D01*
X190383000Y-55895450D01*
X188583000Y-55895450D01*
X188175364Y-55972152D01*
X187800976Y-56213064D01*
X187549812Y-56580654D01*
X187461450Y-57017000D01*
X187461450Y-58817000D01*
X187538152Y-59224636D01*
X187779064Y-59599024D01*
X188146654Y-59850188D01*
X188583000Y-59938550D01*
X190383000Y-59938550D01*
X190773000Y-59865166D01*
X190773000Y-61339638D01*
X190307548Y-61146366D01*
X189472117Y-61145637D01*
X188700000Y-61464669D01*
X188108745Y-62054893D01*
X187788366Y-62826452D01*
X187787637Y-63661883D01*
X188106669Y-64434000D01*
X188696893Y-65025255D01*
X189468452Y-65345634D01*
X190303883Y-65346363D01*
X191076000Y-65027331D01*
X191667255Y-64437107D01*
X191987634Y-63665548D01*
X191987715Y-63572481D01*
X196452868Y-68037635D01*
X196376450Y-68415000D01*
X196376450Y-70015000D01*
X196453152Y-70422636D01*
X196677192Y-70770805D01*
X196505406Y-71027901D01*
X196371145Y-71702878D01*
X196054183Y-71385917D01*
X195648654Y-71114951D01*
X195170300Y-71019800D01*
X179039367Y-71019800D01*
X181063167Y-68996000D01*
X181668561Y-68996000D01*
X182196893Y-69525255D01*
X182968452Y-69845634D01*
X183803883Y-69846363D01*
X184576000Y-69527331D01*
X185167255Y-68937107D01*
X185487634Y-68165548D01*
X185487637Y-68161883D01*
X187787637Y-68161883D01*
X188106669Y-68934000D01*
X188696893Y-69525255D01*
X189468452Y-69845634D01*
X190303883Y-69846363D01*
X191076000Y-69527331D01*
X191667255Y-68937107D01*
X191987634Y-68165548D01*
X191988363Y-67330117D01*
X191669331Y-66558000D01*
X191079107Y-65966745D01*
X190307548Y-65646366D01*
X189472117Y-65645637D01*
X188700000Y-65964669D01*
X188108745Y-66554893D01*
X187788366Y-67326452D01*
X187787637Y-68161883D01*
X185487637Y-68161883D01*
X185488363Y-67330117D01*
X185169331Y-66558000D01*
X184579107Y-65966745D01*
X183807548Y-65646366D01*
X182972117Y-65645637D01*
X182200000Y-65964669D01*
X181667741Y-66496000D01*
X180545400Y-66496000D01*
X180067046Y-66591151D01*
X179661516Y-66862117D01*
X176836263Y-69687371D01*
X176930223Y-69215000D01*
X176785594Y-68487901D01*
X176373726Y-67871497D01*
X176243000Y-67784149D01*
X176243000Y-65477500D01*
X176147849Y-64999146D01*
X176061557Y-64870001D01*
X175876884Y-64593617D01*
X174068983Y-62785717D01*
X173663454Y-62514751D01*
X173625075Y-62507117D01*
X173185100Y-62419600D01*
X172253500Y-62419600D01*
X171813525Y-62507117D01*
X171775146Y-62514751D01*
X171430000Y-62745370D01*
X171430000Y-60664000D01*
X176986000Y-60664000D01*
X177464354Y-60568849D01*
X177869883Y-60297883D01*
X178329381Y-59838386D01*
X178346654Y-59850188D01*
X178753472Y-59932570D01*
X178799117Y-60000883D01*
X181387043Y-62588810D01*
X181288366Y-62826452D01*
X181287637Y-63661883D01*
X181606669Y-64434000D01*
X182196893Y-65025255D01*
X182968452Y-65345634D01*
X183803883Y-65346363D01*
X184576000Y-65027331D01*
X185167255Y-64437107D01*
X185487634Y-63665548D01*
X185488363Y-62830117D01*
X185169331Y-62058000D01*
X184579107Y-61466745D01*
X183807548Y-61146366D01*
X183479847Y-61146080D01*
X182250791Y-59917025D01*
X182619079Y-59917346D01*
X183354429Y-59613506D01*
X183917529Y-59051388D01*
X184222652Y-58316570D01*
X184223346Y-57520921D01*
X183919506Y-56785571D01*
X183357388Y-56222471D01*
X182622570Y-55917348D01*
X181826921Y-55916654D01*
X181262423Y-56149900D01*
X181019346Y-55983812D01*
X180583000Y-55895450D01*
X178783000Y-55895450D01*
X178375364Y-55972152D01*
X178000976Y-56213064D01*
X177749812Y-56580654D01*
X177667430Y-56987471D01*
X177599117Y-57033116D01*
X176468234Y-58164000D01*
X174422785Y-58164000D01*
X174423346Y-57520921D01*
X174119506Y-56785571D01*
X173557388Y-56222471D01*
X172822570Y-55917348D01*
X172026921Y-55916654D01*
X171462423Y-56149900D01*
X171219346Y-55983812D01*
X170783000Y-55895450D01*
X168983000Y-55895450D01*
X168575364Y-55972152D01*
X168200976Y-56213064D01*
X167949812Y-56580654D01*
X167861450Y-57017000D01*
X167861450Y-58817000D01*
X167938152Y-59224636D01*
X168179064Y-59599024D01*
X168546654Y-59850188D01*
X168930000Y-59927817D01*
X168930000Y-62873715D01*
X168922364Y-62875152D01*
X168547976Y-63116064D01*
X168296812Y-63483654D01*
X168208450Y-63920000D01*
X168208450Y-64620400D01*
X167592966Y-64620400D01*
X164050983Y-61078417D01*
X163645454Y-60807451D01*
X163167100Y-60712300D01*
X161566506Y-60712300D01*
X161653783Y-60653983D01*
X162390968Y-59916798D01*
X163019079Y-59917346D01*
X163754429Y-59613506D01*
X164317529Y-59051388D01*
X164622652Y-58316570D01*
X164623346Y-57520921D01*
X164319506Y-56785571D01*
X163757388Y-56222471D01*
X163022570Y-55917348D01*
X162226921Y-55916654D01*
X161662423Y-56149900D01*
X161419346Y-55983812D01*
X160983000Y-55895450D01*
X159183000Y-55895450D01*
X158775364Y-55972152D01*
X158400976Y-56213064D01*
X158149812Y-56580654D01*
X158061450Y-57017000D01*
X158061450Y-58520100D01*
X154738139Y-58520100D01*
X154822652Y-58316570D01*
X154823346Y-57520921D01*
X154519506Y-56785571D01*
X153957388Y-56222471D01*
X153222570Y-55917348D01*
X152426921Y-55916654D01*
X151862423Y-56149900D01*
X151619346Y-55983812D01*
X151183000Y-55895450D01*
X149383000Y-55895450D01*
X148975364Y-55972152D01*
X148600976Y-56213064D01*
X148349812Y-56580654D01*
X148261450Y-57017000D01*
X148261450Y-58817000D01*
X148338152Y-59224636D01*
X148579064Y-59599024D01*
X148946654Y-59850188D01*
X149092509Y-59879724D01*
X140454817Y-68517417D01*
X140183851Y-68922946D01*
X140088700Y-69401300D01*
X140088700Y-73005033D01*
X138799000Y-74294733D01*
X138799000Y-63908766D01*
X142790969Y-59916798D01*
X143419079Y-59917346D01*
X144154429Y-59613506D01*
X144717529Y-59051388D01*
X145022652Y-58316570D01*
X145023346Y-57520921D01*
X144719506Y-56785571D01*
X144157388Y-56222471D01*
X143422570Y-55917348D01*
X142626921Y-55916654D01*
X142062423Y-56149900D01*
X141819346Y-55983812D01*
X141383000Y-55895450D01*
X139583000Y-55895450D01*
X139175364Y-55972152D01*
X138800976Y-56213064D01*
X138549812Y-56580654D01*
X138461450Y-57017000D01*
X138461450Y-58817000D01*
X138538152Y-59224636D01*
X138779064Y-59599024D01*
X139146654Y-59850188D01*
X139292509Y-59879724D01*
X136665117Y-62507117D01*
X136599000Y-62606068D01*
X136599000Y-60043000D01*
X136503849Y-59564646D01*
X136480129Y-59529146D01*
X136232883Y-59159116D01*
X135222798Y-58149032D01*
X135223346Y-57520921D01*
X134919506Y-56785571D01*
X134357388Y-56222471D01*
X133622570Y-55917348D01*
X132826921Y-55916654D01*
X132262423Y-56149900D01*
X132019346Y-55983812D01*
X131583000Y-55895450D01*
X129783000Y-55895450D01*
X129699000Y-55911256D01*
X129699000Y-55531000D01*
X191448448Y-55531000D01*
X191095380Y-55601230D01*
X191095380Y-55601230D01*
G37*
X191095380Y-55601230D02*
X191071646Y-55605951D01*
X190666116Y-55876917D01*
X190603027Y-55940006D01*
X190383000Y-55895450D01*
X188583000Y-55895450D01*
X188175364Y-55972152D01*
X187800976Y-56213064D01*
X187549812Y-56580654D01*
X187461450Y-57017000D01*
X187461450Y-58817000D01*
X187538152Y-59224636D01*
X187779064Y-59599024D01*
X188146654Y-59850188D01*
X188583000Y-59938550D01*
X190383000Y-59938550D01*
X190773000Y-59865166D01*
X190773000Y-61339638D01*
X190307548Y-61146366D01*
X189472117Y-61145637D01*
X188700000Y-61464669D01*
X188108745Y-62054893D01*
X187788366Y-62826452D01*
X187787637Y-63661883D01*
X188106669Y-64434000D01*
X188696893Y-65025255D01*
X189468452Y-65345634D01*
X190303883Y-65346363D01*
X191076000Y-65027331D01*
X191667255Y-64437107D01*
X191987634Y-63665548D01*
X191987715Y-63572481D01*
X196452868Y-68037635D01*
X196376450Y-68415000D01*
X196376450Y-70015000D01*
X196453152Y-70422636D01*
X196677192Y-70770805D01*
X196505406Y-71027901D01*
X196371145Y-71702878D01*
X196054183Y-71385917D01*
X195648654Y-71114951D01*
X195170300Y-71019800D01*
X179039367Y-71019800D01*
X181063167Y-68996000D01*
X181668561Y-68996000D01*
X182196893Y-69525255D01*
X182968452Y-69845634D01*
X183803883Y-69846363D01*
X184576000Y-69527331D01*
X185167255Y-68937107D01*
X185487634Y-68165548D01*
X185487637Y-68161883D01*
X187787637Y-68161883D01*
X188106669Y-68934000D01*
X188696893Y-69525255D01*
X189468452Y-69845634D01*
X190303883Y-69846363D01*
X191076000Y-69527331D01*
X191667255Y-68937107D01*
X191987634Y-68165548D01*
X191988363Y-67330117D01*
X191669331Y-66558000D01*
X191079107Y-65966745D01*
X190307548Y-65646366D01*
X189472117Y-65645637D01*
X188700000Y-65964669D01*
X188108745Y-66554893D01*
X187788366Y-67326452D01*
X187787637Y-68161883D01*
X185487637Y-68161883D01*
X185488363Y-67330117D01*
X185169331Y-66558000D01*
X184579107Y-65966745D01*
X183807548Y-65646366D01*
X182972117Y-65645637D01*
X182200000Y-65964669D01*
X181667741Y-66496000D01*
X180545400Y-66496000D01*
X180067046Y-66591151D01*
X179661516Y-66862117D01*
X176836263Y-69687371D01*
X176930223Y-69215000D01*
X176785594Y-68487901D01*
X176373726Y-67871497D01*
X176243000Y-67784149D01*
X176243000Y-65477500D01*
X176147849Y-64999146D01*
X176061557Y-64870001D01*
X175876884Y-64593617D01*
X174068983Y-62785717D01*
X173663454Y-62514751D01*
X173625075Y-62507117D01*
X173185100Y-62419600D01*
X172253500Y-62419600D01*
X171813525Y-62507117D01*
X171775146Y-62514751D01*
X171430000Y-62745370D01*
X171430000Y-60664000D01*
X176986000Y-60664000D01*
X177464354Y-60568849D01*
X177869883Y-60297883D01*
X178329381Y-59838386D01*
X178346654Y-59850188D01*
X178753472Y-59932570D01*
X178799117Y-60000883D01*
X181387043Y-62588810D01*
X181288366Y-62826452D01*
X181287637Y-63661883D01*
X181606669Y-64434000D01*
X182196893Y-65025255D01*
X182968452Y-65345634D01*
X183803883Y-65346363D01*
X184576000Y-65027331D01*
X185167255Y-64437107D01*
X185487634Y-63665548D01*
X185488363Y-62830117D01*
X185169331Y-62058000D01*
X184579107Y-61466745D01*
X183807548Y-61146366D01*
X183479847Y-61146080D01*
X182250791Y-59917025D01*
X182619079Y-59917346D01*
X183354429Y-59613506D01*
X183917529Y-59051388D01*
X184222652Y-58316570D01*
X184223346Y-57520921D01*
X183919506Y-56785571D01*
X183357388Y-56222471D01*
X182622570Y-55917348D01*
X181826921Y-55916654D01*
X181262423Y-56149900D01*
X181019346Y-55983812D01*
X180583000Y-55895450D01*
X178783000Y-55895450D01*
X178375364Y-55972152D01*
X178000976Y-56213064D01*
X177749812Y-56580654D01*
X177667430Y-56987471D01*
X177599117Y-57033116D01*
X176468234Y-58164000D01*
X174422785Y-58164000D01*
X174423346Y-57520921D01*
X174119506Y-56785571D01*
X173557388Y-56222471D01*
X172822570Y-55917348D01*
X172026921Y-55916654D01*
X171462423Y-56149900D01*
X171219346Y-55983812D01*
X170783000Y-55895450D01*
X168983000Y-55895450D01*
X168575364Y-55972152D01*
X168200976Y-56213064D01*
X167949812Y-56580654D01*
X167861450Y-57017000D01*
X167861450Y-58817000D01*
X167938152Y-59224636D01*
X168179064Y-59599024D01*
X168546654Y-59850188D01*
X168930000Y-59927817D01*
X168930000Y-62873715D01*
X168922364Y-62875152D01*
X168547976Y-63116064D01*
X168296812Y-63483654D01*
X168208450Y-63920000D01*
X168208450Y-64620400D01*
X167592966Y-64620400D01*
X164050983Y-61078417D01*
X163645454Y-60807451D01*
X163167100Y-60712300D01*
X161566506Y-60712300D01*
X161653783Y-60653983D01*
X162390968Y-59916798D01*
X163019079Y-59917346D01*
X163754429Y-59613506D01*
X164317529Y-59051388D01*
X164622652Y-58316570D01*
X164623346Y-57520921D01*
X164319506Y-56785571D01*
X163757388Y-56222471D01*
X163022570Y-55917348D01*
X162226921Y-55916654D01*
X161662423Y-56149900D01*
X161419346Y-55983812D01*
X160983000Y-55895450D01*
X159183000Y-55895450D01*
X158775364Y-55972152D01*
X158400976Y-56213064D01*
X158149812Y-56580654D01*
X158061450Y-57017000D01*
X158061450Y-58520100D01*
X154738139Y-58520100D01*
X154822652Y-58316570D01*
X154823346Y-57520921D01*
X154519506Y-56785571D01*
X153957388Y-56222471D01*
X153222570Y-55917348D01*
X152426921Y-55916654D01*
X151862423Y-56149900D01*
X151619346Y-55983812D01*
X151183000Y-55895450D01*
X149383000Y-55895450D01*
X148975364Y-55972152D01*
X148600976Y-56213064D01*
X148349812Y-56580654D01*
X148261450Y-57017000D01*
X148261450Y-58817000D01*
X148338152Y-59224636D01*
X148579064Y-59599024D01*
X148946654Y-59850188D01*
X149092509Y-59879724D01*
X140454817Y-68517417D01*
X140183851Y-68922946D01*
X140088700Y-69401300D01*
X140088700Y-73005033D01*
X138799000Y-74294733D01*
X138799000Y-63908766D01*
X142790969Y-59916798D01*
X143419079Y-59917346D01*
X144154429Y-59613506D01*
X144717529Y-59051388D01*
X145022652Y-58316570D01*
X145023346Y-57520921D01*
X144719506Y-56785571D01*
X144157388Y-56222471D01*
X143422570Y-55917348D01*
X142626921Y-55916654D01*
X142062423Y-56149900D01*
X141819346Y-55983812D01*
X141383000Y-55895450D01*
X139583000Y-55895450D01*
X139175364Y-55972152D01*
X138800976Y-56213064D01*
X138549812Y-56580654D01*
X138461450Y-57017000D01*
X138461450Y-58817000D01*
X138538152Y-59224636D01*
X138779064Y-59599024D01*
X139146654Y-59850188D01*
X139292509Y-59879724D01*
X136665117Y-62507117D01*
X136599000Y-62606068D01*
X136599000Y-60043000D01*
X136503849Y-59564646D01*
X136480129Y-59529146D01*
X136232883Y-59159116D01*
X135222798Y-58149032D01*
X135223346Y-57520921D01*
X134919506Y-56785571D01*
X134357388Y-56222471D01*
X133622570Y-55917348D01*
X132826921Y-55916654D01*
X132262423Y-56149900D01*
X132019346Y-55983812D01*
X131583000Y-55895450D01*
X129783000Y-55895450D01*
X129699000Y-55911256D01*
X129699000Y-55531000D01*
X191448448Y-55531000D01*
X191095380Y-55601230D01*
G36*
X204125406Y-69942099D02*
X204229639Y-70098094D01*
X200201628Y-74126106D01*
X200090594Y-73567901D01*
X199986361Y-73411905D01*
X204014372Y-69383894D01*
X204125406Y-69942099D01*
X204125406Y-69942099D01*
G37*
X204125406Y-69942099D02*
X204229639Y-70098094D01*
X200201628Y-74126106D01*
X200090594Y-73567901D01*
X199986361Y-73411905D01*
X204014372Y-69383894D01*
X204125406Y-69942099D01*
G36*
X173743000Y-67784149D02*
X173612274Y-67871497D01*
X173200406Y-68487901D01*
X173055777Y-69215000D01*
X173200406Y-69942099D01*
X173563161Y-70485000D01*
X173200406Y-71027901D01*
X173055777Y-71755000D01*
X173151898Y-72238235D01*
X172284700Y-73105433D01*
X172284700Y-68123066D01*
X173603883Y-66803884D01*
X173743000Y-66595680D01*
X173743000Y-67784149D01*
X173743000Y-67784149D01*
G37*
X173743000Y-67784149D02*
X173612274Y-67871497D01*
X173200406Y-68487901D01*
X173055777Y-69215000D01*
X173200406Y-69942099D01*
X173563161Y-70485000D01*
X173200406Y-71027901D01*
X173055777Y-71755000D01*
X173151898Y-72238235D01*
X172284700Y-73105433D01*
X172284700Y-68123066D01*
X173603883Y-66803884D01*
X173743000Y-66595680D01*
X173743000Y-67784149D01*
G36*
X155205101Y-70572457D02*
X155762056Y-70572943D01*
X155856467Y-70533933D01*
X156772633Y-71450100D01*
X150946400Y-71450100D01*
X150500060Y-71538883D01*
X150468046Y-71545251D01*
X150062516Y-71816217D01*
X150028031Y-71850702D01*
X149399921Y-71850154D01*
X148835423Y-72083400D01*
X148680572Y-71977594D01*
X150235467Y-70422700D01*
X154844447Y-70422700D01*
X155205101Y-70572457D01*
X155205101Y-70572457D01*
G37*
X155205101Y-70572457D02*
X155762056Y-70572943D01*
X155856467Y-70533933D01*
X156772633Y-71450100D01*
X150946400Y-71450100D01*
X150500060Y-71538883D01*
X150468046Y-71545251D01*
X150062516Y-71816217D01*
X150028031Y-71850702D01*
X149399921Y-71850154D01*
X148835423Y-72083400D01*
X148680572Y-71977594D01*
X150235467Y-70422700D01*
X154844447Y-70422700D01*
X155205101Y-70572457D01*
G36*
X151146855Y-65251572D02*
X151150000Y-65256000D01*
X151150000Y-65413715D01*
X151142364Y-65415152D01*
X150767976Y-65656064D01*
X150516812Y-66023654D01*
X150428450Y-66460000D01*
X150428450Y-67922700D01*
X149717700Y-67922700D01*
X149239346Y-68017851D01*
X148833817Y-68288816D01*
X146277225Y-70845408D01*
X146274249Y-70830446D01*
X146230854Y-70765501D01*
X146003283Y-70424916D01*
X145827707Y-70249341D01*
X146052883Y-70098883D01*
X146323849Y-69693354D01*
X146377864Y-69421802D01*
X150947268Y-64852398D01*
X151146855Y-65251572D01*
X151146855Y-65251572D01*
G37*
X151146855Y-65251572D02*
X151150000Y-65256000D01*
X151150000Y-65413715D01*
X151142364Y-65415152D01*
X150767976Y-65656064D01*
X150516812Y-66023654D01*
X150428450Y-66460000D01*
X150428450Y-67922700D01*
X149717700Y-67922700D01*
X149239346Y-68017851D01*
X148833817Y-68288816D01*
X146277225Y-70845408D01*
X146274249Y-70830446D01*
X146230854Y-70765501D01*
X146003283Y-70424916D01*
X145827707Y-70249341D01*
X146052883Y-70098883D01*
X146323849Y-69693354D01*
X146377864Y-69421802D01*
X150947268Y-64852398D01*
X151146855Y-65251572D01*
G36*
X207892509Y-68979724D02*
X207822374Y-69049859D01*
X207804895Y-68961982D01*
X207892509Y-68979724D01*
X207892509Y-68979724D01*
G37*
X207892509Y-68979724D02*
X207822374Y-69049859D01*
X207804895Y-68961982D01*
X207892509Y-68979724D01*
G36*
X197199117Y-58800884D02*
X197266945Y-58846205D01*
X197338152Y-59224636D01*
X197579064Y-59599024D01*
X197946654Y-59850188D01*
X198383000Y-59938550D01*
X200183000Y-59938550D01*
X200573000Y-59865166D01*
X200573000Y-67162233D01*
X199980369Y-67754864D01*
X199901936Y-67632976D01*
X199534346Y-67381812D01*
X199243177Y-67322849D01*
X199181883Y-67231116D01*
X193273000Y-61322234D01*
X193273000Y-59495142D01*
X193717529Y-59051388D01*
X194022652Y-58316570D01*
X194022919Y-58010800D01*
X196409034Y-58010800D01*
X197199117Y-58800884D01*
X197199117Y-58800884D01*
G37*
X197199117Y-58800884D02*
X197266945Y-58846205D01*
X197338152Y-59224636D01*
X197579064Y-59599024D01*
X197946654Y-59850188D01*
X198383000Y-59938550D01*
X200183000Y-59938550D01*
X200573000Y-59865166D01*
X200573000Y-67162233D01*
X199980369Y-67754864D01*
X199901936Y-67632976D01*
X199534346Y-67381812D01*
X199243177Y-67322849D01*
X199181883Y-67231116D01*
X193273000Y-61322234D01*
X193273000Y-59495142D01*
X193717529Y-59051388D01*
X194022652Y-58316570D01*
X194022919Y-58010800D01*
X196409034Y-58010800D01*
X197199117Y-58800884D01*
G36*
X165911404Y-67533571D02*
X165790976Y-67611064D01*
X165698530Y-67746363D01*
X164884971Y-66932805D01*
X164864849Y-66831646D01*
X164593883Y-66426117D01*
X164188354Y-66155151D01*
X164102675Y-66138108D01*
X163938858Y-65892939D01*
X163810000Y-65806839D01*
X163810000Y-65432166D01*
X165911404Y-67533571D01*
X165911404Y-67533571D01*
G37*
X165911404Y-67533571D02*
X165790976Y-67611064D01*
X165698530Y-67746363D01*
X164884971Y-66932805D01*
X164864849Y-66831646D01*
X164593883Y-66426117D01*
X164188354Y-66155151D01*
X164102675Y-66138108D01*
X163938858Y-65892939D01*
X163810000Y-65806839D01*
X163810000Y-65432166D01*
X165911404Y-67533571D01*
G36*
X207061450Y-67712954D02*
X206682322Y-67459629D01*
X206062023Y-67336244D01*
X207061450Y-66336817D01*
X207061450Y-67712954D01*
X207061450Y-67712954D01*
G37*
X207061450Y-67712954D02*
X206682322Y-67459629D01*
X206062023Y-67336244D01*
X207061450Y-66336817D01*
X207061450Y-67712954D01*
G36*
X212468750Y-55578835D02*
X212574503Y-55649497D01*
X212645165Y-55755250D01*
X212693000Y-55995730D01*
X212693000Y-56195735D01*
X212022570Y-55917348D01*
X211226921Y-55916654D01*
X210662423Y-56149900D01*
X210419346Y-55983812D01*
X209983000Y-55895450D01*
X208183000Y-55895450D01*
X207775364Y-55972152D01*
X207400976Y-56213064D01*
X207149812Y-56580654D01*
X207061450Y-57017000D01*
X207061450Y-58817000D01*
X207138152Y-59224636D01*
X207379064Y-59599024D01*
X207746654Y-59850188D01*
X208183000Y-59938550D01*
X209924183Y-59938550D01*
X203073000Y-66789734D01*
X203073000Y-59495142D01*
X203517529Y-59051388D01*
X203822652Y-58316570D01*
X203823346Y-57520921D01*
X203519506Y-56785571D01*
X202957388Y-56222471D01*
X202222570Y-55917348D01*
X201426921Y-55916654D01*
X200862423Y-56149900D01*
X200619346Y-55983812D01*
X200183000Y-55895450D01*
X198383000Y-55895450D01*
X197975364Y-55972152D01*
X197933109Y-55999343D01*
X197810683Y-55876917D01*
X197405154Y-55605951D01*
X197381420Y-55601230D01*
X197028352Y-55531000D01*
X212228270Y-55531000D01*
X212468750Y-55578835D01*
X212468750Y-55578835D01*
G37*
X212468750Y-55578835D02*
X212574503Y-55649497D01*
X212645165Y-55755250D01*
X212693000Y-55995730D01*
X212693000Y-56195735D01*
X212022570Y-55917348D01*
X211226921Y-55916654D01*
X210662423Y-56149900D01*
X210419346Y-55983812D01*
X209983000Y-55895450D01*
X208183000Y-55895450D01*
X207775364Y-55972152D01*
X207400976Y-56213064D01*
X207149812Y-56580654D01*
X207061450Y-57017000D01*
X207061450Y-58817000D01*
X207138152Y-59224636D01*
X207379064Y-59599024D01*
X207746654Y-59850188D01*
X208183000Y-59938550D01*
X209924183Y-59938550D01*
X203073000Y-66789734D01*
X203073000Y-59495142D01*
X203517529Y-59051388D01*
X203822652Y-58316570D01*
X203823346Y-57520921D01*
X203519506Y-56785571D01*
X202957388Y-56222471D01*
X202222570Y-55917348D01*
X201426921Y-55916654D01*
X200862423Y-56149900D01*
X200619346Y-55983812D01*
X200183000Y-55895450D01*
X198383000Y-55895450D01*
X197975364Y-55972152D01*
X197933109Y-55999343D01*
X197810683Y-55876917D01*
X197405154Y-55605951D01*
X197381420Y-55601230D01*
X197028352Y-55531000D01*
X212228270Y-55531000D01*
X212468750Y-55578835D01*
G36*
X212693000Y-65295735D02*
X212022570Y-65017348D01*
X211226921Y-65016654D01*
X210662423Y-65249900D01*
X210419346Y-65083812D01*
X209983000Y-64995450D01*
X208402817Y-64995450D01*
X212506883Y-60891384D01*
X212693000Y-60612840D01*
X212693000Y-65295735D01*
X212693000Y-65295735D01*
G37*
X212693000Y-65295735D02*
X212022570Y-65017348D01*
X211226921Y-65016654D01*
X210662423Y-65249900D01*
X210419346Y-65083812D01*
X209983000Y-64995450D01*
X208402817Y-64995450D01*
X212506883Y-60891384D01*
X212693000Y-60612840D01*
X212693000Y-65295735D01*
G36*
X132823430Y-59916652D02*
X133455437Y-59917203D01*
X134099000Y-60560767D01*
X134099000Y-65215179D01*
X133622570Y-65017348D01*
X132826921Y-65016654D01*
X132262423Y-65249900D01*
X132019346Y-65083812D01*
X131933000Y-65066327D01*
X131933000Y-59872693D01*
X131990636Y-59861848D01*
X132265499Y-59684979D01*
X132823430Y-59916652D01*
X132823430Y-59916652D01*
G37*
X132823430Y-59916652D02*
X133455437Y-59917203D01*
X134099000Y-60560767D01*
X134099000Y-65215179D01*
X133622570Y-65017348D01*
X132826921Y-65016654D01*
X132262423Y-65249900D01*
X132019346Y-65083812D01*
X131933000Y-65066327D01*
X131933000Y-59872693D01*
X131990636Y-59861848D01*
X132265499Y-59684979D01*
X132823430Y-59916652D01*
M02*
