G04 #@! TF.FileFunction,Copper,L2,Bot,Signal*
%FSLAX46Y46*%
G04 Gerber Fmt 4.6, Leading zero omitted, Abs format (unit mm)*
G04 Created by KiCad (PCBNEW 4.0.7) date 08/16/18 21:07:37*
%MOMM*%
%LPD*%
G01*
G04 APERTURE LIST*
%ADD10C,0.100000*%
%ADD11R,1.800000X1.800000*%
%ADD12C,1.800000*%
%ADD13R,1.700000X1.700000*%
%ADD14O,1.700000X1.700000*%
%ADD15R,1.600000X1.600000*%
%ADD16O,1.600000X1.600000*%
%ADD17C,2.000000*%
%ADD18C,2.500000*%
%ADD19C,0.600000*%
%ADD20C,0.300000*%
%ADD21C,0.200000*%
G04 APERTURE END LIST*
D10*
D11*
X130683000Y-85217000D03*
D12*
X133223000Y-85217000D03*
D11*
X130683000Y-76117000D03*
D12*
X133223000Y-76117000D03*
D11*
X130683000Y-67017000D03*
D12*
X133223000Y-67017000D03*
D11*
X130683000Y-57917000D03*
D12*
X133223000Y-57917000D03*
D11*
X150283000Y-57917000D03*
D12*
X152823000Y-57917000D03*
D11*
X160083000Y-57917000D03*
D12*
X162623000Y-57917000D03*
D11*
X169883000Y-57917000D03*
D12*
X172423000Y-57917000D03*
D11*
X179683000Y-57917000D03*
D12*
X182223000Y-57917000D03*
D11*
X189483000Y-57917000D03*
D12*
X192023000Y-57917000D03*
D11*
X199283000Y-57917000D03*
D12*
X201823000Y-57917000D03*
D11*
X209083000Y-57917000D03*
D12*
X211623000Y-57917000D03*
D11*
X209083000Y-76117000D03*
D12*
X211623000Y-76117000D03*
D11*
X209083000Y-85217000D03*
D12*
X211623000Y-85217000D03*
D11*
X192557000Y-85217000D03*
D12*
X195097000Y-85217000D03*
D11*
X192557000Y-73837800D03*
D12*
X195097000Y-73837800D03*
D11*
X185369000Y-73837800D03*
D12*
X187909000Y-73837800D03*
D11*
X178156000Y-73837800D03*
D12*
X180696000Y-73837800D03*
D11*
X178156000Y-83037800D03*
D12*
X180696000Y-83037800D03*
D11*
X178156000Y-120699000D03*
D12*
X180696000Y-120699000D03*
D11*
X178156000Y-129899000D03*
D12*
X180696000Y-129899000D03*
D11*
X188156000Y-129899000D03*
D12*
X190696000Y-129899000D03*
D11*
X188150000Y-146558000D03*
D12*
X190690000Y-146558000D03*
D11*
X178950000Y-146558000D03*
D12*
X181490000Y-146558000D03*
D11*
X169926000Y-146558000D03*
D12*
X172466000Y-146558000D03*
D11*
X160902000Y-146558000D03*
D12*
X163442000Y-146558000D03*
D11*
X151877000Y-129899000D03*
D12*
X154417000Y-129899000D03*
D11*
X161734000Y-129921000D03*
D12*
X164274000Y-129921000D03*
D11*
X161734000Y-120699000D03*
D12*
X164274000Y-120699000D03*
D13*
X168656000Y-93345000D03*
D14*
X171196000Y-93345000D03*
X173736000Y-93345000D03*
D15*
X167450000Y-122618000D03*
D16*
X175070000Y-130238000D03*
X167450000Y-125158000D03*
X175070000Y-127698000D03*
X167450000Y-127698000D03*
X175070000Y-125158000D03*
X167450000Y-130238000D03*
X175070000Y-122618000D03*
D11*
X140483000Y-57917000D03*
D12*
X143023000Y-57917000D03*
D11*
X209083000Y-67017000D03*
D12*
X211623000Y-67017000D03*
D11*
X178156000Y-92237800D03*
D12*
X180696000Y-92237800D03*
D11*
X151877000Y-146558000D03*
D12*
X154417000Y-146558000D03*
D11*
X161734000Y-92237800D03*
D12*
X164274000Y-92237800D03*
D11*
X161734000Y-83037800D03*
D12*
X164274000Y-83037800D03*
D11*
X161734000Y-73837800D03*
D12*
X164274000Y-73837800D03*
D11*
X154496000Y-73850500D03*
D12*
X157036000Y-73850500D03*
D11*
X147256000Y-73850500D03*
D12*
X149796000Y-73850500D03*
D11*
X147256000Y-85217000D03*
D12*
X149796000Y-85217000D03*
D17*
X183388000Y-67746000D03*
X183388000Y-63246000D03*
X189888000Y-67746000D03*
X189888000Y-63246000D03*
D18*
X171196000Y-99569000D03*
X171196000Y-119069000D03*
D13*
X152400000Y-67310000D03*
D14*
X154940000Y-67310000D03*
X157480000Y-67310000D03*
X160020000Y-67310000D03*
X162560000Y-67310000D03*
D13*
X170180000Y-64770000D03*
D14*
X172720000Y-64770000D03*
D15*
X198298000Y-69215000D03*
D16*
X205918000Y-86995000D03*
X198298000Y-71755000D03*
X205918000Y-84455000D03*
X198298000Y-74295000D03*
X205918000Y-81915000D03*
X198298000Y-76835000D03*
X205918000Y-79375000D03*
X198298000Y-79375000D03*
X205918000Y-76835000D03*
X198298000Y-81915000D03*
X205918000Y-74295000D03*
X198298000Y-84455000D03*
X205918000Y-71755000D03*
X198298000Y-86995000D03*
X205918000Y-69215000D03*
D15*
X167373000Y-69215000D03*
D16*
X174993000Y-86995000D03*
X167373000Y-71755000D03*
X174993000Y-84455000D03*
X167373000Y-74295000D03*
X174993000Y-81915000D03*
X167373000Y-76835000D03*
X174993000Y-79375000D03*
X167373000Y-79375000D03*
X174993000Y-76835000D03*
X167373000Y-81915000D03*
X174993000Y-74295000D03*
X167373000Y-84455000D03*
X174993000Y-71755000D03*
X167373000Y-86995000D03*
X174993000Y-69215000D03*
D15*
X136449000Y-69215000D03*
D16*
X144069000Y-86995000D03*
X136449000Y-71755000D03*
X144069000Y-84455000D03*
X136449000Y-74295000D03*
X144069000Y-81915000D03*
X136449000Y-76835000D03*
X144069000Y-79375000D03*
X136449000Y-79375000D03*
X144069000Y-76835000D03*
X136449000Y-81915000D03*
X144069000Y-74295000D03*
X136449000Y-84455000D03*
X144069000Y-71755000D03*
X136449000Y-86995000D03*
X144069000Y-69215000D03*
D15*
X173418000Y-142002000D03*
D16*
X191198000Y-134382000D03*
X175958000Y-142002000D03*
X188658000Y-134382000D03*
X178498000Y-142002000D03*
X186118000Y-134382000D03*
X181038000Y-142002000D03*
X183578000Y-134382000D03*
X183578000Y-142002000D03*
X181038000Y-134382000D03*
X186118000Y-142002000D03*
X178498000Y-134382000D03*
X188658000Y-142002000D03*
X175958000Y-134382000D03*
X191198000Y-142002000D03*
X173418000Y-134382000D03*
D15*
X151511000Y-141922000D03*
D16*
X169291000Y-134302000D03*
X154051000Y-141922000D03*
X166751000Y-134302000D03*
X156591000Y-141922000D03*
X164211000Y-134302000D03*
X159131000Y-141922000D03*
X161671000Y-134302000D03*
X161671000Y-141922000D03*
X159131000Y-134302000D03*
X164211000Y-141922000D03*
X156591000Y-134302000D03*
X166751000Y-141922000D03*
X154051000Y-134302000D03*
X169291000Y-141922000D03*
X151511000Y-134302000D03*
D19*
X167046200Y-103734400D03*
X179525400Y-91085000D03*
X172086000Y-82953700D03*
X176016900Y-131240800D03*
X181889800Y-81916600D03*
X168681300Y-73148100D03*
X179407000Y-136363700D03*
X159139400Y-137125900D03*
X158786200Y-127586800D03*
X159556300Y-75783400D03*
X171585000Y-90001000D03*
X182454900Y-85741900D03*
X155484800Y-69172700D03*
X169460300Y-91405700D03*
X166858500Y-91485500D03*
D20*
X133223000Y-76002500D02*
X133223000Y-76117000D01*
X136200500Y-73025000D02*
X133223000Y-76002500D01*
X136665000Y-73025000D02*
X136200500Y-73025000D01*
X137515100Y-72174900D02*
X136665000Y-73025000D01*
X137515100Y-70281100D02*
X137515100Y-72174900D01*
X136449000Y-69215000D02*
X137515100Y-70281100D01*
X133223000Y-67979000D02*
X133223000Y-67017000D01*
X135899000Y-70655000D02*
X133223000Y-67979000D01*
X136449000Y-70655000D02*
X135899000Y-70655000D01*
X136449000Y-71755000D02*
X136449000Y-70655000D01*
X171128100Y-59211900D02*
X172423000Y-57917000D01*
X152577700Y-59211900D02*
X171128100Y-59211900D01*
X137549000Y-74240600D02*
X152577700Y-59211900D01*
X137549000Y-82392600D02*
X137549000Y-74240600D01*
X136586600Y-83355000D02*
X137549000Y-82392600D01*
X136449000Y-83355000D02*
X136586600Y-83355000D01*
X136449000Y-84455000D02*
X136449000Y-83355000D01*
X183373400Y-56766600D02*
X182223000Y-57917000D01*
X194972000Y-56766600D02*
X183373400Y-56766600D01*
X206980200Y-68774800D02*
X194972000Y-56766600D01*
X206980200Y-69725700D02*
X206980200Y-68774800D01*
X206050900Y-70655000D02*
X206980200Y-69725700D01*
X205918000Y-70655000D02*
X206050900Y-70655000D01*
X205918000Y-71755000D02*
X205918000Y-70655000D01*
X209465000Y-78275000D02*
X211623000Y-76117000D01*
X200498000Y-78275000D02*
X209465000Y-78275000D01*
X199398000Y-79375000D02*
X200498000Y-78275000D01*
X198298000Y-79375000D02*
X199398000Y-79375000D01*
X209421000Y-83015000D02*
X211623000Y-85217000D01*
X200498000Y-83015000D02*
X209421000Y-83015000D01*
X199398000Y-81915000D02*
X200498000Y-83015000D01*
X198298000Y-81915000D02*
X199398000Y-81915000D01*
X195859000Y-84455000D02*
X195097000Y-85217000D01*
X198298000Y-84455000D02*
X195859000Y-84455000D01*
X193014200Y-71755000D02*
X195097000Y-73837800D01*
X174993000Y-71755000D02*
X193014200Y-71755000D01*
X186742800Y-72671600D02*
X187909000Y-73837800D01*
X176444700Y-72671600D02*
X186742800Y-72671600D01*
X176260200Y-72856100D02*
X176444700Y-72671600D01*
X172114100Y-72856100D02*
X176260200Y-72856100D01*
X168473000Y-69215000D02*
X172114100Y-72856100D01*
X167373000Y-69215000D02*
X168473000Y-69215000D01*
X179149500Y-75384300D02*
X180696000Y-73837800D01*
X172102300Y-75384300D02*
X179149500Y-75384300D01*
X168473000Y-71755000D02*
X172102300Y-75384300D01*
X167373000Y-71755000D02*
X168473000Y-71755000D01*
X178227200Y-80569000D02*
X180696000Y-83037800D01*
X174472000Y-80569000D02*
X178227200Y-80569000D01*
X168473000Y-74570000D02*
X174472000Y-80569000D01*
X168473000Y-74295000D02*
X168473000Y-74570000D01*
X167373000Y-74295000D02*
X168473000Y-74295000D01*
X167373000Y-76835000D02*
X167373000Y-77935000D01*
X167845500Y-77935000D02*
X167373000Y-77935000D01*
X172636300Y-82725800D02*
X167845500Y-77935000D01*
X172636300Y-83651100D02*
X172636300Y-82725800D01*
X174710200Y-85725000D02*
X172636300Y-83651100D01*
X175219100Y-85725000D02*
X174710200Y-85725000D01*
X180696000Y-91201900D02*
X175219100Y-85725000D01*
X180696000Y-92237800D02*
X180696000Y-91201900D01*
X167046300Y-103734400D02*
X167046200Y-103734400D01*
X167046300Y-107049300D02*
X167046300Y-103734400D01*
X180696000Y-120699000D02*
X167046300Y-107049300D01*
X177505500Y-91085000D02*
X179525400Y-91085000D01*
X168473000Y-82052500D02*
X177505500Y-91085000D01*
X168473000Y-81915000D02*
X168473000Y-82052500D01*
X167373000Y-81915000D02*
X168473000Y-81915000D01*
X167373000Y-84455000D02*
X167373000Y-85555000D01*
X167917200Y-85555000D02*
X167373000Y-85555000D01*
X172312000Y-89949800D02*
X167917200Y-85555000D01*
X172312000Y-95676700D02*
X172312000Y-89949800D01*
X169671400Y-98317300D02*
X172312000Y-95676700D01*
X169671400Y-107901800D02*
X169671400Y-98317300D01*
X182534700Y-120765100D02*
X169671400Y-107901800D01*
X182534700Y-126589300D02*
X182534700Y-120765100D01*
X183695900Y-127750500D02*
X182534700Y-126589300D01*
X188547500Y-127750500D02*
X183695900Y-127750500D01*
X190696000Y-129899000D02*
X188547500Y-127750500D01*
X166947700Y-143052300D02*
X163442000Y-146558000D01*
X176472800Y-143052300D02*
X166947700Y-143052300D01*
X177398000Y-142127100D02*
X176472800Y-143052300D01*
X177398000Y-142002000D02*
X177398000Y-142127100D01*
X178498000Y-142002000D02*
X177398000Y-142002000D01*
X155567400Y-147708400D02*
X154417000Y-146558000D01*
X165615800Y-147708400D02*
X155567400Y-147708400D01*
X168869200Y-144455000D02*
X165615800Y-147708400D01*
X177622500Y-144455000D02*
X168869200Y-144455000D01*
X179938000Y-142139500D02*
X177622500Y-144455000D01*
X179938000Y-142002000D02*
X179938000Y-142139500D01*
X181038000Y-142002000D02*
X179938000Y-142002000D01*
X150446900Y-133869100D02*
X154417000Y-129899000D01*
X150446900Y-134731200D02*
X150446900Y-133869100D01*
X156186900Y-140471200D02*
X150446900Y-134731200D01*
X181084700Y-140471200D02*
X156186900Y-140471200D01*
X182478000Y-141864500D02*
X181084700Y-140471200D01*
X182478000Y-142002000D02*
X182478000Y-141864500D01*
X183578000Y-142002000D02*
X182478000Y-142002000D01*
X175460400Y-120699000D02*
X164274000Y-120699000D01*
X186193600Y-131432200D02*
X175460400Y-120699000D01*
X189738100Y-131432200D02*
X186193600Y-131432200D01*
X192253300Y-133947400D02*
X189738100Y-131432200D01*
X192253300Y-137306700D02*
X192253300Y-133947400D01*
X188658000Y-140902000D02*
X192253300Y-137306700D01*
X188658000Y-142002000D02*
X188658000Y-140902000D01*
X143955000Y-85895000D02*
X144069000Y-85895000D01*
X142579400Y-84519400D02*
X143955000Y-85895000D01*
X142579400Y-71752200D02*
X142579400Y-84519400D01*
X143846600Y-70485000D02*
X142579400Y-71752200D01*
X145471800Y-70485000D02*
X143846600Y-70485000D01*
X150619800Y-65337000D02*
X145471800Y-70485000D01*
X166252000Y-65337000D02*
X150619800Y-65337000D01*
X171619600Y-70704600D02*
X166252000Y-65337000D01*
X201227600Y-70704600D02*
X171619600Y-70704600D01*
X204818000Y-74295000D02*
X201227600Y-70704600D01*
X205918000Y-74295000D02*
X204818000Y-74295000D01*
X144069000Y-86995000D02*
X144069000Y-85895000D01*
X144069000Y-81915000D02*
X144069000Y-80815000D01*
X154940000Y-67310000D02*
X154940000Y-68460000D01*
X169853300Y-80721000D02*
X172086000Y-82953700D01*
X167233600Y-80721000D02*
X169853300Y-80721000D01*
X163084100Y-76571500D02*
X167233600Y-80721000D01*
X155047400Y-76571500D02*
X163084100Y-76571500D01*
X151881000Y-73405100D02*
X155047400Y-76571500D01*
X144471100Y-80815000D02*
X151881000Y-73405100D01*
X144069000Y-80815000D02*
X144471100Y-80815000D01*
X151881000Y-71519000D02*
X154940000Y-68460000D01*
X151881000Y-73405100D02*
X151881000Y-71519000D01*
X185018000Y-134268000D02*
X185018000Y-134382000D01*
X181990800Y-131240800D02*
X185018000Y-134268000D01*
X176016900Y-131240800D02*
X181990800Y-131240800D01*
X186118000Y-134382000D02*
X185018000Y-134382000D01*
X174993000Y-79375000D02*
X176093000Y-79375000D01*
X205918000Y-79375000D02*
X204818000Y-79375000D01*
X174993000Y-79375000D02*
X173893000Y-79375000D01*
X160595000Y-67310000D02*
X161170000Y-67310000D01*
X144069000Y-79375000D02*
X144069000Y-78275000D01*
X173893000Y-79137800D02*
X173893000Y-79375000D01*
X173892900Y-79137800D02*
X173893000Y-79137800D01*
X167560500Y-72805400D02*
X173892900Y-79137800D01*
X166449800Y-72805400D02*
X167560500Y-72805400D01*
X161170000Y-67525600D02*
X166449800Y-72805400D01*
X161170000Y-67310000D02*
X161170000Y-67525600D01*
X160020000Y-67310000D02*
X160595000Y-67310000D01*
X145008000Y-78275000D02*
X144069000Y-78275000D01*
X148406400Y-74876600D02*
X145008000Y-78275000D01*
X148406400Y-73364800D02*
X148406400Y-74876600D01*
X153528400Y-68242800D02*
X148406400Y-73364800D01*
X153528400Y-67157900D02*
X153528400Y-68242800D01*
X154486800Y-66199500D02*
X153528400Y-67157900D01*
X158027300Y-66199500D02*
X154486800Y-66199500D01*
X158870000Y-67042200D02*
X158027300Y-66199500D01*
X158870000Y-67310000D02*
X158870000Y-67042200D01*
X176093000Y-79375000D02*
X181889800Y-79375000D01*
X181889800Y-77471400D02*
X181889800Y-79375000D01*
X182634600Y-76726600D02*
X181889800Y-77471400D01*
X193905600Y-76726600D02*
X182634600Y-76726600D01*
X197614800Y-80435800D02*
X193905600Y-76726600D01*
X203757200Y-80435800D02*
X197614800Y-80435800D01*
X204818000Y-79375000D02*
X203757200Y-80435800D01*
X181889800Y-79375000D02*
X181889800Y-81916600D01*
X160020000Y-67310000D02*
X158870000Y-67310000D01*
X162771000Y-134416000D02*
X162771000Y-134302000D01*
X163837200Y-135482200D02*
X162771000Y-134416000D01*
X178944400Y-135482200D02*
X163837200Y-135482200D01*
X179013500Y-135413100D02*
X178944400Y-135482200D01*
X179800600Y-135413100D02*
X179013500Y-135413100D01*
X179869700Y-135482200D02*
X179800600Y-135413100D01*
X181515300Y-135482200D02*
X179869700Y-135482200D01*
X182478000Y-134519500D02*
X181515300Y-135482200D01*
X182478000Y-134382000D02*
X182478000Y-134519500D01*
X183578000Y-134382000D02*
X182478000Y-134382000D01*
X161671000Y-134302000D02*
X162771000Y-134302000D01*
X205918000Y-76835000D02*
X204818000Y-76835000D01*
X172368200Y-76835000D02*
X174993000Y-76835000D01*
X168681300Y-73148100D02*
X172368200Y-76835000D01*
X203767700Y-75784700D02*
X204818000Y-76835000D01*
X177143300Y-75784700D02*
X203767700Y-75784700D01*
X176093000Y-76835000D02*
X177143300Y-75784700D01*
X174993000Y-76835000D02*
X176093000Y-76835000D01*
X159901600Y-136363700D02*
X159139400Y-137125900D01*
X179407000Y-136363700D02*
X159901600Y-136363700D01*
X143990600Y-75735000D02*
X144069000Y-75735000D01*
X142979900Y-74724300D02*
X143990600Y-75735000D01*
X142979900Y-73816500D02*
X142979900Y-74724300D01*
X143873600Y-72922800D02*
X142979900Y-73816500D01*
X144386800Y-72922800D02*
X143873600Y-72922800D01*
X151514400Y-65795200D02*
X144386800Y-72922800D01*
X161045200Y-65795200D02*
X151514400Y-65795200D01*
X162560000Y-67310000D02*
X161045200Y-65795200D01*
X144069000Y-76835000D02*
X144069000Y-75735000D01*
X203767700Y-70265300D02*
X204818000Y-69215000D01*
X177143300Y-70265300D02*
X203767700Y-70265300D01*
X176093000Y-69215000D02*
X177143300Y-70265300D01*
X174993000Y-69215000D02*
X176093000Y-69215000D01*
X205918000Y-69215000D02*
X204818000Y-69215000D01*
X173418000Y-134382000D02*
X173418000Y-133282000D01*
X151511000Y-134302000D02*
X152611000Y-134302000D01*
X153553800Y-133228200D02*
X173364200Y-133228200D01*
X152611000Y-134171000D02*
X153553800Y-133228200D01*
X152611000Y-134302000D02*
X152611000Y-134171000D01*
X173364200Y-133228200D02*
X173418000Y-133282000D01*
X173364200Y-122618000D02*
X173364200Y-133228200D01*
X175070000Y-122618000D02*
X173364200Y-122618000D01*
X173364200Y-122618000D02*
X167450000Y-122618000D01*
X191198000Y-134382000D02*
X190098000Y-134382000D01*
X156591000Y-134302000D02*
X157691000Y-134302000D01*
X157691000Y-134416000D02*
X157691000Y-134302000D01*
X159157600Y-135882600D02*
X157691000Y-134416000D01*
X179110000Y-135882600D02*
X159157600Y-135882600D01*
X179179200Y-135813400D02*
X179110000Y-135882600D01*
X179634900Y-135813400D02*
X179179200Y-135813400D01*
X179704100Y-135882600D02*
X179634900Y-135813400D01*
X188734900Y-135882600D02*
X179704100Y-135882600D01*
X190098000Y-134519500D02*
X188734900Y-135882600D01*
X190098000Y-134382000D02*
X190098000Y-134519500D01*
X159406400Y-127586800D02*
X158786200Y-127586800D01*
X160252500Y-126740700D02*
X159406400Y-127586800D01*
X160252500Y-96259300D02*
X160252500Y-126740700D01*
X164274000Y-92237800D02*
X160252500Y-96259300D01*
X162328400Y-75783400D02*
X164274000Y-73837800D01*
X159556300Y-75783400D02*
X162328400Y-75783400D01*
X149796000Y-79152800D02*
X149796000Y-85217000D01*
X151739200Y-77209600D02*
X149796000Y-79152800D01*
X159637700Y-77209600D02*
X151739200Y-77209600D01*
X159772400Y-77344300D02*
X159637700Y-77209600D01*
X159772400Y-126654500D02*
X159772400Y-77344300D01*
X159599400Y-126827500D02*
X159772400Y-126654500D01*
X152784100Y-126827500D02*
X159599400Y-126827500D01*
X150045500Y-129566100D02*
X152784100Y-126827500D01*
X150045500Y-134960300D02*
X150045500Y-129566100D01*
X155956800Y-140871600D02*
X150045500Y-134960300D01*
X159645700Y-140871600D02*
X155956800Y-140871600D01*
X160571000Y-141796900D02*
X159645700Y-140871600D01*
X160571000Y-141922000D02*
X160571000Y-141796900D01*
X161671000Y-141922000D02*
X160571000Y-141922000D01*
X166491100Y-114364100D02*
X171196000Y-119069000D01*
X166491100Y-99199900D02*
X166491100Y-114364100D01*
X171196000Y-94495000D02*
X166491100Y-99199900D01*
X171196000Y-93345000D02*
X171196000Y-94495000D01*
X189888000Y-67746000D02*
X183388000Y-67746000D01*
X167336000Y-126598000D02*
X167450000Y-126598000D01*
X163075400Y-122337400D02*
X167336000Y-126598000D01*
X163075400Y-101002000D02*
X163075400Y-122337400D01*
X169756400Y-94321000D02*
X163075400Y-101002000D01*
X169756400Y-93228300D02*
X169756400Y-94321000D01*
X171585000Y-91399700D02*
X169756400Y-93228300D01*
X171585000Y-90001000D02*
X171585000Y-91399700D01*
X167450000Y-127698000D02*
X167450000Y-126598000D01*
X192557000Y-85217000D02*
X193757000Y-85217000D01*
X131883000Y-85517000D02*
X131883000Y-85217000D01*
X133361000Y-86995000D02*
X131883000Y-85517000D01*
X136449000Y-86995000D02*
X133361000Y-86995000D01*
X130683000Y-85217000D02*
X131883000Y-85217000D01*
X131883000Y-57625500D02*
X131883000Y-57917000D01*
X132757100Y-56751400D02*
X131883000Y-57625500D01*
X138117400Y-56751400D02*
X132757100Y-56751400D01*
X139283000Y-57917000D02*
X138117400Y-56751400D01*
X140483000Y-57917000D02*
X139283000Y-57917000D01*
X130683000Y-57917000D02*
X131883000Y-57917000D01*
X141683000Y-57625500D02*
X141683000Y-57917000D01*
X142557100Y-56751400D02*
X141683000Y-57625500D01*
X147917400Y-56751400D02*
X142557100Y-56751400D01*
X149083000Y-57917000D02*
X147917400Y-56751400D01*
X150283000Y-57917000D02*
X149083000Y-57917000D01*
X140483000Y-57917000D02*
X141683000Y-57917000D01*
X151483000Y-57625500D02*
X151483000Y-57917000D01*
X152357100Y-56751400D02*
X151483000Y-57625500D01*
X157717400Y-56751400D02*
X152357100Y-56751400D01*
X158883000Y-57917000D02*
X157717400Y-56751400D01*
X160083000Y-57917000D02*
X158883000Y-57917000D01*
X150283000Y-57917000D02*
X151483000Y-57917000D01*
X167450000Y-130238000D02*
X166350000Y-130238000D01*
X165513500Y-131074500D02*
X166350000Y-130238000D01*
X163799000Y-131074500D02*
X165513500Y-131074500D01*
X162934000Y-130209500D02*
X163799000Y-131074500D01*
X162934000Y-129921000D02*
X162934000Y-130209500D01*
X189483000Y-57917000D02*
X189483000Y-59117000D01*
X189483000Y-63246000D02*
X189483000Y-59117000D01*
X183388000Y-63246000D02*
X189483000Y-63246000D01*
X189483000Y-63246000D02*
X189888000Y-63246000D01*
X209083000Y-85217000D02*
X207883000Y-85217000D01*
X193757000Y-85517000D02*
X193757000Y-85217000D01*
X195235000Y-86995000D02*
X193757000Y-85517000D01*
X198298000Y-86995000D02*
X195235000Y-86995000D01*
X207205000Y-85895000D02*
X207883000Y-85217000D01*
X200498000Y-85895000D02*
X207205000Y-85895000D01*
X199398000Y-86995000D02*
X200498000Y-85895000D01*
X198298000Y-86995000D02*
X199398000Y-86995000D01*
X153077000Y-146267000D02*
X153077000Y-146558000D01*
X153949400Y-145394600D02*
X153077000Y-146267000D01*
X158538600Y-145394600D02*
X153949400Y-145394600D01*
X159702000Y-146558000D02*
X158538600Y-145394600D01*
X160902000Y-146558000D02*
X159702000Y-146558000D01*
X151877000Y-146558000D02*
X153077000Y-146558000D01*
X161922200Y-129921000D02*
X162934000Y-129921000D01*
X161922200Y-129921000D02*
X161910000Y-129921000D01*
X186569000Y-74127600D02*
X186569000Y-73837800D01*
X187438100Y-74996700D02*
X186569000Y-74127600D01*
X190198100Y-74996700D02*
X187438100Y-74996700D01*
X191357000Y-73837800D02*
X190198100Y-74996700D01*
X192557000Y-73837800D02*
X191357000Y-73837800D01*
X185369000Y-73837800D02*
X186569000Y-73837800D01*
X167373000Y-86995000D02*
X166398000Y-86995000D01*
X161734000Y-92237800D02*
X161734000Y-91037800D01*
X161734000Y-83037800D02*
X162934000Y-83037800D01*
X161283000Y-57628700D02*
X161283000Y-57917000D01*
X162147500Y-56764200D02*
X161283000Y-57628700D01*
X167530200Y-56764200D02*
X162147500Y-56764200D01*
X168683000Y-57917000D02*
X167530200Y-56764200D01*
X169883000Y-57917000D02*
X168683000Y-57917000D01*
X160083000Y-57917000D02*
X161283000Y-57917000D01*
X185278100Y-129899000D02*
X188156000Y-129899000D01*
X178156000Y-122776900D02*
X185278100Y-129899000D01*
X178156000Y-120699000D02*
X178156000Y-122776900D01*
X199283000Y-57917000D02*
X200483000Y-57917000D01*
X209083000Y-57917000D02*
X207883000Y-57917000D01*
X201351200Y-59074800D02*
X206725200Y-59074800D01*
X200483000Y-58206600D02*
X201351200Y-59074800D01*
X200483000Y-57917000D02*
X200483000Y-58206600D01*
X206725200Y-59074800D02*
X207883000Y-57917000D01*
X209083000Y-67017000D02*
X209083000Y-76117000D01*
X206725200Y-63459200D02*
X206725200Y-59074800D01*
X209083000Y-65817000D02*
X206725200Y-63459200D01*
X209083000Y-67017000D02*
X209083000Y-65817000D01*
X159366300Y-75005500D02*
X160534000Y-73837800D01*
X156562100Y-75005500D02*
X159366300Y-75005500D01*
X155696000Y-74139400D02*
X156562100Y-75005500D01*
X155696000Y-73850500D02*
X155696000Y-74139400D01*
X154496000Y-73850500D02*
X155696000Y-73850500D01*
X161734000Y-73837800D02*
X160534000Y-73837800D01*
X162934000Y-84642600D02*
X165286400Y-86995000D01*
X162934000Y-83037800D02*
X162934000Y-84642600D01*
X166398000Y-86995000D02*
X165286400Y-86995000D01*
X161734000Y-90547400D02*
X161734000Y-91037800D01*
X165286400Y-86995000D02*
X161734000Y-90547400D01*
X171126000Y-146845700D02*
X171126000Y-146558000D01*
X171988600Y-147708300D02*
X171126000Y-146845700D01*
X176599700Y-147708300D02*
X171988600Y-147708300D01*
X177750000Y-146558000D02*
X176599700Y-147708300D01*
X178950000Y-146558000D02*
X177750000Y-146558000D01*
X169926000Y-146558000D02*
X171126000Y-146558000D01*
X177327200Y-93437800D02*
X171196000Y-99569000D01*
X178156000Y-93437800D02*
X177327200Y-93437800D01*
X178156000Y-92237800D02*
X178156000Y-93437800D01*
X180150000Y-146848900D02*
X180150000Y-146558000D01*
X181022100Y-147721000D02*
X180150000Y-146848900D01*
X185787000Y-147721000D02*
X181022100Y-147721000D01*
X186950000Y-146558000D02*
X185787000Y-147721000D01*
X188150000Y-146558000D02*
X186950000Y-146558000D01*
X178950000Y-146558000D02*
X180150000Y-146558000D01*
X188942000Y-145358000D02*
X188150000Y-145358000D01*
X191198000Y-143102000D02*
X188942000Y-145358000D01*
X191198000Y-142002000D02*
X191198000Y-143102000D01*
X188150000Y-146558000D02*
X188150000Y-145358000D01*
X161768000Y-129921000D02*
X161910000Y-129921000D01*
X161768000Y-129921000D02*
X161734000Y-129921000D01*
X161734000Y-129921000D02*
X161734000Y-128721000D01*
X161734000Y-120699000D02*
X161734000Y-121899000D01*
X161734000Y-128721000D02*
X161640500Y-128627400D01*
X153077000Y-129599000D02*
X153077000Y-129899000D01*
X154048500Y-128627500D02*
X153077000Y-129599000D01*
X161640400Y-128627500D02*
X154048500Y-128627500D01*
X161640500Y-128627400D02*
X161640400Y-128627500D01*
X151877000Y-129899000D02*
X153077000Y-129899000D01*
X161640500Y-121992500D02*
X161734000Y-121899000D01*
X161640500Y-128627400D02*
X161640500Y-121992500D01*
X145169000Y-73391000D02*
X145169000Y-74295000D01*
X151250000Y-67310000D02*
X145169000Y-73391000D01*
X144069000Y-74295000D02*
X145169000Y-74295000D01*
X152400000Y-67310000D02*
X151250000Y-67310000D01*
X156330000Y-68327500D02*
X156330000Y-67310000D01*
X155484800Y-69172700D02*
X156330000Y-68327500D01*
X156905000Y-67310000D02*
X157027100Y-67310000D01*
X156905000Y-67310000D02*
X156330000Y-67310000D01*
X182454900Y-85495400D02*
X181817900Y-84858400D01*
X182454900Y-85741900D02*
X182454900Y-85495400D01*
X200388000Y-84455000D02*
X205918000Y-84455000D01*
X199118000Y-83185000D02*
X200388000Y-84455000D01*
X196598000Y-83185000D02*
X199118000Y-83185000D01*
X190581300Y-77168300D02*
X196598000Y-83185000D01*
X182759200Y-77168300D02*
X190581300Y-77168300D01*
X182544700Y-77382800D02*
X182759200Y-77168300D01*
X182544700Y-84131600D02*
X182544700Y-77382800D01*
X181817900Y-84858400D02*
X182544700Y-84131600D01*
X176496400Y-84858400D02*
X176093000Y-84455000D01*
X181817900Y-84858400D02*
X176496400Y-84858400D01*
X174993000Y-84455000D02*
X176093000Y-84455000D01*
X157480000Y-67310000D02*
X157253600Y-67310000D01*
X157253600Y-67310000D02*
X157027100Y-67310000D01*
X174879000Y-83355000D02*
X174993000Y-83355000D01*
X173871000Y-82347000D02*
X174879000Y-83355000D01*
X173871000Y-81779000D02*
X173871000Y-82347000D01*
X167876600Y-75784600D02*
X173871000Y-81779000D01*
X167375900Y-75784600D02*
X167876600Y-75784600D01*
X165885200Y-74293900D02*
X167375900Y-75784600D01*
X165885200Y-73744900D02*
X165885200Y-74293900D01*
X162539900Y-70399600D02*
X165885200Y-73744900D01*
X160343200Y-70399600D02*
X162539900Y-70399600D01*
X157253600Y-67310000D02*
X160343200Y-70399600D01*
X174993000Y-84455000D02*
X174993000Y-83355000D01*
X166938300Y-91405700D02*
X166858500Y-91485500D01*
X169460300Y-91405700D02*
X166938300Y-91405700D01*
D21*
G36*
X191865000Y-148728271D02*
X191836501Y-148871547D01*
X191820897Y-148894899D01*
X191797548Y-148910500D01*
X191654271Y-148939000D01*
X185947874Y-148939000D01*
X186265354Y-148875849D01*
X186670883Y-148604883D01*
X186796381Y-148479386D01*
X186813654Y-148491188D01*
X187250000Y-148579550D01*
X189050000Y-148579550D01*
X189457636Y-148502848D01*
X189732499Y-148325979D01*
X190290430Y-148557652D01*
X191086079Y-148558346D01*
X191821429Y-148254506D01*
X191865000Y-148211011D01*
X191865000Y-148728271D01*
X191865000Y-148728271D01*
G37*
X191865000Y-148728271D02*
X191836501Y-148871547D01*
X191820897Y-148894899D01*
X191797548Y-148910500D01*
X191654271Y-148939000D01*
X185947874Y-148939000D01*
X186265354Y-148875849D01*
X186670883Y-148604883D01*
X186796381Y-148479386D01*
X186813654Y-148491188D01*
X187250000Y-148579550D01*
X189050000Y-148579550D01*
X189457636Y-148502848D01*
X189732499Y-148325979D01*
X190290430Y-148557652D01*
X191086079Y-148558346D01*
X191821429Y-148254506D01*
X191865000Y-148211011D01*
X191865000Y-148728271D01*
G36*
X177613654Y-148491188D02*
X178050000Y-148579550D01*
X179850000Y-148579550D01*
X180071252Y-148537919D01*
X180138217Y-148604884D01*
X180543746Y-148875849D01*
X180861226Y-148939000D01*
X176696727Y-148939000D01*
X177078054Y-148863149D01*
X177483583Y-148592183D01*
X177596381Y-148479386D01*
X177613654Y-148491188D01*
X177613654Y-148491188D01*
G37*
X177613654Y-148491188D02*
X178050000Y-148579550D01*
X179850000Y-148579550D01*
X180071252Y-148537919D01*
X180138217Y-148604884D01*
X180543746Y-148875849D01*
X180861226Y-148939000D01*
X176696727Y-148939000D01*
X177078054Y-148863149D01*
X177483583Y-148592183D01*
X177596381Y-148479386D01*
X177613654Y-148491188D01*
G36*
X154017430Y-148557652D02*
X154649436Y-148558203D01*
X154683516Y-148592283D01*
X155088896Y-148863149D01*
X155089046Y-148863249D01*
X155469870Y-148939000D01*
X151245730Y-148939000D01*
X151005250Y-148891165D01*
X150899497Y-148820503D01*
X150828835Y-148714750D01*
X150794594Y-148542612D01*
X150977000Y-148579550D01*
X152777000Y-148579550D01*
X153184636Y-148502848D01*
X153459499Y-148325979D01*
X154017430Y-148557652D01*
X154017430Y-148557652D01*
G37*
X154017430Y-148557652D02*
X154649436Y-148558203D01*
X154683516Y-148592283D01*
X155088896Y-148863149D01*
X155089046Y-148863249D01*
X155469870Y-148939000D01*
X151245730Y-148939000D01*
X151005250Y-148891165D01*
X150899497Y-148820503D01*
X150828835Y-148714750D01*
X150794594Y-148542612D01*
X150977000Y-148579550D01*
X152777000Y-148579550D01*
X153184636Y-148502848D01*
X153459499Y-148325979D01*
X154017430Y-148557652D01*
G36*
X167904450Y-147458000D02*
X167981152Y-147865636D01*
X168222064Y-148240024D01*
X168589654Y-148491188D01*
X169026000Y-148579550D01*
X170826000Y-148579550D01*
X171049945Y-148537412D01*
X171104717Y-148592184D01*
X171483936Y-148845569D01*
X171510246Y-148863149D01*
X171891573Y-148939000D01*
X165713330Y-148939000D01*
X166094154Y-148863249D01*
X166499683Y-148592283D01*
X167904450Y-147187516D01*
X167904450Y-147458000D01*
X167904450Y-147458000D01*
G37*
X167904450Y-147458000D02*
X167981152Y-147865636D01*
X168222064Y-148240024D01*
X168589654Y-148491188D01*
X169026000Y-148579550D01*
X170826000Y-148579550D01*
X171049945Y-148537412D01*
X171104717Y-148592184D01*
X171483936Y-148845569D01*
X171510246Y-148863149D01*
X171891573Y-148939000D01*
X165713330Y-148939000D01*
X166094154Y-148863249D01*
X166499683Y-148592283D01*
X167904450Y-147187516D01*
X167904450Y-147458000D01*
G36*
X187930901Y-143794594D02*
X188603793Y-143928441D01*
X188424234Y-144108000D01*
X188150000Y-144108000D01*
X187671646Y-144203151D01*
X187266117Y-144474117D01*
X187220796Y-144541945D01*
X186842364Y-144613152D01*
X186467976Y-144854064D01*
X186216812Y-145221654D01*
X186134430Y-145628471D01*
X186066116Y-145674117D01*
X185269234Y-146471000D01*
X183490076Y-146471000D01*
X183490346Y-146161921D01*
X183186506Y-145426571D01*
X182624388Y-144863471D01*
X181889570Y-144558348D01*
X181093921Y-144557654D01*
X180529423Y-144790900D01*
X180286346Y-144624812D01*
X179850000Y-144536450D01*
X179308816Y-144536450D01*
X180154906Y-143690361D01*
X180310901Y-143794594D01*
X181038000Y-143939223D01*
X181765099Y-143794594D01*
X182308000Y-143431839D01*
X182850901Y-143794594D01*
X183578000Y-143939223D01*
X184305099Y-143794594D01*
X184848000Y-143431839D01*
X185390901Y-143794594D01*
X186118000Y-143939223D01*
X186845099Y-143794594D01*
X187388000Y-143431839D01*
X187930901Y-143794594D01*
X187930901Y-143794594D01*
G37*
X187930901Y-143794594D02*
X188603793Y-143928441D01*
X188424234Y-144108000D01*
X188150000Y-144108000D01*
X187671646Y-144203151D01*
X187266117Y-144474117D01*
X187220796Y-144541945D01*
X186842364Y-144613152D01*
X186467976Y-144854064D01*
X186216812Y-145221654D01*
X186134430Y-145628471D01*
X186066116Y-145674117D01*
X185269234Y-146471000D01*
X183490076Y-146471000D01*
X183490346Y-146161921D01*
X183186506Y-145426571D01*
X182624388Y-144863471D01*
X181889570Y-144558348D01*
X181093921Y-144557654D01*
X180529423Y-144790900D01*
X180286346Y-144624812D01*
X179850000Y-144536450D01*
X179308816Y-144536450D01*
X180154906Y-143690361D01*
X180310901Y-143794594D01*
X181038000Y-143939223D01*
X181765099Y-143794594D01*
X182308000Y-143431839D01*
X182850901Y-143794594D01*
X183578000Y-143939223D01*
X184305099Y-143794594D01*
X184848000Y-143431839D01*
X185390901Y-143794594D01*
X186118000Y-143939223D01*
X186845099Y-143794594D01*
X187388000Y-143431839D01*
X187930901Y-143794594D01*
G36*
X176081934Y-146458300D02*
X174466087Y-146458300D01*
X174466346Y-146161921D01*
X174277550Y-145705000D01*
X176835233Y-145705000D01*
X176081934Y-146458300D01*
X176081934Y-146458300D01*
G37*
X176081934Y-146458300D02*
X174466087Y-146458300D01*
X174466346Y-146161921D01*
X174277550Y-145705000D01*
X176835233Y-145705000D01*
X176081934Y-146458300D01*
G36*
X191865000Y-144904154D02*
X191824388Y-144863471D01*
X191386233Y-144681533D01*
X191865000Y-144202767D01*
X191865000Y-144904154D01*
X191865000Y-144904154D01*
G37*
X191865000Y-144904154D02*
X191824388Y-144863471D01*
X191386233Y-144681533D01*
X191865000Y-144202767D01*
X191865000Y-144904154D01*
G36*
X163483901Y-143714594D02*
X164211000Y-143859223D01*
X164413238Y-143818995D01*
X163674032Y-144558202D01*
X163045921Y-144557654D01*
X162481423Y-144790900D01*
X162238346Y-144624812D01*
X161802000Y-144536450D01*
X160002000Y-144536450D01*
X159594364Y-144613152D01*
X159552109Y-144640343D01*
X159422483Y-144510717D01*
X159016954Y-144239751D01*
X158538600Y-144144600D01*
X153949400Y-144144600D01*
X153471046Y-144239751D01*
X153065517Y-144510716D01*
X152995530Y-144580703D01*
X152777000Y-144536450D01*
X150977000Y-144536450D01*
X150781000Y-144573330D01*
X150781000Y-143843550D01*
X152311000Y-143843550D01*
X152718636Y-143766848D01*
X153066805Y-143542808D01*
X153323901Y-143714594D01*
X154051000Y-143859223D01*
X154778099Y-143714594D01*
X155321000Y-143351839D01*
X155863901Y-143714594D01*
X156591000Y-143859223D01*
X157318099Y-143714594D01*
X157861000Y-143351839D01*
X158403901Y-143714594D01*
X159131000Y-143859223D01*
X159858099Y-143714594D01*
X160401000Y-143351839D01*
X160943901Y-143714594D01*
X161671000Y-143859223D01*
X162398099Y-143714594D01*
X162941000Y-143351839D01*
X163483901Y-143714594D01*
X163483901Y-143714594D01*
G37*
X163483901Y-143714594D02*
X164211000Y-143859223D01*
X164413238Y-143818995D01*
X163674032Y-144558202D01*
X163045921Y-144557654D01*
X162481423Y-144790900D01*
X162238346Y-144624812D01*
X161802000Y-144536450D01*
X160002000Y-144536450D01*
X159594364Y-144613152D01*
X159552109Y-144640343D01*
X159422483Y-144510717D01*
X159016954Y-144239751D01*
X158538600Y-144144600D01*
X153949400Y-144144600D01*
X153471046Y-144239751D01*
X153065517Y-144510716D01*
X152995530Y-144580703D01*
X152777000Y-144536450D01*
X150977000Y-144536450D01*
X150781000Y-144573330D01*
X150781000Y-143843550D01*
X152311000Y-143843550D01*
X152718636Y-143766848D01*
X153066805Y-143542808D01*
X153323901Y-143714594D01*
X154051000Y-143859223D01*
X154778099Y-143714594D01*
X155321000Y-143351839D01*
X155863901Y-143714594D01*
X156591000Y-143859223D01*
X157318099Y-143714594D01*
X157861000Y-143351839D01*
X158403901Y-143714594D01*
X159131000Y-143859223D01*
X159858099Y-143714594D01*
X160401000Y-143351839D01*
X160943901Y-143714594D01*
X161671000Y-143859223D01*
X162398099Y-143714594D01*
X162941000Y-143351839D01*
X163483901Y-143714594D01*
G36*
X171496450Y-141802300D02*
X171174594Y-141802300D01*
X171158463Y-141721200D01*
X171496450Y-141721200D01*
X171496450Y-141802300D01*
X171496450Y-141802300D01*
G37*
X171496450Y-141802300D02*
X171174594Y-141802300D01*
X171158463Y-141721200D01*
X171496450Y-141721200D01*
X171496450Y-141802300D01*
G36*
X155863901Y-136094594D02*
X156591000Y-136239223D01*
X157318099Y-136094594D01*
X157488182Y-135980948D01*
X157919732Y-136412499D01*
X157739643Y-136846201D01*
X157739157Y-137403156D01*
X157951845Y-137917900D01*
X158345328Y-138312070D01*
X158859701Y-138525657D01*
X159416656Y-138526143D01*
X159931400Y-138313455D01*
X160325570Y-137919972D01*
X160452746Y-137613700D01*
X178766647Y-137613700D01*
X179127301Y-137763457D01*
X179684256Y-137763943D01*
X180199000Y-137551255D01*
X180593170Y-137157772D01*
X180603622Y-137132600D01*
X188734900Y-137132600D01*
X189213254Y-137037449D01*
X189618783Y-136766483D01*
X190314905Y-136070361D01*
X190470901Y-136174594D01*
X191003300Y-136280495D01*
X191003300Y-136788934D01*
X187774117Y-140018117D01*
X187503151Y-140423646D01*
X187486732Y-140506190D01*
X187388000Y-140572161D01*
X186845099Y-140209406D01*
X186118000Y-140064777D01*
X185390901Y-140209406D01*
X184848000Y-140572161D01*
X184305099Y-140209406D01*
X183578000Y-140064777D01*
X182850901Y-140209406D01*
X182694905Y-140313639D01*
X181968583Y-139587317D01*
X181563054Y-139316351D01*
X181084700Y-139221200D01*
X156704667Y-139221200D01*
X153641169Y-136157703D01*
X154051000Y-136239223D01*
X154778099Y-136094594D01*
X155321000Y-135731839D01*
X155863901Y-136094594D01*
X155863901Y-136094594D01*
G37*
X155863901Y-136094594D02*
X156591000Y-136239223D01*
X157318099Y-136094594D01*
X157488182Y-135980948D01*
X157919732Y-136412499D01*
X157739643Y-136846201D01*
X157739157Y-137403156D01*
X157951845Y-137917900D01*
X158345328Y-138312070D01*
X158859701Y-138525657D01*
X159416656Y-138526143D01*
X159931400Y-138313455D01*
X160325570Y-137919972D01*
X160452746Y-137613700D01*
X178766647Y-137613700D01*
X179127301Y-137763457D01*
X179684256Y-137763943D01*
X180199000Y-137551255D01*
X180593170Y-137157772D01*
X180603622Y-137132600D01*
X188734900Y-137132600D01*
X189213254Y-137037449D01*
X189618783Y-136766483D01*
X190314905Y-136070361D01*
X190470901Y-136174594D01*
X191003300Y-136280495D01*
X191003300Y-136788934D01*
X187774117Y-140018117D01*
X187503151Y-140423646D01*
X187486732Y-140506190D01*
X187388000Y-140572161D01*
X186845099Y-140209406D01*
X186118000Y-140064777D01*
X185390901Y-140209406D01*
X184848000Y-140572161D01*
X184305099Y-140209406D01*
X183578000Y-140064777D01*
X182850901Y-140209406D01*
X182694905Y-140313639D01*
X181968583Y-139587317D01*
X181563054Y-139316351D01*
X181084700Y-139221200D01*
X156704667Y-139221200D01*
X153641169Y-136157703D01*
X154051000Y-136239223D01*
X154778099Y-136094594D01*
X155321000Y-135731839D01*
X155863901Y-136094594D01*
G36*
X153426443Y-140109009D02*
X153323901Y-140129406D01*
X153062441Y-140304108D01*
X152747346Y-140088812D01*
X152311000Y-140000450D01*
X150781000Y-140000450D01*
X150781000Y-137463566D01*
X153426443Y-140109009D01*
X153426443Y-140109009D01*
G37*
X153426443Y-140109009D02*
X153323901Y-140129406D01*
X153062441Y-140304108D01*
X152747346Y-140088812D01*
X152311000Y-140000450D01*
X150781000Y-140000450D01*
X150781000Y-137463566D01*
X153426443Y-140109009D01*
G36*
X191865000Y-140197452D02*
X191252207Y-140075559D01*
X191865000Y-139462766D01*
X191865000Y-140197452D01*
X191865000Y-140197452D01*
G37*
X191865000Y-140197452D02*
X191252207Y-140075559D01*
X191865000Y-139462766D01*
X191865000Y-140197452D01*
G36*
X177770901Y-132589406D02*
X177228000Y-132952161D01*
X176685099Y-132589406D01*
X176505559Y-132553693D01*
X176657772Y-132490800D01*
X178266627Y-132490800D01*
X177770901Y-132589406D01*
X177770901Y-132589406D01*
G37*
X177770901Y-132589406D02*
X177228000Y-132952161D01*
X176685099Y-132589406D01*
X176505559Y-132553693D01*
X176657772Y-132490800D01*
X178266627Y-132490800D01*
X177770901Y-132589406D01*
G36*
X174909978Y-132113574D02*
X175222828Y-132426970D01*
X175489932Y-132537882D01*
X175230901Y-132589406D01*
X174688000Y-132952161D01*
X174614200Y-132902849D01*
X174614200Y-132054740D01*
X174909978Y-132113574D01*
X174909978Y-132113574D01*
G37*
X174909978Y-132113574D02*
X175222828Y-132426970D01*
X175489932Y-132537882D01*
X175230901Y-132589406D01*
X174688000Y-132952161D01*
X174614200Y-132902849D01*
X174614200Y-132054740D01*
X174909978Y-132113574D01*
G36*
X180310901Y-132589406D02*
X179768000Y-132952161D01*
X179225099Y-132589406D01*
X178729373Y-132490800D01*
X180806627Y-132490800D01*
X180310901Y-132589406D01*
X180310901Y-132589406D01*
G37*
X180310901Y-132589406D02*
X179768000Y-132952161D01*
X179225099Y-132589406D01*
X178729373Y-132490800D01*
X180806627Y-132490800D01*
X180310901Y-132589406D01*
G36*
X187388000Y-132952161D02*
X186983975Y-132682200D01*
X187792025Y-132682200D01*
X187388000Y-132952161D01*
X187388000Y-132952161D01*
G37*
X187388000Y-132952161D02*
X186983975Y-132682200D01*
X187792025Y-132682200D01*
X187388000Y-132952161D01*
G36*
X185309717Y-132316083D02*
X185643559Y-132539149D01*
X185390901Y-132589406D01*
X185220818Y-132703052D01*
X182874683Y-130356917D01*
X182695705Y-130237328D01*
X182696172Y-129702538D01*
X185309717Y-132316083D01*
X185309717Y-132316083D01*
G37*
X185309717Y-132316083D02*
X185643559Y-132539149D01*
X185390901Y-132589406D01*
X185220818Y-132703052D01*
X182874683Y-130356917D01*
X182695705Y-130237328D01*
X182696172Y-129702538D01*
X185309717Y-132316083D01*
G36*
X181523603Y-132541370D02*
X181269373Y-132490800D01*
X181473034Y-132490800D01*
X181523603Y-132541370D01*
X181523603Y-132541370D01*
G37*
X181523603Y-132541370D02*
X181269373Y-132490800D01*
X181473034Y-132490800D01*
X181523603Y-132541370D01*
G36*
X159712450Y-130821000D02*
X159789152Y-131228636D01*
X160030064Y-131603024D01*
X160397654Y-131854188D01*
X160834000Y-131942550D01*
X162634000Y-131942550D01*
X162857272Y-131900539D01*
X162915117Y-131958384D01*
X162944774Y-131978200D01*
X154105567Y-131978200D01*
X154184969Y-131898798D01*
X154813079Y-131899346D01*
X155548429Y-131595506D01*
X156111529Y-131033388D01*
X156416652Y-130298570D01*
X156417019Y-129877500D01*
X159712450Y-129877500D01*
X159712450Y-130821000D01*
X159712450Y-130821000D01*
G37*
X159712450Y-130821000D02*
X159789152Y-131228636D01*
X160030064Y-131603024D01*
X160397654Y-131854188D01*
X160834000Y-131942550D01*
X162634000Y-131942550D01*
X162857272Y-131900539D01*
X162915117Y-131958384D01*
X162944774Y-131978200D01*
X154105567Y-131978200D01*
X154184969Y-131898798D01*
X154813079Y-131899346D01*
X155548429Y-131595506D01*
X156111529Y-131033388D01*
X156416652Y-130298570D01*
X156417019Y-129877500D01*
X159712450Y-129877500D01*
X159712450Y-130821000D01*
G36*
X166662973Y-131978200D02*
X166367725Y-131978200D01*
X166397383Y-131958383D01*
X166491884Y-131863882D01*
X166662973Y-131978200D01*
X166662973Y-131978200D01*
G37*
X166662973Y-131978200D02*
X166367725Y-131978200D01*
X166397383Y-131958383D01*
X166491884Y-131863882D01*
X166662973Y-131978200D01*
G36*
X172114200Y-131978200D02*
X168237027Y-131978200D01*
X168830726Y-131581503D01*
X169242594Y-130965099D01*
X169387223Y-130238000D01*
X169242594Y-129510901D01*
X168879839Y-128968000D01*
X169242594Y-128425099D01*
X169387223Y-127698000D01*
X169242594Y-126970901D01*
X168879839Y-126428000D01*
X169242594Y-125885099D01*
X169387223Y-125158000D01*
X169242594Y-124430901D01*
X169067892Y-124169441D01*
X169273859Y-123868000D01*
X172114200Y-123868000D01*
X172114200Y-131978200D01*
X172114200Y-131978200D01*
G37*
X172114200Y-131978200D02*
X168237027Y-131978200D01*
X168830726Y-131581503D01*
X169242594Y-130965099D01*
X169387223Y-130238000D01*
X169242594Y-129510901D01*
X168879839Y-128968000D01*
X169242594Y-128425099D01*
X169387223Y-127698000D01*
X169242594Y-126970901D01*
X168879839Y-126428000D01*
X169242594Y-125885099D01*
X169387223Y-125158000D01*
X169242594Y-124430901D01*
X169067892Y-124169441D01*
X169273859Y-123868000D01*
X172114200Y-123868000D01*
X172114200Y-131978200D01*
G36*
X191865000Y-131791334D02*
X191715444Y-131641777D01*
X191827429Y-131595506D01*
X191865000Y-131558001D01*
X191865000Y-131791334D01*
X191865000Y-131791334D01*
G37*
X191865000Y-131791334D02*
X191715444Y-131641777D01*
X191827429Y-131595506D01*
X191865000Y-131558001D01*
X191865000Y-131791334D01*
G36*
X165771052Y-126800818D02*
X165657406Y-126970901D01*
X165512777Y-127698000D01*
X165657406Y-128425099D01*
X165760112Y-128578810D01*
X165408388Y-128226471D01*
X164673570Y-127921348D01*
X163877921Y-127920654D01*
X163313423Y-128153900D01*
X163070346Y-127987812D01*
X162890500Y-127951392D01*
X162890500Y-123920266D01*
X165771052Y-126800818D01*
X165771052Y-126800818D01*
G37*
X165771052Y-126800818D02*
X165657406Y-126970901D01*
X165512777Y-127698000D01*
X165657406Y-128425099D01*
X165760112Y-128578810D01*
X165408388Y-128226471D01*
X164673570Y-127921348D01*
X163877921Y-127920654D01*
X163313423Y-128153900D01*
X163070346Y-127987812D01*
X162890500Y-127951392D01*
X162890500Y-123920266D01*
X165771052Y-126800818D01*
G36*
X191640750Y-127714835D02*
X191746503Y-127785497D01*
X191817165Y-127891250D01*
X191865000Y-128131730D01*
X191865000Y-128239143D01*
X191830388Y-128204471D01*
X191095570Y-127899348D01*
X190463563Y-127898797D01*
X190231766Y-127667000D01*
X191400270Y-127667000D01*
X191640750Y-127714835D01*
X191640750Y-127714835D01*
G37*
X191640750Y-127714835D02*
X191746503Y-127785497D01*
X191817165Y-127891250D01*
X191865000Y-128131730D01*
X191865000Y-128239143D01*
X191830388Y-128204471D01*
X191095570Y-127899348D01*
X190463563Y-127898797D01*
X190231766Y-127667000D01*
X191400270Y-127667000D01*
X191640750Y-127714835D01*
G36*
X180892805Y-127899171D02*
X180299921Y-127898654D01*
X179735423Y-128131900D01*
X179492346Y-127965812D01*
X179056000Y-127877450D01*
X177256000Y-127877450D01*
X176960467Y-127933058D01*
X177007223Y-127698000D01*
X176862594Y-126970901D01*
X176499839Y-126428000D01*
X176862594Y-125885099D01*
X177007223Y-125158000D01*
X176862594Y-124430901D01*
X176499839Y-123888000D01*
X176652765Y-123659131D01*
X180892805Y-127899171D01*
X180892805Y-127899171D01*
G37*
X180892805Y-127899171D02*
X180299921Y-127898654D01*
X179735423Y-128131900D01*
X179492346Y-127965812D01*
X179056000Y-127877450D01*
X177256000Y-127877450D01*
X176960467Y-127933058D01*
X177007223Y-127698000D01*
X176862594Y-126970901D01*
X176499839Y-126428000D01*
X176862594Y-125885099D01*
X177007223Y-125158000D01*
X176862594Y-124430901D01*
X176499839Y-123888000D01*
X176652765Y-123659131D01*
X180892805Y-127899171D01*
G36*
X180296430Y-122698652D02*
X181092079Y-122699346D01*
X181284700Y-122619757D01*
X181284700Y-124137834D01*
X179662651Y-122515785D01*
X179738499Y-122466979D01*
X180296430Y-122698652D01*
X180296430Y-122698652D01*
G37*
X180296430Y-122698652D02*
X181092079Y-122699346D01*
X181284700Y-122619757D01*
X181284700Y-124137834D01*
X179662651Y-122515785D01*
X179738499Y-122466979D01*
X180296430Y-122698652D01*
G36*
X165528450Y-123022684D02*
X165048678Y-122542912D01*
X165405429Y-122395506D01*
X165528450Y-122272700D01*
X165528450Y-123022684D01*
X165528450Y-123022684D01*
G37*
X165528450Y-123022684D02*
X165048678Y-122542912D01*
X165405429Y-122395506D01*
X165528450Y-122272700D01*
X165528450Y-123022684D01*
G36*
X176962003Y-118732769D02*
X176848364Y-118754152D01*
X176473976Y-118995064D01*
X176222812Y-119362654D01*
X176156584Y-119689700D01*
X175938754Y-119544151D01*
X175460400Y-119449000D01*
X173545669Y-119449000D01*
X173546407Y-118603607D01*
X173189395Y-117739571D01*
X172528906Y-117077929D01*
X171665495Y-116719409D01*
X170730607Y-116718593D01*
X170647641Y-116752874D01*
X167741100Y-113846334D01*
X167741100Y-109511866D01*
X176962003Y-118732769D01*
X176962003Y-118732769D01*
G37*
X176962003Y-118732769D02*
X176848364Y-118754152D01*
X176473976Y-118995064D01*
X176222812Y-119362654D01*
X176156584Y-119689700D01*
X175938754Y-119544151D01*
X175460400Y-119449000D01*
X173545669Y-119449000D01*
X173546407Y-118603607D01*
X173189395Y-117739571D01*
X172528906Y-117077929D01*
X171665495Y-116719409D01*
X170730607Y-116718593D01*
X170647641Y-116752874D01*
X167741100Y-113846334D01*
X167741100Y-109511866D01*
X176962003Y-118732769D01*
G36*
X165241100Y-114364100D02*
X165336251Y-114842454D01*
X165607217Y-115247983D01*
X168879367Y-118520134D01*
X168846409Y-118599505D01*
X168845668Y-119449000D01*
X165852142Y-119449000D01*
X165408388Y-119004471D01*
X164673570Y-118699348D01*
X164325400Y-118699044D01*
X164325400Y-101519766D01*
X165241100Y-100604066D01*
X165241100Y-114364100D01*
X165241100Y-114364100D01*
G37*
X165241100Y-114364100D02*
X165336251Y-114842454D01*
X165607217Y-115247983D01*
X168879367Y-118520134D01*
X168846409Y-118599505D01*
X168845668Y-119449000D01*
X165852142Y-119449000D01*
X165408388Y-119004471D01*
X164673570Y-118699348D01*
X164325400Y-118699044D01*
X164325400Y-101519766D01*
X165241100Y-100604066D01*
X165241100Y-114364100D01*
G36*
X166578801Y-92885257D02*
X166684450Y-92885349D01*
X166684450Y-94195000D01*
X166761152Y-94602636D01*
X167002064Y-94977024D01*
X167198435Y-95111199D01*
X162191517Y-100118117D01*
X161920551Y-100523646D01*
X161825400Y-101002000D01*
X161825400Y-118677450D01*
X161502500Y-118677450D01*
X161502500Y-96777066D01*
X164041969Y-94237598D01*
X164670079Y-94238146D01*
X165405429Y-93934306D01*
X165968529Y-93372188D01*
X166230735Y-92740727D01*
X166578801Y-92885257D01*
X166578801Y-92885257D01*
G37*
X166578801Y-92885257D02*
X166684450Y-92885349D01*
X166684450Y-94195000D01*
X166761152Y-94602636D01*
X167002064Y-94977024D01*
X167198435Y-95111199D01*
X162191517Y-100118117D01*
X161920551Y-100523646D01*
X161825400Y-101002000D01*
X161825400Y-118677450D01*
X161502500Y-118677450D01*
X161502500Y-96777066D01*
X164041969Y-94237598D01*
X164670079Y-94238146D01*
X165405429Y-93934306D01*
X165968529Y-93372188D01*
X166230735Y-92740727D01*
X166578801Y-92885257D01*
G36*
X181705000Y-118167633D02*
X170921400Y-107384034D01*
X170921400Y-101918761D01*
X171661393Y-101919407D01*
X172525429Y-101562395D01*
X173187071Y-100901906D01*
X173545591Y-100038495D01*
X173546407Y-99103607D01*
X173512126Y-99020640D01*
X177844967Y-94687800D01*
X178156000Y-94687800D01*
X178634354Y-94592649D01*
X179039883Y-94321683D01*
X179085204Y-94253855D01*
X179463636Y-94182648D01*
X179738499Y-94005779D01*
X180296430Y-94237452D01*
X181092079Y-94238146D01*
X181705000Y-93984893D01*
X181705000Y-118167633D01*
X181705000Y-118167633D01*
G37*
X181705000Y-118167633D02*
X170921400Y-107384034D01*
X170921400Y-101918761D01*
X171661393Y-101919407D01*
X172525429Y-101562395D01*
X173187071Y-100901906D01*
X173545591Y-100038495D01*
X173546407Y-99103607D01*
X173512126Y-99020640D01*
X177844967Y-94687800D01*
X178156000Y-94687800D01*
X178634354Y-94592649D01*
X179039883Y-94321683D01*
X179085204Y-94253855D01*
X179463636Y-94182648D01*
X179738499Y-94005779D01*
X180296430Y-94237452D01*
X181092079Y-94238146D01*
X181705000Y-93984893D01*
X181705000Y-118167633D01*
G36*
X168421400Y-106656634D02*
X168296300Y-106531534D01*
X168296300Y-104374512D01*
X168421400Y-104073239D01*
X168421400Y-106656634D01*
X168421400Y-106656634D01*
G37*
X168421400Y-106656634D02*
X168296300Y-106531534D01*
X168296300Y-104374512D01*
X168421400Y-104073239D01*
X168421400Y-106656634D01*
G36*
X168421400Y-103396535D02*
X168233755Y-102942400D01*
X167840272Y-102548230D01*
X167741100Y-102507050D01*
X167741100Y-99717666D01*
X168421400Y-99037366D01*
X168421400Y-103396535D01*
X168421400Y-103396535D01*
G37*
X168421400Y-103396535D02*
X168233755Y-102942400D01*
X167840272Y-102548230D01*
X167741100Y-102507050D01*
X167741100Y-99717666D01*
X168421400Y-99037366D01*
X168421400Y-103396535D01*
G36*
X173675971Y-95321262D02*
X173562000Y-95435233D01*
X173562000Y-95298592D01*
X173675971Y-95321262D01*
X173675971Y-95321262D01*
G37*
X173675971Y-95321262D02*
X173562000Y-95435233D01*
X173562000Y-95298592D01*
X173675971Y-95321262D01*
G36*
X176134450Y-91481716D02*
X176134450Y-92862783D01*
X175686000Y-93311233D01*
X175686000Y-93306797D01*
X175537565Y-92560564D01*
X175114858Y-91927939D01*
X174482233Y-91505232D01*
X173736000Y-91356797D01*
X173562000Y-91391408D01*
X173562000Y-89949800D01*
X173466849Y-89471446D01*
X173414133Y-89392551D01*
X173195884Y-89065917D01*
X169189895Y-85059929D01*
X169276628Y-84623894D01*
X176134450Y-91481716D01*
X176134450Y-91481716D01*
G37*
X176134450Y-91481716D02*
X176134450Y-92862783D01*
X175686000Y-93311233D01*
X175686000Y-93306797D01*
X175537565Y-92560564D01*
X175114858Y-91927939D01*
X174482233Y-91505232D01*
X173736000Y-91356797D01*
X173562000Y-91391408D01*
X173562000Y-89949800D01*
X173466849Y-89471446D01*
X173414133Y-89392551D01*
X173195884Y-89065917D01*
X169189895Y-85059929D01*
X169276628Y-84623894D01*
X176134450Y-91481716D01*
G36*
X170223530Y-89629096D02*
X170185243Y-89721301D01*
X170184833Y-90190655D01*
X169739999Y-90005943D01*
X169183044Y-90005457D01*
X168819428Y-90155700D01*
X167306674Y-90155700D01*
X167138199Y-90085743D01*
X166581244Y-90085257D01*
X166066500Y-90297945D01*
X165672330Y-90691428D01*
X165638240Y-90773525D01*
X165408388Y-90543271D01*
X164673570Y-90238148D01*
X163877921Y-90237454D01*
X163765093Y-90284074D01*
X165804167Y-88245000D01*
X165929797Y-88245000D01*
X165992274Y-88338503D01*
X166608678Y-88750371D01*
X167335777Y-88895000D01*
X167410223Y-88895000D01*
X168137322Y-88750371D01*
X168753726Y-88338503D01*
X168825508Y-88231074D01*
X170223530Y-89629096D01*
X170223530Y-89629096D01*
G37*
X170223530Y-89629096D02*
X170185243Y-89721301D01*
X170184833Y-90190655D01*
X169739999Y-90005943D01*
X169183044Y-90005457D01*
X168819428Y-90155700D01*
X167306674Y-90155700D01*
X167138199Y-90085743D01*
X166581244Y-90085257D01*
X166066500Y-90297945D01*
X165672330Y-90691428D01*
X165638240Y-90773525D01*
X165408388Y-90543271D01*
X164673570Y-90238148D01*
X163877921Y-90237454D01*
X163765093Y-90284074D01*
X165804167Y-88245000D01*
X165929797Y-88245000D01*
X165992274Y-88338503D01*
X166608678Y-88750371D01*
X167335777Y-88895000D01*
X167410223Y-88895000D01*
X168137322Y-88750371D01*
X168753726Y-88338503D01*
X168825508Y-88231074D01*
X170223530Y-89629096D01*
G36*
X181267345Y-86533900D02*
X181660828Y-86928070D01*
X181705000Y-86946412D01*
X181705000Y-90491205D01*
X181691996Y-90485806D01*
X181579883Y-90318016D01*
X177370266Y-86108400D01*
X181091532Y-86108400D01*
X181267345Y-86533900D01*
X181267345Y-86533900D01*
G37*
X181267345Y-86533900D02*
X181660828Y-86928070D01*
X181705000Y-86946412D01*
X181705000Y-90491205D01*
X181691996Y-90485806D01*
X181579883Y-90318016D01*
X177370266Y-86108400D01*
X181091532Y-86108400D01*
X181267345Y-86533900D01*
G36*
X161779151Y-85120954D02*
X162050117Y-85526483D01*
X163518634Y-86995000D01*
X161022400Y-89491234D01*
X161022400Y-85059350D01*
X161766897Y-85059350D01*
X161779151Y-85120954D01*
X161779151Y-85120954D01*
G37*
X161779151Y-85120954D02*
X162050117Y-85526483D01*
X163518634Y-86995000D01*
X161022400Y-89491234D01*
X161022400Y-85059350D01*
X161766897Y-85059350D01*
X161779151Y-85120954D01*
G36*
X132323233Y-87725000D02*
X130163730Y-87725000D01*
X129923250Y-87677165D01*
X129817497Y-87606503D01*
X129746835Y-87500750D01*
X129699000Y-87260270D01*
X129699000Y-87221540D01*
X129783000Y-87238550D01*
X131583000Y-87238550D01*
X131796593Y-87198360D01*
X132323233Y-87725000D01*
X132323233Y-87725000D01*
G37*
X132323233Y-87725000D02*
X130163730Y-87725000D01*
X129923250Y-87677165D01*
X129817497Y-87606503D01*
X129746835Y-87500750D01*
X129699000Y-87260270D01*
X129699000Y-87221540D01*
X129783000Y-87238550D01*
X131583000Y-87238550D01*
X131796593Y-87198360D01*
X132323233Y-87725000D01*
G36*
X204125406Y-87722099D02*
X204127344Y-87725000D01*
X200435766Y-87725000D01*
X201015767Y-87145000D01*
X204010614Y-87145000D01*
X204125406Y-87722099D01*
X204125406Y-87722099D01*
G37*
X204125406Y-87722099D02*
X204127344Y-87725000D01*
X200435766Y-87725000D01*
X201015767Y-87145000D01*
X204010614Y-87145000D01*
X204125406Y-87722099D01*
G36*
X194197233Y-87725000D02*
X191675000Y-87725000D01*
X191675000Y-87238550D01*
X193457000Y-87238550D01*
X193670593Y-87198360D01*
X194197233Y-87725000D01*
X194197233Y-87725000D01*
G37*
X194197233Y-87725000D02*
X191675000Y-87725000D01*
X191675000Y-87238550D01*
X193457000Y-87238550D01*
X193670593Y-87198360D01*
X194197233Y-87725000D01*
G36*
X149396430Y-87216652D02*
X150192079Y-87217346D01*
X150717000Y-87000453D01*
X150717000Y-87725000D01*
X145859656Y-87725000D01*
X145861594Y-87722099D01*
X145973197Y-87161031D01*
X146356000Y-87238550D01*
X148156000Y-87238550D01*
X148563636Y-87161848D01*
X148838499Y-86984979D01*
X149396430Y-87216652D01*
X149396430Y-87216652D01*
G37*
X149396430Y-87216652D02*
X150192079Y-87217346D01*
X150717000Y-87000453D01*
X150717000Y-87725000D01*
X145859656Y-87725000D01*
X145861594Y-87722099D01*
X145973197Y-87161031D01*
X146356000Y-87238550D01*
X148156000Y-87238550D01*
X148563636Y-87161848D01*
X148838499Y-86984979D01*
X149396430Y-87216652D01*
G36*
X141329400Y-84519400D02*
X141389377Y-84820921D01*
X141424551Y-84997754D01*
X141695517Y-85403283D01*
X142390052Y-86097818D01*
X142276406Y-86267901D01*
X142131777Y-86995000D01*
X142276406Y-87722099D01*
X142278344Y-87725000D01*
X138239656Y-87725000D01*
X138241594Y-87722099D01*
X138386223Y-86995000D01*
X138241594Y-86267901D01*
X137878839Y-85725000D01*
X138241594Y-85182099D01*
X138386223Y-84455000D01*
X138241594Y-83727901D01*
X138137401Y-83571965D01*
X138432883Y-83276484D01*
X138703849Y-82870954D01*
X138712919Y-82825354D01*
X138799000Y-82392600D01*
X138799000Y-74758366D01*
X141329400Y-72227966D01*
X141329400Y-84519400D01*
X141329400Y-84519400D01*
G37*
X141329400Y-84519400D02*
X141389377Y-84820921D01*
X141424551Y-84997754D01*
X141695517Y-85403283D01*
X142390052Y-86097818D01*
X142276406Y-86267901D01*
X142131777Y-86995000D01*
X142276406Y-87722099D01*
X142278344Y-87725000D01*
X138239656Y-87725000D01*
X138241594Y-87722099D01*
X138386223Y-86995000D01*
X138241594Y-86267901D01*
X137878839Y-85725000D01*
X138241594Y-85182099D01*
X138386223Y-84455000D01*
X138241594Y-83727901D01*
X138137401Y-83571965D01*
X138432883Y-83276484D01*
X138703849Y-82870954D01*
X138712919Y-82825354D01*
X138799000Y-82392600D01*
X138799000Y-74758366D01*
X141329400Y-72227966D01*
X141329400Y-84519400D01*
G36*
X212693000Y-87260270D02*
X212645165Y-87500750D01*
X212574503Y-87606503D01*
X212468750Y-87677165D01*
X212228270Y-87725000D01*
X207708656Y-87725000D01*
X207710594Y-87722099D01*
X207821346Y-87165313D01*
X208183000Y-87238550D01*
X209983000Y-87238550D01*
X210390636Y-87161848D01*
X210665499Y-86984979D01*
X211223430Y-87216652D01*
X212019079Y-87217346D01*
X212693000Y-86938888D01*
X212693000Y-87260270D01*
X212693000Y-87260270D01*
G37*
X212693000Y-87260270D02*
X212645165Y-87500750D01*
X212574503Y-87606503D01*
X212468750Y-87677165D01*
X212228270Y-87725000D01*
X207708656Y-87725000D01*
X207710594Y-87722099D01*
X207821346Y-87165313D01*
X208183000Y-87238550D01*
X209983000Y-87238550D01*
X210390636Y-87161848D01*
X210665499Y-86984979D01*
X211223430Y-87216652D01*
X212019079Y-87217346D01*
X212693000Y-86938888D01*
X212693000Y-87260270D01*
G36*
X165580406Y-85182099D02*
X165943161Y-85725000D01*
X165929797Y-85745000D01*
X165804166Y-85745000D01*
X164972397Y-84913231D01*
X165405429Y-84734306D01*
X165477103Y-84662757D01*
X165580406Y-85182099D01*
X165580406Y-85182099D01*
G37*
X165580406Y-85182099D02*
X165943161Y-85725000D01*
X165929797Y-85745000D01*
X165804166Y-85745000D01*
X164972397Y-84913231D01*
X165405429Y-84734306D01*
X165477103Y-84662757D01*
X165580406Y-85182099D01*
G36*
X134656406Y-77562099D02*
X135019161Y-78105000D01*
X134656406Y-78647901D01*
X134511777Y-79375000D01*
X134656406Y-80102099D01*
X135019161Y-80645000D01*
X134656406Y-81187901D01*
X134511777Y-81915000D01*
X134656406Y-82642099D01*
X135019161Y-83185000D01*
X134656406Y-83727901D01*
X134640797Y-83806375D01*
X134357388Y-83522471D01*
X133622570Y-83217348D01*
X132826921Y-83216654D01*
X132262423Y-83449900D01*
X132019346Y-83283812D01*
X131583000Y-83195450D01*
X129783000Y-83195450D01*
X129699000Y-83211256D01*
X129699000Y-78121540D01*
X129783000Y-78138550D01*
X131583000Y-78138550D01*
X131990636Y-78061848D01*
X132265499Y-77884979D01*
X132823430Y-78116652D01*
X133619079Y-78117346D01*
X134354429Y-77813506D01*
X134648101Y-77520346D01*
X134656406Y-77562099D01*
X134656406Y-77562099D01*
G37*
X134656406Y-77562099D02*
X135019161Y-78105000D01*
X134656406Y-78647901D01*
X134511777Y-79375000D01*
X134656406Y-80102099D01*
X135019161Y-80645000D01*
X134656406Y-81187901D01*
X134511777Y-81915000D01*
X134656406Y-82642099D01*
X135019161Y-83185000D01*
X134656406Y-83727901D01*
X134640797Y-83806375D01*
X134357388Y-83522471D01*
X133622570Y-83217348D01*
X132826921Y-83216654D01*
X132262423Y-83449900D01*
X132019346Y-83283812D01*
X131583000Y-83195450D01*
X129783000Y-83195450D01*
X129699000Y-83211256D01*
X129699000Y-78121540D01*
X129783000Y-78138550D01*
X131583000Y-78138550D01*
X131990636Y-78061848D01*
X132265499Y-77884979D01*
X132823430Y-78116652D01*
X133619079Y-78117346D01*
X134354429Y-77813506D01*
X134648101Y-77520346D01*
X134656406Y-77562099D01*
G36*
X212693000Y-83495735D02*
X212022570Y-83217348D01*
X211390563Y-83216797D01*
X210304883Y-82131117D01*
X209899354Y-81860151D01*
X209421000Y-81765000D01*
X207825386Y-81765000D01*
X207710594Y-81187901D01*
X207347839Y-80645000D01*
X207710594Y-80102099D01*
X207825386Y-79525000D01*
X209465000Y-79525000D01*
X209943354Y-79429849D01*
X210348883Y-79158883D01*
X211390968Y-78116798D01*
X212019079Y-78117346D01*
X212693000Y-77838888D01*
X212693000Y-83495735D01*
X212693000Y-83495735D01*
G37*
X212693000Y-83495735D02*
X212022570Y-83217348D01*
X211390563Y-83216797D01*
X210304883Y-82131117D01*
X209899354Y-81860151D01*
X209421000Y-81765000D01*
X207825386Y-81765000D01*
X207710594Y-81187901D01*
X207347839Y-80645000D01*
X207710594Y-80102099D01*
X207825386Y-79525000D01*
X209465000Y-79525000D01*
X209943354Y-79429849D01*
X210348883Y-79158883D01*
X211390968Y-78116798D01*
X212019079Y-78117346D01*
X212693000Y-77838888D01*
X212693000Y-83495735D01*
G36*
X194862028Y-83216795D02*
X194700921Y-83216654D01*
X194136423Y-83449900D01*
X193893346Y-83283812D01*
X193457000Y-83195450D01*
X191675000Y-83195450D01*
X191675000Y-80029766D01*
X194862028Y-83216795D01*
X194862028Y-83216795D01*
G37*
X194862028Y-83216795D02*
X194700921Y-83216654D01*
X194136423Y-83449900D01*
X193893346Y-83283812D01*
X193457000Y-83195450D01*
X191675000Y-83195450D01*
X191675000Y-80029766D01*
X194862028Y-83216795D01*
G36*
X152667733Y-75959600D02*
X151739200Y-75959600D01*
X151282866Y-76050371D01*
X151260846Y-76054751D01*
X150855317Y-76325716D01*
X148912117Y-78268917D01*
X148641151Y-78674446D01*
X148546000Y-79152800D01*
X148546000Y-83274427D01*
X148156000Y-83195450D01*
X146356000Y-83195450D01*
X145948364Y-83272152D01*
X145674726Y-83448233D01*
X145498839Y-83185000D01*
X145861594Y-82642099D01*
X146006223Y-81915000D01*
X145862319Y-81191547D01*
X151881000Y-75172867D01*
X152667733Y-75959600D01*
X152667733Y-75959600D01*
G37*
X152667733Y-75959600D02*
X151739200Y-75959600D01*
X151282866Y-76050371D01*
X151260846Y-76054751D01*
X150855317Y-76325716D01*
X148912117Y-78268917D01*
X148641151Y-78674446D01*
X148546000Y-79152800D01*
X148546000Y-83274427D01*
X148156000Y-83195450D01*
X146356000Y-83195450D01*
X145948364Y-83272152D01*
X145674726Y-83448233D01*
X145498839Y-83185000D01*
X145861594Y-82642099D01*
X146006223Y-81915000D01*
X145862319Y-81191547D01*
X151881000Y-75172867D01*
X152667733Y-75959600D01*
G36*
X204010614Y-81765000D02*
X201015767Y-81765000D01*
X200936567Y-81685800D01*
X203757200Y-81685800D01*
X204037456Y-81630053D01*
X204010614Y-81765000D01*
X204010614Y-81765000D01*
G37*
X204010614Y-81765000D02*
X201015767Y-81765000D01*
X200936567Y-81685800D01*
X203757200Y-81685800D01*
X204037456Y-81630053D01*
X204010614Y-81765000D01*
G36*
X165721529Y-80976696D02*
X165580406Y-81187901D01*
X165526055Y-81461143D01*
X165408388Y-81343271D01*
X164673570Y-81038148D01*
X163877921Y-81037454D01*
X163313423Y-81270700D01*
X163070346Y-81104612D01*
X162634000Y-81016250D01*
X161022400Y-81016250D01*
X161022400Y-77821500D01*
X162566334Y-77821500D01*
X165721529Y-80976696D01*
X165721529Y-80976696D01*
G37*
X165721529Y-80976696D02*
X165580406Y-81187901D01*
X165526055Y-81461143D01*
X165408388Y-81343271D01*
X164673570Y-81038148D01*
X163877921Y-81037454D01*
X163313423Y-81270700D01*
X163070346Y-81104612D01*
X162634000Y-81016250D01*
X161022400Y-81016250D01*
X161022400Y-77821500D01*
X162566334Y-77821500D01*
X165721529Y-80976696D01*
G36*
X196542948Y-81131715D02*
X196505406Y-81187901D01*
X196482720Y-81301953D01*
X193157366Y-77976600D01*
X193387834Y-77976600D01*
X196542948Y-81131715D01*
X196542948Y-81131715D01*
G37*
X196542948Y-81131715D02*
X196505406Y-81187901D01*
X196482720Y-81301953D01*
X193157366Y-77976600D01*
X193387834Y-77976600D01*
X196542948Y-81131715D01*
G36*
X180639800Y-81037750D02*
X180463563Y-81037597D01*
X180050966Y-80625000D01*
X180639800Y-80625000D01*
X180639800Y-81037750D01*
X180639800Y-81037750D01*
G37*
X180639800Y-81037750D02*
X180463563Y-81037597D01*
X180050966Y-80625000D01*
X180639800Y-80625000D01*
X180639800Y-81037750D01*
G36*
X180639800Y-77471400D02*
X180639800Y-78125000D01*
X176436203Y-78125000D01*
X176422839Y-78105000D01*
X176488810Y-78006268D01*
X176571354Y-77989849D01*
X176976883Y-77718883D01*
X177661067Y-77034700D01*
X180726665Y-77034700D01*
X180639800Y-77471400D01*
X180639800Y-77471400D01*
G37*
X180639800Y-77471400D02*
X180639800Y-78125000D01*
X176436203Y-78125000D01*
X176422839Y-78105000D01*
X176488810Y-78006268D01*
X176571354Y-77989849D01*
X176976883Y-77718883D01*
X177661067Y-77034700D01*
X180726665Y-77034700D01*
X180639800Y-77471400D01*
G36*
X196504547Y-77557781D02*
X195981466Y-77034700D01*
X196400500Y-77034700D01*
X196504547Y-77557781D01*
X196504547Y-77557781D01*
G37*
X196504547Y-77557781D02*
X195981466Y-77034700D01*
X196400500Y-77034700D01*
X196504547Y-77557781D01*
G36*
X165721008Y-75897475D02*
X165580406Y-76107901D01*
X165435777Y-76835000D01*
X165515336Y-77234970D01*
X164118031Y-75837664D01*
X164670079Y-75838146D01*
X165371754Y-75548220D01*
X165721008Y-75897475D01*
X165721008Y-75897475D01*
G37*
X165721008Y-75897475D02*
X165580406Y-76107901D01*
X165435777Y-76835000D01*
X165515336Y-77234970D01*
X164118031Y-75837664D01*
X164670079Y-75838146D01*
X165371754Y-75548220D01*
X165721008Y-75897475D01*
G36*
X200185047Y-77087250D02*
X200195500Y-77034700D01*
X200449235Y-77034700D01*
X200185047Y-77087250D01*
X200185047Y-77087250D01*
G37*
X200185047Y-77087250D02*
X200195500Y-77034700D01*
X200449235Y-77034700D01*
X200185047Y-77087250D01*
G36*
X145552064Y-75532524D02*
X145807902Y-75707331D01*
X145679642Y-75835591D01*
X145498839Y-75565000D01*
X145536598Y-75508490D01*
X145552064Y-75532524D01*
X145552064Y-75532524D01*
G37*
X145552064Y-75532524D02*
X145807902Y-75707331D01*
X145679642Y-75835591D01*
X145498839Y-75565000D01*
X145536598Y-75508490D01*
X145552064Y-75532524D01*
G36*
X183347450Y-74534700D02*
X182572190Y-74534700D01*
X182695652Y-74237370D01*
X182695927Y-73921600D01*
X183347450Y-73921600D01*
X183347450Y-74534700D01*
X183347450Y-74534700D01*
G37*
X183347450Y-74534700D02*
X182572190Y-74534700D01*
X182695652Y-74237370D01*
X182695927Y-73921600D01*
X183347450Y-73921600D01*
X183347450Y-74534700D01*
G36*
X203289933Y-74534700D02*
X200187544Y-74534700D01*
X200235223Y-74295000D01*
X200090594Y-73567901D01*
X199727839Y-73025000D01*
X200090594Y-72482099D01*
X200195520Y-71954600D01*
X200709834Y-71954600D01*
X203289933Y-74534700D01*
X203289933Y-74534700D01*
G37*
X203289933Y-74534700D02*
X200187544Y-74534700D01*
X200235223Y-74295000D01*
X200090594Y-73567901D01*
X199727839Y-73025000D01*
X200090594Y-72482099D01*
X200195520Y-71954600D01*
X200709834Y-71954600D01*
X203289933Y-74534700D01*
G36*
X212693000Y-74395735D02*
X212022570Y-74117348D01*
X211226921Y-74116654D01*
X210662423Y-74349900D01*
X210419346Y-74183812D01*
X210333000Y-74166327D01*
X210333000Y-68972693D01*
X210390636Y-68961848D01*
X210665499Y-68784979D01*
X211223430Y-69016652D01*
X212019079Y-69017346D01*
X212693000Y-68738888D01*
X212693000Y-74395735D01*
X212693000Y-74395735D01*
G37*
X212693000Y-74395735D02*
X212022570Y-74117348D01*
X211226921Y-74116654D01*
X210662423Y-74349900D01*
X210419346Y-74183812D01*
X210333000Y-74166327D01*
X210333000Y-68972693D01*
X210390636Y-68961848D01*
X210665499Y-68784979D01*
X211223430Y-69016652D01*
X212019079Y-69017346D01*
X212693000Y-68738888D01*
X212693000Y-74395735D01*
G36*
X132295344Y-68797371D02*
X132339117Y-68862883D01*
X134631142Y-71154909D01*
X134511777Y-71755000D01*
X134656406Y-72482099D01*
X134784271Y-72673462D01*
X133340632Y-74117102D01*
X132826921Y-74116654D01*
X132262423Y-74349900D01*
X132019346Y-74183812D01*
X131583000Y-74095450D01*
X129783000Y-74095450D01*
X129699000Y-74111256D01*
X129699000Y-69021540D01*
X129783000Y-69038550D01*
X131583000Y-69038550D01*
X131990636Y-68961848D01*
X132265499Y-68784979D01*
X132295344Y-68797371D01*
X132295344Y-68797371D01*
G37*
X132295344Y-68797371D02*
X132339117Y-68862883D01*
X134631142Y-71154909D01*
X134511777Y-71755000D01*
X134656406Y-72482099D01*
X134784271Y-72673462D01*
X133340632Y-74117102D01*
X132826921Y-74116654D01*
X132262423Y-74349900D01*
X132019346Y-74183812D01*
X131583000Y-74095450D01*
X129783000Y-74095450D01*
X129699000Y-74111256D01*
X129699000Y-69021540D01*
X129783000Y-69038550D01*
X131583000Y-69038550D01*
X131990636Y-68961848D01*
X132265499Y-68784979D01*
X132295344Y-68797371D01*
G36*
X207833000Y-74161307D02*
X207828787Y-74162100D01*
X207710594Y-73567901D01*
X207347839Y-73025000D01*
X207710594Y-72482099D01*
X207833000Y-71866723D01*
X207833000Y-74161307D01*
X207833000Y-74161307D01*
G37*
X207833000Y-74161307D02*
X207828787Y-74162100D01*
X207710594Y-73567901D01*
X207347839Y-73025000D01*
X207710594Y-72482099D01*
X207833000Y-71866723D01*
X207833000Y-74161307D01*
G36*
X173087742Y-74134300D02*
X172620067Y-74134300D01*
X172591867Y-74106100D01*
X173093352Y-74106100D01*
X173087742Y-74134300D01*
X173087742Y-74134300D01*
G37*
X173087742Y-74134300D02*
X172620067Y-74134300D01*
X172591867Y-74106100D01*
X173093352Y-74106100D01*
X173087742Y-74134300D01*
G36*
X157472556Y-69296722D02*
X159459316Y-71283483D01*
X159666025Y-71421601D01*
X159864846Y-71554449D01*
X160343200Y-71649600D01*
X162022134Y-71649600D01*
X162188784Y-71816250D01*
X160834000Y-71816250D01*
X160426364Y-71892952D01*
X160051976Y-72133864D01*
X159800812Y-72501454D01*
X159718430Y-72908271D01*
X159650116Y-72953917D01*
X159036247Y-73567786D01*
X159036346Y-73454421D01*
X158732506Y-72719071D01*
X158170388Y-72155971D01*
X157435570Y-71850848D01*
X156639921Y-71850154D01*
X156075423Y-72083400D01*
X155832346Y-71917312D01*
X155396000Y-71828950D01*
X153596000Y-71828950D01*
X153279208Y-71888559D01*
X154774225Y-70393541D01*
X155205101Y-70572457D01*
X155762056Y-70572943D01*
X156276800Y-70360255D01*
X156670970Y-69966772D01*
X156821848Y-69603419D01*
X157185620Y-69239647D01*
X157472556Y-69296722D01*
X157472556Y-69296722D01*
G37*
X157472556Y-69296722D02*
X159459316Y-71283483D01*
X159666025Y-71421601D01*
X159864846Y-71554449D01*
X160343200Y-71649600D01*
X162022134Y-71649600D01*
X162188784Y-71816250D01*
X160834000Y-71816250D01*
X160426364Y-71892952D01*
X160051976Y-72133864D01*
X159800812Y-72501454D01*
X159718430Y-72908271D01*
X159650116Y-72953917D01*
X159036247Y-73567786D01*
X159036346Y-73454421D01*
X158732506Y-72719071D01*
X158170388Y-72155971D01*
X157435570Y-71850848D01*
X156639921Y-71850154D01*
X156075423Y-72083400D01*
X155832346Y-71917312D01*
X155396000Y-71828950D01*
X153596000Y-71828950D01*
X153279208Y-71888559D01*
X154774225Y-70393541D01*
X155205101Y-70572457D01*
X155762056Y-70572943D01*
X156276800Y-70360255D01*
X156670970Y-69966772D01*
X156821848Y-69603419D01*
X157185620Y-69239647D01*
X157472556Y-69296722D01*
G36*
X189909280Y-73517754D02*
X189909346Y-73441721D01*
X189728897Y-73005000D01*
X190422033Y-73005000D01*
X189909280Y-73517754D01*
X189909280Y-73517754D01*
G37*
X189909280Y-73517754D02*
X189909346Y-73441721D01*
X189728897Y-73005000D01*
X190422033Y-73005000D01*
X189909280Y-73517754D01*
G36*
X196489425Y-72401759D02*
X196231388Y-72143271D01*
X195777018Y-71954600D01*
X196400480Y-71954600D01*
X196489425Y-72401759D01*
X196489425Y-72401759D01*
G37*
X196489425Y-72401759D02*
X196231388Y-72143271D01*
X195777018Y-71954600D01*
X196400480Y-71954600D01*
X196489425Y-72401759D01*
G36*
X203991559Y-71700793D02*
X203799701Y-71508935D01*
X204039198Y-71461295D01*
X203991559Y-71700793D01*
X203991559Y-71700793D01*
G37*
X203991559Y-71700793D02*
X203799701Y-71508935D01*
X204039198Y-71461295D01*
X203991559Y-71700793D01*
G36*
X207833000Y-71643277D02*
X207710594Y-71027901D01*
X207604519Y-70869148D01*
X207833000Y-70640667D01*
X207833000Y-71643277D01*
X207833000Y-71643277D01*
G37*
X207833000Y-71643277D02*
X207710594Y-71027901D01*
X207604519Y-70869148D01*
X207833000Y-70640667D01*
X207833000Y-71643277D01*
G36*
X138399116Y-58800883D02*
X138466945Y-58846205D01*
X138538152Y-59224636D01*
X138779064Y-59599024D01*
X139146654Y-59850188D01*
X139583000Y-59938550D01*
X141383000Y-59938550D01*
X141790636Y-59861848D01*
X142065499Y-59684979D01*
X142623430Y-59916652D01*
X143419079Y-59917346D01*
X144154429Y-59613506D01*
X144717529Y-59051388D01*
X145022652Y-58316570D01*
X145022927Y-58001400D01*
X147399634Y-58001400D01*
X148199116Y-58800883D01*
X148266945Y-58846205D01*
X148338152Y-59224636D01*
X148579064Y-59599024D01*
X148946654Y-59850188D01*
X149383000Y-59938550D01*
X150083283Y-59938550D01*
X138765100Y-71256734D01*
X138765100Y-70281100D01*
X138669949Y-69802746D01*
X138648815Y-69771117D01*
X138398983Y-69397216D01*
X138370550Y-69368783D01*
X138370550Y-68415000D01*
X138293848Y-68007364D01*
X138052936Y-67632976D01*
X137685346Y-67381812D01*
X137249000Y-67293450D01*
X135649000Y-67293450D01*
X135241364Y-67370152D01*
X135222682Y-67382174D01*
X135223346Y-66620921D01*
X134919506Y-65885571D01*
X134357388Y-65322471D01*
X133622570Y-65017348D01*
X132826921Y-65016654D01*
X132262423Y-65249900D01*
X132019346Y-65083812D01*
X131583000Y-64995450D01*
X129783000Y-64995450D01*
X129699000Y-65011256D01*
X129699000Y-59921540D01*
X129783000Y-59938550D01*
X131583000Y-59938550D01*
X131990636Y-59861848D01*
X132265499Y-59684979D01*
X132823430Y-59916652D01*
X133619079Y-59917346D01*
X134354429Y-59613506D01*
X134917529Y-59051388D01*
X135222652Y-58316570D01*
X135222927Y-58001400D01*
X137599634Y-58001400D01*
X138399116Y-58800883D01*
X138399116Y-58800883D01*
G37*
X138399116Y-58800883D02*
X138466945Y-58846205D01*
X138538152Y-59224636D01*
X138779064Y-59599024D01*
X139146654Y-59850188D01*
X139583000Y-59938550D01*
X141383000Y-59938550D01*
X141790636Y-59861848D01*
X142065499Y-59684979D01*
X142623430Y-59916652D01*
X143419079Y-59917346D01*
X144154429Y-59613506D01*
X144717529Y-59051388D01*
X145022652Y-58316570D01*
X145022927Y-58001400D01*
X147399634Y-58001400D01*
X148199116Y-58800883D01*
X148266945Y-58846205D01*
X148338152Y-59224636D01*
X148579064Y-59599024D01*
X148946654Y-59850188D01*
X149383000Y-59938550D01*
X150083283Y-59938550D01*
X138765100Y-71256734D01*
X138765100Y-70281100D01*
X138669949Y-69802746D01*
X138648815Y-69771117D01*
X138398983Y-69397216D01*
X138370550Y-69368783D01*
X138370550Y-68415000D01*
X138293848Y-68007364D01*
X138052936Y-67632976D01*
X137685346Y-67381812D01*
X137249000Y-67293450D01*
X135649000Y-67293450D01*
X135241364Y-67370152D01*
X135222682Y-67382174D01*
X135223346Y-66620921D01*
X134919506Y-65885571D01*
X134357388Y-65322471D01*
X133622570Y-65017348D01*
X132826921Y-65016654D01*
X132262423Y-65249900D01*
X132019346Y-65083812D01*
X131583000Y-64995450D01*
X129783000Y-64995450D01*
X129699000Y-65011256D01*
X129699000Y-59921540D01*
X129783000Y-59938550D01*
X131583000Y-59938550D01*
X131990636Y-59861848D01*
X132265499Y-59684979D01*
X132823430Y-59916652D01*
X133619079Y-59917346D01*
X134354429Y-59613506D01*
X134917529Y-59051388D01*
X135222652Y-58316570D01*
X135222927Y-58001400D01*
X137599634Y-58001400D01*
X138399116Y-58800883D01*
G36*
X166461638Y-67314404D02*
X166165364Y-67370152D01*
X165790976Y-67611064D01*
X165539812Y-67978654D01*
X165451450Y-68415000D01*
X165451450Y-70015000D01*
X165457078Y-70044912D01*
X164019115Y-68606948D01*
X164361565Y-68094436D01*
X164510000Y-67348203D01*
X164510000Y-67271797D01*
X164373785Y-66587000D01*
X165734234Y-66587000D01*
X166461638Y-67314404D01*
X166461638Y-67314404D01*
G37*
X166461638Y-67314404D02*
X166165364Y-67370152D01*
X165790976Y-67611064D01*
X165539812Y-67978654D01*
X165451450Y-68415000D01*
X165451450Y-70015000D01*
X165457078Y-70044912D01*
X164019115Y-68606948D01*
X164361565Y-68094436D01*
X164510000Y-67348203D01*
X164510000Y-67271797D01*
X164373785Y-66587000D01*
X165734234Y-66587000D01*
X166461638Y-67314404D01*
G36*
X182907112Y-55609351D02*
X182895046Y-55611751D01*
X182489516Y-55882717D01*
X182455031Y-55917202D01*
X181826921Y-55916654D01*
X181262423Y-56149900D01*
X181019346Y-55983812D01*
X180583000Y-55895450D01*
X178783000Y-55895450D01*
X178375364Y-55972152D01*
X178000976Y-56213064D01*
X177749812Y-56580654D01*
X177661450Y-57017000D01*
X177661450Y-58817000D01*
X177738152Y-59224636D01*
X177979064Y-59599024D01*
X178346654Y-59850188D01*
X178783000Y-59938550D01*
X180583000Y-59938550D01*
X180990636Y-59861848D01*
X181265499Y-59684979D01*
X181823430Y-59916652D01*
X182619079Y-59917346D01*
X183354429Y-59613506D01*
X183917529Y-59051388D01*
X184222652Y-58316570D01*
X184222914Y-58016600D01*
X187461450Y-58016600D01*
X187461450Y-58817000D01*
X187538152Y-59224636D01*
X187779064Y-59599024D01*
X188146654Y-59850188D01*
X188233000Y-59867673D01*
X188233000Y-61930855D01*
X188167741Y-61996000D01*
X185107439Y-61996000D01*
X184579107Y-61466745D01*
X183807548Y-61146366D01*
X182972117Y-61145637D01*
X182200000Y-61464669D01*
X181608745Y-62054893D01*
X181288366Y-62826452D01*
X181287637Y-63661883D01*
X181606669Y-64434000D01*
X182196893Y-65025255D01*
X182968452Y-65345634D01*
X183803883Y-65346363D01*
X184576000Y-65027331D01*
X185108259Y-64496000D01*
X188168561Y-64496000D01*
X188696893Y-65025255D01*
X189468452Y-65345634D01*
X190303883Y-65346363D01*
X191076000Y-65027331D01*
X191667255Y-64437107D01*
X191987634Y-63665548D01*
X191988363Y-62830117D01*
X191669331Y-62058000D01*
X191079107Y-61466745D01*
X190733000Y-61323029D01*
X190733000Y-59872693D01*
X190790636Y-59861848D01*
X191065499Y-59684979D01*
X191623430Y-59916652D01*
X192419079Y-59917346D01*
X193154429Y-59613506D01*
X193717529Y-59051388D01*
X194022652Y-58316570D01*
X194022914Y-58016600D01*
X194454234Y-58016600D01*
X204445892Y-68008259D01*
X204422190Y-68043732D01*
X204339646Y-68060151D01*
X203934117Y-68331116D01*
X203249934Y-69015300D01*
X200219550Y-69015300D01*
X200219550Y-68415000D01*
X200142848Y-68007364D01*
X199901936Y-67632976D01*
X199534346Y-67381812D01*
X199098000Y-67293450D01*
X197498000Y-67293450D01*
X197090364Y-67370152D01*
X196715976Y-67611064D01*
X196464812Y-67978654D01*
X196376450Y-68415000D01*
X196376450Y-69015300D01*
X191588925Y-69015300D01*
X191667255Y-68937107D01*
X191987634Y-68165548D01*
X191988363Y-67330117D01*
X191669331Y-66558000D01*
X191079107Y-65966745D01*
X190307548Y-65646366D01*
X189472117Y-65645637D01*
X188700000Y-65964669D01*
X188167741Y-66496000D01*
X185107439Y-66496000D01*
X184579107Y-65966745D01*
X183807548Y-65646366D01*
X182972117Y-65645637D01*
X182200000Y-65964669D01*
X181608745Y-66554893D01*
X181288366Y-67326452D01*
X181287637Y-68161883D01*
X181606669Y-68934000D01*
X181687827Y-69015300D01*
X177661067Y-69015300D01*
X176976883Y-68331117D01*
X176571354Y-68060151D01*
X176488810Y-68043732D01*
X176373726Y-67871497D01*
X175757322Y-67459629D01*
X175030223Y-67315000D01*
X174955777Y-67315000D01*
X174228678Y-67459629D01*
X173612274Y-67871497D01*
X173200406Y-68487901D01*
X173055777Y-69215000D01*
X173103436Y-69454600D01*
X172137367Y-69454600D01*
X169424316Y-66741550D01*
X171030000Y-66741550D01*
X171437636Y-66664848D01*
X171752741Y-66462083D01*
X171973767Y-66609768D01*
X172720000Y-66758203D01*
X173466233Y-66609768D01*
X174098858Y-66187061D01*
X174521565Y-65554436D01*
X174670000Y-64808203D01*
X174670000Y-64731797D01*
X174521565Y-63985564D01*
X174098858Y-63352939D01*
X173466233Y-62930232D01*
X172720000Y-62781797D01*
X171973767Y-62930232D01*
X171749352Y-63080182D01*
X171466346Y-62886812D01*
X171030000Y-62798450D01*
X169330000Y-62798450D01*
X168922364Y-62875152D01*
X168547976Y-63116064D01*
X168296812Y-63483654D01*
X168208450Y-63920000D01*
X168208450Y-65525684D01*
X167135883Y-64453117D01*
X166730354Y-64182151D01*
X166252000Y-64087000D01*
X150619800Y-64087000D01*
X150141446Y-64182151D01*
X149735916Y-64453117D01*
X145797322Y-68391712D01*
X145544312Y-68013055D01*
X153095467Y-60461900D01*
X171128100Y-60461900D01*
X171606454Y-60366749D01*
X172011983Y-60095783D01*
X172190968Y-59916798D01*
X172819079Y-59917346D01*
X173554429Y-59613506D01*
X174117529Y-59051388D01*
X174422652Y-58316570D01*
X174423346Y-57520921D01*
X174119506Y-56785571D01*
X173557388Y-56222471D01*
X172822570Y-55917348D01*
X172026921Y-55916654D01*
X171462423Y-56149900D01*
X171219346Y-55983812D01*
X170783000Y-55895450D01*
X168983000Y-55895450D01*
X168575364Y-55972152D01*
X168533109Y-55999343D01*
X168414083Y-55880317D01*
X168008554Y-55609351D01*
X167944204Y-55596551D01*
X167614659Y-55531000D01*
X183301007Y-55531000D01*
X182907112Y-55609351D01*
X182907112Y-55609351D01*
G37*
X182907112Y-55609351D02*
X182895046Y-55611751D01*
X182489516Y-55882717D01*
X182455031Y-55917202D01*
X181826921Y-55916654D01*
X181262423Y-56149900D01*
X181019346Y-55983812D01*
X180583000Y-55895450D01*
X178783000Y-55895450D01*
X178375364Y-55972152D01*
X178000976Y-56213064D01*
X177749812Y-56580654D01*
X177661450Y-57017000D01*
X177661450Y-58817000D01*
X177738152Y-59224636D01*
X177979064Y-59599024D01*
X178346654Y-59850188D01*
X178783000Y-59938550D01*
X180583000Y-59938550D01*
X180990636Y-59861848D01*
X181265499Y-59684979D01*
X181823430Y-59916652D01*
X182619079Y-59917346D01*
X183354429Y-59613506D01*
X183917529Y-59051388D01*
X184222652Y-58316570D01*
X184222914Y-58016600D01*
X187461450Y-58016600D01*
X187461450Y-58817000D01*
X187538152Y-59224636D01*
X187779064Y-59599024D01*
X188146654Y-59850188D01*
X188233000Y-59867673D01*
X188233000Y-61930855D01*
X188167741Y-61996000D01*
X185107439Y-61996000D01*
X184579107Y-61466745D01*
X183807548Y-61146366D01*
X182972117Y-61145637D01*
X182200000Y-61464669D01*
X181608745Y-62054893D01*
X181288366Y-62826452D01*
X181287637Y-63661883D01*
X181606669Y-64434000D01*
X182196893Y-65025255D01*
X182968452Y-65345634D01*
X183803883Y-65346363D01*
X184576000Y-65027331D01*
X185108259Y-64496000D01*
X188168561Y-64496000D01*
X188696893Y-65025255D01*
X189468452Y-65345634D01*
X190303883Y-65346363D01*
X191076000Y-65027331D01*
X191667255Y-64437107D01*
X191987634Y-63665548D01*
X191988363Y-62830117D01*
X191669331Y-62058000D01*
X191079107Y-61466745D01*
X190733000Y-61323029D01*
X190733000Y-59872693D01*
X190790636Y-59861848D01*
X191065499Y-59684979D01*
X191623430Y-59916652D01*
X192419079Y-59917346D01*
X193154429Y-59613506D01*
X193717529Y-59051388D01*
X194022652Y-58316570D01*
X194022914Y-58016600D01*
X194454234Y-58016600D01*
X204445892Y-68008259D01*
X204422190Y-68043732D01*
X204339646Y-68060151D01*
X203934117Y-68331116D01*
X203249934Y-69015300D01*
X200219550Y-69015300D01*
X200219550Y-68415000D01*
X200142848Y-68007364D01*
X199901936Y-67632976D01*
X199534346Y-67381812D01*
X199098000Y-67293450D01*
X197498000Y-67293450D01*
X197090364Y-67370152D01*
X196715976Y-67611064D01*
X196464812Y-67978654D01*
X196376450Y-68415000D01*
X196376450Y-69015300D01*
X191588925Y-69015300D01*
X191667255Y-68937107D01*
X191987634Y-68165548D01*
X191988363Y-67330117D01*
X191669331Y-66558000D01*
X191079107Y-65966745D01*
X190307548Y-65646366D01*
X189472117Y-65645637D01*
X188700000Y-65964669D01*
X188167741Y-66496000D01*
X185107439Y-66496000D01*
X184579107Y-65966745D01*
X183807548Y-65646366D01*
X182972117Y-65645637D01*
X182200000Y-65964669D01*
X181608745Y-66554893D01*
X181288366Y-67326452D01*
X181287637Y-68161883D01*
X181606669Y-68934000D01*
X181687827Y-69015300D01*
X177661067Y-69015300D01*
X176976883Y-68331117D01*
X176571354Y-68060151D01*
X176488810Y-68043732D01*
X176373726Y-67871497D01*
X175757322Y-67459629D01*
X175030223Y-67315000D01*
X174955777Y-67315000D01*
X174228678Y-67459629D01*
X173612274Y-67871497D01*
X173200406Y-68487901D01*
X173055777Y-69215000D01*
X173103436Y-69454600D01*
X172137367Y-69454600D01*
X169424316Y-66741550D01*
X171030000Y-66741550D01*
X171437636Y-66664848D01*
X171752741Y-66462083D01*
X171973767Y-66609768D01*
X172720000Y-66758203D01*
X173466233Y-66609768D01*
X174098858Y-66187061D01*
X174521565Y-65554436D01*
X174670000Y-64808203D01*
X174670000Y-64731797D01*
X174521565Y-63985564D01*
X174098858Y-63352939D01*
X173466233Y-62930232D01*
X172720000Y-62781797D01*
X171973767Y-62930232D01*
X171749352Y-63080182D01*
X171466346Y-62886812D01*
X171030000Y-62798450D01*
X169330000Y-62798450D01*
X168922364Y-62875152D01*
X168547976Y-63116064D01*
X168296812Y-63483654D01*
X168208450Y-63920000D01*
X168208450Y-65525684D01*
X167135883Y-64453117D01*
X166730354Y-64182151D01*
X166252000Y-64087000D01*
X150619800Y-64087000D01*
X150141446Y-64182151D01*
X149735916Y-64453117D01*
X145797322Y-68391712D01*
X145544312Y-68013055D01*
X153095467Y-60461900D01*
X171128100Y-60461900D01*
X171606454Y-60366749D01*
X172011983Y-60095783D01*
X172190968Y-59916798D01*
X172819079Y-59917346D01*
X173554429Y-59613506D01*
X174117529Y-59051388D01*
X174422652Y-58316570D01*
X174423346Y-57520921D01*
X174119506Y-56785571D01*
X173557388Y-56222471D01*
X172822570Y-55917348D01*
X172026921Y-55916654D01*
X171462423Y-56149900D01*
X171219346Y-55983812D01*
X170783000Y-55895450D01*
X168983000Y-55895450D01*
X168575364Y-55972152D01*
X168533109Y-55999343D01*
X168414083Y-55880317D01*
X168008554Y-55609351D01*
X167944204Y-55596551D01*
X167614659Y-55531000D01*
X183301007Y-55531000D01*
X182907112Y-55609351D01*
G36*
X161026234Y-69149600D02*
X160860967Y-69149600D01*
X160823122Y-69111756D01*
X160922193Y-69045559D01*
X161026234Y-69149600D01*
X161026234Y-69149600D01*
G37*
X161026234Y-69149600D02*
X160860967Y-69149600D01*
X160823122Y-69111756D01*
X160922193Y-69045559D01*
X161026234Y-69149600D01*
G36*
X188187827Y-69015300D02*
X185088925Y-69015300D01*
X185108259Y-68996000D01*
X188168561Y-68996000D01*
X188187827Y-69015300D01*
X188187827Y-69015300D01*
G37*
X188187827Y-69015300D02*
X185088925Y-69015300D01*
X185108259Y-68996000D01*
X188168561Y-68996000D01*
X188187827Y-69015300D01*
G36*
X200467316Y-59958683D02*
X200672503Y-60095784D01*
X200872846Y-60229649D01*
X201351200Y-60324800D01*
X205475200Y-60324800D01*
X205475200Y-63459200D01*
X205527943Y-63724354D01*
X205570351Y-63937554D01*
X205841317Y-64343083D01*
X207161614Y-65663381D01*
X207149812Y-65680654D01*
X207061450Y-66117000D01*
X207061450Y-67088283D01*
X199911716Y-59938550D01*
X200183000Y-59938550D01*
X200405346Y-59896713D01*
X200467316Y-59958683D01*
X200467316Y-59958683D01*
G37*
X200467316Y-59958683D02*
X200672503Y-60095784D01*
X200872846Y-60229649D01*
X201351200Y-60324800D01*
X205475200Y-60324800D01*
X205475200Y-63459200D01*
X205527943Y-63724354D01*
X205570351Y-63937554D01*
X205841317Y-64343083D01*
X207161614Y-65663381D01*
X207149812Y-65680654D01*
X207061450Y-66117000D01*
X207061450Y-67088283D01*
X199911716Y-59938550D01*
X200183000Y-59938550D01*
X200405346Y-59896713D01*
X200467316Y-59958683D01*
G36*
X212693000Y-65295735D02*
X212022570Y-65017348D01*
X211226921Y-65016654D01*
X210662423Y-65249900D01*
X210419346Y-65083812D01*
X210012529Y-65001430D01*
X209966884Y-64933117D01*
X207975200Y-62941434D01*
X207975200Y-59896470D01*
X208183000Y-59938550D01*
X209983000Y-59938550D01*
X210390636Y-59861848D01*
X210665499Y-59684979D01*
X211223430Y-59916652D01*
X212019079Y-59917346D01*
X212693000Y-59638888D01*
X212693000Y-65295735D01*
X212693000Y-65295735D01*
G37*
X212693000Y-65295735D02*
X212022570Y-65017348D01*
X211226921Y-65016654D01*
X210662423Y-65249900D01*
X210419346Y-65083812D01*
X210012529Y-65001430D01*
X209966884Y-64933117D01*
X207975200Y-62941434D01*
X207975200Y-59896470D01*
X208183000Y-59938550D01*
X209983000Y-59938550D01*
X210390636Y-59861848D01*
X210665499Y-59684979D01*
X211223430Y-59916652D01*
X212019079Y-59917346D01*
X212693000Y-59638888D01*
X212693000Y-65295735D01*
G36*
X212468750Y-55578835D02*
X212574503Y-55649497D01*
X212645165Y-55755250D01*
X212693000Y-55995730D01*
X212693000Y-56195735D01*
X212022570Y-55917348D01*
X211226921Y-55916654D01*
X210662423Y-56149900D01*
X210419346Y-55983812D01*
X209983000Y-55895450D01*
X208183000Y-55895450D01*
X207775364Y-55972152D01*
X207400976Y-56213064D01*
X207149812Y-56580654D01*
X207067430Y-56987471D01*
X206999116Y-57033117D01*
X206207434Y-57824800D01*
X203823081Y-57824800D01*
X203823346Y-57520921D01*
X203519506Y-56785571D01*
X202957388Y-56222471D01*
X202222570Y-55917348D01*
X201426921Y-55916654D01*
X200862423Y-56149900D01*
X200619346Y-55983812D01*
X200183000Y-55895450D01*
X198383000Y-55895450D01*
X197975364Y-55972152D01*
X197600976Y-56213064D01*
X197349812Y-56580654D01*
X197261450Y-57017000D01*
X197261450Y-57288284D01*
X195855883Y-55882717D01*
X195450354Y-55611751D01*
X195438288Y-55609351D01*
X195044393Y-55531000D01*
X212228270Y-55531000D01*
X212468750Y-55578835D01*
X212468750Y-55578835D01*
G37*
X212468750Y-55578835D02*
X212574503Y-55649497D01*
X212645165Y-55755250D01*
X212693000Y-55995730D01*
X212693000Y-56195735D01*
X212022570Y-55917348D01*
X211226921Y-55916654D01*
X210662423Y-56149900D01*
X210419346Y-55983812D01*
X209983000Y-55895450D01*
X208183000Y-55895450D01*
X207775364Y-55972152D01*
X207400976Y-56213064D01*
X207149812Y-56580654D01*
X207067430Y-56987471D01*
X206999116Y-57033117D01*
X206207434Y-57824800D01*
X203823081Y-57824800D01*
X203823346Y-57520921D01*
X203519506Y-56785571D01*
X202957388Y-56222471D01*
X202222570Y-55917348D01*
X201426921Y-55916654D01*
X200862423Y-56149900D01*
X200619346Y-55983812D01*
X200183000Y-55895450D01*
X198383000Y-55895450D01*
X197975364Y-55972152D01*
X197600976Y-56213064D01*
X197349812Y-56580654D01*
X197261450Y-57017000D01*
X197261450Y-57288284D01*
X195855883Y-55882717D01*
X195450354Y-55611751D01*
X195438288Y-55609351D01*
X195044393Y-55531000D01*
X212228270Y-55531000D01*
X212468750Y-55578835D01*
G36*
X142132996Y-55585760D02*
X142078746Y-55596551D01*
X141673216Y-55867517D01*
X141601114Y-55939619D01*
X141383000Y-55895450D01*
X139583000Y-55895450D01*
X139175364Y-55972152D01*
X139133109Y-55999343D01*
X139001283Y-55867517D01*
X138595754Y-55596551D01*
X138541504Y-55585760D01*
X138266209Y-55531000D01*
X142408291Y-55531000D01*
X142132996Y-55585760D01*
X142132996Y-55585760D01*
G37*
X142132996Y-55585760D02*
X142078746Y-55596551D01*
X141673216Y-55867517D01*
X141601114Y-55939619D01*
X141383000Y-55895450D01*
X139583000Y-55895450D01*
X139175364Y-55972152D01*
X139133109Y-55999343D01*
X139001283Y-55867517D01*
X138595754Y-55596551D01*
X138541504Y-55585760D01*
X138266209Y-55531000D01*
X142408291Y-55531000D01*
X142132996Y-55585760D01*
G36*
X151932996Y-55585760D02*
X151878746Y-55596551D01*
X151473216Y-55867517D01*
X151401114Y-55939619D01*
X151183000Y-55895450D01*
X149383000Y-55895450D01*
X148975364Y-55972152D01*
X148933109Y-55999343D01*
X148801283Y-55867517D01*
X148395754Y-55596551D01*
X148341504Y-55585760D01*
X148066209Y-55531000D01*
X152208291Y-55531000D01*
X151932996Y-55585760D01*
X151932996Y-55585760D01*
G37*
X151932996Y-55585760D02*
X151878746Y-55596551D01*
X151473216Y-55867517D01*
X151401114Y-55939619D01*
X151183000Y-55895450D01*
X149383000Y-55895450D01*
X148975364Y-55972152D01*
X148933109Y-55999343D01*
X148801283Y-55867517D01*
X148395754Y-55596551D01*
X148341504Y-55585760D01*
X148066209Y-55531000D01*
X152208291Y-55531000D01*
X151932996Y-55585760D01*
G36*
X161669146Y-55609351D02*
X161263617Y-55880316D01*
X161203775Y-55940158D01*
X160983000Y-55895450D01*
X159183000Y-55895450D01*
X158775364Y-55972152D01*
X158733109Y-55999343D01*
X158601283Y-55867517D01*
X158195754Y-55596551D01*
X158141504Y-55585760D01*
X157866209Y-55531000D01*
X162063041Y-55531000D01*
X161669146Y-55609351D01*
X161669146Y-55609351D01*
G37*
X161669146Y-55609351D02*
X161263617Y-55880316D01*
X161203775Y-55940158D01*
X160983000Y-55895450D01*
X159183000Y-55895450D01*
X158775364Y-55972152D01*
X158733109Y-55999343D01*
X158601283Y-55867517D01*
X158195754Y-55596551D01*
X158141504Y-55585760D01*
X157866209Y-55531000D01*
X162063041Y-55531000D01*
X161669146Y-55609351D01*
G36*
X132332996Y-55585760D02*
X132278746Y-55596551D01*
X131873216Y-55867517D01*
X131801114Y-55939619D01*
X131583000Y-55895450D01*
X129783000Y-55895450D01*
X129699000Y-55911256D01*
X129699000Y-55531000D01*
X132608291Y-55531000D01*
X132332996Y-55585760D01*
X132332996Y-55585760D01*
G37*
X132332996Y-55585760D02*
X132278746Y-55596551D01*
X131873216Y-55867517D01*
X131801114Y-55939619D01*
X131583000Y-55895450D01*
X129783000Y-55895450D01*
X129699000Y-55911256D01*
X129699000Y-55531000D01*
X132608291Y-55531000D01*
X132332996Y-55585760D01*
M02*
