G04 #@! TF.GenerationSoftware,KiCad,Pcbnew,(5.0.0)*
G04 #@! TF.CreationDate,2019-09-06T15:04:35-04:00*
G04 #@! TF.ProjectId,Christmas Tree,4368726973746D617320547265652E6B,rev?*
G04 #@! TF.SameCoordinates,Original*
G04 #@! TF.FileFunction,Legend,Top*
G04 #@! TF.FilePolarity,Positive*
%FSLAX46Y46*%
G04 Gerber Fmt 4.6, Leading zero omitted, Abs format (unit mm)*
G04 Created by KiCad (PCBNEW (5.0.0)) date 09/06/19 15:04:35*
%MOMM*%
%LPD*%
G01*
G04 APERTURE LIST*
%ADD10C,1.000000*%
%ADD11C,0.120000*%
%ADD12C,0.150000*%
%ADD13C,0.125000*%
G04 APERTURE END LIST*
D10*
X123494800Y-139750800D02*
X123799600Y-143814800D01*
X123444000Y-134569200D02*
X123494800Y-139750800D01*
X113487200Y-132994400D02*
X123444000Y-134569200D01*
X106934000Y-131927600D02*
X113487200Y-132994400D01*
X102057200Y-130556000D02*
X106934000Y-131927600D01*
X98450400Y-128778000D02*
X102057200Y-130556000D01*
X94894400Y-126034800D02*
X98450400Y-128778000D01*
X92811600Y-124002800D02*
X94894400Y-126034800D01*
X90881200Y-122021600D02*
X92811600Y-124002800D01*
X90627200Y-121615200D02*
X90881200Y-122021600D01*
X90525600Y-121259600D02*
X90627200Y-121615200D01*
X90678000Y-120954800D02*
X90525600Y-121259600D01*
X90728800Y-120904000D02*
X90678000Y-120954800D01*
X91897200Y-120396000D02*
X90728800Y-120904000D01*
X93370400Y-119888000D02*
X91897200Y-120396000D01*
X95046800Y-119430800D02*
X93370400Y-119888000D01*
X100025200Y-117652800D02*
X95046800Y-119430800D01*
X105003600Y-115062000D02*
X100025200Y-117652800D01*
X109524800Y-112217200D02*
X105003600Y-115062000D01*
X111760000Y-109829600D02*
X109524800Y-112217200D01*
X112522000Y-108356400D02*
X111760000Y-109829600D01*
X112471200Y-107543600D02*
X112522000Y-108356400D01*
X111658400Y-106781600D02*
X112471200Y-107543600D01*
X106121200Y-103784400D02*
X111658400Y-106781600D01*
X105105200Y-102463600D02*
X106121200Y-103784400D01*
X105562400Y-101549200D02*
X105105200Y-102463600D01*
X107492800Y-101142800D02*
X105562400Y-101549200D01*
X110286800Y-100279200D02*
X107492800Y-101142800D01*
X114757200Y-96774000D02*
X110286800Y-100279200D01*
X119075200Y-92659200D02*
X114757200Y-96774000D01*
X121462800Y-89255600D02*
X119075200Y-92659200D01*
X122986800Y-86055200D02*
X121462800Y-89255600D01*
X123342400Y-84886800D02*
X122986800Y-86055200D01*
X123037600Y-84429600D02*
X123342400Y-84886800D01*
X122275600Y-84226400D02*
X123037600Y-84429600D01*
X121259600Y-84124800D02*
X122275600Y-84226400D01*
X119481600Y-83718400D02*
X121259600Y-84124800D01*
X115671600Y-82245200D02*
X119481600Y-83718400D01*
X128117600Y-69037200D02*
X115671600Y-82245200D01*
X130860800Y-65532000D02*
X128117600Y-69037200D01*
X130962400Y-64008000D02*
X130860800Y-65532000D01*
X129794000Y-63195200D02*
X130962400Y-64008000D01*
X128930400Y-63144400D02*
X129794000Y-63195200D01*
X128727200Y-62839600D02*
X128930400Y-63144400D01*
X128879600Y-62382400D02*
X128727200Y-62839600D01*
X129184400Y-62077600D02*
X128879600Y-62382400D01*
X130962400Y-59994800D02*
X129184400Y-62077600D01*
X131165600Y-59436000D02*
X130962400Y-59994800D01*
X130962400Y-59029600D02*
X131165600Y-59436000D01*
X130149600Y-58674000D02*
X130962400Y-59029600D01*
X128930400Y-57962800D02*
X130149600Y-58674000D01*
X128524000Y-57099200D02*
X128930400Y-57962800D01*
X128879600Y-56438800D02*
X128524000Y-57099200D01*
X130454400Y-56032400D02*
X128879600Y-56438800D01*
X131013200Y-55676800D02*
X130454400Y-56032400D01*
X131572000Y-55118000D02*
X131013200Y-55676800D01*
X132384800Y-53390800D02*
X131572000Y-55118000D01*
X132689600Y-53238400D02*
X132384800Y-53390800D01*
X133096000Y-53441600D02*
X132689600Y-53238400D01*
X134467600Y-55118000D02*
X133096000Y-53441600D01*
X135128000Y-55676800D02*
X134467600Y-55118000D01*
X135839200Y-56083200D02*
X135128000Y-55676800D01*
X137160000Y-56438800D02*
X135839200Y-56083200D01*
X137414000Y-57099200D02*
X137160000Y-56438800D01*
X136906000Y-57962800D02*
X137414000Y-57099200D01*
X135890000Y-58572400D02*
X136906000Y-57962800D01*
X134975600Y-58978800D02*
X135890000Y-58572400D01*
X134772400Y-59436000D02*
X134975600Y-58978800D01*
X134975600Y-59994800D02*
X134772400Y-59436000D01*
X137007600Y-62433200D02*
X134975600Y-59994800D01*
X137210800Y-62890400D02*
X137007600Y-62433200D01*
X137007600Y-63093600D02*
X137210800Y-62890400D01*
X135534400Y-63246000D02*
X137007600Y-63093600D01*
X134924800Y-63500000D02*
X135534400Y-63246000D01*
X134569200Y-63804800D02*
X134924800Y-63500000D01*
X134467600Y-64109600D02*
X134569200Y-63804800D01*
X135432800Y-67157600D02*
X134467600Y-64109600D01*
X139954000Y-73253600D02*
X135432800Y-67157600D01*
X144830800Y-79095600D02*
X139954000Y-73253600D01*
X147929600Y-81229200D02*
X144830800Y-79095600D01*
X148996400Y-81737200D02*
X147929600Y-81229200D01*
X149098000Y-82143600D02*
X148996400Y-81737200D01*
X148691600Y-82550000D02*
X149098000Y-82143600D01*
X144475200Y-84429600D02*
X148691600Y-82550000D01*
X143713200Y-85598000D02*
X144475200Y-84429600D01*
X143865600Y-87122000D02*
X143713200Y-85598000D01*
X145389600Y-90779600D02*
X143865600Y-87122000D01*
X147015200Y-93472000D02*
X145389600Y-90779600D01*
X147624800Y-94335600D02*
X147015200Y-93472000D01*
X150520400Y-97332800D02*
X147624800Y-94335600D01*
X154127200Y-99872800D02*
X150520400Y-97332800D01*
X156159200Y-100787200D02*
X154127200Y-99872800D01*
X161645600Y-102920800D02*
X156159200Y-100787200D01*
X158851600Y-104648000D02*
X161645600Y-102920800D01*
X156362400Y-106070400D02*
X158851600Y-104648000D01*
X154279600Y-107086400D02*
X156362400Y-106070400D01*
X153619200Y-107188000D02*
X154279600Y-107086400D01*
X152704800Y-108254800D02*
X153619200Y-107188000D01*
X153416000Y-110236000D02*
X152704800Y-108254800D01*
X153720800Y-110591600D02*
X153416000Y-110236000D01*
X155041600Y-111912400D02*
X153720800Y-110591600D01*
X156108400Y-112979200D02*
X155041600Y-111912400D01*
X157683200Y-114147600D02*
X156108400Y-112979200D01*
X159715200Y-115519200D02*
X157683200Y-114147600D01*
X161848800Y-116636800D02*
X159715200Y-115519200D01*
X167132000Y-118516400D02*
X161848800Y-116636800D01*
X173583600Y-120243600D02*
X167132000Y-118516400D01*
X175158400Y-120904000D02*
X173583600Y-120243600D01*
X175463200Y-121259600D02*
X175158400Y-120904000D01*
X174853600Y-122580400D02*
X175463200Y-121259600D01*
X173532800Y-123647200D02*
X174853600Y-122580400D01*
X171704000Y-125069600D02*
X173532800Y-123647200D01*
X168148000Y-127508000D02*
X171704000Y-125069600D01*
X164947600Y-129184400D02*
X168148000Y-127508000D01*
X161188400Y-130556000D02*
X164947600Y-129184400D01*
X148894800Y-133756400D02*
X161188400Y-130556000D01*
X140462000Y-135280400D02*
X148894800Y-133756400D01*
X140462000Y-140868400D02*
X140462000Y-135280400D01*
X140157200Y-144780000D02*
X140462000Y-140868400D01*
X139090400Y-146608800D02*
X140157200Y-144780000D01*
X136906000Y-147472400D02*
X139090400Y-146608800D01*
X131775200Y-147624800D02*
X136906000Y-147472400D01*
X127406400Y-147269200D02*
X131775200Y-147624800D01*
X125069600Y-146100800D02*
X127406400Y-147269200D01*
X123799600Y-143814800D02*
X125069600Y-146100800D01*
D11*
G04 #@! TO.C,BTN1*
X132168000Y-138668000D02*
X132168000Y-143168000D01*
X136168000Y-137418000D02*
X134668000Y-137418000D01*
X138668000Y-143168000D02*
X138668000Y-138668000D01*
X134668000Y-144418000D02*
X136168000Y-144418000D01*
G04 #@! TO.C,D1*
X129785999Y-131065958D02*
G75*
G03X124186000Y-129424488I-3039999J1958D01*
G01*
X129785999Y-131062042D02*
G75*
G02X124186000Y-132703512I-3039999J-1958D01*
G01*
X129246000Y-131064000D02*
G75*
G03X129246000Y-131064000I-2500000J0D01*
G01*
X124186000Y-129424000D02*
X124186000Y-132704000D01*
G04 #@! TO.C,D2*
X115550000Y-127900000D02*
X115550000Y-131180000D01*
X120610000Y-129540000D02*
G75*
G03X120610000Y-129540000I-2500000J0D01*
G01*
X121149999Y-129538042D02*
G75*
G02X115550000Y-131179512I-3039999J-1958D01*
G01*
X121149999Y-129541958D02*
G75*
G03X115550000Y-127900488I-3039999J1958D01*
G01*
G04 #@! TO.C,D3*
X111497999Y-127509958D02*
G75*
G03X105898000Y-125868488I-3039999J1958D01*
G01*
X111497999Y-127506042D02*
G75*
G02X105898000Y-129147512I-3039999J-1958D01*
G01*
X110958000Y-127508000D02*
G75*
G03X110958000Y-127508000I-2500000J0D01*
G01*
X105898000Y-125868000D02*
X105898000Y-129148000D01*
G04 #@! TO.C,D4*
X95738000Y-120788000D02*
X95738000Y-124068000D01*
X100798000Y-122428000D02*
G75*
G03X100798000Y-122428000I-2500000J0D01*
G01*
X101337999Y-122426042D02*
G75*
G02X95738000Y-124067512I-3039999J-1958D01*
G01*
X101337999Y-122429958D02*
G75*
G03X95738000Y-120788488I-3039999J1958D01*
G01*
G04 #@! TO.C,D5*
X111497999Y-117857958D02*
G75*
G03X105898000Y-116216488I-3039999J1958D01*
G01*
X111497999Y-117854042D02*
G75*
G02X105898000Y-119495512I-3039999J-1958D01*
G01*
X110958000Y-117856000D02*
G75*
G03X110958000Y-117856000I-2500000J0D01*
G01*
X105898000Y-116216000D02*
X105898000Y-119496000D01*
G04 #@! TO.C,D6*
X113010000Y-109104000D02*
X113010000Y-112384000D01*
X118070000Y-110744000D02*
G75*
G03X118070000Y-110744000I-2500000J0D01*
G01*
X118609999Y-110742042D02*
G75*
G02X113010000Y-112383512I-3039999J-1958D01*
G01*
X118609999Y-110745958D02*
G75*
G03X113010000Y-109104488I-3039999J1958D01*
G01*
G04 #@! TO.C,D7*
X115053999Y-103125958D02*
G75*
G03X109454000Y-101484488I-3039999J1958D01*
G01*
X115053999Y-103122042D02*
G75*
G02X109454000Y-104763512I-3039999J-1958D01*
G01*
X114514000Y-103124000D02*
G75*
G03X114514000Y-103124000I-2500000J0D01*
G01*
X109454000Y-101484000D02*
X109454000Y-104764000D01*
G04 #@! TO.C,D8*
X117074000Y-94880000D02*
X117074000Y-98160000D01*
X122134000Y-96520000D02*
G75*
G03X122134000Y-96520000I-2500000J0D01*
G01*
X122673999Y-96518042D02*
G75*
G02X117074000Y-98159512I-3039999J-1958D01*
G01*
X122673999Y-96521958D02*
G75*
G03X117074000Y-94880488I-3039999J1958D01*
G01*
G04 #@! TO.C,D9*
X128769999Y-88393958D02*
G75*
G03X123170000Y-86752488I-3039999J1958D01*
G01*
X128769999Y-88390042D02*
G75*
G02X123170000Y-90031512I-3039999J-1958D01*
G01*
X128230000Y-88392000D02*
G75*
G03X128230000Y-88392000I-2500000J0D01*
G01*
X123170000Y-86752000D02*
X123170000Y-90032000D01*
G04 #@! TO.C,D10*
X125213999Y-80265958D02*
G75*
G03X119614000Y-78624488I-3039999J1958D01*
G01*
X125213999Y-80262042D02*
G75*
G02X119614000Y-81903512I-3039999J-1958D01*
G01*
X124674000Y-80264000D02*
G75*
G03X124674000Y-80264000I-2500000J0D01*
G01*
X119614000Y-78624000D02*
X119614000Y-81904000D01*
G04 #@! TO.C,D11*
X129774000Y-69480000D02*
X129774000Y-72760000D01*
X134834000Y-71120000D02*
G75*
G03X134834000Y-71120000I-2500000J0D01*
G01*
X135373999Y-71118042D02*
G75*
G02X129774000Y-72759512I-3039999J-1958D01*
G01*
X135373999Y-71121958D02*
G75*
G03X129774000Y-69480488I-3039999J1958D01*
G01*
G04 #@! TO.C,D12*
X145025999Y-80265958D02*
G75*
G03X139426000Y-78624488I-3039999J1958D01*
G01*
X145025999Y-80262042D02*
G75*
G02X139426000Y-81903512I-3039999J-1958D01*
G01*
X144486000Y-80264000D02*
G75*
G03X144486000Y-80264000I-2500000J0D01*
G01*
X139426000Y-78624000D02*
X139426000Y-81904000D01*
G04 #@! TO.C,D13*
X137902000Y-86752000D02*
X137902000Y-90032000D01*
X142962000Y-88392000D02*
G75*
G03X142962000Y-88392000I-2500000J0D01*
G01*
X143501999Y-88390042D02*
G75*
G02X137902000Y-90031512I-3039999J-1958D01*
G01*
X143501999Y-88393958D02*
G75*
G03X137902000Y-86752488I-3039999J1958D01*
G01*
G04 #@! TO.C,D14*
X148073999Y-96521958D02*
G75*
G03X142474000Y-94880488I-3039999J1958D01*
G01*
X148073999Y-96518042D02*
G75*
G02X142474000Y-98159512I-3039999J-1958D01*
G01*
X147534000Y-96520000D02*
G75*
G03X147534000Y-96520000I-2500000J0D01*
G01*
X142474000Y-94880000D02*
X142474000Y-98160000D01*
G04 #@! TO.C,D15*
X150602000Y-101484000D02*
X150602000Y-104764000D01*
X155662000Y-103124000D02*
G75*
G03X155662000Y-103124000I-2500000J0D01*
G01*
X156201999Y-103122042D02*
G75*
G02X150602000Y-104763512I-3039999J-1958D01*
G01*
X156201999Y-103125958D02*
G75*
G03X150602000Y-101484488I-3039999J1958D01*
G01*
G04 #@! TO.C,D16*
X152645999Y-110745958D02*
G75*
G03X147046000Y-109104488I-3039999J1958D01*
G01*
X152645999Y-110742042D02*
G75*
G02X147046000Y-112383512I-3039999J-1958D01*
G01*
X152106000Y-110744000D02*
G75*
G03X152106000Y-110744000I-2500000J0D01*
G01*
X147046000Y-109104000D02*
X147046000Y-112384000D01*
G04 #@! TO.C,D17*
X153650000Y-116216000D02*
X153650000Y-119496000D01*
X158710000Y-117856000D02*
G75*
G03X158710000Y-117856000I-2500000J0D01*
G01*
X159249999Y-117854042D02*
G75*
G02X153650000Y-119495512I-3039999J-1958D01*
G01*
X159249999Y-117857958D02*
G75*
G03X153650000Y-116216488I-3039999J1958D01*
G01*
G04 #@! TO.C,D18*
X169917999Y-122429958D02*
G75*
G03X164318000Y-120788488I-3039999J1958D01*
G01*
X169917999Y-122426042D02*
G75*
G02X164318000Y-124067512I-3039999J-1958D01*
G01*
X169378000Y-122428000D02*
G75*
G03X169378000Y-122428000I-2500000J0D01*
G01*
X164318000Y-120788000D02*
X164318000Y-124068000D01*
G04 #@! TO.C,D19*
X153650000Y-125868000D02*
X153650000Y-129148000D01*
X158710000Y-127508000D02*
G75*
G03X158710000Y-127508000I-2500000J0D01*
G01*
X159249999Y-127506042D02*
G75*
G02X153650000Y-129147512I-3039999J-1958D01*
G01*
X159249999Y-127509958D02*
G75*
G03X153650000Y-125868488I-3039999J1958D01*
G01*
G04 #@! TO.C,D20*
X149597999Y-130049958D02*
G75*
G03X143998000Y-128408488I-3039999J1958D01*
G01*
X149597999Y-130046042D02*
G75*
G02X143998000Y-131687512I-3039999J-1958D01*
G01*
X149058000Y-130048000D02*
G75*
G03X149058000Y-130048000I-2500000J0D01*
G01*
X143998000Y-128408000D02*
X143998000Y-131688000D01*
G04 #@! TO.C,D21*
X134854000Y-129424000D02*
X134854000Y-132704000D01*
X139914000Y-131064000D02*
G75*
G03X139914000Y-131064000I-2500000J0D01*
G01*
X140453999Y-131062042D02*
G75*
G02X134854000Y-132703512I-3039999J-1958D01*
G01*
X140453999Y-131065958D02*
G75*
G03X134854000Y-129424488I-3039999J1958D01*
G01*
G04 #@! TO.C,D22*
X137394000Y-116724000D02*
X137394000Y-120004000D01*
X142454000Y-118364000D02*
G75*
G03X142454000Y-118364000I-2500000J0D01*
G01*
X142993999Y-118362042D02*
G75*
G02X137394000Y-120003512I-3039999J-1958D01*
G01*
X142993999Y-118365958D02*
G75*
G03X137394000Y-116724488I-3039999J1958D01*
G01*
G04 #@! TO.C,D23*
X133849999Y-111253958D02*
G75*
G03X128250000Y-109612488I-3039999J1958D01*
G01*
X133849999Y-111250042D02*
G75*
G02X128250000Y-112891512I-3039999J-1958D01*
G01*
X133310000Y-111252000D02*
G75*
G03X133310000Y-111252000I-2500000J0D01*
G01*
X128250000Y-109612000D02*
X128250000Y-112892000D01*
G04 #@! TO.C,Power1*
X126170000Y-135250000D02*
X127500000Y-135250000D01*
X126170000Y-136580000D02*
X126170000Y-135250000D01*
X126170000Y-137850000D02*
X128830000Y-137850000D01*
X128830000Y-137850000D02*
X128830000Y-145530000D01*
X126170000Y-137850000D02*
X126170000Y-145530000D01*
X126170000Y-145530000D02*
X128830000Y-145530000D01*
G04 #@! TO.C,BTN1*
D12*
X134326476Y-141048571D02*
X134469333Y-141096190D01*
X134516952Y-141143809D01*
X134564571Y-141239047D01*
X134564571Y-141381904D01*
X134516952Y-141477142D01*
X134469333Y-141524761D01*
X134374095Y-141572380D01*
X133993142Y-141572380D01*
X133993142Y-140572380D01*
X134326476Y-140572380D01*
X134421714Y-140620000D01*
X134469333Y-140667619D01*
X134516952Y-140762857D01*
X134516952Y-140858095D01*
X134469333Y-140953333D01*
X134421714Y-141000952D01*
X134326476Y-141048571D01*
X133993142Y-141048571D01*
X134850285Y-140572380D02*
X135421714Y-140572380D01*
X135136000Y-141572380D02*
X135136000Y-140572380D01*
X135755047Y-141572380D02*
X135755047Y-140572380D01*
X136326476Y-141572380D01*
X136326476Y-140572380D01*
X137326476Y-141572380D02*
X136755047Y-141572380D01*
X137040761Y-141572380D02*
X137040761Y-140572380D01*
X136945523Y-140715238D01*
X136850285Y-140810476D01*
X136755047Y-140858095D01*
G04 #@! TO.C,HOOK*
D13*
X131925333Y-60170190D02*
X131925333Y-59670190D01*
X131925333Y-59908285D02*
X132211047Y-59908285D01*
X132211047Y-60170190D02*
X132211047Y-59670190D01*
X132544380Y-59670190D02*
X132639619Y-59670190D01*
X132687238Y-59694000D01*
X132734857Y-59741619D01*
X132758666Y-59836857D01*
X132758666Y-60003523D01*
X132734857Y-60098761D01*
X132687238Y-60146380D01*
X132639619Y-60170190D01*
X132544380Y-60170190D01*
X132496761Y-60146380D01*
X132449142Y-60098761D01*
X132425333Y-60003523D01*
X132425333Y-59836857D01*
X132449142Y-59741619D01*
X132496761Y-59694000D01*
X132544380Y-59670190D01*
X133068190Y-59670190D02*
X133163428Y-59670190D01*
X133211047Y-59694000D01*
X133258666Y-59741619D01*
X133282476Y-59836857D01*
X133282476Y-60003523D01*
X133258666Y-60098761D01*
X133211047Y-60146380D01*
X133163428Y-60170190D01*
X133068190Y-60170190D01*
X133020571Y-60146380D01*
X132972952Y-60098761D01*
X132949142Y-60003523D01*
X132949142Y-59836857D01*
X132972952Y-59741619D01*
X133020571Y-59694000D01*
X133068190Y-59670190D01*
X133496761Y-60170190D02*
X133496761Y-59670190D01*
X133782476Y-60170190D02*
X133568190Y-59884476D01*
X133782476Y-59670190D02*
X133496761Y-59955904D01*
G04 #@! TO.C,Power1*
D12*
X125432380Y-141372380D02*
X124432380Y-141372380D01*
X124432380Y-140991428D01*
X124480000Y-140896190D01*
X124527619Y-140848571D01*
X124622857Y-140800952D01*
X124765714Y-140800952D01*
X124860952Y-140848571D01*
X124908571Y-140896190D01*
X124956190Y-140991428D01*
X124956190Y-141372380D01*
X125432380Y-140229523D02*
X125384761Y-140324761D01*
X125337142Y-140372380D01*
X125241904Y-140420000D01*
X124956190Y-140420000D01*
X124860952Y-140372380D01*
X124813333Y-140324761D01*
X124765714Y-140229523D01*
X124765714Y-140086666D01*
X124813333Y-139991428D01*
X124860952Y-139943809D01*
X124956190Y-139896190D01*
X125241904Y-139896190D01*
X125337142Y-139943809D01*
X125384761Y-139991428D01*
X125432380Y-140086666D01*
X125432380Y-140229523D01*
X124765714Y-139562857D02*
X125432380Y-139372380D01*
X124956190Y-139181904D01*
X125432380Y-138991428D01*
X124765714Y-138800952D01*
X125384761Y-138039047D02*
X125432380Y-138134285D01*
X125432380Y-138324761D01*
X125384761Y-138420000D01*
X125289523Y-138467619D01*
X124908571Y-138467619D01*
X124813333Y-138420000D01*
X124765714Y-138324761D01*
X124765714Y-138134285D01*
X124813333Y-138039047D01*
X124908571Y-137991428D01*
X125003809Y-137991428D01*
X125099047Y-138467619D01*
X125432380Y-137562857D02*
X124765714Y-137562857D01*
X124956190Y-137562857D02*
X124860952Y-137515238D01*
X124813333Y-137467619D01*
X124765714Y-137372380D01*
X124765714Y-137277142D01*
X125432380Y-136420000D02*
X125432380Y-136991428D01*
X125432380Y-136705714D02*
X124432380Y-136705714D01*
X124575238Y-136800952D01*
X124670476Y-136896190D01*
X124718095Y-136991428D01*
G04 #@! TD*
M02*
