M48
;DRILL file {KiCad (5.0.0)} date 09/06/19 15:04:37
;FORMAT={-:-/ absolute / metric / decimal}
FMAT,2
METRIC,TZ
T1C0.400
T2C0.800
T3C0.820
T4C1.000
T5C1.100
T6C1.200
T7C2.500
%
G90
G05
M71
T1
X120.624Y-113.947
T2
X136.652Y-105.156
X136.652Y-107.696
X136.652Y-110.236
X136.652Y-112.776
X144.272Y-105.156
X144.272Y-107.696
X144.272Y-110.236
X144.272Y-112.776
T3
X114.3Y-110.744
X116.84Y-110.744
X148.336Y-110.744
X150.876Y-110.744
X138.684Y-118.364
X141.224Y-118.364
X139.192Y-88.392
X141.732Y-88.392
X145.288Y-130.048
X147.828Y-130.048
X140.716Y-80.264
X143.256Y-80.264
X151.892Y-103.124
X154.432Y-103.124
X143.764Y-96.52
X146.304Y-96.52
X110.744Y-103.124
X113.284Y-103.124
X131.064Y-71.12
X133.604Y-71.12
X165.608Y-122.428
X168.148Y-122.428
X107.188Y-127.508
X109.728Y-127.508
X129.54Y-111.252
X132.08Y-111.252
X136.144Y-131.064
X138.684Y-131.064
X120.904Y-80.264
X123.444Y-80.264
X154.94Y-127.508
X157.48Y-127.508
X107.188Y-117.856
X109.728Y-117.856
X116.84Y-129.54
X119.38Y-129.54
X118.364Y-96.52
X120.904Y-96.52
X124.46Y-88.392
X127.Y-88.392
X97.028Y-122.428
X99.568Y-122.428
X154.94Y-117.856
X157.48Y-117.856
X125.476Y-131.064
X128.016Y-131.064
T4
X115.824Y-116.332
X115.824Y-123.952
X118.364Y-116.332
X118.364Y-123.952
X120.904Y-116.332
X120.904Y-123.952
X123.444Y-116.332
X123.444Y-123.952
X125.984Y-116.332
X125.984Y-123.952
X128.524Y-116.332
X128.524Y-123.952
X131.064Y-116.332
X131.064Y-123.952
X133.604Y-116.332
X133.604Y-123.952
X127.5Y-136.58
X127.5Y-139.12
X127.5Y-141.66
X127.5Y-144.2
T5
X133.168Y-137.668
X133.168Y-144.168
X137.668Y-137.668
X137.668Y-144.168
T6
X133.096Y-80.956
X133.096Y-100.456
T7
X132.842Y-57.364
T0
M30
