G04 #@! TF.GenerationSoftware,KiCad,Pcbnew,(5.0.0)*
G04 #@! TF.CreationDate,2019-01-20T21:42:16-05:00*
G04 #@! TF.ProjectId,MiniTempleT,4D696E6954656D706C65542E6B696361,rev?*
G04 #@! TF.SameCoordinates,Original*
G04 #@! TF.FileFunction,Legend,Bot*
G04 #@! TF.FilePolarity,Positive*
%FSLAX46Y46*%
G04 Gerber Fmt 4.6, Leading zero omitted, Abs format (unit mm)*
G04 Created by KiCad (PCBNEW (5.0.0)) date 01/20/19 21:42:16*
%MOMM*%
%LPD*%
G01*
G04 APERTURE LIST*
%ADD10C,0.300000*%
%ADD11C,0.200000*%
%ADD12C,0.250000*%
%ADD13C,0.175000*%
%ADD14C,0.100000*%
%ADD15C,0.150000*%
G04 APERTURE END LIST*
D10*
X195738095Y-67404761D02*
X195738095Y-65404761D01*
X194880952Y-67404761D02*
X194880952Y-66357142D01*
X194976190Y-66166666D01*
X195166666Y-66071428D01*
X195452380Y-66071428D01*
X195642857Y-66166666D01*
X195738095Y-66261904D01*
X194214285Y-66071428D02*
X193452380Y-66071428D01*
X193928571Y-65404761D02*
X193928571Y-67119047D01*
X193833333Y-67309523D01*
X193642857Y-67404761D01*
X193452380Y-67404761D01*
X193071428Y-66071428D02*
X192309523Y-66071428D01*
X192785714Y-65404761D02*
X192785714Y-67119047D01*
X192690476Y-67309523D01*
X192500000Y-67404761D01*
X192309523Y-67404761D01*
X191642857Y-66071428D02*
X191642857Y-68071428D01*
X191642857Y-66166666D02*
X191452380Y-66071428D01*
X191071428Y-66071428D01*
X190880952Y-66166666D01*
X190785714Y-66261904D01*
X190690476Y-66452380D01*
X190690476Y-67023809D01*
X190785714Y-67214285D01*
X190880952Y-67309523D01*
X191071428Y-67404761D01*
X191452380Y-67404761D01*
X191642857Y-67309523D01*
X189928571Y-67309523D02*
X189738095Y-67404761D01*
X189357142Y-67404761D01*
X189166666Y-67309523D01*
X189071428Y-67119047D01*
X189071428Y-67023809D01*
X189166666Y-66833333D01*
X189357142Y-66738095D01*
X189642857Y-66738095D01*
X189833333Y-66642857D01*
X189928571Y-66452380D01*
X189928571Y-66357142D01*
X189833333Y-66166666D01*
X189642857Y-66071428D01*
X189357142Y-66071428D01*
X189166666Y-66166666D01*
X188214285Y-67214285D02*
X188119047Y-67309523D01*
X188214285Y-67404761D01*
X188309523Y-67309523D01*
X188214285Y-67214285D01*
X188214285Y-67404761D01*
X188214285Y-66166666D02*
X188119047Y-66261904D01*
X188214285Y-66357142D01*
X188309523Y-66261904D01*
X188214285Y-66166666D01*
X188214285Y-66357142D01*
X185833333Y-65309523D02*
X187547619Y-67880952D01*
X183738095Y-65309523D02*
X185452380Y-67880952D01*
X182309523Y-67309523D02*
X182500000Y-67404761D01*
X182880952Y-67404761D01*
X183071428Y-67309523D01*
X183166666Y-67119047D01*
X183166666Y-66357142D01*
X183071428Y-66166666D01*
X182880952Y-66071428D01*
X182500000Y-66071428D01*
X182309523Y-66166666D01*
X182214285Y-66357142D01*
X182214285Y-66547619D01*
X183166666Y-66738095D01*
X181357142Y-66071428D02*
X181357142Y-67404761D01*
X181357142Y-66261904D02*
X181261904Y-66166666D01*
X181071428Y-66071428D01*
X180785714Y-66071428D01*
X180595238Y-66166666D01*
X180500000Y-66357142D01*
X180500000Y-67404761D01*
X178690476Y-66071428D02*
X178690476Y-67690476D01*
X178785714Y-67880952D01*
X178880952Y-67976190D01*
X179071428Y-68071428D01*
X179357142Y-68071428D01*
X179547619Y-67976190D01*
X178690476Y-67309523D02*
X178880952Y-67404761D01*
X179261904Y-67404761D01*
X179452380Y-67309523D01*
X179547619Y-67214285D01*
X179642857Y-67023809D01*
X179642857Y-66452380D01*
X179547619Y-66261904D01*
X179452380Y-66166666D01*
X179261904Y-66071428D01*
X178880952Y-66071428D01*
X178690476Y-66166666D01*
X177738095Y-67404761D02*
X177738095Y-66071428D01*
X177738095Y-65404761D02*
X177833333Y-65500000D01*
X177738095Y-65595238D01*
X177642857Y-65500000D01*
X177738095Y-65404761D01*
X177738095Y-65595238D01*
X176785714Y-66071428D02*
X176785714Y-67404761D01*
X176785714Y-66261904D02*
X176690476Y-66166666D01*
X176500000Y-66071428D01*
X176214285Y-66071428D01*
X176023809Y-66166666D01*
X175928571Y-66357142D01*
X175928571Y-67404761D01*
X174214285Y-67309523D02*
X174404761Y-67404761D01*
X174785714Y-67404761D01*
X174976190Y-67309523D01*
X175071428Y-67119047D01*
X175071428Y-66357142D01*
X174976190Y-66166666D01*
X174785714Y-66071428D01*
X174404761Y-66071428D01*
X174214285Y-66166666D01*
X174119047Y-66357142D01*
X174119047Y-66547619D01*
X175071428Y-66738095D01*
X172500000Y-67309523D02*
X172690476Y-67404761D01*
X173071428Y-67404761D01*
X173261904Y-67309523D01*
X173357142Y-67119047D01*
X173357142Y-66357142D01*
X173261904Y-66166666D01*
X173071428Y-66071428D01*
X172690476Y-66071428D01*
X172500000Y-66166666D01*
X172404761Y-66357142D01*
X172404761Y-66547619D01*
X173357142Y-66738095D01*
X171547619Y-67404761D02*
X171547619Y-66071428D01*
X171547619Y-66452380D02*
X171452380Y-66261904D01*
X171357142Y-66166666D01*
X171166666Y-66071428D01*
X170976190Y-66071428D01*
X170309523Y-67404761D02*
X170309523Y-66071428D01*
X170309523Y-65404761D02*
X170404761Y-65500000D01*
X170309523Y-65595238D01*
X170214285Y-65500000D01*
X170309523Y-65404761D01*
X170309523Y-65595238D01*
X169357142Y-66071428D02*
X169357142Y-67404761D01*
X169357142Y-66261904D02*
X169261904Y-66166666D01*
X169071428Y-66071428D01*
X168785714Y-66071428D01*
X168595238Y-66166666D01*
X168500000Y-66357142D01*
X168500000Y-67404761D01*
X166690476Y-66071428D02*
X166690476Y-67690476D01*
X166785714Y-67880952D01*
X166880952Y-67976190D01*
X167071428Y-68071428D01*
X167357142Y-68071428D01*
X167547619Y-67976190D01*
X166690476Y-67309523D02*
X166880952Y-67404761D01*
X167261904Y-67404761D01*
X167452380Y-67309523D01*
X167547619Y-67214285D01*
X167642857Y-67023809D01*
X167642857Y-66452380D01*
X167547619Y-66261904D01*
X167452380Y-66166666D01*
X167261904Y-66071428D01*
X166880952Y-66071428D01*
X166690476Y-66166666D01*
X165738095Y-67214285D02*
X165642857Y-67309523D01*
X165738095Y-67404761D01*
X165833333Y-67309523D01*
X165738095Y-67214285D01*
X165738095Y-67404761D01*
X165071428Y-66071428D02*
X164309523Y-66071428D01*
X164785714Y-65404761D02*
X164785714Y-67119047D01*
X164690476Y-67309523D01*
X164500000Y-67404761D01*
X164309523Y-67404761D01*
X162880952Y-67309523D02*
X163071428Y-67404761D01*
X163452380Y-67404761D01*
X163642857Y-67309523D01*
X163738095Y-67119047D01*
X163738095Y-66357142D01*
X163642857Y-66166666D01*
X163452380Y-66071428D01*
X163071428Y-66071428D01*
X162880952Y-66166666D01*
X162785714Y-66357142D01*
X162785714Y-66547619D01*
X163738095Y-66738095D01*
X161928571Y-67404761D02*
X161928571Y-66071428D01*
X161928571Y-66261904D02*
X161833333Y-66166666D01*
X161642857Y-66071428D01*
X161357142Y-66071428D01*
X161166666Y-66166666D01*
X161071428Y-66357142D01*
X161071428Y-67404761D01*
X161071428Y-66357142D02*
X160976190Y-66166666D01*
X160785714Y-66071428D01*
X160500000Y-66071428D01*
X160309523Y-66166666D01*
X160214285Y-66357142D01*
X160214285Y-67404761D01*
X159261904Y-66071428D02*
X159261904Y-68071428D01*
X159261904Y-66166666D02*
X159071428Y-66071428D01*
X158690476Y-66071428D01*
X158500000Y-66166666D01*
X158404761Y-66261904D01*
X158309523Y-66452380D01*
X158309523Y-67023809D01*
X158404761Y-67214285D01*
X158500000Y-67309523D01*
X158690476Y-67404761D01*
X159071428Y-67404761D01*
X159261904Y-67309523D01*
X157166666Y-67404761D02*
X157357142Y-67309523D01*
X157452380Y-67119047D01*
X157452380Y-65404761D01*
X155642857Y-67309523D02*
X155833333Y-67404761D01*
X156214285Y-67404761D01*
X156404761Y-67309523D01*
X156500000Y-67119047D01*
X156500000Y-66357142D01*
X156404761Y-66166666D01*
X156214285Y-66071428D01*
X155833333Y-66071428D01*
X155642857Y-66166666D01*
X155547619Y-66357142D01*
X155547619Y-66547619D01*
X156500000Y-66738095D01*
X154690476Y-67214285D02*
X154595238Y-67309523D01*
X154690476Y-67404761D01*
X154785714Y-67309523D01*
X154690476Y-67214285D01*
X154690476Y-67404761D01*
X152976190Y-67309523D02*
X153166666Y-67404761D01*
X153547619Y-67404761D01*
X153738095Y-67309523D01*
X153833333Y-67119047D01*
X153833333Y-66357142D01*
X153738095Y-66166666D01*
X153547619Y-66071428D01*
X153166666Y-66071428D01*
X152976190Y-66166666D01*
X152880952Y-66357142D01*
X152880952Y-66547619D01*
X153833333Y-66738095D01*
X151166666Y-67404761D02*
X151166666Y-65404761D01*
X151166666Y-67309523D02*
X151357142Y-67404761D01*
X151738095Y-67404761D01*
X151928571Y-67309523D01*
X152023809Y-67214285D01*
X152119047Y-67023809D01*
X152119047Y-66452380D01*
X152023809Y-66261904D01*
X151928571Y-66166666D01*
X151738095Y-66071428D01*
X151357142Y-66071428D01*
X151166666Y-66166666D01*
X149357142Y-66071428D02*
X149357142Y-67404761D01*
X150214285Y-66071428D02*
X150214285Y-67119047D01*
X150119047Y-67309523D01*
X149928571Y-67404761D01*
X149642857Y-67404761D01*
X149452380Y-67309523D01*
X149357142Y-67214285D01*
X146976190Y-65309523D02*
X148690476Y-67880952D01*
D11*
X173157142Y-114561904D02*
X173423809Y-114180952D01*
X173614285Y-114561904D02*
X173614285Y-113761904D01*
X173309523Y-113761904D01*
X173233333Y-113800000D01*
X173195238Y-113838095D01*
X173157142Y-113914285D01*
X173157142Y-114028571D01*
X173195238Y-114104761D01*
X173233333Y-114142857D01*
X173309523Y-114180952D01*
X173614285Y-114180952D01*
X172509523Y-114523809D02*
X172585714Y-114561904D01*
X172738095Y-114561904D01*
X172814285Y-114523809D01*
X172852380Y-114447619D01*
X172852380Y-114142857D01*
X172814285Y-114066666D01*
X172738095Y-114028571D01*
X172585714Y-114028571D01*
X172509523Y-114066666D01*
X172471428Y-114142857D01*
X172471428Y-114219047D01*
X172852380Y-114295238D01*
X172204761Y-114028571D02*
X172014285Y-114561904D01*
X171823809Y-114028571D01*
X170490476Y-114561904D02*
X170947619Y-114561904D01*
X170719047Y-114561904D02*
X170719047Y-113761904D01*
X170795238Y-113876190D01*
X170871428Y-113952380D01*
X170947619Y-113990476D01*
X170147619Y-114485714D02*
X170109523Y-114523809D01*
X170147619Y-114561904D01*
X170185714Y-114523809D01*
X170147619Y-114485714D01*
X170147619Y-114561904D01*
X169423809Y-114028571D02*
X169423809Y-114561904D01*
X169614285Y-113723809D02*
X169804761Y-114295238D01*
X169309523Y-114295238D01*
D12*
X177168404Y-104842571D02*
X176835071Y-106342571D01*
X176501738Y-104842571D01*
X175596976Y-106199714D02*
X175644595Y-106271142D01*
X175787452Y-106342571D01*
X175882690Y-106342571D01*
X176025547Y-106271142D01*
X176120785Y-106128285D01*
X176168404Y-105985428D01*
X176216023Y-105699714D01*
X176216023Y-105485428D01*
X176168404Y-105199714D01*
X176120785Y-105056857D01*
X176025547Y-104914000D01*
X175882690Y-104842571D01*
X175787452Y-104842571D01*
X175644595Y-104914000D01*
X175596976Y-104985428D01*
X174596976Y-106199714D02*
X174644595Y-106271142D01*
X174787452Y-106342571D01*
X174882690Y-106342571D01*
X175025547Y-106271142D01*
X175120785Y-106128285D01*
X175168404Y-105985428D01*
X175216023Y-105699714D01*
X175216023Y-105485428D01*
X175168404Y-105199714D01*
X175120785Y-105056857D01*
X175025547Y-104914000D01*
X174882690Y-104842571D01*
X174787452Y-104842571D01*
X174644595Y-104914000D01*
X174596976Y-104985428D01*
D10*
X158716320Y-138764577D02*
X158502034Y-138836005D01*
X158430605Y-138907434D01*
X158359177Y-139050291D01*
X158359177Y-139264577D01*
X158430605Y-139407434D01*
X158502034Y-139478862D01*
X158644891Y-139550291D01*
X159216320Y-139550291D01*
X159216320Y-138050291D01*
X158716320Y-138050291D01*
X158573462Y-138121720D01*
X158502034Y-138193148D01*
X158430605Y-138336005D01*
X158430605Y-138478862D01*
X158502034Y-138621720D01*
X158573462Y-138693148D01*
X158716320Y-138764577D01*
X159216320Y-138764577D01*
X157930605Y-138050291D02*
X157073462Y-138050291D01*
X157502034Y-139550291D02*
X157502034Y-138050291D01*
X156573462Y-139550291D02*
X156573462Y-138050291D01*
X155716320Y-139550291D01*
X155716320Y-138050291D01*
D13*
X174044535Y-132783071D02*
X173744535Y-134283071D01*
X173444535Y-132783071D01*
X172630250Y-134140214D02*
X172673107Y-134211642D01*
X172801678Y-134283071D01*
X172887392Y-134283071D01*
X173015964Y-134211642D01*
X173101678Y-134068785D01*
X173144535Y-133925928D01*
X173187392Y-133640214D01*
X173187392Y-133425928D01*
X173144535Y-133140214D01*
X173101678Y-132997357D01*
X173015964Y-132854500D01*
X172887392Y-132783071D01*
X172801678Y-132783071D01*
X172673107Y-132854500D01*
X172630250Y-132925928D01*
X171730250Y-134140214D02*
X171773107Y-134211642D01*
X171901678Y-134283071D01*
X171987392Y-134283071D01*
X172115964Y-134211642D01*
X172201678Y-134068785D01*
X172244535Y-133925928D01*
X172287392Y-133640214D01*
X172287392Y-133425928D01*
X172244535Y-133140214D01*
X172201678Y-132997357D01*
X172115964Y-132854500D01*
X171987392Y-132783071D01*
X171901678Y-132783071D01*
X171773107Y-132854500D01*
X171730250Y-132925928D01*
X170144535Y-134283071D02*
X170444535Y-133568785D01*
X170658821Y-134283071D02*
X170658821Y-132783071D01*
X170315964Y-132783071D01*
X170230250Y-132854500D01*
X170187392Y-132925928D01*
X170144535Y-133068785D01*
X170144535Y-133283071D01*
X170187392Y-133425928D01*
X170230250Y-133497357D01*
X170315964Y-133568785D01*
X170658821Y-133568785D01*
X169801678Y-134211642D02*
X169673107Y-134283071D01*
X169458821Y-134283071D01*
X169373107Y-134211642D01*
X169330250Y-134140214D01*
X169287392Y-133997357D01*
X169287392Y-133854500D01*
X169330250Y-133711642D01*
X169373107Y-133640214D01*
X169458821Y-133568785D01*
X169630250Y-133497357D01*
X169715964Y-133425928D01*
X169758821Y-133354500D01*
X169801678Y-133211642D01*
X169801678Y-133068785D01*
X169758821Y-132925928D01*
X169715964Y-132854500D01*
X169630250Y-132783071D01*
X169415964Y-132783071D01*
X169287392Y-132854500D01*
X169030250Y-132783071D02*
X168515964Y-132783071D01*
X168773107Y-134283071D02*
X168773107Y-132783071D01*
X173401678Y-136708071D02*
X173701678Y-135993785D01*
X173915964Y-136708071D02*
X173915964Y-135208071D01*
X173573107Y-135208071D01*
X173487392Y-135279500D01*
X173444535Y-135350928D01*
X173401678Y-135493785D01*
X173401678Y-135708071D01*
X173444535Y-135850928D01*
X173487392Y-135922357D01*
X173573107Y-135993785D01*
X173915964Y-135993785D01*
X172501678Y-136565214D02*
X172544535Y-136636642D01*
X172673107Y-136708071D01*
X172758821Y-136708071D01*
X172887392Y-136636642D01*
X172973107Y-136493785D01*
X173015964Y-136350928D01*
X173058821Y-136065214D01*
X173058821Y-135850928D01*
X173015964Y-135565214D01*
X172973107Y-135422357D01*
X172887392Y-135279500D01*
X172758821Y-135208071D01*
X172673107Y-135208071D01*
X172544535Y-135279500D01*
X172501678Y-135350928D01*
X171687392Y-136708071D02*
X172115964Y-136708071D01*
X172115964Y-135208071D01*
X171387392Y-136708071D02*
X171387392Y-135208071D01*
X170873107Y-136708071D02*
X171258821Y-135850928D01*
X170873107Y-135208071D02*
X171387392Y-136065214D01*
X169630250Y-135208071D02*
X169458821Y-135208071D01*
X169373107Y-135279500D01*
X169287392Y-135422357D01*
X169244535Y-135708071D01*
X169244535Y-136208071D01*
X169287392Y-136493785D01*
X169373107Y-136636642D01*
X169458821Y-136708071D01*
X169630250Y-136708071D01*
X169715964Y-136636642D01*
X169801678Y-136493785D01*
X169844535Y-136208071D01*
X169844535Y-135708071D01*
X169801678Y-135422357D01*
X169715964Y-135279500D01*
X169630250Y-135208071D01*
X168858821Y-135922357D02*
X168558821Y-135922357D01*
X168430250Y-136708071D02*
X168858821Y-136708071D01*
X168858821Y-135208071D01*
X168430250Y-135208071D01*
X173401678Y-138990214D02*
X173444535Y-139061642D01*
X173573107Y-139133071D01*
X173658821Y-139133071D01*
X173787392Y-139061642D01*
X173873107Y-138918785D01*
X173915964Y-138775928D01*
X173958821Y-138490214D01*
X173958821Y-138275928D01*
X173915964Y-137990214D01*
X173873107Y-137847357D01*
X173787392Y-137704500D01*
X173658821Y-137633071D01*
X173573107Y-137633071D01*
X173444535Y-137704500D01*
X173401678Y-137775928D01*
X172587392Y-139133071D02*
X173015964Y-139133071D01*
X173015964Y-137633071D01*
X172287392Y-139133071D02*
X172287392Y-137633071D01*
X171773107Y-139133071D02*
X172158821Y-138275928D01*
X171773107Y-137633071D02*
X172287392Y-138490214D01*
X170401678Y-138347357D02*
X170273107Y-138418785D01*
X170230250Y-138490214D01*
X170187392Y-138633071D01*
X170187392Y-138847357D01*
X170230250Y-138990214D01*
X170273107Y-139061642D01*
X170358821Y-139133071D01*
X170701678Y-139133071D01*
X170701678Y-137633071D01*
X170401678Y-137633071D01*
X170315964Y-137704500D01*
X170273107Y-137775928D01*
X170230250Y-137918785D01*
X170230250Y-138061642D01*
X170273107Y-138204500D01*
X170315964Y-138275928D01*
X170401678Y-138347357D01*
X170701678Y-138347357D01*
X169930250Y-137633071D02*
X169415964Y-137633071D01*
X169673107Y-139133071D02*
X169673107Y-137633071D01*
X169115964Y-139133071D02*
X169115964Y-137633071D01*
X168601678Y-139133071D01*
X168601678Y-137633071D01*
X173915964Y-141558071D02*
X173915964Y-140058071D01*
X173701678Y-140058071D01*
X173573107Y-140129500D01*
X173487392Y-140272357D01*
X173444535Y-140415214D01*
X173401678Y-140700928D01*
X173401678Y-140915214D01*
X173444535Y-141200928D01*
X173487392Y-141343785D01*
X173573107Y-141486642D01*
X173701678Y-141558071D01*
X173915964Y-141558071D01*
X173058821Y-141129500D02*
X172630250Y-141129500D01*
X173144535Y-141558071D02*
X172844535Y-140058071D01*
X172544535Y-141558071D01*
X172373107Y-140058071D02*
X171858821Y-140058071D01*
X172115964Y-141558071D02*
X172115964Y-140058071D01*
X170401678Y-140129500D02*
X170487392Y-140058071D01*
X170615964Y-140058071D01*
X170744535Y-140129500D01*
X170830250Y-140272357D01*
X170873107Y-140415214D01*
X170915964Y-140700928D01*
X170915964Y-140915214D01*
X170873107Y-141200928D01*
X170830250Y-141343785D01*
X170744535Y-141486642D01*
X170615964Y-141558071D01*
X170530250Y-141558071D01*
X170401678Y-141486642D01*
X170358821Y-141415214D01*
X170358821Y-140915214D01*
X170530250Y-140915214D01*
X169973107Y-141558071D02*
X169973107Y-140058071D01*
X169458821Y-141558071D01*
X169458821Y-140058071D01*
X169030250Y-141558071D02*
X169030250Y-140058071D01*
X168815964Y-140058071D01*
X168687392Y-140129500D01*
X168601678Y-140272357D01*
X168558821Y-140415214D01*
X168515964Y-140700928D01*
X168515964Y-140915214D01*
X168558821Y-141200928D01*
X168601678Y-141343785D01*
X168687392Y-141486642D01*
X168815964Y-141558071D01*
X169030250Y-141558071D01*
D10*
X173196000Y-115510571D02*
X172696000Y-117010571D01*
X172196000Y-115510571D01*
X170838857Y-116867714D02*
X170910285Y-116939142D01*
X171124571Y-117010571D01*
X171267428Y-117010571D01*
X171481714Y-116939142D01*
X171624571Y-116796285D01*
X171696000Y-116653428D01*
X171767428Y-116367714D01*
X171767428Y-116153428D01*
X171696000Y-115867714D01*
X171624571Y-115724857D01*
X171481714Y-115582000D01*
X171267428Y-115510571D01*
X171124571Y-115510571D01*
X170910285Y-115582000D01*
X170838857Y-115653428D01*
X169338857Y-116867714D02*
X169410285Y-116939142D01*
X169624571Y-117010571D01*
X169767428Y-117010571D01*
X169981714Y-116939142D01*
X170124571Y-116796285D01*
X170196000Y-116653428D01*
X170267428Y-116367714D01*
X170267428Y-116153428D01*
X170196000Y-115867714D01*
X170124571Y-115724857D01*
X169981714Y-115582000D01*
X169767428Y-115510571D01*
X169624571Y-115510571D01*
X169410285Y-115582000D01*
X169338857Y-115653428D01*
X172338857Y-101866000D02*
X172481714Y-101794571D01*
X172696000Y-101794571D01*
X172910285Y-101866000D01*
X173053142Y-102008857D01*
X173124571Y-102151714D01*
X173196000Y-102437428D01*
X173196000Y-102651714D01*
X173124571Y-102937428D01*
X173053142Y-103080285D01*
X172910285Y-103223142D01*
X172696000Y-103294571D01*
X172553142Y-103294571D01*
X172338857Y-103223142D01*
X172267428Y-103151714D01*
X172267428Y-102651714D01*
X172553142Y-102651714D01*
X171624571Y-103294571D02*
X171624571Y-101794571D01*
X170767428Y-103294571D01*
X170767428Y-101794571D01*
X170053142Y-103294571D02*
X170053142Y-101794571D01*
X169696000Y-101794571D01*
X169481714Y-101866000D01*
X169338857Y-102008857D01*
X169267428Y-102151714D01*
X169196000Y-102437428D01*
X169196000Y-102651714D01*
X169267428Y-102937428D01*
X169338857Y-103080285D01*
X169481714Y-103223142D01*
X169696000Y-103294571D01*
X170053142Y-103294571D01*
D11*
X182120953Y-107696000D02*
G75*
G03X182120953Y-107696000I-10924953J0D01*
G01*
D12*
X167294214Y-105041000D02*
X167389452Y-104969571D01*
X167532309Y-104969571D01*
X167675166Y-105041000D01*
X167770404Y-105183857D01*
X167818023Y-105326714D01*
X167865642Y-105612428D01*
X167865642Y-105826714D01*
X167818023Y-106112428D01*
X167770404Y-106255285D01*
X167675166Y-106398142D01*
X167532309Y-106469571D01*
X167437071Y-106469571D01*
X167294214Y-106398142D01*
X167246595Y-106326714D01*
X167246595Y-105826714D01*
X167437071Y-105826714D01*
X166818023Y-106469571D02*
X166818023Y-104969571D01*
X166246595Y-106469571D01*
X166246595Y-104969571D01*
X165770404Y-106469571D02*
X165770404Y-104969571D01*
X165532309Y-104969571D01*
X165389452Y-105041000D01*
X165294214Y-105183857D01*
X165246595Y-105326714D01*
X165198976Y-105612428D01*
X165198976Y-105826714D01*
X165246595Y-106112428D01*
X165294214Y-106255285D01*
X165389452Y-106398142D01*
X165532309Y-106469571D01*
X165770404Y-106469571D01*
D14*
G04 #@! TO.C,D1*
X135610600Y-85217000D02*
G75*
G03X135610600Y-85217000I-3606800J0D01*
G01*
G04 #@! TO.C,D2*
X135610600Y-76117000D02*
G75*
G03X135610600Y-76117000I-3606800J0D01*
G01*
G04 #@! TO.C,D3*
X135610600Y-67017000D02*
G75*
G03X135610600Y-67017000I-3606800J0D01*
G01*
G04 #@! TO.C,D4*
X135610600Y-57917000D02*
G75*
G03X135610600Y-57917000I-3606800J0D01*
G01*
G04 #@! TO.C,D5*
X145410600Y-57917000D02*
G75*
G03X145410600Y-57917000I-3606800J0D01*
G01*
G04 #@! TO.C,D6*
X155210600Y-57917000D02*
G75*
G03X155210600Y-57917000I-3606800J0D01*
G01*
G04 #@! TO.C,D7*
X165010600Y-57917000D02*
G75*
G03X165010600Y-57917000I-3606800J0D01*
G01*
G04 #@! TO.C,D8*
X174810600Y-57917000D02*
G75*
G03X174810600Y-57917000I-3606800J0D01*
G01*
G04 #@! TO.C,D9*
X184610600Y-57917000D02*
G75*
G03X184610600Y-57917000I-3606800J0D01*
G01*
G04 #@! TO.C,D10*
X194410600Y-57917000D02*
G75*
G03X194410600Y-57917000I-3606800J0D01*
G01*
G04 #@! TO.C,D11*
X204210600Y-57917000D02*
G75*
G03X204210600Y-57917000I-3606800J0D01*
G01*
G04 #@! TO.C,D12*
X214010600Y-57917000D02*
G75*
G03X214010600Y-57917000I-3606800J0D01*
G01*
G04 #@! TO.C,D13*
X214010600Y-67017000D02*
G75*
G03X214010600Y-67017000I-3606800J0D01*
G01*
G04 #@! TO.C,D14*
X214010600Y-76117000D02*
G75*
G03X214010600Y-76117000I-3606800J0D01*
G01*
G04 #@! TO.C,D15*
X214010600Y-85217000D02*
G75*
G03X214010600Y-85217000I-3606800J0D01*
G01*
G04 #@! TO.C,D16*
X197484600Y-85217000D02*
G75*
G03X197484600Y-85217000I-3606800J0D01*
G01*
G04 #@! TO.C,D17*
X197484600Y-73837800D02*
G75*
G03X197484600Y-73837800I-3606800J0D01*
G01*
G04 #@! TO.C,D18*
X190296600Y-73837800D02*
G75*
G03X190296600Y-73837800I-3606800J0D01*
G01*
G04 #@! TO.C,D19*
X183083600Y-73837800D02*
G75*
G03X183083600Y-73837800I-3606800J0D01*
G01*
G04 #@! TO.C,D20*
X183083600Y-83037800D02*
G75*
G03X183083600Y-83037800I-3606800J0D01*
G01*
G04 #@! TO.C,D21*
X183083600Y-92237800D02*
G75*
G03X183083600Y-92237800I-3606800J0D01*
G01*
G04 #@! TO.C,D22*
X183083600Y-120699000D02*
G75*
G03X183083600Y-120699000I-3606800J0D01*
G01*
G04 #@! TO.C,D23*
X183083600Y-129899000D02*
G75*
G03X183083600Y-129899000I-3606800J0D01*
G01*
G04 #@! TO.C,D24*
X193083600Y-129899000D02*
G75*
G03X193083600Y-129899000I-3606800J0D01*
G01*
G04 #@! TO.C,D25*
X193077600Y-146558000D02*
G75*
G03X193077600Y-146558000I-3606800J0D01*
G01*
G04 #@! TO.C,D26*
X183877600Y-146558000D02*
G75*
G03X183877600Y-146558000I-3606800J0D01*
G01*
G04 #@! TO.C,D27*
X174853600Y-146558000D02*
G75*
G03X174853600Y-146558000I-3606800J0D01*
G01*
G04 #@! TO.C,D28*
X165829600Y-146558000D02*
G75*
G03X165829600Y-146558000I-3606800J0D01*
G01*
G04 #@! TO.C,D29*
X156804600Y-146558000D02*
G75*
G03X156804600Y-146558000I-3606800J0D01*
G01*
G04 #@! TO.C,D30*
X156804600Y-129899000D02*
G75*
G03X156804600Y-129899000I-3606800J0D01*
G01*
G04 #@! TO.C,D31*
X166661600Y-129921000D02*
G75*
G03X166661600Y-129921000I-3606800J0D01*
G01*
G04 #@! TO.C,D32*
X166661600Y-120699000D02*
G75*
G03X166661600Y-120699000I-3606800J0D01*
G01*
G04 #@! TO.C,D33*
X166661600Y-92237800D02*
G75*
G03X166661600Y-92237800I-3606800J0D01*
G01*
G04 #@! TO.C,D34*
X166661600Y-83037800D02*
G75*
G03X166661600Y-83037800I-3606800J0D01*
G01*
G04 #@! TO.C,D35*
X166661600Y-73837800D02*
G75*
G03X166661600Y-73837800I-3606800J0D01*
G01*
G04 #@! TO.C,D36*
X159423600Y-73850500D02*
G75*
G03X159423600Y-73850500I-3606800J0D01*
G01*
G04 #@! TO.C,D37*
X152183600Y-73850500D02*
G75*
G03X152183600Y-73850500I-3606800J0D01*
G01*
G04 #@! TO.C,D38*
X152183600Y-85217000D02*
G75*
G03X152183600Y-85217000I-3606800J0D01*
G01*
G04 #@! TO.C,D1*
D15*
X133097495Y-87853780D02*
X133097495Y-86853780D01*
X132859400Y-86853780D01*
X132716542Y-86901400D01*
X132621304Y-86996638D01*
X132573685Y-87091876D01*
X132526066Y-87282352D01*
X132526066Y-87425209D01*
X132573685Y-87615685D01*
X132621304Y-87710923D01*
X132716542Y-87806161D01*
X132859400Y-87853780D01*
X133097495Y-87853780D01*
X131573685Y-87853780D02*
X132145114Y-87853780D01*
X131859400Y-87853780D02*
X131859400Y-86853780D01*
X131954638Y-86996638D01*
X132049876Y-87091876D01*
X132145114Y-87139495D01*
X133384752Y-83205628D02*
X132622847Y-83205628D01*
X133003800Y-83586580D02*
X133003800Y-82824676D01*
X131384752Y-83205628D02*
X130622847Y-83205628D01*
G04 #@! TO.C,D2*
X133097495Y-78753780D02*
X133097495Y-77753780D01*
X132859400Y-77753780D01*
X132716542Y-77801400D01*
X132621304Y-77896638D01*
X132573685Y-77991876D01*
X132526066Y-78182352D01*
X132526066Y-78325209D01*
X132573685Y-78515685D01*
X132621304Y-78610923D01*
X132716542Y-78706161D01*
X132859400Y-78753780D01*
X133097495Y-78753780D01*
X132145114Y-77849019D02*
X132097495Y-77801400D01*
X132002257Y-77753780D01*
X131764161Y-77753780D01*
X131668923Y-77801400D01*
X131621304Y-77849019D01*
X131573685Y-77944257D01*
X131573685Y-78039495D01*
X131621304Y-78182352D01*
X132192733Y-78753780D01*
X131573685Y-78753780D01*
X133384752Y-74105628D02*
X132622847Y-74105628D01*
X133003800Y-74486580D02*
X133003800Y-73724676D01*
X131384752Y-74105628D02*
X130622847Y-74105628D01*
G04 #@! TO.C,D3*
X133097495Y-69653780D02*
X133097495Y-68653780D01*
X132859400Y-68653780D01*
X132716542Y-68701400D01*
X132621304Y-68796638D01*
X132573685Y-68891876D01*
X132526066Y-69082352D01*
X132526066Y-69225209D01*
X132573685Y-69415685D01*
X132621304Y-69510923D01*
X132716542Y-69606161D01*
X132859400Y-69653780D01*
X133097495Y-69653780D01*
X132192733Y-68653780D02*
X131573685Y-68653780D01*
X131907019Y-69034733D01*
X131764161Y-69034733D01*
X131668923Y-69082352D01*
X131621304Y-69129971D01*
X131573685Y-69225209D01*
X131573685Y-69463304D01*
X131621304Y-69558542D01*
X131668923Y-69606161D01*
X131764161Y-69653780D01*
X132049876Y-69653780D01*
X132145114Y-69606161D01*
X132192733Y-69558542D01*
X133384752Y-65005628D02*
X132622847Y-65005628D01*
X133003800Y-65386580D02*
X133003800Y-64624676D01*
X131384752Y-65005628D02*
X130622847Y-65005628D01*
G04 #@! TO.C,D4*
X133097495Y-60553780D02*
X133097495Y-59553780D01*
X132859400Y-59553780D01*
X132716542Y-59601400D01*
X132621304Y-59696638D01*
X132573685Y-59791876D01*
X132526066Y-59982352D01*
X132526066Y-60125209D01*
X132573685Y-60315685D01*
X132621304Y-60410923D01*
X132716542Y-60506161D01*
X132859400Y-60553780D01*
X133097495Y-60553780D01*
X131668923Y-59887114D02*
X131668923Y-60553780D01*
X131907019Y-59506161D02*
X132145114Y-60220447D01*
X131526066Y-60220447D01*
X133384752Y-55905628D02*
X132622847Y-55905628D01*
X133003800Y-56286580D02*
X133003800Y-55524676D01*
X131384752Y-55905628D02*
X130622847Y-55905628D01*
G04 #@! TO.C,D5*
X142897495Y-60553780D02*
X142897495Y-59553780D01*
X142659400Y-59553780D01*
X142516542Y-59601400D01*
X142421304Y-59696638D01*
X142373685Y-59791876D01*
X142326066Y-59982352D01*
X142326066Y-60125209D01*
X142373685Y-60315685D01*
X142421304Y-60410923D01*
X142516542Y-60506161D01*
X142659400Y-60553780D01*
X142897495Y-60553780D01*
X141421304Y-59553780D02*
X141897495Y-59553780D01*
X141945114Y-60029971D01*
X141897495Y-59982352D01*
X141802257Y-59934733D01*
X141564161Y-59934733D01*
X141468923Y-59982352D01*
X141421304Y-60029971D01*
X141373685Y-60125209D01*
X141373685Y-60363304D01*
X141421304Y-60458542D01*
X141468923Y-60506161D01*
X141564161Y-60553780D01*
X141802257Y-60553780D01*
X141897495Y-60506161D01*
X141945114Y-60458542D01*
X143184752Y-55905628D02*
X142422847Y-55905628D01*
X142803800Y-56286580D02*
X142803800Y-55524676D01*
X141184752Y-55905628D02*
X140422847Y-55905628D01*
G04 #@! TO.C,D6*
X152697495Y-60553780D02*
X152697495Y-59553780D01*
X152459400Y-59553780D01*
X152316542Y-59601400D01*
X152221304Y-59696638D01*
X152173685Y-59791876D01*
X152126066Y-59982352D01*
X152126066Y-60125209D01*
X152173685Y-60315685D01*
X152221304Y-60410923D01*
X152316542Y-60506161D01*
X152459400Y-60553780D01*
X152697495Y-60553780D01*
X151268923Y-59553780D02*
X151459400Y-59553780D01*
X151554638Y-59601400D01*
X151602257Y-59649019D01*
X151697495Y-59791876D01*
X151745114Y-59982352D01*
X151745114Y-60363304D01*
X151697495Y-60458542D01*
X151649876Y-60506161D01*
X151554638Y-60553780D01*
X151364161Y-60553780D01*
X151268923Y-60506161D01*
X151221304Y-60458542D01*
X151173685Y-60363304D01*
X151173685Y-60125209D01*
X151221304Y-60029971D01*
X151268923Y-59982352D01*
X151364161Y-59934733D01*
X151554638Y-59934733D01*
X151649876Y-59982352D01*
X151697495Y-60029971D01*
X151745114Y-60125209D01*
X152984752Y-55905628D02*
X152222847Y-55905628D01*
X152603800Y-56286580D02*
X152603800Y-55524676D01*
X150984752Y-55905628D02*
X150222847Y-55905628D01*
G04 #@! TO.C,D7*
X162497495Y-60553780D02*
X162497495Y-59553780D01*
X162259400Y-59553780D01*
X162116542Y-59601400D01*
X162021304Y-59696638D01*
X161973685Y-59791876D01*
X161926066Y-59982352D01*
X161926066Y-60125209D01*
X161973685Y-60315685D01*
X162021304Y-60410923D01*
X162116542Y-60506161D01*
X162259400Y-60553780D01*
X162497495Y-60553780D01*
X161592733Y-59553780D02*
X160926066Y-59553780D01*
X161354638Y-60553780D01*
X162784752Y-55905628D02*
X162022847Y-55905628D01*
X162403800Y-56286580D02*
X162403800Y-55524676D01*
X160784752Y-55905628D02*
X160022847Y-55905628D01*
G04 #@! TO.C,D8*
X172297495Y-60553780D02*
X172297495Y-59553780D01*
X172059400Y-59553780D01*
X171916542Y-59601400D01*
X171821304Y-59696638D01*
X171773685Y-59791876D01*
X171726066Y-59982352D01*
X171726066Y-60125209D01*
X171773685Y-60315685D01*
X171821304Y-60410923D01*
X171916542Y-60506161D01*
X172059400Y-60553780D01*
X172297495Y-60553780D01*
X171154638Y-59982352D02*
X171249876Y-59934733D01*
X171297495Y-59887114D01*
X171345114Y-59791876D01*
X171345114Y-59744257D01*
X171297495Y-59649019D01*
X171249876Y-59601400D01*
X171154638Y-59553780D01*
X170964161Y-59553780D01*
X170868923Y-59601400D01*
X170821304Y-59649019D01*
X170773685Y-59744257D01*
X170773685Y-59791876D01*
X170821304Y-59887114D01*
X170868923Y-59934733D01*
X170964161Y-59982352D01*
X171154638Y-59982352D01*
X171249876Y-60029971D01*
X171297495Y-60077590D01*
X171345114Y-60172828D01*
X171345114Y-60363304D01*
X171297495Y-60458542D01*
X171249876Y-60506161D01*
X171154638Y-60553780D01*
X170964161Y-60553780D01*
X170868923Y-60506161D01*
X170821304Y-60458542D01*
X170773685Y-60363304D01*
X170773685Y-60172828D01*
X170821304Y-60077590D01*
X170868923Y-60029971D01*
X170964161Y-59982352D01*
X172584752Y-55905628D02*
X171822847Y-55905628D01*
X172203800Y-56286580D02*
X172203800Y-55524676D01*
X170584752Y-55905628D02*
X169822847Y-55905628D01*
G04 #@! TO.C,D9*
X182097495Y-60553780D02*
X182097495Y-59553780D01*
X181859400Y-59553780D01*
X181716542Y-59601400D01*
X181621304Y-59696638D01*
X181573685Y-59791876D01*
X181526066Y-59982352D01*
X181526066Y-60125209D01*
X181573685Y-60315685D01*
X181621304Y-60410923D01*
X181716542Y-60506161D01*
X181859400Y-60553780D01*
X182097495Y-60553780D01*
X181049876Y-60553780D02*
X180859400Y-60553780D01*
X180764161Y-60506161D01*
X180716542Y-60458542D01*
X180621304Y-60315685D01*
X180573685Y-60125209D01*
X180573685Y-59744257D01*
X180621304Y-59649019D01*
X180668923Y-59601400D01*
X180764161Y-59553780D01*
X180954638Y-59553780D01*
X181049876Y-59601400D01*
X181097495Y-59649019D01*
X181145114Y-59744257D01*
X181145114Y-59982352D01*
X181097495Y-60077590D01*
X181049876Y-60125209D01*
X180954638Y-60172828D01*
X180764161Y-60172828D01*
X180668923Y-60125209D01*
X180621304Y-60077590D01*
X180573685Y-59982352D01*
X182384752Y-55905628D02*
X181622847Y-55905628D01*
X182003800Y-56286580D02*
X182003800Y-55524676D01*
X180384752Y-55905628D02*
X179622847Y-55905628D01*
G04 #@! TO.C,D10*
X192373685Y-60553780D02*
X192373685Y-59553780D01*
X192135590Y-59553780D01*
X191992733Y-59601400D01*
X191897495Y-59696638D01*
X191849876Y-59791876D01*
X191802257Y-59982352D01*
X191802257Y-60125209D01*
X191849876Y-60315685D01*
X191897495Y-60410923D01*
X191992733Y-60506161D01*
X192135590Y-60553780D01*
X192373685Y-60553780D01*
X190849876Y-60553780D02*
X191421304Y-60553780D01*
X191135590Y-60553780D02*
X191135590Y-59553780D01*
X191230828Y-59696638D01*
X191326066Y-59791876D01*
X191421304Y-59839495D01*
X190230828Y-59553780D02*
X190135590Y-59553780D01*
X190040352Y-59601400D01*
X189992733Y-59649019D01*
X189945114Y-59744257D01*
X189897495Y-59934733D01*
X189897495Y-60172828D01*
X189945114Y-60363304D01*
X189992733Y-60458542D01*
X190040352Y-60506161D01*
X190135590Y-60553780D01*
X190230828Y-60553780D01*
X190326066Y-60506161D01*
X190373685Y-60458542D01*
X190421304Y-60363304D01*
X190468923Y-60172828D01*
X190468923Y-59934733D01*
X190421304Y-59744257D01*
X190373685Y-59649019D01*
X190326066Y-59601400D01*
X190230828Y-59553780D01*
X192184752Y-55905628D02*
X191422847Y-55905628D01*
X191803800Y-56286580D02*
X191803800Y-55524676D01*
X190184752Y-55905628D02*
X189422847Y-55905628D01*
G04 #@! TO.C,D11*
X202173685Y-60553780D02*
X202173685Y-59553780D01*
X201935590Y-59553780D01*
X201792733Y-59601400D01*
X201697495Y-59696638D01*
X201649876Y-59791876D01*
X201602257Y-59982352D01*
X201602257Y-60125209D01*
X201649876Y-60315685D01*
X201697495Y-60410923D01*
X201792733Y-60506161D01*
X201935590Y-60553780D01*
X202173685Y-60553780D01*
X200649876Y-60553780D02*
X201221304Y-60553780D01*
X200935590Y-60553780D02*
X200935590Y-59553780D01*
X201030828Y-59696638D01*
X201126066Y-59791876D01*
X201221304Y-59839495D01*
X199697495Y-60553780D02*
X200268923Y-60553780D01*
X199983209Y-60553780D02*
X199983209Y-59553780D01*
X200078447Y-59696638D01*
X200173685Y-59791876D01*
X200268923Y-59839495D01*
X201984752Y-55905628D02*
X201222847Y-55905628D01*
X201603800Y-56286580D02*
X201603800Y-55524676D01*
X199984752Y-55905628D02*
X199222847Y-55905628D01*
G04 #@! TO.C,D12*
X211973685Y-60553780D02*
X211973685Y-59553780D01*
X211735590Y-59553780D01*
X211592733Y-59601400D01*
X211497495Y-59696638D01*
X211449876Y-59791876D01*
X211402257Y-59982352D01*
X211402257Y-60125209D01*
X211449876Y-60315685D01*
X211497495Y-60410923D01*
X211592733Y-60506161D01*
X211735590Y-60553780D01*
X211973685Y-60553780D01*
X210449876Y-60553780D02*
X211021304Y-60553780D01*
X210735590Y-60553780D02*
X210735590Y-59553780D01*
X210830828Y-59696638D01*
X210926066Y-59791876D01*
X211021304Y-59839495D01*
X210068923Y-59649019D02*
X210021304Y-59601400D01*
X209926066Y-59553780D01*
X209687971Y-59553780D01*
X209592733Y-59601400D01*
X209545114Y-59649019D01*
X209497495Y-59744257D01*
X209497495Y-59839495D01*
X209545114Y-59982352D01*
X210116542Y-60553780D01*
X209497495Y-60553780D01*
X211784752Y-55905628D02*
X211022847Y-55905628D01*
X211403800Y-56286580D02*
X211403800Y-55524676D01*
X209784752Y-55905628D02*
X209022847Y-55905628D01*
G04 #@! TO.C,D13*
X211973685Y-69653780D02*
X211973685Y-68653780D01*
X211735590Y-68653780D01*
X211592733Y-68701400D01*
X211497495Y-68796638D01*
X211449876Y-68891876D01*
X211402257Y-69082352D01*
X211402257Y-69225209D01*
X211449876Y-69415685D01*
X211497495Y-69510923D01*
X211592733Y-69606161D01*
X211735590Y-69653780D01*
X211973685Y-69653780D01*
X210449876Y-69653780D02*
X211021304Y-69653780D01*
X210735590Y-69653780D02*
X210735590Y-68653780D01*
X210830828Y-68796638D01*
X210926066Y-68891876D01*
X211021304Y-68939495D01*
X210116542Y-68653780D02*
X209497495Y-68653780D01*
X209830828Y-69034733D01*
X209687971Y-69034733D01*
X209592733Y-69082352D01*
X209545114Y-69129971D01*
X209497495Y-69225209D01*
X209497495Y-69463304D01*
X209545114Y-69558542D01*
X209592733Y-69606161D01*
X209687971Y-69653780D01*
X209973685Y-69653780D01*
X210068923Y-69606161D01*
X210116542Y-69558542D01*
X211784752Y-65005628D02*
X211022847Y-65005628D01*
X211403800Y-65386580D02*
X211403800Y-64624676D01*
X209784752Y-65005628D02*
X209022847Y-65005628D01*
G04 #@! TO.C,D14*
X211973685Y-78753780D02*
X211973685Y-77753780D01*
X211735590Y-77753780D01*
X211592733Y-77801400D01*
X211497495Y-77896638D01*
X211449876Y-77991876D01*
X211402257Y-78182352D01*
X211402257Y-78325209D01*
X211449876Y-78515685D01*
X211497495Y-78610923D01*
X211592733Y-78706161D01*
X211735590Y-78753780D01*
X211973685Y-78753780D01*
X210449876Y-78753780D02*
X211021304Y-78753780D01*
X210735590Y-78753780D02*
X210735590Y-77753780D01*
X210830828Y-77896638D01*
X210926066Y-77991876D01*
X211021304Y-78039495D01*
X209592733Y-78087114D02*
X209592733Y-78753780D01*
X209830828Y-77706161D02*
X210068923Y-78420447D01*
X209449876Y-78420447D01*
X211784752Y-74105628D02*
X211022847Y-74105628D01*
X211403800Y-74486580D02*
X211403800Y-73724676D01*
X209784752Y-74105628D02*
X209022847Y-74105628D01*
G04 #@! TO.C,D15*
X211973685Y-87853780D02*
X211973685Y-86853780D01*
X211735590Y-86853780D01*
X211592733Y-86901400D01*
X211497495Y-86996638D01*
X211449876Y-87091876D01*
X211402257Y-87282352D01*
X211402257Y-87425209D01*
X211449876Y-87615685D01*
X211497495Y-87710923D01*
X211592733Y-87806161D01*
X211735590Y-87853780D01*
X211973685Y-87853780D01*
X210449876Y-87853780D02*
X211021304Y-87853780D01*
X210735590Y-87853780D02*
X210735590Y-86853780D01*
X210830828Y-86996638D01*
X210926066Y-87091876D01*
X211021304Y-87139495D01*
X209545114Y-86853780D02*
X210021304Y-86853780D01*
X210068923Y-87329971D01*
X210021304Y-87282352D01*
X209926066Y-87234733D01*
X209687971Y-87234733D01*
X209592733Y-87282352D01*
X209545114Y-87329971D01*
X209497495Y-87425209D01*
X209497495Y-87663304D01*
X209545114Y-87758542D01*
X209592733Y-87806161D01*
X209687971Y-87853780D01*
X209926066Y-87853780D01*
X210021304Y-87806161D01*
X210068923Y-87758542D01*
X211784752Y-83205628D02*
X211022847Y-83205628D01*
X211403800Y-83586580D02*
X211403800Y-82824676D01*
X209784752Y-83205628D02*
X209022847Y-83205628D01*
G04 #@! TO.C,D16*
X195447685Y-87853780D02*
X195447685Y-86853780D01*
X195209590Y-86853780D01*
X195066733Y-86901400D01*
X194971495Y-86996638D01*
X194923876Y-87091876D01*
X194876257Y-87282352D01*
X194876257Y-87425209D01*
X194923876Y-87615685D01*
X194971495Y-87710923D01*
X195066733Y-87806161D01*
X195209590Y-87853780D01*
X195447685Y-87853780D01*
X193923876Y-87853780D02*
X194495304Y-87853780D01*
X194209590Y-87853780D02*
X194209590Y-86853780D01*
X194304828Y-86996638D01*
X194400066Y-87091876D01*
X194495304Y-87139495D01*
X193066733Y-86853780D02*
X193257209Y-86853780D01*
X193352447Y-86901400D01*
X193400066Y-86949019D01*
X193495304Y-87091876D01*
X193542923Y-87282352D01*
X193542923Y-87663304D01*
X193495304Y-87758542D01*
X193447685Y-87806161D01*
X193352447Y-87853780D01*
X193161971Y-87853780D01*
X193066733Y-87806161D01*
X193019114Y-87758542D01*
X192971495Y-87663304D01*
X192971495Y-87425209D01*
X193019114Y-87329971D01*
X193066733Y-87282352D01*
X193161971Y-87234733D01*
X193352447Y-87234733D01*
X193447685Y-87282352D01*
X193495304Y-87329971D01*
X193542923Y-87425209D01*
X195258752Y-83205628D02*
X194496847Y-83205628D01*
X194877800Y-83586580D02*
X194877800Y-82824676D01*
X193258752Y-83205628D02*
X192496847Y-83205628D01*
G04 #@! TO.C,D17*
X195447685Y-76474580D02*
X195447685Y-75474580D01*
X195209590Y-75474580D01*
X195066733Y-75522200D01*
X194971495Y-75617438D01*
X194923876Y-75712676D01*
X194876257Y-75903152D01*
X194876257Y-76046009D01*
X194923876Y-76236485D01*
X194971495Y-76331723D01*
X195066733Y-76426961D01*
X195209590Y-76474580D01*
X195447685Y-76474580D01*
X193923876Y-76474580D02*
X194495304Y-76474580D01*
X194209590Y-76474580D02*
X194209590Y-75474580D01*
X194304828Y-75617438D01*
X194400066Y-75712676D01*
X194495304Y-75760295D01*
X193590542Y-75474580D02*
X192923876Y-75474580D01*
X193352447Y-76474580D01*
X195258752Y-71826428D02*
X194496847Y-71826428D01*
X194877800Y-72207380D02*
X194877800Y-71445476D01*
X193258752Y-71826428D02*
X192496847Y-71826428D01*
G04 #@! TO.C,D18*
X188259685Y-76474580D02*
X188259685Y-75474580D01*
X188021590Y-75474580D01*
X187878733Y-75522200D01*
X187783495Y-75617438D01*
X187735876Y-75712676D01*
X187688257Y-75903152D01*
X187688257Y-76046009D01*
X187735876Y-76236485D01*
X187783495Y-76331723D01*
X187878733Y-76426961D01*
X188021590Y-76474580D01*
X188259685Y-76474580D01*
X186735876Y-76474580D02*
X187307304Y-76474580D01*
X187021590Y-76474580D02*
X187021590Y-75474580D01*
X187116828Y-75617438D01*
X187212066Y-75712676D01*
X187307304Y-75760295D01*
X186164447Y-75903152D02*
X186259685Y-75855533D01*
X186307304Y-75807914D01*
X186354923Y-75712676D01*
X186354923Y-75665057D01*
X186307304Y-75569819D01*
X186259685Y-75522200D01*
X186164447Y-75474580D01*
X185973971Y-75474580D01*
X185878733Y-75522200D01*
X185831114Y-75569819D01*
X185783495Y-75665057D01*
X185783495Y-75712676D01*
X185831114Y-75807914D01*
X185878733Y-75855533D01*
X185973971Y-75903152D01*
X186164447Y-75903152D01*
X186259685Y-75950771D01*
X186307304Y-75998390D01*
X186354923Y-76093628D01*
X186354923Y-76284104D01*
X186307304Y-76379342D01*
X186259685Y-76426961D01*
X186164447Y-76474580D01*
X185973971Y-76474580D01*
X185878733Y-76426961D01*
X185831114Y-76379342D01*
X185783495Y-76284104D01*
X185783495Y-76093628D01*
X185831114Y-75998390D01*
X185878733Y-75950771D01*
X185973971Y-75903152D01*
X188070752Y-71826428D02*
X187308847Y-71826428D01*
X187689800Y-72207380D02*
X187689800Y-71445476D01*
X186070752Y-71826428D02*
X185308847Y-71826428D01*
G04 #@! TO.C,D19*
X181046685Y-76474580D02*
X181046685Y-75474580D01*
X180808590Y-75474580D01*
X180665733Y-75522200D01*
X180570495Y-75617438D01*
X180522876Y-75712676D01*
X180475257Y-75903152D01*
X180475257Y-76046009D01*
X180522876Y-76236485D01*
X180570495Y-76331723D01*
X180665733Y-76426961D01*
X180808590Y-76474580D01*
X181046685Y-76474580D01*
X179522876Y-76474580D02*
X180094304Y-76474580D01*
X179808590Y-76474580D02*
X179808590Y-75474580D01*
X179903828Y-75617438D01*
X179999066Y-75712676D01*
X180094304Y-75760295D01*
X179046685Y-76474580D02*
X178856209Y-76474580D01*
X178760971Y-76426961D01*
X178713352Y-76379342D01*
X178618114Y-76236485D01*
X178570495Y-76046009D01*
X178570495Y-75665057D01*
X178618114Y-75569819D01*
X178665733Y-75522200D01*
X178760971Y-75474580D01*
X178951447Y-75474580D01*
X179046685Y-75522200D01*
X179094304Y-75569819D01*
X179141923Y-75665057D01*
X179141923Y-75903152D01*
X179094304Y-75998390D01*
X179046685Y-76046009D01*
X178951447Y-76093628D01*
X178760971Y-76093628D01*
X178665733Y-76046009D01*
X178618114Y-75998390D01*
X178570495Y-75903152D01*
X180857752Y-71826428D02*
X180095847Y-71826428D01*
X180476800Y-72207380D02*
X180476800Y-71445476D01*
X178857752Y-71826428D02*
X178095847Y-71826428D01*
G04 #@! TO.C,D20*
X181046685Y-85674580D02*
X181046685Y-84674580D01*
X180808590Y-84674580D01*
X180665733Y-84722200D01*
X180570495Y-84817438D01*
X180522876Y-84912676D01*
X180475257Y-85103152D01*
X180475257Y-85246009D01*
X180522876Y-85436485D01*
X180570495Y-85531723D01*
X180665733Y-85626961D01*
X180808590Y-85674580D01*
X181046685Y-85674580D01*
X180094304Y-84769819D02*
X180046685Y-84722200D01*
X179951447Y-84674580D01*
X179713352Y-84674580D01*
X179618114Y-84722200D01*
X179570495Y-84769819D01*
X179522876Y-84865057D01*
X179522876Y-84960295D01*
X179570495Y-85103152D01*
X180141923Y-85674580D01*
X179522876Y-85674580D01*
X178903828Y-84674580D02*
X178808590Y-84674580D01*
X178713352Y-84722200D01*
X178665733Y-84769819D01*
X178618114Y-84865057D01*
X178570495Y-85055533D01*
X178570495Y-85293628D01*
X178618114Y-85484104D01*
X178665733Y-85579342D01*
X178713352Y-85626961D01*
X178808590Y-85674580D01*
X178903828Y-85674580D01*
X178999066Y-85626961D01*
X179046685Y-85579342D01*
X179094304Y-85484104D01*
X179141923Y-85293628D01*
X179141923Y-85055533D01*
X179094304Y-84865057D01*
X179046685Y-84769819D01*
X178999066Y-84722200D01*
X178903828Y-84674580D01*
X180857752Y-81026428D02*
X180095847Y-81026428D01*
X180476800Y-81407380D02*
X180476800Y-80645476D01*
X178857752Y-81026428D02*
X178095847Y-81026428D01*
G04 #@! TO.C,D21*
X181046685Y-94874580D02*
X181046685Y-93874580D01*
X180808590Y-93874580D01*
X180665733Y-93922200D01*
X180570495Y-94017438D01*
X180522876Y-94112676D01*
X180475257Y-94303152D01*
X180475257Y-94446009D01*
X180522876Y-94636485D01*
X180570495Y-94731723D01*
X180665733Y-94826961D01*
X180808590Y-94874580D01*
X181046685Y-94874580D01*
X180094304Y-93969819D02*
X180046685Y-93922200D01*
X179951447Y-93874580D01*
X179713352Y-93874580D01*
X179618114Y-93922200D01*
X179570495Y-93969819D01*
X179522876Y-94065057D01*
X179522876Y-94160295D01*
X179570495Y-94303152D01*
X180141923Y-94874580D01*
X179522876Y-94874580D01*
X178570495Y-94874580D02*
X179141923Y-94874580D01*
X178856209Y-94874580D02*
X178856209Y-93874580D01*
X178951447Y-94017438D01*
X179046685Y-94112676D01*
X179141923Y-94160295D01*
X180857752Y-90226428D02*
X180095847Y-90226428D01*
X180476800Y-90607380D02*
X180476800Y-89845476D01*
X178857752Y-90226428D02*
X178095847Y-90226428D01*
G04 #@! TO.C,D22*
X181046685Y-123335780D02*
X181046685Y-122335780D01*
X180808590Y-122335780D01*
X180665733Y-122383400D01*
X180570495Y-122478638D01*
X180522876Y-122573876D01*
X180475257Y-122764352D01*
X180475257Y-122907209D01*
X180522876Y-123097685D01*
X180570495Y-123192923D01*
X180665733Y-123288161D01*
X180808590Y-123335780D01*
X181046685Y-123335780D01*
X180094304Y-122431019D02*
X180046685Y-122383400D01*
X179951447Y-122335780D01*
X179713352Y-122335780D01*
X179618114Y-122383400D01*
X179570495Y-122431019D01*
X179522876Y-122526257D01*
X179522876Y-122621495D01*
X179570495Y-122764352D01*
X180141923Y-123335780D01*
X179522876Y-123335780D01*
X179141923Y-122431019D02*
X179094304Y-122383400D01*
X178999066Y-122335780D01*
X178760971Y-122335780D01*
X178665733Y-122383400D01*
X178618114Y-122431019D01*
X178570495Y-122526257D01*
X178570495Y-122621495D01*
X178618114Y-122764352D01*
X179189542Y-123335780D01*
X178570495Y-123335780D01*
X180857752Y-118687628D02*
X180095847Y-118687628D01*
X180476800Y-119068580D02*
X180476800Y-118306676D01*
X178857752Y-118687628D02*
X178095847Y-118687628D01*
G04 #@! TO.C,D23*
X181046685Y-132535780D02*
X181046685Y-131535780D01*
X180808590Y-131535780D01*
X180665733Y-131583400D01*
X180570495Y-131678638D01*
X180522876Y-131773876D01*
X180475257Y-131964352D01*
X180475257Y-132107209D01*
X180522876Y-132297685D01*
X180570495Y-132392923D01*
X180665733Y-132488161D01*
X180808590Y-132535780D01*
X181046685Y-132535780D01*
X180094304Y-131631019D02*
X180046685Y-131583400D01*
X179951447Y-131535780D01*
X179713352Y-131535780D01*
X179618114Y-131583400D01*
X179570495Y-131631019D01*
X179522876Y-131726257D01*
X179522876Y-131821495D01*
X179570495Y-131964352D01*
X180141923Y-132535780D01*
X179522876Y-132535780D01*
X179189542Y-131535780D02*
X178570495Y-131535780D01*
X178903828Y-131916733D01*
X178760971Y-131916733D01*
X178665733Y-131964352D01*
X178618114Y-132011971D01*
X178570495Y-132107209D01*
X178570495Y-132345304D01*
X178618114Y-132440542D01*
X178665733Y-132488161D01*
X178760971Y-132535780D01*
X179046685Y-132535780D01*
X179141923Y-132488161D01*
X179189542Y-132440542D01*
X180857752Y-127887628D02*
X180095847Y-127887628D01*
X180476800Y-128268580D02*
X180476800Y-127506676D01*
X178857752Y-127887628D02*
X178095847Y-127887628D01*
G04 #@! TO.C,D24*
X191046685Y-132535780D02*
X191046685Y-131535780D01*
X190808590Y-131535780D01*
X190665733Y-131583400D01*
X190570495Y-131678638D01*
X190522876Y-131773876D01*
X190475257Y-131964352D01*
X190475257Y-132107209D01*
X190522876Y-132297685D01*
X190570495Y-132392923D01*
X190665733Y-132488161D01*
X190808590Y-132535780D01*
X191046685Y-132535780D01*
X190094304Y-131631019D02*
X190046685Y-131583400D01*
X189951447Y-131535780D01*
X189713352Y-131535780D01*
X189618114Y-131583400D01*
X189570495Y-131631019D01*
X189522876Y-131726257D01*
X189522876Y-131821495D01*
X189570495Y-131964352D01*
X190141923Y-132535780D01*
X189522876Y-132535780D01*
X188665733Y-131869114D02*
X188665733Y-132535780D01*
X188903828Y-131488161D02*
X189141923Y-132202447D01*
X188522876Y-132202447D01*
X190857752Y-127887628D02*
X190095847Y-127887628D01*
X190476800Y-128268580D02*
X190476800Y-127506676D01*
X188857752Y-127887628D02*
X188095847Y-127887628D01*
G04 #@! TO.C,D25*
X191040685Y-149194780D02*
X191040685Y-148194780D01*
X190802590Y-148194780D01*
X190659733Y-148242400D01*
X190564495Y-148337638D01*
X190516876Y-148432876D01*
X190469257Y-148623352D01*
X190469257Y-148766209D01*
X190516876Y-148956685D01*
X190564495Y-149051923D01*
X190659733Y-149147161D01*
X190802590Y-149194780D01*
X191040685Y-149194780D01*
X190088304Y-148290019D02*
X190040685Y-148242400D01*
X189945447Y-148194780D01*
X189707352Y-148194780D01*
X189612114Y-148242400D01*
X189564495Y-148290019D01*
X189516876Y-148385257D01*
X189516876Y-148480495D01*
X189564495Y-148623352D01*
X190135923Y-149194780D01*
X189516876Y-149194780D01*
X188612114Y-148194780D02*
X189088304Y-148194780D01*
X189135923Y-148670971D01*
X189088304Y-148623352D01*
X188993066Y-148575733D01*
X188754971Y-148575733D01*
X188659733Y-148623352D01*
X188612114Y-148670971D01*
X188564495Y-148766209D01*
X188564495Y-149004304D01*
X188612114Y-149099542D01*
X188659733Y-149147161D01*
X188754971Y-149194780D01*
X188993066Y-149194780D01*
X189088304Y-149147161D01*
X189135923Y-149099542D01*
X190851752Y-144546628D02*
X190089847Y-144546628D01*
X190470800Y-144927580D02*
X190470800Y-144165676D01*
X188851752Y-144546628D02*
X188089847Y-144546628D01*
G04 #@! TO.C,D26*
X181840685Y-149194780D02*
X181840685Y-148194780D01*
X181602590Y-148194780D01*
X181459733Y-148242400D01*
X181364495Y-148337638D01*
X181316876Y-148432876D01*
X181269257Y-148623352D01*
X181269257Y-148766209D01*
X181316876Y-148956685D01*
X181364495Y-149051923D01*
X181459733Y-149147161D01*
X181602590Y-149194780D01*
X181840685Y-149194780D01*
X180888304Y-148290019D02*
X180840685Y-148242400D01*
X180745447Y-148194780D01*
X180507352Y-148194780D01*
X180412114Y-148242400D01*
X180364495Y-148290019D01*
X180316876Y-148385257D01*
X180316876Y-148480495D01*
X180364495Y-148623352D01*
X180935923Y-149194780D01*
X180316876Y-149194780D01*
X179459733Y-148194780D02*
X179650209Y-148194780D01*
X179745447Y-148242400D01*
X179793066Y-148290019D01*
X179888304Y-148432876D01*
X179935923Y-148623352D01*
X179935923Y-149004304D01*
X179888304Y-149099542D01*
X179840685Y-149147161D01*
X179745447Y-149194780D01*
X179554971Y-149194780D01*
X179459733Y-149147161D01*
X179412114Y-149099542D01*
X179364495Y-149004304D01*
X179364495Y-148766209D01*
X179412114Y-148670971D01*
X179459733Y-148623352D01*
X179554971Y-148575733D01*
X179745447Y-148575733D01*
X179840685Y-148623352D01*
X179888304Y-148670971D01*
X179935923Y-148766209D01*
X181651752Y-144546628D02*
X180889847Y-144546628D01*
X181270800Y-144927580D02*
X181270800Y-144165676D01*
X179651752Y-144546628D02*
X178889847Y-144546628D01*
G04 #@! TO.C,D27*
X172816685Y-149194780D02*
X172816685Y-148194780D01*
X172578590Y-148194780D01*
X172435733Y-148242400D01*
X172340495Y-148337638D01*
X172292876Y-148432876D01*
X172245257Y-148623352D01*
X172245257Y-148766209D01*
X172292876Y-148956685D01*
X172340495Y-149051923D01*
X172435733Y-149147161D01*
X172578590Y-149194780D01*
X172816685Y-149194780D01*
X171864304Y-148290019D02*
X171816685Y-148242400D01*
X171721447Y-148194780D01*
X171483352Y-148194780D01*
X171388114Y-148242400D01*
X171340495Y-148290019D01*
X171292876Y-148385257D01*
X171292876Y-148480495D01*
X171340495Y-148623352D01*
X171911923Y-149194780D01*
X171292876Y-149194780D01*
X170959542Y-148194780D02*
X170292876Y-148194780D01*
X170721447Y-149194780D01*
X172627752Y-144546628D02*
X171865847Y-144546628D01*
X172246800Y-144927580D02*
X172246800Y-144165676D01*
X170627752Y-144546628D02*
X169865847Y-144546628D01*
G04 #@! TO.C,D28*
X163792685Y-149194780D02*
X163792685Y-148194780D01*
X163554590Y-148194780D01*
X163411733Y-148242400D01*
X163316495Y-148337638D01*
X163268876Y-148432876D01*
X163221257Y-148623352D01*
X163221257Y-148766209D01*
X163268876Y-148956685D01*
X163316495Y-149051923D01*
X163411733Y-149147161D01*
X163554590Y-149194780D01*
X163792685Y-149194780D01*
X162840304Y-148290019D02*
X162792685Y-148242400D01*
X162697447Y-148194780D01*
X162459352Y-148194780D01*
X162364114Y-148242400D01*
X162316495Y-148290019D01*
X162268876Y-148385257D01*
X162268876Y-148480495D01*
X162316495Y-148623352D01*
X162887923Y-149194780D01*
X162268876Y-149194780D01*
X161697447Y-148623352D02*
X161792685Y-148575733D01*
X161840304Y-148528114D01*
X161887923Y-148432876D01*
X161887923Y-148385257D01*
X161840304Y-148290019D01*
X161792685Y-148242400D01*
X161697447Y-148194780D01*
X161506971Y-148194780D01*
X161411733Y-148242400D01*
X161364114Y-148290019D01*
X161316495Y-148385257D01*
X161316495Y-148432876D01*
X161364114Y-148528114D01*
X161411733Y-148575733D01*
X161506971Y-148623352D01*
X161697447Y-148623352D01*
X161792685Y-148670971D01*
X161840304Y-148718590D01*
X161887923Y-148813828D01*
X161887923Y-149004304D01*
X161840304Y-149099542D01*
X161792685Y-149147161D01*
X161697447Y-149194780D01*
X161506971Y-149194780D01*
X161411733Y-149147161D01*
X161364114Y-149099542D01*
X161316495Y-149004304D01*
X161316495Y-148813828D01*
X161364114Y-148718590D01*
X161411733Y-148670971D01*
X161506971Y-148623352D01*
X163603752Y-144546628D02*
X162841847Y-144546628D01*
X163222800Y-144927580D02*
X163222800Y-144165676D01*
X161603752Y-144546628D02*
X160841847Y-144546628D01*
G04 #@! TO.C,D29*
X154767685Y-149194780D02*
X154767685Y-148194780D01*
X154529590Y-148194780D01*
X154386733Y-148242400D01*
X154291495Y-148337638D01*
X154243876Y-148432876D01*
X154196257Y-148623352D01*
X154196257Y-148766209D01*
X154243876Y-148956685D01*
X154291495Y-149051923D01*
X154386733Y-149147161D01*
X154529590Y-149194780D01*
X154767685Y-149194780D01*
X153815304Y-148290019D02*
X153767685Y-148242400D01*
X153672447Y-148194780D01*
X153434352Y-148194780D01*
X153339114Y-148242400D01*
X153291495Y-148290019D01*
X153243876Y-148385257D01*
X153243876Y-148480495D01*
X153291495Y-148623352D01*
X153862923Y-149194780D01*
X153243876Y-149194780D01*
X152767685Y-149194780D02*
X152577209Y-149194780D01*
X152481971Y-149147161D01*
X152434352Y-149099542D01*
X152339114Y-148956685D01*
X152291495Y-148766209D01*
X152291495Y-148385257D01*
X152339114Y-148290019D01*
X152386733Y-148242400D01*
X152481971Y-148194780D01*
X152672447Y-148194780D01*
X152767685Y-148242400D01*
X152815304Y-148290019D01*
X152862923Y-148385257D01*
X152862923Y-148623352D01*
X152815304Y-148718590D01*
X152767685Y-148766209D01*
X152672447Y-148813828D01*
X152481971Y-148813828D01*
X152386733Y-148766209D01*
X152339114Y-148718590D01*
X152291495Y-148623352D01*
X154578752Y-144546628D02*
X153816847Y-144546628D01*
X154197800Y-144927580D02*
X154197800Y-144165676D01*
X152578752Y-144546628D02*
X151816847Y-144546628D01*
G04 #@! TO.C,D30*
X154767685Y-132535780D02*
X154767685Y-131535780D01*
X154529590Y-131535780D01*
X154386733Y-131583400D01*
X154291495Y-131678638D01*
X154243876Y-131773876D01*
X154196257Y-131964352D01*
X154196257Y-132107209D01*
X154243876Y-132297685D01*
X154291495Y-132392923D01*
X154386733Y-132488161D01*
X154529590Y-132535780D01*
X154767685Y-132535780D01*
X153862923Y-131535780D02*
X153243876Y-131535780D01*
X153577209Y-131916733D01*
X153434352Y-131916733D01*
X153339114Y-131964352D01*
X153291495Y-132011971D01*
X153243876Y-132107209D01*
X153243876Y-132345304D01*
X153291495Y-132440542D01*
X153339114Y-132488161D01*
X153434352Y-132535780D01*
X153720066Y-132535780D01*
X153815304Y-132488161D01*
X153862923Y-132440542D01*
X152624828Y-131535780D02*
X152529590Y-131535780D01*
X152434352Y-131583400D01*
X152386733Y-131631019D01*
X152339114Y-131726257D01*
X152291495Y-131916733D01*
X152291495Y-132154828D01*
X152339114Y-132345304D01*
X152386733Y-132440542D01*
X152434352Y-132488161D01*
X152529590Y-132535780D01*
X152624828Y-132535780D01*
X152720066Y-132488161D01*
X152767685Y-132440542D01*
X152815304Y-132345304D01*
X152862923Y-132154828D01*
X152862923Y-131916733D01*
X152815304Y-131726257D01*
X152767685Y-131631019D01*
X152720066Y-131583400D01*
X152624828Y-131535780D01*
X154578752Y-127887628D02*
X153816847Y-127887628D01*
X154197800Y-128268580D02*
X154197800Y-127506676D01*
X152578752Y-127887628D02*
X151816847Y-127887628D01*
G04 #@! TO.C,D31*
X164624685Y-132557780D02*
X164624685Y-131557780D01*
X164386590Y-131557780D01*
X164243733Y-131605400D01*
X164148495Y-131700638D01*
X164100876Y-131795876D01*
X164053257Y-131986352D01*
X164053257Y-132129209D01*
X164100876Y-132319685D01*
X164148495Y-132414923D01*
X164243733Y-132510161D01*
X164386590Y-132557780D01*
X164624685Y-132557780D01*
X163719923Y-131557780D02*
X163100876Y-131557780D01*
X163434209Y-131938733D01*
X163291352Y-131938733D01*
X163196114Y-131986352D01*
X163148495Y-132033971D01*
X163100876Y-132129209D01*
X163100876Y-132367304D01*
X163148495Y-132462542D01*
X163196114Y-132510161D01*
X163291352Y-132557780D01*
X163577066Y-132557780D01*
X163672304Y-132510161D01*
X163719923Y-132462542D01*
X162148495Y-132557780D02*
X162719923Y-132557780D01*
X162434209Y-132557780D02*
X162434209Y-131557780D01*
X162529447Y-131700638D01*
X162624685Y-131795876D01*
X162719923Y-131843495D01*
X164435752Y-127909628D02*
X163673847Y-127909628D01*
X164054800Y-128290580D02*
X164054800Y-127528676D01*
X162435752Y-127909628D02*
X161673847Y-127909628D01*
G04 #@! TO.C,D32*
X164624685Y-123335780D02*
X164624685Y-122335780D01*
X164386590Y-122335780D01*
X164243733Y-122383400D01*
X164148495Y-122478638D01*
X164100876Y-122573876D01*
X164053257Y-122764352D01*
X164053257Y-122907209D01*
X164100876Y-123097685D01*
X164148495Y-123192923D01*
X164243733Y-123288161D01*
X164386590Y-123335780D01*
X164624685Y-123335780D01*
X163719923Y-122335780D02*
X163100876Y-122335780D01*
X163434209Y-122716733D01*
X163291352Y-122716733D01*
X163196114Y-122764352D01*
X163148495Y-122811971D01*
X163100876Y-122907209D01*
X163100876Y-123145304D01*
X163148495Y-123240542D01*
X163196114Y-123288161D01*
X163291352Y-123335780D01*
X163577066Y-123335780D01*
X163672304Y-123288161D01*
X163719923Y-123240542D01*
X162719923Y-122431019D02*
X162672304Y-122383400D01*
X162577066Y-122335780D01*
X162338971Y-122335780D01*
X162243733Y-122383400D01*
X162196114Y-122431019D01*
X162148495Y-122526257D01*
X162148495Y-122621495D01*
X162196114Y-122764352D01*
X162767542Y-123335780D01*
X162148495Y-123335780D01*
X164435752Y-118687628D02*
X163673847Y-118687628D01*
X164054800Y-119068580D02*
X164054800Y-118306676D01*
X162435752Y-118687628D02*
X161673847Y-118687628D01*
G04 #@! TO.C,D33*
X164624685Y-94874580D02*
X164624685Y-93874580D01*
X164386590Y-93874580D01*
X164243733Y-93922200D01*
X164148495Y-94017438D01*
X164100876Y-94112676D01*
X164053257Y-94303152D01*
X164053257Y-94446009D01*
X164100876Y-94636485D01*
X164148495Y-94731723D01*
X164243733Y-94826961D01*
X164386590Y-94874580D01*
X164624685Y-94874580D01*
X163719923Y-93874580D02*
X163100876Y-93874580D01*
X163434209Y-94255533D01*
X163291352Y-94255533D01*
X163196114Y-94303152D01*
X163148495Y-94350771D01*
X163100876Y-94446009D01*
X163100876Y-94684104D01*
X163148495Y-94779342D01*
X163196114Y-94826961D01*
X163291352Y-94874580D01*
X163577066Y-94874580D01*
X163672304Y-94826961D01*
X163719923Y-94779342D01*
X162767542Y-93874580D02*
X162148495Y-93874580D01*
X162481828Y-94255533D01*
X162338971Y-94255533D01*
X162243733Y-94303152D01*
X162196114Y-94350771D01*
X162148495Y-94446009D01*
X162148495Y-94684104D01*
X162196114Y-94779342D01*
X162243733Y-94826961D01*
X162338971Y-94874580D01*
X162624685Y-94874580D01*
X162719923Y-94826961D01*
X162767542Y-94779342D01*
X164435752Y-90226428D02*
X163673847Y-90226428D01*
X164054800Y-90607380D02*
X164054800Y-89845476D01*
X162435752Y-90226428D02*
X161673847Y-90226428D01*
G04 #@! TO.C,D34*
X164624685Y-85674580D02*
X164624685Y-84674580D01*
X164386590Y-84674580D01*
X164243733Y-84722200D01*
X164148495Y-84817438D01*
X164100876Y-84912676D01*
X164053257Y-85103152D01*
X164053257Y-85246009D01*
X164100876Y-85436485D01*
X164148495Y-85531723D01*
X164243733Y-85626961D01*
X164386590Y-85674580D01*
X164624685Y-85674580D01*
X163719923Y-84674580D02*
X163100876Y-84674580D01*
X163434209Y-85055533D01*
X163291352Y-85055533D01*
X163196114Y-85103152D01*
X163148495Y-85150771D01*
X163100876Y-85246009D01*
X163100876Y-85484104D01*
X163148495Y-85579342D01*
X163196114Y-85626961D01*
X163291352Y-85674580D01*
X163577066Y-85674580D01*
X163672304Y-85626961D01*
X163719923Y-85579342D01*
X162243733Y-85007914D02*
X162243733Y-85674580D01*
X162481828Y-84626961D02*
X162719923Y-85341247D01*
X162100876Y-85341247D01*
X164435752Y-81026428D02*
X163673847Y-81026428D01*
X164054800Y-81407380D02*
X164054800Y-80645476D01*
X162435752Y-81026428D02*
X161673847Y-81026428D01*
G04 #@! TO.C,D35*
X164624685Y-76474580D02*
X164624685Y-75474580D01*
X164386590Y-75474580D01*
X164243733Y-75522200D01*
X164148495Y-75617438D01*
X164100876Y-75712676D01*
X164053257Y-75903152D01*
X164053257Y-76046009D01*
X164100876Y-76236485D01*
X164148495Y-76331723D01*
X164243733Y-76426961D01*
X164386590Y-76474580D01*
X164624685Y-76474580D01*
X163719923Y-75474580D02*
X163100876Y-75474580D01*
X163434209Y-75855533D01*
X163291352Y-75855533D01*
X163196114Y-75903152D01*
X163148495Y-75950771D01*
X163100876Y-76046009D01*
X163100876Y-76284104D01*
X163148495Y-76379342D01*
X163196114Y-76426961D01*
X163291352Y-76474580D01*
X163577066Y-76474580D01*
X163672304Y-76426961D01*
X163719923Y-76379342D01*
X162196114Y-75474580D02*
X162672304Y-75474580D01*
X162719923Y-75950771D01*
X162672304Y-75903152D01*
X162577066Y-75855533D01*
X162338971Y-75855533D01*
X162243733Y-75903152D01*
X162196114Y-75950771D01*
X162148495Y-76046009D01*
X162148495Y-76284104D01*
X162196114Y-76379342D01*
X162243733Y-76426961D01*
X162338971Y-76474580D01*
X162577066Y-76474580D01*
X162672304Y-76426961D01*
X162719923Y-76379342D01*
X164435752Y-71826428D02*
X163673847Y-71826428D01*
X164054800Y-72207380D02*
X164054800Y-71445476D01*
X162435752Y-71826428D02*
X161673847Y-71826428D01*
G04 #@! TO.C,D36*
X157386685Y-76487280D02*
X157386685Y-75487280D01*
X157148590Y-75487280D01*
X157005733Y-75534900D01*
X156910495Y-75630138D01*
X156862876Y-75725376D01*
X156815257Y-75915852D01*
X156815257Y-76058709D01*
X156862876Y-76249185D01*
X156910495Y-76344423D01*
X157005733Y-76439661D01*
X157148590Y-76487280D01*
X157386685Y-76487280D01*
X156481923Y-75487280D02*
X155862876Y-75487280D01*
X156196209Y-75868233D01*
X156053352Y-75868233D01*
X155958114Y-75915852D01*
X155910495Y-75963471D01*
X155862876Y-76058709D01*
X155862876Y-76296804D01*
X155910495Y-76392042D01*
X155958114Y-76439661D01*
X156053352Y-76487280D01*
X156339066Y-76487280D01*
X156434304Y-76439661D01*
X156481923Y-76392042D01*
X155005733Y-75487280D02*
X155196209Y-75487280D01*
X155291447Y-75534900D01*
X155339066Y-75582519D01*
X155434304Y-75725376D01*
X155481923Y-75915852D01*
X155481923Y-76296804D01*
X155434304Y-76392042D01*
X155386685Y-76439661D01*
X155291447Y-76487280D01*
X155100971Y-76487280D01*
X155005733Y-76439661D01*
X154958114Y-76392042D01*
X154910495Y-76296804D01*
X154910495Y-76058709D01*
X154958114Y-75963471D01*
X155005733Y-75915852D01*
X155100971Y-75868233D01*
X155291447Y-75868233D01*
X155386685Y-75915852D01*
X155434304Y-75963471D01*
X155481923Y-76058709D01*
X157197752Y-71839128D02*
X156435847Y-71839128D01*
X156816800Y-72220080D02*
X156816800Y-71458176D01*
X155197752Y-71839128D02*
X154435847Y-71839128D01*
G04 #@! TO.C,D37*
X150146685Y-76487280D02*
X150146685Y-75487280D01*
X149908590Y-75487280D01*
X149765733Y-75534900D01*
X149670495Y-75630138D01*
X149622876Y-75725376D01*
X149575257Y-75915852D01*
X149575257Y-76058709D01*
X149622876Y-76249185D01*
X149670495Y-76344423D01*
X149765733Y-76439661D01*
X149908590Y-76487280D01*
X150146685Y-76487280D01*
X149241923Y-75487280D02*
X148622876Y-75487280D01*
X148956209Y-75868233D01*
X148813352Y-75868233D01*
X148718114Y-75915852D01*
X148670495Y-75963471D01*
X148622876Y-76058709D01*
X148622876Y-76296804D01*
X148670495Y-76392042D01*
X148718114Y-76439661D01*
X148813352Y-76487280D01*
X149099066Y-76487280D01*
X149194304Y-76439661D01*
X149241923Y-76392042D01*
X148289542Y-75487280D02*
X147622876Y-75487280D01*
X148051447Y-76487280D01*
X149957752Y-71839128D02*
X149195847Y-71839128D01*
X149576800Y-72220080D02*
X149576800Y-71458176D01*
X147957752Y-71839128D02*
X147195847Y-71839128D01*
G04 #@! TO.C,D38*
X150146685Y-87853780D02*
X150146685Y-86853780D01*
X149908590Y-86853780D01*
X149765733Y-86901400D01*
X149670495Y-86996638D01*
X149622876Y-87091876D01*
X149575257Y-87282352D01*
X149575257Y-87425209D01*
X149622876Y-87615685D01*
X149670495Y-87710923D01*
X149765733Y-87806161D01*
X149908590Y-87853780D01*
X150146685Y-87853780D01*
X149241923Y-86853780D02*
X148622876Y-86853780D01*
X148956209Y-87234733D01*
X148813352Y-87234733D01*
X148718114Y-87282352D01*
X148670495Y-87329971D01*
X148622876Y-87425209D01*
X148622876Y-87663304D01*
X148670495Y-87758542D01*
X148718114Y-87806161D01*
X148813352Y-87853780D01*
X149099066Y-87853780D01*
X149194304Y-87806161D01*
X149241923Y-87758542D01*
X148051447Y-87282352D02*
X148146685Y-87234733D01*
X148194304Y-87187114D01*
X148241923Y-87091876D01*
X148241923Y-87044257D01*
X148194304Y-86949019D01*
X148146685Y-86901400D01*
X148051447Y-86853780D01*
X147860971Y-86853780D01*
X147765733Y-86901400D01*
X147718114Y-86949019D01*
X147670495Y-87044257D01*
X147670495Y-87091876D01*
X147718114Y-87187114D01*
X147765733Y-87234733D01*
X147860971Y-87282352D01*
X148051447Y-87282352D01*
X148146685Y-87329971D01*
X148194304Y-87377590D01*
X148241923Y-87472828D01*
X148241923Y-87663304D01*
X148194304Y-87758542D01*
X148146685Y-87806161D01*
X148051447Y-87853780D01*
X147860971Y-87853780D01*
X147765733Y-87806161D01*
X147718114Y-87758542D01*
X147670495Y-87663304D01*
X147670495Y-87472828D01*
X147718114Y-87377590D01*
X147765733Y-87329971D01*
X147860971Y-87282352D01*
X149957752Y-83205628D02*
X149195847Y-83205628D01*
X149576800Y-83586580D02*
X149576800Y-82824676D01*
X147957752Y-83205628D02*
X147195847Y-83205628D01*
G04 #@! TD*
M02*
