G04 #@! TF.GenerationSoftware,KiCad,Pcbnew,(5.0.0)*
G04 #@! TF.CreationDate,2019-01-20T21:42:16-05:00*
G04 #@! TF.ProjectId,MiniTempleT,4D696E6954656D706C65542E6B696361,rev?*
G04 #@! TF.SameCoordinates,Original*
G04 #@! TF.FileFunction,Copper,L1,Top,Signal*
G04 #@! TF.FilePolarity,Positive*
%FSLAX46Y46*%
G04 Gerber Fmt 4.6, Leading zero omitted, Abs format (unit mm)*
G04 Created by KiCad (PCBNEW (5.0.0)) date 01/20/19 21:42:16*
%MOMM*%
%LPD*%
G01*
G04 APERTURE LIST*
G04 #@! TA.AperFunction,ComponentPad*
%ADD10R,1.600000X1.600000*%
G04 #@! TD*
G04 #@! TA.AperFunction,ComponentPad*
%ADD11O,1.600000X1.600000*%
G04 #@! TD*
G04 #@! TA.AperFunction,ComponentPad*
%ADD12C,2.000000*%
G04 #@! TD*
G04 #@! TA.AperFunction,ComponentPad*
%ADD13C,2.500000*%
G04 #@! TD*
G04 #@! TA.AperFunction,ComponentPad*
%ADD14R,1.700000X1.700000*%
G04 #@! TD*
G04 #@! TA.AperFunction,ComponentPad*
%ADD15O,1.700000X1.700000*%
G04 #@! TD*
G04 #@! TA.AperFunction,Conductor*
%ADD16C,0.100000*%
G04 #@! TD*
G04 #@! TA.AperFunction,ComponentPad*
%ADD17O,2.500000X2.000000*%
G04 #@! TD*
G04 #@! TA.AperFunction,SMDPad,CuDef*
%ADD18R,1.500000X0.600000*%
G04 #@! TD*
G04 #@! TA.AperFunction,ViaPad*
%ADD19C,0.500000*%
G04 #@! TD*
G04 #@! TA.AperFunction,Conductor*
%ADD20C,0.200000*%
G04 #@! TD*
G04 #@! TA.AperFunction,NonConductor*
%ADD21C,0.200000*%
G04 #@! TD*
G04 APERTURE END LIST*
D10*
G04 #@! TO.P,Tiny85,1*
G04 #@! TO.N,Master_Reset*
X167450000Y-133368000D03*
D11*
G04 #@! TO.P,Tiny85,5*
G04 #@! TO.N,Serial_Data*
X175070000Y-140988000D03*
G04 #@! TO.P,Tiny85,2*
G04 #@! TO.N,Output_Enable*
X167450000Y-135908000D03*
G04 #@! TO.P,Tiny85,6*
G04 #@! TO.N,Serial_Clock*
X175070000Y-138448000D03*
G04 #@! TO.P,Tiny85,3*
G04 #@! TO.N,Net-(BTN1-Pad2)*
X167450000Y-138448000D03*
G04 #@! TO.P,Tiny85,7*
G04 #@! TO.N,Reg_Clock*
X175070000Y-135908000D03*
G04 #@! TO.P,Tiny85,4*
G04 #@! TO.N,GND*
X167450000Y-140988000D03*
G04 #@! TO.P,Tiny85,8*
G04 #@! TO.N,Master_Reset*
X175070000Y-133368000D03*
G04 #@! TD*
D12*
G04 #@! TO.P,BTN1,2*
G04 #@! TO.N,Net-(BTN1-Pad2)*
X154215000Y-141040000D03*
G04 #@! TO.P,BTN1,1*
G04 #@! TO.N,GND*
X154215000Y-136540000D03*
G04 #@! TO.P,BTN1,2*
G04 #@! TO.N,Net-(BTN1-Pad2)*
X160715000Y-141040000D03*
G04 #@! TO.P,BTN1,1*
G04 #@! TO.N,GND*
X160715000Y-136540000D03*
G04 #@! TD*
D13*
G04 #@! TO.P,Battery1,1*
G04 #@! TO.N,GND*
X171196000Y-99569000D03*
G04 #@! TO.P,Battery1,2*
G04 #@! TO.N,Net-(Battery1-Pad2)*
X171196000Y-119069000D03*
G04 #@! TD*
D14*
G04 #@! TO.P,Power1,1*
G04 #@! TO.N,GND*
X169799000Y-105537000D03*
D15*
G04 #@! TO.P,Power1,2*
G04 #@! TO.N,Net-(Battery1-Pad2)*
X172339000Y-105537000D03*
G04 #@! TD*
D16*
G04 #@! TO.N,GND*
G04 #@! TO.C,D1*
G36*
X130869261Y-83970010D02*
X130929931Y-83979009D01*
X130989428Y-83993912D01*
X131047177Y-84014575D01*
X131102623Y-84040799D01*
X131155231Y-84072331D01*
X131204496Y-84108868D01*
X131249942Y-84150058D01*
X131291132Y-84195504D01*
X131327669Y-84244769D01*
X131359201Y-84297377D01*
X131385425Y-84352823D01*
X131406088Y-84410572D01*
X131420991Y-84470069D01*
X131429990Y-84530739D01*
X131433000Y-84592000D01*
X131433000Y-85842000D01*
X131429990Y-85903261D01*
X131420991Y-85963931D01*
X131406088Y-86023428D01*
X131385425Y-86081177D01*
X131359201Y-86136623D01*
X131327669Y-86189231D01*
X131291132Y-86238496D01*
X131249942Y-86283942D01*
X131204496Y-86325132D01*
X131155231Y-86361669D01*
X131102623Y-86393201D01*
X131047177Y-86419425D01*
X130989428Y-86440088D01*
X130929931Y-86454991D01*
X130869261Y-86463990D01*
X130808000Y-86467000D01*
X129558000Y-86467000D01*
X129496739Y-86463990D01*
X129436069Y-86454991D01*
X129376572Y-86440088D01*
X129318823Y-86419425D01*
X129263377Y-86393201D01*
X129210769Y-86361669D01*
X129161504Y-86325132D01*
X129116058Y-86283942D01*
X129074868Y-86238496D01*
X129038331Y-86189231D01*
X129006799Y-86136623D01*
X128980575Y-86081177D01*
X128959912Y-86023428D01*
X128945009Y-85963931D01*
X128936010Y-85903261D01*
X128933000Y-85842000D01*
X128933000Y-84592000D01*
X128936010Y-84530739D01*
X128945009Y-84470069D01*
X128959912Y-84410572D01*
X128980575Y-84352823D01*
X129006799Y-84297377D01*
X129038331Y-84244769D01*
X129074868Y-84195504D01*
X129116058Y-84150058D01*
X129161504Y-84108868D01*
X129210769Y-84072331D01*
X129263377Y-84040799D01*
X129318823Y-84014575D01*
X129376572Y-83993912D01*
X129436069Y-83979009D01*
X129496739Y-83970010D01*
X129558000Y-83967000D01*
X130808000Y-83967000D01*
X130869261Y-83970010D01*
X130869261Y-83970010D01*
G37*
D13*
G04 #@! TD*
G04 #@! TO.P,D1,1*
G04 #@! TO.N,GND*
X130183000Y-85217000D03*
D17*
G04 #@! TO.P,D1,2*
G04 #@! TO.N,Net-(D1-Pad2)*
X133723000Y-85217000D03*
G04 #@! TD*
G04 #@! TO.P,D2,2*
G04 #@! TO.N,Net-(D2-Pad2)*
X133723000Y-76117000D03*
D16*
G04 #@! TD*
G04 #@! TO.N,GND*
G04 #@! TO.C,D2*
G36*
X130869261Y-74870010D02*
X130929931Y-74879009D01*
X130989428Y-74893912D01*
X131047177Y-74914575D01*
X131102623Y-74940799D01*
X131155231Y-74972331D01*
X131204496Y-75008868D01*
X131249942Y-75050058D01*
X131291132Y-75095504D01*
X131327669Y-75144769D01*
X131359201Y-75197377D01*
X131385425Y-75252823D01*
X131406088Y-75310572D01*
X131420991Y-75370069D01*
X131429990Y-75430739D01*
X131433000Y-75492000D01*
X131433000Y-76742000D01*
X131429990Y-76803261D01*
X131420991Y-76863931D01*
X131406088Y-76923428D01*
X131385425Y-76981177D01*
X131359201Y-77036623D01*
X131327669Y-77089231D01*
X131291132Y-77138496D01*
X131249942Y-77183942D01*
X131204496Y-77225132D01*
X131155231Y-77261669D01*
X131102623Y-77293201D01*
X131047177Y-77319425D01*
X130989428Y-77340088D01*
X130929931Y-77354991D01*
X130869261Y-77363990D01*
X130808000Y-77367000D01*
X129558000Y-77367000D01*
X129496739Y-77363990D01*
X129436069Y-77354991D01*
X129376572Y-77340088D01*
X129318823Y-77319425D01*
X129263377Y-77293201D01*
X129210769Y-77261669D01*
X129161504Y-77225132D01*
X129116058Y-77183942D01*
X129074868Y-77138496D01*
X129038331Y-77089231D01*
X129006799Y-77036623D01*
X128980575Y-76981177D01*
X128959912Y-76923428D01*
X128945009Y-76863931D01*
X128936010Y-76803261D01*
X128933000Y-76742000D01*
X128933000Y-75492000D01*
X128936010Y-75430739D01*
X128945009Y-75370069D01*
X128959912Y-75310572D01*
X128980575Y-75252823D01*
X129006799Y-75197377D01*
X129038331Y-75144769D01*
X129074868Y-75095504D01*
X129116058Y-75050058D01*
X129161504Y-75008868D01*
X129210769Y-74972331D01*
X129263377Y-74940799D01*
X129318823Y-74914575D01*
X129376572Y-74893912D01*
X129436069Y-74879009D01*
X129496739Y-74870010D01*
X129558000Y-74867000D01*
X130808000Y-74867000D01*
X130869261Y-74870010D01*
X130869261Y-74870010D01*
G37*
D13*
G04 #@! TO.P,D2,1*
G04 #@! TO.N,GND*
X130183000Y-76117000D03*
G04 #@! TD*
D17*
G04 #@! TO.P,D3,2*
G04 #@! TO.N,Net-(D3-Pad2)*
X133723000Y-67017000D03*
D16*
G04 #@! TD*
G04 #@! TO.N,GND*
G04 #@! TO.C,D3*
G36*
X130869261Y-65770010D02*
X130929931Y-65779009D01*
X130989428Y-65793912D01*
X131047177Y-65814575D01*
X131102623Y-65840799D01*
X131155231Y-65872331D01*
X131204496Y-65908868D01*
X131249942Y-65950058D01*
X131291132Y-65995504D01*
X131327669Y-66044769D01*
X131359201Y-66097377D01*
X131385425Y-66152823D01*
X131406088Y-66210572D01*
X131420991Y-66270069D01*
X131429990Y-66330739D01*
X131433000Y-66392000D01*
X131433000Y-67642000D01*
X131429990Y-67703261D01*
X131420991Y-67763931D01*
X131406088Y-67823428D01*
X131385425Y-67881177D01*
X131359201Y-67936623D01*
X131327669Y-67989231D01*
X131291132Y-68038496D01*
X131249942Y-68083942D01*
X131204496Y-68125132D01*
X131155231Y-68161669D01*
X131102623Y-68193201D01*
X131047177Y-68219425D01*
X130989428Y-68240088D01*
X130929931Y-68254991D01*
X130869261Y-68263990D01*
X130808000Y-68267000D01*
X129558000Y-68267000D01*
X129496739Y-68263990D01*
X129436069Y-68254991D01*
X129376572Y-68240088D01*
X129318823Y-68219425D01*
X129263377Y-68193201D01*
X129210769Y-68161669D01*
X129161504Y-68125132D01*
X129116058Y-68083942D01*
X129074868Y-68038496D01*
X129038331Y-67989231D01*
X129006799Y-67936623D01*
X128980575Y-67881177D01*
X128959912Y-67823428D01*
X128945009Y-67763931D01*
X128936010Y-67703261D01*
X128933000Y-67642000D01*
X128933000Y-66392000D01*
X128936010Y-66330739D01*
X128945009Y-66270069D01*
X128959912Y-66210572D01*
X128980575Y-66152823D01*
X129006799Y-66097377D01*
X129038331Y-66044769D01*
X129074868Y-65995504D01*
X129116058Y-65950058D01*
X129161504Y-65908868D01*
X129210769Y-65872331D01*
X129263377Y-65840799D01*
X129318823Y-65814575D01*
X129376572Y-65793912D01*
X129436069Y-65779009D01*
X129496739Y-65770010D01*
X129558000Y-65767000D01*
X130808000Y-65767000D01*
X130869261Y-65770010D01*
X130869261Y-65770010D01*
G37*
D13*
G04 #@! TO.P,D3,1*
G04 #@! TO.N,GND*
X130183000Y-67017000D03*
G04 #@! TD*
D17*
G04 #@! TO.P,D4,2*
G04 #@! TO.N,Net-(D4-Pad2)*
X133723000Y-57917000D03*
D16*
G04 #@! TD*
G04 #@! TO.N,GND*
G04 #@! TO.C,D4*
G36*
X130869261Y-56670010D02*
X130929931Y-56679009D01*
X130989428Y-56693912D01*
X131047177Y-56714575D01*
X131102623Y-56740799D01*
X131155231Y-56772331D01*
X131204496Y-56808868D01*
X131249942Y-56850058D01*
X131291132Y-56895504D01*
X131327669Y-56944769D01*
X131359201Y-56997377D01*
X131385425Y-57052823D01*
X131406088Y-57110572D01*
X131420991Y-57170069D01*
X131429990Y-57230739D01*
X131433000Y-57292000D01*
X131433000Y-58542000D01*
X131429990Y-58603261D01*
X131420991Y-58663931D01*
X131406088Y-58723428D01*
X131385425Y-58781177D01*
X131359201Y-58836623D01*
X131327669Y-58889231D01*
X131291132Y-58938496D01*
X131249942Y-58983942D01*
X131204496Y-59025132D01*
X131155231Y-59061669D01*
X131102623Y-59093201D01*
X131047177Y-59119425D01*
X130989428Y-59140088D01*
X130929931Y-59154991D01*
X130869261Y-59163990D01*
X130808000Y-59167000D01*
X129558000Y-59167000D01*
X129496739Y-59163990D01*
X129436069Y-59154991D01*
X129376572Y-59140088D01*
X129318823Y-59119425D01*
X129263377Y-59093201D01*
X129210769Y-59061669D01*
X129161504Y-59025132D01*
X129116058Y-58983942D01*
X129074868Y-58938496D01*
X129038331Y-58889231D01*
X129006799Y-58836623D01*
X128980575Y-58781177D01*
X128959912Y-58723428D01*
X128945009Y-58663931D01*
X128936010Y-58603261D01*
X128933000Y-58542000D01*
X128933000Y-57292000D01*
X128936010Y-57230739D01*
X128945009Y-57170069D01*
X128959912Y-57110572D01*
X128980575Y-57052823D01*
X129006799Y-56997377D01*
X129038331Y-56944769D01*
X129074868Y-56895504D01*
X129116058Y-56850058D01*
X129161504Y-56808868D01*
X129210769Y-56772331D01*
X129263377Y-56740799D01*
X129318823Y-56714575D01*
X129376572Y-56693912D01*
X129436069Y-56679009D01*
X129496739Y-56670010D01*
X129558000Y-56667000D01*
X130808000Y-56667000D01*
X130869261Y-56670010D01*
X130869261Y-56670010D01*
G37*
D13*
G04 #@! TO.P,D4,1*
G04 #@! TO.N,GND*
X130183000Y-57917000D03*
G04 #@! TD*
D16*
G04 #@! TO.N,GND*
G04 #@! TO.C,D5*
G36*
X140669261Y-56670010D02*
X140729931Y-56679009D01*
X140789428Y-56693912D01*
X140847177Y-56714575D01*
X140902623Y-56740799D01*
X140955231Y-56772331D01*
X141004496Y-56808868D01*
X141049942Y-56850058D01*
X141091132Y-56895504D01*
X141127669Y-56944769D01*
X141159201Y-56997377D01*
X141185425Y-57052823D01*
X141206088Y-57110572D01*
X141220991Y-57170069D01*
X141229990Y-57230739D01*
X141233000Y-57292000D01*
X141233000Y-58542000D01*
X141229990Y-58603261D01*
X141220991Y-58663931D01*
X141206088Y-58723428D01*
X141185425Y-58781177D01*
X141159201Y-58836623D01*
X141127669Y-58889231D01*
X141091132Y-58938496D01*
X141049942Y-58983942D01*
X141004496Y-59025132D01*
X140955231Y-59061669D01*
X140902623Y-59093201D01*
X140847177Y-59119425D01*
X140789428Y-59140088D01*
X140729931Y-59154991D01*
X140669261Y-59163990D01*
X140608000Y-59167000D01*
X139358000Y-59167000D01*
X139296739Y-59163990D01*
X139236069Y-59154991D01*
X139176572Y-59140088D01*
X139118823Y-59119425D01*
X139063377Y-59093201D01*
X139010769Y-59061669D01*
X138961504Y-59025132D01*
X138916058Y-58983942D01*
X138874868Y-58938496D01*
X138838331Y-58889231D01*
X138806799Y-58836623D01*
X138780575Y-58781177D01*
X138759912Y-58723428D01*
X138745009Y-58663931D01*
X138736010Y-58603261D01*
X138733000Y-58542000D01*
X138733000Y-57292000D01*
X138736010Y-57230739D01*
X138745009Y-57170069D01*
X138759912Y-57110572D01*
X138780575Y-57052823D01*
X138806799Y-56997377D01*
X138838331Y-56944769D01*
X138874868Y-56895504D01*
X138916058Y-56850058D01*
X138961504Y-56808868D01*
X139010769Y-56772331D01*
X139063377Y-56740799D01*
X139118823Y-56714575D01*
X139176572Y-56693912D01*
X139236069Y-56679009D01*
X139296739Y-56670010D01*
X139358000Y-56667000D01*
X140608000Y-56667000D01*
X140669261Y-56670010D01*
X140669261Y-56670010D01*
G37*
D13*
G04 #@! TD*
G04 #@! TO.P,D5,1*
G04 #@! TO.N,GND*
X139983000Y-57917000D03*
D17*
G04 #@! TO.P,D5,2*
G04 #@! TO.N,Net-(D5-Pad2)*
X143523000Y-57917000D03*
G04 #@! TD*
G04 #@! TO.P,D6,2*
G04 #@! TO.N,Net-(D6-Pad2)*
X153323000Y-57917000D03*
D16*
G04 #@! TD*
G04 #@! TO.N,GND*
G04 #@! TO.C,D6*
G36*
X150469261Y-56670010D02*
X150529931Y-56679009D01*
X150589428Y-56693912D01*
X150647177Y-56714575D01*
X150702623Y-56740799D01*
X150755231Y-56772331D01*
X150804496Y-56808868D01*
X150849942Y-56850058D01*
X150891132Y-56895504D01*
X150927669Y-56944769D01*
X150959201Y-56997377D01*
X150985425Y-57052823D01*
X151006088Y-57110572D01*
X151020991Y-57170069D01*
X151029990Y-57230739D01*
X151033000Y-57292000D01*
X151033000Y-58542000D01*
X151029990Y-58603261D01*
X151020991Y-58663931D01*
X151006088Y-58723428D01*
X150985425Y-58781177D01*
X150959201Y-58836623D01*
X150927669Y-58889231D01*
X150891132Y-58938496D01*
X150849942Y-58983942D01*
X150804496Y-59025132D01*
X150755231Y-59061669D01*
X150702623Y-59093201D01*
X150647177Y-59119425D01*
X150589428Y-59140088D01*
X150529931Y-59154991D01*
X150469261Y-59163990D01*
X150408000Y-59167000D01*
X149158000Y-59167000D01*
X149096739Y-59163990D01*
X149036069Y-59154991D01*
X148976572Y-59140088D01*
X148918823Y-59119425D01*
X148863377Y-59093201D01*
X148810769Y-59061669D01*
X148761504Y-59025132D01*
X148716058Y-58983942D01*
X148674868Y-58938496D01*
X148638331Y-58889231D01*
X148606799Y-58836623D01*
X148580575Y-58781177D01*
X148559912Y-58723428D01*
X148545009Y-58663931D01*
X148536010Y-58603261D01*
X148533000Y-58542000D01*
X148533000Y-57292000D01*
X148536010Y-57230739D01*
X148545009Y-57170069D01*
X148559912Y-57110572D01*
X148580575Y-57052823D01*
X148606799Y-56997377D01*
X148638331Y-56944769D01*
X148674868Y-56895504D01*
X148716058Y-56850058D01*
X148761504Y-56808868D01*
X148810769Y-56772331D01*
X148863377Y-56740799D01*
X148918823Y-56714575D01*
X148976572Y-56693912D01*
X149036069Y-56679009D01*
X149096739Y-56670010D01*
X149158000Y-56667000D01*
X150408000Y-56667000D01*
X150469261Y-56670010D01*
X150469261Y-56670010D01*
G37*
D13*
G04 #@! TO.P,D6,1*
G04 #@! TO.N,GND*
X149783000Y-57917000D03*
G04 #@! TD*
D16*
G04 #@! TO.N,GND*
G04 #@! TO.C,D7*
G36*
X160269261Y-56670010D02*
X160329931Y-56679009D01*
X160389428Y-56693912D01*
X160447177Y-56714575D01*
X160502623Y-56740799D01*
X160555231Y-56772331D01*
X160604496Y-56808868D01*
X160649942Y-56850058D01*
X160691132Y-56895504D01*
X160727669Y-56944769D01*
X160759201Y-56997377D01*
X160785425Y-57052823D01*
X160806088Y-57110572D01*
X160820991Y-57170069D01*
X160829990Y-57230739D01*
X160833000Y-57292000D01*
X160833000Y-58542000D01*
X160829990Y-58603261D01*
X160820991Y-58663931D01*
X160806088Y-58723428D01*
X160785425Y-58781177D01*
X160759201Y-58836623D01*
X160727669Y-58889231D01*
X160691132Y-58938496D01*
X160649942Y-58983942D01*
X160604496Y-59025132D01*
X160555231Y-59061669D01*
X160502623Y-59093201D01*
X160447177Y-59119425D01*
X160389428Y-59140088D01*
X160329931Y-59154991D01*
X160269261Y-59163990D01*
X160208000Y-59167000D01*
X158958000Y-59167000D01*
X158896739Y-59163990D01*
X158836069Y-59154991D01*
X158776572Y-59140088D01*
X158718823Y-59119425D01*
X158663377Y-59093201D01*
X158610769Y-59061669D01*
X158561504Y-59025132D01*
X158516058Y-58983942D01*
X158474868Y-58938496D01*
X158438331Y-58889231D01*
X158406799Y-58836623D01*
X158380575Y-58781177D01*
X158359912Y-58723428D01*
X158345009Y-58663931D01*
X158336010Y-58603261D01*
X158333000Y-58542000D01*
X158333000Y-57292000D01*
X158336010Y-57230739D01*
X158345009Y-57170069D01*
X158359912Y-57110572D01*
X158380575Y-57052823D01*
X158406799Y-56997377D01*
X158438331Y-56944769D01*
X158474868Y-56895504D01*
X158516058Y-56850058D01*
X158561504Y-56808868D01*
X158610769Y-56772331D01*
X158663377Y-56740799D01*
X158718823Y-56714575D01*
X158776572Y-56693912D01*
X158836069Y-56679009D01*
X158896739Y-56670010D01*
X158958000Y-56667000D01*
X160208000Y-56667000D01*
X160269261Y-56670010D01*
X160269261Y-56670010D01*
G37*
D13*
G04 #@! TD*
G04 #@! TO.P,D7,1*
G04 #@! TO.N,GND*
X159583000Y-57917000D03*
D17*
G04 #@! TO.P,D7,2*
G04 #@! TO.N,Net-(D7-Pad2)*
X163123000Y-57917000D03*
G04 #@! TD*
D16*
G04 #@! TO.N,GND*
G04 #@! TO.C,D8*
G36*
X170069261Y-56670010D02*
X170129931Y-56679009D01*
X170189428Y-56693912D01*
X170247177Y-56714575D01*
X170302623Y-56740799D01*
X170355231Y-56772331D01*
X170404496Y-56808868D01*
X170449942Y-56850058D01*
X170491132Y-56895504D01*
X170527669Y-56944769D01*
X170559201Y-56997377D01*
X170585425Y-57052823D01*
X170606088Y-57110572D01*
X170620991Y-57170069D01*
X170629990Y-57230739D01*
X170633000Y-57292000D01*
X170633000Y-58542000D01*
X170629990Y-58603261D01*
X170620991Y-58663931D01*
X170606088Y-58723428D01*
X170585425Y-58781177D01*
X170559201Y-58836623D01*
X170527669Y-58889231D01*
X170491132Y-58938496D01*
X170449942Y-58983942D01*
X170404496Y-59025132D01*
X170355231Y-59061669D01*
X170302623Y-59093201D01*
X170247177Y-59119425D01*
X170189428Y-59140088D01*
X170129931Y-59154991D01*
X170069261Y-59163990D01*
X170008000Y-59167000D01*
X168758000Y-59167000D01*
X168696739Y-59163990D01*
X168636069Y-59154991D01*
X168576572Y-59140088D01*
X168518823Y-59119425D01*
X168463377Y-59093201D01*
X168410769Y-59061669D01*
X168361504Y-59025132D01*
X168316058Y-58983942D01*
X168274868Y-58938496D01*
X168238331Y-58889231D01*
X168206799Y-58836623D01*
X168180575Y-58781177D01*
X168159912Y-58723428D01*
X168145009Y-58663931D01*
X168136010Y-58603261D01*
X168133000Y-58542000D01*
X168133000Y-57292000D01*
X168136010Y-57230739D01*
X168145009Y-57170069D01*
X168159912Y-57110572D01*
X168180575Y-57052823D01*
X168206799Y-56997377D01*
X168238331Y-56944769D01*
X168274868Y-56895504D01*
X168316058Y-56850058D01*
X168361504Y-56808868D01*
X168410769Y-56772331D01*
X168463377Y-56740799D01*
X168518823Y-56714575D01*
X168576572Y-56693912D01*
X168636069Y-56679009D01*
X168696739Y-56670010D01*
X168758000Y-56667000D01*
X170008000Y-56667000D01*
X170069261Y-56670010D01*
X170069261Y-56670010D01*
G37*
D13*
G04 #@! TD*
G04 #@! TO.P,D8,1*
G04 #@! TO.N,GND*
X169383000Y-57917000D03*
D17*
G04 #@! TO.P,D8,2*
G04 #@! TO.N,Net-(D8-Pad2)*
X172923000Y-57917000D03*
G04 #@! TD*
G04 #@! TO.P,D9,2*
G04 #@! TO.N,Net-(D9-Pad2)*
X182723000Y-57917000D03*
D16*
G04 #@! TD*
G04 #@! TO.N,GND*
G04 #@! TO.C,D9*
G36*
X179869261Y-56670010D02*
X179929931Y-56679009D01*
X179989428Y-56693912D01*
X180047177Y-56714575D01*
X180102623Y-56740799D01*
X180155231Y-56772331D01*
X180204496Y-56808868D01*
X180249942Y-56850058D01*
X180291132Y-56895504D01*
X180327669Y-56944769D01*
X180359201Y-56997377D01*
X180385425Y-57052823D01*
X180406088Y-57110572D01*
X180420991Y-57170069D01*
X180429990Y-57230739D01*
X180433000Y-57292000D01*
X180433000Y-58542000D01*
X180429990Y-58603261D01*
X180420991Y-58663931D01*
X180406088Y-58723428D01*
X180385425Y-58781177D01*
X180359201Y-58836623D01*
X180327669Y-58889231D01*
X180291132Y-58938496D01*
X180249942Y-58983942D01*
X180204496Y-59025132D01*
X180155231Y-59061669D01*
X180102623Y-59093201D01*
X180047177Y-59119425D01*
X179989428Y-59140088D01*
X179929931Y-59154991D01*
X179869261Y-59163990D01*
X179808000Y-59167000D01*
X178558000Y-59167000D01*
X178496739Y-59163990D01*
X178436069Y-59154991D01*
X178376572Y-59140088D01*
X178318823Y-59119425D01*
X178263377Y-59093201D01*
X178210769Y-59061669D01*
X178161504Y-59025132D01*
X178116058Y-58983942D01*
X178074868Y-58938496D01*
X178038331Y-58889231D01*
X178006799Y-58836623D01*
X177980575Y-58781177D01*
X177959912Y-58723428D01*
X177945009Y-58663931D01*
X177936010Y-58603261D01*
X177933000Y-58542000D01*
X177933000Y-57292000D01*
X177936010Y-57230739D01*
X177945009Y-57170069D01*
X177959912Y-57110572D01*
X177980575Y-57052823D01*
X178006799Y-56997377D01*
X178038331Y-56944769D01*
X178074868Y-56895504D01*
X178116058Y-56850058D01*
X178161504Y-56808868D01*
X178210769Y-56772331D01*
X178263377Y-56740799D01*
X178318823Y-56714575D01*
X178376572Y-56693912D01*
X178436069Y-56679009D01*
X178496739Y-56670010D01*
X178558000Y-56667000D01*
X179808000Y-56667000D01*
X179869261Y-56670010D01*
X179869261Y-56670010D01*
G37*
D13*
G04 #@! TO.P,D9,1*
G04 #@! TO.N,GND*
X179183000Y-57917000D03*
G04 #@! TD*
D17*
G04 #@! TO.P,D10,2*
G04 #@! TO.N,Net-(D10-Pad2)*
X192523000Y-57917000D03*
D16*
G04 #@! TD*
G04 #@! TO.N,GND*
G04 #@! TO.C,D10*
G36*
X189669261Y-56670010D02*
X189729931Y-56679009D01*
X189789428Y-56693912D01*
X189847177Y-56714575D01*
X189902623Y-56740799D01*
X189955231Y-56772331D01*
X190004496Y-56808868D01*
X190049942Y-56850058D01*
X190091132Y-56895504D01*
X190127669Y-56944769D01*
X190159201Y-56997377D01*
X190185425Y-57052823D01*
X190206088Y-57110572D01*
X190220991Y-57170069D01*
X190229990Y-57230739D01*
X190233000Y-57292000D01*
X190233000Y-58542000D01*
X190229990Y-58603261D01*
X190220991Y-58663931D01*
X190206088Y-58723428D01*
X190185425Y-58781177D01*
X190159201Y-58836623D01*
X190127669Y-58889231D01*
X190091132Y-58938496D01*
X190049942Y-58983942D01*
X190004496Y-59025132D01*
X189955231Y-59061669D01*
X189902623Y-59093201D01*
X189847177Y-59119425D01*
X189789428Y-59140088D01*
X189729931Y-59154991D01*
X189669261Y-59163990D01*
X189608000Y-59167000D01*
X188358000Y-59167000D01*
X188296739Y-59163990D01*
X188236069Y-59154991D01*
X188176572Y-59140088D01*
X188118823Y-59119425D01*
X188063377Y-59093201D01*
X188010769Y-59061669D01*
X187961504Y-59025132D01*
X187916058Y-58983942D01*
X187874868Y-58938496D01*
X187838331Y-58889231D01*
X187806799Y-58836623D01*
X187780575Y-58781177D01*
X187759912Y-58723428D01*
X187745009Y-58663931D01*
X187736010Y-58603261D01*
X187733000Y-58542000D01*
X187733000Y-57292000D01*
X187736010Y-57230739D01*
X187745009Y-57170069D01*
X187759912Y-57110572D01*
X187780575Y-57052823D01*
X187806799Y-56997377D01*
X187838331Y-56944769D01*
X187874868Y-56895504D01*
X187916058Y-56850058D01*
X187961504Y-56808868D01*
X188010769Y-56772331D01*
X188063377Y-56740799D01*
X188118823Y-56714575D01*
X188176572Y-56693912D01*
X188236069Y-56679009D01*
X188296739Y-56670010D01*
X188358000Y-56667000D01*
X189608000Y-56667000D01*
X189669261Y-56670010D01*
X189669261Y-56670010D01*
G37*
D13*
G04 #@! TO.P,D10,1*
G04 #@! TO.N,GND*
X188983000Y-57917000D03*
G04 #@! TD*
D16*
G04 #@! TO.N,GND*
G04 #@! TO.C,D11*
G36*
X199469261Y-56670010D02*
X199529931Y-56679009D01*
X199589428Y-56693912D01*
X199647177Y-56714575D01*
X199702623Y-56740799D01*
X199755231Y-56772331D01*
X199804496Y-56808868D01*
X199849942Y-56850058D01*
X199891132Y-56895504D01*
X199927669Y-56944769D01*
X199959201Y-56997377D01*
X199985425Y-57052823D01*
X200006088Y-57110572D01*
X200020991Y-57170069D01*
X200029990Y-57230739D01*
X200033000Y-57292000D01*
X200033000Y-58542000D01*
X200029990Y-58603261D01*
X200020991Y-58663931D01*
X200006088Y-58723428D01*
X199985425Y-58781177D01*
X199959201Y-58836623D01*
X199927669Y-58889231D01*
X199891132Y-58938496D01*
X199849942Y-58983942D01*
X199804496Y-59025132D01*
X199755231Y-59061669D01*
X199702623Y-59093201D01*
X199647177Y-59119425D01*
X199589428Y-59140088D01*
X199529931Y-59154991D01*
X199469261Y-59163990D01*
X199408000Y-59167000D01*
X198158000Y-59167000D01*
X198096739Y-59163990D01*
X198036069Y-59154991D01*
X197976572Y-59140088D01*
X197918823Y-59119425D01*
X197863377Y-59093201D01*
X197810769Y-59061669D01*
X197761504Y-59025132D01*
X197716058Y-58983942D01*
X197674868Y-58938496D01*
X197638331Y-58889231D01*
X197606799Y-58836623D01*
X197580575Y-58781177D01*
X197559912Y-58723428D01*
X197545009Y-58663931D01*
X197536010Y-58603261D01*
X197533000Y-58542000D01*
X197533000Y-57292000D01*
X197536010Y-57230739D01*
X197545009Y-57170069D01*
X197559912Y-57110572D01*
X197580575Y-57052823D01*
X197606799Y-56997377D01*
X197638331Y-56944769D01*
X197674868Y-56895504D01*
X197716058Y-56850058D01*
X197761504Y-56808868D01*
X197810769Y-56772331D01*
X197863377Y-56740799D01*
X197918823Y-56714575D01*
X197976572Y-56693912D01*
X198036069Y-56679009D01*
X198096739Y-56670010D01*
X198158000Y-56667000D01*
X199408000Y-56667000D01*
X199469261Y-56670010D01*
X199469261Y-56670010D01*
G37*
D13*
G04 #@! TD*
G04 #@! TO.P,D11,1*
G04 #@! TO.N,GND*
X198783000Y-57917000D03*
D17*
G04 #@! TO.P,D11,2*
G04 #@! TO.N,Net-(D11-Pad2)*
X202323000Y-57917000D03*
G04 #@! TD*
G04 #@! TO.P,D12,2*
G04 #@! TO.N,Net-(D12-Pad2)*
X212123000Y-57917000D03*
D16*
G04 #@! TD*
G04 #@! TO.N,GND*
G04 #@! TO.C,D12*
G36*
X209269261Y-56670010D02*
X209329931Y-56679009D01*
X209389428Y-56693912D01*
X209447177Y-56714575D01*
X209502623Y-56740799D01*
X209555231Y-56772331D01*
X209604496Y-56808868D01*
X209649942Y-56850058D01*
X209691132Y-56895504D01*
X209727669Y-56944769D01*
X209759201Y-56997377D01*
X209785425Y-57052823D01*
X209806088Y-57110572D01*
X209820991Y-57170069D01*
X209829990Y-57230739D01*
X209833000Y-57292000D01*
X209833000Y-58542000D01*
X209829990Y-58603261D01*
X209820991Y-58663931D01*
X209806088Y-58723428D01*
X209785425Y-58781177D01*
X209759201Y-58836623D01*
X209727669Y-58889231D01*
X209691132Y-58938496D01*
X209649942Y-58983942D01*
X209604496Y-59025132D01*
X209555231Y-59061669D01*
X209502623Y-59093201D01*
X209447177Y-59119425D01*
X209389428Y-59140088D01*
X209329931Y-59154991D01*
X209269261Y-59163990D01*
X209208000Y-59167000D01*
X207958000Y-59167000D01*
X207896739Y-59163990D01*
X207836069Y-59154991D01*
X207776572Y-59140088D01*
X207718823Y-59119425D01*
X207663377Y-59093201D01*
X207610769Y-59061669D01*
X207561504Y-59025132D01*
X207516058Y-58983942D01*
X207474868Y-58938496D01*
X207438331Y-58889231D01*
X207406799Y-58836623D01*
X207380575Y-58781177D01*
X207359912Y-58723428D01*
X207345009Y-58663931D01*
X207336010Y-58603261D01*
X207333000Y-58542000D01*
X207333000Y-57292000D01*
X207336010Y-57230739D01*
X207345009Y-57170069D01*
X207359912Y-57110572D01*
X207380575Y-57052823D01*
X207406799Y-56997377D01*
X207438331Y-56944769D01*
X207474868Y-56895504D01*
X207516058Y-56850058D01*
X207561504Y-56808868D01*
X207610769Y-56772331D01*
X207663377Y-56740799D01*
X207718823Y-56714575D01*
X207776572Y-56693912D01*
X207836069Y-56679009D01*
X207896739Y-56670010D01*
X207958000Y-56667000D01*
X209208000Y-56667000D01*
X209269261Y-56670010D01*
X209269261Y-56670010D01*
G37*
D13*
G04 #@! TO.P,D12,1*
G04 #@! TO.N,GND*
X208583000Y-57917000D03*
G04 #@! TD*
D16*
G04 #@! TO.N,GND*
G04 #@! TO.C,D13*
G36*
X209269261Y-65770010D02*
X209329931Y-65779009D01*
X209389428Y-65793912D01*
X209447177Y-65814575D01*
X209502623Y-65840799D01*
X209555231Y-65872331D01*
X209604496Y-65908868D01*
X209649942Y-65950058D01*
X209691132Y-65995504D01*
X209727669Y-66044769D01*
X209759201Y-66097377D01*
X209785425Y-66152823D01*
X209806088Y-66210572D01*
X209820991Y-66270069D01*
X209829990Y-66330739D01*
X209833000Y-66392000D01*
X209833000Y-67642000D01*
X209829990Y-67703261D01*
X209820991Y-67763931D01*
X209806088Y-67823428D01*
X209785425Y-67881177D01*
X209759201Y-67936623D01*
X209727669Y-67989231D01*
X209691132Y-68038496D01*
X209649942Y-68083942D01*
X209604496Y-68125132D01*
X209555231Y-68161669D01*
X209502623Y-68193201D01*
X209447177Y-68219425D01*
X209389428Y-68240088D01*
X209329931Y-68254991D01*
X209269261Y-68263990D01*
X209208000Y-68267000D01*
X207958000Y-68267000D01*
X207896739Y-68263990D01*
X207836069Y-68254991D01*
X207776572Y-68240088D01*
X207718823Y-68219425D01*
X207663377Y-68193201D01*
X207610769Y-68161669D01*
X207561504Y-68125132D01*
X207516058Y-68083942D01*
X207474868Y-68038496D01*
X207438331Y-67989231D01*
X207406799Y-67936623D01*
X207380575Y-67881177D01*
X207359912Y-67823428D01*
X207345009Y-67763931D01*
X207336010Y-67703261D01*
X207333000Y-67642000D01*
X207333000Y-66392000D01*
X207336010Y-66330739D01*
X207345009Y-66270069D01*
X207359912Y-66210572D01*
X207380575Y-66152823D01*
X207406799Y-66097377D01*
X207438331Y-66044769D01*
X207474868Y-65995504D01*
X207516058Y-65950058D01*
X207561504Y-65908868D01*
X207610769Y-65872331D01*
X207663377Y-65840799D01*
X207718823Y-65814575D01*
X207776572Y-65793912D01*
X207836069Y-65779009D01*
X207896739Y-65770010D01*
X207958000Y-65767000D01*
X209208000Y-65767000D01*
X209269261Y-65770010D01*
X209269261Y-65770010D01*
G37*
D13*
G04 #@! TD*
G04 #@! TO.P,D13,1*
G04 #@! TO.N,GND*
X208583000Y-67017000D03*
D17*
G04 #@! TO.P,D13,2*
G04 #@! TO.N,Net-(D13-Pad2)*
X212123000Y-67017000D03*
G04 #@! TD*
G04 #@! TO.P,D14,2*
G04 #@! TO.N,Net-(D14-Pad2)*
X212123000Y-76117000D03*
D16*
G04 #@! TD*
G04 #@! TO.N,GND*
G04 #@! TO.C,D14*
G36*
X209269261Y-74870010D02*
X209329931Y-74879009D01*
X209389428Y-74893912D01*
X209447177Y-74914575D01*
X209502623Y-74940799D01*
X209555231Y-74972331D01*
X209604496Y-75008868D01*
X209649942Y-75050058D01*
X209691132Y-75095504D01*
X209727669Y-75144769D01*
X209759201Y-75197377D01*
X209785425Y-75252823D01*
X209806088Y-75310572D01*
X209820991Y-75370069D01*
X209829990Y-75430739D01*
X209833000Y-75492000D01*
X209833000Y-76742000D01*
X209829990Y-76803261D01*
X209820991Y-76863931D01*
X209806088Y-76923428D01*
X209785425Y-76981177D01*
X209759201Y-77036623D01*
X209727669Y-77089231D01*
X209691132Y-77138496D01*
X209649942Y-77183942D01*
X209604496Y-77225132D01*
X209555231Y-77261669D01*
X209502623Y-77293201D01*
X209447177Y-77319425D01*
X209389428Y-77340088D01*
X209329931Y-77354991D01*
X209269261Y-77363990D01*
X209208000Y-77367000D01*
X207958000Y-77367000D01*
X207896739Y-77363990D01*
X207836069Y-77354991D01*
X207776572Y-77340088D01*
X207718823Y-77319425D01*
X207663377Y-77293201D01*
X207610769Y-77261669D01*
X207561504Y-77225132D01*
X207516058Y-77183942D01*
X207474868Y-77138496D01*
X207438331Y-77089231D01*
X207406799Y-77036623D01*
X207380575Y-76981177D01*
X207359912Y-76923428D01*
X207345009Y-76863931D01*
X207336010Y-76803261D01*
X207333000Y-76742000D01*
X207333000Y-75492000D01*
X207336010Y-75430739D01*
X207345009Y-75370069D01*
X207359912Y-75310572D01*
X207380575Y-75252823D01*
X207406799Y-75197377D01*
X207438331Y-75144769D01*
X207474868Y-75095504D01*
X207516058Y-75050058D01*
X207561504Y-75008868D01*
X207610769Y-74972331D01*
X207663377Y-74940799D01*
X207718823Y-74914575D01*
X207776572Y-74893912D01*
X207836069Y-74879009D01*
X207896739Y-74870010D01*
X207958000Y-74867000D01*
X209208000Y-74867000D01*
X209269261Y-74870010D01*
X209269261Y-74870010D01*
G37*
D13*
G04 #@! TO.P,D14,1*
G04 #@! TO.N,GND*
X208583000Y-76117000D03*
G04 #@! TD*
D16*
G04 #@! TO.N,GND*
G04 #@! TO.C,D15*
G36*
X209269261Y-83970010D02*
X209329931Y-83979009D01*
X209389428Y-83993912D01*
X209447177Y-84014575D01*
X209502623Y-84040799D01*
X209555231Y-84072331D01*
X209604496Y-84108868D01*
X209649942Y-84150058D01*
X209691132Y-84195504D01*
X209727669Y-84244769D01*
X209759201Y-84297377D01*
X209785425Y-84352823D01*
X209806088Y-84410572D01*
X209820991Y-84470069D01*
X209829990Y-84530739D01*
X209833000Y-84592000D01*
X209833000Y-85842000D01*
X209829990Y-85903261D01*
X209820991Y-85963931D01*
X209806088Y-86023428D01*
X209785425Y-86081177D01*
X209759201Y-86136623D01*
X209727669Y-86189231D01*
X209691132Y-86238496D01*
X209649942Y-86283942D01*
X209604496Y-86325132D01*
X209555231Y-86361669D01*
X209502623Y-86393201D01*
X209447177Y-86419425D01*
X209389428Y-86440088D01*
X209329931Y-86454991D01*
X209269261Y-86463990D01*
X209208000Y-86467000D01*
X207958000Y-86467000D01*
X207896739Y-86463990D01*
X207836069Y-86454991D01*
X207776572Y-86440088D01*
X207718823Y-86419425D01*
X207663377Y-86393201D01*
X207610769Y-86361669D01*
X207561504Y-86325132D01*
X207516058Y-86283942D01*
X207474868Y-86238496D01*
X207438331Y-86189231D01*
X207406799Y-86136623D01*
X207380575Y-86081177D01*
X207359912Y-86023428D01*
X207345009Y-85963931D01*
X207336010Y-85903261D01*
X207333000Y-85842000D01*
X207333000Y-84592000D01*
X207336010Y-84530739D01*
X207345009Y-84470069D01*
X207359912Y-84410572D01*
X207380575Y-84352823D01*
X207406799Y-84297377D01*
X207438331Y-84244769D01*
X207474868Y-84195504D01*
X207516058Y-84150058D01*
X207561504Y-84108868D01*
X207610769Y-84072331D01*
X207663377Y-84040799D01*
X207718823Y-84014575D01*
X207776572Y-83993912D01*
X207836069Y-83979009D01*
X207896739Y-83970010D01*
X207958000Y-83967000D01*
X209208000Y-83967000D01*
X209269261Y-83970010D01*
X209269261Y-83970010D01*
G37*
D13*
G04 #@! TD*
G04 #@! TO.P,D15,1*
G04 #@! TO.N,GND*
X208583000Y-85217000D03*
D17*
G04 #@! TO.P,D15,2*
G04 #@! TO.N,Net-(D15-Pad2)*
X212123000Y-85217000D03*
G04 #@! TD*
G04 #@! TO.P,D16,2*
G04 #@! TO.N,Net-(D16-Pad2)*
X195597000Y-85217000D03*
D16*
G04 #@! TD*
G04 #@! TO.N,GND*
G04 #@! TO.C,D16*
G36*
X192743261Y-83970010D02*
X192803931Y-83979009D01*
X192863428Y-83993912D01*
X192921177Y-84014575D01*
X192976623Y-84040799D01*
X193029231Y-84072331D01*
X193078496Y-84108868D01*
X193123942Y-84150058D01*
X193165132Y-84195504D01*
X193201669Y-84244769D01*
X193233201Y-84297377D01*
X193259425Y-84352823D01*
X193280088Y-84410572D01*
X193294991Y-84470069D01*
X193303990Y-84530739D01*
X193307000Y-84592000D01*
X193307000Y-85842000D01*
X193303990Y-85903261D01*
X193294991Y-85963931D01*
X193280088Y-86023428D01*
X193259425Y-86081177D01*
X193233201Y-86136623D01*
X193201669Y-86189231D01*
X193165132Y-86238496D01*
X193123942Y-86283942D01*
X193078496Y-86325132D01*
X193029231Y-86361669D01*
X192976623Y-86393201D01*
X192921177Y-86419425D01*
X192863428Y-86440088D01*
X192803931Y-86454991D01*
X192743261Y-86463990D01*
X192682000Y-86467000D01*
X191432000Y-86467000D01*
X191370739Y-86463990D01*
X191310069Y-86454991D01*
X191250572Y-86440088D01*
X191192823Y-86419425D01*
X191137377Y-86393201D01*
X191084769Y-86361669D01*
X191035504Y-86325132D01*
X190990058Y-86283942D01*
X190948868Y-86238496D01*
X190912331Y-86189231D01*
X190880799Y-86136623D01*
X190854575Y-86081177D01*
X190833912Y-86023428D01*
X190819009Y-85963931D01*
X190810010Y-85903261D01*
X190807000Y-85842000D01*
X190807000Y-84592000D01*
X190810010Y-84530739D01*
X190819009Y-84470069D01*
X190833912Y-84410572D01*
X190854575Y-84352823D01*
X190880799Y-84297377D01*
X190912331Y-84244769D01*
X190948868Y-84195504D01*
X190990058Y-84150058D01*
X191035504Y-84108868D01*
X191084769Y-84072331D01*
X191137377Y-84040799D01*
X191192823Y-84014575D01*
X191250572Y-83993912D01*
X191310069Y-83979009D01*
X191370739Y-83970010D01*
X191432000Y-83967000D01*
X192682000Y-83967000D01*
X192743261Y-83970010D01*
X192743261Y-83970010D01*
G37*
D13*
G04 #@! TO.P,D16,1*
G04 #@! TO.N,GND*
X192057000Y-85217000D03*
G04 #@! TD*
D17*
G04 #@! TO.P,D17,2*
G04 #@! TO.N,Net-(D17-Pad2)*
X195597000Y-73837800D03*
D16*
G04 #@! TD*
G04 #@! TO.N,GND*
G04 #@! TO.C,D17*
G36*
X192743261Y-72590810D02*
X192803931Y-72599809D01*
X192863428Y-72614712D01*
X192921177Y-72635375D01*
X192976623Y-72661599D01*
X193029231Y-72693131D01*
X193078496Y-72729668D01*
X193123942Y-72770858D01*
X193165132Y-72816304D01*
X193201669Y-72865569D01*
X193233201Y-72918177D01*
X193259425Y-72973623D01*
X193280088Y-73031372D01*
X193294991Y-73090869D01*
X193303990Y-73151539D01*
X193307000Y-73212800D01*
X193307000Y-74462800D01*
X193303990Y-74524061D01*
X193294991Y-74584731D01*
X193280088Y-74644228D01*
X193259425Y-74701977D01*
X193233201Y-74757423D01*
X193201669Y-74810031D01*
X193165132Y-74859296D01*
X193123942Y-74904742D01*
X193078496Y-74945932D01*
X193029231Y-74982469D01*
X192976623Y-75014001D01*
X192921177Y-75040225D01*
X192863428Y-75060888D01*
X192803931Y-75075791D01*
X192743261Y-75084790D01*
X192682000Y-75087800D01*
X191432000Y-75087800D01*
X191370739Y-75084790D01*
X191310069Y-75075791D01*
X191250572Y-75060888D01*
X191192823Y-75040225D01*
X191137377Y-75014001D01*
X191084769Y-74982469D01*
X191035504Y-74945932D01*
X190990058Y-74904742D01*
X190948868Y-74859296D01*
X190912331Y-74810031D01*
X190880799Y-74757423D01*
X190854575Y-74701977D01*
X190833912Y-74644228D01*
X190819009Y-74584731D01*
X190810010Y-74524061D01*
X190807000Y-74462800D01*
X190807000Y-73212800D01*
X190810010Y-73151539D01*
X190819009Y-73090869D01*
X190833912Y-73031372D01*
X190854575Y-72973623D01*
X190880799Y-72918177D01*
X190912331Y-72865569D01*
X190948868Y-72816304D01*
X190990058Y-72770858D01*
X191035504Y-72729668D01*
X191084769Y-72693131D01*
X191137377Y-72661599D01*
X191192823Y-72635375D01*
X191250572Y-72614712D01*
X191310069Y-72599809D01*
X191370739Y-72590810D01*
X191432000Y-72587800D01*
X192682000Y-72587800D01*
X192743261Y-72590810D01*
X192743261Y-72590810D01*
G37*
D13*
G04 #@! TO.P,D17,1*
G04 #@! TO.N,GND*
X192057000Y-73837800D03*
G04 #@! TD*
D16*
G04 #@! TO.N,GND*
G04 #@! TO.C,D18*
G36*
X185555261Y-72590810D02*
X185615931Y-72599809D01*
X185675428Y-72614712D01*
X185733177Y-72635375D01*
X185788623Y-72661599D01*
X185841231Y-72693131D01*
X185890496Y-72729668D01*
X185935942Y-72770858D01*
X185977132Y-72816304D01*
X186013669Y-72865569D01*
X186045201Y-72918177D01*
X186071425Y-72973623D01*
X186092088Y-73031372D01*
X186106991Y-73090869D01*
X186115990Y-73151539D01*
X186119000Y-73212800D01*
X186119000Y-74462800D01*
X186115990Y-74524061D01*
X186106991Y-74584731D01*
X186092088Y-74644228D01*
X186071425Y-74701977D01*
X186045201Y-74757423D01*
X186013669Y-74810031D01*
X185977132Y-74859296D01*
X185935942Y-74904742D01*
X185890496Y-74945932D01*
X185841231Y-74982469D01*
X185788623Y-75014001D01*
X185733177Y-75040225D01*
X185675428Y-75060888D01*
X185615931Y-75075791D01*
X185555261Y-75084790D01*
X185494000Y-75087800D01*
X184244000Y-75087800D01*
X184182739Y-75084790D01*
X184122069Y-75075791D01*
X184062572Y-75060888D01*
X184004823Y-75040225D01*
X183949377Y-75014001D01*
X183896769Y-74982469D01*
X183847504Y-74945932D01*
X183802058Y-74904742D01*
X183760868Y-74859296D01*
X183724331Y-74810031D01*
X183692799Y-74757423D01*
X183666575Y-74701977D01*
X183645912Y-74644228D01*
X183631009Y-74584731D01*
X183622010Y-74524061D01*
X183619000Y-74462800D01*
X183619000Y-73212800D01*
X183622010Y-73151539D01*
X183631009Y-73090869D01*
X183645912Y-73031372D01*
X183666575Y-72973623D01*
X183692799Y-72918177D01*
X183724331Y-72865569D01*
X183760868Y-72816304D01*
X183802058Y-72770858D01*
X183847504Y-72729668D01*
X183896769Y-72693131D01*
X183949377Y-72661599D01*
X184004823Y-72635375D01*
X184062572Y-72614712D01*
X184122069Y-72599809D01*
X184182739Y-72590810D01*
X184244000Y-72587800D01*
X185494000Y-72587800D01*
X185555261Y-72590810D01*
X185555261Y-72590810D01*
G37*
D13*
G04 #@! TD*
G04 #@! TO.P,D18,1*
G04 #@! TO.N,GND*
X184869000Y-73837800D03*
D17*
G04 #@! TO.P,D18,2*
G04 #@! TO.N,Net-(D18-Pad2)*
X188409000Y-73837800D03*
G04 #@! TD*
G04 #@! TO.P,D19,2*
G04 #@! TO.N,Net-(D19-Pad2)*
X181196000Y-73837800D03*
D16*
G04 #@! TD*
G04 #@! TO.N,GND*
G04 #@! TO.C,D19*
G36*
X178342261Y-72590810D02*
X178402931Y-72599809D01*
X178462428Y-72614712D01*
X178520177Y-72635375D01*
X178575623Y-72661599D01*
X178628231Y-72693131D01*
X178677496Y-72729668D01*
X178722942Y-72770858D01*
X178764132Y-72816304D01*
X178800669Y-72865569D01*
X178832201Y-72918177D01*
X178858425Y-72973623D01*
X178879088Y-73031372D01*
X178893991Y-73090869D01*
X178902990Y-73151539D01*
X178906000Y-73212800D01*
X178906000Y-74462800D01*
X178902990Y-74524061D01*
X178893991Y-74584731D01*
X178879088Y-74644228D01*
X178858425Y-74701977D01*
X178832201Y-74757423D01*
X178800669Y-74810031D01*
X178764132Y-74859296D01*
X178722942Y-74904742D01*
X178677496Y-74945932D01*
X178628231Y-74982469D01*
X178575623Y-75014001D01*
X178520177Y-75040225D01*
X178462428Y-75060888D01*
X178402931Y-75075791D01*
X178342261Y-75084790D01*
X178281000Y-75087800D01*
X177031000Y-75087800D01*
X176969739Y-75084790D01*
X176909069Y-75075791D01*
X176849572Y-75060888D01*
X176791823Y-75040225D01*
X176736377Y-75014001D01*
X176683769Y-74982469D01*
X176634504Y-74945932D01*
X176589058Y-74904742D01*
X176547868Y-74859296D01*
X176511331Y-74810031D01*
X176479799Y-74757423D01*
X176453575Y-74701977D01*
X176432912Y-74644228D01*
X176418009Y-74584731D01*
X176409010Y-74524061D01*
X176406000Y-74462800D01*
X176406000Y-73212800D01*
X176409010Y-73151539D01*
X176418009Y-73090869D01*
X176432912Y-73031372D01*
X176453575Y-72973623D01*
X176479799Y-72918177D01*
X176511331Y-72865569D01*
X176547868Y-72816304D01*
X176589058Y-72770858D01*
X176634504Y-72729668D01*
X176683769Y-72693131D01*
X176736377Y-72661599D01*
X176791823Y-72635375D01*
X176849572Y-72614712D01*
X176909069Y-72599809D01*
X176969739Y-72590810D01*
X177031000Y-72587800D01*
X178281000Y-72587800D01*
X178342261Y-72590810D01*
X178342261Y-72590810D01*
G37*
D13*
G04 #@! TO.P,D19,1*
G04 #@! TO.N,GND*
X177656000Y-73837800D03*
G04 #@! TD*
D16*
G04 #@! TO.N,GND*
G04 #@! TO.C,D20*
G36*
X178342261Y-81790810D02*
X178402931Y-81799809D01*
X178462428Y-81814712D01*
X178520177Y-81835375D01*
X178575623Y-81861599D01*
X178628231Y-81893131D01*
X178677496Y-81929668D01*
X178722942Y-81970858D01*
X178764132Y-82016304D01*
X178800669Y-82065569D01*
X178832201Y-82118177D01*
X178858425Y-82173623D01*
X178879088Y-82231372D01*
X178893991Y-82290869D01*
X178902990Y-82351539D01*
X178906000Y-82412800D01*
X178906000Y-83662800D01*
X178902990Y-83724061D01*
X178893991Y-83784731D01*
X178879088Y-83844228D01*
X178858425Y-83901977D01*
X178832201Y-83957423D01*
X178800669Y-84010031D01*
X178764132Y-84059296D01*
X178722942Y-84104742D01*
X178677496Y-84145932D01*
X178628231Y-84182469D01*
X178575623Y-84214001D01*
X178520177Y-84240225D01*
X178462428Y-84260888D01*
X178402931Y-84275791D01*
X178342261Y-84284790D01*
X178281000Y-84287800D01*
X177031000Y-84287800D01*
X176969739Y-84284790D01*
X176909069Y-84275791D01*
X176849572Y-84260888D01*
X176791823Y-84240225D01*
X176736377Y-84214001D01*
X176683769Y-84182469D01*
X176634504Y-84145932D01*
X176589058Y-84104742D01*
X176547868Y-84059296D01*
X176511331Y-84010031D01*
X176479799Y-83957423D01*
X176453575Y-83901977D01*
X176432912Y-83844228D01*
X176418009Y-83784731D01*
X176409010Y-83724061D01*
X176406000Y-83662800D01*
X176406000Y-82412800D01*
X176409010Y-82351539D01*
X176418009Y-82290869D01*
X176432912Y-82231372D01*
X176453575Y-82173623D01*
X176479799Y-82118177D01*
X176511331Y-82065569D01*
X176547868Y-82016304D01*
X176589058Y-81970858D01*
X176634504Y-81929668D01*
X176683769Y-81893131D01*
X176736377Y-81861599D01*
X176791823Y-81835375D01*
X176849572Y-81814712D01*
X176909069Y-81799809D01*
X176969739Y-81790810D01*
X177031000Y-81787800D01*
X178281000Y-81787800D01*
X178342261Y-81790810D01*
X178342261Y-81790810D01*
G37*
D13*
G04 #@! TD*
G04 #@! TO.P,D20,1*
G04 #@! TO.N,GND*
X177656000Y-83037800D03*
D17*
G04 #@! TO.P,D20,2*
G04 #@! TO.N,Net-(D20-Pad2)*
X181196000Y-83037800D03*
G04 #@! TD*
G04 #@! TO.P,D21,2*
G04 #@! TO.N,Net-(D21-Pad2)*
X181196000Y-92237800D03*
D16*
G04 #@! TD*
G04 #@! TO.N,GND*
G04 #@! TO.C,D21*
G36*
X178342261Y-90990810D02*
X178402931Y-90999809D01*
X178462428Y-91014712D01*
X178520177Y-91035375D01*
X178575623Y-91061599D01*
X178628231Y-91093131D01*
X178677496Y-91129668D01*
X178722942Y-91170858D01*
X178764132Y-91216304D01*
X178800669Y-91265569D01*
X178832201Y-91318177D01*
X178858425Y-91373623D01*
X178879088Y-91431372D01*
X178893991Y-91490869D01*
X178902990Y-91551539D01*
X178906000Y-91612800D01*
X178906000Y-92862800D01*
X178902990Y-92924061D01*
X178893991Y-92984731D01*
X178879088Y-93044228D01*
X178858425Y-93101977D01*
X178832201Y-93157423D01*
X178800669Y-93210031D01*
X178764132Y-93259296D01*
X178722942Y-93304742D01*
X178677496Y-93345932D01*
X178628231Y-93382469D01*
X178575623Y-93414001D01*
X178520177Y-93440225D01*
X178462428Y-93460888D01*
X178402931Y-93475791D01*
X178342261Y-93484790D01*
X178281000Y-93487800D01*
X177031000Y-93487800D01*
X176969739Y-93484790D01*
X176909069Y-93475791D01*
X176849572Y-93460888D01*
X176791823Y-93440225D01*
X176736377Y-93414001D01*
X176683769Y-93382469D01*
X176634504Y-93345932D01*
X176589058Y-93304742D01*
X176547868Y-93259296D01*
X176511331Y-93210031D01*
X176479799Y-93157423D01*
X176453575Y-93101977D01*
X176432912Y-93044228D01*
X176418009Y-92984731D01*
X176409010Y-92924061D01*
X176406000Y-92862800D01*
X176406000Y-91612800D01*
X176409010Y-91551539D01*
X176418009Y-91490869D01*
X176432912Y-91431372D01*
X176453575Y-91373623D01*
X176479799Y-91318177D01*
X176511331Y-91265569D01*
X176547868Y-91216304D01*
X176589058Y-91170858D01*
X176634504Y-91129668D01*
X176683769Y-91093131D01*
X176736377Y-91061599D01*
X176791823Y-91035375D01*
X176849572Y-91014712D01*
X176909069Y-90999809D01*
X176969739Y-90990810D01*
X177031000Y-90987800D01*
X178281000Y-90987800D01*
X178342261Y-90990810D01*
X178342261Y-90990810D01*
G37*
D13*
G04 #@! TO.P,D21,1*
G04 #@! TO.N,GND*
X177656000Y-92237800D03*
G04 #@! TD*
D16*
G04 #@! TO.N,GND*
G04 #@! TO.C,D22*
G36*
X178342261Y-119452010D02*
X178402931Y-119461009D01*
X178462428Y-119475912D01*
X178520177Y-119496575D01*
X178575623Y-119522799D01*
X178628231Y-119554331D01*
X178677496Y-119590868D01*
X178722942Y-119632058D01*
X178764132Y-119677504D01*
X178800669Y-119726769D01*
X178832201Y-119779377D01*
X178858425Y-119834823D01*
X178879088Y-119892572D01*
X178893991Y-119952069D01*
X178902990Y-120012739D01*
X178906000Y-120074000D01*
X178906000Y-121324000D01*
X178902990Y-121385261D01*
X178893991Y-121445931D01*
X178879088Y-121505428D01*
X178858425Y-121563177D01*
X178832201Y-121618623D01*
X178800669Y-121671231D01*
X178764132Y-121720496D01*
X178722942Y-121765942D01*
X178677496Y-121807132D01*
X178628231Y-121843669D01*
X178575623Y-121875201D01*
X178520177Y-121901425D01*
X178462428Y-121922088D01*
X178402931Y-121936991D01*
X178342261Y-121945990D01*
X178281000Y-121949000D01*
X177031000Y-121949000D01*
X176969739Y-121945990D01*
X176909069Y-121936991D01*
X176849572Y-121922088D01*
X176791823Y-121901425D01*
X176736377Y-121875201D01*
X176683769Y-121843669D01*
X176634504Y-121807132D01*
X176589058Y-121765942D01*
X176547868Y-121720496D01*
X176511331Y-121671231D01*
X176479799Y-121618623D01*
X176453575Y-121563177D01*
X176432912Y-121505428D01*
X176418009Y-121445931D01*
X176409010Y-121385261D01*
X176406000Y-121324000D01*
X176406000Y-120074000D01*
X176409010Y-120012739D01*
X176418009Y-119952069D01*
X176432912Y-119892572D01*
X176453575Y-119834823D01*
X176479799Y-119779377D01*
X176511331Y-119726769D01*
X176547868Y-119677504D01*
X176589058Y-119632058D01*
X176634504Y-119590868D01*
X176683769Y-119554331D01*
X176736377Y-119522799D01*
X176791823Y-119496575D01*
X176849572Y-119475912D01*
X176909069Y-119461009D01*
X176969739Y-119452010D01*
X177031000Y-119449000D01*
X178281000Y-119449000D01*
X178342261Y-119452010D01*
X178342261Y-119452010D01*
G37*
D13*
G04 #@! TD*
G04 #@! TO.P,D22,1*
G04 #@! TO.N,GND*
X177656000Y-120699000D03*
D17*
G04 #@! TO.P,D22,2*
G04 #@! TO.N,Net-(D22-Pad2)*
X181196000Y-120699000D03*
G04 #@! TD*
G04 #@! TO.P,D23,2*
G04 #@! TO.N,Net-(D23-Pad2)*
X181196000Y-129899000D03*
D16*
G04 #@! TD*
G04 #@! TO.N,GND*
G04 #@! TO.C,D23*
G36*
X178342261Y-128652010D02*
X178402931Y-128661009D01*
X178462428Y-128675912D01*
X178520177Y-128696575D01*
X178575623Y-128722799D01*
X178628231Y-128754331D01*
X178677496Y-128790868D01*
X178722942Y-128832058D01*
X178764132Y-128877504D01*
X178800669Y-128926769D01*
X178832201Y-128979377D01*
X178858425Y-129034823D01*
X178879088Y-129092572D01*
X178893991Y-129152069D01*
X178902990Y-129212739D01*
X178906000Y-129274000D01*
X178906000Y-130524000D01*
X178902990Y-130585261D01*
X178893991Y-130645931D01*
X178879088Y-130705428D01*
X178858425Y-130763177D01*
X178832201Y-130818623D01*
X178800669Y-130871231D01*
X178764132Y-130920496D01*
X178722942Y-130965942D01*
X178677496Y-131007132D01*
X178628231Y-131043669D01*
X178575623Y-131075201D01*
X178520177Y-131101425D01*
X178462428Y-131122088D01*
X178402931Y-131136991D01*
X178342261Y-131145990D01*
X178281000Y-131149000D01*
X177031000Y-131149000D01*
X176969739Y-131145990D01*
X176909069Y-131136991D01*
X176849572Y-131122088D01*
X176791823Y-131101425D01*
X176736377Y-131075201D01*
X176683769Y-131043669D01*
X176634504Y-131007132D01*
X176589058Y-130965942D01*
X176547868Y-130920496D01*
X176511331Y-130871231D01*
X176479799Y-130818623D01*
X176453575Y-130763177D01*
X176432912Y-130705428D01*
X176418009Y-130645931D01*
X176409010Y-130585261D01*
X176406000Y-130524000D01*
X176406000Y-129274000D01*
X176409010Y-129212739D01*
X176418009Y-129152069D01*
X176432912Y-129092572D01*
X176453575Y-129034823D01*
X176479799Y-128979377D01*
X176511331Y-128926769D01*
X176547868Y-128877504D01*
X176589058Y-128832058D01*
X176634504Y-128790868D01*
X176683769Y-128754331D01*
X176736377Y-128722799D01*
X176791823Y-128696575D01*
X176849572Y-128675912D01*
X176909069Y-128661009D01*
X176969739Y-128652010D01*
X177031000Y-128649000D01*
X178281000Y-128649000D01*
X178342261Y-128652010D01*
X178342261Y-128652010D01*
G37*
D13*
G04 #@! TO.P,D23,1*
G04 #@! TO.N,GND*
X177656000Y-129899000D03*
G04 #@! TD*
D16*
G04 #@! TO.N,GND*
G04 #@! TO.C,D24*
G36*
X188342261Y-128652010D02*
X188402931Y-128661009D01*
X188462428Y-128675912D01*
X188520177Y-128696575D01*
X188575623Y-128722799D01*
X188628231Y-128754331D01*
X188677496Y-128790868D01*
X188722942Y-128832058D01*
X188764132Y-128877504D01*
X188800669Y-128926769D01*
X188832201Y-128979377D01*
X188858425Y-129034823D01*
X188879088Y-129092572D01*
X188893991Y-129152069D01*
X188902990Y-129212739D01*
X188906000Y-129274000D01*
X188906000Y-130524000D01*
X188902990Y-130585261D01*
X188893991Y-130645931D01*
X188879088Y-130705428D01*
X188858425Y-130763177D01*
X188832201Y-130818623D01*
X188800669Y-130871231D01*
X188764132Y-130920496D01*
X188722942Y-130965942D01*
X188677496Y-131007132D01*
X188628231Y-131043669D01*
X188575623Y-131075201D01*
X188520177Y-131101425D01*
X188462428Y-131122088D01*
X188402931Y-131136991D01*
X188342261Y-131145990D01*
X188281000Y-131149000D01*
X187031000Y-131149000D01*
X186969739Y-131145990D01*
X186909069Y-131136991D01*
X186849572Y-131122088D01*
X186791823Y-131101425D01*
X186736377Y-131075201D01*
X186683769Y-131043669D01*
X186634504Y-131007132D01*
X186589058Y-130965942D01*
X186547868Y-130920496D01*
X186511331Y-130871231D01*
X186479799Y-130818623D01*
X186453575Y-130763177D01*
X186432912Y-130705428D01*
X186418009Y-130645931D01*
X186409010Y-130585261D01*
X186406000Y-130524000D01*
X186406000Y-129274000D01*
X186409010Y-129212739D01*
X186418009Y-129152069D01*
X186432912Y-129092572D01*
X186453575Y-129034823D01*
X186479799Y-128979377D01*
X186511331Y-128926769D01*
X186547868Y-128877504D01*
X186589058Y-128832058D01*
X186634504Y-128790868D01*
X186683769Y-128754331D01*
X186736377Y-128722799D01*
X186791823Y-128696575D01*
X186849572Y-128675912D01*
X186909069Y-128661009D01*
X186969739Y-128652010D01*
X187031000Y-128649000D01*
X188281000Y-128649000D01*
X188342261Y-128652010D01*
X188342261Y-128652010D01*
G37*
D13*
G04 #@! TD*
G04 #@! TO.P,D24,1*
G04 #@! TO.N,GND*
X187656000Y-129899000D03*
D17*
G04 #@! TO.P,D24,2*
G04 #@! TO.N,Net-(D24-Pad2)*
X191196000Y-129899000D03*
G04 #@! TD*
G04 #@! TO.P,D25,2*
G04 #@! TO.N,Net-(D25-Pad2)*
X191190000Y-146558000D03*
D16*
G04 #@! TD*
G04 #@! TO.N,GND*
G04 #@! TO.C,D25*
G36*
X188336261Y-145311010D02*
X188396931Y-145320009D01*
X188456428Y-145334912D01*
X188514177Y-145355575D01*
X188569623Y-145381799D01*
X188622231Y-145413331D01*
X188671496Y-145449868D01*
X188716942Y-145491058D01*
X188758132Y-145536504D01*
X188794669Y-145585769D01*
X188826201Y-145638377D01*
X188852425Y-145693823D01*
X188873088Y-145751572D01*
X188887991Y-145811069D01*
X188896990Y-145871739D01*
X188900000Y-145933000D01*
X188900000Y-147183000D01*
X188896990Y-147244261D01*
X188887991Y-147304931D01*
X188873088Y-147364428D01*
X188852425Y-147422177D01*
X188826201Y-147477623D01*
X188794669Y-147530231D01*
X188758132Y-147579496D01*
X188716942Y-147624942D01*
X188671496Y-147666132D01*
X188622231Y-147702669D01*
X188569623Y-147734201D01*
X188514177Y-147760425D01*
X188456428Y-147781088D01*
X188396931Y-147795991D01*
X188336261Y-147804990D01*
X188275000Y-147808000D01*
X187025000Y-147808000D01*
X186963739Y-147804990D01*
X186903069Y-147795991D01*
X186843572Y-147781088D01*
X186785823Y-147760425D01*
X186730377Y-147734201D01*
X186677769Y-147702669D01*
X186628504Y-147666132D01*
X186583058Y-147624942D01*
X186541868Y-147579496D01*
X186505331Y-147530231D01*
X186473799Y-147477623D01*
X186447575Y-147422177D01*
X186426912Y-147364428D01*
X186412009Y-147304931D01*
X186403010Y-147244261D01*
X186400000Y-147183000D01*
X186400000Y-145933000D01*
X186403010Y-145871739D01*
X186412009Y-145811069D01*
X186426912Y-145751572D01*
X186447575Y-145693823D01*
X186473799Y-145638377D01*
X186505331Y-145585769D01*
X186541868Y-145536504D01*
X186583058Y-145491058D01*
X186628504Y-145449868D01*
X186677769Y-145413331D01*
X186730377Y-145381799D01*
X186785823Y-145355575D01*
X186843572Y-145334912D01*
X186903069Y-145320009D01*
X186963739Y-145311010D01*
X187025000Y-145308000D01*
X188275000Y-145308000D01*
X188336261Y-145311010D01*
X188336261Y-145311010D01*
G37*
D13*
G04 #@! TO.P,D25,1*
G04 #@! TO.N,GND*
X187650000Y-146558000D03*
G04 #@! TD*
D16*
G04 #@! TO.N,GND*
G04 #@! TO.C,D26*
G36*
X179136261Y-145311010D02*
X179196931Y-145320009D01*
X179256428Y-145334912D01*
X179314177Y-145355575D01*
X179369623Y-145381799D01*
X179422231Y-145413331D01*
X179471496Y-145449868D01*
X179516942Y-145491058D01*
X179558132Y-145536504D01*
X179594669Y-145585769D01*
X179626201Y-145638377D01*
X179652425Y-145693823D01*
X179673088Y-145751572D01*
X179687991Y-145811069D01*
X179696990Y-145871739D01*
X179700000Y-145933000D01*
X179700000Y-147183000D01*
X179696990Y-147244261D01*
X179687991Y-147304931D01*
X179673088Y-147364428D01*
X179652425Y-147422177D01*
X179626201Y-147477623D01*
X179594669Y-147530231D01*
X179558132Y-147579496D01*
X179516942Y-147624942D01*
X179471496Y-147666132D01*
X179422231Y-147702669D01*
X179369623Y-147734201D01*
X179314177Y-147760425D01*
X179256428Y-147781088D01*
X179196931Y-147795991D01*
X179136261Y-147804990D01*
X179075000Y-147808000D01*
X177825000Y-147808000D01*
X177763739Y-147804990D01*
X177703069Y-147795991D01*
X177643572Y-147781088D01*
X177585823Y-147760425D01*
X177530377Y-147734201D01*
X177477769Y-147702669D01*
X177428504Y-147666132D01*
X177383058Y-147624942D01*
X177341868Y-147579496D01*
X177305331Y-147530231D01*
X177273799Y-147477623D01*
X177247575Y-147422177D01*
X177226912Y-147364428D01*
X177212009Y-147304931D01*
X177203010Y-147244261D01*
X177200000Y-147183000D01*
X177200000Y-145933000D01*
X177203010Y-145871739D01*
X177212009Y-145811069D01*
X177226912Y-145751572D01*
X177247575Y-145693823D01*
X177273799Y-145638377D01*
X177305331Y-145585769D01*
X177341868Y-145536504D01*
X177383058Y-145491058D01*
X177428504Y-145449868D01*
X177477769Y-145413331D01*
X177530377Y-145381799D01*
X177585823Y-145355575D01*
X177643572Y-145334912D01*
X177703069Y-145320009D01*
X177763739Y-145311010D01*
X177825000Y-145308000D01*
X179075000Y-145308000D01*
X179136261Y-145311010D01*
X179136261Y-145311010D01*
G37*
D13*
G04 #@! TD*
G04 #@! TO.P,D26,1*
G04 #@! TO.N,GND*
X178450000Y-146558000D03*
D17*
G04 #@! TO.P,D26,2*
G04 #@! TO.N,Net-(D26-Pad2)*
X181990000Y-146558000D03*
G04 #@! TD*
G04 #@! TO.P,D27,2*
G04 #@! TO.N,Net-(D27-Pad2)*
X172966000Y-146558000D03*
D16*
G04 #@! TD*
G04 #@! TO.N,GND*
G04 #@! TO.C,D27*
G36*
X170112261Y-145311010D02*
X170172931Y-145320009D01*
X170232428Y-145334912D01*
X170290177Y-145355575D01*
X170345623Y-145381799D01*
X170398231Y-145413331D01*
X170447496Y-145449868D01*
X170492942Y-145491058D01*
X170534132Y-145536504D01*
X170570669Y-145585769D01*
X170602201Y-145638377D01*
X170628425Y-145693823D01*
X170649088Y-145751572D01*
X170663991Y-145811069D01*
X170672990Y-145871739D01*
X170676000Y-145933000D01*
X170676000Y-147183000D01*
X170672990Y-147244261D01*
X170663991Y-147304931D01*
X170649088Y-147364428D01*
X170628425Y-147422177D01*
X170602201Y-147477623D01*
X170570669Y-147530231D01*
X170534132Y-147579496D01*
X170492942Y-147624942D01*
X170447496Y-147666132D01*
X170398231Y-147702669D01*
X170345623Y-147734201D01*
X170290177Y-147760425D01*
X170232428Y-147781088D01*
X170172931Y-147795991D01*
X170112261Y-147804990D01*
X170051000Y-147808000D01*
X168801000Y-147808000D01*
X168739739Y-147804990D01*
X168679069Y-147795991D01*
X168619572Y-147781088D01*
X168561823Y-147760425D01*
X168506377Y-147734201D01*
X168453769Y-147702669D01*
X168404504Y-147666132D01*
X168359058Y-147624942D01*
X168317868Y-147579496D01*
X168281331Y-147530231D01*
X168249799Y-147477623D01*
X168223575Y-147422177D01*
X168202912Y-147364428D01*
X168188009Y-147304931D01*
X168179010Y-147244261D01*
X168176000Y-147183000D01*
X168176000Y-145933000D01*
X168179010Y-145871739D01*
X168188009Y-145811069D01*
X168202912Y-145751572D01*
X168223575Y-145693823D01*
X168249799Y-145638377D01*
X168281331Y-145585769D01*
X168317868Y-145536504D01*
X168359058Y-145491058D01*
X168404504Y-145449868D01*
X168453769Y-145413331D01*
X168506377Y-145381799D01*
X168561823Y-145355575D01*
X168619572Y-145334912D01*
X168679069Y-145320009D01*
X168739739Y-145311010D01*
X168801000Y-145308000D01*
X170051000Y-145308000D01*
X170112261Y-145311010D01*
X170112261Y-145311010D01*
G37*
D13*
G04 #@! TO.P,D27,1*
G04 #@! TO.N,GND*
X169426000Y-146558000D03*
G04 #@! TD*
D16*
G04 #@! TO.N,GND*
G04 #@! TO.C,D28*
G36*
X161088261Y-145311010D02*
X161148931Y-145320009D01*
X161208428Y-145334912D01*
X161266177Y-145355575D01*
X161321623Y-145381799D01*
X161374231Y-145413331D01*
X161423496Y-145449868D01*
X161468942Y-145491058D01*
X161510132Y-145536504D01*
X161546669Y-145585769D01*
X161578201Y-145638377D01*
X161604425Y-145693823D01*
X161625088Y-145751572D01*
X161639991Y-145811069D01*
X161648990Y-145871739D01*
X161652000Y-145933000D01*
X161652000Y-147183000D01*
X161648990Y-147244261D01*
X161639991Y-147304931D01*
X161625088Y-147364428D01*
X161604425Y-147422177D01*
X161578201Y-147477623D01*
X161546669Y-147530231D01*
X161510132Y-147579496D01*
X161468942Y-147624942D01*
X161423496Y-147666132D01*
X161374231Y-147702669D01*
X161321623Y-147734201D01*
X161266177Y-147760425D01*
X161208428Y-147781088D01*
X161148931Y-147795991D01*
X161088261Y-147804990D01*
X161027000Y-147808000D01*
X159777000Y-147808000D01*
X159715739Y-147804990D01*
X159655069Y-147795991D01*
X159595572Y-147781088D01*
X159537823Y-147760425D01*
X159482377Y-147734201D01*
X159429769Y-147702669D01*
X159380504Y-147666132D01*
X159335058Y-147624942D01*
X159293868Y-147579496D01*
X159257331Y-147530231D01*
X159225799Y-147477623D01*
X159199575Y-147422177D01*
X159178912Y-147364428D01*
X159164009Y-147304931D01*
X159155010Y-147244261D01*
X159152000Y-147183000D01*
X159152000Y-145933000D01*
X159155010Y-145871739D01*
X159164009Y-145811069D01*
X159178912Y-145751572D01*
X159199575Y-145693823D01*
X159225799Y-145638377D01*
X159257331Y-145585769D01*
X159293868Y-145536504D01*
X159335058Y-145491058D01*
X159380504Y-145449868D01*
X159429769Y-145413331D01*
X159482377Y-145381799D01*
X159537823Y-145355575D01*
X159595572Y-145334912D01*
X159655069Y-145320009D01*
X159715739Y-145311010D01*
X159777000Y-145308000D01*
X161027000Y-145308000D01*
X161088261Y-145311010D01*
X161088261Y-145311010D01*
G37*
D13*
G04 #@! TD*
G04 #@! TO.P,D28,1*
G04 #@! TO.N,GND*
X160402000Y-146558000D03*
D17*
G04 #@! TO.P,D28,2*
G04 #@! TO.N,Net-(D28-Pad2)*
X163942000Y-146558000D03*
G04 #@! TD*
D16*
G04 #@! TO.N,GND*
G04 #@! TO.C,D29*
G36*
X152063261Y-145311010D02*
X152123931Y-145320009D01*
X152183428Y-145334912D01*
X152241177Y-145355575D01*
X152296623Y-145381799D01*
X152349231Y-145413331D01*
X152398496Y-145449868D01*
X152443942Y-145491058D01*
X152485132Y-145536504D01*
X152521669Y-145585769D01*
X152553201Y-145638377D01*
X152579425Y-145693823D01*
X152600088Y-145751572D01*
X152614991Y-145811069D01*
X152623990Y-145871739D01*
X152627000Y-145933000D01*
X152627000Y-147183000D01*
X152623990Y-147244261D01*
X152614991Y-147304931D01*
X152600088Y-147364428D01*
X152579425Y-147422177D01*
X152553201Y-147477623D01*
X152521669Y-147530231D01*
X152485132Y-147579496D01*
X152443942Y-147624942D01*
X152398496Y-147666132D01*
X152349231Y-147702669D01*
X152296623Y-147734201D01*
X152241177Y-147760425D01*
X152183428Y-147781088D01*
X152123931Y-147795991D01*
X152063261Y-147804990D01*
X152002000Y-147808000D01*
X150752000Y-147808000D01*
X150690739Y-147804990D01*
X150630069Y-147795991D01*
X150570572Y-147781088D01*
X150512823Y-147760425D01*
X150457377Y-147734201D01*
X150404769Y-147702669D01*
X150355504Y-147666132D01*
X150310058Y-147624942D01*
X150268868Y-147579496D01*
X150232331Y-147530231D01*
X150200799Y-147477623D01*
X150174575Y-147422177D01*
X150153912Y-147364428D01*
X150139009Y-147304931D01*
X150130010Y-147244261D01*
X150127000Y-147183000D01*
X150127000Y-145933000D01*
X150130010Y-145871739D01*
X150139009Y-145811069D01*
X150153912Y-145751572D01*
X150174575Y-145693823D01*
X150200799Y-145638377D01*
X150232331Y-145585769D01*
X150268868Y-145536504D01*
X150310058Y-145491058D01*
X150355504Y-145449868D01*
X150404769Y-145413331D01*
X150457377Y-145381799D01*
X150512823Y-145355575D01*
X150570572Y-145334912D01*
X150630069Y-145320009D01*
X150690739Y-145311010D01*
X150752000Y-145308000D01*
X152002000Y-145308000D01*
X152063261Y-145311010D01*
X152063261Y-145311010D01*
G37*
D13*
G04 #@! TD*
G04 #@! TO.P,D29,1*
G04 #@! TO.N,GND*
X151377000Y-146558000D03*
D17*
G04 #@! TO.P,D29,2*
G04 #@! TO.N,Net-(D29-Pad2)*
X154917000Y-146558000D03*
G04 #@! TD*
D16*
G04 #@! TO.N,GND*
G04 #@! TO.C,D30*
G36*
X152063261Y-128652010D02*
X152123931Y-128661009D01*
X152183428Y-128675912D01*
X152241177Y-128696575D01*
X152296623Y-128722799D01*
X152349231Y-128754331D01*
X152398496Y-128790868D01*
X152443942Y-128832058D01*
X152485132Y-128877504D01*
X152521669Y-128926769D01*
X152553201Y-128979377D01*
X152579425Y-129034823D01*
X152600088Y-129092572D01*
X152614991Y-129152069D01*
X152623990Y-129212739D01*
X152627000Y-129274000D01*
X152627000Y-130524000D01*
X152623990Y-130585261D01*
X152614991Y-130645931D01*
X152600088Y-130705428D01*
X152579425Y-130763177D01*
X152553201Y-130818623D01*
X152521669Y-130871231D01*
X152485132Y-130920496D01*
X152443942Y-130965942D01*
X152398496Y-131007132D01*
X152349231Y-131043669D01*
X152296623Y-131075201D01*
X152241177Y-131101425D01*
X152183428Y-131122088D01*
X152123931Y-131136991D01*
X152063261Y-131145990D01*
X152002000Y-131149000D01*
X150752000Y-131149000D01*
X150690739Y-131145990D01*
X150630069Y-131136991D01*
X150570572Y-131122088D01*
X150512823Y-131101425D01*
X150457377Y-131075201D01*
X150404769Y-131043669D01*
X150355504Y-131007132D01*
X150310058Y-130965942D01*
X150268868Y-130920496D01*
X150232331Y-130871231D01*
X150200799Y-130818623D01*
X150174575Y-130763177D01*
X150153912Y-130705428D01*
X150139009Y-130645931D01*
X150130010Y-130585261D01*
X150127000Y-130524000D01*
X150127000Y-129274000D01*
X150130010Y-129212739D01*
X150139009Y-129152069D01*
X150153912Y-129092572D01*
X150174575Y-129034823D01*
X150200799Y-128979377D01*
X150232331Y-128926769D01*
X150268868Y-128877504D01*
X150310058Y-128832058D01*
X150355504Y-128790868D01*
X150404769Y-128754331D01*
X150457377Y-128722799D01*
X150512823Y-128696575D01*
X150570572Y-128675912D01*
X150630069Y-128661009D01*
X150690739Y-128652010D01*
X150752000Y-128649000D01*
X152002000Y-128649000D01*
X152063261Y-128652010D01*
X152063261Y-128652010D01*
G37*
D13*
G04 #@! TD*
G04 #@! TO.P,D30,1*
G04 #@! TO.N,GND*
X151377000Y-129899000D03*
D17*
G04 #@! TO.P,D30,2*
G04 #@! TO.N,Net-(D30-Pad2)*
X154917000Y-129899000D03*
G04 #@! TD*
G04 #@! TO.P,D31,2*
G04 #@! TO.N,Net-(D31-Pad2)*
X164774000Y-129921000D03*
D16*
G04 #@! TD*
G04 #@! TO.N,GND*
G04 #@! TO.C,D31*
G36*
X161920261Y-128674010D02*
X161980931Y-128683009D01*
X162040428Y-128697912D01*
X162098177Y-128718575D01*
X162153623Y-128744799D01*
X162206231Y-128776331D01*
X162255496Y-128812868D01*
X162300942Y-128854058D01*
X162342132Y-128899504D01*
X162378669Y-128948769D01*
X162410201Y-129001377D01*
X162436425Y-129056823D01*
X162457088Y-129114572D01*
X162471991Y-129174069D01*
X162480990Y-129234739D01*
X162484000Y-129296000D01*
X162484000Y-130546000D01*
X162480990Y-130607261D01*
X162471991Y-130667931D01*
X162457088Y-130727428D01*
X162436425Y-130785177D01*
X162410201Y-130840623D01*
X162378669Y-130893231D01*
X162342132Y-130942496D01*
X162300942Y-130987942D01*
X162255496Y-131029132D01*
X162206231Y-131065669D01*
X162153623Y-131097201D01*
X162098177Y-131123425D01*
X162040428Y-131144088D01*
X161980931Y-131158991D01*
X161920261Y-131167990D01*
X161859000Y-131171000D01*
X160609000Y-131171000D01*
X160547739Y-131167990D01*
X160487069Y-131158991D01*
X160427572Y-131144088D01*
X160369823Y-131123425D01*
X160314377Y-131097201D01*
X160261769Y-131065669D01*
X160212504Y-131029132D01*
X160167058Y-130987942D01*
X160125868Y-130942496D01*
X160089331Y-130893231D01*
X160057799Y-130840623D01*
X160031575Y-130785177D01*
X160010912Y-130727428D01*
X159996009Y-130667931D01*
X159987010Y-130607261D01*
X159984000Y-130546000D01*
X159984000Y-129296000D01*
X159987010Y-129234739D01*
X159996009Y-129174069D01*
X160010912Y-129114572D01*
X160031575Y-129056823D01*
X160057799Y-129001377D01*
X160089331Y-128948769D01*
X160125868Y-128899504D01*
X160167058Y-128854058D01*
X160212504Y-128812868D01*
X160261769Y-128776331D01*
X160314377Y-128744799D01*
X160369823Y-128718575D01*
X160427572Y-128697912D01*
X160487069Y-128683009D01*
X160547739Y-128674010D01*
X160609000Y-128671000D01*
X161859000Y-128671000D01*
X161920261Y-128674010D01*
X161920261Y-128674010D01*
G37*
D13*
G04 #@! TO.P,D31,1*
G04 #@! TO.N,GND*
X161234000Y-129921000D03*
G04 #@! TD*
D16*
G04 #@! TO.N,GND*
G04 #@! TO.C,D32*
G36*
X161920261Y-119452010D02*
X161980931Y-119461009D01*
X162040428Y-119475912D01*
X162098177Y-119496575D01*
X162153623Y-119522799D01*
X162206231Y-119554331D01*
X162255496Y-119590868D01*
X162300942Y-119632058D01*
X162342132Y-119677504D01*
X162378669Y-119726769D01*
X162410201Y-119779377D01*
X162436425Y-119834823D01*
X162457088Y-119892572D01*
X162471991Y-119952069D01*
X162480990Y-120012739D01*
X162484000Y-120074000D01*
X162484000Y-121324000D01*
X162480990Y-121385261D01*
X162471991Y-121445931D01*
X162457088Y-121505428D01*
X162436425Y-121563177D01*
X162410201Y-121618623D01*
X162378669Y-121671231D01*
X162342132Y-121720496D01*
X162300942Y-121765942D01*
X162255496Y-121807132D01*
X162206231Y-121843669D01*
X162153623Y-121875201D01*
X162098177Y-121901425D01*
X162040428Y-121922088D01*
X161980931Y-121936991D01*
X161920261Y-121945990D01*
X161859000Y-121949000D01*
X160609000Y-121949000D01*
X160547739Y-121945990D01*
X160487069Y-121936991D01*
X160427572Y-121922088D01*
X160369823Y-121901425D01*
X160314377Y-121875201D01*
X160261769Y-121843669D01*
X160212504Y-121807132D01*
X160167058Y-121765942D01*
X160125868Y-121720496D01*
X160089331Y-121671231D01*
X160057799Y-121618623D01*
X160031575Y-121563177D01*
X160010912Y-121505428D01*
X159996009Y-121445931D01*
X159987010Y-121385261D01*
X159984000Y-121324000D01*
X159984000Y-120074000D01*
X159987010Y-120012739D01*
X159996009Y-119952069D01*
X160010912Y-119892572D01*
X160031575Y-119834823D01*
X160057799Y-119779377D01*
X160089331Y-119726769D01*
X160125868Y-119677504D01*
X160167058Y-119632058D01*
X160212504Y-119590868D01*
X160261769Y-119554331D01*
X160314377Y-119522799D01*
X160369823Y-119496575D01*
X160427572Y-119475912D01*
X160487069Y-119461009D01*
X160547739Y-119452010D01*
X160609000Y-119449000D01*
X161859000Y-119449000D01*
X161920261Y-119452010D01*
X161920261Y-119452010D01*
G37*
D13*
G04 #@! TD*
G04 #@! TO.P,D32,1*
G04 #@! TO.N,GND*
X161234000Y-120699000D03*
D17*
G04 #@! TO.P,D32,2*
G04 #@! TO.N,Net-(D32-Pad2)*
X164774000Y-120699000D03*
G04 #@! TD*
G04 #@! TO.P,D33,2*
G04 #@! TO.N,Net-(D33-Pad2)*
X164774000Y-92237800D03*
D16*
G04 #@! TD*
G04 #@! TO.N,GND*
G04 #@! TO.C,D33*
G36*
X161920261Y-90990810D02*
X161980931Y-90999809D01*
X162040428Y-91014712D01*
X162098177Y-91035375D01*
X162153623Y-91061599D01*
X162206231Y-91093131D01*
X162255496Y-91129668D01*
X162300942Y-91170858D01*
X162342132Y-91216304D01*
X162378669Y-91265569D01*
X162410201Y-91318177D01*
X162436425Y-91373623D01*
X162457088Y-91431372D01*
X162471991Y-91490869D01*
X162480990Y-91551539D01*
X162484000Y-91612800D01*
X162484000Y-92862800D01*
X162480990Y-92924061D01*
X162471991Y-92984731D01*
X162457088Y-93044228D01*
X162436425Y-93101977D01*
X162410201Y-93157423D01*
X162378669Y-93210031D01*
X162342132Y-93259296D01*
X162300942Y-93304742D01*
X162255496Y-93345932D01*
X162206231Y-93382469D01*
X162153623Y-93414001D01*
X162098177Y-93440225D01*
X162040428Y-93460888D01*
X161980931Y-93475791D01*
X161920261Y-93484790D01*
X161859000Y-93487800D01*
X160609000Y-93487800D01*
X160547739Y-93484790D01*
X160487069Y-93475791D01*
X160427572Y-93460888D01*
X160369823Y-93440225D01*
X160314377Y-93414001D01*
X160261769Y-93382469D01*
X160212504Y-93345932D01*
X160167058Y-93304742D01*
X160125868Y-93259296D01*
X160089331Y-93210031D01*
X160057799Y-93157423D01*
X160031575Y-93101977D01*
X160010912Y-93044228D01*
X159996009Y-92984731D01*
X159987010Y-92924061D01*
X159984000Y-92862800D01*
X159984000Y-91612800D01*
X159987010Y-91551539D01*
X159996009Y-91490869D01*
X160010912Y-91431372D01*
X160031575Y-91373623D01*
X160057799Y-91318177D01*
X160089331Y-91265569D01*
X160125868Y-91216304D01*
X160167058Y-91170858D01*
X160212504Y-91129668D01*
X160261769Y-91093131D01*
X160314377Y-91061599D01*
X160369823Y-91035375D01*
X160427572Y-91014712D01*
X160487069Y-90999809D01*
X160547739Y-90990810D01*
X160609000Y-90987800D01*
X161859000Y-90987800D01*
X161920261Y-90990810D01*
X161920261Y-90990810D01*
G37*
D13*
G04 #@! TO.P,D33,1*
G04 #@! TO.N,GND*
X161234000Y-92237800D03*
G04 #@! TD*
D16*
G04 #@! TO.N,GND*
G04 #@! TO.C,D34*
G36*
X161920261Y-81790810D02*
X161980931Y-81799809D01*
X162040428Y-81814712D01*
X162098177Y-81835375D01*
X162153623Y-81861599D01*
X162206231Y-81893131D01*
X162255496Y-81929668D01*
X162300942Y-81970858D01*
X162342132Y-82016304D01*
X162378669Y-82065569D01*
X162410201Y-82118177D01*
X162436425Y-82173623D01*
X162457088Y-82231372D01*
X162471991Y-82290869D01*
X162480990Y-82351539D01*
X162484000Y-82412800D01*
X162484000Y-83662800D01*
X162480990Y-83724061D01*
X162471991Y-83784731D01*
X162457088Y-83844228D01*
X162436425Y-83901977D01*
X162410201Y-83957423D01*
X162378669Y-84010031D01*
X162342132Y-84059296D01*
X162300942Y-84104742D01*
X162255496Y-84145932D01*
X162206231Y-84182469D01*
X162153623Y-84214001D01*
X162098177Y-84240225D01*
X162040428Y-84260888D01*
X161980931Y-84275791D01*
X161920261Y-84284790D01*
X161859000Y-84287800D01*
X160609000Y-84287800D01*
X160547739Y-84284790D01*
X160487069Y-84275791D01*
X160427572Y-84260888D01*
X160369823Y-84240225D01*
X160314377Y-84214001D01*
X160261769Y-84182469D01*
X160212504Y-84145932D01*
X160167058Y-84104742D01*
X160125868Y-84059296D01*
X160089331Y-84010031D01*
X160057799Y-83957423D01*
X160031575Y-83901977D01*
X160010912Y-83844228D01*
X159996009Y-83784731D01*
X159987010Y-83724061D01*
X159984000Y-83662800D01*
X159984000Y-82412800D01*
X159987010Y-82351539D01*
X159996009Y-82290869D01*
X160010912Y-82231372D01*
X160031575Y-82173623D01*
X160057799Y-82118177D01*
X160089331Y-82065569D01*
X160125868Y-82016304D01*
X160167058Y-81970858D01*
X160212504Y-81929668D01*
X160261769Y-81893131D01*
X160314377Y-81861599D01*
X160369823Y-81835375D01*
X160427572Y-81814712D01*
X160487069Y-81799809D01*
X160547739Y-81790810D01*
X160609000Y-81787800D01*
X161859000Y-81787800D01*
X161920261Y-81790810D01*
X161920261Y-81790810D01*
G37*
D13*
G04 #@! TD*
G04 #@! TO.P,D34,1*
G04 #@! TO.N,GND*
X161234000Y-83037800D03*
D17*
G04 #@! TO.P,D34,2*
G04 #@! TO.N,Net-(D34-Pad2)*
X164774000Y-83037800D03*
G04 #@! TD*
G04 #@! TO.P,D35,2*
G04 #@! TO.N,Net-(D35-Pad2)*
X164774000Y-73837800D03*
D16*
G04 #@! TD*
G04 #@! TO.N,GND*
G04 #@! TO.C,D35*
G36*
X161920261Y-72590810D02*
X161980931Y-72599809D01*
X162040428Y-72614712D01*
X162098177Y-72635375D01*
X162153623Y-72661599D01*
X162206231Y-72693131D01*
X162255496Y-72729668D01*
X162300942Y-72770858D01*
X162342132Y-72816304D01*
X162378669Y-72865569D01*
X162410201Y-72918177D01*
X162436425Y-72973623D01*
X162457088Y-73031372D01*
X162471991Y-73090869D01*
X162480990Y-73151539D01*
X162484000Y-73212800D01*
X162484000Y-74462800D01*
X162480990Y-74524061D01*
X162471991Y-74584731D01*
X162457088Y-74644228D01*
X162436425Y-74701977D01*
X162410201Y-74757423D01*
X162378669Y-74810031D01*
X162342132Y-74859296D01*
X162300942Y-74904742D01*
X162255496Y-74945932D01*
X162206231Y-74982469D01*
X162153623Y-75014001D01*
X162098177Y-75040225D01*
X162040428Y-75060888D01*
X161980931Y-75075791D01*
X161920261Y-75084790D01*
X161859000Y-75087800D01*
X160609000Y-75087800D01*
X160547739Y-75084790D01*
X160487069Y-75075791D01*
X160427572Y-75060888D01*
X160369823Y-75040225D01*
X160314377Y-75014001D01*
X160261769Y-74982469D01*
X160212504Y-74945932D01*
X160167058Y-74904742D01*
X160125868Y-74859296D01*
X160089331Y-74810031D01*
X160057799Y-74757423D01*
X160031575Y-74701977D01*
X160010912Y-74644228D01*
X159996009Y-74584731D01*
X159987010Y-74524061D01*
X159984000Y-74462800D01*
X159984000Y-73212800D01*
X159987010Y-73151539D01*
X159996009Y-73090869D01*
X160010912Y-73031372D01*
X160031575Y-72973623D01*
X160057799Y-72918177D01*
X160089331Y-72865569D01*
X160125868Y-72816304D01*
X160167058Y-72770858D01*
X160212504Y-72729668D01*
X160261769Y-72693131D01*
X160314377Y-72661599D01*
X160369823Y-72635375D01*
X160427572Y-72614712D01*
X160487069Y-72599809D01*
X160547739Y-72590810D01*
X160609000Y-72587800D01*
X161859000Y-72587800D01*
X161920261Y-72590810D01*
X161920261Y-72590810D01*
G37*
D13*
G04 #@! TO.P,D35,1*
G04 #@! TO.N,GND*
X161234000Y-73837800D03*
G04 #@! TD*
D16*
G04 #@! TO.N,GND*
G04 #@! TO.C,D36*
G36*
X154682261Y-72603510D02*
X154742931Y-72612509D01*
X154802428Y-72627412D01*
X154860177Y-72648075D01*
X154915623Y-72674299D01*
X154968231Y-72705831D01*
X155017496Y-72742368D01*
X155062942Y-72783558D01*
X155104132Y-72829004D01*
X155140669Y-72878269D01*
X155172201Y-72930877D01*
X155198425Y-72986323D01*
X155219088Y-73044072D01*
X155233991Y-73103569D01*
X155242990Y-73164239D01*
X155246000Y-73225500D01*
X155246000Y-74475500D01*
X155242990Y-74536761D01*
X155233991Y-74597431D01*
X155219088Y-74656928D01*
X155198425Y-74714677D01*
X155172201Y-74770123D01*
X155140669Y-74822731D01*
X155104132Y-74871996D01*
X155062942Y-74917442D01*
X155017496Y-74958632D01*
X154968231Y-74995169D01*
X154915623Y-75026701D01*
X154860177Y-75052925D01*
X154802428Y-75073588D01*
X154742931Y-75088491D01*
X154682261Y-75097490D01*
X154621000Y-75100500D01*
X153371000Y-75100500D01*
X153309739Y-75097490D01*
X153249069Y-75088491D01*
X153189572Y-75073588D01*
X153131823Y-75052925D01*
X153076377Y-75026701D01*
X153023769Y-74995169D01*
X152974504Y-74958632D01*
X152929058Y-74917442D01*
X152887868Y-74871996D01*
X152851331Y-74822731D01*
X152819799Y-74770123D01*
X152793575Y-74714677D01*
X152772912Y-74656928D01*
X152758009Y-74597431D01*
X152749010Y-74536761D01*
X152746000Y-74475500D01*
X152746000Y-73225500D01*
X152749010Y-73164239D01*
X152758009Y-73103569D01*
X152772912Y-73044072D01*
X152793575Y-72986323D01*
X152819799Y-72930877D01*
X152851331Y-72878269D01*
X152887868Y-72829004D01*
X152929058Y-72783558D01*
X152974504Y-72742368D01*
X153023769Y-72705831D01*
X153076377Y-72674299D01*
X153131823Y-72648075D01*
X153189572Y-72627412D01*
X153249069Y-72612509D01*
X153309739Y-72603510D01*
X153371000Y-72600500D01*
X154621000Y-72600500D01*
X154682261Y-72603510D01*
X154682261Y-72603510D01*
G37*
D13*
G04 #@! TD*
G04 #@! TO.P,D36,1*
G04 #@! TO.N,GND*
X153996000Y-73850500D03*
D17*
G04 #@! TO.P,D36,2*
G04 #@! TO.N,Net-(D36-Pad2)*
X157536000Y-73850500D03*
G04 #@! TD*
G04 #@! TO.P,D37,2*
G04 #@! TO.N,Net-(D37-Pad2)*
X150296000Y-73850500D03*
D16*
G04 #@! TD*
G04 #@! TO.N,GND*
G04 #@! TO.C,D37*
G36*
X147442261Y-72603510D02*
X147502931Y-72612509D01*
X147562428Y-72627412D01*
X147620177Y-72648075D01*
X147675623Y-72674299D01*
X147728231Y-72705831D01*
X147777496Y-72742368D01*
X147822942Y-72783558D01*
X147864132Y-72829004D01*
X147900669Y-72878269D01*
X147932201Y-72930877D01*
X147958425Y-72986323D01*
X147979088Y-73044072D01*
X147993991Y-73103569D01*
X148002990Y-73164239D01*
X148006000Y-73225500D01*
X148006000Y-74475500D01*
X148002990Y-74536761D01*
X147993991Y-74597431D01*
X147979088Y-74656928D01*
X147958425Y-74714677D01*
X147932201Y-74770123D01*
X147900669Y-74822731D01*
X147864132Y-74871996D01*
X147822942Y-74917442D01*
X147777496Y-74958632D01*
X147728231Y-74995169D01*
X147675623Y-75026701D01*
X147620177Y-75052925D01*
X147562428Y-75073588D01*
X147502931Y-75088491D01*
X147442261Y-75097490D01*
X147381000Y-75100500D01*
X146131000Y-75100500D01*
X146069739Y-75097490D01*
X146009069Y-75088491D01*
X145949572Y-75073588D01*
X145891823Y-75052925D01*
X145836377Y-75026701D01*
X145783769Y-74995169D01*
X145734504Y-74958632D01*
X145689058Y-74917442D01*
X145647868Y-74871996D01*
X145611331Y-74822731D01*
X145579799Y-74770123D01*
X145553575Y-74714677D01*
X145532912Y-74656928D01*
X145518009Y-74597431D01*
X145509010Y-74536761D01*
X145506000Y-74475500D01*
X145506000Y-73225500D01*
X145509010Y-73164239D01*
X145518009Y-73103569D01*
X145532912Y-73044072D01*
X145553575Y-72986323D01*
X145579799Y-72930877D01*
X145611331Y-72878269D01*
X145647868Y-72829004D01*
X145689058Y-72783558D01*
X145734504Y-72742368D01*
X145783769Y-72705831D01*
X145836377Y-72674299D01*
X145891823Y-72648075D01*
X145949572Y-72627412D01*
X146009069Y-72612509D01*
X146069739Y-72603510D01*
X146131000Y-72600500D01*
X147381000Y-72600500D01*
X147442261Y-72603510D01*
X147442261Y-72603510D01*
G37*
D13*
G04 #@! TO.P,D37,1*
G04 #@! TO.N,GND*
X146756000Y-73850500D03*
G04 #@! TD*
D16*
G04 #@! TO.N,GND*
G04 #@! TO.C,D38*
G36*
X147442261Y-83970010D02*
X147502931Y-83979009D01*
X147562428Y-83993912D01*
X147620177Y-84014575D01*
X147675623Y-84040799D01*
X147728231Y-84072331D01*
X147777496Y-84108868D01*
X147822942Y-84150058D01*
X147864132Y-84195504D01*
X147900669Y-84244769D01*
X147932201Y-84297377D01*
X147958425Y-84352823D01*
X147979088Y-84410572D01*
X147993991Y-84470069D01*
X148002990Y-84530739D01*
X148006000Y-84592000D01*
X148006000Y-85842000D01*
X148002990Y-85903261D01*
X147993991Y-85963931D01*
X147979088Y-86023428D01*
X147958425Y-86081177D01*
X147932201Y-86136623D01*
X147900669Y-86189231D01*
X147864132Y-86238496D01*
X147822942Y-86283942D01*
X147777496Y-86325132D01*
X147728231Y-86361669D01*
X147675623Y-86393201D01*
X147620177Y-86419425D01*
X147562428Y-86440088D01*
X147502931Y-86454991D01*
X147442261Y-86463990D01*
X147381000Y-86467000D01*
X146131000Y-86467000D01*
X146069739Y-86463990D01*
X146009069Y-86454991D01*
X145949572Y-86440088D01*
X145891823Y-86419425D01*
X145836377Y-86393201D01*
X145783769Y-86361669D01*
X145734504Y-86325132D01*
X145689058Y-86283942D01*
X145647868Y-86238496D01*
X145611331Y-86189231D01*
X145579799Y-86136623D01*
X145553575Y-86081177D01*
X145532912Y-86023428D01*
X145518009Y-85963931D01*
X145509010Y-85903261D01*
X145506000Y-85842000D01*
X145506000Y-84592000D01*
X145509010Y-84530739D01*
X145518009Y-84470069D01*
X145532912Y-84410572D01*
X145553575Y-84352823D01*
X145579799Y-84297377D01*
X145611331Y-84244769D01*
X145647868Y-84195504D01*
X145689058Y-84150058D01*
X145734504Y-84108868D01*
X145783769Y-84072331D01*
X145836377Y-84040799D01*
X145891823Y-84014575D01*
X145949572Y-83993912D01*
X146009069Y-83979009D01*
X146069739Y-83970010D01*
X146131000Y-83967000D01*
X147381000Y-83967000D01*
X147442261Y-83970010D01*
X147442261Y-83970010D01*
G37*
D13*
G04 #@! TD*
G04 #@! TO.P,D38,1*
G04 #@! TO.N,GND*
X146756000Y-85217000D03*
D17*
G04 #@! TO.P,D38,2*
G04 #@! TO.N,Net-(D38-Pad2)*
X150296000Y-85217000D03*
G04 #@! TD*
D15*
G04 #@! TO.P,POWER1,4*
G04 #@! TO.N,Net-(Battery1-Pad2)*
X188250000Y-138540000D03*
G04 #@! TO.P,POWER1,3*
X185710000Y-138540000D03*
G04 #@! TO.P,POWER1,2*
X183170000Y-138540000D03*
D14*
G04 #@! TO.P,POWER1,1*
G04 #@! TO.N,Master_Reset*
X180630000Y-138540000D03*
G04 #@! TD*
D18*
G04 #@! TO.P,Shift1,1*
G04 #@! TO.N,Net-(D2-Pad2)*
X136700000Y-66305000D03*
G04 #@! TO.P,Shift1,2*
G04 #@! TO.N,Net-(D3-Pad2)*
X136700000Y-67575000D03*
G04 #@! TO.P,Shift1,3*
G04 #@! TO.N,Net-(D4-Pad2)*
X136700000Y-68845000D03*
G04 #@! TO.P,Shift1,4*
G04 #@! TO.N,Net-(D5-Pad2)*
X136700000Y-70115000D03*
G04 #@! TO.P,Shift1,5*
G04 #@! TO.N,Net-(D6-Pad2)*
X136700000Y-71385000D03*
G04 #@! TO.P,Shift1,6*
G04 #@! TO.N,Net-(D7-Pad2)*
X136700000Y-72655000D03*
G04 #@! TO.P,Shift1,7*
G04 #@! TO.N,Net-(D8-Pad2)*
X136700000Y-73925000D03*
G04 #@! TO.P,Shift1,8*
G04 #@! TO.N,GND*
X136700000Y-75195000D03*
G04 #@! TO.P,Shift1,9*
G04 #@! TO.N,Net-(Shift1-Pad9)*
X143800000Y-75195000D03*
G04 #@! TO.P,Shift1,10*
G04 #@! TO.N,Master_Reset*
X143800000Y-73925000D03*
G04 #@! TO.P,Shift1,11*
G04 #@! TO.N,Serial_Clock*
X143800000Y-72655000D03*
G04 #@! TO.P,Shift1,12*
G04 #@! TO.N,Reg_Clock*
X143800000Y-71385000D03*
G04 #@! TO.P,Shift1,13*
G04 #@! TO.N,Output_Enable*
X143800000Y-70115000D03*
G04 #@! TO.P,Shift1,14*
G04 #@! TO.N,Serial_Data*
X143800000Y-68845000D03*
G04 #@! TO.P,Shift1,15*
G04 #@! TO.N,Net-(D1-Pad2)*
X143800000Y-67575000D03*
G04 #@! TO.P,Shift1,16*
G04 #@! TO.N,Master_Reset*
X143800000Y-66305000D03*
G04 #@! TD*
G04 #@! TO.P,Shift2,1*
G04 #@! TO.N,Net-(D10-Pad2)*
X198700000Y-66055000D03*
G04 #@! TO.P,Shift2,2*
G04 #@! TO.N,Net-(D11-Pad2)*
X198700000Y-67325000D03*
G04 #@! TO.P,Shift2,3*
G04 #@! TO.N,Net-(D12-Pad2)*
X198700000Y-68595000D03*
G04 #@! TO.P,Shift2,4*
G04 #@! TO.N,Net-(D13-Pad2)*
X198700000Y-69865000D03*
G04 #@! TO.P,Shift2,5*
G04 #@! TO.N,Net-(D14-Pad2)*
X198700000Y-71135000D03*
G04 #@! TO.P,Shift2,6*
G04 #@! TO.N,Net-(D15-Pad2)*
X198700000Y-72405000D03*
G04 #@! TO.P,Shift2,7*
G04 #@! TO.N,Net-(D16-Pad2)*
X198700000Y-73675000D03*
G04 #@! TO.P,Shift2,8*
G04 #@! TO.N,GND*
X198700000Y-74945000D03*
G04 #@! TO.P,Shift2,9*
G04 #@! TO.N,Net-(Shift2-Pad9)*
X205800000Y-74945000D03*
G04 #@! TO.P,Shift2,10*
G04 #@! TO.N,Master_Reset*
X205800000Y-73675000D03*
G04 #@! TO.P,Shift2,11*
G04 #@! TO.N,Serial_Clock*
X205800000Y-72405000D03*
G04 #@! TO.P,Shift2,12*
G04 #@! TO.N,Reg_Clock*
X205800000Y-71135000D03*
G04 #@! TO.P,Shift2,13*
G04 #@! TO.N,Output_Enable*
X205800000Y-69865000D03*
G04 #@! TO.P,Shift2,14*
G04 #@! TO.N,Net-(Shift1-Pad9)*
X205800000Y-68595000D03*
G04 #@! TO.P,Shift2,15*
G04 #@! TO.N,Net-(D9-Pad2)*
X205800000Y-67325000D03*
G04 #@! TO.P,Shift2,16*
G04 #@! TO.N,Master_Reset*
X205800000Y-66055000D03*
G04 #@! TD*
G04 #@! TO.P,Shift3,16*
G04 #@! TO.N,Master_Reset*
X205550000Y-78055000D03*
G04 #@! TO.P,Shift3,15*
G04 #@! TO.N,Net-(D17-Pad2)*
X205550000Y-79325000D03*
G04 #@! TO.P,Shift3,14*
G04 #@! TO.N,Net-(Shift2-Pad9)*
X205550000Y-80595000D03*
G04 #@! TO.P,Shift3,13*
G04 #@! TO.N,Output_Enable*
X205550000Y-81865000D03*
G04 #@! TO.P,Shift3,12*
G04 #@! TO.N,Reg_Clock*
X205550000Y-83135000D03*
G04 #@! TO.P,Shift3,11*
G04 #@! TO.N,Serial_Clock*
X205550000Y-84405000D03*
G04 #@! TO.P,Shift3,10*
G04 #@! TO.N,Master_Reset*
X205550000Y-85675000D03*
G04 #@! TO.P,Shift3,9*
G04 #@! TO.N,Net-(Shift3-Pad9)*
X205550000Y-86945000D03*
G04 #@! TO.P,Shift3,8*
G04 #@! TO.N,GND*
X198450000Y-86945000D03*
G04 #@! TO.P,Shift3,7*
G04 #@! TO.N,Net-(D24-Pad2)*
X198450000Y-85675000D03*
G04 #@! TO.P,Shift3,6*
G04 #@! TO.N,Net-(D23-Pad2)*
X198450000Y-84405000D03*
G04 #@! TO.P,Shift3,5*
G04 #@! TO.N,Net-(D22-Pad2)*
X198450000Y-83135000D03*
G04 #@! TO.P,Shift3,4*
G04 #@! TO.N,Net-(D21-Pad2)*
X198450000Y-81865000D03*
G04 #@! TO.P,Shift3,3*
G04 #@! TO.N,Net-(D20-Pad2)*
X198450000Y-80595000D03*
G04 #@! TO.P,Shift3,2*
G04 #@! TO.N,Net-(D19-Pad2)*
X198450000Y-79325000D03*
G04 #@! TO.P,Shift3,1*
G04 #@! TO.N,Net-(D18-Pad2)*
X198450000Y-78055000D03*
G04 #@! TD*
G04 #@! TO.P,Shift4,16*
G04 #@! TO.N,Master_Reset*
X174800000Y-121555000D03*
G04 #@! TO.P,Shift4,15*
G04 #@! TO.N,Net-(D25-Pad2)*
X174800000Y-122825000D03*
G04 #@! TO.P,Shift4,14*
G04 #@! TO.N,Net-(Shift3-Pad9)*
X174800000Y-124095000D03*
G04 #@! TO.P,Shift4,13*
G04 #@! TO.N,Output_Enable*
X174800000Y-125365000D03*
G04 #@! TO.P,Shift4,12*
G04 #@! TO.N,Reg_Clock*
X174800000Y-126635000D03*
G04 #@! TO.P,Shift4,11*
G04 #@! TO.N,Serial_Clock*
X174800000Y-127905000D03*
G04 #@! TO.P,Shift4,10*
G04 #@! TO.N,Master_Reset*
X174800000Y-129175000D03*
G04 #@! TO.P,Shift4,9*
G04 #@! TO.N,Net-(Shift4-Pad9)*
X174800000Y-130445000D03*
G04 #@! TO.P,Shift4,8*
G04 #@! TO.N,GND*
X167700000Y-130445000D03*
G04 #@! TO.P,Shift4,7*
G04 #@! TO.N,Net-(D32-Pad2)*
X167700000Y-129175000D03*
G04 #@! TO.P,Shift4,6*
G04 #@! TO.N,Net-(D31-Pad2)*
X167700000Y-127905000D03*
G04 #@! TO.P,Shift4,5*
G04 #@! TO.N,Net-(D30-Pad2)*
X167700000Y-126635000D03*
G04 #@! TO.P,Shift4,4*
G04 #@! TO.N,Net-(D29-Pad2)*
X167700000Y-125365000D03*
G04 #@! TO.P,Shift4,3*
G04 #@! TO.N,Net-(D28-Pad2)*
X167700000Y-124095000D03*
G04 #@! TO.P,Shift4,2*
G04 #@! TO.N,Net-(D27-Pad2)*
X167700000Y-122825000D03*
G04 #@! TO.P,Shift4,1*
G04 #@! TO.N,Net-(D26-Pad2)*
X167700000Y-121555000D03*
G04 #@! TD*
G04 #@! TO.P,Shift5,16*
G04 #@! TO.N,Master_Reset*
X143800000Y-78055000D03*
G04 #@! TO.P,Shift5,15*
G04 #@! TO.N,Net-(D33-Pad2)*
X143800000Y-79325000D03*
G04 #@! TO.P,Shift5,14*
G04 #@! TO.N,Net-(Shift4-Pad9)*
X143800000Y-80595000D03*
G04 #@! TO.P,Shift5,13*
G04 #@! TO.N,Output_Enable*
X143800000Y-81865000D03*
G04 #@! TO.P,Shift5,12*
G04 #@! TO.N,Reg_Clock*
X143800000Y-83135000D03*
G04 #@! TO.P,Shift5,11*
G04 #@! TO.N,Serial_Clock*
X143800000Y-84405000D03*
G04 #@! TO.P,Shift5,10*
G04 #@! TO.N,Master_Reset*
X143800000Y-85675000D03*
G04 #@! TO.P,Shift5,9*
G04 #@! TO.N,N/C*
X143800000Y-86945000D03*
G04 #@! TO.P,Shift5,8*
G04 #@! TO.N,GND*
X136700000Y-86945000D03*
G04 #@! TO.P,Shift5,7*
G04 #@! TO.N,N/C*
X136700000Y-85675000D03*
G04 #@! TO.P,Shift5,6*
X136700000Y-84405000D03*
G04 #@! TO.P,Shift5,5*
G04 #@! TO.N,Net-(D38-Pad2)*
X136700000Y-83135000D03*
G04 #@! TO.P,Shift5,4*
G04 #@! TO.N,Net-(D37-Pad2)*
X136700000Y-81865000D03*
G04 #@! TO.P,Shift5,3*
G04 #@! TO.N,Net-(D36-Pad2)*
X136700000Y-80595000D03*
G04 #@! TO.P,Shift5,2*
G04 #@! TO.N,Net-(D35-Pad2)*
X136700000Y-79325000D03*
G04 #@! TO.P,Shift5,1*
G04 #@! TO.N,Net-(D34-Pad2)*
X136700000Y-78055000D03*
G04 #@! TD*
D19*
G04 #@! TO.N,Net-(D7-Pad2)*
X138001300Y-72191100D03*
G04 #@! TO.N,Net-(D8-Pad2)*
X138284500Y-73147200D03*
G04 #@! TO.N,Net-(D9-Pad2)*
X203670000Y-66954300D03*
G04 #@! TO.N,Net-(D13-Pad2)*
X207055100Y-70109700D03*
X200600000Y-69890300D03*
G04 #@! TO.N,Net-(D14-Pad2)*
X203961600Y-75535200D03*
G04 #@! TO.N,Net-(D15-Pad2)*
X203588700Y-76403800D03*
G04 #@! TO.N,Net-(D16-Pad2)*
X200531000Y-74521900D03*
G04 #@! TO.N,Net-(D20-Pad2)*
X195198100Y-79138800D03*
G04 #@! TO.N,Net-(D21-Pad2)*
X180409200Y-79129500D03*
G04 #@! TO.N,Net-(D22-Pad2)*
X177954400Y-116782900D03*
X175726700Y-80027800D03*
X195814900Y-80788500D03*
G04 #@! TO.N,Net-(D24-Pad2)*
X198104800Y-76974100D03*
X162878300Y-85833600D03*
X163321200Y-126072000D03*
G04 #@! TO.N,Net-(D32-Pad2)*
X164249600Y-125918700D03*
X166354700Y-128345500D03*
G04 #@! TO.N,Net-(Shift1-Pad9)*
X143922900Y-75975700D03*
X155090400Y-76038000D03*
X156532300Y-69454000D03*
X203637500Y-68341400D03*
G04 #@! TO.N,Serial_Clock*
X155588900Y-70627300D03*
X203244200Y-84738600D03*
X204366200Y-72532900D03*
X166309100Y-70626400D03*
X145041700Y-77932100D03*
X145041700Y-79989300D03*
G04 #@! TO.N,Reg_Clock*
X203316800Y-71675800D03*
X202010400Y-77799000D03*
X173265100Y-134511200D03*
X145272300Y-70832100D03*
X173461000Y-72672700D03*
G04 #@! TO.N,Output_Enable*
X142540700Y-70379300D03*
X173344100Y-124865800D03*
X176085900Y-69771900D03*
X203467700Y-69403900D03*
X203141300Y-78607300D03*
G04 #@! TO.N,Net-(Shift3-Pad9)*
X200114300Y-77898400D03*
X175693900Y-79203900D03*
G04 #@! TO.N,Net-(Shift4-Pad9)*
X174351800Y-131656500D03*
X170432100Y-133406800D03*
G04 #@! TO.N,Net-(D34-Pad2)*
X136978700Y-77077000D03*
G04 #@! TO.N,Net-(D35-Pad2)*
X140133000Y-78454400D03*
G04 #@! TO.N,Net-(D36-Pad2)*
X139392200Y-79032000D03*
G04 #@! TO.N,Net-(D37-Pad2)*
X139905800Y-75168700D03*
G04 #@! TO.N,Net-(Battery1-Pad2)*
X181104800Y-123803600D03*
G04 #@! TO.N,Serial_Data*
X169425200Y-124314700D03*
X167103200Y-104694700D03*
X156337900Y-67964400D03*
X142276200Y-68416900D03*
G04 #@! TO.N,Master_Reset*
X179018000Y-71823200D03*
X152493700Y-71112500D03*
G04 #@! TD*
D20*
G04 #@! TO.N,Net-(D1-Pad2)*
X142739700Y-67575000D02*
X142325800Y-67575000D01*
X142325800Y-67575000D02*
X139066500Y-70834300D01*
X139066500Y-70834300D02*
X139066500Y-77360500D01*
X139066500Y-77360500D02*
X137761600Y-78665400D01*
X137761600Y-78665400D02*
X135772200Y-78665400D01*
X135772200Y-78665400D02*
X133223000Y-81214600D01*
X133223000Y-81214600D02*
X133223000Y-85217000D01*
X143800000Y-67575000D02*
X142739700Y-67575000D01*
G04 #@! TO.N,Net-(D2-Pad2)*
X137760300Y-66305000D02*
X137760300Y-69285300D01*
X137760300Y-69285300D02*
X137590200Y-69455400D01*
X137590200Y-69455400D02*
X135852800Y-69455400D01*
X135852800Y-69455400D02*
X133223000Y-72085200D01*
X133223000Y-72085200D02*
X133223000Y-76117000D01*
X136700000Y-66305000D02*
X137760300Y-66305000D01*
G04 #@! TO.N,Net-(D3-Pad2)*
X136700000Y-67575000D02*
X135639700Y-67575000D01*
X133223000Y-67017000D02*
X135283300Y-67017000D01*
X135639700Y-67575000D02*
X135639700Y-67373400D01*
X135639700Y-67373400D02*
X135283300Y-67017000D01*
G04 #@! TO.N,Net-(D4-Pad2)*
X133223000Y-57917000D02*
X132162700Y-57917000D01*
X136700000Y-68845000D02*
X133433900Y-68845000D01*
X133433900Y-68845000D02*
X132162700Y-67573800D01*
X132162700Y-67573800D02*
X132162700Y-57917000D01*
G04 #@! TO.N,Net-(D5-Pad2)*
X136700000Y-70115000D02*
X137760300Y-70115000D01*
X137760300Y-70115000D02*
X143023000Y-64852300D01*
X143023000Y-64852300D02*
X143023000Y-57917000D01*
G04 #@! TO.N,Net-(D6-Pad2)*
X152823000Y-57917000D02*
X151762700Y-57917000D01*
X136700000Y-71385000D02*
X137760300Y-71385000D01*
X137760300Y-71385000D02*
X137760300Y-70851000D01*
X137760300Y-70851000D02*
X144992400Y-63618900D01*
X144992400Y-63618900D02*
X146733000Y-63618900D01*
X146733000Y-63618900D02*
X151762700Y-58589200D01*
X151762700Y-58589200D02*
X151762700Y-57917000D01*
G04 #@! TO.N,Net-(D7-Pad2)*
X136700000Y-72655000D02*
X137760300Y-72655000D01*
X137760300Y-72655000D02*
X137760300Y-72432100D01*
X137760300Y-72432100D02*
X138001300Y-72191100D01*
G04 #@! TO.N,Net-(D8-Pad2)*
X136700000Y-73925000D02*
X137760300Y-73925000D01*
X137760300Y-73925000D02*
X137760300Y-73671400D01*
X137760300Y-73671400D02*
X138284500Y-73147200D01*
G04 #@! TO.N,Net-(D9-Pad2)*
X205800000Y-67325000D02*
X204739700Y-67325000D01*
X203670000Y-66954300D02*
X204369000Y-66954300D01*
X204369000Y-66954300D02*
X204739700Y-67325000D01*
G04 #@! TO.N,Net-(D10-Pad2)*
X192023000Y-57917000D02*
X192023000Y-59227300D01*
X198700000Y-66055000D02*
X197639700Y-66055000D01*
X197639700Y-66055000D02*
X197639700Y-64844000D01*
X197639700Y-64844000D02*
X192023000Y-59227300D01*
G04 #@! TO.N,Net-(D11-Pad2)*
X201823000Y-57917000D02*
X200762700Y-57917000D01*
X198700000Y-67325000D02*
X199760300Y-67325000D01*
X199760300Y-67325000D02*
X200762700Y-66322600D01*
X200762700Y-66322600D02*
X200762700Y-57917000D01*
G04 #@! TO.N,Net-(D12-Pad2)*
X211623000Y-57917000D02*
X210562700Y-57917000D01*
X198700000Y-68595000D02*
X200556900Y-68595000D01*
X200556900Y-68595000D02*
X210562700Y-58589200D01*
X210562700Y-58589200D02*
X210562700Y-57917000D01*
G04 #@! TO.N,Net-(D13-Pad2)*
X211623000Y-67017000D02*
X210562700Y-67017000D01*
X207055100Y-70109700D02*
X208142200Y-70109700D01*
X208142200Y-70109700D02*
X210562700Y-67689200D01*
X210562700Y-67689200D02*
X210562700Y-67017000D01*
X198700000Y-69865000D02*
X200574700Y-69865000D01*
X200574700Y-69865000D02*
X200600000Y-69890300D01*
G04 #@! TO.N,Net-(D14-Pad2)*
X198700000Y-71135000D02*
X199760300Y-71135000D01*
X199760300Y-71135000D02*
X199760300Y-71333900D01*
X199760300Y-71333900D02*
X203961600Y-75535200D01*
G04 #@! TO.N,Net-(D15-Pad2)*
X198700000Y-72405000D02*
X199760300Y-72405000D01*
X199760300Y-72405000D02*
X199760300Y-72575400D01*
X199760300Y-72575400D02*
X203588700Y-76403800D01*
G04 #@! TO.N,Net-(D16-Pad2)*
X198700000Y-73675000D02*
X199760300Y-73675000D01*
X199760300Y-73675000D02*
X199760300Y-73751200D01*
X199760300Y-73751200D02*
X200531000Y-74521900D01*
G04 #@! TO.N,Net-(D17-Pad2)*
X197157300Y-73837800D02*
X197604900Y-74285400D01*
X197604900Y-74285400D02*
X199577100Y-74285400D01*
X199577100Y-74285400D02*
X199970700Y-74679000D01*
X199970700Y-74679000D02*
X199970700Y-74760600D01*
X199970700Y-74760600D02*
X200511400Y-75301300D01*
X200511400Y-75301300D02*
X200627700Y-75301300D01*
X200627700Y-75301300D02*
X204489700Y-79163300D01*
X204489700Y-79163300D02*
X204489700Y-79325000D01*
X205550000Y-79325000D02*
X204489700Y-79325000D01*
X195097000Y-73837800D02*
X197157300Y-73837800D01*
G04 #@! TO.N,Net-(D18-Pad2)*
X187909000Y-73837800D02*
X187909000Y-75148100D01*
X198450000Y-78055000D02*
X197389700Y-78055000D01*
X197389700Y-78055000D02*
X195057200Y-75722500D01*
X195057200Y-75722500D02*
X188483400Y-75722500D01*
X188483400Y-75722500D02*
X187909000Y-75148100D01*
G04 #@! TO.N,Net-(D19-Pad2)*
X180696000Y-73837800D02*
X180696000Y-75148100D01*
X198450000Y-79325000D02*
X197389700Y-79325000D01*
X197389700Y-79325000D02*
X194301000Y-76236300D01*
X194301000Y-76236300D02*
X181784200Y-76236300D01*
X181784200Y-76236300D02*
X180696000Y-75148100D01*
G04 #@! TO.N,Net-(D20-Pad2)*
X198450000Y-80595000D02*
X197389700Y-80595000D01*
X197389700Y-80595000D02*
X195933500Y-79138800D01*
X195933500Y-79138800D02*
X195198100Y-79138800D01*
G04 #@! TO.N,Net-(D21-Pad2)*
X180409200Y-79129500D02*
X180409200Y-78870400D01*
X180409200Y-78870400D02*
X182632900Y-76646700D01*
X182632900Y-76646700D02*
X191913700Y-76646700D01*
X191913700Y-76646700D02*
X194971300Y-79704300D01*
X194971300Y-79704300D02*
X195659500Y-79704300D01*
X195659500Y-79704300D02*
X197820200Y-81865000D01*
X197820200Y-81865000D02*
X198450000Y-81865000D01*
G04 #@! TO.N,Net-(D22-Pad2)*
X177954400Y-116782900D02*
X175726700Y-114555200D01*
X175726700Y-114555200D02*
X175726700Y-80027800D01*
X198450000Y-83135000D02*
X197389700Y-83135000D01*
X197389700Y-83135000D02*
X197389700Y-82363300D01*
X197389700Y-82363300D02*
X195814900Y-80788500D01*
G04 #@! TO.N,Net-(D23-Pad2)*
X180696000Y-128588700D02*
X180403200Y-128295900D01*
X180403200Y-128295900D02*
X180403200Y-123894400D01*
X180403200Y-123894400D02*
X179635600Y-123126800D01*
X179635600Y-123126800D02*
X179635600Y-80695500D01*
X179635600Y-80695500D02*
X180969500Y-79361600D01*
X180969500Y-79361600D02*
X180969500Y-78890500D01*
X180969500Y-78890500D02*
X182751100Y-77108900D01*
X182751100Y-77108900D02*
X190613200Y-77108900D01*
X190613200Y-77108900D02*
X197389700Y-83885400D01*
X197389700Y-83885400D02*
X197389700Y-84405000D01*
X180696000Y-129899000D02*
X180696000Y-128588700D01*
X198450000Y-84405000D02*
X197389700Y-84405000D01*
G04 #@! TO.N,Net-(D24-Pad2)*
X198104800Y-76974100D02*
X198890200Y-76974100D01*
X198890200Y-76974100D02*
X199510300Y-77594200D01*
X199510300Y-77594200D02*
X199510300Y-85675000D01*
X198450000Y-85675000D02*
X199510300Y-85675000D01*
X163321200Y-126072000D02*
X162796800Y-125547600D01*
X162796800Y-125547600D02*
X162796800Y-85915100D01*
X162796800Y-85915100D02*
X162878300Y-85833600D01*
G04 #@! TO.N,Net-(D25-Pad2)*
X190690000Y-146558000D02*
X189629700Y-146558000D01*
X174800000Y-122825000D02*
X175860300Y-122825000D01*
X175860300Y-122825000D02*
X179242000Y-126206700D01*
X179242000Y-126206700D02*
X179242000Y-131117600D01*
X179242000Y-131117600D02*
X184440000Y-136315600D01*
X184440000Y-136315600D02*
X184440000Y-140308000D01*
X184440000Y-140308000D02*
X189629700Y-145497700D01*
X189629700Y-145497700D02*
X189629700Y-146558000D01*
G04 #@! TO.N,Net-(D26-Pad2)*
X168760300Y-121555000D02*
X171402800Y-124197500D01*
X171402800Y-124197500D02*
X171402800Y-136381800D01*
X171402800Y-136381800D02*
X174739000Y-139718000D01*
X174739000Y-139718000D02*
X175960300Y-139718000D01*
X175960300Y-139718000D02*
X181490000Y-145247700D01*
X181490000Y-146558000D02*
X181490000Y-145247700D01*
X167700000Y-121555000D02*
X168760300Y-121555000D01*
G04 #@! TO.N,Net-(D27-Pad2)*
X171405700Y-146558000D02*
X170992400Y-146144700D01*
X170992400Y-146144700D02*
X170992400Y-124509300D01*
X170992400Y-124509300D02*
X169308100Y-122825000D01*
X169308100Y-122825000D02*
X168760300Y-122825000D01*
X172466000Y-146558000D02*
X171405700Y-146558000D01*
X167700000Y-122825000D02*
X168760300Y-122825000D01*
G04 #@! TO.N,Net-(D28-Pad2)*
X168760300Y-124095000D02*
X168760300Y-124671300D01*
X168760300Y-124671300D02*
X169186300Y-125097300D01*
X169186300Y-125097300D02*
X169186300Y-135745800D01*
X169186300Y-135745800D02*
X167850300Y-137081800D01*
X167850300Y-137081800D02*
X167241000Y-137081800D01*
X167241000Y-137081800D02*
X163442000Y-140880800D01*
X163442000Y-140880800D02*
X163442000Y-146558000D01*
X167700000Y-124095000D02*
X168760300Y-124095000D01*
G04 #@! TO.N,Net-(D29-Pad2)*
X167700000Y-125365000D02*
X168760300Y-125365000D01*
X168760300Y-125365000D02*
X168760300Y-130878200D01*
X168760300Y-130878200D02*
X167982000Y-131656500D01*
X167982000Y-131656500D02*
X167058200Y-131656500D01*
X167058200Y-131656500D02*
X162039900Y-136674800D01*
X162039900Y-136674800D02*
X162039900Y-137119900D01*
X162039900Y-137119900D02*
X154417000Y-144742800D01*
X154417000Y-144742800D02*
X154417000Y-146558000D01*
G04 #@! TO.N,Net-(D30-Pad2)*
X167700000Y-126635000D02*
X160798100Y-126635000D01*
X160798100Y-126635000D02*
X157534100Y-129899000D01*
X157534100Y-129899000D02*
X154417000Y-129899000D01*
G04 #@! TO.N,Net-(D31-Pad2)*
X167700000Y-127905000D02*
X167580200Y-127785200D01*
X167580200Y-127785200D02*
X165099500Y-127785200D01*
X165099500Y-127785200D02*
X164274000Y-128610700D01*
X164274000Y-129921000D02*
X164274000Y-128610700D01*
G04 #@! TO.N,Net-(D32-Pad2)*
X164274000Y-120699000D02*
X164274000Y-122009300D01*
X164249600Y-125918700D02*
X164249600Y-122033700D01*
X164249600Y-122033700D02*
X164274000Y-122009300D01*
X167700000Y-129175000D02*
X166639700Y-129175000D01*
X166639700Y-129175000D02*
X166639700Y-128630500D01*
X166639700Y-128630500D02*
X166354700Y-128345500D01*
G04 #@! TO.N,Net-(Shift1-Pad9)*
X155090400Y-76038000D02*
X155967500Y-75160900D01*
X155967500Y-75160900D02*
X155967500Y-71041100D01*
X155967500Y-71041100D02*
X156532300Y-70476300D01*
X156532300Y-70476300D02*
X156532300Y-69454000D01*
X143922900Y-75975700D02*
X143800000Y-75852800D01*
X143800000Y-75852800D02*
X143800000Y-75195000D01*
X205800000Y-68595000D02*
X203891100Y-68595000D01*
X203891100Y-68595000D02*
X203637500Y-68341400D01*
G04 #@! TO.N,Serial_Clock*
X145041700Y-72836400D02*
X145041700Y-77932100D01*
X144860300Y-72655000D02*
X145041700Y-72836400D01*
X145041700Y-72836400D02*
X145974000Y-71904100D01*
X145974000Y-71904100D02*
X154312100Y-71904100D01*
X154312100Y-71904100D02*
X155588900Y-70627300D01*
X166309100Y-70626400D02*
X167715700Y-72033000D01*
X167715700Y-72033000D02*
X167715700Y-119908700D01*
X167715700Y-119908700D02*
X171813200Y-124006200D01*
X171813200Y-124006200D02*
X171813200Y-133884700D01*
X171813200Y-133884700D02*
X173027500Y-135099000D01*
X173027500Y-135099000D02*
X173739700Y-135099000D01*
X205550000Y-84405000D02*
X204489700Y-84405000D01*
X203244200Y-84738600D02*
X204156100Y-84738600D01*
X204156100Y-84738600D02*
X204489700Y-84405000D01*
X173739700Y-135099000D02*
X173825400Y-135013300D01*
X173825400Y-135013300D02*
X173825400Y-134279100D01*
X173825400Y-134279100D02*
X173739700Y-134193400D01*
X173739700Y-134193400D02*
X173739700Y-128007600D01*
X173739700Y-128007600D02*
X173842300Y-127905000D01*
X205800000Y-72405000D02*
X204739700Y-72405000D01*
X204366200Y-72532900D02*
X204611800Y-72532900D01*
X204611800Y-72532900D02*
X204739700Y-72405000D01*
X173739700Y-135099000D02*
X173739700Y-136237500D01*
X173739700Y-136237500D02*
X174839900Y-137337700D01*
X174839900Y-137337700D02*
X175070000Y-137337700D01*
X143800000Y-84405000D02*
X144860300Y-84405000D01*
X144860300Y-84405000D02*
X145338900Y-83926400D01*
X145338900Y-83926400D02*
X145338900Y-80286500D01*
X145338900Y-80286500D02*
X145041700Y-79989300D01*
X143800000Y-72655000D02*
X144860300Y-72655000D01*
X174800000Y-127905000D02*
X173842300Y-127905000D01*
X175070000Y-138448000D02*
X175070000Y-137337700D01*
G04 #@! TO.N,Reg_Clock*
X205800000Y-71135000D02*
X204739700Y-71135000D01*
X203316800Y-71675800D02*
X204198900Y-71675800D01*
X204198900Y-71675800D02*
X204739700Y-71135000D01*
X205550000Y-83135000D02*
X204489700Y-83135000D01*
X202010400Y-77799000D02*
X202010400Y-80655700D01*
X202010400Y-80655700D02*
X204489700Y-83135000D01*
X173739700Y-126635000D02*
X172465900Y-125361200D01*
X172465900Y-125361200D02*
X172465900Y-124078500D01*
X172465900Y-124078500D02*
X168638600Y-120251200D01*
X168638600Y-120251200D02*
X168638600Y-77495100D01*
X168638600Y-77495100D02*
X173461000Y-72672700D01*
X173739700Y-126635000D02*
X173265100Y-127109600D01*
X173265100Y-127109600D02*
X173265100Y-134511200D01*
X144860300Y-71385000D02*
X144860300Y-71244100D01*
X144860300Y-71244100D02*
X145272300Y-70832100D01*
X143800000Y-71385000D02*
X142739700Y-71385000D01*
X143800000Y-83135000D02*
X144860300Y-83135000D01*
X144860300Y-83135000D02*
X144860300Y-81386900D01*
X144860300Y-81386900D02*
X144728000Y-81254600D01*
X144728000Y-81254600D02*
X142921500Y-81254600D01*
X142921500Y-81254600D02*
X142328500Y-80661600D01*
X142328500Y-80661600D02*
X142328500Y-71796200D01*
X142328500Y-71796200D02*
X142739700Y-71385000D01*
X143800000Y-71385000D02*
X144860300Y-71385000D01*
X174800000Y-126635000D02*
X173739700Y-126635000D01*
G04 #@! TO.N,Output_Enable*
X142540700Y-70379300D02*
X142739700Y-70180300D01*
X142739700Y-70180300D02*
X142739700Y-70115000D01*
X143800000Y-70115000D02*
X142739700Y-70115000D01*
X142540700Y-70379300D02*
X141890500Y-71029500D01*
X141890500Y-71029500D02*
X141890500Y-81015800D01*
X141890500Y-81015800D02*
X142739700Y-81865000D01*
X143800000Y-81865000D02*
X142739700Y-81865000D01*
X176085900Y-69771900D02*
X174312400Y-71545400D01*
X174312400Y-71545400D02*
X174312400Y-119217900D01*
X174312400Y-119217900D02*
X172876300Y-120654000D01*
X172876300Y-120654000D02*
X172876300Y-124398000D01*
X172876300Y-124398000D02*
X173344100Y-124865800D01*
X173344100Y-124865800D02*
X173344100Y-124969400D01*
X173344100Y-124969400D02*
X173739700Y-125365000D01*
X174800000Y-125365000D02*
X173739700Y-125365000D01*
X205800000Y-69865000D02*
X204739700Y-69865000D01*
X203467700Y-69403900D02*
X204278600Y-69403900D01*
X204278600Y-69403900D02*
X204739700Y-69865000D01*
X205550000Y-81865000D02*
X204489700Y-81865000D01*
X204489700Y-81865000D02*
X204489700Y-79955700D01*
X204489700Y-79955700D02*
X203141300Y-78607300D01*
G04 #@! TO.N,Net-(Shift2-Pad9)*
X205800000Y-74945000D02*
X206860300Y-74945000D01*
X205550000Y-80595000D02*
X206610300Y-80595000D01*
X206610300Y-80595000D02*
X206860300Y-80345000D01*
X206860300Y-80345000D02*
X206860300Y-74945000D01*
G04 #@! TO.N,Net-(Shift3-Pad9)*
X174800000Y-124095000D02*
X173739700Y-124095000D01*
X205550000Y-86945000D02*
X204489700Y-86945000D01*
X200114300Y-77898400D02*
X200114300Y-82569600D01*
X200114300Y-82569600D02*
X204489700Y-86945000D01*
X173739700Y-124095000D02*
X173286700Y-123642000D01*
X173286700Y-123642000D02*
X173286700Y-121525500D01*
X173286700Y-121525500D02*
X174722800Y-120089400D01*
X174722800Y-120089400D02*
X174722800Y-80175000D01*
X174722800Y-80175000D02*
X175693900Y-79203900D01*
G04 #@! TO.N,Net-(Shift4-Pad9)*
X170432100Y-133406800D02*
X170432100Y-124529200D01*
X170432100Y-124529200D02*
X169338300Y-123435400D01*
X169338300Y-123435400D02*
X166821600Y-123435400D01*
X166821600Y-123435400D02*
X166542900Y-123156700D01*
X166542900Y-123156700D02*
X166542900Y-82639900D01*
X166542900Y-82639900D02*
X160596400Y-76693400D01*
X160596400Y-76693400D02*
X148398500Y-76693400D01*
X148398500Y-76693400D02*
X146377200Y-78714700D01*
X146377200Y-78714700D02*
X142870700Y-78714700D01*
X142870700Y-78714700D02*
X142739600Y-78845800D01*
X142739600Y-78845800D02*
X142739600Y-79764600D01*
X142739600Y-79764600D02*
X143570000Y-80595000D01*
X143570000Y-80595000D02*
X143800000Y-80595000D01*
X174351800Y-131656500D02*
X174800000Y-131208300D01*
X174800000Y-131208300D02*
X174800000Y-130445000D01*
G04 #@! TO.N,Net-(D33-Pad2)*
X163213700Y-92237800D02*
X163213700Y-86290600D01*
X163213700Y-86290600D02*
X163438600Y-86065700D01*
X163438600Y-86065700D02*
X163438600Y-84778600D01*
X163438600Y-84778600D02*
X163213700Y-84553700D01*
X163213700Y-84553700D02*
X163213700Y-80692700D01*
X163213700Y-80692700D02*
X159624800Y-77103800D01*
X159624800Y-77103800D02*
X150115100Y-77103800D01*
X150115100Y-77103800D02*
X147893900Y-79325000D01*
X147893900Y-79325000D02*
X143800000Y-79325000D01*
X164274000Y-92237800D02*
X163213700Y-92237800D01*
G04 #@! TO.N,Net-(D34-Pad2)*
X136700000Y-78055000D02*
X137760300Y-78055000D01*
X137760300Y-78055000D02*
X137760300Y-77565400D01*
X137760300Y-77565400D02*
X137271900Y-77077000D01*
X137271900Y-77077000D02*
X136978700Y-77077000D01*
G04 #@! TO.N,Net-(D35-Pad2)*
X137760300Y-79325000D02*
X138630900Y-78454400D01*
X138630900Y-78454400D02*
X140133000Y-78454400D01*
X136700000Y-79325000D02*
X137760300Y-79325000D01*
G04 #@! TO.N,Net-(D36-Pad2)*
X136700000Y-80595000D02*
X137829200Y-80595000D01*
X137829200Y-80595000D02*
X139392200Y-79032000D01*
G04 #@! TO.N,Net-(D37-Pad2)*
X136700000Y-81865000D02*
X137760300Y-81865000D01*
X137760300Y-81865000D02*
X140694900Y-78930400D01*
X140694900Y-78930400D02*
X140694900Y-75957800D01*
X140694900Y-75957800D02*
X139905800Y-75168700D01*
G04 #@! TO.N,Net-(D38-Pad2)*
X149796000Y-85217000D02*
X148735700Y-85217000D01*
X148735700Y-85217000D02*
X148735700Y-85879700D01*
X148735700Y-85879700D02*
X147832800Y-86782600D01*
X147832800Y-86782600D02*
X145524600Y-86782600D01*
X145524600Y-86782600D02*
X145076600Y-86334600D01*
X145076600Y-86334600D02*
X141823400Y-86334600D01*
X141823400Y-86334600D02*
X138623800Y-83135000D01*
X138623800Y-83135000D02*
X136700000Y-83135000D01*
G04 #@! TO.N,Net-(Battery1-Pad2)*
X181104800Y-123803600D02*
X181104800Y-127491200D01*
X181104800Y-127491200D02*
X185710000Y-132096400D01*
X185710000Y-132096400D02*
X185710000Y-138540000D01*
G04 #@! TO.N,GND*
X178156000Y-59227400D02*
X171193400Y-59227400D01*
X171193400Y-59227400D02*
X169883000Y-57917000D01*
X178156000Y-73837800D02*
X178156000Y-59227400D01*
X178156000Y-59227400D02*
X178372600Y-59227400D01*
X178372600Y-59227400D02*
X179683000Y-57917000D01*
X178156000Y-83037800D02*
X178156000Y-73837800D01*
X161734000Y-59261600D02*
X168538400Y-59261600D01*
X168538400Y-59261600D02*
X169883000Y-57917000D01*
X130683000Y-77461200D02*
X130683000Y-76117000D01*
X130683000Y-85217000D02*
X130683000Y-77461200D01*
X130683000Y-77461200D02*
X134499600Y-77461200D01*
X134499600Y-77461200D02*
X135639700Y-76321100D01*
X135639700Y-76321100D02*
X135639700Y-75195000D01*
X136700000Y-75195000D02*
X135639700Y-75195000D01*
X136700000Y-86945000D02*
X132411000Y-86945000D01*
X132411000Y-86945000D02*
X130683000Y-85217000D01*
X161734000Y-131231400D02*
X161734000Y-135521000D01*
X161734000Y-135521000D02*
X160715000Y-136540000D01*
X161734000Y-129921000D02*
X161734000Y-131231400D01*
X166639700Y-130445000D02*
X165853300Y-131231400D01*
X165853300Y-131231400D02*
X161734000Y-131231400D01*
X167700000Y-130445000D02*
X166639700Y-130445000D01*
X130683000Y-76117000D02*
X130683000Y-67017000D01*
X199283000Y-57917000D02*
X200597500Y-56602500D01*
X200597500Y-56602500D02*
X207768500Y-56602500D01*
X207768500Y-56602500D02*
X209083000Y-57917000D01*
X198700000Y-74945000D02*
X197639700Y-74945000D01*
X192557000Y-73837800D02*
X193867400Y-75148200D01*
X193867400Y-75148200D02*
X197436500Y-75148200D01*
X197436500Y-75148200D02*
X197639700Y-74945000D01*
X160083000Y-57917000D02*
X161427600Y-59261600D01*
X161427600Y-59261600D02*
X161734000Y-59261600D01*
X161734000Y-59261600D02*
X161734000Y-73837800D01*
X150283000Y-57917000D02*
X151600400Y-56599600D01*
X151600400Y-56599600D02*
X158765600Y-56599600D01*
X158765600Y-56599600D02*
X160083000Y-57917000D01*
X169799000Y-105537000D02*
X169799000Y-104376700D01*
X171196000Y-99569000D02*
X171196000Y-102979700D01*
X171196000Y-102979700D02*
X169799000Y-104376700D01*
X154215000Y-136540000D02*
X151877000Y-134202000D01*
X151877000Y-134202000D02*
X151877000Y-129899000D01*
X192557000Y-85217000D02*
X194285000Y-86945000D01*
X194285000Y-86945000D02*
X198450000Y-86945000D01*
X161734000Y-92237800D02*
X161734000Y-83037800D01*
X130683000Y-57917000D02*
X130683000Y-67017000D01*
X209083000Y-76117000D02*
X209083000Y-85217000D01*
X178156000Y-92237800D02*
X178156000Y-83037800D01*
X167450000Y-140988000D02*
X167450000Y-142098300D01*
X169926000Y-146558000D02*
X169926000Y-144574300D01*
X169926000Y-144574300D02*
X167450000Y-142098300D01*
G04 #@! TO.N,Serial_Data*
X169425200Y-124314700D02*
X169596700Y-124486200D01*
X169596700Y-124486200D02*
X169596700Y-137905500D01*
X169596700Y-137905500D02*
X167784200Y-139718000D01*
X167784200Y-139718000D02*
X167085700Y-139718000D01*
X167085700Y-139718000D02*
X166332400Y-140471300D01*
X166332400Y-140471300D02*
X166332400Y-146097100D01*
X166332400Y-146097100D02*
X168388100Y-148152800D01*
X168388100Y-148152800D02*
X173527800Y-148152800D01*
X173527800Y-148152800D02*
X175070000Y-146610600D01*
X175070000Y-146610600D02*
X175070000Y-140988000D01*
X156337900Y-67964400D02*
X159338200Y-70964700D01*
X159338200Y-70964700D02*
X159338200Y-74538100D01*
X159338200Y-74538100D02*
X167103200Y-82303100D01*
X167103200Y-82303100D02*
X167103200Y-104694700D01*
X143800000Y-68845000D02*
X142704300Y-68845000D01*
X142704300Y-68845000D02*
X142276200Y-68416900D01*
G04 #@! TO.N,Master_Reset*
X144737600Y-69504600D02*
X142623100Y-69504600D01*
X142623100Y-69504600D02*
X141480100Y-70647600D01*
X141480100Y-70647600D02*
X141480100Y-84415400D01*
X141480100Y-84415400D02*
X142739700Y-85675000D01*
X145832600Y-71097700D02*
X144934900Y-71995400D01*
X144934900Y-71995400D02*
X142943800Y-71995400D01*
X142943800Y-71995400D02*
X142739700Y-72199500D01*
X142739700Y-72199500D02*
X142739700Y-73925000D01*
X144737600Y-69504600D02*
X145832600Y-70599600D01*
X145832600Y-70599600D02*
X145832600Y-71097700D01*
X145832600Y-71097700D02*
X152478900Y-71097700D01*
X152478900Y-71097700D02*
X152493700Y-71112500D01*
X179218800Y-71823200D02*
X179218800Y-116464800D01*
X179218800Y-116464800D02*
X174128600Y-121555000D01*
X202641200Y-70507400D02*
X180534600Y-70507400D01*
X180534600Y-70507400D02*
X179218800Y-71823200D01*
X179018000Y-71823200D02*
X179218800Y-71823200D01*
X143800000Y-66305000D02*
X144860300Y-66305000D01*
X144737600Y-69504600D02*
X144860300Y-69381900D01*
X144860300Y-69381900D02*
X144860300Y-66305000D01*
X143800000Y-85675000D02*
X142739700Y-85675000D01*
X204521900Y-73675000D02*
X204739700Y-73675000D01*
X202641200Y-70507400D02*
X202641200Y-71794300D01*
X202641200Y-71794300D02*
X204521900Y-73675000D01*
X204489700Y-78055000D02*
X204489700Y-75799500D01*
X204489700Y-75799500D02*
X204521900Y-75767300D01*
X204521900Y-75767300D02*
X204521900Y-73675000D01*
X175070000Y-133368000D02*
X175070000Y-132257700D01*
X175860300Y-129175000D02*
X175860300Y-131467400D01*
X175860300Y-131467400D02*
X175070000Y-132257700D01*
X175757700Y-129175000D02*
X175860300Y-129175000D01*
X174800000Y-129175000D02*
X175757700Y-129175000D01*
X174128600Y-121555000D02*
X173739600Y-121944000D01*
X173739600Y-121944000D02*
X173739600Y-123254800D01*
X173739600Y-123254800D02*
X173920200Y-123435400D01*
X173920200Y-123435400D02*
X175739100Y-123435400D01*
X175739100Y-123435400D02*
X175860300Y-123556600D01*
X175860300Y-123556600D02*
X175860300Y-129175000D01*
X143800000Y-78055000D02*
X142739700Y-78055000D01*
X142739700Y-78055000D02*
X142739700Y-73925000D01*
X143800000Y-73925000D02*
X142739700Y-73925000D01*
X204739700Y-66055000D02*
X203717700Y-66055000D01*
X203717700Y-66055000D02*
X202641200Y-67131500D01*
X202641200Y-67131500D02*
X202641200Y-70507400D01*
X205800000Y-73675000D02*
X204739700Y-73675000D01*
X205550000Y-78055000D02*
X204489700Y-78055000D01*
X205800000Y-66055000D02*
X204739700Y-66055000D01*
X174800000Y-121555000D02*
X174128600Y-121555000D01*
X205550000Y-85675000D02*
X206610300Y-85675000D01*
X205800000Y-73675000D02*
X208786000Y-73675000D01*
X208786000Y-73675000D02*
X210167500Y-75056500D01*
X210167500Y-75056500D02*
X210167500Y-86275400D01*
X210167500Y-86275400D02*
X209624000Y-86818900D01*
X209624000Y-86818900D02*
X207601600Y-86818900D01*
X207601600Y-86818900D02*
X206610300Y-85827600D01*
X206610300Y-85827600D02*
X206610300Y-85675000D01*
G04 #@! TD*
D21*
G36*
X183017344Y-136590000D02*
X182977946Y-136590000D01*
X182409148Y-136703141D01*
X182196079Y-136845509D01*
X181909199Y-136653823D01*
X181480000Y-136568450D01*
X179780000Y-136568450D01*
X179350801Y-136653823D01*
X178986944Y-136896944D01*
X178743823Y-137260801D01*
X178658450Y-137690000D01*
X178658450Y-139390000D01*
X178743823Y-139819199D01*
X178986944Y-140183056D01*
X179350801Y-140426177D01*
X179780000Y-140511550D01*
X181480000Y-140511550D01*
X181909199Y-140426177D01*
X182196079Y-140234491D01*
X182409148Y-140376859D01*
X182977946Y-140490000D01*
X183252693Y-140490000D01*
X183309625Y-140776216D01*
X183309626Y-140776217D01*
X183574849Y-141173152D01*
X183675047Y-141240102D01*
X186688357Y-144253412D01*
X186356624Y-144319398D01*
X185790003Y-144698003D01*
X185411398Y-145264624D01*
X185278450Y-145933000D01*
X185278450Y-147183000D01*
X185411398Y-147851376D01*
X185790003Y-148417997D01*
X186356624Y-148796602D01*
X187025000Y-148929550D01*
X188275000Y-148929550D01*
X188943376Y-148796602D01*
X189509997Y-148417997D01*
X189643889Y-148217614D01*
X190120621Y-148536156D01*
X190733171Y-148658000D01*
X191646829Y-148658000D01*
X191865001Y-148614603D01*
X191865001Y-148741197D01*
X191842238Y-148870292D01*
X191828890Y-148893412D01*
X191808436Y-148910574D01*
X191734021Y-148937659D01*
X191718697Y-148939000D01*
X174445706Y-148939000D01*
X174459904Y-148917751D01*
X175834954Y-147542702D01*
X175935152Y-147475752D01*
X176090451Y-147243331D01*
X176211398Y-147851376D01*
X176590003Y-148417997D01*
X177156624Y-148796602D01*
X177825000Y-148929550D01*
X179075000Y-148929550D01*
X179743376Y-148796602D01*
X180309997Y-148417997D01*
X180443889Y-148217614D01*
X180920621Y-148536156D01*
X181533171Y-148658000D01*
X182446829Y-148658000D01*
X183059379Y-148536156D01*
X183754015Y-148072015D01*
X184218156Y-147377379D01*
X184381141Y-146558000D01*
X184218156Y-145738621D01*
X183754015Y-145043985D01*
X183059379Y-144579844D01*
X182446829Y-144458000D01*
X182405567Y-144458000D01*
X182355152Y-144382548D01*
X182254954Y-144315598D01*
X176904380Y-138965025D01*
X177007223Y-138448000D01*
X176859761Y-137706657D01*
X176506524Y-137178000D01*
X176859761Y-136649343D01*
X177007223Y-135908000D01*
X176859761Y-135166657D01*
X176506524Y-134638000D01*
X176859761Y-134109343D01*
X177007223Y-133368000D01*
X176859761Y-132626657D01*
X176682447Y-132361287D01*
X176725452Y-132332552D01*
X176797866Y-132224177D01*
X177031000Y-132270550D01*
X178281000Y-132270550D01*
X178628728Y-132201383D01*
X183017344Y-136590000D01*
X183017344Y-136590000D01*
G37*
X183017344Y-136590000D02*
X182977946Y-136590000D01*
X182409148Y-136703141D01*
X182196079Y-136845509D01*
X181909199Y-136653823D01*
X181480000Y-136568450D01*
X179780000Y-136568450D01*
X179350801Y-136653823D01*
X178986944Y-136896944D01*
X178743823Y-137260801D01*
X178658450Y-137690000D01*
X178658450Y-139390000D01*
X178743823Y-139819199D01*
X178986944Y-140183056D01*
X179350801Y-140426177D01*
X179780000Y-140511550D01*
X181480000Y-140511550D01*
X181909199Y-140426177D01*
X182196079Y-140234491D01*
X182409148Y-140376859D01*
X182977946Y-140490000D01*
X183252693Y-140490000D01*
X183309625Y-140776216D01*
X183309626Y-140776217D01*
X183574849Y-141173152D01*
X183675047Y-141240102D01*
X186688357Y-144253412D01*
X186356624Y-144319398D01*
X185790003Y-144698003D01*
X185411398Y-145264624D01*
X185278450Y-145933000D01*
X185278450Y-147183000D01*
X185411398Y-147851376D01*
X185790003Y-148417997D01*
X186356624Y-148796602D01*
X187025000Y-148929550D01*
X188275000Y-148929550D01*
X188943376Y-148796602D01*
X189509997Y-148417997D01*
X189643889Y-148217614D01*
X190120621Y-148536156D01*
X190733171Y-148658000D01*
X191646829Y-148658000D01*
X191865001Y-148614603D01*
X191865001Y-148741197D01*
X191842238Y-148870292D01*
X191828890Y-148893412D01*
X191808436Y-148910574D01*
X191734021Y-148937659D01*
X191718697Y-148939000D01*
X174445706Y-148939000D01*
X174459904Y-148917751D01*
X175834954Y-147542702D01*
X175935152Y-147475752D01*
X176090451Y-147243331D01*
X176211398Y-147851376D01*
X176590003Y-148417997D01*
X177156624Y-148796602D01*
X177825000Y-148929550D01*
X179075000Y-148929550D01*
X179743376Y-148796602D01*
X180309997Y-148417997D01*
X180443889Y-148217614D01*
X180920621Y-148536156D01*
X181533171Y-148658000D01*
X182446829Y-148658000D01*
X183059379Y-148536156D01*
X183754015Y-148072015D01*
X184218156Y-147377379D01*
X184381141Y-146558000D01*
X184218156Y-145738621D01*
X183754015Y-145043985D01*
X183059379Y-144579844D01*
X182446829Y-144458000D01*
X182405567Y-144458000D01*
X182355152Y-144382548D01*
X182254954Y-144315598D01*
X176904380Y-138965025D01*
X177007223Y-138448000D01*
X176859761Y-137706657D01*
X176506524Y-137178000D01*
X176859761Y-136649343D01*
X177007223Y-135908000D01*
X176859761Y-135166657D01*
X176506524Y-134638000D01*
X176859761Y-134109343D01*
X177007223Y-133368000D01*
X176859761Y-132626657D01*
X176682447Y-132361287D01*
X176725452Y-132332552D01*
X176797866Y-132224177D01*
X177031000Y-132270550D01*
X178281000Y-132270550D01*
X178628728Y-132201383D01*
X183017344Y-136590000D01*
G36*
X158934706Y-142229554D02*
X159525446Y-142820294D01*
X160297284Y-143140000D01*
X161132716Y-143140000D01*
X161904554Y-142820294D01*
X162242000Y-142482848D01*
X162242001Y-144684642D01*
X161695376Y-144319398D01*
X161027000Y-144186450D01*
X159777000Y-144186450D01*
X159108624Y-144319398D01*
X158542003Y-144698003D01*
X158163398Y-145264624D01*
X158030450Y-145933000D01*
X158030450Y-147183000D01*
X158163398Y-147851376D01*
X158542003Y-148417997D01*
X159108624Y-148796602D01*
X159777000Y-148929550D01*
X161027000Y-148929550D01*
X161695376Y-148796602D01*
X162261997Y-148417997D01*
X162395889Y-148217614D01*
X162872621Y-148536156D01*
X163485171Y-148658000D01*
X164398829Y-148658000D01*
X165011379Y-148536156D01*
X165706015Y-148072015D01*
X166068205Y-147529960D01*
X167455998Y-148917754D01*
X167470194Y-148939000D01*
X151227116Y-148939000D01*
X151170341Y-148929550D01*
X152002000Y-148929550D01*
X152670376Y-148796602D01*
X153236997Y-148417997D01*
X153370889Y-148217614D01*
X153847621Y-148536156D01*
X154460171Y-148658000D01*
X155373829Y-148658000D01*
X155986379Y-148536156D01*
X156681015Y-148072015D01*
X157145156Y-147377379D01*
X157308141Y-146558000D01*
X157145156Y-145738621D01*
X156681015Y-145043985D01*
X156160600Y-144696255D01*
X158844669Y-142012186D01*
X158934706Y-142229554D01*
X158934706Y-142229554D01*
G37*
X158934706Y-142229554D02*
X159525446Y-142820294D01*
X160297284Y-143140000D01*
X161132716Y-143140000D01*
X161904554Y-142820294D01*
X162242000Y-142482848D01*
X162242001Y-144684642D01*
X161695376Y-144319398D01*
X161027000Y-144186450D01*
X159777000Y-144186450D01*
X159108624Y-144319398D01*
X158542003Y-144698003D01*
X158163398Y-145264624D01*
X158030450Y-145933000D01*
X158030450Y-147183000D01*
X158163398Y-147851376D01*
X158542003Y-148417997D01*
X159108624Y-148796602D01*
X159777000Y-148929550D01*
X161027000Y-148929550D01*
X161695376Y-148796602D01*
X162261997Y-148417997D01*
X162395889Y-148217614D01*
X162872621Y-148536156D01*
X163485171Y-148658000D01*
X164398829Y-148658000D01*
X165011379Y-148536156D01*
X165706015Y-148072015D01*
X166068205Y-147529960D01*
X167455998Y-148917754D01*
X167470194Y-148939000D01*
X151227116Y-148939000D01*
X151170341Y-148929550D01*
X152002000Y-148929550D01*
X152670376Y-148796602D01*
X153236997Y-148417997D01*
X153370889Y-148217614D01*
X153847621Y-148536156D01*
X154460171Y-148658000D01*
X155373829Y-148658000D01*
X155986379Y-148536156D01*
X156681015Y-148072015D01*
X157145156Y-147377379D01*
X157308141Y-146558000D01*
X157145156Y-145738621D01*
X156681015Y-145043985D01*
X156160600Y-144696255D01*
X158844669Y-142012186D01*
X158934706Y-142229554D01*
G36*
X178731694Y-144186450D02*
X177825000Y-144186450D01*
X177156624Y-144319398D01*
X176590003Y-144698003D01*
X176270000Y-145176920D01*
X176270000Y-142471297D01*
X176439824Y-142357824D01*
X176625374Y-142080129D01*
X178731694Y-144186450D01*
X178731694Y-144186450D01*
G37*
X178731694Y-144186450D02*
X177825000Y-144186450D01*
X177156624Y-144319398D01*
X176590003Y-144698003D01*
X176270000Y-145176920D01*
X176270000Y-142471297D01*
X176439824Y-142357824D01*
X176625374Y-142080129D01*
X178731694Y-144186450D01*
G36*
X168037561Y-144382917D02*
X167566003Y-144698003D01*
X167532400Y-144748293D01*
X167532400Y-143877755D01*
X168037561Y-144382917D01*
X168037561Y-144382917D01*
G37*
X168037561Y-144382917D02*
X167566003Y-144698003D01*
X167532400Y-144748293D01*
X167532400Y-143877755D01*
X168037561Y-144382917D01*
G36*
X158862450Y-130546000D02*
X158995398Y-131214376D01*
X159374003Y-131780997D01*
X159940624Y-132159602D01*
X160534000Y-132277632D01*
X160534001Y-134440000D01*
X160297284Y-134440000D01*
X159525446Y-134759706D01*
X158934706Y-135350446D01*
X158615000Y-136122284D01*
X158615000Y-136957716D01*
X158934706Y-137729554D01*
X159333948Y-138128796D01*
X156315000Y-141147745D01*
X156315000Y-140622284D01*
X155995294Y-139850446D01*
X155404554Y-139259706D01*
X154632716Y-138940000D01*
X153797284Y-138940000D01*
X153025446Y-139259706D01*
X152434706Y-139850446D01*
X152115000Y-140622284D01*
X152115000Y-141457716D01*
X152434706Y-142229554D01*
X153025446Y-142820294D01*
X153797284Y-143140000D01*
X154322745Y-143140000D01*
X153652049Y-143810696D01*
X153551848Y-143877648D01*
X153391702Y-144117325D01*
X153286625Y-144274584D01*
X153206460Y-144677599D01*
X152670376Y-144319398D01*
X152002000Y-144186450D01*
X150781000Y-144186450D01*
X150781000Y-134721662D01*
X151011848Y-135067152D01*
X151112049Y-135134104D01*
X152115000Y-136137055D01*
X152115000Y-136957716D01*
X152434706Y-137729554D01*
X153025446Y-138320294D01*
X153797284Y-138640000D01*
X154632716Y-138640000D01*
X155404554Y-138320294D01*
X155995294Y-137729554D01*
X156315000Y-136957716D01*
X156315000Y-136122284D01*
X155995294Y-135350446D01*
X155404554Y-134759706D01*
X154632716Y-134440000D01*
X153812055Y-134440000D01*
X153077000Y-133704945D01*
X153077000Y-131865904D01*
X153236997Y-131758997D01*
X153370889Y-131558614D01*
X153847621Y-131877156D01*
X154460171Y-131999000D01*
X155373829Y-131999000D01*
X155986379Y-131877156D01*
X156681015Y-131413015D01*
X156890833Y-131099000D01*
X157415912Y-131099000D01*
X157534100Y-131122509D01*
X157652288Y-131099000D01*
X158002317Y-131029375D01*
X158399252Y-130764152D01*
X158466204Y-130663951D01*
X158862450Y-130267705D01*
X158862450Y-130546000D01*
X158862450Y-130546000D01*
G37*
X158862450Y-130546000D02*
X158995398Y-131214376D01*
X159374003Y-131780997D01*
X159940624Y-132159602D01*
X160534000Y-132277632D01*
X160534001Y-134440000D01*
X160297284Y-134440000D01*
X159525446Y-134759706D01*
X158934706Y-135350446D01*
X158615000Y-136122284D01*
X158615000Y-136957716D01*
X158934706Y-137729554D01*
X159333948Y-138128796D01*
X156315000Y-141147745D01*
X156315000Y-140622284D01*
X155995294Y-139850446D01*
X155404554Y-139259706D01*
X154632716Y-138940000D01*
X153797284Y-138940000D01*
X153025446Y-139259706D01*
X152434706Y-139850446D01*
X152115000Y-140622284D01*
X152115000Y-141457716D01*
X152434706Y-142229554D01*
X153025446Y-142820294D01*
X153797284Y-143140000D01*
X154322745Y-143140000D01*
X153652049Y-143810696D01*
X153551848Y-143877648D01*
X153391702Y-144117325D01*
X153286625Y-144274584D01*
X153206460Y-144677599D01*
X152670376Y-144319398D01*
X152002000Y-144186450D01*
X150781000Y-144186450D01*
X150781000Y-134721662D01*
X151011848Y-135067152D01*
X151112049Y-135134104D01*
X152115000Y-136137055D01*
X152115000Y-136957716D01*
X152434706Y-137729554D01*
X153025446Y-138320294D01*
X153797284Y-138640000D01*
X154632716Y-138640000D01*
X155404554Y-138320294D01*
X155995294Y-137729554D01*
X156315000Y-136957716D01*
X156315000Y-136122284D01*
X155995294Y-135350446D01*
X155404554Y-134759706D01*
X154632716Y-134440000D01*
X153812055Y-134440000D01*
X153077000Y-133704945D01*
X153077000Y-131865904D01*
X153236997Y-131758997D01*
X153370889Y-131558614D01*
X153847621Y-131877156D01*
X154460171Y-131999000D01*
X155373829Y-131999000D01*
X155986379Y-131877156D01*
X156681015Y-131413015D01*
X156890833Y-131099000D01*
X157415912Y-131099000D01*
X157534100Y-131122509D01*
X157652288Y-131099000D01*
X158002317Y-131029375D01*
X158399252Y-130764152D01*
X158466204Y-130663951D01*
X158862450Y-130267705D01*
X158862450Y-130546000D01*
G36*
X165132401Y-144660708D02*
X165011379Y-144579844D01*
X164642000Y-144506370D01*
X164642000Y-141377855D01*
X165132400Y-140887455D01*
X165132401Y-144660708D01*
X165132401Y-144660708D01*
G37*
X165132401Y-144660708D02*
X165011379Y-144579844D01*
X164642000Y-144506370D01*
X164642000Y-141377855D01*
X165132400Y-140887455D01*
X165132401Y-144660708D01*
G36*
X173396542Y-140072598D02*
X173280239Y-140246657D01*
X173132777Y-140988000D01*
X173280239Y-141729343D01*
X173700176Y-142357824D01*
X173870001Y-142471297D01*
X173870000Y-144546948D01*
X173422829Y-144458000D01*
X172509171Y-144458000D01*
X172192400Y-144521010D01*
X172192400Y-138868455D01*
X173396542Y-140072598D01*
X173396542Y-140072598D01*
G37*
X173396542Y-140072598D02*
X173280239Y-140246657D01*
X173132777Y-140988000D01*
X173280239Y-141729343D01*
X173700176Y-142357824D01*
X173870001Y-142471297D01*
X173870000Y-144546948D01*
X173422829Y-144458000D01*
X172509171Y-144458000D01*
X172192400Y-144521010D01*
X172192400Y-138868455D01*
X173396542Y-140072598D01*
G36*
X190126621Y-131877156D02*
X190739171Y-131999000D01*
X191652829Y-131999000D01*
X191865000Y-131956796D01*
X191865001Y-144501397D01*
X191646829Y-144458000D01*
X190733171Y-144458000D01*
X190361071Y-144532015D01*
X186249870Y-140420815D01*
X186470852Y-140376859D01*
X186980000Y-140036657D01*
X187489148Y-140376859D01*
X188057946Y-140490000D01*
X188442054Y-140490000D01*
X189010852Y-140376859D01*
X189655871Y-139945871D01*
X190086859Y-139300852D01*
X190238202Y-138540000D01*
X190086859Y-137779148D01*
X189655871Y-137134129D01*
X189010852Y-136703141D01*
X188442054Y-136590000D01*
X188057946Y-136590000D01*
X187489148Y-136703141D01*
X186980000Y-137043343D01*
X186910000Y-136996570D01*
X186910000Y-132246482D01*
X187031000Y-132270550D01*
X188281000Y-132270550D01*
X188949376Y-132137602D01*
X189515997Y-131758997D01*
X189649889Y-131558614D01*
X190126621Y-131877156D01*
X190126621Y-131877156D01*
G37*
X190126621Y-131877156D02*
X190739171Y-131999000D01*
X191652829Y-131999000D01*
X191865000Y-131956796D01*
X191865001Y-144501397D01*
X191646829Y-144458000D01*
X190733171Y-144458000D01*
X190361071Y-144532015D01*
X186249870Y-140420815D01*
X186470852Y-140376859D01*
X186980000Y-140036657D01*
X187489148Y-140376859D01*
X188057946Y-140490000D01*
X188442054Y-140490000D01*
X189010852Y-140376859D01*
X189655871Y-139945871D01*
X190086859Y-139300852D01*
X190238202Y-138540000D01*
X190086859Y-137779148D01*
X189655871Y-137134129D01*
X189010852Y-136703141D01*
X188442054Y-136590000D01*
X188057946Y-136590000D01*
X187489148Y-136703141D01*
X186980000Y-137043343D01*
X186910000Y-136996570D01*
X186910000Y-132246482D01*
X187031000Y-132270550D01*
X188281000Y-132270550D01*
X188949376Y-132137602D01*
X189515997Y-131758997D01*
X189649889Y-131558614D01*
X190126621Y-131877156D01*
G36*
X169792400Y-142743645D02*
X169054845Y-142006090D01*
X169239761Y-141729343D01*
X169387223Y-140988000D01*
X169239761Y-140246657D01*
X169124740Y-140074515D01*
X169792400Y-139406855D01*
X169792400Y-142743645D01*
X169792400Y-142743645D01*
G37*
X169792400Y-142743645D02*
X169054845Y-142006090D01*
X169239761Y-141729343D01*
X169387223Y-140988000D01*
X169239761Y-140246657D01*
X169124740Y-140074515D01*
X169792400Y-139406855D01*
X169792400Y-142743645D01*
G36*
X165827281Y-134916661D02*
X165660239Y-135166657D01*
X165512777Y-135908000D01*
X165660239Y-136649343D01*
X165786876Y-136838868D01*
X162677049Y-139948696D01*
X162576848Y-140015648D01*
X162568746Y-140027774D01*
X162495294Y-139850446D01*
X161904554Y-139259706D01*
X161687186Y-139169669D01*
X162804854Y-138052002D01*
X162905052Y-137985052D01*
X163157725Y-137606899D01*
X163170275Y-137588117D01*
X163256346Y-137155409D01*
X165694225Y-134717530D01*
X165827281Y-134916661D01*
X165827281Y-134916661D01*
G37*
X165827281Y-134916661D02*
X165660239Y-135166657D01*
X165512777Y-135908000D01*
X165660239Y-136649343D01*
X165786876Y-136838868D01*
X162677049Y-139948696D01*
X162576848Y-140015648D01*
X162568746Y-140027774D01*
X162495294Y-139850446D01*
X161904554Y-139259706D01*
X161687186Y-139169669D01*
X162804854Y-138052002D01*
X162905052Y-137985052D01*
X163157725Y-137606899D01*
X163170275Y-137588117D01*
X163256346Y-137155409D01*
X165694225Y-134717530D01*
X165827281Y-134916661D01*
G36*
X184510000Y-132593456D02*
X184510000Y-134688545D01*
X181792644Y-131971189D01*
X182265379Y-131877156D01*
X182960015Y-131413015D01*
X183108034Y-131191489D01*
X184510000Y-132593456D01*
X184510000Y-132593456D01*
G37*
X184510000Y-132593456D02*
X184510000Y-134688545D01*
X181792644Y-131971189D01*
X182265379Y-131877156D01*
X182960015Y-131413015D01*
X183108034Y-131191489D01*
X184510000Y-132593456D01*
G36*
X162934000Y-134083645D02*
X162934000Y-132431400D01*
X164586244Y-132431400D01*
X162934000Y-134083645D01*
X162934000Y-134083645D01*
G37*
X162934000Y-134083645D02*
X162934000Y-132431400D01*
X164586244Y-132431400D01*
X162934000Y-134083645D01*
G36*
X185796003Y-128039003D02*
X185417398Y-128605624D01*
X185284450Y-129274000D01*
X185284450Y-129973794D01*
X182980653Y-127669998D01*
X182995724Y-127667000D01*
X186352743Y-127667000D01*
X185796003Y-128039003D01*
X185796003Y-128039003D01*
G37*
X185796003Y-128039003D02*
X185417398Y-128605624D01*
X185284450Y-129274000D01*
X185284450Y-129973794D01*
X182980653Y-127669998D01*
X182995724Y-127667000D01*
X186352743Y-127667000D01*
X185796003Y-128039003D01*
G36*
X157037045Y-128699000D02*
X156890833Y-128699000D01*
X156681015Y-128384985D01*
X155986379Y-127920844D01*
X155373829Y-127799000D01*
X154460171Y-127799000D01*
X153847621Y-127920844D01*
X153370889Y-128239386D01*
X153236997Y-128039003D01*
X152680257Y-127667000D01*
X158069045Y-127667000D01*
X157037045Y-128699000D01*
X157037045Y-128699000D01*
G37*
X157037045Y-128699000D02*
X156890833Y-128699000D01*
X156681015Y-128384985D01*
X155986379Y-127920844D01*
X155373829Y-127799000D01*
X154460171Y-127799000D01*
X153847621Y-127920844D01*
X153370889Y-128239386D01*
X153236997Y-128039003D01*
X152680257Y-127667000D01*
X158069045Y-127667000D01*
X157037045Y-128699000D01*
G36*
X191623810Y-127701109D02*
X191719996Y-127753009D01*
X191787221Y-127825732D01*
X191652829Y-127799000D01*
X190739171Y-127799000D01*
X190126621Y-127920844D01*
X189649889Y-128239386D01*
X189515997Y-128039003D01*
X188959257Y-127667000D01*
X191418883Y-127667000D01*
X191623810Y-127701109D01*
X191623810Y-127701109D01*
G37*
X191623810Y-127701109D02*
X191719996Y-127753009D01*
X191787221Y-127825732D01*
X191652829Y-127799000D01*
X190739171Y-127799000D01*
X190126621Y-127920844D01*
X189649889Y-128239386D01*
X189515997Y-128039003D01*
X188959257Y-127667000D01*
X191418883Y-127667000D01*
X191623810Y-127701109D01*
G36*
X163146033Y-128138880D02*
X163093997Y-128061003D01*
X162755760Y-127835000D01*
X163349079Y-127835000D01*
X163146033Y-128138880D01*
X163146033Y-128138880D01*
G37*
X163146033Y-128138880D02*
X163093997Y-128061003D01*
X162755760Y-127835000D01*
X163349079Y-127835000D01*
X163146033Y-128138880D01*
G36*
X178042000Y-126703756D02*
X178042000Y-127527450D01*
X177060300Y-127527450D01*
X177060300Y-125722056D01*
X178042000Y-126703756D01*
X178042000Y-126703756D01*
G37*
X178042000Y-126703756D02*
X178042000Y-127527450D01*
X177060300Y-127527450D01*
X177060300Y-125722056D01*
X178042000Y-126703756D01*
G36*
X161596800Y-125429412D02*
X161595689Y-125435000D01*
X160916287Y-125435000D01*
X160798099Y-125411491D01*
X160687000Y-125433590D01*
X160687000Y-123070550D01*
X161596800Y-123070550D01*
X161596800Y-125429412D01*
X161596800Y-125429412D01*
G37*
X161596800Y-125429412D02*
X161595689Y-125435000D01*
X160916287Y-125435000D01*
X160798099Y-125411491D01*
X160687000Y-125433590D01*
X160687000Y-123070550D01*
X161596800Y-123070550D01*
X161596800Y-125429412D01*
G36*
X165677748Y-124021852D02*
X165777949Y-124088804D01*
X165828450Y-124139305D01*
X165828450Y-124395000D01*
X165895086Y-124730000D01*
X165828450Y-125065000D01*
X165828450Y-125435000D01*
X165510475Y-125435000D01*
X165449600Y-125288035D01*
X165449600Y-123680403D01*
X165677748Y-124021852D01*
X165677748Y-124021852D01*
G37*
X165677748Y-124021852D02*
X165777949Y-124088804D01*
X165828450Y-124139305D01*
X165828450Y-124395000D01*
X165895086Y-124730000D01*
X165828450Y-125065000D01*
X165828450Y-125435000D01*
X165510475Y-125435000D01*
X165449600Y-125288035D01*
X165449600Y-123680403D01*
X165677748Y-124021852D01*
G36*
X178412091Y-123126800D02*
X178447675Y-123305691D01*
X178505225Y-123595016D01*
X178770448Y-123991952D01*
X178870649Y-124058904D01*
X179203201Y-124391456D01*
X179203201Y-124470845D01*
X177802905Y-123070550D01*
X178281000Y-123070550D01*
X178429141Y-123041083D01*
X178412091Y-123126800D01*
X178412091Y-123126800D01*
G37*
X178412091Y-123126800D02*
X178447675Y-123305691D01*
X178505225Y-123595016D01*
X178770448Y-123991952D01*
X178870649Y-124058904D01*
X179203201Y-124391456D01*
X179203201Y-124470845D01*
X177802905Y-123070550D01*
X178281000Y-123070550D01*
X178429141Y-123041083D01*
X178412091Y-123126800D01*
G36*
X171676300Y-121591845D02*
X171503456Y-121419000D01*
X171663444Y-121419000D01*
X171676300Y-121413675D01*
X171676300Y-121591845D01*
X171676300Y-121591845D01*
G37*
X171676300Y-121591845D02*
X171503456Y-121419000D01*
X171663444Y-121419000D01*
X171676300Y-121413675D01*
X171676300Y-121591845D01*
G36*
X164317171Y-94337800D02*
X165230829Y-94337800D01*
X165342901Y-94315508D01*
X165342900Y-118621292D01*
X165230829Y-118599000D01*
X164317171Y-118599000D01*
X163996800Y-118662726D01*
X163996800Y-94274074D01*
X164317171Y-94337800D01*
X164317171Y-94337800D01*
G37*
X164317171Y-94337800D02*
X165230829Y-94337800D01*
X165342901Y-94315508D01*
X165342900Y-118621292D01*
X165230829Y-118599000D01*
X164317171Y-118599000D01*
X163996800Y-118662726D01*
X163996800Y-94274074D01*
X164317171Y-94337800D01*
G36*
X181705001Y-118609378D02*
X181652829Y-118599000D01*
X180835600Y-118599000D01*
X180835600Y-94337800D01*
X181652829Y-94337800D01*
X181705000Y-94327422D01*
X181705001Y-118609378D01*
X181705001Y-118609378D01*
G37*
X181705001Y-118609378D02*
X181652829Y-118599000D01*
X180835600Y-118599000D01*
X180835600Y-94337800D01*
X181652829Y-94337800D01*
X181705000Y-94327422D01*
X181705001Y-118609378D01*
G36*
X161596800Y-118327450D02*
X160687000Y-118327450D01*
X160687000Y-94609350D01*
X161596801Y-94609350D01*
X161596800Y-118327450D01*
X161596800Y-118327450D01*
G37*
X161596800Y-118327450D02*
X160687000Y-118327450D01*
X160687000Y-94609350D01*
X161596801Y-94609350D01*
X161596800Y-118327450D01*
G36*
X176659925Y-117185480D02*
X176701263Y-117285281D01*
X175922800Y-118063744D01*
X175922800Y-116448355D01*
X176659925Y-117185480D01*
X176659925Y-117185480D01*
G37*
X176659925Y-117185480D02*
X176701263Y-117285281D01*
X175922800Y-118063744D01*
X175922800Y-116448355D01*
X176659925Y-117185480D01*
G36*
X171578148Y-107373859D02*
X172146946Y-107487000D01*
X172531054Y-107487000D01*
X173099852Y-107373859D01*
X173112401Y-107365474D01*
X173112401Y-117661999D01*
X172527168Y-117076766D01*
X171663444Y-116719000D01*
X170728556Y-116719000D01*
X169864832Y-117076766D01*
X169838600Y-117102998D01*
X169838600Y-107508550D01*
X170649000Y-107508550D01*
X171078199Y-107423177D01*
X171365079Y-107231491D01*
X171578148Y-107373859D01*
X171578148Y-107373859D01*
G37*
X171578148Y-107373859D02*
X172146946Y-107487000D01*
X172531054Y-107487000D01*
X173099852Y-107373859D01*
X173112401Y-107365474D01*
X173112401Y-117661999D01*
X172527168Y-117076766D01*
X171663444Y-116719000D01*
X170728556Y-116719000D01*
X169864832Y-117076766D01*
X169838600Y-117102998D01*
X169838600Y-107508550D01*
X170649000Y-107508550D01*
X171078199Y-107423177D01*
X171365079Y-107231491D01*
X171578148Y-107373859D01*
G36*
X177031000Y-94609350D02*
X178018801Y-94609350D01*
X178018801Y-115150245D01*
X176926700Y-114058145D01*
X176926700Y-94588603D01*
X177031000Y-94609350D01*
X177031000Y-94609350D01*
G37*
X177031000Y-94609350D02*
X178018801Y-94609350D01*
X178018801Y-115150245D01*
X176926700Y-114058145D01*
X176926700Y-94588603D01*
X177031000Y-94609350D01*
G36*
X173112401Y-103708526D02*
X173099852Y-103700141D01*
X172531054Y-103587000D01*
X172233443Y-103587000D01*
X172326375Y-103447917D01*
X172396000Y-103097888D01*
X172396000Y-103097887D01*
X172419509Y-102979701D01*
X172396000Y-102861514D01*
X172396000Y-101615566D01*
X172527168Y-101561234D01*
X173112401Y-100976001D01*
X173112401Y-103708526D01*
X173112401Y-103708526D01*
G37*
X173112401Y-103708526D02*
X173099852Y-103700141D01*
X172531054Y-103587000D01*
X172233443Y-103587000D01*
X172326375Y-103447917D01*
X172396000Y-103097888D01*
X172396000Y-103097887D01*
X172419509Y-102979701D01*
X172396000Y-102861514D01*
X172396000Y-101615566D01*
X172527168Y-101561234D01*
X173112401Y-100976001D01*
X173112401Y-103708526D01*
G36*
X169864832Y-101561234D02*
X169996001Y-101615566D01*
X169996001Y-102482643D01*
X169838600Y-102640044D01*
X169838600Y-101535002D01*
X169864832Y-101561234D01*
X169864832Y-101561234D01*
G37*
X169864832Y-101561234D02*
X169996001Y-101615566D01*
X169996001Y-102482643D01*
X169838600Y-102640044D01*
X169838600Y-101535002D01*
X169864832Y-101561234D01*
G36*
X173112401Y-98161999D02*
X172527168Y-97576766D01*
X171663444Y-97219000D01*
X170728556Y-97219000D01*
X169864832Y-97576766D01*
X169838600Y-97602998D01*
X169838600Y-77992155D01*
X173112400Y-74718356D01*
X173112401Y-98161999D01*
X173112401Y-98161999D01*
G37*
X173112401Y-98161999D02*
X172527168Y-97576766D01*
X171663444Y-97219000D01*
X170728556Y-97219000D01*
X169864832Y-97576766D01*
X169838600Y-97602998D01*
X169838600Y-77992155D01*
X173112400Y-74718356D01*
X173112401Y-98161999D01*
G36*
X165342901Y-90160093D02*
X165230829Y-90137800D01*
X164413700Y-90137800D01*
X164413700Y-86766303D01*
X164568975Y-86533917D01*
X164638600Y-86183888D01*
X164638600Y-86183887D01*
X164662109Y-86065700D01*
X164638600Y-85947512D01*
X164638600Y-85137800D01*
X165230829Y-85137800D01*
X165342901Y-85115507D01*
X165342901Y-90160093D01*
X165342901Y-90160093D01*
G37*
X165342901Y-90160093D02*
X165230829Y-90137800D01*
X164413700Y-90137800D01*
X164413700Y-86766303D01*
X164568975Y-86533917D01*
X164638600Y-86183888D01*
X164638600Y-86183887D01*
X164662109Y-86065700D01*
X164638600Y-85947512D01*
X164638600Y-85137800D01*
X165230829Y-85137800D01*
X165342901Y-85115507D01*
X165342901Y-90160093D01*
G36*
X181705000Y-90148178D02*
X181652829Y-90137800D01*
X180835600Y-90137800D01*
X180835600Y-85137800D01*
X181652829Y-85137800D01*
X181705000Y-85127422D01*
X181705000Y-90148178D01*
X181705000Y-90148178D01*
G37*
X181705000Y-90148178D02*
X181652829Y-90137800D01*
X180835600Y-90137800D01*
X180835600Y-85137800D01*
X181652829Y-85137800D01*
X181705000Y-85127422D01*
X181705000Y-90148178D01*
G36*
X176956001Y-85394432D02*
X176956000Y-89881168D01*
X176926700Y-89886997D01*
X176926700Y-85388603D01*
X176956001Y-85394432D01*
X176956001Y-85394432D01*
G37*
X176956001Y-85394432D02*
X176956000Y-89881168D01*
X176926700Y-89886997D01*
X176926700Y-85388603D01*
X176956001Y-85394432D01*
G36*
X203557598Y-87709954D02*
X203567651Y-87725000D01*
X200202233Y-87725000D01*
X200236177Y-87674199D01*
X200321550Y-87245000D01*
X200321550Y-86645000D01*
X200309465Y-86584243D01*
X200375452Y-86540152D01*
X200640675Y-86143217D01*
X200710300Y-85793188D01*
X200733809Y-85675000D01*
X200710300Y-85556812D01*
X200710300Y-84862655D01*
X203557598Y-87709954D01*
X203557598Y-87709954D01*
G37*
X203557598Y-87709954D02*
X203567651Y-87725000D01*
X200202233Y-87725000D01*
X200236177Y-87674199D01*
X200321550Y-87245000D01*
X200321550Y-86645000D01*
X200309465Y-86584243D01*
X200375452Y-86540152D01*
X200640675Y-86143217D01*
X200710300Y-85793188D01*
X200733809Y-85675000D01*
X200710300Y-85556812D01*
X200710300Y-84862655D01*
X203557598Y-87709954D01*
G36*
X211053621Y-87195156D02*
X211666171Y-87317000D01*
X212579829Y-87317000D01*
X212690314Y-87295023D01*
X212658891Y-87483810D01*
X212606991Y-87579997D01*
X212526734Y-87654185D01*
X212405155Y-87707935D01*
X212270074Y-87725000D01*
X210427869Y-87725000D01*
X210489152Y-87684052D01*
X210556104Y-87583851D01*
X210932451Y-87207504D01*
X211002276Y-87160848D01*
X211053621Y-87195156D01*
X211053621Y-87195156D01*
G37*
X211053621Y-87195156D02*
X211666171Y-87317000D01*
X212579829Y-87317000D01*
X212690314Y-87295023D01*
X212658891Y-87483810D01*
X212606991Y-87579997D01*
X212526734Y-87654185D01*
X212405155Y-87707935D01*
X212270074Y-87725000D01*
X210427869Y-87725000D01*
X210489152Y-87684052D01*
X210556104Y-87583851D01*
X210932451Y-87207504D01*
X211002276Y-87160848D01*
X211053621Y-87195156D01*
G36*
X131478898Y-87709954D02*
X131488951Y-87725000D01*
X130145116Y-87725000D01*
X129940190Y-87690891D01*
X129844003Y-87638991D01*
X129797376Y-87588550D01*
X130808000Y-87588550D01*
X131266327Y-87497383D01*
X131478898Y-87709954D01*
X131478898Y-87709954D01*
G37*
X131478898Y-87709954D02*
X131488951Y-87725000D01*
X130145116Y-87725000D01*
X129940190Y-87690891D01*
X129844003Y-87638991D01*
X129797376Y-87588550D01*
X130808000Y-87588550D01*
X131266327Y-87497383D01*
X131478898Y-87709954D01*
G36*
X140891298Y-87099554D02*
X140958248Y-87199752D01*
X141355183Y-87464975D01*
X141489660Y-87491724D01*
X141823400Y-87558109D01*
X141941588Y-87534600D01*
X141979325Y-87534600D01*
X141992273Y-87565859D01*
X142013823Y-87674199D01*
X142047767Y-87725000D01*
X138452233Y-87725000D01*
X138486177Y-87674199D01*
X138571550Y-87245000D01*
X138571550Y-86645000D01*
X138504914Y-86310000D01*
X138507727Y-86295859D01*
X138550000Y-86193803D01*
X138550000Y-86100000D01*
X138547236Y-86097236D01*
X138571550Y-85975000D01*
X138571550Y-85375000D01*
X138547236Y-85252764D01*
X138550000Y-85250000D01*
X138550000Y-85156197D01*
X138507727Y-85054141D01*
X138504914Y-85040000D01*
X138507727Y-85025859D01*
X138550000Y-84923803D01*
X138550000Y-84830000D01*
X138547236Y-84827236D01*
X138559139Y-84767394D01*
X140891298Y-87099554D01*
X140891298Y-87099554D01*
G37*
X140891298Y-87099554D02*
X140958248Y-87199752D01*
X141355183Y-87464975D01*
X141489660Y-87491724D01*
X141823400Y-87558109D01*
X141941588Y-87534600D01*
X141979325Y-87534600D01*
X141992273Y-87565859D01*
X142013823Y-87674199D01*
X142047767Y-87725000D01*
X138452233Y-87725000D01*
X138486177Y-87674199D01*
X138571550Y-87245000D01*
X138571550Y-86645000D01*
X138504914Y-86310000D01*
X138507727Y-86295859D01*
X138550000Y-86193803D01*
X138550000Y-86100000D01*
X138547236Y-86097236D01*
X138571550Y-85975000D01*
X138571550Y-85375000D01*
X138547236Y-85252764D01*
X138550000Y-85250000D01*
X138550000Y-85156197D01*
X138507727Y-85054141D01*
X138504914Y-85040000D01*
X138507727Y-85025859D01*
X138550000Y-84923803D01*
X138550000Y-84830000D01*
X138547236Y-84827236D01*
X138559139Y-84767394D01*
X140891298Y-87099554D01*
G36*
X149226621Y-87195156D02*
X149839171Y-87317000D01*
X150717001Y-87317000D01*
X150717001Y-87725000D01*
X148582342Y-87725000D01*
X148697952Y-87647752D01*
X148764904Y-87547551D01*
X149161088Y-87151368D01*
X149226621Y-87195156D01*
X149226621Y-87195156D01*
G37*
X149226621Y-87195156D02*
X149839171Y-87317000D01*
X150717001Y-87317000D01*
X150717001Y-87725000D01*
X148582342Y-87725000D01*
X148697952Y-87647752D01*
X148764904Y-87547551D01*
X149161088Y-87151368D01*
X149226621Y-87195156D01*
G36*
X193352898Y-87709954D02*
X193362951Y-87725000D01*
X191675000Y-87725000D01*
X191675000Y-87588550D01*
X192682000Y-87588550D01*
X193140327Y-87497383D01*
X193352898Y-87709954D01*
X193352898Y-87709954D01*
G37*
X193352898Y-87709954D02*
X193362951Y-87725000D01*
X191675000Y-87725000D01*
X191675000Y-87588550D01*
X192682000Y-87588550D01*
X193140327Y-87497383D01*
X193352898Y-87709954D01*
G36*
X194960069Y-83152825D02*
X194527621Y-83238844D01*
X194050889Y-83557386D01*
X193916997Y-83357003D01*
X193350376Y-82978398D01*
X192682000Y-82845450D01*
X191675000Y-82845450D01*
X191675000Y-79867755D01*
X194960069Y-83152825D01*
X194960069Y-83152825D01*
G37*
X194960069Y-83152825D02*
X194527621Y-83238844D01*
X194050889Y-83557386D01*
X193916997Y-83357003D01*
X193350376Y-82978398D01*
X192682000Y-82845450D01*
X191675000Y-82845450D01*
X191675000Y-79867755D01*
X194960069Y-83152825D01*
G36*
X150717000Y-83117000D02*
X149839171Y-83117000D01*
X149226621Y-83238844D01*
X148749889Y-83557386D01*
X148615997Y-83357003D01*
X148049376Y-82978398D01*
X147381000Y-82845450D01*
X146538900Y-82845450D01*
X146538900Y-80525000D01*
X147775712Y-80525000D01*
X147893900Y-80548509D01*
X148012088Y-80525000D01*
X148362117Y-80455375D01*
X148759052Y-80190152D01*
X148826004Y-80089951D01*
X150612156Y-78303800D01*
X150717000Y-78303800D01*
X150717000Y-83117000D01*
X150717000Y-83117000D01*
G37*
X150717000Y-83117000D02*
X149839171Y-83117000D01*
X149226621Y-83238844D01*
X148749889Y-83557386D01*
X148615997Y-83357003D01*
X148049376Y-82978398D01*
X147381000Y-82845450D01*
X146538900Y-82845450D01*
X146538900Y-80525000D01*
X147775712Y-80525000D01*
X147893900Y-80548509D01*
X148012088Y-80525000D01*
X148362117Y-80455375D01*
X148759052Y-80190152D01*
X148826004Y-80089951D01*
X150612156Y-78303800D01*
X150717000Y-78303800D01*
X150717000Y-83117000D01*
G36*
X203046244Y-83388600D02*
X202975668Y-83388600D01*
X202731495Y-83489740D01*
X201314300Y-82072545D01*
X201314300Y-81656655D01*
X203046244Y-83388600D01*
X203046244Y-83388600D01*
G37*
X203046244Y-83388600D02*
X202975668Y-83388600D01*
X202731495Y-83489740D01*
X201314300Y-82072545D01*
X201314300Y-81656655D01*
X203046244Y-83388600D01*
G36*
X132458049Y-80282496D02*
X132357848Y-80349448D01*
X132100482Y-80734625D01*
X132092625Y-80746384D01*
X131999491Y-81214600D01*
X132023000Y-81332788D01*
X132023001Y-83343642D01*
X131883000Y-83250096D01*
X131883000Y-78661200D01*
X134079344Y-78661200D01*
X132458049Y-80282496D01*
X132458049Y-80282496D01*
G37*
X132458049Y-80282496D02*
X132357848Y-80349448D01*
X132100482Y-80734625D01*
X132092625Y-80746384D01*
X131999491Y-81214600D01*
X132023000Y-81332788D01*
X132023001Y-83343642D01*
X131883000Y-83250096D01*
X131883000Y-78661200D01*
X134079344Y-78661200D01*
X132458049Y-80282496D01*
G36*
X134828450Y-81565000D02*
X134828450Y-82165000D01*
X134895086Y-82500000D01*
X134828450Y-82835000D01*
X134828450Y-83262946D01*
X134792379Y-83238844D01*
X134423000Y-83165370D01*
X134423000Y-81711655D01*
X134892709Y-81241946D01*
X134828450Y-81565000D01*
X134828450Y-81565000D01*
G37*
X134828450Y-81565000D02*
X134828450Y-82165000D01*
X134895086Y-82500000D01*
X134828450Y-82835000D01*
X134828450Y-83262946D01*
X134792379Y-83238844D01*
X134423000Y-83165370D01*
X134423000Y-81711655D01*
X134892709Y-81241946D01*
X134828450Y-81565000D01*
G36*
X211666171Y-78217000D02*
X212579829Y-78217000D01*
X212693001Y-78194489D01*
X212693001Y-83139511D01*
X212579829Y-83117000D01*
X211666171Y-83117000D01*
X211367500Y-83176409D01*
X211367500Y-78157591D01*
X211666171Y-78217000D01*
X211666171Y-78217000D01*
G37*
X211666171Y-78217000D02*
X212579829Y-78217000D01*
X212693001Y-78194489D01*
X212693001Y-83139511D01*
X212579829Y-83117000D01*
X211666171Y-83117000D01*
X211367500Y-83176409D01*
X211367500Y-78157591D01*
X211666171Y-78217000D01*
G36*
X140280101Y-83094246D02*
X139555904Y-82370049D01*
X139488952Y-82269848D01*
X139227322Y-82095033D01*
X140280101Y-81042255D01*
X140280101Y-83094246D01*
X140280101Y-83094246D01*
G37*
X140280101Y-83094246D02*
X139555904Y-82370049D01*
X139488952Y-82269848D01*
X139227322Y-82095033D01*
X140280101Y-81042255D01*
X140280101Y-83094246D01*
G36*
X207883001Y-82860368D02*
X207421550Y-82952156D01*
X207421550Y-82835000D01*
X207354914Y-82500000D01*
X207421550Y-82165000D01*
X207421550Y-81565000D01*
X207409465Y-81504243D01*
X207475452Y-81460152D01*
X207542404Y-81359951D01*
X207625251Y-81277104D01*
X207725452Y-81210152D01*
X207883001Y-80974364D01*
X207883001Y-82860368D01*
X207883001Y-82860368D01*
G37*
X207883001Y-82860368D02*
X207421550Y-82952156D01*
X207421550Y-82835000D01*
X207354914Y-82500000D01*
X207421550Y-82165000D01*
X207421550Y-81565000D01*
X207409465Y-81504243D01*
X207475452Y-81460152D01*
X207542404Y-81359951D01*
X207625251Y-81277104D01*
X207725452Y-81210152D01*
X207883001Y-80974364D01*
X207883001Y-82860368D01*
G36*
X181705000Y-80948177D02*
X181652829Y-80937800D01*
X181090355Y-80937800D01*
X181705000Y-80323156D01*
X181705000Y-80948177D01*
X181705000Y-80948177D01*
G37*
X181705000Y-80948177D02*
X181652829Y-80937800D01*
X181090355Y-80937800D01*
X181705000Y-80323156D01*
X181705000Y-80948177D01*
G36*
X176956000Y-80681168D02*
X176926700Y-80686997D01*
X176926700Y-80658465D01*
X176956000Y-80587727D01*
X176956000Y-80681168D01*
X176956000Y-80681168D01*
G37*
X176956000Y-80681168D02*
X176926700Y-80686997D01*
X176926700Y-80658465D01*
X176956000Y-80587727D01*
X176956000Y-80681168D01*
G36*
X161490194Y-80666250D02*
X160687000Y-80666250D01*
X160687000Y-79863056D01*
X161490194Y-80666250D01*
X161490194Y-80666250D01*
G37*
X161490194Y-80666250D02*
X160687000Y-80666250D01*
X160687000Y-79863056D01*
X161490194Y-80666250D01*
G36*
X166515700Y-80018544D02*
X162555060Y-76057904D01*
X163093997Y-75697797D01*
X163227889Y-75497414D01*
X163704621Y-75815956D01*
X164317171Y-75937800D01*
X165230829Y-75937800D01*
X165843379Y-75815956D01*
X166515700Y-75366725D01*
X166515700Y-80018544D01*
X166515700Y-80018544D01*
G37*
X166515700Y-80018544D02*
X162555060Y-76057904D01*
X163093997Y-75697797D01*
X163227889Y-75497414D01*
X163704621Y-75815956D01*
X164317171Y-75937800D01*
X165230829Y-75937800D01*
X165843379Y-75815956D01*
X166515700Y-75366725D01*
X166515700Y-80018544D01*
G36*
X175796003Y-75697797D02*
X176362624Y-76076402D01*
X176956001Y-76194432D01*
X176956000Y-78723159D01*
X176838375Y-78439186D01*
X176458614Y-78059425D01*
X175962432Y-77853900D01*
X175512400Y-77853900D01*
X175512400Y-75273356D01*
X175796003Y-75697797D01*
X175796003Y-75697797D01*
G37*
X175796003Y-75697797D02*
X176362624Y-76076402D01*
X176956001Y-76194432D01*
X176956000Y-78723159D01*
X176838375Y-78439186D01*
X176458614Y-78059425D01*
X175962432Y-77853900D01*
X175512400Y-77853900D01*
X175512400Y-75273356D01*
X175796003Y-75697797D01*
G36*
X180716694Y-76865850D02*
X180418800Y-77163745D01*
X180418800Y-76567956D01*
X180716694Y-76865850D01*
X180716694Y-76865850D01*
G37*
X180716694Y-76865850D02*
X180418800Y-77163745D01*
X180418800Y-76567956D01*
X180716694Y-76865850D01*
G36*
X146241700Y-77153145D02*
X146241700Y-76222050D01*
X147172794Y-76222050D01*
X146241700Y-77153145D01*
X146241700Y-77153145D01*
G37*
X146241700Y-77153145D02*
X146241700Y-76222050D01*
X147172794Y-76222050D01*
X146241700Y-77153145D01*
G36*
X200065449Y-76436104D02*
X200177745Y-76548400D01*
X200161555Y-76548400D01*
X200045239Y-76432084D01*
X200065449Y-76436104D01*
X200065449Y-76436104D01*
G37*
X200065449Y-76436104D02*
X200177745Y-76548400D01*
X200161555Y-76548400D01*
X200045239Y-76432084D01*
X200065449Y-76436104D01*
G36*
X170725183Y-60357775D02*
X171075212Y-60427400D01*
X171075213Y-60427400D01*
X171193399Y-60450909D01*
X171311586Y-60427400D01*
X176956001Y-60427400D01*
X176956000Y-68732811D01*
X176850614Y-68627425D01*
X176354432Y-68421900D01*
X175817368Y-68421900D01*
X175321186Y-68627425D01*
X174941425Y-69007186D01*
X174791425Y-69369320D01*
X173547449Y-70613296D01*
X173447248Y-70680248D01*
X173187612Y-71068823D01*
X173182025Y-71077184D01*
X173127866Y-71349459D01*
X172696286Y-71528225D01*
X172316525Y-71907986D01*
X172166525Y-72270119D01*
X168915700Y-75520945D01*
X168915700Y-72151188D01*
X168939209Y-72033000D01*
X168846075Y-71564783D01*
X168820952Y-71527184D01*
X168580852Y-71167848D01*
X168480654Y-71100898D01*
X167603576Y-70223820D01*
X167453575Y-69861686D01*
X167073814Y-69481925D01*
X166577632Y-69276400D01*
X166040568Y-69276400D01*
X165544386Y-69481925D01*
X165164625Y-69861686D01*
X164959100Y-70357868D01*
X164959100Y-70894932D01*
X165164625Y-71391114D01*
X165544386Y-71770875D01*
X165680454Y-71827236D01*
X165230829Y-71737800D01*
X164317171Y-71737800D01*
X163704621Y-71859644D01*
X163227889Y-72178186D01*
X163093997Y-71977803D01*
X162934000Y-71870896D01*
X162934000Y-60461600D01*
X168420212Y-60461600D01*
X168538400Y-60485109D01*
X168656588Y-60461600D01*
X169006617Y-60391975D01*
X169161404Y-60288550D01*
X170008000Y-60288550D01*
X170480824Y-60194500D01*
X170725183Y-60357775D01*
X170725183Y-60357775D01*
G37*
X170725183Y-60357775D02*
X171075212Y-60427400D01*
X171075213Y-60427400D01*
X171193399Y-60450909D01*
X171311586Y-60427400D01*
X176956001Y-60427400D01*
X176956000Y-68732811D01*
X176850614Y-68627425D01*
X176354432Y-68421900D01*
X175817368Y-68421900D01*
X175321186Y-68627425D01*
X174941425Y-69007186D01*
X174791425Y-69369320D01*
X173547449Y-70613296D01*
X173447248Y-70680248D01*
X173187612Y-71068823D01*
X173182025Y-71077184D01*
X173127866Y-71349459D01*
X172696286Y-71528225D01*
X172316525Y-71907986D01*
X172166525Y-72270119D01*
X168915700Y-75520945D01*
X168915700Y-72151188D01*
X168939209Y-72033000D01*
X168846075Y-71564783D01*
X168820952Y-71527184D01*
X168580852Y-71167848D01*
X168480654Y-71100898D01*
X167603576Y-70223820D01*
X167453575Y-69861686D01*
X167073814Y-69481925D01*
X166577632Y-69276400D01*
X166040568Y-69276400D01*
X165544386Y-69481925D01*
X165164625Y-69861686D01*
X164959100Y-70357868D01*
X164959100Y-70894932D01*
X165164625Y-71391114D01*
X165544386Y-71770875D01*
X165680454Y-71827236D01*
X165230829Y-71737800D01*
X164317171Y-71737800D01*
X163704621Y-71859644D01*
X163227889Y-72178186D01*
X163093997Y-71977803D01*
X162934000Y-71870896D01*
X162934000Y-60461600D01*
X168420212Y-60461600D01*
X168538400Y-60485109D01*
X168656588Y-60461600D01*
X169006617Y-60391975D01*
X169161404Y-60288550D01*
X170008000Y-60288550D01*
X170480824Y-60194500D01*
X170725183Y-60357775D01*
G36*
X151990943Y-75493400D02*
X151867125Y-75493400D01*
X151952726Y-75436204D01*
X151990943Y-75493400D01*
X151990943Y-75493400D01*
G37*
X151990943Y-75493400D02*
X151867125Y-75493400D01*
X151952726Y-75436204D01*
X151990943Y-75493400D01*
G36*
X132501798Y-69609954D02*
X132568748Y-69710152D01*
X132909831Y-69938056D01*
X132965683Y-69975375D01*
X133433899Y-70068509D01*
X133552087Y-70045000D01*
X133566145Y-70045000D01*
X132458049Y-71153096D01*
X132357848Y-71220048D01*
X132104509Y-71599198D01*
X132092625Y-71616984D01*
X131999491Y-72085200D01*
X132023000Y-72203388D01*
X132023001Y-74243642D01*
X131883000Y-74150096D01*
X131883000Y-68991155D01*
X132501798Y-69609954D01*
X132501798Y-69609954D01*
G37*
X132501798Y-69609954D02*
X132568748Y-69710152D01*
X132909831Y-69938056D01*
X132965683Y-69975375D01*
X133433899Y-70068509D01*
X133552087Y-70045000D01*
X133566145Y-70045000D01*
X132458049Y-71153096D01*
X132357848Y-71220048D01*
X132104509Y-71599198D01*
X132092625Y-71616984D01*
X131999491Y-72085200D01*
X132023000Y-72203388D01*
X132023001Y-74243642D01*
X131883000Y-74150096D01*
X131883000Y-68991155D01*
X132501798Y-69609954D01*
G36*
X211053621Y-68995156D02*
X211666171Y-69117000D01*
X212579829Y-69117000D01*
X212693000Y-69094489D01*
X212693001Y-74039511D01*
X212579829Y-74017000D01*
X211666171Y-74017000D01*
X211053621Y-74138844D01*
X211003848Y-74172102D01*
X210932454Y-74124398D01*
X209718104Y-72910049D01*
X209651152Y-72809848D01*
X209254217Y-72544625D01*
X208904188Y-72475000D01*
X208786000Y-72451491D01*
X208667812Y-72475000D01*
X207671550Y-72475000D01*
X207671550Y-72105000D01*
X207604914Y-71770000D01*
X207671550Y-71435000D01*
X207671550Y-71315588D01*
X207685765Y-71309700D01*
X208024012Y-71309700D01*
X208142200Y-71333209D01*
X208260388Y-71309700D01*
X208610417Y-71240075D01*
X209007352Y-70974852D01*
X209074304Y-70874651D01*
X210993783Y-68955173D01*
X211053621Y-68995156D01*
X211053621Y-68995156D01*
G37*
X211053621Y-68995156D02*
X211666171Y-69117000D01*
X212579829Y-69117000D01*
X212693000Y-69094489D01*
X212693001Y-74039511D01*
X212579829Y-74017000D01*
X211666171Y-74017000D01*
X211053621Y-74138844D01*
X211003848Y-74172102D01*
X210932454Y-74124398D01*
X209718104Y-72910049D01*
X209651152Y-72809848D01*
X209254217Y-72544625D01*
X208904188Y-72475000D01*
X208786000Y-72451491D01*
X208667812Y-72475000D01*
X207671550Y-72475000D01*
X207671550Y-72105000D01*
X207604914Y-71770000D01*
X207671550Y-71435000D01*
X207671550Y-71315588D01*
X207685765Y-71309700D01*
X208024012Y-71309700D01*
X208142200Y-71333209D01*
X208260388Y-71309700D01*
X208610417Y-71240075D01*
X209007352Y-70974852D01*
X209074304Y-70874651D01*
X210993783Y-68955173D01*
X211053621Y-68995156D01*
G36*
X134828450Y-72355000D02*
X134828450Y-72955000D01*
X134895086Y-73290000D01*
X134828450Y-73625000D01*
X134828450Y-74162946D01*
X134792379Y-74138844D01*
X134423000Y-74065370D01*
X134423000Y-72582255D01*
X134872696Y-72132559D01*
X134828450Y-72355000D01*
X134828450Y-72355000D01*
G37*
X134828450Y-72355000D02*
X134828450Y-72955000D01*
X134895086Y-73290000D01*
X134828450Y-73625000D01*
X134828450Y-74162946D01*
X134792379Y-74138844D01*
X134423000Y-74065370D01*
X134423000Y-72582255D01*
X134872696Y-72132559D01*
X134828450Y-72355000D01*
G36*
X140280100Y-73862511D02*
X140266500Y-73856877D01*
X140266500Y-71331355D01*
X140280100Y-71317755D01*
X140280100Y-73862511D01*
X140280100Y-73862511D01*
G37*
X140280100Y-73862511D02*
X140266500Y-73856877D01*
X140266500Y-71331355D01*
X140280100Y-71317755D01*
X140280100Y-73862511D01*
G36*
X176956000Y-71481168D02*
X176362624Y-71599198D01*
X175796003Y-71977803D01*
X175512400Y-72402244D01*
X175512400Y-72042455D01*
X176488480Y-71066375D01*
X176850614Y-70916375D01*
X176956000Y-70810989D01*
X176956000Y-71481168D01*
X176956000Y-71481168D01*
G37*
X176956000Y-71481168D02*
X176362624Y-71599198D01*
X175796003Y-71977803D01*
X175512400Y-72402244D01*
X175512400Y-72042455D01*
X176488480Y-71066375D01*
X176850614Y-70916375D01*
X176956000Y-70810989D01*
X176956000Y-71481168D01*
G36*
X183009003Y-71977803D02*
X182834059Y-72239624D01*
X182265379Y-71859644D01*
X181652829Y-71737800D01*
X181001256Y-71737800D01*
X181031656Y-71707400D01*
X183413689Y-71707400D01*
X183009003Y-71977803D01*
X183009003Y-71977803D01*
G37*
X183009003Y-71977803D02*
X182834059Y-72239624D01*
X182265379Y-71859644D01*
X181652829Y-71737800D01*
X181001256Y-71737800D01*
X181031656Y-71707400D01*
X183413689Y-71707400D01*
X183009003Y-71977803D01*
G36*
X190197003Y-71977803D02*
X190029776Y-72228076D01*
X189478379Y-71859644D01*
X188865829Y-71737800D01*
X187952171Y-71737800D01*
X187339621Y-71859644D01*
X186862889Y-72178186D01*
X186728997Y-71977803D01*
X186324311Y-71707400D01*
X190601689Y-71707400D01*
X190197003Y-71977803D01*
X190197003Y-71977803D01*
G37*
X190197003Y-71977803D02*
X190029776Y-72228076D01*
X189478379Y-71859644D01*
X188865829Y-71737800D01*
X187952171Y-71737800D01*
X187339621Y-71859644D01*
X186862889Y-72178186D01*
X186728997Y-71977803D01*
X186324311Y-71707400D01*
X190601689Y-71707400D01*
X190197003Y-71977803D01*
G36*
X196895086Y-71770000D02*
X196852515Y-71984016D01*
X196666379Y-71859644D01*
X196053829Y-71737800D01*
X195140171Y-71737800D01*
X194527621Y-71859644D01*
X194050889Y-72178186D01*
X193916997Y-71977803D01*
X193512311Y-71707400D01*
X196882634Y-71707400D01*
X196895086Y-71770000D01*
X196895086Y-71770000D01*
G37*
X196895086Y-71770000D02*
X196852515Y-71984016D01*
X196666379Y-71859644D01*
X196053829Y-71737800D01*
X195140171Y-71737800D01*
X194527621Y-71859644D01*
X194050889Y-72178186D01*
X193916997Y-71977803D01*
X193512311Y-71707400D01*
X196882634Y-71707400D01*
X196895086Y-71770000D01*
G36*
X158138200Y-71461756D02*
X158138200Y-71779416D01*
X157992829Y-71750500D01*
X157167500Y-71750500D01*
X157167500Y-71538155D01*
X157297251Y-71408404D01*
X157397452Y-71341452D01*
X157645967Y-70969523D01*
X158138200Y-71461756D01*
X158138200Y-71461756D01*
G37*
X158138200Y-71461756D02*
X158138200Y-71779416D01*
X157992829Y-71750500D01*
X157167500Y-71750500D01*
X157167500Y-71538155D01*
X157297251Y-71408404D01*
X157397452Y-71341452D01*
X157645967Y-70969523D01*
X158138200Y-71461756D01*
G36*
X157211450Y-58542000D02*
X157344398Y-59210376D01*
X157723003Y-59776997D01*
X158289624Y-60155602D01*
X158958000Y-60288550D01*
X160208000Y-60288550D01*
X160534000Y-60223705D01*
X160534001Y-70825401D01*
X160468575Y-70496483D01*
X160439454Y-70452901D01*
X160203352Y-70099548D01*
X160103154Y-70032598D01*
X157632376Y-67561821D01*
X157482375Y-67199686D01*
X157102614Y-66819925D01*
X156606432Y-66614400D01*
X156069368Y-66614400D01*
X155573186Y-66819925D01*
X155193425Y-67199686D01*
X154987900Y-67695868D01*
X154987900Y-68232932D01*
X155193425Y-68729114D01*
X155319221Y-68854910D01*
X155182300Y-69185468D01*
X155182300Y-69334490D01*
X154824186Y-69482825D01*
X154444425Y-69862586D01*
X154294424Y-70224720D01*
X153815045Y-70704100D01*
X153785765Y-70704100D01*
X153638175Y-70347786D01*
X153258414Y-69968025D01*
X152762232Y-69762500D01*
X152225168Y-69762500D01*
X151898766Y-69897700D01*
X146806833Y-69897700D01*
X146697752Y-69734448D01*
X146597554Y-69667498D01*
X146060300Y-69130245D01*
X146060300Y-66423188D01*
X146083809Y-66305000D01*
X145990675Y-65836783D01*
X145725452Y-65439848D01*
X145328517Y-65174625D01*
X145269692Y-65162924D01*
X145195204Y-65113152D01*
X145489456Y-64818900D01*
X146614812Y-64818900D01*
X146733000Y-64842409D01*
X146851188Y-64818900D01*
X147201217Y-64749275D01*
X147598152Y-64484052D01*
X147665104Y-64383851D01*
X152193783Y-59855173D01*
X152253621Y-59895156D01*
X152866171Y-60017000D01*
X153779829Y-60017000D01*
X154392379Y-59895156D01*
X155087015Y-59431015D01*
X155551156Y-58736379D01*
X155714141Y-57917000D01*
X155690789Y-57799600D01*
X157211450Y-57799600D01*
X157211450Y-58542000D01*
X157211450Y-58542000D01*
G37*
X157211450Y-58542000D02*
X157344398Y-59210376D01*
X157723003Y-59776997D01*
X158289624Y-60155602D01*
X158958000Y-60288550D01*
X160208000Y-60288550D01*
X160534000Y-60223705D01*
X160534001Y-70825401D01*
X160468575Y-70496483D01*
X160439454Y-70452901D01*
X160203352Y-70099548D01*
X160103154Y-70032598D01*
X157632376Y-67561821D01*
X157482375Y-67199686D01*
X157102614Y-66819925D01*
X156606432Y-66614400D01*
X156069368Y-66614400D01*
X155573186Y-66819925D01*
X155193425Y-67199686D01*
X154987900Y-67695868D01*
X154987900Y-68232932D01*
X155193425Y-68729114D01*
X155319221Y-68854910D01*
X155182300Y-69185468D01*
X155182300Y-69334490D01*
X154824186Y-69482825D01*
X154444425Y-69862586D01*
X154294424Y-70224720D01*
X153815045Y-70704100D01*
X153785765Y-70704100D01*
X153638175Y-70347786D01*
X153258414Y-69968025D01*
X152762232Y-69762500D01*
X152225168Y-69762500D01*
X151898766Y-69897700D01*
X146806833Y-69897700D01*
X146697752Y-69734448D01*
X146597554Y-69667498D01*
X146060300Y-69130245D01*
X146060300Y-66423188D01*
X146083809Y-66305000D01*
X145990675Y-65836783D01*
X145725452Y-65439848D01*
X145328517Y-65174625D01*
X145269692Y-65162924D01*
X145195204Y-65113152D01*
X145489456Y-64818900D01*
X146614812Y-64818900D01*
X146733000Y-64842409D01*
X146851188Y-64818900D01*
X147201217Y-64749275D01*
X147598152Y-64484052D01*
X147665104Y-64383851D01*
X152193783Y-59855173D01*
X152253621Y-59895156D01*
X152866171Y-60017000D01*
X153779829Y-60017000D01*
X154392379Y-59895156D01*
X155087015Y-59431015D01*
X155551156Y-58736379D01*
X155714141Y-57917000D01*
X155690789Y-57799600D01*
X157211450Y-57799600D01*
X157211450Y-58542000D01*
G36*
X199879255Y-55639188D02*
X199408000Y-55545450D01*
X198158000Y-55545450D01*
X197489624Y-55678398D01*
X196923003Y-56057003D01*
X196544398Y-56623624D01*
X196411450Y-57292000D01*
X196411450Y-58542000D01*
X196544398Y-59210376D01*
X196923003Y-59776997D01*
X197489624Y-60155602D01*
X198158000Y-60288550D01*
X199408000Y-60288550D01*
X199562701Y-60257778D01*
X199562700Y-64655867D01*
X199450000Y-64633450D01*
X198821328Y-64633450D01*
X198770075Y-64375783D01*
X198504852Y-63978848D01*
X198404654Y-63911898D01*
X194069266Y-59576510D01*
X194287015Y-59431015D01*
X194751156Y-58736379D01*
X194914141Y-57917000D01*
X194751156Y-57097621D01*
X194287015Y-56402985D01*
X193592379Y-55938844D01*
X192979829Y-55817000D01*
X192066171Y-55817000D01*
X191453621Y-55938844D01*
X190976889Y-56257386D01*
X190842997Y-56057003D01*
X190276376Y-55678398D01*
X189608000Y-55545450D01*
X188358000Y-55545450D01*
X187689624Y-55678398D01*
X187123003Y-56057003D01*
X186744398Y-56623624D01*
X186611450Y-57292000D01*
X186611450Y-58542000D01*
X186744398Y-59210376D01*
X187123003Y-59776997D01*
X187689624Y-60155602D01*
X188358000Y-60288550D01*
X189608000Y-60288550D01*
X190276376Y-60155602D01*
X190842997Y-59776997D01*
X190895033Y-59699120D01*
X191157849Y-60092452D01*
X191258047Y-60159402D01*
X196439700Y-65341056D01*
X196439700Y-65936812D01*
X196416191Y-66055000D01*
X196509325Y-66523217D01*
X196688129Y-66790816D01*
X196774548Y-66920152D01*
X196840535Y-66964243D01*
X196828450Y-67025000D01*
X196828450Y-67625000D01*
X196895086Y-67960000D01*
X196828450Y-68295000D01*
X196828450Y-68895000D01*
X196895086Y-69230000D01*
X196879690Y-69307400D01*
X180652787Y-69307400D01*
X180534599Y-69283891D01*
X180227454Y-69344986D01*
X180066383Y-69377025D01*
X179669448Y-69642248D01*
X179602498Y-69742446D01*
X179356000Y-69988944D01*
X179356000Y-60288550D01*
X179808000Y-60288550D01*
X180476376Y-60155602D01*
X181042997Y-59776997D01*
X181176889Y-59576614D01*
X181653621Y-59895156D01*
X182266171Y-60017000D01*
X183179829Y-60017000D01*
X183792379Y-59895156D01*
X184487015Y-59431015D01*
X184951156Y-58736379D01*
X185114141Y-57917000D01*
X184951156Y-57097621D01*
X184487015Y-56402985D01*
X183792379Y-55938844D01*
X183179829Y-55817000D01*
X182266171Y-55817000D01*
X181653621Y-55938844D01*
X181176889Y-56257386D01*
X181042997Y-56057003D01*
X180476376Y-55678398D01*
X179808000Y-55545450D01*
X178558000Y-55545450D01*
X177889624Y-55678398D01*
X177323003Y-56057003D01*
X176944398Y-56623624D01*
X176811450Y-57292000D01*
X176811450Y-58027400D01*
X175292181Y-58027400D01*
X175314141Y-57917000D01*
X175151156Y-57097621D01*
X174687015Y-56402985D01*
X173992379Y-55938844D01*
X173379829Y-55817000D01*
X172466171Y-55817000D01*
X171853621Y-55938844D01*
X171376889Y-56257386D01*
X171242997Y-56057003D01*
X170676376Y-55678398D01*
X170008000Y-55545450D01*
X168758000Y-55545450D01*
X168089624Y-55678398D01*
X167523003Y-56057003D01*
X167144398Y-56623624D01*
X167011450Y-57292000D01*
X167011450Y-58061600D01*
X165485378Y-58061600D01*
X165514141Y-57917000D01*
X165351156Y-57097621D01*
X164887015Y-56402985D01*
X164192379Y-55938844D01*
X163579829Y-55817000D01*
X162666171Y-55817000D01*
X162053621Y-55938844D01*
X161576889Y-56257386D01*
X161442997Y-56057003D01*
X160876376Y-55678398D01*
X160208000Y-55545450D01*
X159347896Y-55545450D01*
X159326270Y-55531000D01*
X200041170Y-55531000D01*
X199879255Y-55639188D01*
X199879255Y-55639188D01*
G37*
X199879255Y-55639188D02*
X199408000Y-55545450D01*
X198158000Y-55545450D01*
X197489624Y-55678398D01*
X196923003Y-56057003D01*
X196544398Y-56623624D01*
X196411450Y-57292000D01*
X196411450Y-58542000D01*
X196544398Y-59210376D01*
X196923003Y-59776997D01*
X197489624Y-60155602D01*
X198158000Y-60288550D01*
X199408000Y-60288550D01*
X199562701Y-60257778D01*
X199562700Y-64655867D01*
X199450000Y-64633450D01*
X198821328Y-64633450D01*
X198770075Y-64375783D01*
X198504852Y-63978848D01*
X198404654Y-63911898D01*
X194069266Y-59576510D01*
X194287015Y-59431015D01*
X194751156Y-58736379D01*
X194914141Y-57917000D01*
X194751156Y-57097621D01*
X194287015Y-56402985D01*
X193592379Y-55938844D01*
X192979829Y-55817000D01*
X192066171Y-55817000D01*
X191453621Y-55938844D01*
X190976889Y-56257386D01*
X190842997Y-56057003D01*
X190276376Y-55678398D01*
X189608000Y-55545450D01*
X188358000Y-55545450D01*
X187689624Y-55678398D01*
X187123003Y-56057003D01*
X186744398Y-56623624D01*
X186611450Y-57292000D01*
X186611450Y-58542000D01*
X186744398Y-59210376D01*
X187123003Y-59776997D01*
X187689624Y-60155602D01*
X188358000Y-60288550D01*
X189608000Y-60288550D01*
X190276376Y-60155602D01*
X190842997Y-59776997D01*
X190895033Y-59699120D01*
X191157849Y-60092452D01*
X191258047Y-60159402D01*
X196439700Y-65341056D01*
X196439700Y-65936812D01*
X196416191Y-66055000D01*
X196509325Y-66523217D01*
X196688129Y-66790816D01*
X196774548Y-66920152D01*
X196840535Y-66964243D01*
X196828450Y-67025000D01*
X196828450Y-67625000D01*
X196895086Y-67960000D01*
X196828450Y-68295000D01*
X196828450Y-68895000D01*
X196895086Y-69230000D01*
X196879690Y-69307400D01*
X180652787Y-69307400D01*
X180534599Y-69283891D01*
X180227454Y-69344986D01*
X180066383Y-69377025D01*
X179669448Y-69642248D01*
X179602498Y-69742446D01*
X179356000Y-69988944D01*
X179356000Y-60288550D01*
X179808000Y-60288550D01*
X180476376Y-60155602D01*
X181042997Y-59776997D01*
X181176889Y-59576614D01*
X181653621Y-59895156D01*
X182266171Y-60017000D01*
X183179829Y-60017000D01*
X183792379Y-59895156D01*
X184487015Y-59431015D01*
X184951156Y-58736379D01*
X185114141Y-57917000D01*
X184951156Y-57097621D01*
X184487015Y-56402985D01*
X183792379Y-55938844D01*
X183179829Y-55817000D01*
X182266171Y-55817000D01*
X181653621Y-55938844D01*
X181176889Y-56257386D01*
X181042997Y-56057003D01*
X180476376Y-55678398D01*
X179808000Y-55545450D01*
X178558000Y-55545450D01*
X177889624Y-55678398D01*
X177323003Y-56057003D01*
X176944398Y-56623624D01*
X176811450Y-57292000D01*
X176811450Y-58027400D01*
X175292181Y-58027400D01*
X175314141Y-57917000D01*
X175151156Y-57097621D01*
X174687015Y-56402985D01*
X173992379Y-55938844D01*
X173379829Y-55817000D01*
X172466171Y-55817000D01*
X171853621Y-55938844D01*
X171376889Y-56257386D01*
X171242997Y-56057003D01*
X170676376Y-55678398D01*
X170008000Y-55545450D01*
X168758000Y-55545450D01*
X168089624Y-55678398D01*
X167523003Y-56057003D01*
X167144398Y-56623624D01*
X167011450Y-57292000D01*
X167011450Y-58061600D01*
X165485378Y-58061600D01*
X165514141Y-57917000D01*
X165351156Y-57097621D01*
X164887015Y-56402985D01*
X164192379Y-55938844D01*
X163579829Y-55817000D01*
X162666171Y-55817000D01*
X162053621Y-55938844D01*
X161576889Y-56257386D01*
X161442997Y-56057003D01*
X160876376Y-55678398D01*
X160208000Y-55545450D01*
X159347896Y-55545450D01*
X159326270Y-55531000D01*
X200041170Y-55531000D01*
X199879255Y-55639188D01*
G36*
X150878145Y-55638967D02*
X150408000Y-55545450D01*
X149158000Y-55545450D01*
X148489624Y-55678398D01*
X147923003Y-56057003D01*
X147544398Y-56623624D01*
X147411450Y-57292000D01*
X147411450Y-58542000D01*
X147544398Y-59210376D01*
X147923003Y-59776997D01*
X148489624Y-60155602D01*
X148497647Y-60157198D01*
X146235945Y-62418900D01*
X145110588Y-62418900D01*
X144992400Y-62395391D01*
X144874212Y-62418900D01*
X144524183Y-62488525D01*
X144223000Y-62689769D01*
X144223000Y-59968630D01*
X144592379Y-59895156D01*
X145287015Y-59431015D01*
X145751156Y-58736379D01*
X145914141Y-57917000D01*
X145751156Y-57097621D01*
X145287015Y-56402985D01*
X144592379Y-55938844D01*
X143979829Y-55817000D01*
X143066171Y-55817000D01*
X142453621Y-55938844D01*
X141976889Y-56257386D01*
X141842997Y-56057003D01*
X141276376Y-55678398D01*
X140608000Y-55545450D01*
X139358000Y-55545450D01*
X138689624Y-55678398D01*
X138123003Y-56057003D01*
X137744398Y-56623624D01*
X137611450Y-57292000D01*
X137611450Y-58542000D01*
X137744398Y-59210376D01*
X138123003Y-59776997D01*
X138689624Y-60155602D01*
X139358000Y-60288550D01*
X140608000Y-60288550D01*
X141276376Y-60155602D01*
X141823001Y-59790358D01*
X141823000Y-64355244D01*
X138960300Y-67217945D01*
X138960300Y-66423188D01*
X138983809Y-66305000D01*
X138890675Y-65836783D01*
X138625452Y-65439848D01*
X138228517Y-65174625D01*
X138169692Y-65162924D01*
X137879199Y-64968823D01*
X137450000Y-64883450D01*
X135950000Y-64883450D01*
X135520801Y-64968823D01*
X135156944Y-65211944D01*
X135124380Y-65260680D01*
X134792379Y-65038844D01*
X134179829Y-64917000D01*
X133362700Y-64917000D01*
X133362700Y-60017000D01*
X134179829Y-60017000D01*
X134792379Y-59895156D01*
X135487015Y-59431015D01*
X135951156Y-58736379D01*
X136114141Y-57917000D01*
X135951156Y-57097621D01*
X135487015Y-56402985D01*
X134792379Y-55938844D01*
X134179829Y-55817000D01*
X133266171Y-55817000D01*
X132653621Y-55938844D01*
X132176889Y-56257386D01*
X132042997Y-56057003D01*
X131476376Y-55678398D01*
X130808000Y-55545450D01*
X129699000Y-55545450D01*
X129699000Y-55531000D01*
X151039730Y-55531000D01*
X150878145Y-55638967D01*
X150878145Y-55638967D01*
G37*
X150878145Y-55638967D02*
X150408000Y-55545450D01*
X149158000Y-55545450D01*
X148489624Y-55678398D01*
X147923003Y-56057003D01*
X147544398Y-56623624D01*
X147411450Y-57292000D01*
X147411450Y-58542000D01*
X147544398Y-59210376D01*
X147923003Y-59776997D01*
X148489624Y-60155602D01*
X148497647Y-60157198D01*
X146235945Y-62418900D01*
X145110588Y-62418900D01*
X144992400Y-62395391D01*
X144874212Y-62418900D01*
X144524183Y-62488525D01*
X144223000Y-62689769D01*
X144223000Y-59968630D01*
X144592379Y-59895156D01*
X145287015Y-59431015D01*
X145751156Y-58736379D01*
X145914141Y-57917000D01*
X145751156Y-57097621D01*
X145287015Y-56402985D01*
X144592379Y-55938844D01*
X143979829Y-55817000D01*
X143066171Y-55817000D01*
X142453621Y-55938844D01*
X141976889Y-56257386D01*
X141842997Y-56057003D01*
X141276376Y-55678398D01*
X140608000Y-55545450D01*
X139358000Y-55545450D01*
X138689624Y-55678398D01*
X138123003Y-56057003D01*
X137744398Y-56623624D01*
X137611450Y-57292000D01*
X137611450Y-58542000D01*
X137744398Y-59210376D01*
X138123003Y-59776997D01*
X138689624Y-60155602D01*
X139358000Y-60288550D01*
X140608000Y-60288550D01*
X141276376Y-60155602D01*
X141823001Y-59790358D01*
X141823000Y-64355244D01*
X138960300Y-67217945D01*
X138960300Y-66423188D01*
X138983809Y-66305000D01*
X138890675Y-65836783D01*
X138625452Y-65439848D01*
X138228517Y-65174625D01*
X138169692Y-65162924D01*
X137879199Y-64968823D01*
X137450000Y-64883450D01*
X135950000Y-64883450D01*
X135520801Y-64968823D01*
X135156944Y-65211944D01*
X135124380Y-65260680D01*
X134792379Y-65038844D01*
X134179829Y-64917000D01*
X133362700Y-64917000D01*
X133362700Y-60017000D01*
X134179829Y-60017000D01*
X134792379Y-59895156D01*
X135487015Y-59431015D01*
X135951156Y-58736379D01*
X136114141Y-57917000D01*
X135951156Y-57097621D01*
X135487015Y-56402985D01*
X134792379Y-55938844D01*
X134179829Y-55817000D01*
X133266171Y-55817000D01*
X132653621Y-55938844D01*
X132176889Y-56257386D01*
X132042997Y-56057003D01*
X131476376Y-55678398D01*
X130808000Y-55545450D01*
X129699000Y-55545450D01*
X129699000Y-55531000D01*
X151039730Y-55531000D01*
X150878145Y-55638967D01*
G36*
X206211450Y-58542000D02*
X206344398Y-59210376D01*
X206723003Y-59776997D01*
X207289624Y-60155602D01*
X207297646Y-60157198D01*
X201962700Y-65492145D01*
X201962700Y-60017000D01*
X202779829Y-60017000D01*
X203392379Y-59895156D01*
X204087015Y-59431015D01*
X204551156Y-58736379D01*
X204714141Y-57917000D01*
X204691365Y-57802500D01*
X206211450Y-57802500D01*
X206211450Y-58542000D01*
X206211450Y-58542000D01*
G37*
X206211450Y-58542000D02*
X206344398Y-59210376D01*
X206723003Y-59776997D01*
X207289624Y-60155602D01*
X207297646Y-60157198D01*
X201962700Y-65492145D01*
X201962700Y-60017000D01*
X202779829Y-60017000D01*
X203392379Y-59895156D01*
X204087015Y-59431015D01*
X204551156Y-58736379D01*
X204714141Y-57917000D01*
X204691365Y-57802500D01*
X206211450Y-57802500D01*
X206211450Y-58542000D01*
G36*
X211053621Y-59895156D02*
X211666171Y-60017000D01*
X212579829Y-60017000D01*
X212693000Y-59994489D01*
X212693000Y-64939511D01*
X212579829Y-64917000D01*
X211666171Y-64917000D01*
X211053621Y-65038844D01*
X210576889Y-65357386D01*
X210442997Y-65157003D01*
X209876376Y-64778398D01*
X209208000Y-64645450D01*
X207958000Y-64645450D01*
X207289624Y-64778398D01*
X207178992Y-64852320D01*
X206979199Y-64718823D01*
X206550000Y-64633450D01*
X206215505Y-64633450D01*
X210993783Y-59855173D01*
X211053621Y-59895156D01*
X211053621Y-59895156D01*
G37*
X211053621Y-59895156D02*
X211666171Y-60017000D01*
X212579829Y-60017000D01*
X212693000Y-59994489D01*
X212693000Y-64939511D01*
X212579829Y-64917000D01*
X211666171Y-64917000D01*
X211053621Y-65038844D01*
X210576889Y-65357386D01*
X210442997Y-65157003D01*
X209876376Y-64778398D01*
X209208000Y-64645450D01*
X207958000Y-64645450D01*
X207289624Y-64778398D01*
X207178992Y-64852320D01*
X206979199Y-64718823D01*
X206550000Y-64633450D01*
X206215505Y-64633450D01*
X210993783Y-59855173D01*
X211053621Y-59895156D01*
G36*
X212451810Y-55565109D02*
X212547996Y-55617009D01*
X212622186Y-55697267D01*
X212675935Y-55818845D01*
X212678174Y-55836562D01*
X212579829Y-55817000D01*
X211666171Y-55817000D01*
X211053621Y-55938844D01*
X210576889Y-56257386D01*
X210442997Y-56057003D01*
X209876376Y-55678398D01*
X209208000Y-55545450D01*
X208346456Y-55545450D01*
X208324830Y-55531000D01*
X212246883Y-55531000D01*
X212451810Y-55565109D01*
X212451810Y-55565109D01*
G37*
X212451810Y-55565109D02*
X212547996Y-55617009D01*
X212622186Y-55697267D01*
X212675935Y-55818845D01*
X212678174Y-55836562D01*
X212579829Y-55817000D01*
X211666171Y-55817000D01*
X211053621Y-55938844D01*
X210576889Y-56257386D01*
X210442997Y-56057003D01*
X209876376Y-55678398D01*
X209208000Y-55545450D01*
X208346456Y-55545450D01*
X208324830Y-55531000D01*
X212246883Y-55531000D01*
X212451810Y-55565109D01*
M02*
