G04 #@! TF.GenerationSoftware,KiCad,Pcbnew,(5.0.0)*
G04 #@! TF.CreationDate,2019-01-20T21:42:16-05:00*
G04 #@! TF.ProjectId,MiniTempleT,4D696E6954656D706C65542E6B696361,rev?*
G04 #@! TF.SameCoordinates,Original*
G04 #@! TF.FileFunction,Copper,L2,Bot,Signal*
G04 #@! TF.FilePolarity,Positive*
%FSLAX46Y46*%
G04 Gerber Fmt 4.6, Leading zero omitted, Abs format (unit mm)*
G04 Created by KiCad (PCBNEW (5.0.0)) date 01/20/19 21:42:16*
%MOMM*%
%LPD*%
G01*
G04 APERTURE LIST*
G04 #@! TA.AperFunction,ComponentPad*
%ADD10R,1.600000X1.600000*%
G04 #@! TD*
G04 #@! TA.AperFunction,ComponentPad*
%ADD11O,1.600000X1.600000*%
G04 #@! TD*
G04 #@! TA.AperFunction,ComponentPad*
%ADD12C,2.000000*%
G04 #@! TD*
G04 #@! TA.AperFunction,ComponentPad*
%ADD13C,2.500000*%
G04 #@! TD*
G04 #@! TA.AperFunction,ComponentPad*
%ADD14R,1.700000X1.700000*%
G04 #@! TD*
G04 #@! TA.AperFunction,ComponentPad*
%ADD15O,1.700000X1.700000*%
G04 #@! TD*
G04 #@! TA.AperFunction,Conductor*
%ADD16C,0.100000*%
G04 #@! TD*
G04 #@! TA.AperFunction,ComponentPad*
%ADD17O,2.500000X2.000000*%
G04 #@! TD*
G04 #@! TA.AperFunction,ViaPad*
%ADD18C,0.500000*%
G04 #@! TD*
G04 #@! TA.AperFunction,Conductor*
%ADD19C,0.200000*%
G04 #@! TD*
G04 #@! TA.AperFunction,NonConductor*
%ADD20C,0.200000*%
G04 #@! TD*
G04 APERTURE END LIST*
D10*
G04 #@! TO.P,Tiny85,1*
G04 #@! TO.N,Master_Reset*
X167450000Y-133368000D03*
D11*
G04 #@! TO.P,Tiny85,5*
G04 #@! TO.N,Serial_Data*
X175070000Y-140988000D03*
G04 #@! TO.P,Tiny85,2*
G04 #@! TO.N,Output_Enable*
X167450000Y-135908000D03*
G04 #@! TO.P,Tiny85,6*
G04 #@! TO.N,Serial_Clock*
X175070000Y-138448000D03*
G04 #@! TO.P,Tiny85,3*
G04 #@! TO.N,Net-(BTN1-Pad2)*
X167450000Y-138448000D03*
G04 #@! TO.P,Tiny85,7*
G04 #@! TO.N,Reg_Clock*
X175070000Y-135908000D03*
G04 #@! TO.P,Tiny85,4*
G04 #@! TO.N,GND*
X167450000Y-140988000D03*
G04 #@! TO.P,Tiny85,8*
G04 #@! TO.N,Master_Reset*
X175070000Y-133368000D03*
G04 #@! TD*
D12*
G04 #@! TO.P,BTN1,2*
G04 #@! TO.N,Net-(BTN1-Pad2)*
X154215000Y-141040000D03*
G04 #@! TO.P,BTN1,1*
G04 #@! TO.N,GND*
X154215000Y-136540000D03*
G04 #@! TO.P,BTN1,2*
G04 #@! TO.N,Net-(BTN1-Pad2)*
X160715000Y-141040000D03*
G04 #@! TO.P,BTN1,1*
G04 #@! TO.N,GND*
X160715000Y-136540000D03*
G04 #@! TD*
D13*
G04 #@! TO.P,Battery1,1*
G04 #@! TO.N,GND*
X171196000Y-99569000D03*
G04 #@! TO.P,Battery1,2*
G04 #@! TO.N,Net-(Battery1-Pad2)*
X171196000Y-119069000D03*
G04 #@! TD*
D14*
G04 #@! TO.P,Power1,1*
G04 #@! TO.N,GND*
X169799000Y-105537000D03*
D15*
G04 #@! TO.P,Power1,2*
G04 #@! TO.N,Net-(Battery1-Pad2)*
X172339000Y-105537000D03*
G04 #@! TD*
D16*
G04 #@! TO.N,GND*
G04 #@! TO.C,D1*
G36*
X130869261Y-83970010D02*
X130929931Y-83979009D01*
X130989428Y-83993912D01*
X131047177Y-84014575D01*
X131102623Y-84040799D01*
X131155231Y-84072331D01*
X131204496Y-84108868D01*
X131249942Y-84150058D01*
X131291132Y-84195504D01*
X131327669Y-84244769D01*
X131359201Y-84297377D01*
X131385425Y-84352823D01*
X131406088Y-84410572D01*
X131420991Y-84470069D01*
X131429990Y-84530739D01*
X131433000Y-84592000D01*
X131433000Y-85842000D01*
X131429990Y-85903261D01*
X131420991Y-85963931D01*
X131406088Y-86023428D01*
X131385425Y-86081177D01*
X131359201Y-86136623D01*
X131327669Y-86189231D01*
X131291132Y-86238496D01*
X131249942Y-86283942D01*
X131204496Y-86325132D01*
X131155231Y-86361669D01*
X131102623Y-86393201D01*
X131047177Y-86419425D01*
X130989428Y-86440088D01*
X130929931Y-86454991D01*
X130869261Y-86463990D01*
X130808000Y-86467000D01*
X129558000Y-86467000D01*
X129496739Y-86463990D01*
X129436069Y-86454991D01*
X129376572Y-86440088D01*
X129318823Y-86419425D01*
X129263377Y-86393201D01*
X129210769Y-86361669D01*
X129161504Y-86325132D01*
X129116058Y-86283942D01*
X129074868Y-86238496D01*
X129038331Y-86189231D01*
X129006799Y-86136623D01*
X128980575Y-86081177D01*
X128959912Y-86023428D01*
X128945009Y-85963931D01*
X128936010Y-85903261D01*
X128933000Y-85842000D01*
X128933000Y-84592000D01*
X128936010Y-84530739D01*
X128945009Y-84470069D01*
X128959912Y-84410572D01*
X128980575Y-84352823D01*
X129006799Y-84297377D01*
X129038331Y-84244769D01*
X129074868Y-84195504D01*
X129116058Y-84150058D01*
X129161504Y-84108868D01*
X129210769Y-84072331D01*
X129263377Y-84040799D01*
X129318823Y-84014575D01*
X129376572Y-83993912D01*
X129436069Y-83979009D01*
X129496739Y-83970010D01*
X129558000Y-83967000D01*
X130808000Y-83967000D01*
X130869261Y-83970010D01*
X130869261Y-83970010D01*
G37*
D13*
G04 #@! TD*
G04 #@! TO.P,D1,1*
G04 #@! TO.N,GND*
X130183000Y-85217000D03*
D17*
G04 #@! TO.P,D1,2*
G04 #@! TO.N,Net-(D1-Pad2)*
X133723000Y-85217000D03*
G04 #@! TD*
G04 #@! TO.P,D2,2*
G04 #@! TO.N,Net-(D2-Pad2)*
X133723000Y-76117000D03*
D16*
G04 #@! TD*
G04 #@! TO.N,GND*
G04 #@! TO.C,D2*
G36*
X130869261Y-74870010D02*
X130929931Y-74879009D01*
X130989428Y-74893912D01*
X131047177Y-74914575D01*
X131102623Y-74940799D01*
X131155231Y-74972331D01*
X131204496Y-75008868D01*
X131249942Y-75050058D01*
X131291132Y-75095504D01*
X131327669Y-75144769D01*
X131359201Y-75197377D01*
X131385425Y-75252823D01*
X131406088Y-75310572D01*
X131420991Y-75370069D01*
X131429990Y-75430739D01*
X131433000Y-75492000D01*
X131433000Y-76742000D01*
X131429990Y-76803261D01*
X131420991Y-76863931D01*
X131406088Y-76923428D01*
X131385425Y-76981177D01*
X131359201Y-77036623D01*
X131327669Y-77089231D01*
X131291132Y-77138496D01*
X131249942Y-77183942D01*
X131204496Y-77225132D01*
X131155231Y-77261669D01*
X131102623Y-77293201D01*
X131047177Y-77319425D01*
X130989428Y-77340088D01*
X130929931Y-77354991D01*
X130869261Y-77363990D01*
X130808000Y-77367000D01*
X129558000Y-77367000D01*
X129496739Y-77363990D01*
X129436069Y-77354991D01*
X129376572Y-77340088D01*
X129318823Y-77319425D01*
X129263377Y-77293201D01*
X129210769Y-77261669D01*
X129161504Y-77225132D01*
X129116058Y-77183942D01*
X129074868Y-77138496D01*
X129038331Y-77089231D01*
X129006799Y-77036623D01*
X128980575Y-76981177D01*
X128959912Y-76923428D01*
X128945009Y-76863931D01*
X128936010Y-76803261D01*
X128933000Y-76742000D01*
X128933000Y-75492000D01*
X128936010Y-75430739D01*
X128945009Y-75370069D01*
X128959912Y-75310572D01*
X128980575Y-75252823D01*
X129006799Y-75197377D01*
X129038331Y-75144769D01*
X129074868Y-75095504D01*
X129116058Y-75050058D01*
X129161504Y-75008868D01*
X129210769Y-74972331D01*
X129263377Y-74940799D01*
X129318823Y-74914575D01*
X129376572Y-74893912D01*
X129436069Y-74879009D01*
X129496739Y-74870010D01*
X129558000Y-74867000D01*
X130808000Y-74867000D01*
X130869261Y-74870010D01*
X130869261Y-74870010D01*
G37*
D13*
G04 #@! TO.P,D2,1*
G04 #@! TO.N,GND*
X130183000Y-76117000D03*
G04 #@! TD*
D17*
G04 #@! TO.P,D3,2*
G04 #@! TO.N,Net-(D3-Pad2)*
X133723000Y-67017000D03*
D16*
G04 #@! TD*
G04 #@! TO.N,GND*
G04 #@! TO.C,D3*
G36*
X130869261Y-65770010D02*
X130929931Y-65779009D01*
X130989428Y-65793912D01*
X131047177Y-65814575D01*
X131102623Y-65840799D01*
X131155231Y-65872331D01*
X131204496Y-65908868D01*
X131249942Y-65950058D01*
X131291132Y-65995504D01*
X131327669Y-66044769D01*
X131359201Y-66097377D01*
X131385425Y-66152823D01*
X131406088Y-66210572D01*
X131420991Y-66270069D01*
X131429990Y-66330739D01*
X131433000Y-66392000D01*
X131433000Y-67642000D01*
X131429990Y-67703261D01*
X131420991Y-67763931D01*
X131406088Y-67823428D01*
X131385425Y-67881177D01*
X131359201Y-67936623D01*
X131327669Y-67989231D01*
X131291132Y-68038496D01*
X131249942Y-68083942D01*
X131204496Y-68125132D01*
X131155231Y-68161669D01*
X131102623Y-68193201D01*
X131047177Y-68219425D01*
X130989428Y-68240088D01*
X130929931Y-68254991D01*
X130869261Y-68263990D01*
X130808000Y-68267000D01*
X129558000Y-68267000D01*
X129496739Y-68263990D01*
X129436069Y-68254991D01*
X129376572Y-68240088D01*
X129318823Y-68219425D01*
X129263377Y-68193201D01*
X129210769Y-68161669D01*
X129161504Y-68125132D01*
X129116058Y-68083942D01*
X129074868Y-68038496D01*
X129038331Y-67989231D01*
X129006799Y-67936623D01*
X128980575Y-67881177D01*
X128959912Y-67823428D01*
X128945009Y-67763931D01*
X128936010Y-67703261D01*
X128933000Y-67642000D01*
X128933000Y-66392000D01*
X128936010Y-66330739D01*
X128945009Y-66270069D01*
X128959912Y-66210572D01*
X128980575Y-66152823D01*
X129006799Y-66097377D01*
X129038331Y-66044769D01*
X129074868Y-65995504D01*
X129116058Y-65950058D01*
X129161504Y-65908868D01*
X129210769Y-65872331D01*
X129263377Y-65840799D01*
X129318823Y-65814575D01*
X129376572Y-65793912D01*
X129436069Y-65779009D01*
X129496739Y-65770010D01*
X129558000Y-65767000D01*
X130808000Y-65767000D01*
X130869261Y-65770010D01*
X130869261Y-65770010D01*
G37*
D13*
G04 #@! TO.P,D3,1*
G04 #@! TO.N,GND*
X130183000Y-67017000D03*
G04 #@! TD*
D17*
G04 #@! TO.P,D4,2*
G04 #@! TO.N,Net-(D4-Pad2)*
X133723000Y-57917000D03*
D16*
G04 #@! TD*
G04 #@! TO.N,GND*
G04 #@! TO.C,D4*
G36*
X130869261Y-56670010D02*
X130929931Y-56679009D01*
X130989428Y-56693912D01*
X131047177Y-56714575D01*
X131102623Y-56740799D01*
X131155231Y-56772331D01*
X131204496Y-56808868D01*
X131249942Y-56850058D01*
X131291132Y-56895504D01*
X131327669Y-56944769D01*
X131359201Y-56997377D01*
X131385425Y-57052823D01*
X131406088Y-57110572D01*
X131420991Y-57170069D01*
X131429990Y-57230739D01*
X131433000Y-57292000D01*
X131433000Y-58542000D01*
X131429990Y-58603261D01*
X131420991Y-58663931D01*
X131406088Y-58723428D01*
X131385425Y-58781177D01*
X131359201Y-58836623D01*
X131327669Y-58889231D01*
X131291132Y-58938496D01*
X131249942Y-58983942D01*
X131204496Y-59025132D01*
X131155231Y-59061669D01*
X131102623Y-59093201D01*
X131047177Y-59119425D01*
X130989428Y-59140088D01*
X130929931Y-59154991D01*
X130869261Y-59163990D01*
X130808000Y-59167000D01*
X129558000Y-59167000D01*
X129496739Y-59163990D01*
X129436069Y-59154991D01*
X129376572Y-59140088D01*
X129318823Y-59119425D01*
X129263377Y-59093201D01*
X129210769Y-59061669D01*
X129161504Y-59025132D01*
X129116058Y-58983942D01*
X129074868Y-58938496D01*
X129038331Y-58889231D01*
X129006799Y-58836623D01*
X128980575Y-58781177D01*
X128959912Y-58723428D01*
X128945009Y-58663931D01*
X128936010Y-58603261D01*
X128933000Y-58542000D01*
X128933000Y-57292000D01*
X128936010Y-57230739D01*
X128945009Y-57170069D01*
X128959912Y-57110572D01*
X128980575Y-57052823D01*
X129006799Y-56997377D01*
X129038331Y-56944769D01*
X129074868Y-56895504D01*
X129116058Y-56850058D01*
X129161504Y-56808868D01*
X129210769Y-56772331D01*
X129263377Y-56740799D01*
X129318823Y-56714575D01*
X129376572Y-56693912D01*
X129436069Y-56679009D01*
X129496739Y-56670010D01*
X129558000Y-56667000D01*
X130808000Y-56667000D01*
X130869261Y-56670010D01*
X130869261Y-56670010D01*
G37*
D13*
G04 #@! TO.P,D4,1*
G04 #@! TO.N,GND*
X130183000Y-57917000D03*
G04 #@! TD*
D16*
G04 #@! TO.N,GND*
G04 #@! TO.C,D5*
G36*
X140669261Y-56670010D02*
X140729931Y-56679009D01*
X140789428Y-56693912D01*
X140847177Y-56714575D01*
X140902623Y-56740799D01*
X140955231Y-56772331D01*
X141004496Y-56808868D01*
X141049942Y-56850058D01*
X141091132Y-56895504D01*
X141127669Y-56944769D01*
X141159201Y-56997377D01*
X141185425Y-57052823D01*
X141206088Y-57110572D01*
X141220991Y-57170069D01*
X141229990Y-57230739D01*
X141233000Y-57292000D01*
X141233000Y-58542000D01*
X141229990Y-58603261D01*
X141220991Y-58663931D01*
X141206088Y-58723428D01*
X141185425Y-58781177D01*
X141159201Y-58836623D01*
X141127669Y-58889231D01*
X141091132Y-58938496D01*
X141049942Y-58983942D01*
X141004496Y-59025132D01*
X140955231Y-59061669D01*
X140902623Y-59093201D01*
X140847177Y-59119425D01*
X140789428Y-59140088D01*
X140729931Y-59154991D01*
X140669261Y-59163990D01*
X140608000Y-59167000D01*
X139358000Y-59167000D01*
X139296739Y-59163990D01*
X139236069Y-59154991D01*
X139176572Y-59140088D01*
X139118823Y-59119425D01*
X139063377Y-59093201D01*
X139010769Y-59061669D01*
X138961504Y-59025132D01*
X138916058Y-58983942D01*
X138874868Y-58938496D01*
X138838331Y-58889231D01*
X138806799Y-58836623D01*
X138780575Y-58781177D01*
X138759912Y-58723428D01*
X138745009Y-58663931D01*
X138736010Y-58603261D01*
X138733000Y-58542000D01*
X138733000Y-57292000D01*
X138736010Y-57230739D01*
X138745009Y-57170069D01*
X138759912Y-57110572D01*
X138780575Y-57052823D01*
X138806799Y-56997377D01*
X138838331Y-56944769D01*
X138874868Y-56895504D01*
X138916058Y-56850058D01*
X138961504Y-56808868D01*
X139010769Y-56772331D01*
X139063377Y-56740799D01*
X139118823Y-56714575D01*
X139176572Y-56693912D01*
X139236069Y-56679009D01*
X139296739Y-56670010D01*
X139358000Y-56667000D01*
X140608000Y-56667000D01*
X140669261Y-56670010D01*
X140669261Y-56670010D01*
G37*
D13*
G04 #@! TD*
G04 #@! TO.P,D5,1*
G04 #@! TO.N,GND*
X139983000Y-57917000D03*
D17*
G04 #@! TO.P,D5,2*
G04 #@! TO.N,Net-(D5-Pad2)*
X143523000Y-57917000D03*
G04 #@! TD*
G04 #@! TO.P,D6,2*
G04 #@! TO.N,Net-(D6-Pad2)*
X153323000Y-57917000D03*
D16*
G04 #@! TD*
G04 #@! TO.N,GND*
G04 #@! TO.C,D6*
G36*
X150469261Y-56670010D02*
X150529931Y-56679009D01*
X150589428Y-56693912D01*
X150647177Y-56714575D01*
X150702623Y-56740799D01*
X150755231Y-56772331D01*
X150804496Y-56808868D01*
X150849942Y-56850058D01*
X150891132Y-56895504D01*
X150927669Y-56944769D01*
X150959201Y-56997377D01*
X150985425Y-57052823D01*
X151006088Y-57110572D01*
X151020991Y-57170069D01*
X151029990Y-57230739D01*
X151033000Y-57292000D01*
X151033000Y-58542000D01*
X151029990Y-58603261D01*
X151020991Y-58663931D01*
X151006088Y-58723428D01*
X150985425Y-58781177D01*
X150959201Y-58836623D01*
X150927669Y-58889231D01*
X150891132Y-58938496D01*
X150849942Y-58983942D01*
X150804496Y-59025132D01*
X150755231Y-59061669D01*
X150702623Y-59093201D01*
X150647177Y-59119425D01*
X150589428Y-59140088D01*
X150529931Y-59154991D01*
X150469261Y-59163990D01*
X150408000Y-59167000D01*
X149158000Y-59167000D01*
X149096739Y-59163990D01*
X149036069Y-59154991D01*
X148976572Y-59140088D01*
X148918823Y-59119425D01*
X148863377Y-59093201D01*
X148810769Y-59061669D01*
X148761504Y-59025132D01*
X148716058Y-58983942D01*
X148674868Y-58938496D01*
X148638331Y-58889231D01*
X148606799Y-58836623D01*
X148580575Y-58781177D01*
X148559912Y-58723428D01*
X148545009Y-58663931D01*
X148536010Y-58603261D01*
X148533000Y-58542000D01*
X148533000Y-57292000D01*
X148536010Y-57230739D01*
X148545009Y-57170069D01*
X148559912Y-57110572D01*
X148580575Y-57052823D01*
X148606799Y-56997377D01*
X148638331Y-56944769D01*
X148674868Y-56895504D01*
X148716058Y-56850058D01*
X148761504Y-56808868D01*
X148810769Y-56772331D01*
X148863377Y-56740799D01*
X148918823Y-56714575D01*
X148976572Y-56693912D01*
X149036069Y-56679009D01*
X149096739Y-56670010D01*
X149158000Y-56667000D01*
X150408000Y-56667000D01*
X150469261Y-56670010D01*
X150469261Y-56670010D01*
G37*
D13*
G04 #@! TO.P,D6,1*
G04 #@! TO.N,GND*
X149783000Y-57917000D03*
G04 #@! TD*
D16*
G04 #@! TO.N,GND*
G04 #@! TO.C,D7*
G36*
X160269261Y-56670010D02*
X160329931Y-56679009D01*
X160389428Y-56693912D01*
X160447177Y-56714575D01*
X160502623Y-56740799D01*
X160555231Y-56772331D01*
X160604496Y-56808868D01*
X160649942Y-56850058D01*
X160691132Y-56895504D01*
X160727669Y-56944769D01*
X160759201Y-56997377D01*
X160785425Y-57052823D01*
X160806088Y-57110572D01*
X160820991Y-57170069D01*
X160829990Y-57230739D01*
X160833000Y-57292000D01*
X160833000Y-58542000D01*
X160829990Y-58603261D01*
X160820991Y-58663931D01*
X160806088Y-58723428D01*
X160785425Y-58781177D01*
X160759201Y-58836623D01*
X160727669Y-58889231D01*
X160691132Y-58938496D01*
X160649942Y-58983942D01*
X160604496Y-59025132D01*
X160555231Y-59061669D01*
X160502623Y-59093201D01*
X160447177Y-59119425D01*
X160389428Y-59140088D01*
X160329931Y-59154991D01*
X160269261Y-59163990D01*
X160208000Y-59167000D01*
X158958000Y-59167000D01*
X158896739Y-59163990D01*
X158836069Y-59154991D01*
X158776572Y-59140088D01*
X158718823Y-59119425D01*
X158663377Y-59093201D01*
X158610769Y-59061669D01*
X158561504Y-59025132D01*
X158516058Y-58983942D01*
X158474868Y-58938496D01*
X158438331Y-58889231D01*
X158406799Y-58836623D01*
X158380575Y-58781177D01*
X158359912Y-58723428D01*
X158345009Y-58663931D01*
X158336010Y-58603261D01*
X158333000Y-58542000D01*
X158333000Y-57292000D01*
X158336010Y-57230739D01*
X158345009Y-57170069D01*
X158359912Y-57110572D01*
X158380575Y-57052823D01*
X158406799Y-56997377D01*
X158438331Y-56944769D01*
X158474868Y-56895504D01*
X158516058Y-56850058D01*
X158561504Y-56808868D01*
X158610769Y-56772331D01*
X158663377Y-56740799D01*
X158718823Y-56714575D01*
X158776572Y-56693912D01*
X158836069Y-56679009D01*
X158896739Y-56670010D01*
X158958000Y-56667000D01*
X160208000Y-56667000D01*
X160269261Y-56670010D01*
X160269261Y-56670010D01*
G37*
D13*
G04 #@! TD*
G04 #@! TO.P,D7,1*
G04 #@! TO.N,GND*
X159583000Y-57917000D03*
D17*
G04 #@! TO.P,D7,2*
G04 #@! TO.N,Net-(D7-Pad2)*
X163123000Y-57917000D03*
G04 #@! TD*
D16*
G04 #@! TO.N,GND*
G04 #@! TO.C,D8*
G36*
X170069261Y-56670010D02*
X170129931Y-56679009D01*
X170189428Y-56693912D01*
X170247177Y-56714575D01*
X170302623Y-56740799D01*
X170355231Y-56772331D01*
X170404496Y-56808868D01*
X170449942Y-56850058D01*
X170491132Y-56895504D01*
X170527669Y-56944769D01*
X170559201Y-56997377D01*
X170585425Y-57052823D01*
X170606088Y-57110572D01*
X170620991Y-57170069D01*
X170629990Y-57230739D01*
X170633000Y-57292000D01*
X170633000Y-58542000D01*
X170629990Y-58603261D01*
X170620991Y-58663931D01*
X170606088Y-58723428D01*
X170585425Y-58781177D01*
X170559201Y-58836623D01*
X170527669Y-58889231D01*
X170491132Y-58938496D01*
X170449942Y-58983942D01*
X170404496Y-59025132D01*
X170355231Y-59061669D01*
X170302623Y-59093201D01*
X170247177Y-59119425D01*
X170189428Y-59140088D01*
X170129931Y-59154991D01*
X170069261Y-59163990D01*
X170008000Y-59167000D01*
X168758000Y-59167000D01*
X168696739Y-59163990D01*
X168636069Y-59154991D01*
X168576572Y-59140088D01*
X168518823Y-59119425D01*
X168463377Y-59093201D01*
X168410769Y-59061669D01*
X168361504Y-59025132D01*
X168316058Y-58983942D01*
X168274868Y-58938496D01*
X168238331Y-58889231D01*
X168206799Y-58836623D01*
X168180575Y-58781177D01*
X168159912Y-58723428D01*
X168145009Y-58663931D01*
X168136010Y-58603261D01*
X168133000Y-58542000D01*
X168133000Y-57292000D01*
X168136010Y-57230739D01*
X168145009Y-57170069D01*
X168159912Y-57110572D01*
X168180575Y-57052823D01*
X168206799Y-56997377D01*
X168238331Y-56944769D01*
X168274868Y-56895504D01*
X168316058Y-56850058D01*
X168361504Y-56808868D01*
X168410769Y-56772331D01*
X168463377Y-56740799D01*
X168518823Y-56714575D01*
X168576572Y-56693912D01*
X168636069Y-56679009D01*
X168696739Y-56670010D01*
X168758000Y-56667000D01*
X170008000Y-56667000D01*
X170069261Y-56670010D01*
X170069261Y-56670010D01*
G37*
D13*
G04 #@! TD*
G04 #@! TO.P,D8,1*
G04 #@! TO.N,GND*
X169383000Y-57917000D03*
D17*
G04 #@! TO.P,D8,2*
G04 #@! TO.N,Net-(D8-Pad2)*
X172923000Y-57917000D03*
G04 #@! TD*
G04 #@! TO.P,D9,2*
G04 #@! TO.N,Net-(D9-Pad2)*
X182723000Y-57917000D03*
D16*
G04 #@! TD*
G04 #@! TO.N,GND*
G04 #@! TO.C,D9*
G36*
X179869261Y-56670010D02*
X179929931Y-56679009D01*
X179989428Y-56693912D01*
X180047177Y-56714575D01*
X180102623Y-56740799D01*
X180155231Y-56772331D01*
X180204496Y-56808868D01*
X180249942Y-56850058D01*
X180291132Y-56895504D01*
X180327669Y-56944769D01*
X180359201Y-56997377D01*
X180385425Y-57052823D01*
X180406088Y-57110572D01*
X180420991Y-57170069D01*
X180429990Y-57230739D01*
X180433000Y-57292000D01*
X180433000Y-58542000D01*
X180429990Y-58603261D01*
X180420991Y-58663931D01*
X180406088Y-58723428D01*
X180385425Y-58781177D01*
X180359201Y-58836623D01*
X180327669Y-58889231D01*
X180291132Y-58938496D01*
X180249942Y-58983942D01*
X180204496Y-59025132D01*
X180155231Y-59061669D01*
X180102623Y-59093201D01*
X180047177Y-59119425D01*
X179989428Y-59140088D01*
X179929931Y-59154991D01*
X179869261Y-59163990D01*
X179808000Y-59167000D01*
X178558000Y-59167000D01*
X178496739Y-59163990D01*
X178436069Y-59154991D01*
X178376572Y-59140088D01*
X178318823Y-59119425D01*
X178263377Y-59093201D01*
X178210769Y-59061669D01*
X178161504Y-59025132D01*
X178116058Y-58983942D01*
X178074868Y-58938496D01*
X178038331Y-58889231D01*
X178006799Y-58836623D01*
X177980575Y-58781177D01*
X177959912Y-58723428D01*
X177945009Y-58663931D01*
X177936010Y-58603261D01*
X177933000Y-58542000D01*
X177933000Y-57292000D01*
X177936010Y-57230739D01*
X177945009Y-57170069D01*
X177959912Y-57110572D01*
X177980575Y-57052823D01*
X178006799Y-56997377D01*
X178038331Y-56944769D01*
X178074868Y-56895504D01*
X178116058Y-56850058D01*
X178161504Y-56808868D01*
X178210769Y-56772331D01*
X178263377Y-56740799D01*
X178318823Y-56714575D01*
X178376572Y-56693912D01*
X178436069Y-56679009D01*
X178496739Y-56670010D01*
X178558000Y-56667000D01*
X179808000Y-56667000D01*
X179869261Y-56670010D01*
X179869261Y-56670010D01*
G37*
D13*
G04 #@! TO.P,D9,1*
G04 #@! TO.N,GND*
X179183000Y-57917000D03*
G04 #@! TD*
D17*
G04 #@! TO.P,D10,2*
G04 #@! TO.N,Net-(D10-Pad2)*
X192523000Y-57917000D03*
D16*
G04 #@! TD*
G04 #@! TO.N,GND*
G04 #@! TO.C,D10*
G36*
X189669261Y-56670010D02*
X189729931Y-56679009D01*
X189789428Y-56693912D01*
X189847177Y-56714575D01*
X189902623Y-56740799D01*
X189955231Y-56772331D01*
X190004496Y-56808868D01*
X190049942Y-56850058D01*
X190091132Y-56895504D01*
X190127669Y-56944769D01*
X190159201Y-56997377D01*
X190185425Y-57052823D01*
X190206088Y-57110572D01*
X190220991Y-57170069D01*
X190229990Y-57230739D01*
X190233000Y-57292000D01*
X190233000Y-58542000D01*
X190229990Y-58603261D01*
X190220991Y-58663931D01*
X190206088Y-58723428D01*
X190185425Y-58781177D01*
X190159201Y-58836623D01*
X190127669Y-58889231D01*
X190091132Y-58938496D01*
X190049942Y-58983942D01*
X190004496Y-59025132D01*
X189955231Y-59061669D01*
X189902623Y-59093201D01*
X189847177Y-59119425D01*
X189789428Y-59140088D01*
X189729931Y-59154991D01*
X189669261Y-59163990D01*
X189608000Y-59167000D01*
X188358000Y-59167000D01*
X188296739Y-59163990D01*
X188236069Y-59154991D01*
X188176572Y-59140088D01*
X188118823Y-59119425D01*
X188063377Y-59093201D01*
X188010769Y-59061669D01*
X187961504Y-59025132D01*
X187916058Y-58983942D01*
X187874868Y-58938496D01*
X187838331Y-58889231D01*
X187806799Y-58836623D01*
X187780575Y-58781177D01*
X187759912Y-58723428D01*
X187745009Y-58663931D01*
X187736010Y-58603261D01*
X187733000Y-58542000D01*
X187733000Y-57292000D01*
X187736010Y-57230739D01*
X187745009Y-57170069D01*
X187759912Y-57110572D01*
X187780575Y-57052823D01*
X187806799Y-56997377D01*
X187838331Y-56944769D01*
X187874868Y-56895504D01*
X187916058Y-56850058D01*
X187961504Y-56808868D01*
X188010769Y-56772331D01*
X188063377Y-56740799D01*
X188118823Y-56714575D01*
X188176572Y-56693912D01*
X188236069Y-56679009D01*
X188296739Y-56670010D01*
X188358000Y-56667000D01*
X189608000Y-56667000D01*
X189669261Y-56670010D01*
X189669261Y-56670010D01*
G37*
D13*
G04 #@! TO.P,D10,1*
G04 #@! TO.N,GND*
X188983000Y-57917000D03*
G04 #@! TD*
D16*
G04 #@! TO.N,GND*
G04 #@! TO.C,D11*
G36*
X199469261Y-56670010D02*
X199529931Y-56679009D01*
X199589428Y-56693912D01*
X199647177Y-56714575D01*
X199702623Y-56740799D01*
X199755231Y-56772331D01*
X199804496Y-56808868D01*
X199849942Y-56850058D01*
X199891132Y-56895504D01*
X199927669Y-56944769D01*
X199959201Y-56997377D01*
X199985425Y-57052823D01*
X200006088Y-57110572D01*
X200020991Y-57170069D01*
X200029990Y-57230739D01*
X200033000Y-57292000D01*
X200033000Y-58542000D01*
X200029990Y-58603261D01*
X200020991Y-58663931D01*
X200006088Y-58723428D01*
X199985425Y-58781177D01*
X199959201Y-58836623D01*
X199927669Y-58889231D01*
X199891132Y-58938496D01*
X199849942Y-58983942D01*
X199804496Y-59025132D01*
X199755231Y-59061669D01*
X199702623Y-59093201D01*
X199647177Y-59119425D01*
X199589428Y-59140088D01*
X199529931Y-59154991D01*
X199469261Y-59163990D01*
X199408000Y-59167000D01*
X198158000Y-59167000D01*
X198096739Y-59163990D01*
X198036069Y-59154991D01*
X197976572Y-59140088D01*
X197918823Y-59119425D01*
X197863377Y-59093201D01*
X197810769Y-59061669D01*
X197761504Y-59025132D01*
X197716058Y-58983942D01*
X197674868Y-58938496D01*
X197638331Y-58889231D01*
X197606799Y-58836623D01*
X197580575Y-58781177D01*
X197559912Y-58723428D01*
X197545009Y-58663931D01*
X197536010Y-58603261D01*
X197533000Y-58542000D01*
X197533000Y-57292000D01*
X197536010Y-57230739D01*
X197545009Y-57170069D01*
X197559912Y-57110572D01*
X197580575Y-57052823D01*
X197606799Y-56997377D01*
X197638331Y-56944769D01*
X197674868Y-56895504D01*
X197716058Y-56850058D01*
X197761504Y-56808868D01*
X197810769Y-56772331D01*
X197863377Y-56740799D01*
X197918823Y-56714575D01*
X197976572Y-56693912D01*
X198036069Y-56679009D01*
X198096739Y-56670010D01*
X198158000Y-56667000D01*
X199408000Y-56667000D01*
X199469261Y-56670010D01*
X199469261Y-56670010D01*
G37*
D13*
G04 #@! TD*
G04 #@! TO.P,D11,1*
G04 #@! TO.N,GND*
X198783000Y-57917000D03*
D17*
G04 #@! TO.P,D11,2*
G04 #@! TO.N,Net-(D11-Pad2)*
X202323000Y-57917000D03*
G04 #@! TD*
G04 #@! TO.P,D12,2*
G04 #@! TO.N,Net-(D12-Pad2)*
X212123000Y-57917000D03*
D16*
G04 #@! TD*
G04 #@! TO.N,GND*
G04 #@! TO.C,D12*
G36*
X209269261Y-56670010D02*
X209329931Y-56679009D01*
X209389428Y-56693912D01*
X209447177Y-56714575D01*
X209502623Y-56740799D01*
X209555231Y-56772331D01*
X209604496Y-56808868D01*
X209649942Y-56850058D01*
X209691132Y-56895504D01*
X209727669Y-56944769D01*
X209759201Y-56997377D01*
X209785425Y-57052823D01*
X209806088Y-57110572D01*
X209820991Y-57170069D01*
X209829990Y-57230739D01*
X209833000Y-57292000D01*
X209833000Y-58542000D01*
X209829990Y-58603261D01*
X209820991Y-58663931D01*
X209806088Y-58723428D01*
X209785425Y-58781177D01*
X209759201Y-58836623D01*
X209727669Y-58889231D01*
X209691132Y-58938496D01*
X209649942Y-58983942D01*
X209604496Y-59025132D01*
X209555231Y-59061669D01*
X209502623Y-59093201D01*
X209447177Y-59119425D01*
X209389428Y-59140088D01*
X209329931Y-59154991D01*
X209269261Y-59163990D01*
X209208000Y-59167000D01*
X207958000Y-59167000D01*
X207896739Y-59163990D01*
X207836069Y-59154991D01*
X207776572Y-59140088D01*
X207718823Y-59119425D01*
X207663377Y-59093201D01*
X207610769Y-59061669D01*
X207561504Y-59025132D01*
X207516058Y-58983942D01*
X207474868Y-58938496D01*
X207438331Y-58889231D01*
X207406799Y-58836623D01*
X207380575Y-58781177D01*
X207359912Y-58723428D01*
X207345009Y-58663931D01*
X207336010Y-58603261D01*
X207333000Y-58542000D01*
X207333000Y-57292000D01*
X207336010Y-57230739D01*
X207345009Y-57170069D01*
X207359912Y-57110572D01*
X207380575Y-57052823D01*
X207406799Y-56997377D01*
X207438331Y-56944769D01*
X207474868Y-56895504D01*
X207516058Y-56850058D01*
X207561504Y-56808868D01*
X207610769Y-56772331D01*
X207663377Y-56740799D01*
X207718823Y-56714575D01*
X207776572Y-56693912D01*
X207836069Y-56679009D01*
X207896739Y-56670010D01*
X207958000Y-56667000D01*
X209208000Y-56667000D01*
X209269261Y-56670010D01*
X209269261Y-56670010D01*
G37*
D13*
G04 #@! TO.P,D12,1*
G04 #@! TO.N,GND*
X208583000Y-57917000D03*
G04 #@! TD*
D16*
G04 #@! TO.N,GND*
G04 #@! TO.C,D13*
G36*
X209269261Y-65770010D02*
X209329931Y-65779009D01*
X209389428Y-65793912D01*
X209447177Y-65814575D01*
X209502623Y-65840799D01*
X209555231Y-65872331D01*
X209604496Y-65908868D01*
X209649942Y-65950058D01*
X209691132Y-65995504D01*
X209727669Y-66044769D01*
X209759201Y-66097377D01*
X209785425Y-66152823D01*
X209806088Y-66210572D01*
X209820991Y-66270069D01*
X209829990Y-66330739D01*
X209833000Y-66392000D01*
X209833000Y-67642000D01*
X209829990Y-67703261D01*
X209820991Y-67763931D01*
X209806088Y-67823428D01*
X209785425Y-67881177D01*
X209759201Y-67936623D01*
X209727669Y-67989231D01*
X209691132Y-68038496D01*
X209649942Y-68083942D01*
X209604496Y-68125132D01*
X209555231Y-68161669D01*
X209502623Y-68193201D01*
X209447177Y-68219425D01*
X209389428Y-68240088D01*
X209329931Y-68254991D01*
X209269261Y-68263990D01*
X209208000Y-68267000D01*
X207958000Y-68267000D01*
X207896739Y-68263990D01*
X207836069Y-68254991D01*
X207776572Y-68240088D01*
X207718823Y-68219425D01*
X207663377Y-68193201D01*
X207610769Y-68161669D01*
X207561504Y-68125132D01*
X207516058Y-68083942D01*
X207474868Y-68038496D01*
X207438331Y-67989231D01*
X207406799Y-67936623D01*
X207380575Y-67881177D01*
X207359912Y-67823428D01*
X207345009Y-67763931D01*
X207336010Y-67703261D01*
X207333000Y-67642000D01*
X207333000Y-66392000D01*
X207336010Y-66330739D01*
X207345009Y-66270069D01*
X207359912Y-66210572D01*
X207380575Y-66152823D01*
X207406799Y-66097377D01*
X207438331Y-66044769D01*
X207474868Y-65995504D01*
X207516058Y-65950058D01*
X207561504Y-65908868D01*
X207610769Y-65872331D01*
X207663377Y-65840799D01*
X207718823Y-65814575D01*
X207776572Y-65793912D01*
X207836069Y-65779009D01*
X207896739Y-65770010D01*
X207958000Y-65767000D01*
X209208000Y-65767000D01*
X209269261Y-65770010D01*
X209269261Y-65770010D01*
G37*
D13*
G04 #@! TD*
G04 #@! TO.P,D13,1*
G04 #@! TO.N,GND*
X208583000Y-67017000D03*
D17*
G04 #@! TO.P,D13,2*
G04 #@! TO.N,Net-(D13-Pad2)*
X212123000Y-67017000D03*
G04 #@! TD*
G04 #@! TO.P,D14,2*
G04 #@! TO.N,Net-(D14-Pad2)*
X212123000Y-76117000D03*
D16*
G04 #@! TD*
G04 #@! TO.N,GND*
G04 #@! TO.C,D14*
G36*
X209269261Y-74870010D02*
X209329931Y-74879009D01*
X209389428Y-74893912D01*
X209447177Y-74914575D01*
X209502623Y-74940799D01*
X209555231Y-74972331D01*
X209604496Y-75008868D01*
X209649942Y-75050058D01*
X209691132Y-75095504D01*
X209727669Y-75144769D01*
X209759201Y-75197377D01*
X209785425Y-75252823D01*
X209806088Y-75310572D01*
X209820991Y-75370069D01*
X209829990Y-75430739D01*
X209833000Y-75492000D01*
X209833000Y-76742000D01*
X209829990Y-76803261D01*
X209820991Y-76863931D01*
X209806088Y-76923428D01*
X209785425Y-76981177D01*
X209759201Y-77036623D01*
X209727669Y-77089231D01*
X209691132Y-77138496D01*
X209649942Y-77183942D01*
X209604496Y-77225132D01*
X209555231Y-77261669D01*
X209502623Y-77293201D01*
X209447177Y-77319425D01*
X209389428Y-77340088D01*
X209329931Y-77354991D01*
X209269261Y-77363990D01*
X209208000Y-77367000D01*
X207958000Y-77367000D01*
X207896739Y-77363990D01*
X207836069Y-77354991D01*
X207776572Y-77340088D01*
X207718823Y-77319425D01*
X207663377Y-77293201D01*
X207610769Y-77261669D01*
X207561504Y-77225132D01*
X207516058Y-77183942D01*
X207474868Y-77138496D01*
X207438331Y-77089231D01*
X207406799Y-77036623D01*
X207380575Y-76981177D01*
X207359912Y-76923428D01*
X207345009Y-76863931D01*
X207336010Y-76803261D01*
X207333000Y-76742000D01*
X207333000Y-75492000D01*
X207336010Y-75430739D01*
X207345009Y-75370069D01*
X207359912Y-75310572D01*
X207380575Y-75252823D01*
X207406799Y-75197377D01*
X207438331Y-75144769D01*
X207474868Y-75095504D01*
X207516058Y-75050058D01*
X207561504Y-75008868D01*
X207610769Y-74972331D01*
X207663377Y-74940799D01*
X207718823Y-74914575D01*
X207776572Y-74893912D01*
X207836069Y-74879009D01*
X207896739Y-74870010D01*
X207958000Y-74867000D01*
X209208000Y-74867000D01*
X209269261Y-74870010D01*
X209269261Y-74870010D01*
G37*
D13*
G04 #@! TO.P,D14,1*
G04 #@! TO.N,GND*
X208583000Y-76117000D03*
G04 #@! TD*
D16*
G04 #@! TO.N,GND*
G04 #@! TO.C,D15*
G36*
X209269261Y-83970010D02*
X209329931Y-83979009D01*
X209389428Y-83993912D01*
X209447177Y-84014575D01*
X209502623Y-84040799D01*
X209555231Y-84072331D01*
X209604496Y-84108868D01*
X209649942Y-84150058D01*
X209691132Y-84195504D01*
X209727669Y-84244769D01*
X209759201Y-84297377D01*
X209785425Y-84352823D01*
X209806088Y-84410572D01*
X209820991Y-84470069D01*
X209829990Y-84530739D01*
X209833000Y-84592000D01*
X209833000Y-85842000D01*
X209829990Y-85903261D01*
X209820991Y-85963931D01*
X209806088Y-86023428D01*
X209785425Y-86081177D01*
X209759201Y-86136623D01*
X209727669Y-86189231D01*
X209691132Y-86238496D01*
X209649942Y-86283942D01*
X209604496Y-86325132D01*
X209555231Y-86361669D01*
X209502623Y-86393201D01*
X209447177Y-86419425D01*
X209389428Y-86440088D01*
X209329931Y-86454991D01*
X209269261Y-86463990D01*
X209208000Y-86467000D01*
X207958000Y-86467000D01*
X207896739Y-86463990D01*
X207836069Y-86454991D01*
X207776572Y-86440088D01*
X207718823Y-86419425D01*
X207663377Y-86393201D01*
X207610769Y-86361669D01*
X207561504Y-86325132D01*
X207516058Y-86283942D01*
X207474868Y-86238496D01*
X207438331Y-86189231D01*
X207406799Y-86136623D01*
X207380575Y-86081177D01*
X207359912Y-86023428D01*
X207345009Y-85963931D01*
X207336010Y-85903261D01*
X207333000Y-85842000D01*
X207333000Y-84592000D01*
X207336010Y-84530739D01*
X207345009Y-84470069D01*
X207359912Y-84410572D01*
X207380575Y-84352823D01*
X207406799Y-84297377D01*
X207438331Y-84244769D01*
X207474868Y-84195504D01*
X207516058Y-84150058D01*
X207561504Y-84108868D01*
X207610769Y-84072331D01*
X207663377Y-84040799D01*
X207718823Y-84014575D01*
X207776572Y-83993912D01*
X207836069Y-83979009D01*
X207896739Y-83970010D01*
X207958000Y-83967000D01*
X209208000Y-83967000D01*
X209269261Y-83970010D01*
X209269261Y-83970010D01*
G37*
D13*
G04 #@! TD*
G04 #@! TO.P,D15,1*
G04 #@! TO.N,GND*
X208583000Y-85217000D03*
D17*
G04 #@! TO.P,D15,2*
G04 #@! TO.N,Net-(D15-Pad2)*
X212123000Y-85217000D03*
G04 #@! TD*
G04 #@! TO.P,D16,2*
G04 #@! TO.N,Net-(D16-Pad2)*
X195597000Y-85217000D03*
D16*
G04 #@! TD*
G04 #@! TO.N,GND*
G04 #@! TO.C,D16*
G36*
X192743261Y-83970010D02*
X192803931Y-83979009D01*
X192863428Y-83993912D01*
X192921177Y-84014575D01*
X192976623Y-84040799D01*
X193029231Y-84072331D01*
X193078496Y-84108868D01*
X193123942Y-84150058D01*
X193165132Y-84195504D01*
X193201669Y-84244769D01*
X193233201Y-84297377D01*
X193259425Y-84352823D01*
X193280088Y-84410572D01*
X193294991Y-84470069D01*
X193303990Y-84530739D01*
X193307000Y-84592000D01*
X193307000Y-85842000D01*
X193303990Y-85903261D01*
X193294991Y-85963931D01*
X193280088Y-86023428D01*
X193259425Y-86081177D01*
X193233201Y-86136623D01*
X193201669Y-86189231D01*
X193165132Y-86238496D01*
X193123942Y-86283942D01*
X193078496Y-86325132D01*
X193029231Y-86361669D01*
X192976623Y-86393201D01*
X192921177Y-86419425D01*
X192863428Y-86440088D01*
X192803931Y-86454991D01*
X192743261Y-86463990D01*
X192682000Y-86467000D01*
X191432000Y-86467000D01*
X191370739Y-86463990D01*
X191310069Y-86454991D01*
X191250572Y-86440088D01*
X191192823Y-86419425D01*
X191137377Y-86393201D01*
X191084769Y-86361669D01*
X191035504Y-86325132D01*
X190990058Y-86283942D01*
X190948868Y-86238496D01*
X190912331Y-86189231D01*
X190880799Y-86136623D01*
X190854575Y-86081177D01*
X190833912Y-86023428D01*
X190819009Y-85963931D01*
X190810010Y-85903261D01*
X190807000Y-85842000D01*
X190807000Y-84592000D01*
X190810010Y-84530739D01*
X190819009Y-84470069D01*
X190833912Y-84410572D01*
X190854575Y-84352823D01*
X190880799Y-84297377D01*
X190912331Y-84244769D01*
X190948868Y-84195504D01*
X190990058Y-84150058D01*
X191035504Y-84108868D01*
X191084769Y-84072331D01*
X191137377Y-84040799D01*
X191192823Y-84014575D01*
X191250572Y-83993912D01*
X191310069Y-83979009D01*
X191370739Y-83970010D01*
X191432000Y-83967000D01*
X192682000Y-83967000D01*
X192743261Y-83970010D01*
X192743261Y-83970010D01*
G37*
D13*
G04 #@! TO.P,D16,1*
G04 #@! TO.N,GND*
X192057000Y-85217000D03*
G04 #@! TD*
D17*
G04 #@! TO.P,D17,2*
G04 #@! TO.N,Net-(D17-Pad2)*
X195597000Y-73837800D03*
D16*
G04 #@! TD*
G04 #@! TO.N,GND*
G04 #@! TO.C,D17*
G36*
X192743261Y-72590810D02*
X192803931Y-72599809D01*
X192863428Y-72614712D01*
X192921177Y-72635375D01*
X192976623Y-72661599D01*
X193029231Y-72693131D01*
X193078496Y-72729668D01*
X193123942Y-72770858D01*
X193165132Y-72816304D01*
X193201669Y-72865569D01*
X193233201Y-72918177D01*
X193259425Y-72973623D01*
X193280088Y-73031372D01*
X193294991Y-73090869D01*
X193303990Y-73151539D01*
X193307000Y-73212800D01*
X193307000Y-74462800D01*
X193303990Y-74524061D01*
X193294991Y-74584731D01*
X193280088Y-74644228D01*
X193259425Y-74701977D01*
X193233201Y-74757423D01*
X193201669Y-74810031D01*
X193165132Y-74859296D01*
X193123942Y-74904742D01*
X193078496Y-74945932D01*
X193029231Y-74982469D01*
X192976623Y-75014001D01*
X192921177Y-75040225D01*
X192863428Y-75060888D01*
X192803931Y-75075791D01*
X192743261Y-75084790D01*
X192682000Y-75087800D01*
X191432000Y-75087800D01*
X191370739Y-75084790D01*
X191310069Y-75075791D01*
X191250572Y-75060888D01*
X191192823Y-75040225D01*
X191137377Y-75014001D01*
X191084769Y-74982469D01*
X191035504Y-74945932D01*
X190990058Y-74904742D01*
X190948868Y-74859296D01*
X190912331Y-74810031D01*
X190880799Y-74757423D01*
X190854575Y-74701977D01*
X190833912Y-74644228D01*
X190819009Y-74584731D01*
X190810010Y-74524061D01*
X190807000Y-74462800D01*
X190807000Y-73212800D01*
X190810010Y-73151539D01*
X190819009Y-73090869D01*
X190833912Y-73031372D01*
X190854575Y-72973623D01*
X190880799Y-72918177D01*
X190912331Y-72865569D01*
X190948868Y-72816304D01*
X190990058Y-72770858D01*
X191035504Y-72729668D01*
X191084769Y-72693131D01*
X191137377Y-72661599D01*
X191192823Y-72635375D01*
X191250572Y-72614712D01*
X191310069Y-72599809D01*
X191370739Y-72590810D01*
X191432000Y-72587800D01*
X192682000Y-72587800D01*
X192743261Y-72590810D01*
X192743261Y-72590810D01*
G37*
D13*
G04 #@! TO.P,D17,1*
G04 #@! TO.N,GND*
X192057000Y-73837800D03*
G04 #@! TD*
D16*
G04 #@! TO.N,GND*
G04 #@! TO.C,D18*
G36*
X185555261Y-72590810D02*
X185615931Y-72599809D01*
X185675428Y-72614712D01*
X185733177Y-72635375D01*
X185788623Y-72661599D01*
X185841231Y-72693131D01*
X185890496Y-72729668D01*
X185935942Y-72770858D01*
X185977132Y-72816304D01*
X186013669Y-72865569D01*
X186045201Y-72918177D01*
X186071425Y-72973623D01*
X186092088Y-73031372D01*
X186106991Y-73090869D01*
X186115990Y-73151539D01*
X186119000Y-73212800D01*
X186119000Y-74462800D01*
X186115990Y-74524061D01*
X186106991Y-74584731D01*
X186092088Y-74644228D01*
X186071425Y-74701977D01*
X186045201Y-74757423D01*
X186013669Y-74810031D01*
X185977132Y-74859296D01*
X185935942Y-74904742D01*
X185890496Y-74945932D01*
X185841231Y-74982469D01*
X185788623Y-75014001D01*
X185733177Y-75040225D01*
X185675428Y-75060888D01*
X185615931Y-75075791D01*
X185555261Y-75084790D01*
X185494000Y-75087800D01*
X184244000Y-75087800D01*
X184182739Y-75084790D01*
X184122069Y-75075791D01*
X184062572Y-75060888D01*
X184004823Y-75040225D01*
X183949377Y-75014001D01*
X183896769Y-74982469D01*
X183847504Y-74945932D01*
X183802058Y-74904742D01*
X183760868Y-74859296D01*
X183724331Y-74810031D01*
X183692799Y-74757423D01*
X183666575Y-74701977D01*
X183645912Y-74644228D01*
X183631009Y-74584731D01*
X183622010Y-74524061D01*
X183619000Y-74462800D01*
X183619000Y-73212800D01*
X183622010Y-73151539D01*
X183631009Y-73090869D01*
X183645912Y-73031372D01*
X183666575Y-72973623D01*
X183692799Y-72918177D01*
X183724331Y-72865569D01*
X183760868Y-72816304D01*
X183802058Y-72770858D01*
X183847504Y-72729668D01*
X183896769Y-72693131D01*
X183949377Y-72661599D01*
X184004823Y-72635375D01*
X184062572Y-72614712D01*
X184122069Y-72599809D01*
X184182739Y-72590810D01*
X184244000Y-72587800D01*
X185494000Y-72587800D01*
X185555261Y-72590810D01*
X185555261Y-72590810D01*
G37*
D13*
G04 #@! TD*
G04 #@! TO.P,D18,1*
G04 #@! TO.N,GND*
X184869000Y-73837800D03*
D17*
G04 #@! TO.P,D18,2*
G04 #@! TO.N,Net-(D18-Pad2)*
X188409000Y-73837800D03*
G04 #@! TD*
G04 #@! TO.P,D19,2*
G04 #@! TO.N,Net-(D19-Pad2)*
X181196000Y-73837800D03*
D16*
G04 #@! TD*
G04 #@! TO.N,GND*
G04 #@! TO.C,D19*
G36*
X178342261Y-72590810D02*
X178402931Y-72599809D01*
X178462428Y-72614712D01*
X178520177Y-72635375D01*
X178575623Y-72661599D01*
X178628231Y-72693131D01*
X178677496Y-72729668D01*
X178722942Y-72770858D01*
X178764132Y-72816304D01*
X178800669Y-72865569D01*
X178832201Y-72918177D01*
X178858425Y-72973623D01*
X178879088Y-73031372D01*
X178893991Y-73090869D01*
X178902990Y-73151539D01*
X178906000Y-73212800D01*
X178906000Y-74462800D01*
X178902990Y-74524061D01*
X178893991Y-74584731D01*
X178879088Y-74644228D01*
X178858425Y-74701977D01*
X178832201Y-74757423D01*
X178800669Y-74810031D01*
X178764132Y-74859296D01*
X178722942Y-74904742D01*
X178677496Y-74945932D01*
X178628231Y-74982469D01*
X178575623Y-75014001D01*
X178520177Y-75040225D01*
X178462428Y-75060888D01*
X178402931Y-75075791D01*
X178342261Y-75084790D01*
X178281000Y-75087800D01*
X177031000Y-75087800D01*
X176969739Y-75084790D01*
X176909069Y-75075791D01*
X176849572Y-75060888D01*
X176791823Y-75040225D01*
X176736377Y-75014001D01*
X176683769Y-74982469D01*
X176634504Y-74945932D01*
X176589058Y-74904742D01*
X176547868Y-74859296D01*
X176511331Y-74810031D01*
X176479799Y-74757423D01*
X176453575Y-74701977D01*
X176432912Y-74644228D01*
X176418009Y-74584731D01*
X176409010Y-74524061D01*
X176406000Y-74462800D01*
X176406000Y-73212800D01*
X176409010Y-73151539D01*
X176418009Y-73090869D01*
X176432912Y-73031372D01*
X176453575Y-72973623D01*
X176479799Y-72918177D01*
X176511331Y-72865569D01*
X176547868Y-72816304D01*
X176589058Y-72770858D01*
X176634504Y-72729668D01*
X176683769Y-72693131D01*
X176736377Y-72661599D01*
X176791823Y-72635375D01*
X176849572Y-72614712D01*
X176909069Y-72599809D01*
X176969739Y-72590810D01*
X177031000Y-72587800D01*
X178281000Y-72587800D01*
X178342261Y-72590810D01*
X178342261Y-72590810D01*
G37*
D13*
G04 #@! TO.P,D19,1*
G04 #@! TO.N,GND*
X177656000Y-73837800D03*
G04 #@! TD*
D16*
G04 #@! TO.N,GND*
G04 #@! TO.C,D20*
G36*
X178342261Y-81790810D02*
X178402931Y-81799809D01*
X178462428Y-81814712D01*
X178520177Y-81835375D01*
X178575623Y-81861599D01*
X178628231Y-81893131D01*
X178677496Y-81929668D01*
X178722942Y-81970858D01*
X178764132Y-82016304D01*
X178800669Y-82065569D01*
X178832201Y-82118177D01*
X178858425Y-82173623D01*
X178879088Y-82231372D01*
X178893991Y-82290869D01*
X178902990Y-82351539D01*
X178906000Y-82412800D01*
X178906000Y-83662800D01*
X178902990Y-83724061D01*
X178893991Y-83784731D01*
X178879088Y-83844228D01*
X178858425Y-83901977D01*
X178832201Y-83957423D01*
X178800669Y-84010031D01*
X178764132Y-84059296D01*
X178722942Y-84104742D01*
X178677496Y-84145932D01*
X178628231Y-84182469D01*
X178575623Y-84214001D01*
X178520177Y-84240225D01*
X178462428Y-84260888D01*
X178402931Y-84275791D01*
X178342261Y-84284790D01*
X178281000Y-84287800D01*
X177031000Y-84287800D01*
X176969739Y-84284790D01*
X176909069Y-84275791D01*
X176849572Y-84260888D01*
X176791823Y-84240225D01*
X176736377Y-84214001D01*
X176683769Y-84182469D01*
X176634504Y-84145932D01*
X176589058Y-84104742D01*
X176547868Y-84059296D01*
X176511331Y-84010031D01*
X176479799Y-83957423D01*
X176453575Y-83901977D01*
X176432912Y-83844228D01*
X176418009Y-83784731D01*
X176409010Y-83724061D01*
X176406000Y-83662800D01*
X176406000Y-82412800D01*
X176409010Y-82351539D01*
X176418009Y-82290869D01*
X176432912Y-82231372D01*
X176453575Y-82173623D01*
X176479799Y-82118177D01*
X176511331Y-82065569D01*
X176547868Y-82016304D01*
X176589058Y-81970858D01*
X176634504Y-81929668D01*
X176683769Y-81893131D01*
X176736377Y-81861599D01*
X176791823Y-81835375D01*
X176849572Y-81814712D01*
X176909069Y-81799809D01*
X176969739Y-81790810D01*
X177031000Y-81787800D01*
X178281000Y-81787800D01*
X178342261Y-81790810D01*
X178342261Y-81790810D01*
G37*
D13*
G04 #@! TD*
G04 #@! TO.P,D20,1*
G04 #@! TO.N,GND*
X177656000Y-83037800D03*
D17*
G04 #@! TO.P,D20,2*
G04 #@! TO.N,Net-(D20-Pad2)*
X181196000Y-83037800D03*
G04 #@! TD*
G04 #@! TO.P,D21,2*
G04 #@! TO.N,Net-(D21-Pad2)*
X181196000Y-92237800D03*
D16*
G04 #@! TD*
G04 #@! TO.N,GND*
G04 #@! TO.C,D21*
G36*
X178342261Y-90990810D02*
X178402931Y-90999809D01*
X178462428Y-91014712D01*
X178520177Y-91035375D01*
X178575623Y-91061599D01*
X178628231Y-91093131D01*
X178677496Y-91129668D01*
X178722942Y-91170858D01*
X178764132Y-91216304D01*
X178800669Y-91265569D01*
X178832201Y-91318177D01*
X178858425Y-91373623D01*
X178879088Y-91431372D01*
X178893991Y-91490869D01*
X178902990Y-91551539D01*
X178906000Y-91612800D01*
X178906000Y-92862800D01*
X178902990Y-92924061D01*
X178893991Y-92984731D01*
X178879088Y-93044228D01*
X178858425Y-93101977D01*
X178832201Y-93157423D01*
X178800669Y-93210031D01*
X178764132Y-93259296D01*
X178722942Y-93304742D01*
X178677496Y-93345932D01*
X178628231Y-93382469D01*
X178575623Y-93414001D01*
X178520177Y-93440225D01*
X178462428Y-93460888D01*
X178402931Y-93475791D01*
X178342261Y-93484790D01*
X178281000Y-93487800D01*
X177031000Y-93487800D01*
X176969739Y-93484790D01*
X176909069Y-93475791D01*
X176849572Y-93460888D01*
X176791823Y-93440225D01*
X176736377Y-93414001D01*
X176683769Y-93382469D01*
X176634504Y-93345932D01*
X176589058Y-93304742D01*
X176547868Y-93259296D01*
X176511331Y-93210031D01*
X176479799Y-93157423D01*
X176453575Y-93101977D01*
X176432912Y-93044228D01*
X176418009Y-92984731D01*
X176409010Y-92924061D01*
X176406000Y-92862800D01*
X176406000Y-91612800D01*
X176409010Y-91551539D01*
X176418009Y-91490869D01*
X176432912Y-91431372D01*
X176453575Y-91373623D01*
X176479799Y-91318177D01*
X176511331Y-91265569D01*
X176547868Y-91216304D01*
X176589058Y-91170858D01*
X176634504Y-91129668D01*
X176683769Y-91093131D01*
X176736377Y-91061599D01*
X176791823Y-91035375D01*
X176849572Y-91014712D01*
X176909069Y-90999809D01*
X176969739Y-90990810D01*
X177031000Y-90987800D01*
X178281000Y-90987800D01*
X178342261Y-90990810D01*
X178342261Y-90990810D01*
G37*
D13*
G04 #@! TO.P,D21,1*
G04 #@! TO.N,GND*
X177656000Y-92237800D03*
G04 #@! TD*
D16*
G04 #@! TO.N,GND*
G04 #@! TO.C,D22*
G36*
X178342261Y-119452010D02*
X178402931Y-119461009D01*
X178462428Y-119475912D01*
X178520177Y-119496575D01*
X178575623Y-119522799D01*
X178628231Y-119554331D01*
X178677496Y-119590868D01*
X178722942Y-119632058D01*
X178764132Y-119677504D01*
X178800669Y-119726769D01*
X178832201Y-119779377D01*
X178858425Y-119834823D01*
X178879088Y-119892572D01*
X178893991Y-119952069D01*
X178902990Y-120012739D01*
X178906000Y-120074000D01*
X178906000Y-121324000D01*
X178902990Y-121385261D01*
X178893991Y-121445931D01*
X178879088Y-121505428D01*
X178858425Y-121563177D01*
X178832201Y-121618623D01*
X178800669Y-121671231D01*
X178764132Y-121720496D01*
X178722942Y-121765942D01*
X178677496Y-121807132D01*
X178628231Y-121843669D01*
X178575623Y-121875201D01*
X178520177Y-121901425D01*
X178462428Y-121922088D01*
X178402931Y-121936991D01*
X178342261Y-121945990D01*
X178281000Y-121949000D01*
X177031000Y-121949000D01*
X176969739Y-121945990D01*
X176909069Y-121936991D01*
X176849572Y-121922088D01*
X176791823Y-121901425D01*
X176736377Y-121875201D01*
X176683769Y-121843669D01*
X176634504Y-121807132D01*
X176589058Y-121765942D01*
X176547868Y-121720496D01*
X176511331Y-121671231D01*
X176479799Y-121618623D01*
X176453575Y-121563177D01*
X176432912Y-121505428D01*
X176418009Y-121445931D01*
X176409010Y-121385261D01*
X176406000Y-121324000D01*
X176406000Y-120074000D01*
X176409010Y-120012739D01*
X176418009Y-119952069D01*
X176432912Y-119892572D01*
X176453575Y-119834823D01*
X176479799Y-119779377D01*
X176511331Y-119726769D01*
X176547868Y-119677504D01*
X176589058Y-119632058D01*
X176634504Y-119590868D01*
X176683769Y-119554331D01*
X176736377Y-119522799D01*
X176791823Y-119496575D01*
X176849572Y-119475912D01*
X176909069Y-119461009D01*
X176969739Y-119452010D01*
X177031000Y-119449000D01*
X178281000Y-119449000D01*
X178342261Y-119452010D01*
X178342261Y-119452010D01*
G37*
D13*
G04 #@! TD*
G04 #@! TO.P,D22,1*
G04 #@! TO.N,GND*
X177656000Y-120699000D03*
D17*
G04 #@! TO.P,D22,2*
G04 #@! TO.N,Net-(D22-Pad2)*
X181196000Y-120699000D03*
G04 #@! TD*
G04 #@! TO.P,D23,2*
G04 #@! TO.N,Net-(D23-Pad2)*
X181196000Y-129899000D03*
D16*
G04 #@! TD*
G04 #@! TO.N,GND*
G04 #@! TO.C,D23*
G36*
X178342261Y-128652010D02*
X178402931Y-128661009D01*
X178462428Y-128675912D01*
X178520177Y-128696575D01*
X178575623Y-128722799D01*
X178628231Y-128754331D01*
X178677496Y-128790868D01*
X178722942Y-128832058D01*
X178764132Y-128877504D01*
X178800669Y-128926769D01*
X178832201Y-128979377D01*
X178858425Y-129034823D01*
X178879088Y-129092572D01*
X178893991Y-129152069D01*
X178902990Y-129212739D01*
X178906000Y-129274000D01*
X178906000Y-130524000D01*
X178902990Y-130585261D01*
X178893991Y-130645931D01*
X178879088Y-130705428D01*
X178858425Y-130763177D01*
X178832201Y-130818623D01*
X178800669Y-130871231D01*
X178764132Y-130920496D01*
X178722942Y-130965942D01*
X178677496Y-131007132D01*
X178628231Y-131043669D01*
X178575623Y-131075201D01*
X178520177Y-131101425D01*
X178462428Y-131122088D01*
X178402931Y-131136991D01*
X178342261Y-131145990D01*
X178281000Y-131149000D01*
X177031000Y-131149000D01*
X176969739Y-131145990D01*
X176909069Y-131136991D01*
X176849572Y-131122088D01*
X176791823Y-131101425D01*
X176736377Y-131075201D01*
X176683769Y-131043669D01*
X176634504Y-131007132D01*
X176589058Y-130965942D01*
X176547868Y-130920496D01*
X176511331Y-130871231D01*
X176479799Y-130818623D01*
X176453575Y-130763177D01*
X176432912Y-130705428D01*
X176418009Y-130645931D01*
X176409010Y-130585261D01*
X176406000Y-130524000D01*
X176406000Y-129274000D01*
X176409010Y-129212739D01*
X176418009Y-129152069D01*
X176432912Y-129092572D01*
X176453575Y-129034823D01*
X176479799Y-128979377D01*
X176511331Y-128926769D01*
X176547868Y-128877504D01*
X176589058Y-128832058D01*
X176634504Y-128790868D01*
X176683769Y-128754331D01*
X176736377Y-128722799D01*
X176791823Y-128696575D01*
X176849572Y-128675912D01*
X176909069Y-128661009D01*
X176969739Y-128652010D01*
X177031000Y-128649000D01*
X178281000Y-128649000D01*
X178342261Y-128652010D01*
X178342261Y-128652010D01*
G37*
D13*
G04 #@! TO.P,D23,1*
G04 #@! TO.N,GND*
X177656000Y-129899000D03*
G04 #@! TD*
D16*
G04 #@! TO.N,GND*
G04 #@! TO.C,D24*
G36*
X188342261Y-128652010D02*
X188402931Y-128661009D01*
X188462428Y-128675912D01*
X188520177Y-128696575D01*
X188575623Y-128722799D01*
X188628231Y-128754331D01*
X188677496Y-128790868D01*
X188722942Y-128832058D01*
X188764132Y-128877504D01*
X188800669Y-128926769D01*
X188832201Y-128979377D01*
X188858425Y-129034823D01*
X188879088Y-129092572D01*
X188893991Y-129152069D01*
X188902990Y-129212739D01*
X188906000Y-129274000D01*
X188906000Y-130524000D01*
X188902990Y-130585261D01*
X188893991Y-130645931D01*
X188879088Y-130705428D01*
X188858425Y-130763177D01*
X188832201Y-130818623D01*
X188800669Y-130871231D01*
X188764132Y-130920496D01*
X188722942Y-130965942D01*
X188677496Y-131007132D01*
X188628231Y-131043669D01*
X188575623Y-131075201D01*
X188520177Y-131101425D01*
X188462428Y-131122088D01*
X188402931Y-131136991D01*
X188342261Y-131145990D01*
X188281000Y-131149000D01*
X187031000Y-131149000D01*
X186969739Y-131145990D01*
X186909069Y-131136991D01*
X186849572Y-131122088D01*
X186791823Y-131101425D01*
X186736377Y-131075201D01*
X186683769Y-131043669D01*
X186634504Y-131007132D01*
X186589058Y-130965942D01*
X186547868Y-130920496D01*
X186511331Y-130871231D01*
X186479799Y-130818623D01*
X186453575Y-130763177D01*
X186432912Y-130705428D01*
X186418009Y-130645931D01*
X186409010Y-130585261D01*
X186406000Y-130524000D01*
X186406000Y-129274000D01*
X186409010Y-129212739D01*
X186418009Y-129152069D01*
X186432912Y-129092572D01*
X186453575Y-129034823D01*
X186479799Y-128979377D01*
X186511331Y-128926769D01*
X186547868Y-128877504D01*
X186589058Y-128832058D01*
X186634504Y-128790868D01*
X186683769Y-128754331D01*
X186736377Y-128722799D01*
X186791823Y-128696575D01*
X186849572Y-128675912D01*
X186909069Y-128661009D01*
X186969739Y-128652010D01*
X187031000Y-128649000D01*
X188281000Y-128649000D01*
X188342261Y-128652010D01*
X188342261Y-128652010D01*
G37*
D13*
G04 #@! TD*
G04 #@! TO.P,D24,1*
G04 #@! TO.N,GND*
X187656000Y-129899000D03*
D17*
G04 #@! TO.P,D24,2*
G04 #@! TO.N,Net-(D24-Pad2)*
X191196000Y-129899000D03*
G04 #@! TD*
G04 #@! TO.P,D25,2*
G04 #@! TO.N,Net-(D25-Pad2)*
X191190000Y-146558000D03*
D16*
G04 #@! TD*
G04 #@! TO.N,GND*
G04 #@! TO.C,D25*
G36*
X188336261Y-145311010D02*
X188396931Y-145320009D01*
X188456428Y-145334912D01*
X188514177Y-145355575D01*
X188569623Y-145381799D01*
X188622231Y-145413331D01*
X188671496Y-145449868D01*
X188716942Y-145491058D01*
X188758132Y-145536504D01*
X188794669Y-145585769D01*
X188826201Y-145638377D01*
X188852425Y-145693823D01*
X188873088Y-145751572D01*
X188887991Y-145811069D01*
X188896990Y-145871739D01*
X188900000Y-145933000D01*
X188900000Y-147183000D01*
X188896990Y-147244261D01*
X188887991Y-147304931D01*
X188873088Y-147364428D01*
X188852425Y-147422177D01*
X188826201Y-147477623D01*
X188794669Y-147530231D01*
X188758132Y-147579496D01*
X188716942Y-147624942D01*
X188671496Y-147666132D01*
X188622231Y-147702669D01*
X188569623Y-147734201D01*
X188514177Y-147760425D01*
X188456428Y-147781088D01*
X188396931Y-147795991D01*
X188336261Y-147804990D01*
X188275000Y-147808000D01*
X187025000Y-147808000D01*
X186963739Y-147804990D01*
X186903069Y-147795991D01*
X186843572Y-147781088D01*
X186785823Y-147760425D01*
X186730377Y-147734201D01*
X186677769Y-147702669D01*
X186628504Y-147666132D01*
X186583058Y-147624942D01*
X186541868Y-147579496D01*
X186505331Y-147530231D01*
X186473799Y-147477623D01*
X186447575Y-147422177D01*
X186426912Y-147364428D01*
X186412009Y-147304931D01*
X186403010Y-147244261D01*
X186400000Y-147183000D01*
X186400000Y-145933000D01*
X186403010Y-145871739D01*
X186412009Y-145811069D01*
X186426912Y-145751572D01*
X186447575Y-145693823D01*
X186473799Y-145638377D01*
X186505331Y-145585769D01*
X186541868Y-145536504D01*
X186583058Y-145491058D01*
X186628504Y-145449868D01*
X186677769Y-145413331D01*
X186730377Y-145381799D01*
X186785823Y-145355575D01*
X186843572Y-145334912D01*
X186903069Y-145320009D01*
X186963739Y-145311010D01*
X187025000Y-145308000D01*
X188275000Y-145308000D01*
X188336261Y-145311010D01*
X188336261Y-145311010D01*
G37*
D13*
G04 #@! TO.P,D25,1*
G04 #@! TO.N,GND*
X187650000Y-146558000D03*
G04 #@! TD*
D16*
G04 #@! TO.N,GND*
G04 #@! TO.C,D26*
G36*
X179136261Y-145311010D02*
X179196931Y-145320009D01*
X179256428Y-145334912D01*
X179314177Y-145355575D01*
X179369623Y-145381799D01*
X179422231Y-145413331D01*
X179471496Y-145449868D01*
X179516942Y-145491058D01*
X179558132Y-145536504D01*
X179594669Y-145585769D01*
X179626201Y-145638377D01*
X179652425Y-145693823D01*
X179673088Y-145751572D01*
X179687991Y-145811069D01*
X179696990Y-145871739D01*
X179700000Y-145933000D01*
X179700000Y-147183000D01*
X179696990Y-147244261D01*
X179687991Y-147304931D01*
X179673088Y-147364428D01*
X179652425Y-147422177D01*
X179626201Y-147477623D01*
X179594669Y-147530231D01*
X179558132Y-147579496D01*
X179516942Y-147624942D01*
X179471496Y-147666132D01*
X179422231Y-147702669D01*
X179369623Y-147734201D01*
X179314177Y-147760425D01*
X179256428Y-147781088D01*
X179196931Y-147795991D01*
X179136261Y-147804990D01*
X179075000Y-147808000D01*
X177825000Y-147808000D01*
X177763739Y-147804990D01*
X177703069Y-147795991D01*
X177643572Y-147781088D01*
X177585823Y-147760425D01*
X177530377Y-147734201D01*
X177477769Y-147702669D01*
X177428504Y-147666132D01*
X177383058Y-147624942D01*
X177341868Y-147579496D01*
X177305331Y-147530231D01*
X177273799Y-147477623D01*
X177247575Y-147422177D01*
X177226912Y-147364428D01*
X177212009Y-147304931D01*
X177203010Y-147244261D01*
X177200000Y-147183000D01*
X177200000Y-145933000D01*
X177203010Y-145871739D01*
X177212009Y-145811069D01*
X177226912Y-145751572D01*
X177247575Y-145693823D01*
X177273799Y-145638377D01*
X177305331Y-145585769D01*
X177341868Y-145536504D01*
X177383058Y-145491058D01*
X177428504Y-145449868D01*
X177477769Y-145413331D01*
X177530377Y-145381799D01*
X177585823Y-145355575D01*
X177643572Y-145334912D01*
X177703069Y-145320009D01*
X177763739Y-145311010D01*
X177825000Y-145308000D01*
X179075000Y-145308000D01*
X179136261Y-145311010D01*
X179136261Y-145311010D01*
G37*
D13*
G04 #@! TD*
G04 #@! TO.P,D26,1*
G04 #@! TO.N,GND*
X178450000Y-146558000D03*
D17*
G04 #@! TO.P,D26,2*
G04 #@! TO.N,Net-(D26-Pad2)*
X181990000Y-146558000D03*
G04 #@! TD*
G04 #@! TO.P,D27,2*
G04 #@! TO.N,Net-(D27-Pad2)*
X172966000Y-146558000D03*
D16*
G04 #@! TD*
G04 #@! TO.N,GND*
G04 #@! TO.C,D27*
G36*
X170112261Y-145311010D02*
X170172931Y-145320009D01*
X170232428Y-145334912D01*
X170290177Y-145355575D01*
X170345623Y-145381799D01*
X170398231Y-145413331D01*
X170447496Y-145449868D01*
X170492942Y-145491058D01*
X170534132Y-145536504D01*
X170570669Y-145585769D01*
X170602201Y-145638377D01*
X170628425Y-145693823D01*
X170649088Y-145751572D01*
X170663991Y-145811069D01*
X170672990Y-145871739D01*
X170676000Y-145933000D01*
X170676000Y-147183000D01*
X170672990Y-147244261D01*
X170663991Y-147304931D01*
X170649088Y-147364428D01*
X170628425Y-147422177D01*
X170602201Y-147477623D01*
X170570669Y-147530231D01*
X170534132Y-147579496D01*
X170492942Y-147624942D01*
X170447496Y-147666132D01*
X170398231Y-147702669D01*
X170345623Y-147734201D01*
X170290177Y-147760425D01*
X170232428Y-147781088D01*
X170172931Y-147795991D01*
X170112261Y-147804990D01*
X170051000Y-147808000D01*
X168801000Y-147808000D01*
X168739739Y-147804990D01*
X168679069Y-147795991D01*
X168619572Y-147781088D01*
X168561823Y-147760425D01*
X168506377Y-147734201D01*
X168453769Y-147702669D01*
X168404504Y-147666132D01*
X168359058Y-147624942D01*
X168317868Y-147579496D01*
X168281331Y-147530231D01*
X168249799Y-147477623D01*
X168223575Y-147422177D01*
X168202912Y-147364428D01*
X168188009Y-147304931D01*
X168179010Y-147244261D01*
X168176000Y-147183000D01*
X168176000Y-145933000D01*
X168179010Y-145871739D01*
X168188009Y-145811069D01*
X168202912Y-145751572D01*
X168223575Y-145693823D01*
X168249799Y-145638377D01*
X168281331Y-145585769D01*
X168317868Y-145536504D01*
X168359058Y-145491058D01*
X168404504Y-145449868D01*
X168453769Y-145413331D01*
X168506377Y-145381799D01*
X168561823Y-145355575D01*
X168619572Y-145334912D01*
X168679069Y-145320009D01*
X168739739Y-145311010D01*
X168801000Y-145308000D01*
X170051000Y-145308000D01*
X170112261Y-145311010D01*
X170112261Y-145311010D01*
G37*
D13*
G04 #@! TO.P,D27,1*
G04 #@! TO.N,GND*
X169426000Y-146558000D03*
G04 #@! TD*
D16*
G04 #@! TO.N,GND*
G04 #@! TO.C,D28*
G36*
X161088261Y-145311010D02*
X161148931Y-145320009D01*
X161208428Y-145334912D01*
X161266177Y-145355575D01*
X161321623Y-145381799D01*
X161374231Y-145413331D01*
X161423496Y-145449868D01*
X161468942Y-145491058D01*
X161510132Y-145536504D01*
X161546669Y-145585769D01*
X161578201Y-145638377D01*
X161604425Y-145693823D01*
X161625088Y-145751572D01*
X161639991Y-145811069D01*
X161648990Y-145871739D01*
X161652000Y-145933000D01*
X161652000Y-147183000D01*
X161648990Y-147244261D01*
X161639991Y-147304931D01*
X161625088Y-147364428D01*
X161604425Y-147422177D01*
X161578201Y-147477623D01*
X161546669Y-147530231D01*
X161510132Y-147579496D01*
X161468942Y-147624942D01*
X161423496Y-147666132D01*
X161374231Y-147702669D01*
X161321623Y-147734201D01*
X161266177Y-147760425D01*
X161208428Y-147781088D01*
X161148931Y-147795991D01*
X161088261Y-147804990D01*
X161027000Y-147808000D01*
X159777000Y-147808000D01*
X159715739Y-147804990D01*
X159655069Y-147795991D01*
X159595572Y-147781088D01*
X159537823Y-147760425D01*
X159482377Y-147734201D01*
X159429769Y-147702669D01*
X159380504Y-147666132D01*
X159335058Y-147624942D01*
X159293868Y-147579496D01*
X159257331Y-147530231D01*
X159225799Y-147477623D01*
X159199575Y-147422177D01*
X159178912Y-147364428D01*
X159164009Y-147304931D01*
X159155010Y-147244261D01*
X159152000Y-147183000D01*
X159152000Y-145933000D01*
X159155010Y-145871739D01*
X159164009Y-145811069D01*
X159178912Y-145751572D01*
X159199575Y-145693823D01*
X159225799Y-145638377D01*
X159257331Y-145585769D01*
X159293868Y-145536504D01*
X159335058Y-145491058D01*
X159380504Y-145449868D01*
X159429769Y-145413331D01*
X159482377Y-145381799D01*
X159537823Y-145355575D01*
X159595572Y-145334912D01*
X159655069Y-145320009D01*
X159715739Y-145311010D01*
X159777000Y-145308000D01*
X161027000Y-145308000D01*
X161088261Y-145311010D01*
X161088261Y-145311010D01*
G37*
D13*
G04 #@! TD*
G04 #@! TO.P,D28,1*
G04 #@! TO.N,GND*
X160402000Y-146558000D03*
D17*
G04 #@! TO.P,D28,2*
G04 #@! TO.N,Net-(D28-Pad2)*
X163942000Y-146558000D03*
G04 #@! TD*
D16*
G04 #@! TO.N,GND*
G04 #@! TO.C,D29*
G36*
X152063261Y-145311010D02*
X152123931Y-145320009D01*
X152183428Y-145334912D01*
X152241177Y-145355575D01*
X152296623Y-145381799D01*
X152349231Y-145413331D01*
X152398496Y-145449868D01*
X152443942Y-145491058D01*
X152485132Y-145536504D01*
X152521669Y-145585769D01*
X152553201Y-145638377D01*
X152579425Y-145693823D01*
X152600088Y-145751572D01*
X152614991Y-145811069D01*
X152623990Y-145871739D01*
X152627000Y-145933000D01*
X152627000Y-147183000D01*
X152623990Y-147244261D01*
X152614991Y-147304931D01*
X152600088Y-147364428D01*
X152579425Y-147422177D01*
X152553201Y-147477623D01*
X152521669Y-147530231D01*
X152485132Y-147579496D01*
X152443942Y-147624942D01*
X152398496Y-147666132D01*
X152349231Y-147702669D01*
X152296623Y-147734201D01*
X152241177Y-147760425D01*
X152183428Y-147781088D01*
X152123931Y-147795991D01*
X152063261Y-147804990D01*
X152002000Y-147808000D01*
X150752000Y-147808000D01*
X150690739Y-147804990D01*
X150630069Y-147795991D01*
X150570572Y-147781088D01*
X150512823Y-147760425D01*
X150457377Y-147734201D01*
X150404769Y-147702669D01*
X150355504Y-147666132D01*
X150310058Y-147624942D01*
X150268868Y-147579496D01*
X150232331Y-147530231D01*
X150200799Y-147477623D01*
X150174575Y-147422177D01*
X150153912Y-147364428D01*
X150139009Y-147304931D01*
X150130010Y-147244261D01*
X150127000Y-147183000D01*
X150127000Y-145933000D01*
X150130010Y-145871739D01*
X150139009Y-145811069D01*
X150153912Y-145751572D01*
X150174575Y-145693823D01*
X150200799Y-145638377D01*
X150232331Y-145585769D01*
X150268868Y-145536504D01*
X150310058Y-145491058D01*
X150355504Y-145449868D01*
X150404769Y-145413331D01*
X150457377Y-145381799D01*
X150512823Y-145355575D01*
X150570572Y-145334912D01*
X150630069Y-145320009D01*
X150690739Y-145311010D01*
X150752000Y-145308000D01*
X152002000Y-145308000D01*
X152063261Y-145311010D01*
X152063261Y-145311010D01*
G37*
D13*
G04 #@! TD*
G04 #@! TO.P,D29,1*
G04 #@! TO.N,GND*
X151377000Y-146558000D03*
D17*
G04 #@! TO.P,D29,2*
G04 #@! TO.N,Net-(D29-Pad2)*
X154917000Y-146558000D03*
G04 #@! TD*
D16*
G04 #@! TO.N,GND*
G04 #@! TO.C,D30*
G36*
X152063261Y-128652010D02*
X152123931Y-128661009D01*
X152183428Y-128675912D01*
X152241177Y-128696575D01*
X152296623Y-128722799D01*
X152349231Y-128754331D01*
X152398496Y-128790868D01*
X152443942Y-128832058D01*
X152485132Y-128877504D01*
X152521669Y-128926769D01*
X152553201Y-128979377D01*
X152579425Y-129034823D01*
X152600088Y-129092572D01*
X152614991Y-129152069D01*
X152623990Y-129212739D01*
X152627000Y-129274000D01*
X152627000Y-130524000D01*
X152623990Y-130585261D01*
X152614991Y-130645931D01*
X152600088Y-130705428D01*
X152579425Y-130763177D01*
X152553201Y-130818623D01*
X152521669Y-130871231D01*
X152485132Y-130920496D01*
X152443942Y-130965942D01*
X152398496Y-131007132D01*
X152349231Y-131043669D01*
X152296623Y-131075201D01*
X152241177Y-131101425D01*
X152183428Y-131122088D01*
X152123931Y-131136991D01*
X152063261Y-131145990D01*
X152002000Y-131149000D01*
X150752000Y-131149000D01*
X150690739Y-131145990D01*
X150630069Y-131136991D01*
X150570572Y-131122088D01*
X150512823Y-131101425D01*
X150457377Y-131075201D01*
X150404769Y-131043669D01*
X150355504Y-131007132D01*
X150310058Y-130965942D01*
X150268868Y-130920496D01*
X150232331Y-130871231D01*
X150200799Y-130818623D01*
X150174575Y-130763177D01*
X150153912Y-130705428D01*
X150139009Y-130645931D01*
X150130010Y-130585261D01*
X150127000Y-130524000D01*
X150127000Y-129274000D01*
X150130010Y-129212739D01*
X150139009Y-129152069D01*
X150153912Y-129092572D01*
X150174575Y-129034823D01*
X150200799Y-128979377D01*
X150232331Y-128926769D01*
X150268868Y-128877504D01*
X150310058Y-128832058D01*
X150355504Y-128790868D01*
X150404769Y-128754331D01*
X150457377Y-128722799D01*
X150512823Y-128696575D01*
X150570572Y-128675912D01*
X150630069Y-128661009D01*
X150690739Y-128652010D01*
X150752000Y-128649000D01*
X152002000Y-128649000D01*
X152063261Y-128652010D01*
X152063261Y-128652010D01*
G37*
D13*
G04 #@! TD*
G04 #@! TO.P,D30,1*
G04 #@! TO.N,GND*
X151377000Y-129899000D03*
D17*
G04 #@! TO.P,D30,2*
G04 #@! TO.N,Net-(D30-Pad2)*
X154917000Y-129899000D03*
G04 #@! TD*
G04 #@! TO.P,D31,2*
G04 #@! TO.N,Net-(D31-Pad2)*
X164774000Y-129921000D03*
D16*
G04 #@! TD*
G04 #@! TO.N,GND*
G04 #@! TO.C,D31*
G36*
X161920261Y-128674010D02*
X161980931Y-128683009D01*
X162040428Y-128697912D01*
X162098177Y-128718575D01*
X162153623Y-128744799D01*
X162206231Y-128776331D01*
X162255496Y-128812868D01*
X162300942Y-128854058D01*
X162342132Y-128899504D01*
X162378669Y-128948769D01*
X162410201Y-129001377D01*
X162436425Y-129056823D01*
X162457088Y-129114572D01*
X162471991Y-129174069D01*
X162480990Y-129234739D01*
X162484000Y-129296000D01*
X162484000Y-130546000D01*
X162480990Y-130607261D01*
X162471991Y-130667931D01*
X162457088Y-130727428D01*
X162436425Y-130785177D01*
X162410201Y-130840623D01*
X162378669Y-130893231D01*
X162342132Y-130942496D01*
X162300942Y-130987942D01*
X162255496Y-131029132D01*
X162206231Y-131065669D01*
X162153623Y-131097201D01*
X162098177Y-131123425D01*
X162040428Y-131144088D01*
X161980931Y-131158991D01*
X161920261Y-131167990D01*
X161859000Y-131171000D01*
X160609000Y-131171000D01*
X160547739Y-131167990D01*
X160487069Y-131158991D01*
X160427572Y-131144088D01*
X160369823Y-131123425D01*
X160314377Y-131097201D01*
X160261769Y-131065669D01*
X160212504Y-131029132D01*
X160167058Y-130987942D01*
X160125868Y-130942496D01*
X160089331Y-130893231D01*
X160057799Y-130840623D01*
X160031575Y-130785177D01*
X160010912Y-130727428D01*
X159996009Y-130667931D01*
X159987010Y-130607261D01*
X159984000Y-130546000D01*
X159984000Y-129296000D01*
X159987010Y-129234739D01*
X159996009Y-129174069D01*
X160010912Y-129114572D01*
X160031575Y-129056823D01*
X160057799Y-129001377D01*
X160089331Y-128948769D01*
X160125868Y-128899504D01*
X160167058Y-128854058D01*
X160212504Y-128812868D01*
X160261769Y-128776331D01*
X160314377Y-128744799D01*
X160369823Y-128718575D01*
X160427572Y-128697912D01*
X160487069Y-128683009D01*
X160547739Y-128674010D01*
X160609000Y-128671000D01*
X161859000Y-128671000D01*
X161920261Y-128674010D01*
X161920261Y-128674010D01*
G37*
D13*
G04 #@! TO.P,D31,1*
G04 #@! TO.N,GND*
X161234000Y-129921000D03*
G04 #@! TD*
D16*
G04 #@! TO.N,GND*
G04 #@! TO.C,D32*
G36*
X161920261Y-119452010D02*
X161980931Y-119461009D01*
X162040428Y-119475912D01*
X162098177Y-119496575D01*
X162153623Y-119522799D01*
X162206231Y-119554331D01*
X162255496Y-119590868D01*
X162300942Y-119632058D01*
X162342132Y-119677504D01*
X162378669Y-119726769D01*
X162410201Y-119779377D01*
X162436425Y-119834823D01*
X162457088Y-119892572D01*
X162471991Y-119952069D01*
X162480990Y-120012739D01*
X162484000Y-120074000D01*
X162484000Y-121324000D01*
X162480990Y-121385261D01*
X162471991Y-121445931D01*
X162457088Y-121505428D01*
X162436425Y-121563177D01*
X162410201Y-121618623D01*
X162378669Y-121671231D01*
X162342132Y-121720496D01*
X162300942Y-121765942D01*
X162255496Y-121807132D01*
X162206231Y-121843669D01*
X162153623Y-121875201D01*
X162098177Y-121901425D01*
X162040428Y-121922088D01*
X161980931Y-121936991D01*
X161920261Y-121945990D01*
X161859000Y-121949000D01*
X160609000Y-121949000D01*
X160547739Y-121945990D01*
X160487069Y-121936991D01*
X160427572Y-121922088D01*
X160369823Y-121901425D01*
X160314377Y-121875201D01*
X160261769Y-121843669D01*
X160212504Y-121807132D01*
X160167058Y-121765942D01*
X160125868Y-121720496D01*
X160089331Y-121671231D01*
X160057799Y-121618623D01*
X160031575Y-121563177D01*
X160010912Y-121505428D01*
X159996009Y-121445931D01*
X159987010Y-121385261D01*
X159984000Y-121324000D01*
X159984000Y-120074000D01*
X159987010Y-120012739D01*
X159996009Y-119952069D01*
X160010912Y-119892572D01*
X160031575Y-119834823D01*
X160057799Y-119779377D01*
X160089331Y-119726769D01*
X160125868Y-119677504D01*
X160167058Y-119632058D01*
X160212504Y-119590868D01*
X160261769Y-119554331D01*
X160314377Y-119522799D01*
X160369823Y-119496575D01*
X160427572Y-119475912D01*
X160487069Y-119461009D01*
X160547739Y-119452010D01*
X160609000Y-119449000D01*
X161859000Y-119449000D01*
X161920261Y-119452010D01*
X161920261Y-119452010D01*
G37*
D13*
G04 #@! TD*
G04 #@! TO.P,D32,1*
G04 #@! TO.N,GND*
X161234000Y-120699000D03*
D17*
G04 #@! TO.P,D32,2*
G04 #@! TO.N,Net-(D32-Pad2)*
X164774000Y-120699000D03*
G04 #@! TD*
G04 #@! TO.P,D33,2*
G04 #@! TO.N,Net-(D33-Pad2)*
X164774000Y-92237800D03*
D16*
G04 #@! TD*
G04 #@! TO.N,GND*
G04 #@! TO.C,D33*
G36*
X161920261Y-90990810D02*
X161980931Y-90999809D01*
X162040428Y-91014712D01*
X162098177Y-91035375D01*
X162153623Y-91061599D01*
X162206231Y-91093131D01*
X162255496Y-91129668D01*
X162300942Y-91170858D01*
X162342132Y-91216304D01*
X162378669Y-91265569D01*
X162410201Y-91318177D01*
X162436425Y-91373623D01*
X162457088Y-91431372D01*
X162471991Y-91490869D01*
X162480990Y-91551539D01*
X162484000Y-91612800D01*
X162484000Y-92862800D01*
X162480990Y-92924061D01*
X162471991Y-92984731D01*
X162457088Y-93044228D01*
X162436425Y-93101977D01*
X162410201Y-93157423D01*
X162378669Y-93210031D01*
X162342132Y-93259296D01*
X162300942Y-93304742D01*
X162255496Y-93345932D01*
X162206231Y-93382469D01*
X162153623Y-93414001D01*
X162098177Y-93440225D01*
X162040428Y-93460888D01*
X161980931Y-93475791D01*
X161920261Y-93484790D01*
X161859000Y-93487800D01*
X160609000Y-93487800D01*
X160547739Y-93484790D01*
X160487069Y-93475791D01*
X160427572Y-93460888D01*
X160369823Y-93440225D01*
X160314377Y-93414001D01*
X160261769Y-93382469D01*
X160212504Y-93345932D01*
X160167058Y-93304742D01*
X160125868Y-93259296D01*
X160089331Y-93210031D01*
X160057799Y-93157423D01*
X160031575Y-93101977D01*
X160010912Y-93044228D01*
X159996009Y-92984731D01*
X159987010Y-92924061D01*
X159984000Y-92862800D01*
X159984000Y-91612800D01*
X159987010Y-91551539D01*
X159996009Y-91490869D01*
X160010912Y-91431372D01*
X160031575Y-91373623D01*
X160057799Y-91318177D01*
X160089331Y-91265569D01*
X160125868Y-91216304D01*
X160167058Y-91170858D01*
X160212504Y-91129668D01*
X160261769Y-91093131D01*
X160314377Y-91061599D01*
X160369823Y-91035375D01*
X160427572Y-91014712D01*
X160487069Y-90999809D01*
X160547739Y-90990810D01*
X160609000Y-90987800D01*
X161859000Y-90987800D01*
X161920261Y-90990810D01*
X161920261Y-90990810D01*
G37*
D13*
G04 #@! TO.P,D33,1*
G04 #@! TO.N,GND*
X161234000Y-92237800D03*
G04 #@! TD*
D16*
G04 #@! TO.N,GND*
G04 #@! TO.C,D34*
G36*
X161920261Y-81790810D02*
X161980931Y-81799809D01*
X162040428Y-81814712D01*
X162098177Y-81835375D01*
X162153623Y-81861599D01*
X162206231Y-81893131D01*
X162255496Y-81929668D01*
X162300942Y-81970858D01*
X162342132Y-82016304D01*
X162378669Y-82065569D01*
X162410201Y-82118177D01*
X162436425Y-82173623D01*
X162457088Y-82231372D01*
X162471991Y-82290869D01*
X162480990Y-82351539D01*
X162484000Y-82412800D01*
X162484000Y-83662800D01*
X162480990Y-83724061D01*
X162471991Y-83784731D01*
X162457088Y-83844228D01*
X162436425Y-83901977D01*
X162410201Y-83957423D01*
X162378669Y-84010031D01*
X162342132Y-84059296D01*
X162300942Y-84104742D01*
X162255496Y-84145932D01*
X162206231Y-84182469D01*
X162153623Y-84214001D01*
X162098177Y-84240225D01*
X162040428Y-84260888D01*
X161980931Y-84275791D01*
X161920261Y-84284790D01*
X161859000Y-84287800D01*
X160609000Y-84287800D01*
X160547739Y-84284790D01*
X160487069Y-84275791D01*
X160427572Y-84260888D01*
X160369823Y-84240225D01*
X160314377Y-84214001D01*
X160261769Y-84182469D01*
X160212504Y-84145932D01*
X160167058Y-84104742D01*
X160125868Y-84059296D01*
X160089331Y-84010031D01*
X160057799Y-83957423D01*
X160031575Y-83901977D01*
X160010912Y-83844228D01*
X159996009Y-83784731D01*
X159987010Y-83724061D01*
X159984000Y-83662800D01*
X159984000Y-82412800D01*
X159987010Y-82351539D01*
X159996009Y-82290869D01*
X160010912Y-82231372D01*
X160031575Y-82173623D01*
X160057799Y-82118177D01*
X160089331Y-82065569D01*
X160125868Y-82016304D01*
X160167058Y-81970858D01*
X160212504Y-81929668D01*
X160261769Y-81893131D01*
X160314377Y-81861599D01*
X160369823Y-81835375D01*
X160427572Y-81814712D01*
X160487069Y-81799809D01*
X160547739Y-81790810D01*
X160609000Y-81787800D01*
X161859000Y-81787800D01*
X161920261Y-81790810D01*
X161920261Y-81790810D01*
G37*
D13*
G04 #@! TD*
G04 #@! TO.P,D34,1*
G04 #@! TO.N,GND*
X161234000Y-83037800D03*
D17*
G04 #@! TO.P,D34,2*
G04 #@! TO.N,Net-(D34-Pad2)*
X164774000Y-83037800D03*
G04 #@! TD*
G04 #@! TO.P,D35,2*
G04 #@! TO.N,Net-(D35-Pad2)*
X164774000Y-73837800D03*
D16*
G04 #@! TD*
G04 #@! TO.N,GND*
G04 #@! TO.C,D35*
G36*
X161920261Y-72590810D02*
X161980931Y-72599809D01*
X162040428Y-72614712D01*
X162098177Y-72635375D01*
X162153623Y-72661599D01*
X162206231Y-72693131D01*
X162255496Y-72729668D01*
X162300942Y-72770858D01*
X162342132Y-72816304D01*
X162378669Y-72865569D01*
X162410201Y-72918177D01*
X162436425Y-72973623D01*
X162457088Y-73031372D01*
X162471991Y-73090869D01*
X162480990Y-73151539D01*
X162484000Y-73212800D01*
X162484000Y-74462800D01*
X162480990Y-74524061D01*
X162471991Y-74584731D01*
X162457088Y-74644228D01*
X162436425Y-74701977D01*
X162410201Y-74757423D01*
X162378669Y-74810031D01*
X162342132Y-74859296D01*
X162300942Y-74904742D01*
X162255496Y-74945932D01*
X162206231Y-74982469D01*
X162153623Y-75014001D01*
X162098177Y-75040225D01*
X162040428Y-75060888D01*
X161980931Y-75075791D01*
X161920261Y-75084790D01*
X161859000Y-75087800D01*
X160609000Y-75087800D01*
X160547739Y-75084790D01*
X160487069Y-75075791D01*
X160427572Y-75060888D01*
X160369823Y-75040225D01*
X160314377Y-75014001D01*
X160261769Y-74982469D01*
X160212504Y-74945932D01*
X160167058Y-74904742D01*
X160125868Y-74859296D01*
X160089331Y-74810031D01*
X160057799Y-74757423D01*
X160031575Y-74701977D01*
X160010912Y-74644228D01*
X159996009Y-74584731D01*
X159987010Y-74524061D01*
X159984000Y-74462800D01*
X159984000Y-73212800D01*
X159987010Y-73151539D01*
X159996009Y-73090869D01*
X160010912Y-73031372D01*
X160031575Y-72973623D01*
X160057799Y-72918177D01*
X160089331Y-72865569D01*
X160125868Y-72816304D01*
X160167058Y-72770858D01*
X160212504Y-72729668D01*
X160261769Y-72693131D01*
X160314377Y-72661599D01*
X160369823Y-72635375D01*
X160427572Y-72614712D01*
X160487069Y-72599809D01*
X160547739Y-72590810D01*
X160609000Y-72587800D01*
X161859000Y-72587800D01*
X161920261Y-72590810D01*
X161920261Y-72590810D01*
G37*
D13*
G04 #@! TO.P,D35,1*
G04 #@! TO.N,GND*
X161234000Y-73837800D03*
G04 #@! TD*
D16*
G04 #@! TO.N,GND*
G04 #@! TO.C,D36*
G36*
X154682261Y-72603510D02*
X154742931Y-72612509D01*
X154802428Y-72627412D01*
X154860177Y-72648075D01*
X154915623Y-72674299D01*
X154968231Y-72705831D01*
X155017496Y-72742368D01*
X155062942Y-72783558D01*
X155104132Y-72829004D01*
X155140669Y-72878269D01*
X155172201Y-72930877D01*
X155198425Y-72986323D01*
X155219088Y-73044072D01*
X155233991Y-73103569D01*
X155242990Y-73164239D01*
X155246000Y-73225500D01*
X155246000Y-74475500D01*
X155242990Y-74536761D01*
X155233991Y-74597431D01*
X155219088Y-74656928D01*
X155198425Y-74714677D01*
X155172201Y-74770123D01*
X155140669Y-74822731D01*
X155104132Y-74871996D01*
X155062942Y-74917442D01*
X155017496Y-74958632D01*
X154968231Y-74995169D01*
X154915623Y-75026701D01*
X154860177Y-75052925D01*
X154802428Y-75073588D01*
X154742931Y-75088491D01*
X154682261Y-75097490D01*
X154621000Y-75100500D01*
X153371000Y-75100500D01*
X153309739Y-75097490D01*
X153249069Y-75088491D01*
X153189572Y-75073588D01*
X153131823Y-75052925D01*
X153076377Y-75026701D01*
X153023769Y-74995169D01*
X152974504Y-74958632D01*
X152929058Y-74917442D01*
X152887868Y-74871996D01*
X152851331Y-74822731D01*
X152819799Y-74770123D01*
X152793575Y-74714677D01*
X152772912Y-74656928D01*
X152758009Y-74597431D01*
X152749010Y-74536761D01*
X152746000Y-74475500D01*
X152746000Y-73225500D01*
X152749010Y-73164239D01*
X152758009Y-73103569D01*
X152772912Y-73044072D01*
X152793575Y-72986323D01*
X152819799Y-72930877D01*
X152851331Y-72878269D01*
X152887868Y-72829004D01*
X152929058Y-72783558D01*
X152974504Y-72742368D01*
X153023769Y-72705831D01*
X153076377Y-72674299D01*
X153131823Y-72648075D01*
X153189572Y-72627412D01*
X153249069Y-72612509D01*
X153309739Y-72603510D01*
X153371000Y-72600500D01*
X154621000Y-72600500D01*
X154682261Y-72603510D01*
X154682261Y-72603510D01*
G37*
D13*
G04 #@! TD*
G04 #@! TO.P,D36,1*
G04 #@! TO.N,GND*
X153996000Y-73850500D03*
D17*
G04 #@! TO.P,D36,2*
G04 #@! TO.N,Net-(D36-Pad2)*
X157536000Y-73850500D03*
G04 #@! TD*
G04 #@! TO.P,D37,2*
G04 #@! TO.N,Net-(D37-Pad2)*
X150296000Y-73850500D03*
D16*
G04 #@! TD*
G04 #@! TO.N,GND*
G04 #@! TO.C,D37*
G36*
X147442261Y-72603510D02*
X147502931Y-72612509D01*
X147562428Y-72627412D01*
X147620177Y-72648075D01*
X147675623Y-72674299D01*
X147728231Y-72705831D01*
X147777496Y-72742368D01*
X147822942Y-72783558D01*
X147864132Y-72829004D01*
X147900669Y-72878269D01*
X147932201Y-72930877D01*
X147958425Y-72986323D01*
X147979088Y-73044072D01*
X147993991Y-73103569D01*
X148002990Y-73164239D01*
X148006000Y-73225500D01*
X148006000Y-74475500D01*
X148002990Y-74536761D01*
X147993991Y-74597431D01*
X147979088Y-74656928D01*
X147958425Y-74714677D01*
X147932201Y-74770123D01*
X147900669Y-74822731D01*
X147864132Y-74871996D01*
X147822942Y-74917442D01*
X147777496Y-74958632D01*
X147728231Y-74995169D01*
X147675623Y-75026701D01*
X147620177Y-75052925D01*
X147562428Y-75073588D01*
X147502931Y-75088491D01*
X147442261Y-75097490D01*
X147381000Y-75100500D01*
X146131000Y-75100500D01*
X146069739Y-75097490D01*
X146009069Y-75088491D01*
X145949572Y-75073588D01*
X145891823Y-75052925D01*
X145836377Y-75026701D01*
X145783769Y-74995169D01*
X145734504Y-74958632D01*
X145689058Y-74917442D01*
X145647868Y-74871996D01*
X145611331Y-74822731D01*
X145579799Y-74770123D01*
X145553575Y-74714677D01*
X145532912Y-74656928D01*
X145518009Y-74597431D01*
X145509010Y-74536761D01*
X145506000Y-74475500D01*
X145506000Y-73225500D01*
X145509010Y-73164239D01*
X145518009Y-73103569D01*
X145532912Y-73044072D01*
X145553575Y-72986323D01*
X145579799Y-72930877D01*
X145611331Y-72878269D01*
X145647868Y-72829004D01*
X145689058Y-72783558D01*
X145734504Y-72742368D01*
X145783769Y-72705831D01*
X145836377Y-72674299D01*
X145891823Y-72648075D01*
X145949572Y-72627412D01*
X146009069Y-72612509D01*
X146069739Y-72603510D01*
X146131000Y-72600500D01*
X147381000Y-72600500D01*
X147442261Y-72603510D01*
X147442261Y-72603510D01*
G37*
D13*
G04 #@! TO.P,D37,1*
G04 #@! TO.N,GND*
X146756000Y-73850500D03*
G04 #@! TD*
D16*
G04 #@! TO.N,GND*
G04 #@! TO.C,D38*
G36*
X147442261Y-83970010D02*
X147502931Y-83979009D01*
X147562428Y-83993912D01*
X147620177Y-84014575D01*
X147675623Y-84040799D01*
X147728231Y-84072331D01*
X147777496Y-84108868D01*
X147822942Y-84150058D01*
X147864132Y-84195504D01*
X147900669Y-84244769D01*
X147932201Y-84297377D01*
X147958425Y-84352823D01*
X147979088Y-84410572D01*
X147993991Y-84470069D01*
X148002990Y-84530739D01*
X148006000Y-84592000D01*
X148006000Y-85842000D01*
X148002990Y-85903261D01*
X147993991Y-85963931D01*
X147979088Y-86023428D01*
X147958425Y-86081177D01*
X147932201Y-86136623D01*
X147900669Y-86189231D01*
X147864132Y-86238496D01*
X147822942Y-86283942D01*
X147777496Y-86325132D01*
X147728231Y-86361669D01*
X147675623Y-86393201D01*
X147620177Y-86419425D01*
X147562428Y-86440088D01*
X147502931Y-86454991D01*
X147442261Y-86463990D01*
X147381000Y-86467000D01*
X146131000Y-86467000D01*
X146069739Y-86463990D01*
X146009069Y-86454991D01*
X145949572Y-86440088D01*
X145891823Y-86419425D01*
X145836377Y-86393201D01*
X145783769Y-86361669D01*
X145734504Y-86325132D01*
X145689058Y-86283942D01*
X145647868Y-86238496D01*
X145611331Y-86189231D01*
X145579799Y-86136623D01*
X145553575Y-86081177D01*
X145532912Y-86023428D01*
X145518009Y-85963931D01*
X145509010Y-85903261D01*
X145506000Y-85842000D01*
X145506000Y-84592000D01*
X145509010Y-84530739D01*
X145518009Y-84470069D01*
X145532912Y-84410572D01*
X145553575Y-84352823D01*
X145579799Y-84297377D01*
X145611331Y-84244769D01*
X145647868Y-84195504D01*
X145689058Y-84150058D01*
X145734504Y-84108868D01*
X145783769Y-84072331D01*
X145836377Y-84040799D01*
X145891823Y-84014575D01*
X145949572Y-83993912D01*
X146009069Y-83979009D01*
X146069739Y-83970010D01*
X146131000Y-83967000D01*
X147381000Y-83967000D01*
X147442261Y-83970010D01*
X147442261Y-83970010D01*
G37*
D13*
G04 #@! TD*
G04 #@! TO.P,D38,1*
G04 #@! TO.N,GND*
X146756000Y-85217000D03*
D17*
G04 #@! TO.P,D38,2*
G04 #@! TO.N,Net-(D38-Pad2)*
X150296000Y-85217000D03*
G04 #@! TD*
D15*
G04 #@! TO.P,POWER1,4*
G04 #@! TO.N,Net-(Battery1-Pad2)*
X188250000Y-138540000D03*
G04 #@! TO.P,POWER1,3*
X185710000Y-138540000D03*
G04 #@! TO.P,POWER1,2*
X183170000Y-138540000D03*
D14*
G04 #@! TO.P,POWER1,1*
G04 #@! TO.N,Master_Reset*
X180630000Y-138540000D03*
G04 #@! TD*
D18*
G04 #@! TO.N,Net-(D7-Pad2)*
X138001300Y-72191100D03*
G04 #@! TO.N,Net-(D8-Pad2)*
X138284500Y-73147200D03*
G04 #@! TO.N,Net-(D9-Pad2)*
X203670000Y-66954300D03*
G04 #@! TO.N,Net-(D13-Pad2)*
X207055100Y-70109700D03*
X200600000Y-69890300D03*
G04 #@! TO.N,Net-(D14-Pad2)*
X203961600Y-75535200D03*
G04 #@! TO.N,Net-(D15-Pad2)*
X203588700Y-76403800D03*
G04 #@! TO.N,Net-(D16-Pad2)*
X200531000Y-74521900D03*
G04 #@! TO.N,Net-(D20-Pad2)*
X195198100Y-79138800D03*
G04 #@! TO.N,Net-(D21-Pad2)*
X180409200Y-79129500D03*
G04 #@! TO.N,Net-(D22-Pad2)*
X177954400Y-116782900D03*
X175726700Y-80027800D03*
X195814900Y-80788500D03*
G04 #@! TO.N,Net-(D24-Pad2)*
X198104800Y-76974100D03*
X162878300Y-85833600D03*
X163321200Y-126072000D03*
G04 #@! TO.N,Net-(D32-Pad2)*
X164249600Y-125918700D03*
X166354700Y-128345500D03*
G04 #@! TO.N,Net-(Shift1-Pad9)*
X143922900Y-75975700D03*
X155090400Y-76038000D03*
X156532300Y-69454000D03*
X203637500Y-68341400D03*
G04 #@! TO.N,Serial_Clock*
X155588900Y-70627300D03*
X203244200Y-84738600D03*
X204366200Y-72532900D03*
X166309100Y-70626400D03*
X145041700Y-77932100D03*
X145041700Y-79989300D03*
G04 #@! TO.N,Reg_Clock*
X203316800Y-71675800D03*
X202010400Y-77799000D03*
X173265100Y-134511200D03*
X145272300Y-70832100D03*
X173461000Y-72672700D03*
G04 #@! TO.N,Output_Enable*
X142540700Y-70379300D03*
X173344100Y-124865800D03*
X176085900Y-69771900D03*
X203467700Y-69403900D03*
X203141300Y-78607300D03*
G04 #@! TO.N,Net-(Shift3-Pad9)*
X200114300Y-77898400D03*
X175693900Y-79203900D03*
G04 #@! TO.N,Net-(Shift4-Pad9)*
X174351800Y-131656500D03*
X170432100Y-133406800D03*
G04 #@! TO.N,Net-(D34-Pad2)*
X136978700Y-77077000D03*
G04 #@! TO.N,Net-(D35-Pad2)*
X140133000Y-78454400D03*
G04 #@! TO.N,Net-(D36-Pad2)*
X139392200Y-79032000D03*
G04 #@! TO.N,Net-(D37-Pad2)*
X139905800Y-75168700D03*
G04 #@! TO.N,Net-(Battery1-Pad2)*
X181104800Y-123803600D03*
G04 #@! TO.N,Serial_Data*
X169425200Y-124314700D03*
X167103200Y-104694700D03*
X156337900Y-67964400D03*
X142276200Y-68416900D03*
G04 #@! TO.N,Master_Reset*
X179018000Y-71823200D03*
X152493700Y-71112500D03*
G04 #@! TD*
D19*
G04 #@! TO.N,Net-(D7-Pad2)*
X162623000Y-57917000D02*
X161562700Y-57917000D01*
X138001300Y-72191100D02*
X138001300Y-71836100D01*
X138001300Y-71836100D02*
X145271200Y-64566200D01*
X145271200Y-64566200D02*
X155585700Y-64566200D01*
X155585700Y-64566200D02*
X161562700Y-58589200D01*
X161562700Y-58589200D02*
X161562700Y-57917000D01*
G04 #@! TO.N,Net-(D8-Pad2)*
X172423000Y-57917000D02*
X171362700Y-57917000D01*
X138284500Y-73147200D02*
X142066400Y-69365300D01*
X142066400Y-69365300D02*
X155729400Y-69365300D01*
X155729400Y-69365300D02*
X158640900Y-66453800D01*
X158640900Y-66453800D02*
X163498100Y-66453800D01*
X163498100Y-66453800D02*
X171362700Y-58589200D01*
X171362700Y-58589200D02*
X171362700Y-57917000D01*
G04 #@! TO.N,Net-(D9-Pad2)*
X182223000Y-59227300D02*
X189950000Y-66954300D01*
X189950000Y-66954300D02*
X203670000Y-66954300D01*
X182223000Y-57917000D02*
X182223000Y-59227300D01*
G04 #@! TO.N,Net-(D13-Pad2)*
X200600000Y-69890300D02*
X200819400Y-70109700D01*
X200819400Y-70109700D02*
X207055100Y-70109700D01*
G04 #@! TO.N,Net-(D14-Pad2)*
X211623000Y-76117000D02*
X210562700Y-76117000D01*
X203961600Y-75535200D02*
X206112300Y-77685900D01*
X206112300Y-77685900D02*
X209666000Y-77685900D01*
X209666000Y-77685900D02*
X210562700Y-76789200D01*
X210562700Y-76789200D02*
X210562700Y-76117000D01*
G04 #@! TO.N,Net-(D15-Pad2)*
X211623000Y-85217000D02*
X211623000Y-83906700D01*
X203588700Y-76403800D02*
X211091600Y-83906700D01*
X211091600Y-83906700D02*
X211623000Y-83906700D01*
G04 #@! TO.N,Net-(D16-Pad2)*
X195097000Y-85217000D02*
X195097000Y-83906700D01*
X200531000Y-74521900D02*
X200718300Y-74709200D01*
X200718300Y-74709200D02*
X200718300Y-78285400D01*
X200718300Y-78285400D02*
X195097000Y-83906700D01*
G04 #@! TO.N,Net-(D20-Pad2)*
X180696000Y-83037800D02*
X180696000Y-81727500D01*
X195198100Y-79138800D02*
X193208900Y-77149600D01*
X193208900Y-77149600D02*
X182705500Y-77149600D01*
X182705500Y-77149600D02*
X181988800Y-77866300D01*
X181988800Y-77866300D02*
X181988800Y-80434700D01*
X181988800Y-80434700D02*
X180696000Y-81727500D01*
G04 #@! TO.N,Net-(D21-Pad2)*
X180696000Y-92237800D02*
X179635700Y-92237800D01*
X180409200Y-79129500D02*
X179635700Y-79903000D01*
X179635700Y-79903000D02*
X179635700Y-92237800D01*
G04 #@! TO.N,Net-(D22-Pad2)*
X195814900Y-80788500D02*
X195814900Y-78962500D01*
X195814900Y-78962500D02*
X193556300Y-76703900D01*
X193556300Y-76703900D02*
X179050600Y-76703900D01*
X179050600Y-76703900D02*
X175726700Y-80027800D01*
X180696000Y-120699000D02*
X180696000Y-119388700D01*
X177954400Y-116782900D02*
X180560200Y-119388700D01*
X180560200Y-119388700D02*
X180696000Y-119388700D01*
G04 #@! TO.N,Net-(D24-Pad2)*
X198104800Y-76974100D02*
X196992200Y-75861500D01*
X196992200Y-75861500D02*
X175156600Y-75861500D01*
X175156600Y-75861500D02*
X165184500Y-85833600D01*
X165184500Y-85833600D02*
X162878300Y-85833600D01*
X190696000Y-129899000D02*
X189635700Y-129899000D01*
X189635700Y-129899000D02*
X189635700Y-130530700D01*
X189635700Y-130530700D02*
X185631100Y-134535300D01*
X185631100Y-134535300D02*
X185488300Y-134535300D01*
X185488300Y-134535300D02*
X181790400Y-138233200D01*
X181790400Y-138233200D02*
X181790400Y-139522700D01*
X181790400Y-139522700D02*
X181595100Y-139718000D01*
X181595100Y-139718000D02*
X172025500Y-139718000D01*
X172025500Y-139718000D02*
X169485500Y-137178000D01*
X169485500Y-137178000D02*
X167075100Y-137178000D01*
X167075100Y-137178000D02*
X163202000Y-133304900D01*
X163202000Y-133304900D02*
X163202000Y-126191200D01*
X163202000Y-126191200D02*
X163321200Y-126072000D01*
G04 #@! TO.N,Net-(D32-Pad2)*
X166354700Y-128345500D02*
X164249600Y-126240400D01*
X164249600Y-126240400D02*
X164249600Y-125918700D01*
G04 #@! TO.N,Net-(Shift1-Pad9)*
X155090400Y-76038000D02*
X143985200Y-76038000D01*
X143985200Y-76038000D02*
X143922900Y-75975700D01*
X203637500Y-68341400D02*
X157644900Y-68341400D01*
X157644900Y-68341400D02*
X156532300Y-69454000D01*
G04 #@! TO.N,Serial_Clock*
X155588900Y-70627300D02*
X166308200Y-70627300D01*
X166308200Y-70627300D02*
X166309100Y-70626400D01*
X204366100Y-72532900D02*
X204366100Y-71893200D01*
X204366100Y-71893200D02*
X203099300Y-70626400D01*
X203099300Y-70626400D02*
X166309100Y-70626400D01*
X203244200Y-84738600D02*
X202570700Y-84065100D01*
X202570700Y-84065100D02*
X202570700Y-74328300D01*
X202570700Y-74328300D02*
X204366100Y-72532900D01*
X204366100Y-72532900D02*
X204366200Y-72532900D01*
X145041700Y-79989300D02*
X145041700Y-77932100D01*
G04 #@! TO.N,Reg_Clock*
X173461000Y-72672700D02*
X173865200Y-72268500D01*
X173865200Y-72268500D02*
X178671000Y-72268500D01*
X178671000Y-72268500D02*
X178786000Y-72383500D01*
X178786000Y-72383500D02*
X179250100Y-72383500D01*
X179250100Y-72383500D02*
X179365100Y-72268500D01*
X179365100Y-72268500D02*
X202010400Y-72268500D01*
X202010400Y-72268500D02*
X202724100Y-72268500D01*
X202724100Y-72268500D02*
X203316800Y-71675800D01*
X202010400Y-72268500D02*
X202010400Y-77799000D01*
X175070000Y-135908000D02*
X173959700Y-135908000D01*
X173265100Y-134511200D02*
X173959700Y-135205800D01*
X173959700Y-135205800D02*
X173959700Y-135908000D01*
X173461000Y-72672700D02*
X172872600Y-72084300D01*
X172872600Y-72084300D02*
X149786500Y-72084300D01*
X149786500Y-72084300D02*
X148534300Y-70832100D01*
X148534300Y-70832100D02*
X145272300Y-70832100D01*
G04 #@! TO.N,Output_Enable*
X176085900Y-69771900D02*
X175843500Y-70014300D01*
X175843500Y-70014300D02*
X142905700Y-70014300D01*
X142905700Y-70014300D02*
X142540700Y-70379300D01*
X203141300Y-78607300D02*
X202981000Y-78447000D01*
X202981000Y-78447000D02*
X202981000Y-75406300D01*
X202981000Y-75406300D02*
X207618000Y-70769300D01*
X207618000Y-70769300D02*
X207618000Y-69829500D01*
X207618000Y-69829500D02*
X207192400Y-69403900D01*
X207192400Y-69403900D02*
X203467700Y-69403900D01*
X167450000Y-135908000D02*
X167450000Y-134797700D01*
X173344100Y-124865800D02*
X166339600Y-131870300D01*
X166339600Y-131870300D02*
X166339600Y-134309900D01*
X166339600Y-134309900D02*
X166827400Y-134797700D01*
X166827400Y-134797700D02*
X167450000Y-134797700D01*
X203467700Y-69403900D02*
X203337100Y-69273300D01*
X203337100Y-69273300D02*
X176584500Y-69273300D01*
X176584500Y-69273300D02*
X176085900Y-69771900D01*
G04 #@! TO.N,Net-(Shift3-Pad9)*
X175693900Y-79203900D02*
X178625900Y-76271900D01*
X178625900Y-76271900D02*
X194962700Y-76271900D01*
X194962700Y-76271900D02*
X196589200Y-77898400D01*
X196589200Y-77898400D02*
X200114300Y-77898400D01*
G04 #@! TO.N,Net-(Shift4-Pad9)*
X170432100Y-133406800D02*
X172601500Y-133406800D01*
X172601500Y-133406800D02*
X174351800Y-131656500D01*
G04 #@! TO.N,Net-(D34-Pad2)*
X164274000Y-83037800D02*
X164274000Y-81727500D01*
X136978700Y-77077000D02*
X136978700Y-77431000D01*
X136978700Y-77431000D02*
X139190000Y-79642300D01*
X139190000Y-79642300D02*
X140887100Y-79642300D01*
X140887100Y-79642300D02*
X143379800Y-77149600D01*
X143379800Y-77149600D02*
X159696100Y-77149600D01*
X159696100Y-77149600D02*
X164274000Y-81727500D01*
G04 #@! TO.N,Net-(D35-Pad2)*
X163213700Y-73837800D02*
X163213700Y-74510000D01*
X163213700Y-74510000D02*
X161125400Y-76598300D01*
X161125400Y-76598300D02*
X141989100Y-76598300D01*
X141989100Y-76598300D02*
X140133000Y-78454400D01*
X164274000Y-73837800D02*
X163213700Y-73837800D01*
G04 #@! TO.N,Net-(D36-Pad2)*
X157036000Y-73850500D02*
X155975700Y-73850500D01*
X139392200Y-79032000D02*
X139392200Y-78382000D01*
X139392200Y-78382000D02*
X142360900Y-75413300D01*
X142360900Y-75413300D02*
X144319500Y-75413300D01*
X144319500Y-75413300D02*
X144511300Y-75605100D01*
X144511300Y-75605100D02*
X153821000Y-75605100D01*
X153821000Y-75605100D02*
X153980600Y-75445500D01*
X153980600Y-75445500D02*
X155052900Y-75445500D01*
X155052900Y-75445500D02*
X155975700Y-74522700D01*
X155975700Y-74522700D02*
X155975700Y-73850500D01*
G04 #@! TO.N,Net-(D37-Pad2)*
X149796000Y-73850500D02*
X148735700Y-73850500D01*
X139905800Y-75168700D02*
X142798100Y-72276400D01*
X142798100Y-72276400D02*
X147833800Y-72276400D01*
X147833800Y-72276400D02*
X148735700Y-73178300D01*
X148735700Y-73178300D02*
X148735700Y-73850500D01*
G04 #@! TO.N,Net-(Battery1-Pad2)*
X172339000Y-119069000D02*
X171196000Y-119069000D01*
X181104800Y-123803600D02*
X179504900Y-122203700D01*
X179504900Y-122203700D02*
X179504900Y-119974900D01*
X179504900Y-119974900D02*
X178599000Y-119069000D01*
X178599000Y-119069000D02*
X172339000Y-119069000D01*
X172339000Y-119069000D02*
X172339000Y-106697300D01*
X172339000Y-105537000D02*
X172339000Y-106697300D01*
X185710000Y-138540000D02*
X188250000Y-138540000D01*
X183170000Y-138540000D02*
X185710000Y-138540000D01*
G04 #@! TO.N,Net-(BTN1-Pad2)*
X160715000Y-141040000D02*
X154215000Y-141040000D01*
X167450000Y-139558300D02*
X167680000Y-139558300D01*
X167680000Y-139558300D02*
X168575300Y-140453600D01*
X168575300Y-140453600D02*
X168575300Y-141441000D01*
X168575300Y-141441000D02*
X167905700Y-142110600D01*
X167905700Y-142110600D02*
X161785600Y-142110600D01*
X161785600Y-142110600D02*
X160715000Y-141040000D01*
X167450000Y-138448000D02*
X167450000Y-139558300D01*
G04 #@! TO.N,GND*
X199283000Y-57917000D02*
X197943400Y-56577400D01*
X197943400Y-56577400D02*
X190822600Y-56577400D01*
X190822600Y-56577400D02*
X189483000Y-57917000D01*
X189483000Y-57917000D02*
X188172600Y-56606600D01*
X188172600Y-56606600D02*
X180993400Y-56606600D01*
X180993400Y-56606600D02*
X179683000Y-57917000D01*
X178156000Y-128547000D02*
X178156000Y-129899000D01*
X174459100Y-124395900D02*
X178156000Y-128092900D01*
X178156000Y-128092900D02*
X178156000Y-128547000D01*
X178156000Y-128547000D02*
X186804000Y-128547000D01*
X186804000Y-128547000D02*
X188156000Y-129899000D01*
X174459100Y-124395900D02*
X173704600Y-123641500D01*
X173704600Y-123641500D02*
X170914300Y-123641500D01*
X178156000Y-120699000D02*
X174459100Y-124395900D01*
X169926000Y-146558000D02*
X171236400Y-147868400D01*
X171236400Y-147868400D02*
X177639600Y-147868400D01*
X177639600Y-147868400D02*
X178950000Y-146558000D01*
X160902000Y-146558000D02*
X162212400Y-147868400D01*
X162212400Y-147868400D02*
X168615600Y-147868400D01*
X168615600Y-147868400D02*
X169926000Y-146558000D01*
X130683000Y-57917000D02*
X131993400Y-56606600D01*
X131993400Y-56606600D02*
X139172600Y-56606600D01*
X139172600Y-56606600D02*
X140483000Y-57917000D01*
X209083000Y-67017000D02*
X209083000Y-76117000D01*
X209083000Y-57917000D02*
X209083000Y-67017000D01*
X185369000Y-73837800D02*
X186688300Y-75157100D01*
X186688300Y-75157100D02*
X191237700Y-75157100D01*
X191237700Y-75157100D02*
X192557000Y-73837800D01*
X178156000Y-73837800D02*
X179466400Y-75148200D01*
X179466400Y-75148200D02*
X184058600Y-75148200D01*
X184058600Y-75148200D02*
X185369000Y-73837800D01*
X169799000Y-106697300D02*
X169629000Y-106867300D01*
X169629000Y-106867300D02*
X169629000Y-122356200D01*
X169629000Y-122356200D02*
X170914300Y-123641500D01*
X163889700Y-124669800D02*
X164132500Y-124912600D01*
X164132500Y-124912600D02*
X169643200Y-124912600D01*
X169643200Y-124912600D02*
X170914300Y-123641500D01*
X161734000Y-129921000D02*
X161734000Y-126825500D01*
X161734000Y-126825500D02*
X163889700Y-124669800D01*
X163889700Y-124669800D02*
X163889700Y-122854700D01*
X163889700Y-122854700D02*
X161734000Y-120699000D01*
X209083000Y-85217000D02*
X207769500Y-86530500D01*
X207769500Y-86530500D02*
X193870500Y-86530500D01*
X193870500Y-86530500D02*
X192557000Y-85217000D01*
X161734000Y-73837800D02*
X160409700Y-72513500D01*
X160409700Y-72513500D02*
X155833000Y-72513500D01*
X155833000Y-72513500D02*
X154496000Y-73850500D01*
X169799000Y-105537000D02*
X169799000Y-106697300D01*
X130683000Y-85217000D02*
X131998900Y-86532900D01*
X131998900Y-86532900D02*
X145940100Y-86532900D01*
X145940100Y-86532900D02*
X147256000Y-85217000D01*
X161734000Y-92237800D02*
X169065200Y-99569000D01*
X169065200Y-99569000D02*
X171196000Y-99569000D01*
X167450000Y-140988000D02*
X166339700Y-140988000D01*
X160715000Y-136540000D02*
X161891700Y-136540000D01*
X161891700Y-136540000D02*
X166339700Y-140988000D01*
X154215000Y-136540000D02*
X160715000Y-136540000D01*
X171196000Y-99569000D02*
X178156000Y-92609000D01*
X178156000Y-92609000D02*
X178156000Y-92237800D01*
X150283000Y-57917000D02*
X148972600Y-56606600D01*
X148972600Y-56606600D02*
X141793400Y-56606600D01*
X141793400Y-56606600D02*
X140483000Y-57917000D01*
X188150000Y-146558000D02*
X186813400Y-147894600D01*
X186813400Y-147894600D02*
X180286600Y-147894600D01*
X180286600Y-147894600D02*
X178950000Y-146558000D01*
X151877000Y-146558000D02*
X153187400Y-147868400D01*
X153187400Y-147868400D02*
X159591600Y-147868400D01*
X159591600Y-147868400D02*
X160902000Y-146558000D01*
X147256000Y-73850500D02*
X148572200Y-75166700D01*
X148572200Y-75166700D02*
X153179800Y-75166700D01*
X153179800Y-75166700D02*
X154496000Y-73850500D01*
G04 #@! TO.N,Serial_Data*
X167103200Y-104694700D02*
X167103200Y-121992700D01*
X167103200Y-121992700D02*
X169425200Y-124314700D01*
X142276200Y-68416900D02*
X155885400Y-68416900D01*
X155885400Y-68416900D02*
X156337900Y-67964400D01*
G04 #@! TO.N,Master_Reset*
X179018000Y-71823200D02*
X178435100Y-71240300D01*
X178435100Y-71240300D02*
X152621500Y-71240300D01*
X152621500Y-71240300D02*
X152493700Y-71112500D01*
X175070000Y-133971600D02*
X175021900Y-133923500D01*
X175021900Y-133923500D02*
X172849100Y-133923500D01*
X172849100Y-133923500D02*
X172801000Y-133971600D01*
X172801000Y-133971600D02*
X169163900Y-133971600D01*
X169163900Y-133971600D02*
X168560300Y-133368000D01*
X167450000Y-133368000D02*
X168560300Y-133368000D01*
X175070000Y-133971600D02*
X175070000Y-134478300D01*
X175070000Y-133368000D02*
X175070000Y-133971600D01*
X180630000Y-138540000D02*
X179469700Y-138540000D01*
X179469700Y-138540000D02*
X175408000Y-134478300D01*
X175408000Y-134478300D02*
X175070000Y-134478300D01*
G04 #@! TD*
D20*
G36*
X190120621Y-148536156D02*
X190733171Y-148658000D01*
X191646829Y-148658000D01*
X191865001Y-148614603D01*
X191865001Y-148741197D01*
X191842238Y-148870292D01*
X191828890Y-148893412D01*
X191808436Y-148910574D01*
X191734021Y-148937659D01*
X191718697Y-148939000D01*
X187410288Y-148939000D01*
X187424431Y-148929550D01*
X188275000Y-148929550D01*
X188943376Y-148796602D01*
X189509997Y-148417997D01*
X189643889Y-148217614D01*
X190120621Y-148536156D01*
X190120621Y-148536156D01*
G37*
X190120621Y-148536156D02*
X190733171Y-148658000D01*
X191646829Y-148658000D01*
X191865001Y-148614603D01*
X191865001Y-148741197D01*
X191842238Y-148870292D01*
X191828890Y-148893412D01*
X191808436Y-148910574D01*
X191734021Y-148937659D01*
X191718697Y-148939000D01*
X187410288Y-148939000D01*
X187424431Y-148929550D01*
X188275000Y-148929550D01*
X188943376Y-148796602D01*
X189509997Y-148417997D01*
X189643889Y-148217614D01*
X190120621Y-148536156D01*
G36*
X179689712Y-148939000D02*
X178197277Y-148939000D01*
X178211420Y-148929550D01*
X179075000Y-148929550D01*
X179537797Y-148837494D01*
X179689712Y-148939000D01*
X179689712Y-148939000D01*
G37*
X179689712Y-148939000D02*
X178197277Y-148939000D01*
X178211420Y-148929550D01*
X179075000Y-148929550D01*
X179537797Y-148837494D01*
X179689712Y-148939000D01*
G36*
X161654723Y-148939000D02*
X160149277Y-148939000D01*
X160163420Y-148929550D01*
X161027000Y-148929550D01*
X161499824Y-148835500D01*
X161654723Y-148939000D01*
X161654723Y-148939000D01*
G37*
X161654723Y-148939000D02*
X160149277Y-148939000D01*
X160163420Y-148929550D01*
X161027000Y-148929550D01*
X161499824Y-148835500D01*
X161654723Y-148939000D01*
G36*
X152629723Y-148939000D02*
X151227116Y-148939000D01*
X151170341Y-148929550D01*
X152002000Y-148929550D01*
X152474824Y-148835500D01*
X152629723Y-148939000D01*
X152629723Y-148939000D01*
G37*
X152629723Y-148939000D02*
X151227116Y-148939000D01*
X151170341Y-148929550D01*
X152002000Y-148929550D01*
X152474824Y-148835500D01*
X152629723Y-148939000D01*
G36*
X170678723Y-148939000D02*
X169173277Y-148939000D01*
X169187420Y-148929550D01*
X170051000Y-148929550D01*
X170523824Y-148835500D01*
X170678723Y-148939000D01*
X170678723Y-148939000D01*
G37*
X170678723Y-148939000D02*
X169173277Y-148939000D01*
X169187420Y-148929550D01*
X170051000Y-148929550D01*
X170523824Y-148835500D01*
X170678723Y-148939000D01*
G36*
X160534001Y-127564368D02*
X159940624Y-127682398D01*
X159374003Y-128061003D01*
X158995398Y-128627624D01*
X158862450Y-129296000D01*
X158862450Y-130546000D01*
X158995398Y-131214376D01*
X159374003Y-131780997D01*
X159940624Y-132159602D01*
X160609000Y-132292550D01*
X161859000Y-132292550D01*
X162002000Y-132264106D01*
X162002000Y-133186712D01*
X161978491Y-133304900D01*
X162002000Y-133423087D01*
X162071625Y-133773116D01*
X162336848Y-134170052D01*
X162437049Y-134237004D01*
X165758958Y-137558914D01*
X165660239Y-137706657D01*
X165512777Y-138448000D01*
X165516755Y-138468000D01*
X162823804Y-135775049D01*
X162756852Y-135674848D01*
X162580994Y-135557344D01*
X162495294Y-135350446D01*
X161904554Y-134759706D01*
X161132716Y-134440000D01*
X160297284Y-134440000D01*
X159525446Y-134759706D01*
X158945152Y-135340000D01*
X155984848Y-135340000D01*
X155404554Y-134759706D01*
X154632716Y-134440000D01*
X153797284Y-134440000D01*
X153025446Y-134759706D01*
X152434706Y-135350446D01*
X152115000Y-136122284D01*
X152115000Y-136957716D01*
X152434706Y-137729554D01*
X153025446Y-138320294D01*
X153797284Y-138640000D01*
X154632716Y-138640000D01*
X155404554Y-138320294D01*
X155984848Y-137740000D01*
X158945152Y-137740000D01*
X159525446Y-138320294D01*
X160297284Y-138640000D01*
X161132716Y-138640000D01*
X161904554Y-138320294D01*
X161939746Y-138285102D01*
X164565244Y-140910600D01*
X162815000Y-140910600D01*
X162815000Y-140622284D01*
X162495294Y-139850446D01*
X161904554Y-139259706D01*
X161132716Y-138940000D01*
X160297284Y-138940000D01*
X159525446Y-139259706D01*
X158945152Y-139840000D01*
X155984848Y-139840000D01*
X155404554Y-139259706D01*
X154632716Y-138940000D01*
X153797284Y-138940000D01*
X153025446Y-139259706D01*
X152434706Y-139850446D01*
X152115000Y-140622284D01*
X152115000Y-141457716D01*
X152434706Y-142229554D01*
X153025446Y-142820294D01*
X153797284Y-143140000D01*
X154632716Y-143140000D01*
X155404554Y-142820294D01*
X155984848Y-142240000D01*
X158945152Y-142240000D01*
X159525446Y-142820294D01*
X160297284Y-143140000D01*
X161132716Y-143140000D01*
X161153425Y-143131422D01*
X161317383Y-143240975D01*
X161785599Y-143334109D01*
X161903787Y-143310600D01*
X167787512Y-143310600D01*
X167905700Y-143334109D01*
X168023888Y-143310600D01*
X168373917Y-143240975D01*
X168770852Y-142975752D01*
X168837804Y-142875551D01*
X169340251Y-142373104D01*
X169440452Y-142306152D01*
X169705675Y-141909217D01*
X169775300Y-141559188D01*
X169775300Y-141559187D01*
X169798809Y-141441001D01*
X169775300Y-141322814D01*
X169775300Y-140571784D01*
X169798809Y-140453599D01*
X169765801Y-140287656D01*
X169705675Y-139985383D01*
X169440452Y-139588448D01*
X169340254Y-139521498D01*
X169146970Y-139328214D01*
X169239761Y-139189343D01*
X169332675Y-138722231D01*
X171093398Y-140482954D01*
X171160348Y-140583152D01*
X171557283Y-140848375D01*
X171907312Y-140918000D01*
X171907313Y-140918000D01*
X172025499Y-140941509D01*
X172143686Y-140918000D01*
X173146701Y-140918000D01*
X173132777Y-140988000D01*
X173280239Y-141729343D01*
X173700176Y-142357824D01*
X174328657Y-142777761D01*
X174882867Y-142888000D01*
X175257133Y-142888000D01*
X175811343Y-142777761D01*
X176439824Y-142357824D01*
X176859761Y-141729343D01*
X177007223Y-140988000D01*
X176993299Y-140918000D01*
X181476912Y-140918000D01*
X181595100Y-140941509D01*
X181713288Y-140918000D01*
X182063317Y-140848375D01*
X182460252Y-140583152D01*
X182527204Y-140482951D01*
X182555351Y-140454804D01*
X182611704Y-140417150D01*
X182977946Y-140490000D01*
X183362054Y-140490000D01*
X183930852Y-140376859D01*
X184440000Y-140036657D01*
X184949148Y-140376859D01*
X185517946Y-140490000D01*
X185902054Y-140490000D01*
X186470852Y-140376859D01*
X186980000Y-140036657D01*
X187489148Y-140376859D01*
X188057946Y-140490000D01*
X188442054Y-140490000D01*
X189010852Y-140376859D01*
X189655871Y-139945871D01*
X190086859Y-139300852D01*
X190238202Y-138540000D01*
X190086859Y-137779148D01*
X189655871Y-137134129D01*
X189010852Y-136703141D01*
X188442054Y-136590000D01*
X188057946Y-136590000D01*
X187489148Y-136703141D01*
X186980000Y-137043343D01*
X186470852Y-136703141D01*
X185902054Y-136590000D01*
X185517946Y-136590000D01*
X185034490Y-136686165D01*
X186043972Y-135676684D01*
X186099317Y-135665675D01*
X186496252Y-135400452D01*
X186563204Y-135300251D01*
X190042505Y-131820951D01*
X190126621Y-131877156D01*
X190739171Y-131999000D01*
X191652829Y-131999000D01*
X191865000Y-131956796D01*
X191865001Y-144501397D01*
X191646829Y-144458000D01*
X190733171Y-144458000D01*
X190120621Y-144579844D01*
X189643889Y-144898386D01*
X189509997Y-144698003D01*
X188943376Y-144319398D01*
X188275000Y-144186450D01*
X187025000Y-144186450D01*
X186356624Y-144319398D01*
X185790003Y-144698003D01*
X185411398Y-145264624D01*
X185278450Y-145933000D01*
X185278450Y-146694600D01*
X184353970Y-146694600D01*
X184381141Y-146558000D01*
X184218156Y-145738621D01*
X183754015Y-145043985D01*
X183059379Y-144579844D01*
X182446829Y-144458000D01*
X181533171Y-144458000D01*
X180920621Y-144579844D01*
X180443889Y-144898386D01*
X180309997Y-144698003D01*
X179743376Y-144319398D01*
X179075000Y-144186450D01*
X177825000Y-144186450D01*
X177156624Y-144319398D01*
X176590003Y-144698003D01*
X176211398Y-145264624D01*
X176078450Y-145933000D01*
X176078450Y-146668400D01*
X175335181Y-146668400D01*
X175357141Y-146558000D01*
X175194156Y-145738621D01*
X174730015Y-145043985D01*
X174035379Y-144579844D01*
X173422829Y-144458000D01*
X172509171Y-144458000D01*
X171896621Y-144579844D01*
X171419889Y-144898386D01*
X171285997Y-144698003D01*
X170719376Y-144319398D01*
X170051000Y-144186450D01*
X168801000Y-144186450D01*
X168132624Y-144319398D01*
X167566003Y-144698003D01*
X167187398Y-145264624D01*
X167054450Y-145933000D01*
X167054450Y-146668400D01*
X166311181Y-146668400D01*
X166333141Y-146558000D01*
X166170156Y-145738621D01*
X165706015Y-145043985D01*
X165011379Y-144579844D01*
X164398829Y-144458000D01*
X163485171Y-144458000D01*
X162872621Y-144579844D01*
X162395889Y-144898386D01*
X162261997Y-144698003D01*
X161695376Y-144319398D01*
X161027000Y-144186450D01*
X159777000Y-144186450D01*
X159108624Y-144319398D01*
X158542003Y-144698003D01*
X158163398Y-145264624D01*
X158030450Y-145933000D01*
X158030450Y-146668400D01*
X157286181Y-146668400D01*
X157308141Y-146558000D01*
X157145156Y-145738621D01*
X156681015Y-145043985D01*
X155986379Y-144579844D01*
X155373829Y-144458000D01*
X154460171Y-144458000D01*
X153847621Y-144579844D01*
X153370889Y-144898386D01*
X153236997Y-144698003D01*
X152670376Y-144319398D01*
X152002000Y-144186450D01*
X150781000Y-144186450D01*
X150781000Y-132270550D01*
X152002000Y-132270550D01*
X152670376Y-132137602D01*
X153236997Y-131758997D01*
X153370889Y-131558614D01*
X153847621Y-131877156D01*
X154460171Y-131999000D01*
X155373829Y-131999000D01*
X155986379Y-131877156D01*
X156681015Y-131413015D01*
X157145156Y-130718379D01*
X157308141Y-129899000D01*
X157145156Y-129079621D01*
X156681015Y-128384985D01*
X155986379Y-127920844D01*
X155373829Y-127799000D01*
X154460171Y-127799000D01*
X153847621Y-127920844D01*
X153370889Y-128239386D01*
X153236997Y-128039003D01*
X152680257Y-127667000D01*
X159396276Y-127667000D01*
X159512000Y-127690019D01*
X159627724Y-127667000D01*
X159970462Y-127598825D01*
X160359127Y-127339127D01*
X160534001Y-127077410D01*
X160534001Y-127564368D01*
X160534001Y-127564368D01*
G37*
X160534001Y-127564368D02*
X159940624Y-127682398D01*
X159374003Y-128061003D01*
X158995398Y-128627624D01*
X158862450Y-129296000D01*
X158862450Y-130546000D01*
X158995398Y-131214376D01*
X159374003Y-131780997D01*
X159940624Y-132159602D01*
X160609000Y-132292550D01*
X161859000Y-132292550D01*
X162002000Y-132264106D01*
X162002000Y-133186712D01*
X161978491Y-133304900D01*
X162002000Y-133423087D01*
X162071625Y-133773116D01*
X162336848Y-134170052D01*
X162437049Y-134237004D01*
X165758958Y-137558914D01*
X165660239Y-137706657D01*
X165512777Y-138448000D01*
X165516755Y-138468000D01*
X162823804Y-135775049D01*
X162756852Y-135674848D01*
X162580994Y-135557344D01*
X162495294Y-135350446D01*
X161904554Y-134759706D01*
X161132716Y-134440000D01*
X160297284Y-134440000D01*
X159525446Y-134759706D01*
X158945152Y-135340000D01*
X155984848Y-135340000D01*
X155404554Y-134759706D01*
X154632716Y-134440000D01*
X153797284Y-134440000D01*
X153025446Y-134759706D01*
X152434706Y-135350446D01*
X152115000Y-136122284D01*
X152115000Y-136957716D01*
X152434706Y-137729554D01*
X153025446Y-138320294D01*
X153797284Y-138640000D01*
X154632716Y-138640000D01*
X155404554Y-138320294D01*
X155984848Y-137740000D01*
X158945152Y-137740000D01*
X159525446Y-138320294D01*
X160297284Y-138640000D01*
X161132716Y-138640000D01*
X161904554Y-138320294D01*
X161939746Y-138285102D01*
X164565244Y-140910600D01*
X162815000Y-140910600D01*
X162815000Y-140622284D01*
X162495294Y-139850446D01*
X161904554Y-139259706D01*
X161132716Y-138940000D01*
X160297284Y-138940000D01*
X159525446Y-139259706D01*
X158945152Y-139840000D01*
X155984848Y-139840000D01*
X155404554Y-139259706D01*
X154632716Y-138940000D01*
X153797284Y-138940000D01*
X153025446Y-139259706D01*
X152434706Y-139850446D01*
X152115000Y-140622284D01*
X152115000Y-141457716D01*
X152434706Y-142229554D01*
X153025446Y-142820294D01*
X153797284Y-143140000D01*
X154632716Y-143140000D01*
X155404554Y-142820294D01*
X155984848Y-142240000D01*
X158945152Y-142240000D01*
X159525446Y-142820294D01*
X160297284Y-143140000D01*
X161132716Y-143140000D01*
X161153425Y-143131422D01*
X161317383Y-143240975D01*
X161785599Y-143334109D01*
X161903787Y-143310600D01*
X167787512Y-143310600D01*
X167905700Y-143334109D01*
X168023888Y-143310600D01*
X168373917Y-143240975D01*
X168770852Y-142975752D01*
X168837804Y-142875551D01*
X169340251Y-142373104D01*
X169440452Y-142306152D01*
X169705675Y-141909217D01*
X169775300Y-141559188D01*
X169775300Y-141559187D01*
X169798809Y-141441001D01*
X169775300Y-141322814D01*
X169775300Y-140571784D01*
X169798809Y-140453599D01*
X169765801Y-140287656D01*
X169705675Y-139985383D01*
X169440452Y-139588448D01*
X169340254Y-139521498D01*
X169146970Y-139328214D01*
X169239761Y-139189343D01*
X169332675Y-138722231D01*
X171093398Y-140482954D01*
X171160348Y-140583152D01*
X171557283Y-140848375D01*
X171907312Y-140918000D01*
X171907313Y-140918000D01*
X172025499Y-140941509D01*
X172143686Y-140918000D01*
X173146701Y-140918000D01*
X173132777Y-140988000D01*
X173280239Y-141729343D01*
X173700176Y-142357824D01*
X174328657Y-142777761D01*
X174882867Y-142888000D01*
X175257133Y-142888000D01*
X175811343Y-142777761D01*
X176439824Y-142357824D01*
X176859761Y-141729343D01*
X177007223Y-140988000D01*
X176993299Y-140918000D01*
X181476912Y-140918000D01*
X181595100Y-140941509D01*
X181713288Y-140918000D01*
X182063317Y-140848375D01*
X182460252Y-140583152D01*
X182527204Y-140482951D01*
X182555351Y-140454804D01*
X182611704Y-140417150D01*
X182977946Y-140490000D01*
X183362054Y-140490000D01*
X183930852Y-140376859D01*
X184440000Y-140036657D01*
X184949148Y-140376859D01*
X185517946Y-140490000D01*
X185902054Y-140490000D01*
X186470852Y-140376859D01*
X186980000Y-140036657D01*
X187489148Y-140376859D01*
X188057946Y-140490000D01*
X188442054Y-140490000D01*
X189010852Y-140376859D01*
X189655871Y-139945871D01*
X190086859Y-139300852D01*
X190238202Y-138540000D01*
X190086859Y-137779148D01*
X189655871Y-137134129D01*
X189010852Y-136703141D01*
X188442054Y-136590000D01*
X188057946Y-136590000D01*
X187489148Y-136703141D01*
X186980000Y-137043343D01*
X186470852Y-136703141D01*
X185902054Y-136590000D01*
X185517946Y-136590000D01*
X185034490Y-136686165D01*
X186043972Y-135676684D01*
X186099317Y-135665675D01*
X186496252Y-135400452D01*
X186563204Y-135300251D01*
X190042505Y-131820951D01*
X190126621Y-131877156D01*
X190739171Y-131999000D01*
X191652829Y-131999000D01*
X191865000Y-131956796D01*
X191865001Y-144501397D01*
X191646829Y-144458000D01*
X190733171Y-144458000D01*
X190120621Y-144579844D01*
X189643889Y-144898386D01*
X189509997Y-144698003D01*
X188943376Y-144319398D01*
X188275000Y-144186450D01*
X187025000Y-144186450D01*
X186356624Y-144319398D01*
X185790003Y-144698003D01*
X185411398Y-145264624D01*
X185278450Y-145933000D01*
X185278450Y-146694600D01*
X184353970Y-146694600D01*
X184381141Y-146558000D01*
X184218156Y-145738621D01*
X183754015Y-145043985D01*
X183059379Y-144579844D01*
X182446829Y-144458000D01*
X181533171Y-144458000D01*
X180920621Y-144579844D01*
X180443889Y-144898386D01*
X180309997Y-144698003D01*
X179743376Y-144319398D01*
X179075000Y-144186450D01*
X177825000Y-144186450D01*
X177156624Y-144319398D01*
X176590003Y-144698003D01*
X176211398Y-145264624D01*
X176078450Y-145933000D01*
X176078450Y-146668400D01*
X175335181Y-146668400D01*
X175357141Y-146558000D01*
X175194156Y-145738621D01*
X174730015Y-145043985D01*
X174035379Y-144579844D01*
X173422829Y-144458000D01*
X172509171Y-144458000D01*
X171896621Y-144579844D01*
X171419889Y-144898386D01*
X171285997Y-144698003D01*
X170719376Y-144319398D01*
X170051000Y-144186450D01*
X168801000Y-144186450D01*
X168132624Y-144319398D01*
X167566003Y-144698003D01*
X167187398Y-145264624D01*
X167054450Y-145933000D01*
X167054450Y-146668400D01*
X166311181Y-146668400D01*
X166333141Y-146558000D01*
X166170156Y-145738621D01*
X165706015Y-145043985D01*
X165011379Y-144579844D01*
X164398829Y-144458000D01*
X163485171Y-144458000D01*
X162872621Y-144579844D01*
X162395889Y-144898386D01*
X162261997Y-144698003D01*
X161695376Y-144319398D01*
X161027000Y-144186450D01*
X159777000Y-144186450D01*
X159108624Y-144319398D01*
X158542003Y-144698003D01*
X158163398Y-145264624D01*
X158030450Y-145933000D01*
X158030450Y-146668400D01*
X157286181Y-146668400D01*
X157308141Y-146558000D01*
X157145156Y-145738621D01*
X156681015Y-145043985D01*
X155986379Y-144579844D01*
X155373829Y-144458000D01*
X154460171Y-144458000D01*
X153847621Y-144579844D01*
X153370889Y-144898386D01*
X153236997Y-144698003D01*
X152670376Y-144319398D01*
X152002000Y-144186450D01*
X150781000Y-144186450D01*
X150781000Y-132270550D01*
X152002000Y-132270550D01*
X152670376Y-132137602D01*
X153236997Y-131758997D01*
X153370889Y-131558614D01*
X153847621Y-131877156D01*
X154460171Y-131999000D01*
X155373829Y-131999000D01*
X155986379Y-131877156D01*
X156681015Y-131413015D01*
X157145156Y-130718379D01*
X157308141Y-129899000D01*
X157145156Y-129079621D01*
X156681015Y-128384985D01*
X155986379Y-127920844D01*
X155373829Y-127799000D01*
X154460171Y-127799000D01*
X153847621Y-127920844D01*
X153370889Y-128239386D01*
X153236997Y-128039003D01*
X152680257Y-127667000D01*
X159396276Y-127667000D01*
X159512000Y-127690019D01*
X159627724Y-127667000D01*
X159970462Y-127598825D01*
X160359127Y-127339127D01*
X160534001Y-127077410D01*
X160534001Y-127564368D01*
G36*
X172120625Y-135275914D02*
X172500386Y-135655675D01*
X172759700Y-135763086D01*
X172759700Y-135789812D01*
X172736191Y-135908000D01*
X172829325Y-136376217D01*
X173094548Y-136773152D01*
X173491483Y-137038375D01*
X173547646Y-137049547D01*
X173633476Y-137178000D01*
X173280239Y-137706657D01*
X173132777Y-138448000D01*
X173146701Y-138518000D01*
X172522556Y-138518000D01*
X170417604Y-136413049D01*
X170350652Y-136312848D01*
X169953717Y-136047625D01*
X169603688Y-135978000D01*
X169485500Y-135954491D01*
X169373546Y-135976760D01*
X169387223Y-135908000D01*
X169242318Y-135179511D01*
X169282087Y-135171600D01*
X172077417Y-135171600D01*
X172120625Y-135275914D01*
X172120625Y-135275914D01*
G37*
X172120625Y-135275914D02*
X172500386Y-135655675D01*
X172759700Y-135763086D01*
X172759700Y-135789812D01*
X172736191Y-135908000D01*
X172829325Y-136376217D01*
X173094548Y-136773152D01*
X173491483Y-137038375D01*
X173547646Y-137049547D01*
X173633476Y-137178000D01*
X173280239Y-137706657D01*
X173132777Y-138448000D01*
X173146701Y-138518000D01*
X172522556Y-138518000D01*
X170417604Y-136413049D01*
X170350652Y-136312848D01*
X169953717Y-136047625D01*
X169603688Y-135978000D01*
X169485500Y-135954491D01*
X169373546Y-135976760D01*
X169387223Y-135908000D01*
X169242318Y-135179511D01*
X169282087Y-135171600D01*
X172077417Y-135171600D01*
X172120625Y-135275914D01*
G36*
X177750644Y-138518000D02*
X176993299Y-138518000D01*
X177007223Y-138448000D01*
X176859761Y-137706657D01*
X176699593Y-137466949D01*
X177750644Y-138518000D01*
X177750644Y-138518000D01*
G37*
X177750644Y-138518000D02*
X176993299Y-138518000D01*
X177007223Y-138448000D01*
X176859761Y-137706657D01*
X176699593Y-137466949D01*
X177750644Y-138518000D01*
G36*
X185284450Y-130524000D02*
X185417398Y-131192376D01*
X185796003Y-131758997D01*
X186344112Y-132125233D01*
X185075429Y-133393916D01*
X185020083Y-133404925D01*
X184623148Y-133670148D01*
X184556198Y-133770346D01*
X181711956Y-136614589D01*
X181480000Y-136568450D01*
X179780000Y-136568450D01*
X179350801Y-136653823D01*
X179308706Y-136681950D01*
X176810229Y-134183474D01*
X176859761Y-134109343D01*
X177007223Y-133368000D01*
X176859761Y-132626657D01*
X176559098Y-132176683D01*
X177031000Y-132270550D01*
X178281000Y-132270550D01*
X178949376Y-132137602D01*
X179515997Y-131758997D01*
X179649889Y-131558614D01*
X180126621Y-131877156D01*
X180739171Y-131999000D01*
X181652829Y-131999000D01*
X182265379Y-131877156D01*
X182960015Y-131413015D01*
X183424156Y-130718379D01*
X183587141Y-129899000D01*
X183556906Y-129747000D01*
X185284450Y-129747000D01*
X185284450Y-130524000D01*
X185284450Y-130524000D01*
G37*
X185284450Y-130524000D02*
X185417398Y-131192376D01*
X185796003Y-131758997D01*
X186344112Y-132125233D01*
X185075429Y-133393916D01*
X185020083Y-133404925D01*
X184623148Y-133670148D01*
X184556198Y-133770346D01*
X181711956Y-136614589D01*
X181480000Y-136568450D01*
X179780000Y-136568450D01*
X179350801Y-136653823D01*
X179308706Y-136681950D01*
X176810229Y-134183474D01*
X176859761Y-134109343D01*
X177007223Y-133368000D01*
X176859761Y-132626657D01*
X176559098Y-132176683D01*
X177031000Y-132270550D01*
X178281000Y-132270550D01*
X178949376Y-132137602D01*
X179515997Y-131758997D01*
X179649889Y-131558614D01*
X180126621Y-131877156D01*
X180739171Y-131999000D01*
X181652829Y-131999000D01*
X182265379Y-131877156D01*
X182960015Y-131413015D01*
X183424156Y-130718379D01*
X183587141Y-129899000D01*
X183556906Y-129747000D01*
X185284450Y-129747000D01*
X185284450Y-130524000D01*
G36*
X165139601Y-133545445D02*
X164402000Y-132807845D01*
X164402000Y-132021000D01*
X165139600Y-132021000D01*
X165139601Y-133545445D01*
X165139601Y-133545445D01*
G37*
X165139601Y-133545445D02*
X164402000Y-132807845D01*
X164402000Y-132021000D01*
X165139600Y-132021000D01*
X165139601Y-133545445D01*
G36*
X176161116Y-127795042D02*
X175796003Y-128039003D01*
X175417398Y-128605624D01*
X175284450Y-129274000D01*
X175284450Y-130524000D01*
X175323175Y-130718686D01*
X175116514Y-130512025D01*
X174620332Y-130306500D01*
X174083268Y-130306500D01*
X173587086Y-130512025D01*
X173207325Y-130891786D01*
X173057325Y-131253920D01*
X172104445Y-132206800D01*
X171062765Y-132206800D01*
X170700632Y-132056800D01*
X170163568Y-132056800D01*
X169667386Y-132262325D01*
X169426017Y-132503694D01*
X169425452Y-132502848D01*
X169348342Y-132451325D01*
X169286177Y-132138801D01*
X169043056Y-131774944D01*
X168679199Y-131531823D01*
X168425580Y-131481375D01*
X173746681Y-126160275D01*
X174108814Y-126010275D01*
X174242608Y-125876481D01*
X176161116Y-127795042D01*
X176161116Y-127795042D01*
G37*
X176161116Y-127795042D02*
X175796003Y-128039003D01*
X175417398Y-128605624D01*
X175284450Y-129274000D01*
X175284450Y-130524000D01*
X175323175Y-130718686D01*
X175116514Y-130512025D01*
X174620332Y-130306500D01*
X174083268Y-130306500D01*
X173587086Y-130512025D01*
X173207325Y-130891786D01*
X173057325Y-131253920D01*
X172104445Y-132206800D01*
X171062765Y-132206800D01*
X170700632Y-132056800D01*
X170163568Y-132056800D01*
X169667386Y-132262325D01*
X169426017Y-132503694D01*
X169425452Y-132502848D01*
X169348342Y-132451325D01*
X169286177Y-132138801D01*
X169043056Y-131774944D01*
X168679199Y-131531823D01*
X168425580Y-131481375D01*
X173746681Y-126160275D01*
X174108814Y-126010275D01*
X174242608Y-125876481D01*
X176161116Y-127795042D01*
G36*
X167567442Y-128945403D02*
X167704700Y-128614032D01*
X167704700Y-128076968D01*
X167499175Y-127580786D01*
X167119414Y-127201025D01*
X166757280Y-127051025D01*
X165818855Y-126112600D01*
X169525012Y-126112600D01*
X169643200Y-126136109D01*
X169761388Y-126112600D01*
X170111417Y-126042975D01*
X170508352Y-125777752D01*
X170575304Y-125677551D01*
X171411356Y-124841500D01*
X171671344Y-124841500D01*
X167567442Y-128945403D01*
X167567442Y-128945403D01*
G37*
X167567442Y-128945403D02*
X167704700Y-128614032D01*
X167704700Y-128076968D01*
X167499175Y-127580786D01*
X167119414Y-127201025D01*
X166757280Y-127051025D01*
X165818855Y-126112600D01*
X169525012Y-126112600D01*
X169643200Y-126136109D01*
X169761388Y-126112600D01*
X170111417Y-126042975D01*
X170508352Y-125777752D01*
X170575304Y-125677551D01*
X171411356Y-124841500D01*
X171671344Y-124841500D01*
X167567442Y-128945403D01*
G36*
X191623810Y-127701109D02*
X191719996Y-127753009D01*
X191787221Y-127825732D01*
X191652829Y-127799000D01*
X190739171Y-127799000D01*
X190126621Y-127920844D01*
X189649889Y-128239386D01*
X189515997Y-128039003D01*
X188959257Y-127667000D01*
X191418883Y-127667000D01*
X191623810Y-127701109D01*
X191623810Y-127701109D01*
G37*
X191623810Y-127701109D02*
X191719996Y-127753009D01*
X191787221Y-127825732D01*
X191652829Y-127799000D01*
X190739171Y-127799000D01*
X190126621Y-127920844D01*
X189649889Y-128239386D01*
X189515997Y-128039003D01*
X188959257Y-127667000D01*
X191418883Y-127667000D01*
X191623810Y-127701109D01*
G36*
X178639748Y-123068852D02*
X178739949Y-123135804D01*
X179810324Y-124206180D01*
X179960325Y-124568314D01*
X180340086Y-124948075D01*
X180836268Y-125153600D01*
X181373332Y-125153600D01*
X181705001Y-125016218D01*
X181705001Y-126376271D01*
X181681981Y-126492000D01*
X181773175Y-126950462D01*
X182032873Y-127339127D01*
X182044656Y-127347000D01*
X179100834Y-127347000D01*
X179088110Y-127327956D01*
X179088106Y-127327952D01*
X179021152Y-127227748D01*
X178920962Y-127160803D01*
X176156144Y-124395911D01*
X177481506Y-123070550D01*
X178281000Y-123070550D01*
X178598663Y-123007363D01*
X178639748Y-123068852D01*
X178639748Y-123068852D01*
G37*
X178639748Y-123068852D02*
X178739949Y-123135804D01*
X179810324Y-124206180D01*
X179960325Y-124568314D01*
X180340086Y-124948075D01*
X180836268Y-125153600D01*
X181373332Y-125153600D01*
X181705001Y-125016218D01*
X181705001Y-126376271D01*
X181681981Y-126492000D01*
X181773175Y-126950462D01*
X182032873Y-127339127D01*
X182044656Y-127347000D01*
X179100834Y-127347000D01*
X179088110Y-127327956D01*
X179088106Y-127327952D01*
X179021152Y-127227748D01*
X178920962Y-127160803D01*
X176156144Y-124395911D01*
X177481506Y-123070550D01*
X178281000Y-123070550D01*
X178598663Y-123007363D01*
X178639748Y-123068852D01*
G36*
X162689701Y-123351757D02*
X162689700Y-124172744D01*
X160969047Y-125893398D01*
X160868849Y-125960348D01*
X160687000Y-126232505D01*
X160687000Y-123070550D01*
X161859000Y-123070550D01*
X162317328Y-122979383D01*
X162689701Y-123351757D01*
X162689701Y-123351757D01*
G37*
X162689701Y-123351757D02*
X162689700Y-124172744D01*
X160969047Y-125893398D01*
X160868849Y-125960348D01*
X160687000Y-126232505D01*
X160687000Y-123070550D01*
X161859000Y-123070550D01*
X162317328Y-122979383D01*
X162689701Y-123351757D01*
G36*
X166036360Y-122556002D02*
X166238049Y-122857852D01*
X166338247Y-122924802D01*
X167126045Y-123712600D01*
X165089700Y-123712600D01*
X165089700Y-122972887D01*
X165113209Y-122854699D01*
X165102130Y-122799000D01*
X165230829Y-122799000D01*
X165843379Y-122677156D01*
X166032760Y-122550615D01*
X166036360Y-122556002D01*
X166036360Y-122556002D01*
G37*
X166036360Y-122556002D02*
X166238049Y-122857852D01*
X166338247Y-122924802D01*
X167126045Y-123712600D01*
X165089700Y-123712600D01*
X165089700Y-122972887D01*
X165113209Y-122854699D01*
X165102130Y-122799000D01*
X165230829Y-122799000D01*
X165843379Y-122677156D01*
X166032760Y-122550615D01*
X166036360Y-122556002D01*
G36*
X175284450Y-121324000D02*
X175375617Y-121782328D01*
X174456965Y-122700980D01*
X174385039Y-122652927D01*
X174172817Y-122511125D01*
X174172775Y-122511117D01*
X174172741Y-122511094D01*
X173940468Y-122464908D01*
X173822788Y-122441500D01*
X173822748Y-122441500D01*
X173704519Y-122417991D01*
X173586372Y-122441500D01*
X171411356Y-122441500D01*
X170829000Y-121859145D01*
X170829000Y-121419000D01*
X171663444Y-121419000D01*
X172527168Y-121061234D01*
X173188234Y-120400168D01*
X173242566Y-120269000D01*
X175284450Y-120269000D01*
X175284450Y-121324000D01*
X175284450Y-121324000D01*
G37*
X175284450Y-121324000D02*
X175375617Y-121782328D01*
X174456965Y-122700980D01*
X174385039Y-122652927D01*
X174172817Y-122511125D01*
X174172775Y-122511117D01*
X174172741Y-122511094D01*
X173940468Y-122464908D01*
X173822788Y-122441500D01*
X173822748Y-122441500D01*
X173704519Y-122417991D01*
X173586372Y-122441500D01*
X171411356Y-122441500D01*
X170829000Y-121859145D01*
X170829000Y-121419000D01*
X171663444Y-121419000D01*
X172527168Y-121061234D01*
X173188234Y-120400168D01*
X173242566Y-120269000D01*
X175284450Y-120269000D01*
X175284450Y-121324000D01*
G36*
X168429000Y-107362506D02*
X168429001Y-121621446D01*
X168303200Y-121495645D01*
X168303200Y-107278449D01*
X168429000Y-107362506D01*
X168429000Y-107362506D01*
G37*
X168429000Y-107362506D02*
X168429001Y-121621446D01*
X168303200Y-121495645D01*
X168303200Y-107278449D01*
X168429000Y-107362506D01*
G36*
X180126621Y-94215956D02*
X180739171Y-94337800D01*
X181652829Y-94337800D01*
X181705000Y-94327422D01*
X181705001Y-118609378D01*
X181652829Y-118599000D01*
X181611567Y-118599000D01*
X181561152Y-118523548D01*
X181164217Y-118258325D01*
X181117610Y-118249054D01*
X179248876Y-116380321D01*
X179098875Y-116018186D01*
X178719114Y-115638425D01*
X178222932Y-115432900D01*
X177685868Y-115432900D01*
X177189686Y-115638425D01*
X176809925Y-116018186D01*
X176604400Y-116514368D01*
X176604400Y-117051432D01*
X176809925Y-117547614D01*
X177131311Y-117869000D01*
X173539000Y-117869000D01*
X173539000Y-107080430D01*
X173744871Y-106942871D01*
X174175859Y-106297852D01*
X174327202Y-105537000D01*
X174175859Y-104776148D01*
X173744871Y-104131129D01*
X173099852Y-103700141D01*
X172531054Y-103587000D01*
X172146946Y-103587000D01*
X171578148Y-103700141D01*
X171365079Y-103842509D01*
X171078199Y-103650823D01*
X170649000Y-103565450D01*
X168949000Y-103565450D01*
X168519801Y-103650823D01*
X168189327Y-103871638D01*
X167867914Y-103550225D01*
X167371732Y-103344700D01*
X166834668Y-103344700D01*
X166338486Y-103550225D01*
X165958725Y-103929986D01*
X165753200Y-104426168D01*
X165753200Y-104963232D01*
X165903200Y-105325365D01*
X165903201Y-118760816D01*
X165843379Y-118720844D01*
X165230829Y-118599000D01*
X164317171Y-118599000D01*
X163704621Y-118720844D01*
X163227889Y-119039386D01*
X163093997Y-118839003D01*
X162527376Y-118460398D01*
X161859000Y-118327450D01*
X160687000Y-118327450D01*
X160687000Y-94609350D01*
X161859000Y-94609350D01*
X162317328Y-94518183D01*
X168133098Y-100333954D01*
X168200048Y-100434152D01*
X168596983Y-100699375D01*
X168947012Y-100769000D01*
X168947013Y-100769000D01*
X169065199Y-100792509D01*
X169152019Y-100775239D01*
X169203766Y-100900168D01*
X169864832Y-101561234D01*
X170728556Y-101919000D01*
X171663444Y-101919000D01*
X172527168Y-101561234D01*
X173188234Y-100900168D01*
X173546000Y-100036444D01*
X173546000Y-99101556D01*
X173491668Y-98970387D01*
X177852706Y-94609350D01*
X178281000Y-94609350D01*
X178949376Y-94476402D01*
X179515997Y-94097797D01*
X179649889Y-93897414D01*
X180126621Y-94215956D01*
X180126621Y-94215956D01*
G37*
X180126621Y-94215956D02*
X180739171Y-94337800D01*
X181652829Y-94337800D01*
X181705000Y-94327422D01*
X181705001Y-118609378D01*
X181652829Y-118599000D01*
X181611567Y-118599000D01*
X181561152Y-118523548D01*
X181164217Y-118258325D01*
X181117610Y-118249054D01*
X179248876Y-116380321D01*
X179098875Y-116018186D01*
X178719114Y-115638425D01*
X178222932Y-115432900D01*
X177685868Y-115432900D01*
X177189686Y-115638425D01*
X176809925Y-116018186D01*
X176604400Y-116514368D01*
X176604400Y-117051432D01*
X176809925Y-117547614D01*
X177131311Y-117869000D01*
X173539000Y-117869000D01*
X173539000Y-107080430D01*
X173744871Y-106942871D01*
X174175859Y-106297852D01*
X174327202Y-105537000D01*
X174175859Y-104776148D01*
X173744871Y-104131129D01*
X173099852Y-103700141D01*
X172531054Y-103587000D01*
X172146946Y-103587000D01*
X171578148Y-103700141D01*
X171365079Y-103842509D01*
X171078199Y-103650823D01*
X170649000Y-103565450D01*
X168949000Y-103565450D01*
X168519801Y-103650823D01*
X168189327Y-103871638D01*
X167867914Y-103550225D01*
X167371732Y-103344700D01*
X166834668Y-103344700D01*
X166338486Y-103550225D01*
X165958725Y-103929986D01*
X165753200Y-104426168D01*
X165753200Y-104963232D01*
X165903200Y-105325365D01*
X165903201Y-118760816D01*
X165843379Y-118720844D01*
X165230829Y-118599000D01*
X164317171Y-118599000D01*
X163704621Y-118720844D01*
X163227889Y-119039386D01*
X163093997Y-118839003D01*
X162527376Y-118460398D01*
X161859000Y-118327450D01*
X160687000Y-118327450D01*
X160687000Y-94609350D01*
X161859000Y-94609350D01*
X162317328Y-94518183D01*
X168133098Y-100333954D01*
X168200048Y-100434152D01*
X168596983Y-100699375D01*
X168947012Y-100769000D01*
X168947013Y-100769000D01*
X169065199Y-100792509D01*
X169152019Y-100775239D01*
X169203766Y-100900168D01*
X169864832Y-101561234D01*
X170728556Y-101919000D01*
X171663444Y-101919000D01*
X172527168Y-101561234D01*
X173188234Y-100900168D01*
X173546000Y-100036444D01*
X173546000Y-99101556D01*
X173491668Y-98970387D01*
X177852706Y-94609350D01*
X178281000Y-94609350D01*
X178949376Y-94476402D01*
X179515997Y-94097797D01*
X179649889Y-93897414D01*
X180126621Y-94215956D01*
G36*
X171139000Y-116719000D02*
X170829000Y-116719000D01*
X170829000Y-107472746D01*
X171078199Y-107423177D01*
X171139001Y-107382551D01*
X171139000Y-116719000D01*
X171139000Y-116719000D01*
G37*
X171139000Y-116719000D02*
X170829000Y-116719000D01*
X170829000Y-107472746D01*
X171078199Y-107423177D01*
X171139001Y-107382551D01*
X171139000Y-116719000D01*
G36*
X175291321Y-77909424D02*
X174929186Y-78059425D01*
X174549425Y-78439186D01*
X174343900Y-78935368D01*
X174343900Y-79472432D01*
X174419706Y-79655443D01*
X174376700Y-79759268D01*
X174376700Y-80296332D01*
X174582225Y-80792514D01*
X174961986Y-81172275D01*
X175458168Y-81377800D01*
X175662369Y-81377800D01*
X175417398Y-81744424D01*
X175284450Y-82412800D01*
X175284450Y-83662800D01*
X175417398Y-84331176D01*
X175796003Y-84897797D01*
X176362624Y-85276402D01*
X177031000Y-85409350D01*
X178281000Y-85409350D01*
X178435700Y-85378578D01*
X178435701Y-89897022D01*
X178281000Y-89866250D01*
X177031000Y-89866250D01*
X176362624Y-89999198D01*
X175796003Y-90377803D01*
X175417398Y-90944424D01*
X175284450Y-91612800D01*
X175284450Y-92862800D01*
X175417398Y-93531176D01*
X175465211Y-93602733D01*
X171794613Y-97273332D01*
X171663444Y-97219000D01*
X170728556Y-97219000D01*
X169864832Y-97576766D01*
X169317427Y-98124171D01*
X165481245Y-94287989D01*
X165843379Y-94215956D01*
X166538015Y-93751815D01*
X167002156Y-93057179D01*
X167165141Y-92237800D01*
X167002156Y-91418421D01*
X166538015Y-90723785D01*
X165843379Y-90259644D01*
X165230829Y-90137800D01*
X164317171Y-90137800D01*
X163704621Y-90259644D01*
X163227889Y-90578186D01*
X163093997Y-90377803D01*
X162527376Y-89999198D01*
X161859000Y-89866250D01*
X160687000Y-89866250D01*
X160687000Y-85409350D01*
X161592800Y-85409350D01*
X161528300Y-85565068D01*
X161528300Y-86102132D01*
X161733825Y-86598314D01*
X162113586Y-86978075D01*
X162609768Y-87183600D01*
X163146832Y-87183600D01*
X163508965Y-87033600D01*
X165066312Y-87033600D01*
X165184500Y-87057109D01*
X165302688Y-87033600D01*
X165652717Y-86963975D01*
X166049652Y-86698752D01*
X166116604Y-86598551D01*
X175653656Y-77061500D01*
X176139245Y-77061500D01*
X175291321Y-77909424D01*
X175291321Y-77909424D01*
G37*
X175291321Y-77909424D02*
X174929186Y-78059425D01*
X174549425Y-78439186D01*
X174343900Y-78935368D01*
X174343900Y-79472432D01*
X174419706Y-79655443D01*
X174376700Y-79759268D01*
X174376700Y-80296332D01*
X174582225Y-80792514D01*
X174961986Y-81172275D01*
X175458168Y-81377800D01*
X175662369Y-81377800D01*
X175417398Y-81744424D01*
X175284450Y-82412800D01*
X175284450Y-83662800D01*
X175417398Y-84331176D01*
X175796003Y-84897797D01*
X176362624Y-85276402D01*
X177031000Y-85409350D01*
X178281000Y-85409350D01*
X178435700Y-85378578D01*
X178435701Y-89897022D01*
X178281000Y-89866250D01*
X177031000Y-89866250D01*
X176362624Y-89999198D01*
X175796003Y-90377803D01*
X175417398Y-90944424D01*
X175284450Y-91612800D01*
X175284450Y-92862800D01*
X175417398Y-93531176D01*
X175465211Y-93602733D01*
X171794613Y-97273332D01*
X171663444Y-97219000D01*
X170728556Y-97219000D01*
X169864832Y-97576766D01*
X169317427Y-98124171D01*
X165481245Y-94287989D01*
X165843379Y-94215956D01*
X166538015Y-93751815D01*
X167002156Y-93057179D01*
X167165141Y-92237800D01*
X167002156Y-91418421D01*
X166538015Y-90723785D01*
X165843379Y-90259644D01*
X165230829Y-90137800D01*
X164317171Y-90137800D01*
X163704621Y-90259644D01*
X163227889Y-90578186D01*
X163093997Y-90377803D01*
X162527376Y-89999198D01*
X161859000Y-89866250D01*
X160687000Y-89866250D01*
X160687000Y-85409350D01*
X161592800Y-85409350D01*
X161528300Y-85565068D01*
X161528300Y-86102132D01*
X161733825Y-86598314D01*
X162113586Y-86978075D01*
X162609768Y-87183600D01*
X163146832Y-87183600D01*
X163508965Y-87033600D01*
X165066312Y-87033600D01*
X165184500Y-87057109D01*
X165302688Y-87033600D01*
X165652717Y-86963975D01*
X166049652Y-86698752D01*
X166116604Y-86598551D01*
X175653656Y-77061500D01*
X176139245Y-77061500D01*
X175291321Y-77909424D01*
G36*
X181705000Y-90148178D02*
X181652829Y-90137800D01*
X180835700Y-90137800D01*
X180835700Y-85137800D01*
X181652829Y-85137800D01*
X181705000Y-85127422D01*
X181705000Y-90148178D01*
X181705000Y-90148178D01*
G37*
X181705000Y-90148178D02*
X181652829Y-90137800D01*
X180835700Y-90137800D01*
X180835700Y-85137800D01*
X181652829Y-85137800D01*
X181705000Y-85127422D01*
X181705000Y-90148178D01*
G36*
X131516229Y-87653617D02*
X131530683Y-87663275D01*
X131840996Y-87725000D01*
X130145116Y-87725000D01*
X129940190Y-87690891D01*
X129844003Y-87638991D01*
X129797376Y-87588550D01*
X130808000Y-87588550D01*
X131278719Y-87494918D01*
X131516229Y-87653617D01*
X131516229Y-87653617D01*
G37*
X131516229Y-87653617D02*
X131530683Y-87663275D01*
X131840996Y-87725000D01*
X130145116Y-87725000D01*
X129940190Y-87690891D01*
X129844003Y-87638991D01*
X129797376Y-87588550D01*
X130808000Y-87588550D01*
X131278719Y-87494918D01*
X131516229Y-87653617D01*
G36*
X193402283Y-87660875D02*
X193724658Y-87725000D01*
X191675000Y-87725000D01*
X191675000Y-87588550D01*
X192682000Y-87588550D01*
X193153637Y-87494736D01*
X193402283Y-87660875D01*
X193402283Y-87660875D01*
G37*
X193402283Y-87660875D02*
X193724658Y-87725000D01*
X191675000Y-87725000D01*
X191675000Y-87588550D01*
X192682000Y-87588550D01*
X193153637Y-87494736D01*
X193402283Y-87660875D01*
G36*
X149226621Y-87195156D02*
X149839171Y-87317000D01*
X150717001Y-87317000D01*
X150717001Y-87725000D01*
X146098004Y-87725000D01*
X146408317Y-87663275D01*
X146520151Y-87588550D01*
X147381000Y-87588550D01*
X148049376Y-87455602D01*
X148615997Y-87076997D01*
X148749889Y-86876614D01*
X149226621Y-87195156D01*
X149226621Y-87195156D01*
G37*
X149226621Y-87195156D02*
X149839171Y-87317000D01*
X150717001Y-87317000D01*
X150717001Y-87725000D01*
X146098004Y-87725000D01*
X146408317Y-87663275D01*
X146520151Y-87588550D01*
X147381000Y-87588550D01*
X148049376Y-87455602D01*
X148615997Y-87076997D01*
X148749889Y-86876614D01*
X149226621Y-87195156D01*
G36*
X211053621Y-87195156D02*
X211666171Y-87317000D01*
X212579829Y-87317000D01*
X212690314Y-87295023D01*
X212658891Y-87483810D01*
X212606991Y-87579997D01*
X212526734Y-87654185D01*
X212405155Y-87707935D01*
X212270074Y-87725000D01*
X207915338Y-87725000D01*
X208237717Y-87660875D01*
X208345959Y-87588550D01*
X209208000Y-87588550D01*
X209876376Y-87455602D01*
X210442997Y-87076997D01*
X210576889Y-86876614D01*
X211053621Y-87195156D01*
X211053621Y-87195156D01*
G37*
X211053621Y-87195156D02*
X211666171Y-87317000D01*
X212579829Y-87317000D01*
X212690314Y-87295023D01*
X212658891Y-87483810D01*
X212606991Y-87579997D01*
X212526734Y-87654185D01*
X212405155Y-87707935D01*
X212270074Y-87725000D01*
X207915338Y-87725000D01*
X208237717Y-87660875D01*
X208345959Y-87588550D01*
X209208000Y-87588550D01*
X209876376Y-87455602D01*
X210442997Y-87076997D01*
X210576889Y-86876614D01*
X211053621Y-87195156D01*
G36*
X135834225Y-77841714D02*
X135837548Y-77845037D01*
X135848325Y-77899217D01*
X136113549Y-78296152D01*
X136213747Y-78363102D01*
X138257898Y-80407254D01*
X138324848Y-80507452D01*
X138721783Y-80772675D01*
X139071812Y-80842300D01*
X139071813Y-80842300D01*
X139189999Y-80865809D01*
X139308186Y-80842300D01*
X140768912Y-80842300D01*
X140887100Y-80865809D01*
X141005288Y-80842300D01*
X141355317Y-80772675D01*
X141752252Y-80507452D01*
X141819204Y-80407251D01*
X143789562Y-78436893D01*
X143841701Y-78562766D01*
X143841700Y-79358635D01*
X143691700Y-79720768D01*
X143691700Y-80257832D01*
X143897225Y-80754014D01*
X144276986Y-81133775D01*
X144773168Y-81339300D01*
X145310232Y-81339300D01*
X145806414Y-81133775D01*
X146186175Y-80754014D01*
X146391700Y-80257832D01*
X146391700Y-79720768D01*
X146241700Y-79358635D01*
X146241700Y-78562765D01*
X146329996Y-78349600D01*
X150717000Y-78349600D01*
X150717000Y-83117000D01*
X149839171Y-83117000D01*
X149226621Y-83238844D01*
X148749889Y-83557386D01*
X148615997Y-83357003D01*
X148049376Y-82978398D01*
X147381000Y-82845450D01*
X146131000Y-82845450D01*
X145462624Y-82978398D01*
X144896003Y-83357003D01*
X144517398Y-83923624D01*
X144384450Y-84592000D01*
X144384450Y-85332900D01*
X136091087Y-85332900D01*
X136114141Y-85217000D01*
X135951156Y-84397621D01*
X135487015Y-83702985D01*
X134792379Y-83238844D01*
X134179829Y-83117000D01*
X133266171Y-83117000D01*
X132653621Y-83238844D01*
X132176889Y-83557386D01*
X132042997Y-83357003D01*
X131476376Y-82978398D01*
X130808000Y-82845450D01*
X129699000Y-82845450D01*
X129699000Y-78488550D01*
X130808000Y-78488550D01*
X131476376Y-78355602D01*
X132042997Y-77976997D01*
X132176889Y-77776614D01*
X132653621Y-78095156D01*
X133266171Y-78217000D01*
X134179829Y-78217000D01*
X134792379Y-78095156D01*
X135487015Y-77631015D01*
X135647478Y-77390866D01*
X135834225Y-77841714D01*
X135834225Y-77841714D01*
G37*
X135834225Y-77841714D02*
X135837548Y-77845037D01*
X135848325Y-77899217D01*
X136113549Y-78296152D01*
X136213747Y-78363102D01*
X138257898Y-80407254D01*
X138324848Y-80507452D01*
X138721783Y-80772675D01*
X139071812Y-80842300D01*
X139071813Y-80842300D01*
X139189999Y-80865809D01*
X139308186Y-80842300D01*
X140768912Y-80842300D01*
X140887100Y-80865809D01*
X141005288Y-80842300D01*
X141355317Y-80772675D01*
X141752252Y-80507452D01*
X141819204Y-80407251D01*
X143789562Y-78436893D01*
X143841701Y-78562766D01*
X143841700Y-79358635D01*
X143691700Y-79720768D01*
X143691700Y-80257832D01*
X143897225Y-80754014D01*
X144276986Y-81133775D01*
X144773168Y-81339300D01*
X145310232Y-81339300D01*
X145806414Y-81133775D01*
X146186175Y-80754014D01*
X146391700Y-80257832D01*
X146391700Y-79720768D01*
X146241700Y-79358635D01*
X146241700Y-78562765D01*
X146329996Y-78349600D01*
X150717000Y-78349600D01*
X150717000Y-83117000D01*
X149839171Y-83117000D01*
X149226621Y-83238844D01*
X148749889Y-83557386D01*
X148615997Y-83357003D01*
X148049376Y-82978398D01*
X147381000Y-82845450D01*
X146131000Y-82845450D01*
X145462624Y-82978398D01*
X144896003Y-83357003D01*
X144517398Y-83923624D01*
X144384450Y-84592000D01*
X144384450Y-85332900D01*
X136091087Y-85332900D01*
X136114141Y-85217000D01*
X135951156Y-84397621D01*
X135487015Y-83702985D01*
X134792379Y-83238844D01*
X134179829Y-83117000D01*
X133266171Y-83117000D01*
X132653621Y-83238844D01*
X132176889Y-83557386D01*
X132042997Y-83357003D01*
X131476376Y-82978398D01*
X130808000Y-82845450D01*
X129699000Y-82845450D01*
X129699000Y-78488550D01*
X130808000Y-78488550D01*
X131476376Y-78355602D01*
X132042997Y-77976997D01*
X132176889Y-77776614D01*
X132653621Y-78095156D01*
X133266171Y-78217000D01*
X134179829Y-78217000D01*
X134792379Y-78095156D01*
X135487015Y-77631015D01*
X135647478Y-77390866D01*
X135834225Y-77841714D01*
G36*
X208333294Y-82845450D02*
X207958000Y-82845450D01*
X207289624Y-82978398D01*
X206723003Y-83357003D01*
X206344398Y-83923624D01*
X206211450Y-84592000D01*
X206211450Y-85330500D01*
X204460257Y-85330500D01*
X204594200Y-85007132D01*
X204594200Y-84470068D01*
X204388675Y-83973886D01*
X204008914Y-83594125D01*
X203770700Y-83495454D01*
X203770700Y-79807824D01*
X203906014Y-79751775D01*
X204285775Y-79372014D01*
X204453920Y-78966075D01*
X208333294Y-82845450D01*
X208333294Y-82845450D01*
G37*
X208333294Y-82845450D02*
X207958000Y-82845450D01*
X207289624Y-82978398D01*
X206723003Y-83357003D01*
X206344398Y-83923624D01*
X206211450Y-84592000D01*
X206211450Y-85330500D01*
X204460257Y-85330500D01*
X204594200Y-85007132D01*
X204594200Y-84470068D01*
X204388675Y-83973886D01*
X204008914Y-83594125D01*
X203770700Y-83495454D01*
X203770700Y-79807824D01*
X203906014Y-79751775D01*
X204285775Y-79372014D01*
X204453920Y-78966075D01*
X208333294Y-82845450D01*
G36*
X201370700Y-83946912D02*
X201347191Y-84065100D01*
X201413334Y-84397621D01*
X201440325Y-84533316D01*
X201705548Y-84930252D01*
X201805749Y-84997204D01*
X201949724Y-85141179D01*
X202028143Y-85330500D01*
X197965564Y-85330500D01*
X197988141Y-85217000D01*
X197825156Y-84397621D01*
X197361015Y-83702985D01*
X197143266Y-83557490D01*
X201370700Y-79330055D01*
X201370700Y-83946912D01*
X201370700Y-83946912D01*
G37*
X201370700Y-83946912D02*
X201347191Y-84065100D01*
X201413334Y-84397621D01*
X201440325Y-84533316D01*
X201705548Y-84930252D01*
X201805749Y-84997204D01*
X201949724Y-85141179D01*
X202028143Y-85330500D01*
X197965564Y-85330500D01*
X197988141Y-85217000D01*
X197825156Y-84397621D01*
X197361015Y-83702985D01*
X197143266Y-83557490D01*
X201370700Y-79330055D01*
X201370700Y-83946912D01*
G36*
X193903625Y-79541380D02*
X194053625Y-79903514D01*
X194433386Y-80283275D01*
X194543968Y-80329080D01*
X194464900Y-80519968D01*
X194464900Y-81057032D01*
X194670425Y-81553214D01*
X195050186Y-81932975D01*
X195278924Y-82027721D01*
X194332047Y-82974598D01*
X194231849Y-83041548D01*
X193969033Y-83434880D01*
X193916997Y-83357003D01*
X193350376Y-82978398D01*
X192682000Y-82845450D01*
X191675000Y-82845450D01*
X191675000Y-78349600D01*
X192711845Y-78349600D01*
X193903625Y-79541380D01*
X193903625Y-79541380D01*
G37*
X193903625Y-79541380D02*
X194053625Y-79903514D01*
X194433386Y-80283275D01*
X194543968Y-80329080D01*
X194464900Y-80519968D01*
X194464900Y-81057032D01*
X194670425Y-81553214D01*
X195050186Y-81932975D01*
X195278924Y-82027721D01*
X194332047Y-82974598D01*
X194231849Y-83041548D01*
X193969033Y-83434880D01*
X193916997Y-83357003D01*
X193350376Y-82978398D01*
X192682000Y-82845450D01*
X191675000Y-82845450D01*
X191675000Y-78349600D01*
X192711845Y-78349600D01*
X193903625Y-79541380D01*
G36*
X211053621Y-78095156D02*
X211666171Y-78217000D01*
X212579829Y-78217000D01*
X212693001Y-78194489D01*
X212693001Y-83139511D01*
X212579829Y-83117000D01*
X212538567Y-83117000D01*
X212488152Y-83041548D01*
X212091217Y-82776325D01*
X211741188Y-82706700D01*
X211623000Y-82683191D01*
X211574745Y-82692789D01*
X207767855Y-78885900D01*
X209547812Y-78885900D01*
X209666000Y-78909409D01*
X209784188Y-78885900D01*
X210134217Y-78816275D01*
X210531152Y-78551052D01*
X210598104Y-78450851D01*
X210993782Y-78055173D01*
X211053621Y-78095156D01*
X211053621Y-78095156D01*
G37*
X211053621Y-78095156D02*
X211666171Y-78217000D01*
X212579829Y-78217000D01*
X212693001Y-78194489D01*
X212693001Y-83139511D01*
X212579829Y-83117000D01*
X212538567Y-83117000D01*
X212488152Y-83041548D01*
X212091217Y-82776325D01*
X211741188Y-82706700D01*
X211623000Y-82683191D01*
X211574745Y-82692789D01*
X207767855Y-78885900D01*
X209547812Y-78885900D01*
X209666000Y-78909409D01*
X209784188Y-78885900D01*
X210134217Y-78816275D01*
X210531152Y-78551052D01*
X210598104Y-78450851D01*
X210993782Y-78055173D01*
X211053621Y-78095156D01*
G36*
X172316525Y-73437414D02*
X172696286Y-73817175D01*
X173192468Y-74022700D01*
X173729532Y-74022700D01*
X174225714Y-73817175D01*
X174574389Y-73468500D01*
X175284450Y-73468500D01*
X175284450Y-74462800D01*
X175323974Y-74661500D01*
X175274787Y-74661500D01*
X175156599Y-74637991D01*
X174766176Y-74715651D01*
X174688383Y-74731125D01*
X174291448Y-74996348D01*
X174224498Y-75096546D01*
X167018825Y-82302220D01*
X167002156Y-82218421D01*
X166538015Y-81523785D01*
X165843379Y-81059644D01*
X165230829Y-80937800D01*
X165189567Y-80937800D01*
X165139152Y-80862348D01*
X165038954Y-80795398D01*
X161820579Y-77577024D01*
X161990552Y-77463452D01*
X162057504Y-77363251D01*
X163644783Y-75775973D01*
X163704621Y-75815956D01*
X164317171Y-75937800D01*
X165230829Y-75937800D01*
X165843379Y-75815956D01*
X166538015Y-75351815D01*
X167002156Y-74657179D01*
X167165141Y-73837800D01*
X167055043Y-73284300D01*
X172253103Y-73284300D01*
X172316525Y-73437414D01*
X172316525Y-73437414D01*
G37*
X172316525Y-73437414D02*
X172696286Y-73817175D01*
X173192468Y-74022700D01*
X173729532Y-74022700D01*
X174225714Y-73817175D01*
X174574389Y-73468500D01*
X175284450Y-73468500D01*
X175284450Y-74462800D01*
X175323974Y-74661500D01*
X175274787Y-74661500D01*
X175156599Y-74637991D01*
X174766176Y-74715651D01*
X174688383Y-74731125D01*
X174291448Y-74996348D01*
X174224498Y-75096546D01*
X167018825Y-82302220D01*
X167002156Y-82218421D01*
X166538015Y-81523785D01*
X165843379Y-81059644D01*
X165230829Y-80937800D01*
X165189567Y-80937800D01*
X165139152Y-80862348D01*
X165038954Y-80795398D01*
X161820579Y-77577024D01*
X161990552Y-77463452D01*
X162057504Y-77363251D01*
X163644783Y-75775973D01*
X163704621Y-75815956D01*
X164317171Y-75937800D01*
X165230829Y-75937800D01*
X165843379Y-75815956D01*
X166538015Y-75351815D01*
X167002156Y-74657179D01*
X167165141Y-73837800D01*
X167055043Y-73284300D01*
X172253103Y-73284300D01*
X172316525Y-73437414D01*
G36*
X179644486Y-77985025D02*
X179264725Y-78364786D01*
X179114724Y-78726920D01*
X178870749Y-78970896D01*
X178770548Y-79037848D01*
X178537588Y-79386499D01*
X178505325Y-79434784D01*
X178412191Y-79903000D01*
X178435700Y-80021188D01*
X178435700Y-80697022D01*
X178281000Y-80666250D01*
X177031000Y-80666250D01*
X176913821Y-80689558D01*
X177021176Y-80430379D01*
X179547656Y-77903900D01*
X179840339Y-77903900D01*
X179644486Y-77985025D01*
X179644486Y-77985025D01*
G37*
X179644486Y-77985025D02*
X179264725Y-78364786D01*
X179114724Y-78726920D01*
X178870749Y-78970896D01*
X178770548Y-79037848D01*
X178537588Y-79386499D01*
X178505325Y-79434784D01*
X178412191Y-79903000D01*
X178435700Y-80021188D01*
X178435700Y-80697022D01*
X178281000Y-80666250D01*
X177031000Y-80666250D01*
X176913821Y-80689558D01*
X177021176Y-80430379D01*
X179547656Y-77903900D01*
X179840339Y-77903900D01*
X179644486Y-77985025D01*
G36*
X161515694Y-80666250D02*
X160687000Y-80666250D01*
X160687000Y-79837555D01*
X161515694Y-80666250D01*
X161515694Y-80666250D01*
G37*
X161515694Y-80666250D02*
X160687000Y-80666250D01*
X160687000Y-79837555D01*
X161515694Y-80666250D01*
G36*
X197054121Y-80252523D02*
X197014900Y-80157835D01*
X197014900Y-79098400D01*
X198208244Y-79098400D01*
X197054121Y-80252523D01*
X197054121Y-80252523D01*
G37*
X197054121Y-80252523D02*
X197014900Y-80157835D01*
X197014900Y-79098400D01*
X198208244Y-79098400D01*
X197054121Y-80252523D01*
G36*
X180280824Y-55639500D02*
X179808000Y-55545450D01*
X178558000Y-55545450D01*
X177889624Y-55678398D01*
X177323003Y-56057003D01*
X176944398Y-56623624D01*
X176811450Y-57292000D01*
X176811450Y-58542000D01*
X176944398Y-59210376D01*
X177323003Y-59776997D01*
X177889624Y-60155602D01*
X178558000Y-60288550D01*
X179808000Y-60288550D01*
X180476376Y-60155602D01*
X181042997Y-59776997D01*
X181095033Y-59699120D01*
X181357849Y-60092452D01*
X181458047Y-60159402D01*
X188440044Y-67141400D01*
X164507555Y-67141400D01*
X171793783Y-59855173D01*
X171853621Y-59895156D01*
X172466171Y-60017000D01*
X173379829Y-60017000D01*
X173992379Y-59895156D01*
X174687015Y-59431015D01*
X175151156Y-58736379D01*
X175314141Y-57917000D01*
X175151156Y-57097621D01*
X174687015Y-56402985D01*
X173992379Y-55938844D01*
X173379829Y-55817000D01*
X172466171Y-55817000D01*
X171853621Y-55938844D01*
X171376889Y-56257386D01*
X171242997Y-56057003D01*
X170676376Y-55678398D01*
X170008000Y-55545450D01*
X168758000Y-55545450D01*
X168089624Y-55678398D01*
X167523003Y-56057003D01*
X167144398Y-56623624D01*
X167011450Y-57292000D01*
X167011450Y-58542000D01*
X167144398Y-59210376D01*
X167523003Y-59776997D01*
X168089624Y-60155602D01*
X168097647Y-60157198D01*
X163001045Y-65253800D01*
X158759088Y-65253800D01*
X158640900Y-65230291D01*
X158522712Y-65253800D01*
X158172683Y-65323425D01*
X157775748Y-65588648D01*
X157708798Y-65688846D01*
X156731457Y-66666187D01*
X156606432Y-66614400D01*
X156069368Y-66614400D01*
X155573186Y-66819925D01*
X155193425Y-67199686D01*
X155186295Y-67216900D01*
X144317556Y-67216900D01*
X145768256Y-65766200D01*
X155467512Y-65766200D01*
X155585700Y-65789709D01*
X155703888Y-65766200D01*
X156053917Y-65696575D01*
X156450852Y-65431352D01*
X156517804Y-65331151D01*
X161993783Y-59855173D01*
X162053621Y-59895156D01*
X162666171Y-60017000D01*
X163579829Y-60017000D01*
X164192379Y-59895156D01*
X164887015Y-59431015D01*
X165351156Y-58736379D01*
X165514141Y-57917000D01*
X165351156Y-57097621D01*
X164887015Y-56402985D01*
X164192379Y-55938844D01*
X163579829Y-55817000D01*
X162666171Y-55817000D01*
X162053621Y-55938844D01*
X161576889Y-56257386D01*
X161442997Y-56057003D01*
X160876376Y-55678398D01*
X160208000Y-55545450D01*
X158958000Y-55545450D01*
X158289624Y-55678398D01*
X157723003Y-56057003D01*
X157344398Y-56623624D01*
X157211450Y-57292000D01*
X157211450Y-58542000D01*
X157344398Y-59210376D01*
X157723003Y-59776997D01*
X158289624Y-60155602D01*
X158297647Y-60157198D01*
X155088645Y-63366200D01*
X145389387Y-63366200D01*
X145271199Y-63342691D01*
X144802983Y-63435825D01*
X144406048Y-63701048D01*
X144339098Y-63801246D01*
X137236347Y-70903998D01*
X137136149Y-70970948D01*
X136870925Y-71367883D01*
X136859900Y-71423311D01*
X136856825Y-71426386D01*
X136651300Y-71922568D01*
X136651300Y-72459632D01*
X136856825Y-72955814D01*
X136934500Y-73033489D01*
X136934500Y-73415732D01*
X137140025Y-73911914D01*
X137519786Y-74291675D01*
X138015968Y-74497200D01*
X138553032Y-74497200D01*
X138757857Y-74412359D01*
X138555800Y-74900168D01*
X138555800Y-75437232D01*
X138761325Y-75933414D01*
X139141086Y-76313175D01*
X139581531Y-76495613D01*
X138660950Y-77416195D01*
X138328700Y-77083945D01*
X138328700Y-76808468D01*
X138123175Y-76312286D01*
X137743414Y-75932525D01*
X137247232Y-75727000D01*
X136710168Y-75727000D01*
X136213986Y-75932525D01*
X136100100Y-76046411D01*
X135951156Y-75297621D01*
X135487015Y-74602985D01*
X134792379Y-74138844D01*
X134179829Y-74017000D01*
X133266171Y-74017000D01*
X132653621Y-74138844D01*
X132176889Y-74457386D01*
X132042997Y-74257003D01*
X131476376Y-73878398D01*
X130808000Y-73745450D01*
X129699000Y-73745450D01*
X129699000Y-69388550D01*
X130808000Y-69388550D01*
X131476376Y-69255602D01*
X132042997Y-68876997D01*
X132176889Y-68676614D01*
X132653621Y-68995156D01*
X133266171Y-69117000D01*
X134179829Y-69117000D01*
X134792379Y-68995156D01*
X135487015Y-68531015D01*
X135951156Y-67836379D01*
X136114141Y-67017000D01*
X135951156Y-66197621D01*
X135487015Y-65502985D01*
X134792379Y-65038844D01*
X134179829Y-64917000D01*
X133266171Y-64917000D01*
X132653621Y-65038844D01*
X132176889Y-65357386D01*
X132042997Y-65157003D01*
X131476376Y-64778398D01*
X130808000Y-64645450D01*
X129699000Y-64645450D01*
X129699000Y-60288550D01*
X130808000Y-60288550D01*
X131476376Y-60155602D01*
X132042997Y-59776997D01*
X132176889Y-59576614D01*
X132653621Y-59895156D01*
X133266171Y-60017000D01*
X134179829Y-60017000D01*
X134792379Y-59895156D01*
X135487015Y-59431015D01*
X135951156Y-58736379D01*
X136114141Y-57917000D01*
X136092181Y-57806600D01*
X137611450Y-57806600D01*
X137611450Y-58542000D01*
X137744398Y-59210376D01*
X138123003Y-59776997D01*
X138689624Y-60155602D01*
X139358000Y-60288550D01*
X140608000Y-60288550D01*
X141276376Y-60155602D01*
X141842997Y-59776997D01*
X141976889Y-59576614D01*
X142453621Y-59895156D01*
X143066171Y-60017000D01*
X143979829Y-60017000D01*
X144592379Y-59895156D01*
X145287015Y-59431015D01*
X145751156Y-58736379D01*
X145914141Y-57917000D01*
X145892181Y-57806600D01*
X147411450Y-57806600D01*
X147411450Y-58542000D01*
X147544398Y-59210376D01*
X147923003Y-59776997D01*
X148489624Y-60155602D01*
X149158000Y-60288550D01*
X150408000Y-60288550D01*
X151076376Y-60155602D01*
X151642997Y-59776997D01*
X151776889Y-59576614D01*
X152253621Y-59895156D01*
X152866171Y-60017000D01*
X153779829Y-60017000D01*
X154392379Y-59895156D01*
X155087015Y-59431015D01*
X155551156Y-58736379D01*
X155714141Y-57917000D01*
X155551156Y-57097621D01*
X155087015Y-56402985D01*
X154392379Y-55938844D01*
X153779829Y-55817000D01*
X152866171Y-55817000D01*
X152253621Y-55938844D01*
X151776889Y-56257386D01*
X151642997Y-56057003D01*
X151076376Y-55678398D01*
X150408000Y-55545450D01*
X149544420Y-55545450D01*
X149522794Y-55531000D01*
X180443206Y-55531000D01*
X180280824Y-55639500D01*
X180280824Y-55639500D01*
G37*
X180280824Y-55639500D02*
X179808000Y-55545450D01*
X178558000Y-55545450D01*
X177889624Y-55678398D01*
X177323003Y-56057003D01*
X176944398Y-56623624D01*
X176811450Y-57292000D01*
X176811450Y-58542000D01*
X176944398Y-59210376D01*
X177323003Y-59776997D01*
X177889624Y-60155602D01*
X178558000Y-60288550D01*
X179808000Y-60288550D01*
X180476376Y-60155602D01*
X181042997Y-59776997D01*
X181095033Y-59699120D01*
X181357849Y-60092452D01*
X181458047Y-60159402D01*
X188440044Y-67141400D01*
X164507555Y-67141400D01*
X171793783Y-59855173D01*
X171853621Y-59895156D01*
X172466171Y-60017000D01*
X173379829Y-60017000D01*
X173992379Y-59895156D01*
X174687015Y-59431015D01*
X175151156Y-58736379D01*
X175314141Y-57917000D01*
X175151156Y-57097621D01*
X174687015Y-56402985D01*
X173992379Y-55938844D01*
X173379829Y-55817000D01*
X172466171Y-55817000D01*
X171853621Y-55938844D01*
X171376889Y-56257386D01*
X171242997Y-56057003D01*
X170676376Y-55678398D01*
X170008000Y-55545450D01*
X168758000Y-55545450D01*
X168089624Y-55678398D01*
X167523003Y-56057003D01*
X167144398Y-56623624D01*
X167011450Y-57292000D01*
X167011450Y-58542000D01*
X167144398Y-59210376D01*
X167523003Y-59776997D01*
X168089624Y-60155602D01*
X168097647Y-60157198D01*
X163001045Y-65253800D01*
X158759088Y-65253800D01*
X158640900Y-65230291D01*
X158522712Y-65253800D01*
X158172683Y-65323425D01*
X157775748Y-65588648D01*
X157708798Y-65688846D01*
X156731457Y-66666187D01*
X156606432Y-66614400D01*
X156069368Y-66614400D01*
X155573186Y-66819925D01*
X155193425Y-67199686D01*
X155186295Y-67216900D01*
X144317556Y-67216900D01*
X145768256Y-65766200D01*
X155467512Y-65766200D01*
X155585700Y-65789709D01*
X155703888Y-65766200D01*
X156053917Y-65696575D01*
X156450852Y-65431352D01*
X156517804Y-65331151D01*
X161993783Y-59855173D01*
X162053621Y-59895156D01*
X162666171Y-60017000D01*
X163579829Y-60017000D01*
X164192379Y-59895156D01*
X164887015Y-59431015D01*
X165351156Y-58736379D01*
X165514141Y-57917000D01*
X165351156Y-57097621D01*
X164887015Y-56402985D01*
X164192379Y-55938844D01*
X163579829Y-55817000D01*
X162666171Y-55817000D01*
X162053621Y-55938844D01*
X161576889Y-56257386D01*
X161442997Y-56057003D01*
X160876376Y-55678398D01*
X160208000Y-55545450D01*
X158958000Y-55545450D01*
X158289624Y-55678398D01*
X157723003Y-56057003D01*
X157344398Y-56623624D01*
X157211450Y-57292000D01*
X157211450Y-58542000D01*
X157344398Y-59210376D01*
X157723003Y-59776997D01*
X158289624Y-60155602D01*
X158297647Y-60157198D01*
X155088645Y-63366200D01*
X145389387Y-63366200D01*
X145271199Y-63342691D01*
X144802983Y-63435825D01*
X144406048Y-63701048D01*
X144339098Y-63801246D01*
X137236347Y-70903998D01*
X137136149Y-70970948D01*
X136870925Y-71367883D01*
X136859900Y-71423311D01*
X136856825Y-71426386D01*
X136651300Y-71922568D01*
X136651300Y-72459632D01*
X136856825Y-72955814D01*
X136934500Y-73033489D01*
X136934500Y-73415732D01*
X137140025Y-73911914D01*
X137519786Y-74291675D01*
X138015968Y-74497200D01*
X138553032Y-74497200D01*
X138757857Y-74412359D01*
X138555800Y-74900168D01*
X138555800Y-75437232D01*
X138761325Y-75933414D01*
X139141086Y-76313175D01*
X139581531Y-76495613D01*
X138660950Y-77416195D01*
X138328700Y-77083945D01*
X138328700Y-76808468D01*
X138123175Y-76312286D01*
X137743414Y-75932525D01*
X137247232Y-75727000D01*
X136710168Y-75727000D01*
X136213986Y-75932525D01*
X136100100Y-76046411D01*
X135951156Y-75297621D01*
X135487015Y-74602985D01*
X134792379Y-74138844D01*
X134179829Y-74017000D01*
X133266171Y-74017000D01*
X132653621Y-74138844D01*
X132176889Y-74457386D01*
X132042997Y-74257003D01*
X131476376Y-73878398D01*
X130808000Y-73745450D01*
X129699000Y-73745450D01*
X129699000Y-69388550D01*
X130808000Y-69388550D01*
X131476376Y-69255602D01*
X132042997Y-68876997D01*
X132176889Y-68676614D01*
X132653621Y-68995156D01*
X133266171Y-69117000D01*
X134179829Y-69117000D01*
X134792379Y-68995156D01*
X135487015Y-68531015D01*
X135951156Y-67836379D01*
X136114141Y-67017000D01*
X135951156Y-66197621D01*
X135487015Y-65502985D01*
X134792379Y-65038844D01*
X134179829Y-64917000D01*
X133266171Y-64917000D01*
X132653621Y-65038844D01*
X132176889Y-65357386D01*
X132042997Y-65157003D01*
X131476376Y-64778398D01*
X130808000Y-64645450D01*
X129699000Y-64645450D01*
X129699000Y-60288550D01*
X130808000Y-60288550D01*
X131476376Y-60155602D01*
X132042997Y-59776997D01*
X132176889Y-59576614D01*
X132653621Y-59895156D01*
X133266171Y-60017000D01*
X134179829Y-60017000D01*
X134792379Y-59895156D01*
X135487015Y-59431015D01*
X135951156Y-58736379D01*
X136114141Y-57917000D01*
X136092181Y-57806600D01*
X137611450Y-57806600D01*
X137611450Y-58542000D01*
X137744398Y-59210376D01*
X138123003Y-59776997D01*
X138689624Y-60155602D01*
X139358000Y-60288550D01*
X140608000Y-60288550D01*
X141276376Y-60155602D01*
X141842997Y-59776997D01*
X141976889Y-59576614D01*
X142453621Y-59895156D01*
X143066171Y-60017000D01*
X143979829Y-60017000D01*
X144592379Y-59895156D01*
X145287015Y-59431015D01*
X145751156Y-58736379D01*
X145914141Y-57917000D01*
X145892181Y-57806600D01*
X147411450Y-57806600D01*
X147411450Y-58542000D01*
X147544398Y-59210376D01*
X147923003Y-59776997D01*
X148489624Y-60155602D01*
X149158000Y-60288550D01*
X150408000Y-60288550D01*
X151076376Y-60155602D01*
X151642997Y-59776997D01*
X151776889Y-59576614D01*
X152253621Y-59895156D01*
X152866171Y-60017000D01*
X153779829Y-60017000D01*
X154392379Y-59895156D01*
X155087015Y-59431015D01*
X155551156Y-58736379D01*
X155714141Y-57917000D01*
X155551156Y-57097621D01*
X155087015Y-56402985D01*
X154392379Y-55938844D01*
X153779829Y-55817000D01*
X152866171Y-55817000D01*
X152253621Y-55938844D01*
X151776889Y-56257386D01*
X151642997Y-56057003D01*
X151076376Y-55678398D01*
X150408000Y-55545450D01*
X149544420Y-55545450D01*
X149522794Y-55531000D01*
X180443206Y-55531000D01*
X180280824Y-55639500D01*
G36*
X199386525Y-73757186D02*
X199181000Y-74253368D01*
X199181000Y-74790432D01*
X199386525Y-75286614D01*
X199518300Y-75418389D01*
X199518301Y-76684041D01*
X199483635Y-76698400D01*
X199451831Y-76698400D01*
X199249275Y-76209386D01*
X198869514Y-75829625D01*
X198507380Y-75679624D01*
X197924304Y-75096549D01*
X197857352Y-74996348D01*
X197678418Y-74876788D01*
X197825156Y-74657179D01*
X197988141Y-73837800D01*
X197914682Y-73468500D01*
X199675211Y-73468500D01*
X199386525Y-73757186D01*
X199386525Y-73757186D01*
G37*
X199386525Y-73757186D02*
X199181000Y-74253368D01*
X199181000Y-74790432D01*
X199386525Y-75286614D01*
X199518300Y-75418389D01*
X199518301Y-76684041D01*
X199483635Y-76698400D01*
X199451831Y-76698400D01*
X199249275Y-76209386D01*
X198869514Y-75829625D01*
X198507380Y-75679624D01*
X197924304Y-75096549D01*
X197857352Y-74996348D01*
X197678418Y-74876788D01*
X197825156Y-74657179D01*
X197988141Y-73837800D01*
X197914682Y-73468500D01*
X199675211Y-73468500D01*
X199386525Y-73757186D01*
G36*
X207883001Y-73760368D02*
X207289624Y-73878398D01*
X206723003Y-74257003D01*
X206344398Y-74823624D01*
X206211450Y-75492000D01*
X206211450Y-76087994D01*
X205256076Y-75132621D01*
X205166936Y-74917419D01*
X207883001Y-72201355D01*
X207883001Y-73760368D01*
X207883001Y-73760368D01*
G37*
X207883001Y-73760368D02*
X207289624Y-73878398D01*
X206723003Y-74257003D01*
X206344398Y-74823624D01*
X206211450Y-75492000D01*
X206211450Y-76087994D01*
X205256076Y-75132621D01*
X205166936Y-74917419D01*
X207883001Y-72201355D01*
X207883001Y-73760368D01*
G36*
X211053621Y-68995156D02*
X211666171Y-69117000D01*
X212579829Y-69117000D01*
X212693000Y-69094489D01*
X212693001Y-74039511D01*
X212579829Y-74017000D01*
X211666171Y-74017000D01*
X211053621Y-74138844D01*
X210576889Y-74457386D01*
X210442997Y-74257003D01*
X210283000Y-74150096D01*
X210283000Y-68983904D01*
X210442997Y-68876997D01*
X210576889Y-68676614D01*
X211053621Y-68995156D01*
X211053621Y-68995156D01*
G37*
X211053621Y-68995156D02*
X211666171Y-69117000D01*
X212579829Y-69117000D01*
X212693000Y-69094489D01*
X212693001Y-74039511D01*
X212579829Y-74017000D01*
X211666171Y-74017000D01*
X211053621Y-74138844D01*
X210576889Y-74457386D01*
X210442997Y-74257003D01*
X210283000Y-74150096D01*
X210283000Y-68983904D01*
X210442997Y-68876997D01*
X210576889Y-68676614D01*
X211053621Y-68995156D01*
G36*
X144384450Y-74202710D02*
X144319500Y-74189791D01*
X144201312Y-74213300D01*
X142558256Y-74213300D01*
X143295156Y-73476400D01*
X144384450Y-73476400D01*
X144384450Y-74202710D01*
X144384450Y-74202710D01*
G37*
X144384450Y-74202710D02*
X144319500Y-74189791D01*
X144201312Y-74213300D01*
X142558256Y-74213300D01*
X143295156Y-73476400D01*
X144384450Y-73476400D01*
X144384450Y-74202710D01*
G36*
X141775986Y-71523775D02*
X141830916Y-71546528D01*
X139503221Y-73874224D01*
X139432443Y-73903541D01*
X139578976Y-73549779D01*
X141690483Y-71438272D01*
X141775986Y-71523775D01*
X141775986Y-71523775D01*
G37*
X141775986Y-71523775D02*
X141830916Y-71546528D01*
X139503221Y-73874224D01*
X139432443Y-73903541D01*
X139578976Y-73549779D01*
X141690483Y-71438272D01*
X141775986Y-71523775D01*
G36*
X212451810Y-55565109D02*
X212547996Y-55617009D01*
X212622186Y-55697267D01*
X212675935Y-55818845D01*
X212678174Y-55836562D01*
X212579829Y-55817000D01*
X211666171Y-55817000D01*
X211053621Y-55938844D01*
X210576889Y-56257386D01*
X210442997Y-56057003D01*
X209876376Y-55678398D01*
X209208000Y-55545450D01*
X207958000Y-55545450D01*
X207289624Y-55678398D01*
X206723003Y-56057003D01*
X206344398Y-56623624D01*
X206211450Y-57292000D01*
X206211450Y-58542000D01*
X206344398Y-59210376D01*
X206723003Y-59776997D01*
X207289624Y-60155602D01*
X207883000Y-60273632D01*
X207883001Y-64660368D01*
X207289624Y-64778398D01*
X206723003Y-65157003D01*
X206344398Y-65723624D01*
X206211450Y-66392000D01*
X206211450Y-67642000D01*
X206323219Y-68203900D01*
X204987500Y-68203900D01*
X204987500Y-68072868D01*
X204827702Y-67687081D01*
X205020000Y-67222832D01*
X205020000Y-66685768D01*
X204814475Y-66189586D01*
X204434714Y-65809825D01*
X203938532Y-65604300D01*
X203401468Y-65604300D01*
X203039335Y-65754300D01*
X190447056Y-65754300D01*
X184269266Y-59576510D01*
X184487015Y-59431015D01*
X184951156Y-58736379D01*
X185114141Y-57917000D01*
X185092181Y-57806600D01*
X186611450Y-57806600D01*
X186611450Y-58542000D01*
X186744398Y-59210376D01*
X187123003Y-59776997D01*
X187689624Y-60155602D01*
X188358000Y-60288550D01*
X189608000Y-60288550D01*
X190276376Y-60155602D01*
X190842997Y-59776997D01*
X190976889Y-59576614D01*
X191453621Y-59895156D01*
X192066171Y-60017000D01*
X192979829Y-60017000D01*
X193592379Y-59895156D01*
X194287015Y-59431015D01*
X194751156Y-58736379D01*
X194914141Y-57917000D01*
X194886373Y-57777400D01*
X196411450Y-57777400D01*
X196411450Y-58542000D01*
X196544398Y-59210376D01*
X196923003Y-59776997D01*
X197489624Y-60155602D01*
X198158000Y-60288550D01*
X199408000Y-60288550D01*
X200076376Y-60155602D01*
X200642997Y-59776997D01*
X200776889Y-59576614D01*
X201253621Y-59895156D01*
X201866171Y-60017000D01*
X202779829Y-60017000D01*
X203392379Y-59895156D01*
X204087015Y-59431015D01*
X204551156Y-58736379D01*
X204714141Y-57917000D01*
X204551156Y-57097621D01*
X204087015Y-56402985D01*
X203392379Y-55938844D01*
X202779829Y-55817000D01*
X201866171Y-55817000D01*
X201253621Y-55938844D01*
X200776889Y-56257386D01*
X200642997Y-56057003D01*
X200076376Y-55678398D01*
X199408000Y-55545450D01*
X198558921Y-55545450D01*
X198537295Y-55531000D01*
X212246883Y-55531000D01*
X212451810Y-55565109D01*
X212451810Y-55565109D01*
G37*
X212451810Y-55565109D02*
X212547996Y-55617009D01*
X212622186Y-55697267D01*
X212675935Y-55818845D01*
X212678174Y-55836562D01*
X212579829Y-55817000D01*
X211666171Y-55817000D01*
X211053621Y-55938844D01*
X210576889Y-56257386D01*
X210442997Y-56057003D01*
X209876376Y-55678398D01*
X209208000Y-55545450D01*
X207958000Y-55545450D01*
X207289624Y-55678398D01*
X206723003Y-56057003D01*
X206344398Y-56623624D01*
X206211450Y-57292000D01*
X206211450Y-58542000D01*
X206344398Y-59210376D01*
X206723003Y-59776997D01*
X207289624Y-60155602D01*
X207883000Y-60273632D01*
X207883001Y-64660368D01*
X207289624Y-64778398D01*
X206723003Y-65157003D01*
X206344398Y-65723624D01*
X206211450Y-66392000D01*
X206211450Y-67642000D01*
X206323219Y-68203900D01*
X204987500Y-68203900D01*
X204987500Y-68072868D01*
X204827702Y-67687081D01*
X205020000Y-67222832D01*
X205020000Y-66685768D01*
X204814475Y-66189586D01*
X204434714Y-65809825D01*
X203938532Y-65604300D01*
X203401468Y-65604300D01*
X203039335Y-65754300D01*
X190447056Y-65754300D01*
X184269266Y-59576510D01*
X184487015Y-59431015D01*
X184951156Y-58736379D01*
X185114141Y-57917000D01*
X185092181Y-57806600D01*
X186611450Y-57806600D01*
X186611450Y-58542000D01*
X186744398Y-59210376D01*
X187123003Y-59776997D01*
X187689624Y-60155602D01*
X188358000Y-60288550D01*
X189608000Y-60288550D01*
X190276376Y-60155602D01*
X190842997Y-59776997D01*
X190976889Y-59576614D01*
X191453621Y-59895156D01*
X192066171Y-60017000D01*
X192979829Y-60017000D01*
X193592379Y-59895156D01*
X194287015Y-59431015D01*
X194751156Y-58736379D01*
X194914141Y-57917000D01*
X194886373Y-57777400D01*
X196411450Y-57777400D01*
X196411450Y-58542000D01*
X196544398Y-59210376D01*
X196923003Y-59776997D01*
X197489624Y-60155602D01*
X198158000Y-60288550D01*
X199408000Y-60288550D01*
X200076376Y-60155602D01*
X200642997Y-59776997D01*
X200776889Y-59576614D01*
X201253621Y-59895156D01*
X201866171Y-60017000D01*
X202779829Y-60017000D01*
X203392379Y-59895156D01*
X204087015Y-59431015D01*
X204551156Y-58736379D01*
X204714141Y-57917000D01*
X204551156Y-57097621D01*
X204087015Y-56402985D01*
X203392379Y-55938844D01*
X202779829Y-55817000D01*
X201866171Y-55817000D01*
X201253621Y-55938844D01*
X200776889Y-56257386D01*
X200642997Y-56057003D01*
X200076376Y-55678398D01*
X199408000Y-55545450D01*
X198558921Y-55545450D01*
X198537295Y-55531000D01*
X212246883Y-55531000D01*
X212451810Y-55565109D01*
G36*
X211053621Y-59895156D02*
X211666171Y-60017000D01*
X212579829Y-60017000D01*
X212693000Y-59994489D01*
X212693000Y-64939511D01*
X212579829Y-64917000D01*
X211666171Y-64917000D01*
X211053621Y-65038844D01*
X210576889Y-65357386D01*
X210442997Y-65157003D01*
X210283000Y-65050096D01*
X210283000Y-59883904D01*
X210442997Y-59776997D01*
X210576889Y-59576614D01*
X211053621Y-59895156D01*
X211053621Y-59895156D01*
G37*
X211053621Y-59895156D02*
X211666171Y-60017000D01*
X212579829Y-60017000D01*
X212693000Y-59994489D01*
X212693000Y-64939511D01*
X212579829Y-64917000D01*
X211666171Y-64917000D01*
X211053621Y-65038844D01*
X210576889Y-65357386D01*
X210442997Y-65157003D01*
X210283000Y-65050096D01*
X210283000Y-59883904D01*
X210442997Y-59776997D01*
X210576889Y-59576614D01*
X211053621Y-59895156D01*
G36*
X131280824Y-55639500D02*
X130808000Y-55545450D01*
X129699000Y-55545450D01*
X129699000Y-55531000D01*
X131443206Y-55531000D01*
X131280824Y-55639500D01*
X131280824Y-55639500D01*
G37*
X131280824Y-55639500D02*
X130808000Y-55545450D01*
X129699000Y-55545450D01*
X129699000Y-55531000D01*
X131443206Y-55531000D01*
X131280824Y-55639500D01*
G36*
X141080824Y-55639500D02*
X140608000Y-55545450D01*
X139744420Y-55545450D01*
X139722794Y-55531000D01*
X141243206Y-55531000D01*
X141080824Y-55639500D01*
X141080824Y-55639500D01*
G37*
X141080824Y-55639500D02*
X140608000Y-55545450D01*
X139744420Y-55545450D01*
X139722794Y-55531000D01*
X141243206Y-55531000D01*
X141080824Y-55639500D01*
G36*
X190069649Y-55637278D02*
X189608000Y-55545450D01*
X188744420Y-55545450D01*
X188722794Y-55531000D01*
X190228705Y-55531000D01*
X190069649Y-55637278D01*
X190069649Y-55637278D01*
G37*
X190069649Y-55637278D02*
X189608000Y-55545450D01*
X188744420Y-55545450D01*
X188722794Y-55531000D01*
X190228705Y-55531000D01*
X190069649Y-55637278D01*
M02*
