M48
;DRILL file {KiCad (5.0.0)} date 01/20/19 21:42:18
;FORMAT={-:-/ absolute / metric / decimal}
FMAT,2
METRIC,TZ
T1C0.350
T2C0.800
T3C0.900
T4C1.000
T5C1.100
T6C1.200
%
G90
G05
M71
T1
X136.979Y-77.077
X138.001Y-72.191
X138.284Y-73.147
X139.392Y-79.032
X139.906Y-75.169
X140.133Y-78.454
X142.276Y-68.417
X142.541Y-70.379
X143.923Y-75.976
X145.042Y-77.932
X145.042Y-79.989
X145.272Y-70.832
X152.494Y-71.112
X155.09Y-76.038
X155.589Y-70.627
X156.338Y-67.964
X156.532Y-69.454
X162.878Y-85.834
X163.321Y-126.072
X164.25Y-125.919
X166.309Y-70.626
X166.355Y-128.345
X167.103Y-104.695
X169.425Y-124.315
X170.432Y-133.407
X173.265Y-134.511
X173.344Y-124.866
X173.461Y-72.673
X174.352Y-131.656
X175.694Y-79.204
X175.727Y-80.028
X176.086Y-69.772
X177.954Y-116.783
X179.018Y-71.823
X180.409Y-79.129
X181.105Y-123.804
X195.198Y-79.139
X195.815Y-80.788
X198.105Y-76.974
X200.114Y-77.898
X200.531Y-74.522
X200.6Y-69.89
X202.01Y-77.799
X203.141Y-78.607
X203.244Y-84.739
X203.317Y-71.676
X203.468Y-69.404
X203.589Y-76.404
X203.637Y-68.341
X203.67Y-66.954
X203.962Y-75.535
X204.366Y-72.533
X207.055Y-70.11
T2
X167.45Y-133.368
X167.45Y-135.908
X167.45Y-138.448
X167.45Y-140.988
X175.07Y-133.368
X175.07Y-135.908
X175.07Y-138.448
X175.07Y-140.988
T3
X209.083Y-57.917
X211.623Y-57.917
X147.256Y-85.217
X149.796Y-85.217
X150.283Y-57.917
X152.823Y-57.917
X130.683Y-76.117
X133.223Y-76.117
X160.083Y-57.917
X162.623Y-57.917
X192.557Y-73.838
X195.097Y-73.838
X192.557Y-85.217
X195.097Y-85.217
X160.902Y-146.558
X163.442Y-146.558
X151.877Y-129.899
X154.417Y-129.899
X188.156Y-129.899
X190.696Y-129.899
X147.256Y-73.85
X149.796Y-73.85
X178.156Y-83.038
X180.696Y-83.038
X209.083Y-85.217
X211.623Y-85.217
X169.883Y-57.917
X172.423Y-57.917
X161.734Y-83.038
X164.274Y-83.038
X178.156Y-129.899
X180.696Y-129.899
X140.483Y-57.917
X143.023Y-57.917
X209.083Y-76.117
X211.623Y-76.117
X178.95Y-146.558
X181.49Y-146.558
X161.734Y-92.238
X164.274Y-92.238
X130.683Y-67.017
X133.223Y-67.017
X199.283Y-57.917
X201.823Y-57.917
X189.483Y-57.917
X192.023Y-57.917
X209.083Y-67.017
X211.623Y-67.017
X154.496Y-73.85
X157.036Y-73.85
X130.683Y-57.917
X133.223Y-57.917
X178.156Y-120.699
X180.696Y-120.699
X161.734Y-129.921
X164.274Y-129.921
X169.926Y-146.558
X172.466Y-146.558
X130.683Y-85.217
X133.223Y-85.217
X178.156Y-73.838
X180.696Y-73.838
X179.683Y-57.917
X182.223Y-57.917
X178.156Y-92.238
X180.696Y-92.238
X151.877Y-146.558
X154.417Y-146.558
X188.15Y-146.558
X190.69Y-146.558
X185.369Y-73.838
X187.909Y-73.838
X161.734Y-73.838
X164.274Y-73.838
X161.734Y-120.699
X164.274Y-120.699
T4
X169.799Y-105.537
X172.339Y-105.537
X180.63Y-138.54
X183.17Y-138.54
X185.71Y-138.54
X188.25Y-138.54
T5
X154.215Y-136.54
X154.215Y-141.04
X160.715Y-136.54
X160.715Y-141.04
T6
X171.196Y-99.569
X171.196Y-119.069
T0
M30
