G04 #@! TF.GenerationSoftware,KiCad,Pcbnew,(5.0.0)*
G04 #@! TF.CreationDate,2018-11-01T22:36:59-04:00*
G04 #@! TF.ProjectId,Snowflake,536E6F77666C616B652E6B696361645F,rev?*
G04 #@! TF.SameCoordinates,Original*
G04 #@! TF.FileFunction,Legend,Top*
G04 #@! TF.FilePolarity,Positive*
%FSLAX46Y46*%
G04 Gerber Fmt 4.6, Leading zero omitted, Abs format (unit mm)*
G04 Created by KiCad (PCBNEW (5.0.0)) date 11/01/18 22:36:59*
%MOMM*%
%LPD*%
G01*
G04 APERTURE LIST*
%ADD10C,0.010000*%
%ADD11C,0.120000*%
%ADD12C,0.150000*%
G04 APERTURE END LIST*
D10*
G04 #@! TO.C,G\002A\002A\002A*
G36*
X127172402Y-50880536D02*
X127229794Y-50955063D01*
X127316648Y-51083195D01*
X127435994Y-51270109D01*
X127590860Y-51520984D01*
X127784277Y-51840995D01*
X128019273Y-52235322D01*
X128298880Y-52709140D01*
X128626125Y-53267629D01*
X129004040Y-53915964D01*
X129435652Y-54659324D01*
X129923993Y-55502886D01*
X130472092Y-56451828D01*
X131082977Y-57511326D01*
X131759680Y-58686560D01*
X132505229Y-59982705D01*
X133322654Y-61404939D01*
X133730310Y-62114545D01*
X134084465Y-62730757D01*
X134451640Y-63369006D01*
X134815230Y-64000469D01*
X135158627Y-64596321D01*
X135465224Y-65127740D01*
X135718416Y-65565902D01*
X135800456Y-65707626D01*
X136032077Y-66113066D01*
X136234274Y-66477698D01*
X136395023Y-66778951D01*
X136502300Y-66994258D01*
X136544080Y-67101049D01*
X136544242Y-67103677D01*
X136498708Y-67183826D01*
X136367630Y-67374812D01*
X136159294Y-67665436D01*
X135881990Y-68044497D01*
X135544004Y-68500796D01*
X135153623Y-69023134D01*
X134719135Y-69600310D01*
X134248828Y-70221125D01*
X133849247Y-70745748D01*
X133356788Y-71392776D01*
X132894063Y-72004587D01*
X132469279Y-72570071D01*
X132090642Y-73078117D01*
X131766360Y-73517614D01*
X131504640Y-73877452D01*
X131313688Y-74146518D01*
X131201713Y-74313702D01*
X131174550Y-74366852D01*
X131229940Y-74448319D01*
X131373859Y-74626084D01*
X131591281Y-74882547D01*
X131867180Y-75200104D01*
X132186530Y-75561154D01*
X132349394Y-75743128D01*
X132693793Y-76127198D01*
X133011858Y-76483215D01*
X133286217Y-76791631D01*
X133499497Y-77032896D01*
X133634327Y-77187462D01*
X133663159Y-77221552D01*
X133822379Y-77414795D01*
X138428262Y-73583510D01*
X139158180Y-72977264D01*
X139855690Y-72399714D01*
X140511503Y-71858445D01*
X141116326Y-71361042D01*
X141660871Y-70915090D01*
X142135846Y-70528174D01*
X142531961Y-70207880D01*
X142839924Y-69961791D01*
X143050447Y-69797494D01*
X143154237Y-69722573D01*
X143161995Y-69718792D01*
X143322726Y-69733449D01*
X143406860Y-69873591D01*
X143409661Y-70128565D01*
X143391926Y-70236112D01*
X143362091Y-70393739D01*
X143308984Y-70682286D01*
X143236343Y-71081118D01*
X143147907Y-71569604D01*
X143047414Y-72127112D01*
X142938602Y-72733009D01*
X142862202Y-73159697D01*
X142728356Y-73908097D01*
X142581381Y-74729877D01*
X142429157Y-75580969D01*
X142279567Y-76417305D01*
X142140492Y-77194817D01*
X142019816Y-77869437D01*
X142008657Y-77931818D01*
X141899081Y-78542704D01*
X141789986Y-79147897D01*
X141686679Y-79718179D01*
X141594467Y-80224335D01*
X141518655Y-80637149D01*
X141464859Y-80925779D01*
X141404739Y-81255816D01*
X141360245Y-81524038D01*
X141336445Y-81698239D01*
X141335419Y-81748045D01*
X141414362Y-81771028D01*
X141617028Y-81819627D01*
X141916518Y-81887663D01*
X142285934Y-81968958D01*
X142472165Y-82009152D01*
X142946261Y-82110856D01*
X143441867Y-82217159D01*
X143904080Y-82316288D01*
X144277994Y-82396466D01*
X144318182Y-82405082D01*
X144648900Y-82476883D01*
X144933084Y-82540222D01*
X145129838Y-82585907D01*
X145185645Y-82600087D01*
X145295645Y-82584269D01*
X145394562Y-82451461D01*
X145443175Y-82344013D01*
X145548782Y-82088970D01*
X145699994Y-81725554D01*
X145889780Y-81270531D01*
X146111113Y-80740667D01*
X146356965Y-80152730D01*
X146620307Y-79523485D01*
X146894110Y-78869699D01*
X147171347Y-78208140D01*
X147444988Y-77555573D01*
X147708007Y-76928765D01*
X147953373Y-76344482D01*
X148174060Y-75819492D01*
X148363038Y-75370560D01*
X148513279Y-75014454D01*
X148617755Y-74767940D01*
X148667816Y-74651435D01*
X148842014Y-74257416D01*
X158144795Y-74220353D01*
X159407600Y-74215883D01*
X160611160Y-74212731D01*
X161747172Y-74210871D01*
X162807337Y-74210274D01*
X163783353Y-74210914D01*
X164666918Y-74212763D01*
X165449733Y-74215793D01*
X166123496Y-74219977D01*
X166679907Y-74225289D01*
X167110663Y-74231699D01*
X167407464Y-74239182D01*
X167562010Y-74247709D01*
X167582273Y-74251474D01*
X167682186Y-74359024D01*
X167716881Y-74504572D01*
X167674752Y-74617843D01*
X167645606Y-74634949D01*
X167594186Y-74704700D01*
X167473620Y-74895162D01*
X167291496Y-75193597D01*
X167055399Y-75587262D01*
X166772918Y-76063418D01*
X166451639Y-76609324D01*
X166099148Y-77212239D01*
X165723031Y-77859424D01*
X165636534Y-78008788D01*
X165184920Y-78789105D01*
X164674948Y-79670200D01*
X164125399Y-80619633D01*
X163555049Y-81604962D01*
X162982677Y-82593747D01*
X162427062Y-83553546D01*
X161906983Y-84451918D01*
X161582132Y-85013030D01*
X161162572Y-85737740D01*
X160748221Y-86453497D01*
X160348882Y-87143366D01*
X159974357Y-87790409D01*
X159634449Y-88377692D01*
X159338961Y-88888279D01*
X159097694Y-89305232D01*
X158920451Y-89611617D01*
X158876810Y-89687081D01*
X158666795Y-90042864D01*
X158477859Y-90349154D01*
X158325521Y-90581834D01*
X158225297Y-90716783D01*
X158199270Y-90740198D01*
X158082377Y-90747746D01*
X157861330Y-90733787D01*
X157583951Y-90701343D01*
X157583512Y-90701282D01*
X157018577Y-90623382D01*
X156386131Y-90538771D01*
X155702011Y-90449355D01*
X154982052Y-90357044D01*
X154242093Y-90263742D01*
X153497971Y-90171359D01*
X152765520Y-90081801D01*
X152060580Y-89996974D01*
X151398986Y-89918787D01*
X150796575Y-89849147D01*
X150269185Y-89789961D01*
X149832651Y-89743135D01*
X149502812Y-89710578D01*
X149295503Y-89694197D01*
X149226753Y-89694883D01*
X149190881Y-89777240D01*
X149116492Y-89980626D01*
X149011338Y-90281603D01*
X148883174Y-90656729D01*
X148739753Y-91082566D01*
X148588828Y-91535673D01*
X148438153Y-91992611D01*
X148295481Y-92429941D01*
X148168565Y-92824222D01*
X148065159Y-93152014D01*
X147993016Y-93389879D01*
X147959890Y-93514376D01*
X147959138Y-93527078D01*
X148032523Y-93556119D01*
X148230305Y-93630350D01*
X148532233Y-93742280D01*
X148918058Y-93884420D01*
X149367533Y-94049279D01*
X149667576Y-94158991D01*
X150115239Y-94322732D01*
X150681150Y-94530103D01*
X151339120Y-94771488D01*
X152062960Y-95037268D01*
X152826482Y-95317826D01*
X153603497Y-95603545D01*
X154367815Y-95884808D01*
X154632121Y-95982127D01*
X155335115Y-96240952D01*
X156017651Y-96492128D01*
X156661041Y-96728787D01*
X157246596Y-96944057D01*
X157755628Y-97131072D01*
X158169449Y-97282960D01*
X158469369Y-97392852D01*
X158592088Y-97437672D01*
X158992926Y-97596899D01*
X159252246Y-97733985D01*
X159379514Y-97856820D01*
X159384194Y-97973293D01*
X159325968Y-98049337D01*
X159236888Y-98092156D01*
X159014248Y-98182667D01*
X158669406Y-98316634D01*
X158213718Y-98489824D01*
X157658544Y-98698005D01*
X157015240Y-98936940D01*
X156295165Y-99202398D01*
X155509675Y-99490144D01*
X154670129Y-99795945D01*
X153787885Y-100115566D01*
X153631515Y-100172039D01*
X152745194Y-100492445D01*
X151901056Y-100798484D01*
X151110276Y-101086054D01*
X150384029Y-101351047D01*
X149733487Y-101589360D01*
X149169826Y-101796887D01*
X148704219Y-101969524D01*
X148347841Y-102103166D01*
X148111865Y-102193707D01*
X148007465Y-102237043D01*
X148003435Y-102239592D01*
X148016495Y-102319559D01*
X148070108Y-102522120D01*
X148156852Y-102823599D01*
X148269306Y-103200315D01*
X148400048Y-103628590D01*
X148541657Y-104084747D01*
X148686712Y-104545106D01*
X148827791Y-104985989D01*
X148957473Y-105383719D01*
X149068336Y-105714616D01*
X149152960Y-105955002D01*
X149203922Y-106081198D01*
X149211139Y-106092836D01*
X149290139Y-106088605D01*
X149507997Y-106066148D01*
X149850922Y-106027137D01*
X150305125Y-105973242D01*
X150856816Y-105906137D01*
X151492203Y-105827493D01*
X152197498Y-105738981D01*
X152958910Y-105642273D01*
X153496968Y-105573291D01*
X154296424Y-105470953D01*
X155055425Y-105374828D01*
X155759259Y-105286710D01*
X156393214Y-105208391D01*
X156942579Y-105141665D01*
X157392643Y-105088325D01*
X157728693Y-105050165D01*
X157936018Y-105028978D01*
X157993747Y-105025151D01*
X158186920Y-105054273D01*
X158308914Y-105121363D01*
X158360480Y-105203558D01*
X158482180Y-105407280D01*
X158667138Y-105720762D01*
X158908480Y-106132239D01*
X159199330Y-106629944D01*
X159532813Y-107202111D01*
X159902053Y-107836974D01*
X160300176Y-108522768D01*
X160720306Y-109247725D01*
X160748819Y-109296969D01*
X161632544Y-110823159D01*
X162463865Y-112258462D01*
X163240883Y-113599606D01*
X163961700Y-114843323D01*
X164624417Y-115986341D01*
X165227136Y-117025390D01*
X165767956Y-117957201D01*
X166244981Y-118778502D01*
X166656311Y-119486024D01*
X167000047Y-120076497D01*
X167274291Y-120546649D01*
X167477145Y-120893211D01*
X167606709Y-121112912D01*
X167660470Y-121201578D01*
X167703480Y-121343919D01*
X167642486Y-121455187D01*
X167618002Y-121473941D01*
X167572073Y-121490604D01*
X167496629Y-121505237D01*
X167383601Y-121517906D01*
X167224920Y-121528672D01*
X167012517Y-121537600D01*
X166738322Y-121544754D01*
X166394266Y-121550196D01*
X165972281Y-121553990D01*
X165464297Y-121556200D01*
X164862245Y-121556890D01*
X164158055Y-121556122D01*
X163343659Y-121553960D01*
X162410986Y-121550467D01*
X161351969Y-121545708D01*
X160158538Y-121539746D01*
X158822624Y-121532644D01*
X158218161Y-121529342D01*
X156705567Y-121520588D01*
X155342107Y-121511737D01*
X154122977Y-121502719D01*
X153043371Y-121493464D01*
X152098483Y-121483900D01*
X151283510Y-121473957D01*
X150593645Y-121463564D01*
X150024084Y-121452651D01*
X149570022Y-121441148D01*
X149226653Y-121428983D01*
X148989173Y-121416086D01*
X148852775Y-121402387D01*
X148813551Y-121391188D01*
X148769218Y-121305816D01*
X148671697Y-121091120D01*
X148526529Y-120760075D01*
X148339253Y-120325655D01*
X148115408Y-119800833D01*
X147860534Y-119198582D01*
X147580171Y-118531878D01*
X147279859Y-117813693D01*
X147043248Y-117245180D01*
X146672678Y-116355026D01*
X146355516Y-115598012D01*
X146087452Y-114964566D01*
X145864179Y-114445118D01*
X145681387Y-114030097D01*
X145534767Y-113709932D01*
X145420011Y-113475053D01*
X145332809Y-113315889D01*
X145268852Y-113222868D01*
X145223833Y-113186421D01*
X145215301Y-113185028D01*
X145114431Y-113199779D01*
X144890640Y-113241091D01*
X144568682Y-113303838D01*
X144173309Y-113382897D01*
X143729277Y-113473140D01*
X143261339Y-113569442D01*
X142794249Y-113666678D01*
X142352761Y-113759722D01*
X141961629Y-113843448D01*
X141645606Y-113912731D01*
X141429448Y-113962445D01*
X141337907Y-113987465D01*
X141336870Y-113988106D01*
X141347377Y-114064219D01*
X141383383Y-114280087D01*
X141442812Y-114624015D01*
X141523585Y-115084309D01*
X141623622Y-115649275D01*
X141740847Y-116307217D01*
X141873180Y-117046443D01*
X142018544Y-117855257D01*
X142174860Y-118721965D01*
X142340050Y-119634874D01*
X142357568Y-119731514D01*
X142525073Y-120658624D01*
X142684692Y-121548296D01*
X142834233Y-122387919D01*
X142971500Y-123164882D01*
X143094300Y-123866575D01*
X143200439Y-124480388D01*
X143287722Y-124993711D01*
X143353956Y-125393933D01*
X143396946Y-125668444D01*
X143414499Y-125804634D01*
X143414638Y-125806969D01*
X143416043Y-126025310D01*
X143379398Y-126133425D01*
X143289212Y-126173368D01*
X143279091Y-126174896D01*
X143200754Y-126140300D01*
X143030967Y-126025526D01*
X142766793Y-125828210D01*
X142405291Y-125545987D01*
X142010012Y-125229697D01*
X142778788Y-125229697D01*
X142817273Y-125268182D01*
X142855758Y-125229697D01*
X142817273Y-125191212D01*
X142778788Y-125229697D01*
X142010012Y-125229697D01*
X141943523Y-125176495D01*
X141378550Y-124717369D01*
X140707432Y-124166245D01*
X139927231Y-123520760D01*
X139035008Y-122778549D01*
X138470241Y-122307169D01*
X137739189Y-121696832D01*
X137042267Y-121115915D01*
X136388489Y-120571875D01*
X135786868Y-120072168D01*
X135246417Y-119624251D01*
X134776150Y-119235583D01*
X134385079Y-118913619D01*
X134082218Y-118665817D01*
X133876581Y-118499635D01*
X133777180Y-118422529D01*
X133769361Y-118417879D01*
X133695585Y-118473492D01*
X133540490Y-118627795D01*
X133320431Y-118861979D01*
X133051761Y-119157236D01*
X132750835Y-119494759D01*
X132434009Y-119855739D01*
X132117636Y-120221369D01*
X131818071Y-120572842D01*
X131551670Y-120891348D01*
X131334785Y-121158081D01*
X131183773Y-121354232D01*
X131114987Y-121460993D01*
X131112861Y-121472861D01*
X131165438Y-121551199D01*
X131302942Y-121740664D01*
X131516925Y-122029994D01*
X131798944Y-122407927D01*
X132140553Y-122863201D01*
X132533306Y-123384553D01*
X132968758Y-123960722D01*
X133438463Y-124580446D01*
X133809426Y-125068738D01*
X134298542Y-125713899D01*
X134758536Y-126324503D01*
X135181091Y-126889249D01*
X135557890Y-127396835D01*
X135880616Y-127835961D01*
X136140951Y-128195324D01*
X136330579Y-128463625D01*
X136441182Y-128629562D01*
X136467273Y-128680153D01*
X136443748Y-128739318D01*
X136371898Y-128880793D01*
X136249809Y-129107931D01*
X136075567Y-129424084D01*
X135847260Y-129832607D01*
X135562973Y-130336851D01*
X135220793Y-130940170D01*
X134818807Y-131645917D01*
X134355101Y-132457445D01*
X133827761Y-133378106D01*
X133234875Y-134411255D01*
X132574527Y-135560242D01*
X131844806Y-136828423D01*
X131043797Y-138219149D01*
X130169587Y-139735774D01*
X129220262Y-141381650D01*
X129069518Y-141642917D01*
X128718178Y-142252533D01*
X128385563Y-142831004D01*
X128080755Y-143362438D01*
X127812833Y-143830943D01*
X127590881Y-144220627D01*
X127423979Y-144515597D01*
X127321209Y-144699962D01*
X127299168Y-144740948D01*
X127162376Y-144955194D01*
X127031220Y-145040572D01*
X126890934Y-144992912D01*
X126726751Y-144808045D01*
X126551528Y-144529848D01*
X126444176Y-144344224D01*
X126266744Y-144036773D01*
X126025914Y-143619104D01*
X125728368Y-143102825D01*
X125380789Y-142499545D01*
X124989858Y-141820872D01*
X124562258Y-141078415D01*
X124104670Y-140283781D01*
X123623777Y-139448580D01*
X123126261Y-138584420D01*
X122618804Y-137702910D01*
X122108088Y-136815657D01*
X121600795Y-135934270D01*
X121103608Y-135070359D01*
X120623208Y-134235530D01*
X120166277Y-133441393D01*
X119739498Y-132699556D01*
X119349552Y-132021628D01*
X119003122Y-131419216D01*
X118706890Y-130903930D01*
X118467538Y-130487378D01*
X118291748Y-130181169D01*
X118213322Y-130044332D01*
X118197063Y-130015734D01*
X123977257Y-130015734D01*
X125464822Y-132646804D01*
X125856105Y-133336183D01*
X126179787Y-133899969D01*
X126441856Y-134347777D01*
X126648300Y-134689225D01*
X126805108Y-134933928D01*
X126918268Y-135091504D01*
X126993770Y-135171569D01*
X127037601Y-135183739D01*
X127042245Y-135179846D01*
X127098844Y-135092812D01*
X127221854Y-134886514D01*
X127402590Y-134576067D01*
X127632367Y-134176586D01*
X127902500Y-133703187D01*
X128204304Y-133170985D01*
X128529094Y-132595095D01*
X128607086Y-132456355D01*
X130082070Y-129830892D01*
X128598792Y-127203163D01*
X128270409Y-126624723D01*
X127964044Y-126091426D01*
X127688146Y-125617507D01*
X127451168Y-125217203D01*
X127261560Y-124904750D01*
X127127772Y-124694384D01*
X127058256Y-124600340D01*
X127051580Y-124596746D01*
X126996715Y-124667115D01*
X126878399Y-124852450D01*
X126708292Y-125133343D01*
X126498053Y-125490388D01*
X126259342Y-125904178D01*
X126138267Y-126116907D01*
X125860004Y-126607782D01*
X125577945Y-127105066D01*
X125311101Y-127575261D01*
X125078485Y-127984871D01*
X124899107Y-128300398D01*
X124872600Y-128346969D01*
X124669369Y-128708675D01*
X124465304Y-129079830D01*
X124290802Y-129404810D01*
X124216783Y-129546958D01*
X123977257Y-130015734D01*
X118197063Y-130015734D01*
X117994046Y-129658655D01*
X117804140Y-129319668D01*
X117655864Y-129049664D01*
X117561477Y-128870933D01*
X117532727Y-128806767D01*
X117577294Y-128733540D01*
X117701659Y-128557358D01*
X117891816Y-128297326D01*
X118133763Y-127972549D01*
X118413494Y-127602132D01*
X118475606Y-127520493D01*
X118748813Y-127161854D01*
X119096810Y-126705035D01*
X119501103Y-126174314D01*
X119943199Y-125593968D01*
X120404604Y-124988273D01*
X120866823Y-124381507D01*
X121213622Y-123926255D01*
X123008759Y-121569728D01*
X121790895Y-120216524D01*
X121439972Y-119825830D01*
X121118000Y-119465905D01*
X120841174Y-119154972D01*
X120625691Y-118911254D01*
X120487746Y-118752971D01*
X120449579Y-118707407D01*
X120328869Y-118600335D01*
X120244250Y-118580898D01*
X120173363Y-118633697D01*
X119993505Y-118777448D01*
X119713937Y-119004522D01*
X119343923Y-119307293D01*
X118892726Y-119678132D01*
X118369609Y-120109413D01*
X117783834Y-120593507D01*
X117144664Y-121122787D01*
X116461364Y-121689626D01*
X115743194Y-122286395D01*
X115634432Y-122376857D01*
X114909760Y-122978258D01*
X114216486Y-123550855D01*
X113564096Y-124086983D01*
X112962072Y-124578976D01*
X112419900Y-125019168D01*
X111947062Y-125399893D01*
X111553042Y-125713484D01*
X111247325Y-125952275D01*
X111039395Y-126108601D01*
X110938734Y-126174795D01*
X110933901Y-126176405D01*
X110768710Y-126154833D01*
X110712235Y-126081514D01*
X110707997Y-125962796D01*
X110729853Y-125723941D01*
X110773990Y-125395818D01*
X110794661Y-125268182D01*
X111298182Y-125268182D01*
X111326344Y-125331536D01*
X111349495Y-125319495D01*
X111358707Y-125228150D01*
X111349495Y-125216868D01*
X111303737Y-125227434D01*
X111298182Y-125268182D01*
X110794661Y-125268182D01*
X110836590Y-125009298D01*
X110863158Y-124860451D01*
X110946242Y-124404689D01*
X111052225Y-123820752D01*
X111176903Y-123131998D01*
X111316070Y-122361785D01*
X111465519Y-121533473D01*
X111621047Y-120670421D01*
X111778446Y-119795986D01*
X111933512Y-118933528D01*
X112082039Y-118106406D01*
X112219822Y-117337977D01*
X112342654Y-116651602D01*
X112446331Y-116070638D01*
X112498101Y-115779515D01*
X112507792Y-115723893D01*
X123653147Y-115723893D01*
X125268159Y-117340280D01*
X125678371Y-117748295D01*
X126055448Y-118118493D01*
X126385261Y-118437386D01*
X126653680Y-118691485D01*
X126846576Y-118867303D01*
X126949818Y-118951353D01*
X126961484Y-118956666D01*
X127033303Y-118904134D01*
X127199598Y-118755319D01*
X127446597Y-118523391D01*
X127760532Y-118221522D01*
X128127631Y-117862883D01*
X128534125Y-117460646D01*
X128732036Y-117263116D01*
X130424274Y-115569565D01*
X128769433Y-113914723D01*
X127114592Y-112259882D01*
X125383869Y-113991888D01*
X123653147Y-115723893D01*
X112507792Y-115723893D01*
X112580962Y-115303931D01*
X112651464Y-114882272D01*
X112700105Y-114574866D01*
X117462745Y-114574866D01*
X117480653Y-114682590D01*
X117520700Y-114711268D01*
X117545844Y-114705233D01*
X117633360Y-114654468D01*
X117834268Y-114528452D01*
X118133577Y-114336879D01*
X118516295Y-114089443D01*
X118967433Y-113795837D01*
X119472000Y-113465754D01*
X120015004Y-113108888D01*
X120038177Y-113093623D01*
X120598133Y-112724878D01*
X121133559Y-112372567D01*
X121626946Y-112048188D01*
X122060788Y-111763243D01*
X122417575Y-111529229D01*
X122679802Y-111357647D01*
X122824394Y-111263583D01*
X123036395Y-111109773D01*
X123182717Y-110971066D01*
X123228485Y-110889113D01*
X123210587Y-110770606D01*
X123177851Y-110614806D01*
X131118538Y-110614806D01*
X131174034Y-110676332D01*
X131343872Y-110810810D01*
X131613092Y-111007656D01*
X131966733Y-111256287D01*
X132389835Y-111546122D01*
X132867435Y-111866578D01*
X133183029Y-112075126D01*
X133733044Y-112436851D01*
X134280000Y-112797200D01*
X134800389Y-113140638D01*
X135270706Y-113451635D01*
X135667446Y-113714656D01*
X135967101Y-113914170D01*
X136043939Y-113965614D01*
X136347783Y-114166384D01*
X136606687Y-114331625D01*
X136793288Y-114444270D01*
X136880222Y-114487255D01*
X136880330Y-114487264D01*
X136908139Y-114420503D01*
X136915000Y-114241160D01*
X136901301Y-114011363D01*
X136886575Y-113825112D01*
X136864692Y-113505691D01*
X136836920Y-113073636D01*
X136804526Y-112549487D01*
X136768780Y-111953780D01*
X136730951Y-111307054D01*
X136721823Y-111147098D01*
X149936970Y-111147098D01*
X149974484Y-111222347D01*
X150079670Y-111410725D01*
X150241494Y-111693062D01*
X150448922Y-112050191D01*
X150690918Y-112462942D01*
X150834172Y-112705734D01*
X151148134Y-113237226D01*
X151487895Y-113813312D01*
X151827783Y-114390398D01*
X152142123Y-114924891D01*
X152405241Y-115373198D01*
X152419081Y-115396818D01*
X153106788Y-116570606D01*
X156146475Y-116570606D01*
X156952138Y-116568774D01*
X157644057Y-116563396D01*
X158215132Y-116554645D01*
X158658262Y-116542696D01*
X158966347Y-116527722D01*
X159132287Y-116509898D01*
X159160505Y-116496697D01*
X159116979Y-116416081D01*
X159003746Y-116217579D01*
X158829352Y-115915873D01*
X158602344Y-115525642D01*
X158331267Y-115061569D01*
X158024667Y-114538334D01*
X157691089Y-113970618D01*
X157598263Y-113812898D01*
X156061678Y-111203009D01*
X155443112Y-111154844D01*
X155215401Y-111142733D01*
X154879051Y-111132339D01*
X154454886Y-111123691D01*
X153963730Y-111116820D01*
X153426407Y-111111754D01*
X152863742Y-111108523D01*
X152296558Y-111107156D01*
X151745679Y-111107682D01*
X151231929Y-111110130D01*
X150776133Y-111114531D01*
X150399114Y-111120912D01*
X150121696Y-111129305D01*
X149964704Y-111139736D01*
X149936970Y-111147098D01*
X136721823Y-111147098D01*
X136692305Y-110629846D01*
X136690932Y-110605454D01*
X136652841Y-109949554D01*
X136615333Y-109342404D01*
X136579631Y-108801063D01*
X136546959Y-108342589D01*
X136518541Y-107984040D01*
X136495602Y-107742474D01*
X136479364Y-107634949D01*
X136477537Y-107631389D01*
X136386421Y-107589919D01*
X136182513Y-107519558D01*
X135901460Y-107432208D01*
X135736061Y-107383850D01*
X135283700Y-107254049D01*
X134794142Y-107113071D01*
X134290429Y-106967607D01*
X133795601Y-106824344D01*
X133332699Y-106689971D01*
X132924766Y-106571178D01*
X132594841Y-106474653D01*
X132365966Y-106407084D01*
X132261183Y-106375161D01*
X132260049Y-106374773D01*
X132211884Y-106438472D01*
X132133710Y-106651357D01*
X132026022Y-107011729D01*
X131889316Y-107517888D01*
X131724090Y-108168134D01*
X131657981Y-108436111D01*
X131523678Y-108983406D01*
X131400612Y-109483413D01*
X131293729Y-109916154D01*
X131207976Y-110261653D01*
X131148299Y-110499931D01*
X131119645Y-110611012D01*
X131118538Y-110614806D01*
X123177851Y-110614806D01*
X123160744Y-110533392D01*
X123084732Y-110200404D01*
X122988329Y-109794573D01*
X122877312Y-109338833D01*
X122757456Y-108856115D01*
X122634540Y-108369353D01*
X122514339Y-107901479D01*
X122402630Y-107475426D01*
X122305191Y-107114126D01*
X122227797Y-106840512D01*
X122176226Y-106677517D01*
X122158503Y-106641515D01*
X122071437Y-106662153D01*
X121858809Y-106719908D01*
X121542766Y-106808546D01*
X121145454Y-106921828D01*
X120689021Y-107053520D01*
X120491404Y-107110959D01*
X119983000Y-107258847D01*
X119492739Y-107401100D01*
X119051178Y-107528878D01*
X118688875Y-107633342D01*
X118436386Y-107705654D01*
X118395187Y-107717337D01*
X118143738Y-107791394D01*
X117959284Y-107851345D01*
X117884189Y-107882893D01*
X117873562Y-107963669D01*
X117855217Y-108180503D01*
X117830376Y-108515774D01*
X117800260Y-108951862D01*
X117766090Y-109471145D01*
X117729087Y-110056002D01*
X117695481Y-110605454D01*
X117655222Y-111271510D01*
X117615681Y-111920999D01*
X117578351Y-112529749D01*
X117544724Y-113073585D01*
X117516292Y-113528333D01*
X117494549Y-113869819D01*
X117484450Y-114023459D01*
X117464752Y-114363390D01*
X117462745Y-114574866D01*
X112700105Y-114574866D01*
X112706088Y-114537059D01*
X112741312Y-114290810D01*
X112753615Y-114166044D01*
X112752041Y-114155365D01*
X112671676Y-114133548D01*
X112460809Y-114084955D01*
X112139679Y-114014009D01*
X111728528Y-113925134D01*
X111247599Y-113822750D01*
X110771119Y-113722562D01*
X110146332Y-113593819D01*
X109657385Y-113497769D01*
X109290183Y-113432230D01*
X109030629Y-113395017D01*
X108864628Y-113383948D01*
X108778083Y-113396841D01*
X108760462Y-113411159D01*
X108720476Y-113498316D01*
X108626800Y-113714505D01*
X108484952Y-114046663D01*
X108300453Y-114481725D01*
X108078821Y-115006627D01*
X107825576Y-115608304D01*
X107546237Y-116273692D01*
X107246322Y-116989727D01*
X107024035Y-117521416D01*
X106712573Y-118265561D01*
X106417302Y-118968306D01*
X106143788Y-119616584D01*
X105897601Y-120197325D01*
X105684307Y-120697462D01*
X105509474Y-121103925D01*
X105378672Y-121403645D01*
X105297466Y-121583554D01*
X105272994Y-121631363D01*
X105232444Y-121646298D01*
X105130494Y-121659712D01*
X104960295Y-121671674D01*
X104714999Y-121682255D01*
X104387756Y-121691524D01*
X103971716Y-121699552D01*
X103460031Y-121706409D01*
X102845851Y-121712165D01*
X102122328Y-121716890D01*
X101282611Y-121720654D01*
X100319852Y-121723526D01*
X99227201Y-121725578D01*
X97997810Y-121726879D01*
X96624829Y-121727499D01*
X95865758Y-121727576D01*
X94442645Y-121727774D01*
X93165838Y-121728090D01*
X92027704Y-121728102D01*
X91020611Y-121727390D01*
X90136927Y-121725533D01*
X89369018Y-121722110D01*
X88709253Y-121716700D01*
X88149999Y-121708882D01*
X87683622Y-121698237D01*
X87302492Y-121684342D01*
X86998974Y-121666778D01*
X86765438Y-121645123D01*
X86594249Y-121618957D01*
X86477776Y-121587859D01*
X86408386Y-121551408D01*
X86378446Y-121509184D01*
X86380325Y-121460766D01*
X86406389Y-121405732D01*
X86449006Y-121343663D01*
X86500544Y-121274137D01*
X86542577Y-121213616D01*
X86616209Y-121093397D01*
X86759211Y-120852924D01*
X86963962Y-120505246D01*
X87222839Y-120063410D01*
X87528218Y-119540466D01*
X87872477Y-118949460D01*
X88247993Y-118303440D01*
X88647144Y-117615456D01*
X88940288Y-117109394D01*
X89163061Y-116724545D01*
X94885932Y-116724545D01*
X97925663Y-116724545D01*
X98733492Y-116723433D01*
X99398891Y-116719861D01*
X99933352Y-116713473D01*
X100348370Y-116703915D01*
X100655437Y-116690832D01*
X100866049Y-116673870D01*
X100991698Y-116652673D01*
X101042803Y-116628333D01*
X101093470Y-116548313D01*
X101212547Y-116352043D01*
X101390315Y-116055911D01*
X101617051Y-115676305D01*
X101883036Y-115229612D01*
X102178548Y-114732220D01*
X102493867Y-114200518D01*
X102819271Y-113650893D01*
X103145041Y-113099732D01*
X103461455Y-112563425D01*
X103758792Y-112058358D01*
X104027331Y-111600920D01*
X104200577Y-111304801D01*
X104136608Y-111288094D01*
X103929800Y-111276137D01*
X103591183Y-111269005D01*
X103131785Y-111266776D01*
X102562637Y-111269524D01*
X101894767Y-111277328D01*
X101400678Y-111285367D01*
X100744172Y-111297023D01*
X100128081Y-111307750D01*
X99571344Y-111317235D01*
X99092904Y-111325165D01*
X98711701Y-111331224D01*
X98446675Y-111335099D01*
X98317206Y-111336475D01*
X98253030Y-111340225D01*
X98191196Y-111359655D01*
X98123190Y-111407200D01*
X98040497Y-111495291D01*
X97934603Y-111636364D01*
X97796993Y-111842850D01*
X97619152Y-112127184D01*
X97392566Y-112501799D01*
X97108720Y-112979127D01*
X96759099Y-113571603D01*
X96590800Y-113857424D01*
X96253685Y-114429715D01*
X95937621Y-114965556D01*
X95651938Y-115449183D01*
X95405965Y-115864836D01*
X95209029Y-116196752D01*
X95070459Y-116429169D01*
X94999585Y-116546324D01*
X94996408Y-116551363D01*
X94885932Y-116724545D01*
X89163061Y-116724545D01*
X89797390Y-115628720D01*
X90580684Y-114275509D01*
X91293567Y-113044040D01*
X91939435Y-111928595D01*
X92521682Y-110923456D01*
X93043706Y-110022905D01*
X93508902Y-109221222D01*
X93878376Y-108585459D01*
X109078212Y-108585459D01*
X109086099Y-108611453D01*
X109168873Y-108642071D01*
X109379091Y-108706002D01*
X109695389Y-108797149D01*
X110096404Y-108909414D01*
X110560769Y-109036700D01*
X110847288Y-109114086D01*
X111363884Y-109252961D01*
X111853378Y-109384708D01*
X112288447Y-109501960D01*
X112641770Y-109597352D01*
X112886023Y-109663518D01*
X112953030Y-109681783D01*
X113196689Y-109743513D01*
X113390140Y-109783789D01*
X113453333Y-109791849D01*
X113497581Y-109755839D01*
X113556682Y-109637130D01*
X113634213Y-109424353D01*
X113733753Y-109106139D01*
X113858880Y-108671119D01*
X114013171Y-108107925D01*
X114178348Y-107488039D01*
X114327392Y-106916666D01*
X114460283Y-106393795D01*
X114572639Y-105937758D01*
X114660077Y-105566889D01*
X114718212Y-105299522D01*
X114742662Y-105153991D01*
X114741375Y-105132991D01*
X114653898Y-105098426D01*
X114440444Y-105032453D01*
X114123973Y-104941142D01*
X113727443Y-104830569D01*
X113273815Y-104706804D01*
X112786047Y-104575922D01*
X112287100Y-104443996D01*
X111799932Y-104317098D01*
X111347503Y-104201301D01*
X110952772Y-104102679D01*
X110638699Y-104027304D01*
X110428243Y-103981249D01*
X110345242Y-103970172D01*
X110302910Y-104049064D01*
X110228546Y-104255275D01*
X110128938Y-104567158D01*
X110010874Y-104963068D01*
X109881141Y-105421358D01*
X109819666Y-105646226D01*
X109616950Y-106397760D01*
X109452042Y-107013790D01*
X109321759Y-107507193D01*
X109222915Y-107890844D01*
X109152323Y-108177620D01*
X109106799Y-108380396D01*
X109083157Y-108512051D01*
X109078212Y-108585459D01*
X93878376Y-108585459D01*
X93920667Y-108512689D01*
X94282395Y-107891587D01*
X94597484Y-107352199D01*
X94869329Y-106888804D01*
X95101325Y-106495685D01*
X95296870Y-106167123D01*
X95459359Y-105897399D01*
X95592188Y-105680795D01*
X95698752Y-105511593D01*
X95782449Y-105384072D01*
X95846673Y-105292516D01*
X95894821Y-105231206D01*
X95930289Y-105194422D01*
X95956473Y-105176446D01*
X95976768Y-105171560D01*
X95994571Y-105174045D01*
X96013277Y-105178183D01*
X96025040Y-105179091D01*
X96133145Y-105188718D01*
X96379361Y-105216400D01*
X96749145Y-105260341D01*
X97227954Y-105318741D01*
X97801244Y-105389805D01*
X98454473Y-105471734D01*
X99173097Y-105562730D01*
X99942574Y-105660996D01*
X100414509Y-105721653D01*
X101205856Y-105822864D01*
X101953930Y-105917115D01*
X102644337Y-106002689D01*
X103262685Y-106077869D01*
X103794579Y-106140939D01*
X104225626Y-106190183D01*
X104541434Y-106223883D01*
X104727609Y-106240324D01*
X104771049Y-106241198D01*
X104825736Y-106207492D01*
X104890845Y-106112787D01*
X104972377Y-105942212D01*
X105076330Y-105680896D01*
X105208702Y-105313968D01*
X105375494Y-104826556D01*
X105536390Y-104343967D01*
X105701773Y-103834397D01*
X105845479Y-103372541D01*
X105961751Y-102978513D01*
X106044832Y-102672427D01*
X106047750Y-102659333D01*
X119303030Y-102659333D01*
X119376456Y-102671242D01*
X119582643Y-102685771D01*
X119900454Y-102701924D01*
X120308753Y-102718707D01*
X120786405Y-102735125D01*
X121131061Y-102745326D01*
X121693463Y-102762164D01*
X122247292Y-102780966D01*
X122759725Y-102800455D01*
X123197939Y-102819349D01*
X123529110Y-102836369D01*
X123629895Y-102842755D01*
X124300699Y-102889436D01*
X125617841Y-104996385D01*
X125938261Y-105506385D01*
X126233696Y-105971723D01*
X126494120Y-106376991D01*
X126709507Y-106706780D01*
X126869834Y-106945680D01*
X126965074Y-107078283D01*
X126986734Y-107100418D01*
X127038474Y-107036712D01*
X127160642Y-106857567D01*
X127343105Y-106578719D01*
X127575731Y-106215905D01*
X127848387Y-105784864D01*
X128150940Y-105301330D01*
X128308485Y-105047664D01*
X128313859Y-105039013D01*
X139386680Y-105039013D01*
X139424382Y-105277245D01*
X139507698Y-105660042D01*
X139636374Y-106186252D01*
X139810153Y-106854725D01*
X139857330Y-107031668D01*
X140004837Y-107582908D01*
X140142809Y-108099015D01*
X140265162Y-108557191D01*
X140365813Y-108934639D01*
X140438676Y-109208561D01*
X140477288Y-109354697D01*
X140534332Y-109538443D01*
X140582851Y-109637668D01*
X140592115Y-109643333D01*
X140673728Y-109624189D01*
X140885091Y-109570072D01*
X141207286Y-109485953D01*
X141621397Y-109376802D01*
X142108506Y-109247592D01*
X142649696Y-109103292D01*
X142791066Y-109065485D01*
X143345150Y-108916354D01*
X143851704Y-108778368D01*
X144291382Y-108656926D01*
X144644843Y-108557429D01*
X144892743Y-108485278D01*
X145015737Y-108445874D01*
X145024437Y-108441942D01*
X145065502Y-108341933D01*
X145052610Y-108276988D01*
X145021564Y-108174243D01*
X144956375Y-107942643D01*
X144862490Y-107602096D01*
X144745359Y-107172508D01*
X144610429Y-106673787D01*
X144463149Y-106125838D01*
X144431029Y-106005887D01*
X144282563Y-105453683D01*
X144145745Y-104949790D01*
X144025898Y-104513421D01*
X143928348Y-104163790D01*
X143858417Y-103920111D01*
X143821430Y-103801596D01*
X143818147Y-103794071D01*
X143732349Y-103785933D01*
X143537050Y-103817284D01*
X143269638Y-103881559D01*
X143183723Y-103905482D01*
X142920869Y-103979076D01*
X142543604Y-104082247D01*
X142086462Y-104205674D01*
X141583976Y-104340038D01*
X141070680Y-104476018D01*
X141031687Y-104486292D01*
X140562167Y-104611284D01*
X140141590Y-104725797D01*
X139793359Y-104823251D01*
X139540876Y-104897066D01*
X139407544Y-104940662D01*
X139394848Y-104946497D01*
X139386680Y-105039013D01*
X128313859Y-105039013D01*
X128626915Y-104535148D01*
X128924325Y-104059209D01*
X129189733Y-103637205D01*
X129412161Y-103286495D01*
X129580629Y-103024438D01*
X129684156Y-102868391D01*
X129706375Y-102837700D01*
X129748504Y-102792910D01*
X129806943Y-102756465D01*
X129898341Y-102726796D01*
X130039347Y-102702336D01*
X130246610Y-102681516D01*
X130536778Y-102662768D01*
X130926501Y-102644523D01*
X131432427Y-102625214D01*
X132071205Y-102603272D01*
X132262928Y-102596881D01*
X132859396Y-102575626D01*
X133405785Y-102553400D01*
X133883271Y-102531186D01*
X134273026Y-102509966D01*
X134556225Y-102490723D01*
X134714041Y-102474440D01*
X134740228Y-102467549D01*
X134717093Y-102390480D01*
X134629141Y-102193906D01*
X134484396Y-101893941D01*
X134290876Y-101506697D01*
X134056605Y-101048287D01*
X133789601Y-100534825D01*
X133582207Y-100141246D01*
X132375548Y-97863579D01*
X132498882Y-97633735D01*
X136792221Y-97633735D01*
X136854411Y-97704594D01*
X137010687Y-97862974D01*
X137243881Y-98092548D01*
X137536830Y-98376991D01*
X137872368Y-98699977D01*
X138233331Y-99045180D01*
X138602553Y-99396275D01*
X138962870Y-99736935D01*
X139297116Y-100050834D01*
X139588126Y-100321648D01*
X139818736Y-100533050D01*
X139971780Y-100668714D01*
X140029348Y-100712600D01*
X140109808Y-100679749D01*
X140311600Y-100585354D01*
X140618650Y-100437273D01*
X141014885Y-100243367D01*
X141484229Y-100011495D01*
X142010610Y-99749516D01*
X142492378Y-99508278D01*
X143087788Y-99208700D01*
X143668260Y-98915474D01*
X144212094Y-98639645D01*
X144697591Y-98392262D01*
X145103051Y-98184372D01*
X145406774Y-98027022D01*
X145540445Y-97956499D01*
X146185435Y-97611290D01*
X143154384Y-96088156D01*
X142519392Y-95770137D01*
X141924875Y-95474451D01*
X141385314Y-95208149D01*
X140915192Y-94978286D01*
X140528991Y-94791914D01*
X140241192Y-94656086D01*
X140066278Y-94577856D01*
X140018988Y-94561147D01*
X139941349Y-94610966D01*
X139772633Y-94751538D01*
X139529928Y-94966593D01*
X139230319Y-95239859D01*
X138890894Y-95555068D01*
X138528739Y-95895948D01*
X138160941Y-96246230D01*
X137804586Y-96589643D01*
X137476762Y-96909917D01*
X137194554Y-97190783D01*
X136975050Y-97415968D01*
X136835335Y-97569205D01*
X136792221Y-97633735D01*
X132498882Y-97633735D01*
X133025144Y-96653002D01*
X133482039Y-95799074D01*
X133865955Y-95076111D01*
X134178726Y-94480540D01*
X134422185Y-94008787D01*
X134598167Y-93657279D01*
X134708503Y-93422443D01*
X134755029Y-93300706D01*
X134755242Y-93281403D01*
X134672327Y-93270030D01*
X134454445Y-93254787D01*
X134120494Y-93236594D01*
X133689372Y-93216370D01*
X133179976Y-93195034D01*
X132611205Y-93173504D01*
X132341441Y-93164015D01*
X131749579Y-93143028D01*
X131206300Y-93122511D01*
X130730970Y-93103292D01*
X130342958Y-93086203D01*
X130061630Y-93072073D01*
X129906353Y-93061734D01*
X129883041Y-93058624D01*
X129823696Y-92989691D01*
X129694164Y-92805895D01*
X129505059Y-92523401D01*
X129266994Y-92158378D01*
X128990582Y-91726991D01*
X128686437Y-91245406D01*
X128560699Y-91044433D01*
X128390258Y-90771754D01*
X139373400Y-90771754D01*
X139374227Y-90793778D01*
X139460623Y-90826268D01*
X139676365Y-90892263D01*
X140001890Y-90986221D01*
X140417638Y-91102603D01*
X140904048Y-91235868D01*
X141441559Y-91380474D01*
X141507666Y-91398087D01*
X142048401Y-91542840D01*
X142539059Y-91675795D01*
X142960373Y-91791602D01*
X143293077Y-91884910D01*
X143517905Y-91950369D01*
X143615589Y-91982630D01*
X143617919Y-91984080D01*
X143685125Y-92015678D01*
X143754892Y-91965006D01*
X143833474Y-91817891D01*
X143927123Y-91560161D01*
X144042095Y-91177646D01*
X144155168Y-90766515D01*
X144297768Y-90236435D01*
X144455873Y-89650914D01*
X144612666Y-89072105D01*
X144751329Y-88562163D01*
X144785163Y-88438182D01*
X144886033Y-88052859D01*
X144964506Y-87721378D01*
X145014690Y-87471329D01*
X145030694Y-87330300D01*
X145025981Y-87310370D01*
X144938946Y-87276960D01*
X144724966Y-87211307D01*
X144406134Y-87119698D01*
X144004547Y-87008420D01*
X143542297Y-86883760D01*
X143317576Y-86824234D01*
X142797892Y-86686630D01*
X142293922Y-86551883D01*
X141836795Y-86428414D01*
X141457642Y-86324645D01*
X141187592Y-86248998D01*
X141135809Y-86234014D01*
X140872705Y-86162719D01*
X140673012Y-86119402D01*
X140576728Y-86112612D01*
X140574523Y-86114062D01*
X140538959Y-86202717D01*
X140473282Y-86416786D01*
X140383122Y-86734323D01*
X140274107Y-87133378D01*
X140151867Y-87592003D01*
X140022033Y-88088250D01*
X139890232Y-88600172D01*
X139762095Y-89105819D01*
X139643252Y-89583244D01*
X139539331Y-90010498D01*
X139455963Y-90365633D01*
X139398776Y-90626701D01*
X139373400Y-90771754D01*
X128390258Y-90771754D01*
X128246280Y-90541413D01*
X127954442Y-90076161D01*
X127696134Y-89666006D01*
X127482309Y-89328278D01*
X127323916Y-89080305D01*
X127231906Y-88939418D01*
X127217052Y-88918131D01*
X127181797Y-88891652D01*
X127132821Y-88903902D01*
X127061443Y-88966939D01*
X126958986Y-89092823D01*
X126816768Y-89293613D01*
X126626113Y-89581371D01*
X126378339Y-89968155D01*
X126064769Y-90466025D01*
X125810871Y-90872034D01*
X125487904Y-91387790D01*
X125186563Y-91866004D01*
X124917642Y-92289783D01*
X124691932Y-92642231D01*
X124520225Y-92906455D01*
X124413314Y-93065559D01*
X124386932Y-93101117D01*
X124341424Y-93140383D01*
X124267821Y-93173012D01*
X124149870Y-93200438D01*
X123971318Y-93224092D01*
X123715912Y-93245405D01*
X123367401Y-93265810D01*
X122909532Y-93286739D01*
X122326052Y-93309624D01*
X121804546Y-93328634D01*
X121205187Y-93350761D01*
X120657027Y-93372299D01*
X120178505Y-93392421D01*
X119788059Y-93410300D01*
X119504125Y-93425109D01*
X119345144Y-93436022D01*
X119317517Y-93440166D01*
X119346531Y-93511139D01*
X119439923Y-93701863D01*
X119589454Y-93996353D01*
X119786886Y-94378623D01*
X120023979Y-94832689D01*
X120292496Y-95342566D01*
X120491304Y-95717655D01*
X120778037Y-96259417D01*
X121040155Y-96758837D01*
X121269192Y-97199451D01*
X121456677Y-97564798D01*
X121594141Y-97838414D01*
X121673116Y-98003838D01*
X121689091Y-98045983D01*
X121654261Y-98129511D01*
X121555407Y-98332360D01*
X121400985Y-98638042D01*
X121199453Y-99030070D01*
X120959266Y-99491956D01*
X120688879Y-100007212D01*
X120496061Y-100372148D01*
X120210656Y-100911898D01*
X119949728Y-101407333D01*
X119721693Y-101842315D01*
X119534971Y-102200707D01*
X119397979Y-102466368D01*
X119319135Y-102623162D01*
X119303030Y-102659333D01*
X106047750Y-102659333D01*
X106088966Y-102474395D01*
X106091180Y-102405636D01*
X106005108Y-102363996D01*
X105792521Y-102276621D01*
X105471532Y-102150503D01*
X105060255Y-101992634D01*
X104576802Y-101810004D01*
X104039288Y-101609605D01*
X103793636Y-101518824D01*
X103109493Y-101266664D01*
X102327092Y-100978283D01*
X101492615Y-100670702D01*
X100652244Y-100360944D01*
X99852158Y-100066029D01*
X99175455Y-99816589D01*
X98547839Y-99585380D01*
X97918679Y-99353857D01*
X97315140Y-99131998D01*
X96764390Y-98929784D01*
X96293596Y-98757191D01*
X95929926Y-98624200D01*
X95827273Y-98586779D01*
X95461432Y-98449381D01*
X95143842Y-98322245D01*
X94905015Y-98218148D01*
X94775466Y-98149870D01*
X94766111Y-98142374D01*
X94704280Y-98059291D01*
X94708075Y-97976531D01*
X94790622Y-97886428D01*
X94965048Y-97781320D01*
X95014269Y-97758812D01*
X107999303Y-97758812D01*
X108060442Y-97795775D01*
X108242594Y-97893039D01*
X108529036Y-98042161D01*
X108903045Y-98234697D01*
X109347898Y-98462204D01*
X109846870Y-98716240D01*
X110383237Y-98988360D01*
X110940277Y-99270122D01*
X111501266Y-99553082D01*
X112049480Y-99828797D01*
X112568196Y-100088824D01*
X113040689Y-100324720D01*
X113450237Y-100528042D01*
X113780116Y-100690346D01*
X114013603Y-100803189D01*
X114133973Y-100858128D01*
X114146061Y-100862114D01*
X114208988Y-100811082D01*
X114368107Y-100665963D01*
X114609330Y-100440068D01*
X114918564Y-100146713D01*
X115281720Y-99799209D01*
X115684708Y-99410871D01*
X115796869Y-99302340D01*
X117409193Y-97740858D01*
X116335657Y-96705158D01*
X115955343Y-96338695D01*
X115569690Y-95967874D01*
X115209072Y-95621847D01*
X114903865Y-95329765D01*
X114716306Y-95151015D01*
X114170490Y-94632571D01*
X111098730Y-96184501D01*
X110462637Y-96506053D01*
X109869831Y-96806075D01*
X109334238Y-97077492D01*
X108869784Y-97313231D01*
X108490394Y-97506220D01*
X108209994Y-97649384D01*
X108042509Y-97735651D01*
X107999303Y-97758812D01*
X95014269Y-97758812D01*
X95244479Y-97653542D01*
X95642040Y-97495431D01*
X96170857Y-97299323D01*
X96274227Y-97261845D01*
X96640189Y-97129546D01*
X97131082Y-96952190D01*
X97727031Y-96736952D01*
X98408161Y-96491007D01*
X99154596Y-96221532D01*
X99946460Y-95935702D01*
X100763878Y-95640693D01*
X101586975Y-95343680D01*
X101933337Y-95218711D01*
X102694439Y-94943706D01*
X103411620Y-94683783D01*
X104071903Y-94443699D01*
X104662311Y-94228210D01*
X105169870Y-94042072D01*
X105581602Y-93890040D01*
X105884532Y-93776871D01*
X106065683Y-93707320D01*
X106114088Y-93686417D01*
X106101332Y-93606215D01*
X106046255Y-93399305D01*
X105954680Y-93085196D01*
X105832431Y-92683398D01*
X105685331Y-92213421D01*
X105524850Y-91712224D01*
X104898199Y-89775445D01*
X104692281Y-89817374D01*
X104546899Y-89841114D01*
X104280191Y-89879243D01*
X103923630Y-89927463D01*
X103508692Y-89981477D01*
X103254849Y-90013620D01*
X102892144Y-90059263D01*
X102402995Y-90121108D01*
X101813652Y-90195821D01*
X101150365Y-90280067D01*
X100439383Y-90370513D01*
X99706957Y-90463824D01*
X98987035Y-90555684D01*
X98225376Y-90652647D01*
X97601812Y-90730897D01*
X97101785Y-90791592D01*
X96710737Y-90835887D01*
X96414111Y-90864936D01*
X96197349Y-90879896D01*
X96045893Y-90881923D01*
X95945187Y-90872171D01*
X95880671Y-90851796D01*
X95837790Y-90821955D01*
X95822720Y-90806866D01*
X95768337Y-90723728D01*
X95641949Y-90515638D01*
X95448461Y-90190992D01*
X95192779Y-89758186D01*
X94879809Y-89225617D01*
X94514457Y-88601682D01*
X94101629Y-87894777D01*
X93863258Y-87485724D01*
X109111553Y-87485724D01*
X109117676Y-87567600D01*
X109158052Y-87776081D01*
X109227119Y-88089070D01*
X109319313Y-88484469D01*
X109429073Y-88940183D01*
X109550835Y-89434113D01*
X109679037Y-89944165D01*
X109808116Y-90448240D01*
X109932508Y-90924242D01*
X110046653Y-91350074D01*
X110144986Y-91703640D01*
X110221944Y-91962843D01*
X110271967Y-92105586D01*
X110277356Y-92116616D01*
X110368224Y-92150683D01*
X110438750Y-92140278D01*
X110544302Y-92111471D01*
X110778348Y-92048697D01*
X111120564Y-91957368D01*
X111550627Y-91842901D01*
X112048215Y-91710709D01*
X112593005Y-91566208D01*
X112664394Y-91547289D01*
X113206348Y-91400840D01*
X113696404Y-91262966D01*
X114115727Y-91139405D01*
X114445483Y-91035897D01*
X114666836Y-90958181D01*
X114760952Y-90911995D01*
X114762945Y-90907869D01*
X114744182Y-90808893D01*
X114691066Y-90585703D01*
X114609548Y-90260622D01*
X114505578Y-89855977D01*
X114385106Y-89394090D01*
X114254083Y-88897288D01*
X114118460Y-88387894D01*
X113984185Y-87888232D01*
X113857211Y-87420628D01*
X113743487Y-87007405D01*
X113648963Y-86670889D01*
X113579590Y-86433404D01*
X113541318Y-86317273D01*
X113537415Y-86309932D01*
X113448950Y-86308552D01*
X113245954Y-86344298D01*
X112961479Y-86410517D01*
X112722121Y-86474062D01*
X112384416Y-86567039D01*
X111941642Y-86687484D01*
X111437569Y-86823570D01*
X110915967Y-86963466D01*
X110566970Y-87056498D01*
X110125172Y-87176109D01*
X109733974Y-87286162D01*
X109418093Y-87379369D01*
X109202249Y-87448439D01*
X109111553Y-87485724D01*
X93863258Y-87485724D01*
X93646230Y-87113299D01*
X93153167Y-86265644D01*
X92627344Y-85360209D01*
X92073668Y-84405390D01*
X91497046Y-83409585D01*
X91133419Y-82780909D01*
X90545282Y-81764212D01*
X89977254Y-80783387D01*
X89434225Y-79846823D01*
X89142673Y-79344603D01*
X94927619Y-79344603D01*
X94959159Y-79414830D01*
X95061148Y-79603345D01*
X95225504Y-79896031D01*
X95444146Y-80278777D01*
X95708989Y-80737466D01*
X96011953Y-81257984D01*
X96344955Y-81826218D01*
X96481631Y-82058407D01*
X98064218Y-84743636D01*
X100428624Y-84782121D01*
X101052901Y-84792700D01*
X101658982Y-84803744D01*
X102220985Y-84814726D01*
X102713033Y-84825114D01*
X103109246Y-84834380D01*
X103383745Y-84841993D01*
X103429403Y-84843542D01*
X103731505Y-84849290D01*
X103974548Y-84844378D01*
X104117420Y-84829953D01*
X104134694Y-84823885D01*
X104113575Y-84749986D01*
X104021822Y-84559934D01*
X103868104Y-84269522D01*
X103661087Y-83894538D01*
X103409439Y-83450773D01*
X103121828Y-82954017D01*
X102918000Y-82607312D01*
X102592485Y-82056573D01*
X102278597Y-81524962D01*
X101988520Y-81033155D01*
X101734439Y-80601829D01*
X101528538Y-80251658D01*
X101383000Y-80003320D01*
X101338029Y-79926135D01*
X101043673Y-79418936D01*
X97999934Y-79367482D01*
X97331102Y-79356885D01*
X96711683Y-79348439D01*
X96158267Y-79342268D01*
X95687441Y-79338495D01*
X95315794Y-79337243D01*
X95059912Y-79338637D01*
X94936386Y-79342799D01*
X94927619Y-79344603D01*
X89142673Y-79344603D01*
X88921090Y-78962912D01*
X88442740Y-78140043D01*
X88004068Y-77386607D01*
X87609966Y-76710995D01*
X87265326Y-76121597D01*
X86975042Y-75626804D01*
X86744005Y-75235005D01*
X86577108Y-74954592D01*
X86479244Y-74793955D01*
X86455444Y-74758262D01*
X86380878Y-74631894D01*
X86428227Y-74517373D01*
X86435772Y-74508110D01*
X86463297Y-74490498D01*
X86520345Y-74474719D01*
X86614837Y-74460675D01*
X86754691Y-74448267D01*
X86947830Y-74437398D01*
X87202173Y-74427969D01*
X87525641Y-74419882D01*
X87926155Y-74413039D01*
X88411634Y-74407341D01*
X88989999Y-74402691D01*
X89669171Y-74398991D01*
X90457071Y-74396141D01*
X91361618Y-74394045D01*
X92390733Y-74392603D01*
X93552337Y-74391718D01*
X94854350Y-74391291D01*
X95865758Y-74391212D01*
X97315121Y-74391512D01*
X98617396Y-74392458D01*
X99779430Y-74394122D01*
X100808074Y-74396571D01*
X101710176Y-74399878D01*
X102492586Y-74404111D01*
X103162153Y-74409341D01*
X103725725Y-74415637D01*
X104190153Y-74423070D01*
X104562284Y-74431710D01*
X104848970Y-74441626D01*
X105057058Y-74452889D01*
X105193398Y-74465569D01*
X105264838Y-74479736D01*
X105278383Y-74487424D01*
X105336709Y-74592169D01*
X105438888Y-74809289D01*
X105571176Y-75108403D01*
X105719828Y-75459130D01*
X105739779Y-75507272D01*
X105953346Y-76022866D01*
X106192966Y-76599376D01*
X106452264Y-77221627D01*
X106724862Y-77874446D01*
X107004385Y-78542656D01*
X107284457Y-79211082D01*
X107558702Y-79864550D01*
X107820744Y-80487884D01*
X108064208Y-81065910D01*
X108282717Y-81583452D01*
X108469895Y-82025335D01*
X108619367Y-82376385D01*
X108724756Y-82621426D01*
X108779687Y-82745283D01*
X108785989Y-82757403D01*
X108867441Y-82752205D01*
X109073889Y-82718738D01*
X109379954Y-82661678D01*
X109760259Y-82585699D01*
X110076417Y-82519649D01*
X110556644Y-82417656D01*
X111039930Y-82315196D01*
X111482152Y-82221611D01*
X111839185Y-82146244D01*
X111967718Y-82119204D01*
X112270013Y-82051418D01*
X112518361Y-81987812D01*
X112670598Y-81939440D01*
X112691376Y-81929459D01*
X112722746Y-81867413D01*
X112726496Y-81724117D01*
X112714164Y-81607121D01*
X117455457Y-81607121D01*
X117459799Y-81708132D01*
X117472360Y-81940481D01*
X117491989Y-82285220D01*
X117517534Y-82723399D01*
X117547844Y-83236070D01*
X117581768Y-83804285D01*
X117618153Y-84409095D01*
X117655850Y-85031552D01*
X117693707Y-85652707D01*
X117730571Y-86253611D01*
X117765293Y-86815316D01*
X117796720Y-87318874D01*
X117823702Y-87745335D01*
X117845086Y-88075752D01*
X117859723Y-88291175D01*
X117866459Y-88372657D01*
X117866550Y-88372864D01*
X117942549Y-88398606D01*
X118143704Y-88460513D01*
X118447312Y-88551921D01*
X118830670Y-88666165D01*
X119271072Y-88796580D01*
X119745816Y-88936501D01*
X120232197Y-89079262D01*
X120707512Y-89218200D01*
X121149055Y-89346649D01*
X121534124Y-89457944D01*
X121840014Y-89545420D01*
X122044022Y-89602412D01*
X122122449Y-89622219D01*
X122165191Y-89552069D01*
X122237797Y-89344982D01*
X122336467Y-89014234D01*
X122457404Y-88573103D01*
X122596807Y-88034866D01*
X122729368Y-87501157D01*
X122891205Y-86824787D01*
X123019635Y-86259508D01*
X123112993Y-85813541D01*
X123169611Y-85495105D01*
X123187822Y-85312419D01*
X123181161Y-85273195D01*
X123103910Y-85210768D01*
X122914576Y-85076079D01*
X122804806Y-85000537D01*
X130907160Y-85000537D01*
X130912980Y-85082955D01*
X130949876Y-85291897D01*
X131012603Y-85604294D01*
X131095912Y-85997075D01*
X131194559Y-86447172D01*
X131303296Y-86931516D01*
X131416877Y-87427038D01*
X131530055Y-87910668D01*
X131637585Y-88359336D01*
X131734219Y-88749975D01*
X131814711Y-89059514D01*
X131873815Y-89264884D01*
X131883772Y-89294789D01*
X131969705Y-89308123D01*
X132199217Y-89269726D01*
X132571006Y-89179892D01*
X133083770Y-89038914D01*
X133324772Y-88969230D01*
X133831471Y-88821577D01*
X134347850Y-88671980D01*
X134832169Y-88532470D01*
X135242688Y-88415078D01*
X135482303Y-88347312D01*
X136229151Y-88137862D01*
X136270883Y-87749234D01*
X136291005Y-87523286D01*
X136316281Y-87179186D01*
X136345571Y-86738043D01*
X136377735Y-86220962D01*
X136411633Y-85649051D01*
X136446123Y-85043418D01*
X136472646Y-84560315D01*
X149949502Y-84560315D01*
X150017870Y-84576575D01*
X150227868Y-84590110D01*
X150567204Y-84600719D01*
X151023589Y-84608202D01*
X151584732Y-84612357D01*
X152238344Y-84612983D01*
X152972134Y-84609880D01*
X152980030Y-84609828D01*
X156036511Y-84589697D01*
X157602791Y-81934242D01*
X157944829Y-81353048D01*
X158261201Y-80812942D01*
X158543578Y-80328333D01*
X158783631Y-79913629D01*
X158973032Y-79583239D01*
X159103451Y-79351570D01*
X159166559Y-79233032D01*
X159171203Y-79221060D01*
X159098002Y-79200932D01*
X158888400Y-79185265D01*
X158559869Y-79174084D01*
X158129884Y-79167415D01*
X157615917Y-79165282D01*
X157035443Y-79167711D01*
X156405934Y-79174725D01*
X155744866Y-79186350D01*
X155069710Y-79202611D01*
X154663774Y-79214646D01*
X153054242Y-79265958D01*
X151514849Y-81878314D01*
X151175107Y-82455487D01*
X150860045Y-82991944D01*
X150578209Y-83473046D01*
X150338142Y-83884152D01*
X150148388Y-84210625D01*
X150017492Y-84437823D01*
X149953999Y-84551108D01*
X149949502Y-84560315D01*
X136472646Y-84560315D01*
X136480066Y-84425170D01*
X136512322Y-83815413D01*
X136541749Y-83235255D01*
X136567207Y-82705803D01*
X136587556Y-82248164D01*
X136601655Y-81883446D01*
X136608365Y-81632755D01*
X136607267Y-81523416D01*
X136582727Y-81244707D01*
X133775806Y-83091760D01*
X133185984Y-83480353D01*
X132635486Y-83843943D01*
X132137741Y-84173595D01*
X131706178Y-84460374D01*
X131354225Y-84695343D01*
X131095311Y-84869567D01*
X130942866Y-84974112D01*
X130907160Y-85000537D01*
X122804806Y-85000537D01*
X122629285Y-84879747D01*
X122264162Y-84632392D01*
X121835333Y-84344634D01*
X121358923Y-84027093D01*
X120851059Y-83690389D01*
X120327866Y-83345142D01*
X119805469Y-83001973D01*
X119299994Y-82671501D01*
X118827567Y-82364346D01*
X118404314Y-82091128D01*
X118046359Y-81862467D01*
X117769829Y-81688983D01*
X117590849Y-81581297D01*
X117526869Y-81549394D01*
X117456666Y-81596760D01*
X117455457Y-81607121D01*
X112714164Y-81607121D01*
X112700884Y-81481141D01*
X112644166Y-81120056D01*
X112581501Y-80767930D01*
X112505960Y-80355036D01*
X123767273Y-80355036D01*
X123819268Y-80423828D01*
X123964290Y-80584136D01*
X124185893Y-80819311D01*
X124467633Y-81112706D01*
X124793066Y-81447673D01*
X125145745Y-81807564D01*
X125509226Y-82175731D01*
X125867064Y-82535527D01*
X126202814Y-82870305D01*
X126500032Y-83163416D01*
X126742271Y-83398212D01*
X126913088Y-83558047D01*
X126996037Y-83626271D01*
X126999954Y-83627576D01*
X127062088Y-83575163D01*
X127219412Y-83426622D01*
X127458587Y-83194997D01*
X127766277Y-82893334D01*
X128129141Y-82534677D01*
X128533842Y-82132071D01*
X128751724Y-81914350D01*
X130463680Y-80201125D01*
X128808802Y-78547590D01*
X127153924Y-76894054D01*
X125460598Y-78586068D01*
X125042669Y-79006061D01*
X124662231Y-79392966D01*
X124332455Y-79733026D01*
X124066511Y-80012482D01*
X123877569Y-80217574D01*
X123778800Y-80334544D01*
X123767273Y-80355036D01*
X112505960Y-80355036D01*
X112491166Y-80274178D01*
X112384467Y-79689166D01*
X112264150Y-79028076D01*
X112132958Y-78306091D01*
X111993638Y-77538392D01*
X111848932Y-76740162D01*
X111701587Y-75926582D01*
X111554346Y-75112836D01*
X111409953Y-74314104D01*
X111271155Y-73545569D01*
X111140694Y-72822413D01*
X111021316Y-72159819D01*
X110915766Y-71572968D01*
X110826787Y-71077042D01*
X110757125Y-70687223D01*
X110709524Y-70418694D01*
X110686852Y-70287397D01*
X110660622Y-70029747D01*
X110689627Y-69872626D01*
X110737083Y-69806336D01*
X110850782Y-69715897D01*
X110899589Y-69697183D01*
X110965607Y-69745537D01*
X111140338Y-69885126D01*
X111414521Y-70108295D01*
X111778895Y-70407388D01*
X112224199Y-70774752D01*
X112741171Y-71202729D01*
X113320551Y-71683666D01*
X113953076Y-72209906D01*
X114629487Y-72773795D01*
X115340520Y-73367677D01*
X115377576Y-73398657D01*
X116097297Y-74000276D01*
X116787962Y-74577345D01*
X117439670Y-75121607D01*
X118042521Y-75624807D01*
X118586614Y-76078687D01*
X119062048Y-76474991D01*
X119458922Y-76805464D01*
X119767335Y-77061848D01*
X119977387Y-77235888D01*
X120078747Y-77318984D01*
X120354160Y-77538959D01*
X121695110Y-76034483D01*
X122053661Y-75628610D01*
X122374457Y-75258559D01*
X122644216Y-74940217D01*
X122849658Y-74689472D01*
X122977502Y-74522210D01*
X123015104Y-74455467D01*
X122964753Y-74378155D01*
X122831898Y-74194093D01*
X122627930Y-73918519D01*
X122364240Y-73566669D01*
X122052221Y-73153781D01*
X121703263Y-72695092D01*
X121510265Y-72442585D01*
X120749669Y-71448261D01*
X120080159Y-70571290D01*
X119498501Y-69807366D01*
X119001459Y-69152182D01*
X118585801Y-68601431D01*
X118248292Y-68150806D01*
X117985699Y-67796000D01*
X117794788Y-67532708D01*
X117672324Y-67356621D01*
X117615073Y-67263433D01*
X117609697Y-67247987D01*
X117646969Y-67167781D01*
X117753338Y-66968968D01*
X117920635Y-66666087D01*
X118140693Y-66273676D01*
X118251902Y-66077266D01*
X124075152Y-66077266D01*
X124111568Y-66171508D01*
X124214228Y-66377246D01*
X124373242Y-66677197D01*
X124578723Y-67054078D01*
X124820785Y-67490607D01*
X125089541Y-67969500D01*
X125375102Y-68473475D01*
X125667582Y-68985250D01*
X125957093Y-69487540D01*
X126233748Y-69963063D01*
X126487661Y-70394537D01*
X126708942Y-70764678D01*
X126887706Y-71056204D01*
X127014066Y-71251832D01*
X127078132Y-71334279D01*
X127083178Y-71335268D01*
X127132959Y-71256771D01*
X127249762Y-71058785D01*
X127425161Y-70756000D01*
X127650728Y-70363111D01*
X127918036Y-69894808D01*
X128218660Y-69365785D01*
X128544173Y-68790734D01*
X128646820Y-68608958D01*
X130150871Y-65943977D01*
X128641896Y-63276487D01*
X128311752Y-62694150D01*
X128005680Y-62156732D01*
X127731807Y-61678316D01*
X127498258Y-61272986D01*
X127313159Y-60954826D01*
X127184634Y-60737918D01*
X127120811Y-60636347D01*
X127115314Y-60630559D01*
X127057957Y-60721351D01*
X126937581Y-60926728D01*
X126763943Y-61229211D01*
X126546798Y-61611322D01*
X126295904Y-62055583D01*
X126021016Y-62544514D01*
X125731889Y-63060638D01*
X125438281Y-63586474D01*
X125149946Y-64104546D01*
X124876640Y-64597374D01*
X124628121Y-65047479D01*
X124414143Y-65437383D01*
X124244463Y-65749607D01*
X124128836Y-65966673D01*
X124077020Y-66071102D01*
X124075152Y-66077266D01*
X118251902Y-66077266D01*
X118405342Y-65806271D01*
X118706413Y-65278410D01*
X119035739Y-64704632D01*
X119158545Y-64491529D01*
X119571967Y-63774616D01*
X120040301Y-62962033D01*
X120541772Y-62091590D01*
X121054603Y-61201096D01*
X121557020Y-60328361D01*
X122027248Y-59511193D01*
X122344971Y-58958788D01*
X122759741Y-58237588D01*
X123208130Y-57458139D01*
X123671431Y-56652948D01*
X124130936Y-55854520D01*
X124567937Y-55095362D01*
X124963728Y-54407979D01*
X125268541Y-53878788D01*
X125587276Y-53325409D01*
X125891507Y-52796941D01*
X126170065Y-52312805D01*
X126411781Y-51892423D01*
X126605485Y-51555218D01*
X126740008Y-51320611D01*
X126786766Y-51238761D01*
X126955576Y-50982540D01*
X127091146Y-50861944D01*
X127141441Y-50854436D01*
X127172402Y-50880536D01*
X127172402Y-50880536D01*
G37*
X127172402Y-50880536D02*
X127229794Y-50955063D01*
X127316648Y-51083195D01*
X127435994Y-51270109D01*
X127590860Y-51520984D01*
X127784277Y-51840995D01*
X128019273Y-52235322D01*
X128298880Y-52709140D01*
X128626125Y-53267629D01*
X129004040Y-53915964D01*
X129435652Y-54659324D01*
X129923993Y-55502886D01*
X130472092Y-56451828D01*
X131082977Y-57511326D01*
X131759680Y-58686560D01*
X132505229Y-59982705D01*
X133322654Y-61404939D01*
X133730310Y-62114545D01*
X134084465Y-62730757D01*
X134451640Y-63369006D01*
X134815230Y-64000469D01*
X135158627Y-64596321D01*
X135465224Y-65127740D01*
X135718416Y-65565902D01*
X135800456Y-65707626D01*
X136032077Y-66113066D01*
X136234274Y-66477698D01*
X136395023Y-66778951D01*
X136502300Y-66994258D01*
X136544080Y-67101049D01*
X136544242Y-67103677D01*
X136498708Y-67183826D01*
X136367630Y-67374812D01*
X136159294Y-67665436D01*
X135881990Y-68044497D01*
X135544004Y-68500796D01*
X135153623Y-69023134D01*
X134719135Y-69600310D01*
X134248828Y-70221125D01*
X133849247Y-70745748D01*
X133356788Y-71392776D01*
X132894063Y-72004587D01*
X132469279Y-72570071D01*
X132090642Y-73078117D01*
X131766360Y-73517614D01*
X131504640Y-73877452D01*
X131313688Y-74146518D01*
X131201713Y-74313702D01*
X131174550Y-74366852D01*
X131229940Y-74448319D01*
X131373859Y-74626084D01*
X131591281Y-74882547D01*
X131867180Y-75200104D01*
X132186530Y-75561154D01*
X132349394Y-75743128D01*
X132693793Y-76127198D01*
X133011858Y-76483215D01*
X133286217Y-76791631D01*
X133499497Y-77032896D01*
X133634327Y-77187462D01*
X133663159Y-77221552D01*
X133822379Y-77414795D01*
X138428262Y-73583510D01*
X139158180Y-72977264D01*
X139855690Y-72399714D01*
X140511503Y-71858445D01*
X141116326Y-71361042D01*
X141660871Y-70915090D01*
X142135846Y-70528174D01*
X142531961Y-70207880D01*
X142839924Y-69961791D01*
X143050447Y-69797494D01*
X143154237Y-69722573D01*
X143161995Y-69718792D01*
X143322726Y-69733449D01*
X143406860Y-69873591D01*
X143409661Y-70128565D01*
X143391926Y-70236112D01*
X143362091Y-70393739D01*
X143308984Y-70682286D01*
X143236343Y-71081118D01*
X143147907Y-71569604D01*
X143047414Y-72127112D01*
X142938602Y-72733009D01*
X142862202Y-73159697D01*
X142728356Y-73908097D01*
X142581381Y-74729877D01*
X142429157Y-75580969D01*
X142279567Y-76417305D01*
X142140492Y-77194817D01*
X142019816Y-77869437D01*
X142008657Y-77931818D01*
X141899081Y-78542704D01*
X141789986Y-79147897D01*
X141686679Y-79718179D01*
X141594467Y-80224335D01*
X141518655Y-80637149D01*
X141464859Y-80925779D01*
X141404739Y-81255816D01*
X141360245Y-81524038D01*
X141336445Y-81698239D01*
X141335419Y-81748045D01*
X141414362Y-81771028D01*
X141617028Y-81819627D01*
X141916518Y-81887663D01*
X142285934Y-81968958D01*
X142472165Y-82009152D01*
X142946261Y-82110856D01*
X143441867Y-82217159D01*
X143904080Y-82316288D01*
X144277994Y-82396466D01*
X144318182Y-82405082D01*
X144648900Y-82476883D01*
X144933084Y-82540222D01*
X145129838Y-82585907D01*
X145185645Y-82600087D01*
X145295645Y-82584269D01*
X145394562Y-82451461D01*
X145443175Y-82344013D01*
X145548782Y-82088970D01*
X145699994Y-81725554D01*
X145889780Y-81270531D01*
X146111113Y-80740667D01*
X146356965Y-80152730D01*
X146620307Y-79523485D01*
X146894110Y-78869699D01*
X147171347Y-78208140D01*
X147444988Y-77555573D01*
X147708007Y-76928765D01*
X147953373Y-76344482D01*
X148174060Y-75819492D01*
X148363038Y-75370560D01*
X148513279Y-75014454D01*
X148617755Y-74767940D01*
X148667816Y-74651435D01*
X148842014Y-74257416D01*
X158144795Y-74220353D01*
X159407600Y-74215883D01*
X160611160Y-74212731D01*
X161747172Y-74210871D01*
X162807337Y-74210274D01*
X163783353Y-74210914D01*
X164666918Y-74212763D01*
X165449733Y-74215793D01*
X166123496Y-74219977D01*
X166679907Y-74225289D01*
X167110663Y-74231699D01*
X167407464Y-74239182D01*
X167562010Y-74247709D01*
X167582273Y-74251474D01*
X167682186Y-74359024D01*
X167716881Y-74504572D01*
X167674752Y-74617843D01*
X167645606Y-74634949D01*
X167594186Y-74704700D01*
X167473620Y-74895162D01*
X167291496Y-75193597D01*
X167055399Y-75587262D01*
X166772918Y-76063418D01*
X166451639Y-76609324D01*
X166099148Y-77212239D01*
X165723031Y-77859424D01*
X165636534Y-78008788D01*
X165184920Y-78789105D01*
X164674948Y-79670200D01*
X164125399Y-80619633D01*
X163555049Y-81604962D01*
X162982677Y-82593747D01*
X162427062Y-83553546D01*
X161906983Y-84451918D01*
X161582132Y-85013030D01*
X161162572Y-85737740D01*
X160748221Y-86453497D01*
X160348882Y-87143366D01*
X159974357Y-87790409D01*
X159634449Y-88377692D01*
X159338961Y-88888279D01*
X159097694Y-89305232D01*
X158920451Y-89611617D01*
X158876810Y-89687081D01*
X158666795Y-90042864D01*
X158477859Y-90349154D01*
X158325521Y-90581834D01*
X158225297Y-90716783D01*
X158199270Y-90740198D01*
X158082377Y-90747746D01*
X157861330Y-90733787D01*
X157583951Y-90701343D01*
X157583512Y-90701282D01*
X157018577Y-90623382D01*
X156386131Y-90538771D01*
X155702011Y-90449355D01*
X154982052Y-90357044D01*
X154242093Y-90263742D01*
X153497971Y-90171359D01*
X152765520Y-90081801D01*
X152060580Y-89996974D01*
X151398986Y-89918787D01*
X150796575Y-89849147D01*
X150269185Y-89789961D01*
X149832651Y-89743135D01*
X149502812Y-89710578D01*
X149295503Y-89694197D01*
X149226753Y-89694883D01*
X149190881Y-89777240D01*
X149116492Y-89980626D01*
X149011338Y-90281603D01*
X148883174Y-90656729D01*
X148739753Y-91082566D01*
X148588828Y-91535673D01*
X148438153Y-91992611D01*
X148295481Y-92429941D01*
X148168565Y-92824222D01*
X148065159Y-93152014D01*
X147993016Y-93389879D01*
X147959890Y-93514376D01*
X147959138Y-93527078D01*
X148032523Y-93556119D01*
X148230305Y-93630350D01*
X148532233Y-93742280D01*
X148918058Y-93884420D01*
X149367533Y-94049279D01*
X149667576Y-94158991D01*
X150115239Y-94322732D01*
X150681150Y-94530103D01*
X151339120Y-94771488D01*
X152062960Y-95037268D01*
X152826482Y-95317826D01*
X153603497Y-95603545D01*
X154367815Y-95884808D01*
X154632121Y-95982127D01*
X155335115Y-96240952D01*
X156017651Y-96492128D01*
X156661041Y-96728787D01*
X157246596Y-96944057D01*
X157755628Y-97131072D01*
X158169449Y-97282960D01*
X158469369Y-97392852D01*
X158592088Y-97437672D01*
X158992926Y-97596899D01*
X159252246Y-97733985D01*
X159379514Y-97856820D01*
X159384194Y-97973293D01*
X159325968Y-98049337D01*
X159236888Y-98092156D01*
X159014248Y-98182667D01*
X158669406Y-98316634D01*
X158213718Y-98489824D01*
X157658544Y-98698005D01*
X157015240Y-98936940D01*
X156295165Y-99202398D01*
X155509675Y-99490144D01*
X154670129Y-99795945D01*
X153787885Y-100115566D01*
X153631515Y-100172039D01*
X152745194Y-100492445D01*
X151901056Y-100798484D01*
X151110276Y-101086054D01*
X150384029Y-101351047D01*
X149733487Y-101589360D01*
X149169826Y-101796887D01*
X148704219Y-101969524D01*
X148347841Y-102103166D01*
X148111865Y-102193707D01*
X148007465Y-102237043D01*
X148003435Y-102239592D01*
X148016495Y-102319559D01*
X148070108Y-102522120D01*
X148156852Y-102823599D01*
X148269306Y-103200315D01*
X148400048Y-103628590D01*
X148541657Y-104084747D01*
X148686712Y-104545106D01*
X148827791Y-104985989D01*
X148957473Y-105383719D01*
X149068336Y-105714616D01*
X149152960Y-105955002D01*
X149203922Y-106081198D01*
X149211139Y-106092836D01*
X149290139Y-106088605D01*
X149507997Y-106066148D01*
X149850922Y-106027137D01*
X150305125Y-105973242D01*
X150856816Y-105906137D01*
X151492203Y-105827493D01*
X152197498Y-105738981D01*
X152958910Y-105642273D01*
X153496968Y-105573291D01*
X154296424Y-105470953D01*
X155055425Y-105374828D01*
X155759259Y-105286710D01*
X156393214Y-105208391D01*
X156942579Y-105141665D01*
X157392643Y-105088325D01*
X157728693Y-105050165D01*
X157936018Y-105028978D01*
X157993747Y-105025151D01*
X158186920Y-105054273D01*
X158308914Y-105121363D01*
X158360480Y-105203558D01*
X158482180Y-105407280D01*
X158667138Y-105720762D01*
X158908480Y-106132239D01*
X159199330Y-106629944D01*
X159532813Y-107202111D01*
X159902053Y-107836974D01*
X160300176Y-108522768D01*
X160720306Y-109247725D01*
X160748819Y-109296969D01*
X161632544Y-110823159D01*
X162463865Y-112258462D01*
X163240883Y-113599606D01*
X163961700Y-114843323D01*
X164624417Y-115986341D01*
X165227136Y-117025390D01*
X165767956Y-117957201D01*
X166244981Y-118778502D01*
X166656311Y-119486024D01*
X167000047Y-120076497D01*
X167274291Y-120546649D01*
X167477145Y-120893211D01*
X167606709Y-121112912D01*
X167660470Y-121201578D01*
X167703480Y-121343919D01*
X167642486Y-121455187D01*
X167618002Y-121473941D01*
X167572073Y-121490604D01*
X167496629Y-121505237D01*
X167383601Y-121517906D01*
X167224920Y-121528672D01*
X167012517Y-121537600D01*
X166738322Y-121544754D01*
X166394266Y-121550196D01*
X165972281Y-121553990D01*
X165464297Y-121556200D01*
X164862245Y-121556890D01*
X164158055Y-121556122D01*
X163343659Y-121553960D01*
X162410986Y-121550467D01*
X161351969Y-121545708D01*
X160158538Y-121539746D01*
X158822624Y-121532644D01*
X158218161Y-121529342D01*
X156705567Y-121520588D01*
X155342107Y-121511737D01*
X154122977Y-121502719D01*
X153043371Y-121493464D01*
X152098483Y-121483900D01*
X151283510Y-121473957D01*
X150593645Y-121463564D01*
X150024084Y-121452651D01*
X149570022Y-121441148D01*
X149226653Y-121428983D01*
X148989173Y-121416086D01*
X148852775Y-121402387D01*
X148813551Y-121391188D01*
X148769218Y-121305816D01*
X148671697Y-121091120D01*
X148526529Y-120760075D01*
X148339253Y-120325655D01*
X148115408Y-119800833D01*
X147860534Y-119198582D01*
X147580171Y-118531878D01*
X147279859Y-117813693D01*
X147043248Y-117245180D01*
X146672678Y-116355026D01*
X146355516Y-115598012D01*
X146087452Y-114964566D01*
X145864179Y-114445118D01*
X145681387Y-114030097D01*
X145534767Y-113709932D01*
X145420011Y-113475053D01*
X145332809Y-113315889D01*
X145268852Y-113222868D01*
X145223833Y-113186421D01*
X145215301Y-113185028D01*
X145114431Y-113199779D01*
X144890640Y-113241091D01*
X144568682Y-113303838D01*
X144173309Y-113382897D01*
X143729277Y-113473140D01*
X143261339Y-113569442D01*
X142794249Y-113666678D01*
X142352761Y-113759722D01*
X141961629Y-113843448D01*
X141645606Y-113912731D01*
X141429448Y-113962445D01*
X141337907Y-113987465D01*
X141336870Y-113988106D01*
X141347377Y-114064219D01*
X141383383Y-114280087D01*
X141442812Y-114624015D01*
X141523585Y-115084309D01*
X141623622Y-115649275D01*
X141740847Y-116307217D01*
X141873180Y-117046443D01*
X142018544Y-117855257D01*
X142174860Y-118721965D01*
X142340050Y-119634874D01*
X142357568Y-119731514D01*
X142525073Y-120658624D01*
X142684692Y-121548296D01*
X142834233Y-122387919D01*
X142971500Y-123164882D01*
X143094300Y-123866575D01*
X143200439Y-124480388D01*
X143287722Y-124993711D01*
X143353956Y-125393933D01*
X143396946Y-125668444D01*
X143414499Y-125804634D01*
X143414638Y-125806969D01*
X143416043Y-126025310D01*
X143379398Y-126133425D01*
X143289212Y-126173368D01*
X143279091Y-126174896D01*
X143200754Y-126140300D01*
X143030967Y-126025526D01*
X142766793Y-125828210D01*
X142405291Y-125545987D01*
X142010012Y-125229697D01*
X142778788Y-125229697D01*
X142817273Y-125268182D01*
X142855758Y-125229697D01*
X142817273Y-125191212D01*
X142778788Y-125229697D01*
X142010012Y-125229697D01*
X141943523Y-125176495D01*
X141378550Y-124717369D01*
X140707432Y-124166245D01*
X139927231Y-123520760D01*
X139035008Y-122778549D01*
X138470241Y-122307169D01*
X137739189Y-121696832D01*
X137042267Y-121115915D01*
X136388489Y-120571875D01*
X135786868Y-120072168D01*
X135246417Y-119624251D01*
X134776150Y-119235583D01*
X134385079Y-118913619D01*
X134082218Y-118665817D01*
X133876581Y-118499635D01*
X133777180Y-118422529D01*
X133769361Y-118417879D01*
X133695585Y-118473492D01*
X133540490Y-118627795D01*
X133320431Y-118861979D01*
X133051761Y-119157236D01*
X132750835Y-119494759D01*
X132434009Y-119855739D01*
X132117636Y-120221369D01*
X131818071Y-120572842D01*
X131551670Y-120891348D01*
X131334785Y-121158081D01*
X131183773Y-121354232D01*
X131114987Y-121460993D01*
X131112861Y-121472861D01*
X131165438Y-121551199D01*
X131302942Y-121740664D01*
X131516925Y-122029994D01*
X131798944Y-122407927D01*
X132140553Y-122863201D01*
X132533306Y-123384553D01*
X132968758Y-123960722D01*
X133438463Y-124580446D01*
X133809426Y-125068738D01*
X134298542Y-125713899D01*
X134758536Y-126324503D01*
X135181091Y-126889249D01*
X135557890Y-127396835D01*
X135880616Y-127835961D01*
X136140951Y-128195324D01*
X136330579Y-128463625D01*
X136441182Y-128629562D01*
X136467273Y-128680153D01*
X136443748Y-128739318D01*
X136371898Y-128880793D01*
X136249809Y-129107931D01*
X136075567Y-129424084D01*
X135847260Y-129832607D01*
X135562973Y-130336851D01*
X135220793Y-130940170D01*
X134818807Y-131645917D01*
X134355101Y-132457445D01*
X133827761Y-133378106D01*
X133234875Y-134411255D01*
X132574527Y-135560242D01*
X131844806Y-136828423D01*
X131043797Y-138219149D01*
X130169587Y-139735774D01*
X129220262Y-141381650D01*
X129069518Y-141642917D01*
X128718178Y-142252533D01*
X128385563Y-142831004D01*
X128080755Y-143362438D01*
X127812833Y-143830943D01*
X127590881Y-144220627D01*
X127423979Y-144515597D01*
X127321209Y-144699962D01*
X127299168Y-144740948D01*
X127162376Y-144955194D01*
X127031220Y-145040572D01*
X126890934Y-144992912D01*
X126726751Y-144808045D01*
X126551528Y-144529848D01*
X126444176Y-144344224D01*
X126266744Y-144036773D01*
X126025914Y-143619104D01*
X125728368Y-143102825D01*
X125380789Y-142499545D01*
X124989858Y-141820872D01*
X124562258Y-141078415D01*
X124104670Y-140283781D01*
X123623777Y-139448580D01*
X123126261Y-138584420D01*
X122618804Y-137702910D01*
X122108088Y-136815657D01*
X121600795Y-135934270D01*
X121103608Y-135070359D01*
X120623208Y-134235530D01*
X120166277Y-133441393D01*
X119739498Y-132699556D01*
X119349552Y-132021628D01*
X119003122Y-131419216D01*
X118706890Y-130903930D01*
X118467538Y-130487378D01*
X118291748Y-130181169D01*
X118213322Y-130044332D01*
X118197063Y-130015734D01*
X123977257Y-130015734D01*
X125464822Y-132646804D01*
X125856105Y-133336183D01*
X126179787Y-133899969D01*
X126441856Y-134347777D01*
X126648300Y-134689225D01*
X126805108Y-134933928D01*
X126918268Y-135091504D01*
X126993770Y-135171569D01*
X127037601Y-135183739D01*
X127042245Y-135179846D01*
X127098844Y-135092812D01*
X127221854Y-134886514D01*
X127402590Y-134576067D01*
X127632367Y-134176586D01*
X127902500Y-133703187D01*
X128204304Y-133170985D01*
X128529094Y-132595095D01*
X128607086Y-132456355D01*
X130082070Y-129830892D01*
X128598792Y-127203163D01*
X128270409Y-126624723D01*
X127964044Y-126091426D01*
X127688146Y-125617507D01*
X127451168Y-125217203D01*
X127261560Y-124904750D01*
X127127772Y-124694384D01*
X127058256Y-124600340D01*
X127051580Y-124596746D01*
X126996715Y-124667115D01*
X126878399Y-124852450D01*
X126708292Y-125133343D01*
X126498053Y-125490388D01*
X126259342Y-125904178D01*
X126138267Y-126116907D01*
X125860004Y-126607782D01*
X125577945Y-127105066D01*
X125311101Y-127575261D01*
X125078485Y-127984871D01*
X124899107Y-128300398D01*
X124872600Y-128346969D01*
X124669369Y-128708675D01*
X124465304Y-129079830D01*
X124290802Y-129404810D01*
X124216783Y-129546958D01*
X123977257Y-130015734D01*
X118197063Y-130015734D01*
X117994046Y-129658655D01*
X117804140Y-129319668D01*
X117655864Y-129049664D01*
X117561477Y-128870933D01*
X117532727Y-128806767D01*
X117577294Y-128733540D01*
X117701659Y-128557358D01*
X117891816Y-128297326D01*
X118133763Y-127972549D01*
X118413494Y-127602132D01*
X118475606Y-127520493D01*
X118748813Y-127161854D01*
X119096810Y-126705035D01*
X119501103Y-126174314D01*
X119943199Y-125593968D01*
X120404604Y-124988273D01*
X120866823Y-124381507D01*
X121213622Y-123926255D01*
X123008759Y-121569728D01*
X121790895Y-120216524D01*
X121439972Y-119825830D01*
X121118000Y-119465905D01*
X120841174Y-119154972D01*
X120625691Y-118911254D01*
X120487746Y-118752971D01*
X120449579Y-118707407D01*
X120328869Y-118600335D01*
X120244250Y-118580898D01*
X120173363Y-118633697D01*
X119993505Y-118777448D01*
X119713937Y-119004522D01*
X119343923Y-119307293D01*
X118892726Y-119678132D01*
X118369609Y-120109413D01*
X117783834Y-120593507D01*
X117144664Y-121122787D01*
X116461364Y-121689626D01*
X115743194Y-122286395D01*
X115634432Y-122376857D01*
X114909760Y-122978258D01*
X114216486Y-123550855D01*
X113564096Y-124086983D01*
X112962072Y-124578976D01*
X112419900Y-125019168D01*
X111947062Y-125399893D01*
X111553042Y-125713484D01*
X111247325Y-125952275D01*
X111039395Y-126108601D01*
X110938734Y-126174795D01*
X110933901Y-126176405D01*
X110768710Y-126154833D01*
X110712235Y-126081514D01*
X110707997Y-125962796D01*
X110729853Y-125723941D01*
X110773990Y-125395818D01*
X110794661Y-125268182D01*
X111298182Y-125268182D01*
X111326344Y-125331536D01*
X111349495Y-125319495D01*
X111358707Y-125228150D01*
X111349495Y-125216868D01*
X111303737Y-125227434D01*
X111298182Y-125268182D01*
X110794661Y-125268182D01*
X110836590Y-125009298D01*
X110863158Y-124860451D01*
X110946242Y-124404689D01*
X111052225Y-123820752D01*
X111176903Y-123131998D01*
X111316070Y-122361785D01*
X111465519Y-121533473D01*
X111621047Y-120670421D01*
X111778446Y-119795986D01*
X111933512Y-118933528D01*
X112082039Y-118106406D01*
X112219822Y-117337977D01*
X112342654Y-116651602D01*
X112446331Y-116070638D01*
X112498101Y-115779515D01*
X112507792Y-115723893D01*
X123653147Y-115723893D01*
X125268159Y-117340280D01*
X125678371Y-117748295D01*
X126055448Y-118118493D01*
X126385261Y-118437386D01*
X126653680Y-118691485D01*
X126846576Y-118867303D01*
X126949818Y-118951353D01*
X126961484Y-118956666D01*
X127033303Y-118904134D01*
X127199598Y-118755319D01*
X127446597Y-118523391D01*
X127760532Y-118221522D01*
X128127631Y-117862883D01*
X128534125Y-117460646D01*
X128732036Y-117263116D01*
X130424274Y-115569565D01*
X128769433Y-113914723D01*
X127114592Y-112259882D01*
X125383869Y-113991888D01*
X123653147Y-115723893D01*
X112507792Y-115723893D01*
X112580962Y-115303931D01*
X112651464Y-114882272D01*
X112700105Y-114574866D01*
X117462745Y-114574866D01*
X117480653Y-114682590D01*
X117520700Y-114711268D01*
X117545844Y-114705233D01*
X117633360Y-114654468D01*
X117834268Y-114528452D01*
X118133577Y-114336879D01*
X118516295Y-114089443D01*
X118967433Y-113795837D01*
X119472000Y-113465754D01*
X120015004Y-113108888D01*
X120038177Y-113093623D01*
X120598133Y-112724878D01*
X121133559Y-112372567D01*
X121626946Y-112048188D01*
X122060788Y-111763243D01*
X122417575Y-111529229D01*
X122679802Y-111357647D01*
X122824394Y-111263583D01*
X123036395Y-111109773D01*
X123182717Y-110971066D01*
X123228485Y-110889113D01*
X123210587Y-110770606D01*
X123177851Y-110614806D01*
X131118538Y-110614806D01*
X131174034Y-110676332D01*
X131343872Y-110810810D01*
X131613092Y-111007656D01*
X131966733Y-111256287D01*
X132389835Y-111546122D01*
X132867435Y-111866578D01*
X133183029Y-112075126D01*
X133733044Y-112436851D01*
X134280000Y-112797200D01*
X134800389Y-113140638D01*
X135270706Y-113451635D01*
X135667446Y-113714656D01*
X135967101Y-113914170D01*
X136043939Y-113965614D01*
X136347783Y-114166384D01*
X136606687Y-114331625D01*
X136793288Y-114444270D01*
X136880222Y-114487255D01*
X136880330Y-114487264D01*
X136908139Y-114420503D01*
X136915000Y-114241160D01*
X136901301Y-114011363D01*
X136886575Y-113825112D01*
X136864692Y-113505691D01*
X136836920Y-113073636D01*
X136804526Y-112549487D01*
X136768780Y-111953780D01*
X136730951Y-111307054D01*
X136721823Y-111147098D01*
X149936970Y-111147098D01*
X149974484Y-111222347D01*
X150079670Y-111410725D01*
X150241494Y-111693062D01*
X150448922Y-112050191D01*
X150690918Y-112462942D01*
X150834172Y-112705734D01*
X151148134Y-113237226D01*
X151487895Y-113813312D01*
X151827783Y-114390398D01*
X152142123Y-114924891D01*
X152405241Y-115373198D01*
X152419081Y-115396818D01*
X153106788Y-116570606D01*
X156146475Y-116570606D01*
X156952138Y-116568774D01*
X157644057Y-116563396D01*
X158215132Y-116554645D01*
X158658262Y-116542696D01*
X158966347Y-116527722D01*
X159132287Y-116509898D01*
X159160505Y-116496697D01*
X159116979Y-116416081D01*
X159003746Y-116217579D01*
X158829352Y-115915873D01*
X158602344Y-115525642D01*
X158331267Y-115061569D01*
X158024667Y-114538334D01*
X157691089Y-113970618D01*
X157598263Y-113812898D01*
X156061678Y-111203009D01*
X155443112Y-111154844D01*
X155215401Y-111142733D01*
X154879051Y-111132339D01*
X154454886Y-111123691D01*
X153963730Y-111116820D01*
X153426407Y-111111754D01*
X152863742Y-111108523D01*
X152296558Y-111107156D01*
X151745679Y-111107682D01*
X151231929Y-111110130D01*
X150776133Y-111114531D01*
X150399114Y-111120912D01*
X150121696Y-111129305D01*
X149964704Y-111139736D01*
X149936970Y-111147098D01*
X136721823Y-111147098D01*
X136692305Y-110629846D01*
X136690932Y-110605454D01*
X136652841Y-109949554D01*
X136615333Y-109342404D01*
X136579631Y-108801063D01*
X136546959Y-108342589D01*
X136518541Y-107984040D01*
X136495602Y-107742474D01*
X136479364Y-107634949D01*
X136477537Y-107631389D01*
X136386421Y-107589919D01*
X136182513Y-107519558D01*
X135901460Y-107432208D01*
X135736061Y-107383850D01*
X135283700Y-107254049D01*
X134794142Y-107113071D01*
X134290429Y-106967607D01*
X133795601Y-106824344D01*
X133332699Y-106689971D01*
X132924766Y-106571178D01*
X132594841Y-106474653D01*
X132365966Y-106407084D01*
X132261183Y-106375161D01*
X132260049Y-106374773D01*
X132211884Y-106438472D01*
X132133710Y-106651357D01*
X132026022Y-107011729D01*
X131889316Y-107517888D01*
X131724090Y-108168134D01*
X131657981Y-108436111D01*
X131523678Y-108983406D01*
X131400612Y-109483413D01*
X131293729Y-109916154D01*
X131207976Y-110261653D01*
X131148299Y-110499931D01*
X131119645Y-110611012D01*
X131118538Y-110614806D01*
X123177851Y-110614806D01*
X123160744Y-110533392D01*
X123084732Y-110200404D01*
X122988329Y-109794573D01*
X122877312Y-109338833D01*
X122757456Y-108856115D01*
X122634540Y-108369353D01*
X122514339Y-107901479D01*
X122402630Y-107475426D01*
X122305191Y-107114126D01*
X122227797Y-106840512D01*
X122176226Y-106677517D01*
X122158503Y-106641515D01*
X122071437Y-106662153D01*
X121858809Y-106719908D01*
X121542766Y-106808546D01*
X121145454Y-106921828D01*
X120689021Y-107053520D01*
X120491404Y-107110959D01*
X119983000Y-107258847D01*
X119492739Y-107401100D01*
X119051178Y-107528878D01*
X118688875Y-107633342D01*
X118436386Y-107705654D01*
X118395187Y-107717337D01*
X118143738Y-107791394D01*
X117959284Y-107851345D01*
X117884189Y-107882893D01*
X117873562Y-107963669D01*
X117855217Y-108180503D01*
X117830376Y-108515774D01*
X117800260Y-108951862D01*
X117766090Y-109471145D01*
X117729087Y-110056002D01*
X117695481Y-110605454D01*
X117655222Y-111271510D01*
X117615681Y-111920999D01*
X117578351Y-112529749D01*
X117544724Y-113073585D01*
X117516292Y-113528333D01*
X117494549Y-113869819D01*
X117484450Y-114023459D01*
X117464752Y-114363390D01*
X117462745Y-114574866D01*
X112700105Y-114574866D01*
X112706088Y-114537059D01*
X112741312Y-114290810D01*
X112753615Y-114166044D01*
X112752041Y-114155365D01*
X112671676Y-114133548D01*
X112460809Y-114084955D01*
X112139679Y-114014009D01*
X111728528Y-113925134D01*
X111247599Y-113822750D01*
X110771119Y-113722562D01*
X110146332Y-113593819D01*
X109657385Y-113497769D01*
X109290183Y-113432230D01*
X109030629Y-113395017D01*
X108864628Y-113383948D01*
X108778083Y-113396841D01*
X108760462Y-113411159D01*
X108720476Y-113498316D01*
X108626800Y-113714505D01*
X108484952Y-114046663D01*
X108300453Y-114481725D01*
X108078821Y-115006627D01*
X107825576Y-115608304D01*
X107546237Y-116273692D01*
X107246322Y-116989727D01*
X107024035Y-117521416D01*
X106712573Y-118265561D01*
X106417302Y-118968306D01*
X106143788Y-119616584D01*
X105897601Y-120197325D01*
X105684307Y-120697462D01*
X105509474Y-121103925D01*
X105378672Y-121403645D01*
X105297466Y-121583554D01*
X105272994Y-121631363D01*
X105232444Y-121646298D01*
X105130494Y-121659712D01*
X104960295Y-121671674D01*
X104714999Y-121682255D01*
X104387756Y-121691524D01*
X103971716Y-121699552D01*
X103460031Y-121706409D01*
X102845851Y-121712165D01*
X102122328Y-121716890D01*
X101282611Y-121720654D01*
X100319852Y-121723526D01*
X99227201Y-121725578D01*
X97997810Y-121726879D01*
X96624829Y-121727499D01*
X95865758Y-121727576D01*
X94442645Y-121727774D01*
X93165838Y-121728090D01*
X92027704Y-121728102D01*
X91020611Y-121727390D01*
X90136927Y-121725533D01*
X89369018Y-121722110D01*
X88709253Y-121716700D01*
X88149999Y-121708882D01*
X87683622Y-121698237D01*
X87302492Y-121684342D01*
X86998974Y-121666778D01*
X86765438Y-121645123D01*
X86594249Y-121618957D01*
X86477776Y-121587859D01*
X86408386Y-121551408D01*
X86378446Y-121509184D01*
X86380325Y-121460766D01*
X86406389Y-121405732D01*
X86449006Y-121343663D01*
X86500544Y-121274137D01*
X86542577Y-121213616D01*
X86616209Y-121093397D01*
X86759211Y-120852924D01*
X86963962Y-120505246D01*
X87222839Y-120063410D01*
X87528218Y-119540466D01*
X87872477Y-118949460D01*
X88247993Y-118303440D01*
X88647144Y-117615456D01*
X88940288Y-117109394D01*
X89163061Y-116724545D01*
X94885932Y-116724545D01*
X97925663Y-116724545D01*
X98733492Y-116723433D01*
X99398891Y-116719861D01*
X99933352Y-116713473D01*
X100348370Y-116703915D01*
X100655437Y-116690832D01*
X100866049Y-116673870D01*
X100991698Y-116652673D01*
X101042803Y-116628333D01*
X101093470Y-116548313D01*
X101212547Y-116352043D01*
X101390315Y-116055911D01*
X101617051Y-115676305D01*
X101883036Y-115229612D01*
X102178548Y-114732220D01*
X102493867Y-114200518D01*
X102819271Y-113650893D01*
X103145041Y-113099732D01*
X103461455Y-112563425D01*
X103758792Y-112058358D01*
X104027331Y-111600920D01*
X104200577Y-111304801D01*
X104136608Y-111288094D01*
X103929800Y-111276137D01*
X103591183Y-111269005D01*
X103131785Y-111266776D01*
X102562637Y-111269524D01*
X101894767Y-111277328D01*
X101400678Y-111285367D01*
X100744172Y-111297023D01*
X100128081Y-111307750D01*
X99571344Y-111317235D01*
X99092904Y-111325165D01*
X98711701Y-111331224D01*
X98446675Y-111335099D01*
X98317206Y-111336475D01*
X98253030Y-111340225D01*
X98191196Y-111359655D01*
X98123190Y-111407200D01*
X98040497Y-111495291D01*
X97934603Y-111636364D01*
X97796993Y-111842850D01*
X97619152Y-112127184D01*
X97392566Y-112501799D01*
X97108720Y-112979127D01*
X96759099Y-113571603D01*
X96590800Y-113857424D01*
X96253685Y-114429715D01*
X95937621Y-114965556D01*
X95651938Y-115449183D01*
X95405965Y-115864836D01*
X95209029Y-116196752D01*
X95070459Y-116429169D01*
X94999585Y-116546324D01*
X94996408Y-116551363D01*
X94885932Y-116724545D01*
X89163061Y-116724545D01*
X89797390Y-115628720D01*
X90580684Y-114275509D01*
X91293567Y-113044040D01*
X91939435Y-111928595D01*
X92521682Y-110923456D01*
X93043706Y-110022905D01*
X93508902Y-109221222D01*
X93878376Y-108585459D01*
X109078212Y-108585459D01*
X109086099Y-108611453D01*
X109168873Y-108642071D01*
X109379091Y-108706002D01*
X109695389Y-108797149D01*
X110096404Y-108909414D01*
X110560769Y-109036700D01*
X110847288Y-109114086D01*
X111363884Y-109252961D01*
X111853378Y-109384708D01*
X112288447Y-109501960D01*
X112641770Y-109597352D01*
X112886023Y-109663518D01*
X112953030Y-109681783D01*
X113196689Y-109743513D01*
X113390140Y-109783789D01*
X113453333Y-109791849D01*
X113497581Y-109755839D01*
X113556682Y-109637130D01*
X113634213Y-109424353D01*
X113733753Y-109106139D01*
X113858880Y-108671119D01*
X114013171Y-108107925D01*
X114178348Y-107488039D01*
X114327392Y-106916666D01*
X114460283Y-106393795D01*
X114572639Y-105937758D01*
X114660077Y-105566889D01*
X114718212Y-105299522D01*
X114742662Y-105153991D01*
X114741375Y-105132991D01*
X114653898Y-105098426D01*
X114440444Y-105032453D01*
X114123973Y-104941142D01*
X113727443Y-104830569D01*
X113273815Y-104706804D01*
X112786047Y-104575922D01*
X112287100Y-104443996D01*
X111799932Y-104317098D01*
X111347503Y-104201301D01*
X110952772Y-104102679D01*
X110638699Y-104027304D01*
X110428243Y-103981249D01*
X110345242Y-103970172D01*
X110302910Y-104049064D01*
X110228546Y-104255275D01*
X110128938Y-104567158D01*
X110010874Y-104963068D01*
X109881141Y-105421358D01*
X109819666Y-105646226D01*
X109616950Y-106397760D01*
X109452042Y-107013790D01*
X109321759Y-107507193D01*
X109222915Y-107890844D01*
X109152323Y-108177620D01*
X109106799Y-108380396D01*
X109083157Y-108512051D01*
X109078212Y-108585459D01*
X93878376Y-108585459D01*
X93920667Y-108512689D01*
X94282395Y-107891587D01*
X94597484Y-107352199D01*
X94869329Y-106888804D01*
X95101325Y-106495685D01*
X95296870Y-106167123D01*
X95459359Y-105897399D01*
X95592188Y-105680795D01*
X95698752Y-105511593D01*
X95782449Y-105384072D01*
X95846673Y-105292516D01*
X95894821Y-105231206D01*
X95930289Y-105194422D01*
X95956473Y-105176446D01*
X95976768Y-105171560D01*
X95994571Y-105174045D01*
X96013277Y-105178183D01*
X96025040Y-105179091D01*
X96133145Y-105188718D01*
X96379361Y-105216400D01*
X96749145Y-105260341D01*
X97227954Y-105318741D01*
X97801244Y-105389805D01*
X98454473Y-105471734D01*
X99173097Y-105562730D01*
X99942574Y-105660996D01*
X100414509Y-105721653D01*
X101205856Y-105822864D01*
X101953930Y-105917115D01*
X102644337Y-106002689D01*
X103262685Y-106077869D01*
X103794579Y-106140939D01*
X104225626Y-106190183D01*
X104541434Y-106223883D01*
X104727609Y-106240324D01*
X104771049Y-106241198D01*
X104825736Y-106207492D01*
X104890845Y-106112787D01*
X104972377Y-105942212D01*
X105076330Y-105680896D01*
X105208702Y-105313968D01*
X105375494Y-104826556D01*
X105536390Y-104343967D01*
X105701773Y-103834397D01*
X105845479Y-103372541D01*
X105961751Y-102978513D01*
X106044832Y-102672427D01*
X106047750Y-102659333D01*
X119303030Y-102659333D01*
X119376456Y-102671242D01*
X119582643Y-102685771D01*
X119900454Y-102701924D01*
X120308753Y-102718707D01*
X120786405Y-102735125D01*
X121131061Y-102745326D01*
X121693463Y-102762164D01*
X122247292Y-102780966D01*
X122759725Y-102800455D01*
X123197939Y-102819349D01*
X123529110Y-102836369D01*
X123629895Y-102842755D01*
X124300699Y-102889436D01*
X125617841Y-104996385D01*
X125938261Y-105506385D01*
X126233696Y-105971723D01*
X126494120Y-106376991D01*
X126709507Y-106706780D01*
X126869834Y-106945680D01*
X126965074Y-107078283D01*
X126986734Y-107100418D01*
X127038474Y-107036712D01*
X127160642Y-106857567D01*
X127343105Y-106578719D01*
X127575731Y-106215905D01*
X127848387Y-105784864D01*
X128150940Y-105301330D01*
X128308485Y-105047664D01*
X128313859Y-105039013D01*
X139386680Y-105039013D01*
X139424382Y-105277245D01*
X139507698Y-105660042D01*
X139636374Y-106186252D01*
X139810153Y-106854725D01*
X139857330Y-107031668D01*
X140004837Y-107582908D01*
X140142809Y-108099015D01*
X140265162Y-108557191D01*
X140365813Y-108934639D01*
X140438676Y-109208561D01*
X140477288Y-109354697D01*
X140534332Y-109538443D01*
X140582851Y-109637668D01*
X140592115Y-109643333D01*
X140673728Y-109624189D01*
X140885091Y-109570072D01*
X141207286Y-109485953D01*
X141621397Y-109376802D01*
X142108506Y-109247592D01*
X142649696Y-109103292D01*
X142791066Y-109065485D01*
X143345150Y-108916354D01*
X143851704Y-108778368D01*
X144291382Y-108656926D01*
X144644843Y-108557429D01*
X144892743Y-108485278D01*
X145015737Y-108445874D01*
X145024437Y-108441942D01*
X145065502Y-108341933D01*
X145052610Y-108276988D01*
X145021564Y-108174243D01*
X144956375Y-107942643D01*
X144862490Y-107602096D01*
X144745359Y-107172508D01*
X144610429Y-106673787D01*
X144463149Y-106125838D01*
X144431029Y-106005887D01*
X144282563Y-105453683D01*
X144145745Y-104949790D01*
X144025898Y-104513421D01*
X143928348Y-104163790D01*
X143858417Y-103920111D01*
X143821430Y-103801596D01*
X143818147Y-103794071D01*
X143732349Y-103785933D01*
X143537050Y-103817284D01*
X143269638Y-103881559D01*
X143183723Y-103905482D01*
X142920869Y-103979076D01*
X142543604Y-104082247D01*
X142086462Y-104205674D01*
X141583976Y-104340038D01*
X141070680Y-104476018D01*
X141031687Y-104486292D01*
X140562167Y-104611284D01*
X140141590Y-104725797D01*
X139793359Y-104823251D01*
X139540876Y-104897066D01*
X139407544Y-104940662D01*
X139394848Y-104946497D01*
X139386680Y-105039013D01*
X128313859Y-105039013D01*
X128626915Y-104535148D01*
X128924325Y-104059209D01*
X129189733Y-103637205D01*
X129412161Y-103286495D01*
X129580629Y-103024438D01*
X129684156Y-102868391D01*
X129706375Y-102837700D01*
X129748504Y-102792910D01*
X129806943Y-102756465D01*
X129898341Y-102726796D01*
X130039347Y-102702336D01*
X130246610Y-102681516D01*
X130536778Y-102662768D01*
X130926501Y-102644523D01*
X131432427Y-102625214D01*
X132071205Y-102603272D01*
X132262928Y-102596881D01*
X132859396Y-102575626D01*
X133405785Y-102553400D01*
X133883271Y-102531186D01*
X134273026Y-102509966D01*
X134556225Y-102490723D01*
X134714041Y-102474440D01*
X134740228Y-102467549D01*
X134717093Y-102390480D01*
X134629141Y-102193906D01*
X134484396Y-101893941D01*
X134290876Y-101506697D01*
X134056605Y-101048287D01*
X133789601Y-100534825D01*
X133582207Y-100141246D01*
X132375548Y-97863579D01*
X132498882Y-97633735D01*
X136792221Y-97633735D01*
X136854411Y-97704594D01*
X137010687Y-97862974D01*
X137243881Y-98092548D01*
X137536830Y-98376991D01*
X137872368Y-98699977D01*
X138233331Y-99045180D01*
X138602553Y-99396275D01*
X138962870Y-99736935D01*
X139297116Y-100050834D01*
X139588126Y-100321648D01*
X139818736Y-100533050D01*
X139971780Y-100668714D01*
X140029348Y-100712600D01*
X140109808Y-100679749D01*
X140311600Y-100585354D01*
X140618650Y-100437273D01*
X141014885Y-100243367D01*
X141484229Y-100011495D01*
X142010610Y-99749516D01*
X142492378Y-99508278D01*
X143087788Y-99208700D01*
X143668260Y-98915474D01*
X144212094Y-98639645D01*
X144697591Y-98392262D01*
X145103051Y-98184372D01*
X145406774Y-98027022D01*
X145540445Y-97956499D01*
X146185435Y-97611290D01*
X143154384Y-96088156D01*
X142519392Y-95770137D01*
X141924875Y-95474451D01*
X141385314Y-95208149D01*
X140915192Y-94978286D01*
X140528991Y-94791914D01*
X140241192Y-94656086D01*
X140066278Y-94577856D01*
X140018988Y-94561147D01*
X139941349Y-94610966D01*
X139772633Y-94751538D01*
X139529928Y-94966593D01*
X139230319Y-95239859D01*
X138890894Y-95555068D01*
X138528739Y-95895948D01*
X138160941Y-96246230D01*
X137804586Y-96589643D01*
X137476762Y-96909917D01*
X137194554Y-97190783D01*
X136975050Y-97415968D01*
X136835335Y-97569205D01*
X136792221Y-97633735D01*
X132498882Y-97633735D01*
X133025144Y-96653002D01*
X133482039Y-95799074D01*
X133865955Y-95076111D01*
X134178726Y-94480540D01*
X134422185Y-94008787D01*
X134598167Y-93657279D01*
X134708503Y-93422443D01*
X134755029Y-93300706D01*
X134755242Y-93281403D01*
X134672327Y-93270030D01*
X134454445Y-93254787D01*
X134120494Y-93236594D01*
X133689372Y-93216370D01*
X133179976Y-93195034D01*
X132611205Y-93173504D01*
X132341441Y-93164015D01*
X131749579Y-93143028D01*
X131206300Y-93122511D01*
X130730970Y-93103292D01*
X130342958Y-93086203D01*
X130061630Y-93072073D01*
X129906353Y-93061734D01*
X129883041Y-93058624D01*
X129823696Y-92989691D01*
X129694164Y-92805895D01*
X129505059Y-92523401D01*
X129266994Y-92158378D01*
X128990582Y-91726991D01*
X128686437Y-91245406D01*
X128560699Y-91044433D01*
X128390258Y-90771754D01*
X139373400Y-90771754D01*
X139374227Y-90793778D01*
X139460623Y-90826268D01*
X139676365Y-90892263D01*
X140001890Y-90986221D01*
X140417638Y-91102603D01*
X140904048Y-91235868D01*
X141441559Y-91380474D01*
X141507666Y-91398087D01*
X142048401Y-91542840D01*
X142539059Y-91675795D01*
X142960373Y-91791602D01*
X143293077Y-91884910D01*
X143517905Y-91950369D01*
X143615589Y-91982630D01*
X143617919Y-91984080D01*
X143685125Y-92015678D01*
X143754892Y-91965006D01*
X143833474Y-91817891D01*
X143927123Y-91560161D01*
X144042095Y-91177646D01*
X144155168Y-90766515D01*
X144297768Y-90236435D01*
X144455873Y-89650914D01*
X144612666Y-89072105D01*
X144751329Y-88562163D01*
X144785163Y-88438182D01*
X144886033Y-88052859D01*
X144964506Y-87721378D01*
X145014690Y-87471329D01*
X145030694Y-87330300D01*
X145025981Y-87310370D01*
X144938946Y-87276960D01*
X144724966Y-87211307D01*
X144406134Y-87119698D01*
X144004547Y-87008420D01*
X143542297Y-86883760D01*
X143317576Y-86824234D01*
X142797892Y-86686630D01*
X142293922Y-86551883D01*
X141836795Y-86428414D01*
X141457642Y-86324645D01*
X141187592Y-86248998D01*
X141135809Y-86234014D01*
X140872705Y-86162719D01*
X140673012Y-86119402D01*
X140576728Y-86112612D01*
X140574523Y-86114062D01*
X140538959Y-86202717D01*
X140473282Y-86416786D01*
X140383122Y-86734323D01*
X140274107Y-87133378D01*
X140151867Y-87592003D01*
X140022033Y-88088250D01*
X139890232Y-88600172D01*
X139762095Y-89105819D01*
X139643252Y-89583244D01*
X139539331Y-90010498D01*
X139455963Y-90365633D01*
X139398776Y-90626701D01*
X139373400Y-90771754D01*
X128390258Y-90771754D01*
X128246280Y-90541413D01*
X127954442Y-90076161D01*
X127696134Y-89666006D01*
X127482309Y-89328278D01*
X127323916Y-89080305D01*
X127231906Y-88939418D01*
X127217052Y-88918131D01*
X127181797Y-88891652D01*
X127132821Y-88903902D01*
X127061443Y-88966939D01*
X126958986Y-89092823D01*
X126816768Y-89293613D01*
X126626113Y-89581371D01*
X126378339Y-89968155D01*
X126064769Y-90466025D01*
X125810871Y-90872034D01*
X125487904Y-91387790D01*
X125186563Y-91866004D01*
X124917642Y-92289783D01*
X124691932Y-92642231D01*
X124520225Y-92906455D01*
X124413314Y-93065559D01*
X124386932Y-93101117D01*
X124341424Y-93140383D01*
X124267821Y-93173012D01*
X124149870Y-93200438D01*
X123971318Y-93224092D01*
X123715912Y-93245405D01*
X123367401Y-93265810D01*
X122909532Y-93286739D01*
X122326052Y-93309624D01*
X121804546Y-93328634D01*
X121205187Y-93350761D01*
X120657027Y-93372299D01*
X120178505Y-93392421D01*
X119788059Y-93410300D01*
X119504125Y-93425109D01*
X119345144Y-93436022D01*
X119317517Y-93440166D01*
X119346531Y-93511139D01*
X119439923Y-93701863D01*
X119589454Y-93996353D01*
X119786886Y-94378623D01*
X120023979Y-94832689D01*
X120292496Y-95342566D01*
X120491304Y-95717655D01*
X120778037Y-96259417D01*
X121040155Y-96758837D01*
X121269192Y-97199451D01*
X121456677Y-97564798D01*
X121594141Y-97838414D01*
X121673116Y-98003838D01*
X121689091Y-98045983D01*
X121654261Y-98129511D01*
X121555407Y-98332360D01*
X121400985Y-98638042D01*
X121199453Y-99030070D01*
X120959266Y-99491956D01*
X120688879Y-100007212D01*
X120496061Y-100372148D01*
X120210656Y-100911898D01*
X119949728Y-101407333D01*
X119721693Y-101842315D01*
X119534971Y-102200707D01*
X119397979Y-102466368D01*
X119319135Y-102623162D01*
X119303030Y-102659333D01*
X106047750Y-102659333D01*
X106088966Y-102474395D01*
X106091180Y-102405636D01*
X106005108Y-102363996D01*
X105792521Y-102276621D01*
X105471532Y-102150503D01*
X105060255Y-101992634D01*
X104576802Y-101810004D01*
X104039288Y-101609605D01*
X103793636Y-101518824D01*
X103109493Y-101266664D01*
X102327092Y-100978283D01*
X101492615Y-100670702D01*
X100652244Y-100360944D01*
X99852158Y-100066029D01*
X99175455Y-99816589D01*
X98547839Y-99585380D01*
X97918679Y-99353857D01*
X97315140Y-99131998D01*
X96764390Y-98929784D01*
X96293596Y-98757191D01*
X95929926Y-98624200D01*
X95827273Y-98586779D01*
X95461432Y-98449381D01*
X95143842Y-98322245D01*
X94905015Y-98218148D01*
X94775466Y-98149870D01*
X94766111Y-98142374D01*
X94704280Y-98059291D01*
X94708075Y-97976531D01*
X94790622Y-97886428D01*
X94965048Y-97781320D01*
X95014269Y-97758812D01*
X107999303Y-97758812D01*
X108060442Y-97795775D01*
X108242594Y-97893039D01*
X108529036Y-98042161D01*
X108903045Y-98234697D01*
X109347898Y-98462204D01*
X109846870Y-98716240D01*
X110383237Y-98988360D01*
X110940277Y-99270122D01*
X111501266Y-99553082D01*
X112049480Y-99828797D01*
X112568196Y-100088824D01*
X113040689Y-100324720D01*
X113450237Y-100528042D01*
X113780116Y-100690346D01*
X114013603Y-100803189D01*
X114133973Y-100858128D01*
X114146061Y-100862114D01*
X114208988Y-100811082D01*
X114368107Y-100665963D01*
X114609330Y-100440068D01*
X114918564Y-100146713D01*
X115281720Y-99799209D01*
X115684708Y-99410871D01*
X115796869Y-99302340D01*
X117409193Y-97740858D01*
X116335657Y-96705158D01*
X115955343Y-96338695D01*
X115569690Y-95967874D01*
X115209072Y-95621847D01*
X114903865Y-95329765D01*
X114716306Y-95151015D01*
X114170490Y-94632571D01*
X111098730Y-96184501D01*
X110462637Y-96506053D01*
X109869831Y-96806075D01*
X109334238Y-97077492D01*
X108869784Y-97313231D01*
X108490394Y-97506220D01*
X108209994Y-97649384D01*
X108042509Y-97735651D01*
X107999303Y-97758812D01*
X95014269Y-97758812D01*
X95244479Y-97653542D01*
X95642040Y-97495431D01*
X96170857Y-97299323D01*
X96274227Y-97261845D01*
X96640189Y-97129546D01*
X97131082Y-96952190D01*
X97727031Y-96736952D01*
X98408161Y-96491007D01*
X99154596Y-96221532D01*
X99946460Y-95935702D01*
X100763878Y-95640693D01*
X101586975Y-95343680D01*
X101933337Y-95218711D01*
X102694439Y-94943706D01*
X103411620Y-94683783D01*
X104071903Y-94443699D01*
X104662311Y-94228210D01*
X105169870Y-94042072D01*
X105581602Y-93890040D01*
X105884532Y-93776871D01*
X106065683Y-93707320D01*
X106114088Y-93686417D01*
X106101332Y-93606215D01*
X106046255Y-93399305D01*
X105954680Y-93085196D01*
X105832431Y-92683398D01*
X105685331Y-92213421D01*
X105524850Y-91712224D01*
X104898199Y-89775445D01*
X104692281Y-89817374D01*
X104546899Y-89841114D01*
X104280191Y-89879243D01*
X103923630Y-89927463D01*
X103508692Y-89981477D01*
X103254849Y-90013620D01*
X102892144Y-90059263D01*
X102402995Y-90121108D01*
X101813652Y-90195821D01*
X101150365Y-90280067D01*
X100439383Y-90370513D01*
X99706957Y-90463824D01*
X98987035Y-90555684D01*
X98225376Y-90652647D01*
X97601812Y-90730897D01*
X97101785Y-90791592D01*
X96710737Y-90835887D01*
X96414111Y-90864936D01*
X96197349Y-90879896D01*
X96045893Y-90881923D01*
X95945187Y-90872171D01*
X95880671Y-90851796D01*
X95837790Y-90821955D01*
X95822720Y-90806866D01*
X95768337Y-90723728D01*
X95641949Y-90515638D01*
X95448461Y-90190992D01*
X95192779Y-89758186D01*
X94879809Y-89225617D01*
X94514457Y-88601682D01*
X94101629Y-87894777D01*
X93863258Y-87485724D01*
X109111553Y-87485724D01*
X109117676Y-87567600D01*
X109158052Y-87776081D01*
X109227119Y-88089070D01*
X109319313Y-88484469D01*
X109429073Y-88940183D01*
X109550835Y-89434113D01*
X109679037Y-89944165D01*
X109808116Y-90448240D01*
X109932508Y-90924242D01*
X110046653Y-91350074D01*
X110144986Y-91703640D01*
X110221944Y-91962843D01*
X110271967Y-92105586D01*
X110277356Y-92116616D01*
X110368224Y-92150683D01*
X110438750Y-92140278D01*
X110544302Y-92111471D01*
X110778348Y-92048697D01*
X111120564Y-91957368D01*
X111550627Y-91842901D01*
X112048215Y-91710709D01*
X112593005Y-91566208D01*
X112664394Y-91547289D01*
X113206348Y-91400840D01*
X113696404Y-91262966D01*
X114115727Y-91139405D01*
X114445483Y-91035897D01*
X114666836Y-90958181D01*
X114760952Y-90911995D01*
X114762945Y-90907869D01*
X114744182Y-90808893D01*
X114691066Y-90585703D01*
X114609548Y-90260622D01*
X114505578Y-89855977D01*
X114385106Y-89394090D01*
X114254083Y-88897288D01*
X114118460Y-88387894D01*
X113984185Y-87888232D01*
X113857211Y-87420628D01*
X113743487Y-87007405D01*
X113648963Y-86670889D01*
X113579590Y-86433404D01*
X113541318Y-86317273D01*
X113537415Y-86309932D01*
X113448950Y-86308552D01*
X113245954Y-86344298D01*
X112961479Y-86410517D01*
X112722121Y-86474062D01*
X112384416Y-86567039D01*
X111941642Y-86687484D01*
X111437569Y-86823570D01*
X110915967Y-86963466D01*
X110566970Y-87056498D01*
X110125172Y-87176109D01*
X109733974Y-87286162D01*
X109418093Y-87379369D01*
X109202249Y-87448439D01*
X109111553Y-87485724D01*
X93863258Y-87485724D01*
X93646230Y-87113299D01*
X93153167Y-86265644D01*
X92627344Y-85360209D01*
X92073668Y-84405390D01*
X91497046Y-83409585D01*
X91133419Y-82780909D01*
X90545282Y-81764212D01*
X89977254Y-80783387D01*
X89434225Y-79846823D01*
X89142673Y-79344603D01*
X94927619Y-79344603D01*
X94959159Y-79414830D01*
X95061148Y-79603345D01*
X95225504Y-79896031D01*
X95444146Y-80278777D01*
X95708989Y-80737466D01*
X96011953Y-81257984D01*
X96344955Y-81826218D01*
X96481631Y-82058407D01*
X98064218Y-84743636D01*
X100428624Y-84782121D01*
X101052901Y-84792700D01*
X101658982Y-84803744D01*
X102220985Y-84814726D01*
X102713033Y-84825114D01*
X103109246Y-84834380D01*
X103383745Y-84841993D01*
X103429403Y-84843542D01*
X103731505Y-84849290D01*
X103974548Y-84844378D01*
X104117420Y-84829953D01*
X104134694Y-84823885D01*
X104113575Y-84749986D01*
X104021822Y-84559934D01*
X103868104Y-84269522D01*
X103661087Y-83894538D01*
X103409439Y-83450773D01*
X103121828Y-82954017D01*
X102918000Y-82607312D01*
X102592485Y-82056573D01*
X102278597Y-81524962D01*
X101988520Y-81033155D01*
X101734439Y-80601829D01*
X101528538Y-80251658D01*
X101383000Y-80003320D01*
X101338029Y-79926135D01*
X101043673Y-79418936D01*
X97999934Y-79367482D01*
X97331102Y-79356885D01*
X96711683Y-79348439D01*
X96158267Y-79342268D01*
X95687441Y-79338495D01*
X95315794Y-79337243D01*
X95059912Y-79338637D01*
X94936386Y-79342799D01*
X94927619Y-79344603D01*
X89142673Y-79344603D01*
X88921090Y-78962912D01*
X88442740Y-78140043D01*
X88004068Y-77386607D01*
X87609966Y-76710995D01*
X87265326Y-76121597D01*
X86975042Y-75626804D01*
X86744005Y-75235005D01*
X86577108Y-74954592D01*
X86479244Y-74793955D01*
X86455444Y-74758262D01*
X86380878Y-74631894D01*
X86428227Y-74517373D01*
X86435772Y-74508110D01*
X86463297Y-74490498D01*
X86520345Y-74474719D01*
X86614837Y-74460675D01*
X86754691Y-74448267D01*
X86947830Y-74437398D01*
X87202173Y-74427969D01*
X87525641Y-74419882D01*
X87926155Y-74413039D01*
X88411634Y-74407341D01*
X88989999Y-74402691D01*
X89669171Y-74398991D01*
X90457071Y-74396141D01*
X91361618Y-74394045D01*
X92390733Y-74392603D01*
X93552337Y-74391718D01*
X94854350Y-74391291D01*
X95865758Y-74391212D01*
X97315121Y-74391512D01*
X98617396Y-74392458D01*
X99779430Y-74394122D01*
X100808074Y-74396571D01*
X101710176Y-74399878D01*
X102492586Y-74404111D01*
X103162153Y-74409341D01*
X103725725Y-74415637D01*
X104190153Y-74423070D01*
X104562284Y-74431710D01*
X104848970Y-74441626D01*
X105057058Y-74452889D01*
X105193398Y-74465569D01*
X105264838Y-74479736D01*
X105278383Y-74487424D01*
X105336709Y-74592169D01*
X105438888Y-74809289D01*
X105571176Y-75108403D01*
X105719828Y-75459130D01*
X105739779Y-75507272D01*
X105953346Y-76022866D01*
X106192966Y-76599376D01*
X106452264Y-77221627D01*
X106724862Y-77874446D01*
X107004385Y-78542656D01*
X107284457Y-79211082D01*
X107558702Y-79864550D01*
X107820744Y-80487884D01*
X108064208Y-81065910D01*
X108282717Y-81583452D01*
X108469895Y-82025335D01*
X108619367Y-82376385D01*
X108724756Y-82621426D01*
X108779687Y-82745283D01*
X108785989Y-82757403D01*
X108867441Y-82752205D01*
X109073889Y-82718738D01*
X109379954Y-82661678D01*
X109760259Y-82585699D01*
X110076417Y-82519649D01*
X110556644Y-82417656D01*
X111039930Y-82315196D01*
X111482152Y-82221611D01*
X111839185Y-82146244D01*
X111967718Y-82119204D01*
X112270013Y-82051418D01*
X112518361Y-81987812D01*
X112670598Y-81939440D01*
X112691376Y-81929459D01*
X112722746Y-81867413D01*
X112726496Y-81724117D01*
X112714164Y-81607121D01*
X117455457Y-81607121D01*
X117459799Y-81708132D01*
X117472360Y-81940481D01*
X117491989Y-82285220D01*
X117517534Y-82723399D01*
X117547844Y-83236070D01*
X117581768Y-83804285D01*
X117618153Y-84409095D01*
X117655850Y-85031552D01*
X117693707Y-85652707D01*
X117730571Y-86253611D01*
X117765293Y-86815316D01*
X117796720Y-87318874D01*
X117823702Y-87745335D01*
X117845086Y-88075752D01*
X117859723Y-88291175D01*
X117866459Y-88372657D01*
X117866550Y-88372864D01*
X117942549Y-88398606D01*
X118143704Y-88460513D01*
X118447312Y-88551921D01*
X118830670Y-88666165D01*
X119271072Y-88796580D01*
X119745816Y-88936501D01*
X120232197Y-89079262D01*
X120707512Y-89218200D01*
X121149055Y-89346649D01*
X121534124Y-89457944D01*
X121840014Y-89545420D01*
X122044022Y-89602412D01*
X122122449Y-89622219D01*
X122165191Y-89552069D01*
X122237797Y-89344982D01*
X122336467Y-89014234D01*
X122457404Y-88573103D01*
X122596807Y-88034866D01*
X122729368Y-87501157D01*
X122891205Y-86824787D01*
X123019635Y-86259508D01*
X123112993Y-85813541D01*
X123169611Y-85495105D01*
X123187822Y-85312419D01*
X123181161Y-85273195D01*
X123103910Y-85210768D01*
X122914576Y-85076079D01*
X122804806Y-85000537D01*
X130907160Y-85000537D01*
X130912980Y-85082955D01*
X130949876Y-85291897D01*
X131012603Y-85604294D01*
X131095912Y-85997075D01*
X131194559Y-86447172D01*
X131303296Y-86931516D01*
X131416877Y-87427038D01*
X131530055Y-87910668D01*
X131637585Y-88359336D01*
X131734219Y-88749975D01*
X131814711Y-89059514D01*
X131873815Y-89264884D01*
X131883772Y-89294789D01*
X131969705Y-89308123D01*
X132199217Y-89269726D01*
X132571006Y-89179892D01*
X133083770Y-89038914D01*
X133324772Y-88969230D01*
X133831471Y-88821577D01*
X134347850Y-88671980D01*
X134832169Y-88532470D01*
X135242688Y-88415078D01*
X135482303Y-88347312D01*
X136229151Y-88137862D01*
X136270883Y-87749234D01*
X136291005Y-87523286D01*
X136316281Y-87179186D01*
X136345571Y-86738043D01*
X136377735Y-86220962D01*
X136411633Y-85649051D01*
X136446123Y-85043418D01*
X136472646Y-84560315D01*
X149949502Y-84560315D01*
X150017870Y-84576575D01*
X150227868Y-84590110D01*
X150567204Y-84600719D01*
X151023589Y-84608202D01*
X151584732Y-84612357D01*
X152238344Y-84612983D01*
X152972134Y-84609880D01*
X152980030Y-84609828D01*
X156036511Y-84589697D01*
X157602791Y-81934242D01*
X157944829Y-81353048D01*
X158261201Y-80812942D01*
X158543578Y-80328333D01*
X158783631Y-79913629D01*
X158973032Y-79583239D01*
X159103451Y-79351570D01*
X159166559Y-79233032D01*
X159171203Y-79221060D01*
X159098002Y-79200932D01*
X158888400Y-79185265D01*
X158559869Y-79174084D01*
X158129884Y-79167415D01*
X157615917Y-79165282D01*
X157035443Y-79167711D01*
X156405934Y-79174725D01*
X155744866Y-79186350D01*
X155069710Y-79202611D01*
X154663774Y-79214646D01*
X153054242Y-79265958D01*
X151514849Y-81878314D01*
X151175107Y-82455487D01*
X150860045Y-82991944D01*
X150578209Y-83473046D01*
X150338142Y-83884152D01*
X150148388Y-84210625D01*
X150017492Y-84437823D01*
X149953999Y-84551108D01*
X149949502Y-84560315D01*
X136472646Y-84560315D01*
X136480066Y-84425170D01*
X136512322Y-83815413D01*
X136541749Y-83235255D01*
X136567207Y-82705803D01*
X136587556Y-82248164D01*
X136601655Y-81883446D01*
X136608365Y-81632755D01*
X136607267Y-81523416D01*
X136582727Y-81244707D01*
X133775806Y-83091760D01*
X133185984Y-83480353D01*
X132635486Y-83843943D01*
X132137741Y-84173595D01*
X131706178Y-84460374D01*
X131354225Y-84695343D01*
X131095311Y-84869567D01*
X130942866Y-84974112D01*
X130907160Y-85000537D01*
X122804806Y-85000537D01*
X122629285Y-84879747D01*
X122264162Y-84632392D01*
X121835333Y-84344634D01*
X121358923Y-84027093D01*
X120851059Y-83690389D01*
X120327866Y-83345142D01*
X119805469Y-83001973D01*
X119299994Y-82671501D01*
X118827567Y-82364346D01*
X118404314Y-82091128D01*
X118046359Y-81862467D01*
X117769829Y-81688983D01*
X117590849Y-81581297D01*
X117526869Y-81549394D01*
X117456666Y-81596760D01*
X117455457Y-81607121D01*
X112714164Y-81607121D01*
X112700884Y-81481141D01*
X112644166Y-81120056D01*
X112581501Y-80767930D01*
X112505960Y-80355036D01*
X123767273Y-80355036D01*
X123819268Y-80423828D01*
X123964290Y-80584136D01*
X124185893Y-80819311D01*
X124467633Y-81112706D01*
X124793066Y-81447673D01*
X125145745Y-81807564D01*
X125509226Y-82175731D01*
X125867064Y-82535527D01*
X126202814Y-82870305D01*
X126500032Y-83163416D01*
X126742271Y-83398212D01*
X126913088Y-83558047D01*
X126996037Y-83626271D01*
X126999954Y-83627576D01*
X127062088Y-83575163D01*
X127219412Y-83426622D01*
X127458587Y-83194997D01*
X127766277Y-82893334D01*
X128129141Y-82534677D01*
X128533842Y-82132071D01*
X128751724Y-81914350D01*
X130463680Y-80201125D01*
X128808802Y-78547590D01*
X127153924Y-76894054D01*
X125460598Y-78586068D01*
X125042669Y-79006061D01*
X124662231Y-79392966D01*
X124332455Y-79733026D01*
X124066511Y-80012482D01*
X123877569Y-80217574D01*
X123778800Y-80334544D01*
X123767273Y-80355036D01*
X112505960Y-80355036D01*
X112491166Y-80274178D01*
X112384467Y-79689166D01*
X112264150Y-79028076D01*
X112132958Y-78306091D01*
X111993638Y-77538392D01*
X111848932Y-76740162D01*
X111701587Y-75926582D01*
X111554346Y-75112836D01*
X111409953Y-74314104D01*
X111271155Y-73545569D01*
X111140694Y-72822413D01*
X111021316Y-72159819D01*
X110915766Y-71572968D01*
X110826787Y-71077042D01*
X110757125Y-70687223D01*
X110709524Y-70418694D01*
X110686852Y-70287397D01*
X110660622Y-70029747D01*
X110689627Y-69872626D01*
X110737083Y-69806336D01*
X110850782Y-69715897D01*
X110899589Y-69697183D01*
X110965607Y-69745537D01*
X111140338Y-69885126D01*
X111414521Y-70108295D01*
X111778895Y-70407388D01*
X112224199Y-70774752D01*
X112741171Y-71202729D01*
X113320551Y-71683666D01*
X113953076Y-72209906D01*
X114629487Y-72773795D01*
X115340520Y-73367677D01*
X115377576Y-73398657D01*
X116097297Y-74000276D01*
X116787962Y-74577345D01*
X117439670Y-75121607D01*
X118042521Y-75624807D01*
X118586614Y-76078687D01*
X119062048Y-76474991D01*
X119458922Y-76805464D01*
X119767335Y-77061848D01*
X119977387Y-77235888D01*
X120078747Y-77318984D01*
X120354160Y-77538959D01*
X121695110Y-76034483D01*
X122053661Y-75628610D01*
X122374457Y-75258559D01*
X122644216Y-74940217D01*
X122849658Y-74689472D01*
X122977502Y-74522210D01*
X123015104Y-74455467D01*
X122964753Y-74378155D01*
X122831898Y-74194093D01*
X122627930Y-73918519D01*
X122364240Y-73566669D01*
X122052221Y-73153781D01*
X121703263Y-72695092D01*
X121510265Y-72442585D01*
X120749669Y-71448261D01*
X120080159Y-70571290D01*
X119498501Y-69807366D01*
X119001459Y-69152182D01*
X118585801Y-68601431D01*
X118248292Y-68150806D01*
X117985699Y-67796000D01*
X117794788Y-67532708D01*
X117672324Y-67356621D01*
X117615073Y-67263433D01*
X117609697Y-67247987D01*
X117646969Y-67167781D01*
X117753338Y-66968968D01*
X117920635Y-66666087D01*
X118140693Y-66273676D01*
X118251902Y-66077266D01*
X124075152Y-66077266D01*
X124111568Y-66171508D01*
X124214228Y-66377246D01*
X124373242Y-66677197D01*
X124578723Y-67054078D01*
X124820785Y-67490607D01*
X125089541Y-67969500D01*
X125375102Y-68473475D01*
X125667582Y-68985250D01*
X125957093Y-69487540D01*
X126233748Y-69963063D01*
X126487661Y-70394537D01*
X126708942Y-70764678D01*
X126887706Y-71056204D01*
X127014066Y-71251832D01*
X127078132Y-71334279D01*
X127083178Y-71335268D01*
X127132959Y-71256771D01*
X127249762Y-71058785D01*
X127425161Y-70756000D01*
X127650728Y-70363111D01*
X127918036Y-69894808D01*
X128218660Y-69365785D01*
X128544173Y-68790734D01*
X128646820Y-68608958D01*
X130150871Y-65943977D01*
X128641896Y-63276487D01*
X128311752Y-62694150D01*
X128005680Y-62156732D01*
X127731807Y-61678316D01*
X127498258Y-61272986D01*
X127313159Y-60954826D01*
X127184634Y-60737918D01*
X127120811Y-60636347D01*
X127115314Y-60630559D01*
X127057957Y-60721351D01*
X126937581Y-60926728D01*
X126763943Y-61229211D01*
X126546798Y-61611322D01*
X126295904Y-62055583D01*
X126021016Y-62544514D01*
X125731889Y-63060638D01*
X125438281Y-63586474D01*
X125149946Y-64104546D01*
X124876640Y-64597374D01*
X124628121Y-65047479D01*
X124414143Y-65437383D01*
X124244463Y-65749607D01*
X124128836Y-65966673D01*
X124077020Y-66071102D01*
X124075152Y-66077266D01*
X118251902Y-66077266D01*
X118405342Y-65806271D01*
X118706413Y-65278410D01*
X119035739Y-64704632D01*
X119158545Y-64491529D01*
X119571967Y-63774616D01*
X120040301Y-62962033D01*
X120541772Y-62091590D01*
X121054603Y-61201096D01*
X121557020Y-60328361D01*
X122027248Y-59511193D01*
X122344971Y-58958788D01*
X122759741Y-58237588D01*
X123208130Y-57458139D01*
X123671431Y-56652948D01*
X124130936Y-55854520D01*
X124567937Y-55095362D01*
X124963728Y-54407979D01*
X125268541Y-53878788D01*
X125587276Y-53325409D01*
X125891507Y-52796941D01*
X126170065Y-52312805D01*
X126411781Y-51892423D01*
X126605485Y-51555218D01*
X126740008Y-51320611D01*
X126786766Y-51238761D01*
X126955576Y-50982540D01*
X127091146Y-50861944D01*
X127141441Y-50854436D01*
X127172402Y-50880536D01*
D11*
G04 #@! TO.C,Button1*
X106064000Y-84915000D02*
X106064000Y-83415000D01*
X104814000Y-80915000D02*
X100314000Y-80915000D01*
X99064000Y-83415000D02*
X99064000Y-84915000D01*
X100314000Y-87415000D02*
X104814000Y-87415000D01*
G04 #@! TO.C,D1*
X124313000Y-57542000D02*
X124313000Y-60822000D01*
X129373000Y-59182000D02*
G75*
G03X129373000Y-59182000I-2500000J0D01*
G01*
X129912999Y-59180042D02*
G75*
G02X124313000Y-60821512I-3039999J-1958D01*
G01*
X129912999Y-59183958D02*
G75*
G03X124313000Y-57542488I-3039999J1958D01*
G01*
G04 #@! TO.C,D2*
X140961999Y-78741958D02*
G75*
G03X135362000Y-77100488I-3039999J1958D01*
G01*
X140961999Y-78738042D02*
G75*
G02X135362000Y-80379512I-3039999J-1958D01*
G01*
X140422000Y-78740000D02*
G75*
G03X140422000Y-78740000I-2500000J0D01*
G01*
X135362000Y-77100000D02*
X135362000Y-80380000D01*
G04 #@! TO.C,D3*
X157714000Y-76973000D02*
X157714000Y-80253000D01*
X162774000Y-78613000D02*
G75*
G03X162774000Y-78613000I-2500000J0D01*
G01*
X163313999Y-78611042D02*
G75*
G02X157714000Y-80252512I-3039999J-1958D01*
G01*
X163313999Y-78614958D02*
G75*
G03X157714000Y-76973488I-3039999J1958D01*
G01*
G04 #@! TO.C,D4*
X151883999Y-97791958D02*
G75*
G03X146284000Y-96150488I-3039999J1958D01*
G01*
X151883999Y-97788042D02*
G75*
G02X146284000Y-99429512I-3039999J-1958D01*
G01*
X151344000Y-97790000D02*
G75*
G03X151344000Y-97790000I-2500000J0D01*
G01*
X146284000Y-96150000D02*
X146284000Y-99430000D01*
G04 #@! TO.C,D5*
X157841000Y-115962000D02*
X157841000Y-119242000D01*
X162901000Y-117602000D02*
G75*
G03X162901000Y-117602000I-2500000J0D01*
G01*
X163440999Y-117600042D02*
G75*
G02X157841000Y-119241512I-3039999J-1958D01*
G01*
X163440999Y-117603958D02*
G75*
G03X157841000Y-115962488I-3039999J1958D01*
G01*
G04 #@! TO.C,D6*
X141088999Y-117349958D02*
G75*
G03X135489000Y-115708488I-3039999J1958D01*
G01*
X141088999Y-117346042D02*
G75*
G02X135489000Y-118987512I-3039999J-1958D01*
G01*
X140549000Y-117348000D02*
G75*
G03X140549000Y-117348000I-2500000J0D01*
G01*
X135489000Y-115708000D02*
X135489000Y-118988000D01*
G04 #@! TO.C,D7*
X129785999Y-137542958D02*
G75*
G03X124186000Y-135901488I-3039999J1958D01*
G01*
X129785999Y-137539042D02*
G75*
G02X124186000Y-139180512I-3039999J-1958D01*
G01*
X129246000Y-137541000D02*
G75*
G03X129246000Y-137541000I-2500000J0D01*
G01*
X124186000Y-135901000D02*
X124186000Y-139181000D01*
G04 #@! TO.C,D8*
X113010000Y-116470000D02*
X113010000Y-119750000D01*
X118070000Y-118110000D02*
G75*
G03X118070000Y-118110000I-2500000J0D01*
G01*
X118609999Y-118108042D02*
G75*
G02X113010000Y-119749512I-3039999J-1958D01*
G01*
X118609999Y-118111958D02*
G75*
G03X113010000Y-116470488I-3039999J1958D01*
G01*
G04 #@! TO.C,D9*
X95749999Y-117603958D02*
G75*
G03X90150000Y-115962488I-3039999J1958D01*
G01*
X95749999Y-117600042D02*
G75*
G02X90150000Y-119241512I-3039999J-1958D01*
G01*
X95210000Y-117602000D02*
G75*
G03X95210000Y-117602000I-2500000J0D01*
G01*
X90150000Y-115962000D02*
X90150000Y-119242000D01*
G04 #@! TO.C,D10*
X101834000Y-96404000D02*
X101834000Y-99684000D01*
X106894000Y-98044000D02*
G75*
G03X106894000Y-98044000I-2500000J0D01*
G01*
X107433999Y-98042042D02*
G75*
G02X101834000Y-99683512I-3039999J-1958D01*
G01*
X107433999Y-98045958D02*
G75*
G03X101834000Y-96404488I-3039999J1958D01*
G01*
G04 #@! TO.C,D11*
X95114999Y-77979958D02*
G75*
G03X89515000Y-76338488I-3039999J1958D01*
G01*
X95114999Y-77976042D02*
G75*
G02X89515000Y-79617512I-3039999J-1958D01*
G01*
X94575000Y-77978000D02*
G75*
G03X94575000Y-77978000I-2500000J0D01*
G01*
X89515000Y-76338000D02*
X89515000Y-79618000D01*
G04 #@! TO.C,D12*
X113264000Y-76846000D02*
X113264000Y-80126000D01*
X118324000Y-78486000D02*
G75*
G03X118324000Y-78486000I-2500000J0D01*
G01*
X118863999Y-78484042D02*
G75*
G02X113264000Y-80125512I-3039999J-1958D01*
G01*
X118863999Y-78487958D02*
G75*
G03X113264000Y-76846488I-3039999J1958D01*
G01*
G04 #@! TO.C,D13*
X118736999Y-88901958D02*
G75*
G03X113137000Y-87260488I-3039999J1958D01*
G01*
X118736999Y-88898042D02*
G75*
G02X113137000Y-90539512I-3039999J-1958D01*
G01*
X118197000Y-88900000D02*
G75*
G03X118197000Y-88900000I-2500000J0D01*
G01*
X113137000Y-87260000D02*
X113137000Y-90540000D01*
G04 #@! TO.C,D14*
X135870000Y-105040000D02*
X135870000Y-108320000D01*
X140930000Y-106680000D02*
G75*
G03X140930000Y-106680000I-2500000J0D01*
G01*
X141469999Y-106678042D02*
G75*
G02X135870000Y-108319512I-3039999J-1958D01*
G01*
X141469999Y-106681958D02*
G75*
G03X135870000Y-105040488I-3039999J1958D01*
G01*
G04 #@! TO.C,D15*
X141469999Y-88901958D02*
G75*
G03X135870000Y-87260488I-3039999J1958D01*
G01*
X141469999Y-88898042D02*
G75*
G02X135870000Y-90539512I-3039999J-1958D01*
G01*
X140930000Y-88900000D02*
G75*
G03X140930000Y-88900000I-2500000J0D01*
G01*
X135870000Y-87260000D02*
X135870000Y-90540000D01*
G04 #@! TO.C,D16*
X113645000Y-105040000D02*
X113645000Y-108320000D01*
X118705000Y-106680000D02*
G75*
G03X118705000Y-106680000I-2500000J0D01*
G01*
X119244999Y-106678042D02*
G75*
G02X113645000Y-108319512I-3039999J-1958D01*
G01*
X119244999Y-106681958D02*
G75*
G03X113645000Y-105040488I-3039999J1958D01*
G01*
G04 #@! TO.C,Tiny85*
X128869000Y-73473000D02*
X127619000Y-73473000D01*
X128869000Y-83753000D02*
X128869000Y-73473000D01*
X124369000Y-83753000D02*
X128869000Y-83753000D01*
X124369000Y-73473000D02*
X124369000Y-83753000D01*
X125619000Y-73473000D02*
X124369000Y-73473000D01*
X127619000Y-73473000D02*
G75*
G02X125619000Y-73473000I-1000000J0D01*
G01*
G04 #@! TO.C,Power1*
X149800000Y-79061000D02*
X151130000Y-79061000D01*
X149800000Y-80391000D02*
X149800000Y-79061000D01*
X149800000Y-81661000D02*
X152460000Y-81661000D01*
X152460000Y-81661000D02*
X152460000Y-86801000D01*
X149800000Y-81661000D02*
X149800000Y-86801000D01*
X149800000Y-86801000D02*
X152460000Y-86801000D01*
G04 #@! TO.C,Shift1*
X126127000Y-132140000D02*
G75*
G02X128127000Y-132140000I1000000J0D01*
G01*
X128127000Y-132140000D02*
X129777000Y-132140000D01*
X129777000Y-132140000D02*
X129777000Y-111700000D01*
X129777000Y-111700000D02*
X124477000Y-111700000D01*
X124477000Y-111700000D02*
X124477000Y-132140000D01*
X124477000Y-132140000D02*
X126127000Y-132140000D01*
G04 #@! TO.C,Button1*
D12*
X100230666Y-79843571D02*
X100373523Y-79891190D01*
X100421142Y-79938809D01*
X100468761Y-80034047D01*
X100468761Y-80176904D01*
X100421142Y-80272142D01*
X100373523Y-80319761D01*
X100278285Y-80367380D01*
X99897333Y-80367380D01*
X99897333Y-79367380D01*
X100230666Y-79367380D01*
X100325904Y-79415000D01*
X100373523Y-79462619D01*
X100421142Y-79557857D01*
X100421142Y-79653095D01*
X100373523Y-79748333D01*
X100325904Y-79795952D01*
X100230666Y-79843571D01*
X99897333Y-79843571D01*
X101325904Y-79700714D02*
X101325904Y-80367380D01*
X100897333Y-79700714D02*
X100897333Y-80224523D01*
X100944952Y-80319761D01*
X101040190Y-80367380D01*
X101183047Y-80367380D01*
X101278285Y-80319761D01*
X101325904Y-80272142D01*
X101659238Y-79700714D02*
X102040190Y-79700714D01*
X101802095Y-79367380D02*
X101802095Y-80224523D01*
X101849714Y-80319761D01*
X101944952Y-80367380D01*
X102040190Y-80367380D01*
X102230666Y-79700714D02*
X102611619Y-79700714D01*
X102373523Y-79367380D02*
X102373523Y-80224523D01*
X102421142Y-80319761D01*
X102516380Y-80367380D01*
X102611619Y-80367380D01*
X103087809Y-80367380D02*
X102992571Y-80319761D01*
X102944952Y-80272142D01*
X102897333Y-80176904D01*
X102897333Y-79891190D01*
X102944952Y-79795952D01*
X102992571Y-79748333D01*
X103087809Y-79700714D01*
X103230666Y-79700714D01*
X103325904Y-79748333D01*
X103373523Y-79795952D01*
X103421142Y-79891190D01*
X103421142Y-80176904D01*
X103373523Y-80272142D01*
X103325904Y-80319761D01*
X103230666Y-80367380D01*
X103087809Y-80367380D01*
X103849714Y-79700714D02*
X103849714Y-80367380D01*
X103849714Y-79795952D02*
X103897333Y-79748333D01*
X103992571Y-79700714D01*
X104135428Y-79700714D01*
X104230666Y-79748333D01*
X104278285Y-79843571D01*
X104278285Y-80367380D01*
X105278285Y-80367380D02*
X104706857Y-80367380D01*
X104992571Y-80367380D02*
X104992571Y-79367380D01*
X104897333Y-79510238D01*
X104802095Y-79605476D01*
X104706857Y-79653095D01*
G04 #@! TO.C,Tiny85*
X124309476Y-71925380D02*
X124880904Y-71925380D01*
X124595190Y-72925380D02*
X124595190Y-71925380D01*
X125214238Y-72925380D02*
X125214238Y-72258714D01*
X125214238Y-71925380D02*
X125166619Y-71973000D01*
X125214238Y-72020619D01*
X125261857Y-71973000D01*
X125214238Y-71925380D01*
X125214238Y-72020619D01*
X125690428Y-72258714D02*
X125690428Y-72925380D01*
X125690428Y-72353952D02*
X125738047Y-72306333D01*
X125833285Y-72258714D01*
X125976142Y-72258714D01*
X126071380Y-72306333D01*
X126119000Y-72401571D01*
X126119000Y-72925380D01*
X126499952Y-72258714D02*
X126738047Y-72925380D01*
X126976142Y-72258714D02*
X126738047Y-72925380D01*
X126642809Y-73163476D01*
X126595190Y-73211095D01*
X126499952Y-73258714D01*
X127499952Y-72353952D02*
X127404714Y-72306333D01*
X127357095Y-72258714D01*
X127309476Y-72163476D01*
X127309476Y-72115857D01*
X127357095Y-72020619D01*
X127404714Y-71973000D01*
X127499952Y-71925380D01*
X127690428Y-71925380D01*
X127785666Y-71973000D01*
X127833285Y-72020619D01*
X127880904Y-72115857D01*
X127880904Y-72163476D01*
X127833285Y-72258714D01*
X127785666Y-72306333D01*
X127690428Y-72353952D01*
X127499952Y-72353952D01*
X127404714Y-72401571D01*
X127357095Y-72449190D01*
X127309476Y-72544428D01*
X127309476Y-72734904D01*
X127357095Y-72830142D01*
X127404714Y-72877761D01*
X127499952Y-72925380D01*
X127690428Y-72925380D01*
X127785666Y-72877761D01*
X127833285Y-72830142D01*
X127880904Y-72734904D01*
X127880904Y-72544428D01*
X127833285Y-72449190D01*
X127785666Y-72401571D01*
X127690428Y-72353952D01*
X128785666Y-71925380D02*
X128309476Y-71925380D01*
X128261857Y-72401571D01*
X128309476Y-72353952D01*
X128404714Y-72306333D01*
X128642809Y-72306333D01*
X128738047Y-72353952D01*
X128785666Y-72401571D01*
X128833285Y-72496809D01*
X128833285Y-72734904D01*
X128785666Y-72830142D01*
X128738047Y-72877761D01*
X128642809Y-72925380D01*
X128404714Y-72925380D01*
X128309476Y-72877761D01*
X128261857Y-72830142D01*
G04 #@! TO.C,Power1*
X148677619Y-78513380D02*
X148677619Y-77513380D01*
X149058571Y-77513380D01*
X149153809Y-77561000D01*
X149201428Y-77608619D01*
X149249047Y-77703857D01*
X149249047Y-77846714D01*
X149201428Y-77941952D01*
X149153809Y-77989571D01*
X149058571Y-78037190D01*
X148677619Y-78037190D01*
X149820476Y-78513380D02*
X149725238Y-78465761D01*
X149677619Y-78418142D01*
X149630000Y-78322904D01*
X149630000Y-78037190D01*
X149677619Y-77941952D01*
X149725238Y-77894333D01*
X149820476Y-77846714D01*
X149963333Y-77846714D01*
X150058571Y-77894333D01*
X150106190Y-77941952D01*
X150153809Y-78037190D01*
X150153809Y-78322904D01*
X150106190Y-78418142D01*
X150058571Y-78465761D01*
X149963333Y-78513380D01*
X149820476Y-78513380D01*
X150487142Y-77846714D02*
X150677619Y-78513380D01*
X150868095Y-78037190D01*
X151058571Y-78513380D01*
X151249047Y-77846714D01*
X152010952Y-78465761D02*
X151915714Y-78513380D01*
X151725238Y-78513380D01*
X151630000Y-78465761D01*
X151582380Y-78370523D01*
X151582380Y-77989571D01*
X151630000Y-77894333D01*
X151725238Y-77846714D01*
X151915714Y-77846714D01*
X152010952Y-77894333D01*
X152058571Y-77989571D01*
X152058571Y-78084809D01*
X151582380Y-78180047D01*
X152487142Y-78513380D02*
X152487142Y-77846714D01*
X152487142Y-78037190D02*
X152534761Y-77941952D01*
X152582380Y-77894333D01*
X152677619Y-77846714D01*
X152772857Y-77846714D01*
X153630000Y-78513380D02*
X153058571Y-78513380D01*
X153344285Y-78513380D02*
X153344285Y-77513380D01*
X153249047Y-77656238D01*
X153153809Y-77751476D01*
X153058571Y-77799095D01*
G04 #@! TO.C,Shift1*
X125103190Y-133544761D02*
X125246047Y-133592380D01*
X125484142Y-133592380D01*
X125579380Y-133544761D01*
X125627000Y-133497142D01*
X125674619Y-133401904D01*
X125674619Y-133306666D01*
X125627000Y-133211428D01*
X125579380Y-133163809D01*
X125484142Y-133116190D01*
X125293666Y-133068571D01*
X125198428Y-133020952D01*
X125150809Y-132973333D01*
X125103190Y-132878095D01*
X125103190Y-132782857D01*
X125150809Y-132687619D01*
X125198428Y-132640000D01*
X125293666Y-132592380D01*
X125531761Y-132592380D01*
X125674619Y-132640000D01*
X126103190Y-133592380D02*
X126103190Y-132592380D01*
X126531761Y-133592380D02*
X126531761Y-133068571D01*
X126484142Y-132973333D01*
X126388904Y-132925714D01*
X126246047Y-132925714D01*
X126150809Y-132973333D01*
X126103190Y-133020952D01*
X127007952Y-133592380D02*
X127007952Y-132925714D01*
X127007952Y-132592380D02*
X126960333Y-132640000D01*
X127007952Y-132687619D01*
X127055571Y-132640000D01*
X127007952Y-132592380D01*
X127007952Y-132687619D01*
X127341285Y-132925714D02*
X127722238Y-132925714D01*
X127484142Y-133592380D02*
X127484142Y-132735238D01*
X127531761Y-132640000D01*
X127627000Y-132592380D01*
X127722238Y-132592380D01*
X127912714Y-132925714D02*
X128293666Y-132925714D01*
X128055571Y-132592380D02*
X128055571Y-133449523D01*
X128103190Y-133544761D01*
X128198428Y-133592380D01*
X128293666Y-133592380D01*
X129150809Y-133592380D02*
X128579380Y-133592380D01*
X128865095Y-133592380D02*
X128865095Y-132592380D01*
X128769857Y-132735238D01*
X128674619Y-132830476D01*
X128579380Y-132878095D01*
G04 #@! TO.C,*
G04 #@! TD*
M02*
