G04 #@! TF.GenerationSoftware,KiCad,Pcbnew,(5.0.0)*
G04 #@! TF.CreationDate,2018-11-01T22:36:59-04:00*
G04 #@! TF.ProjectId,Snowflake,536E6F77666C616B652E6B696361645F,rev?*
G04 #@! TF.SameCoordinates,Original*
G04 #@! TF.FileFunction,Legend,Bot*
G04 #@! TF.FilePolarity,Positive*
%FSLAX46Y46*%
G04 Gerber Fmt 4.6, Leading zero omitted, Abs format (unit mm)*
G04 Created by KiCad (PCBNEW (5.0.0)) date 11/01/18 22:36:59*
%MOMM*%
%LPD*%
G01*
G04 APERTURE LIST*
%ADD10C,0.300000*%
%ADD11C,0.375000*%
%ADD12C,0.100000*%
%ADD13C,0.250000*%
%ADD14C,0.010000*%
%ADD15C,0.150000*%
G04 APERTURE END LIST*
D10*
X105957142Y-109893571D02*
X106814285Y-109893571D01*
X106385714Y-109893571D02*
X106385714Y-108393571D01*
X106528571Y-108607857D01*
X106671428Y-108750714D01*
X106814285Y-108822142D01*
X104171428Y-109893571D02*
X104171428Y-108393571D01*
X103314285Y-109893571D01*
X103314285Y-108393571D01*
X102314285Y-108393571D02*
X102028571Y-108393571D01*
X101885714Y-108465000D01*
X101742857Y-108607857D01*
X101671428Y-108893571D01*
X101671428Y-109393571D01*
X101742857Y-109679285D01*
X101885714Y-109822142D01*
X102028571Y-109893571D01*
X102314285Y-109893571D01*
X102457142Y-109822142D01*
X102600000Y-109679285D01*
X102671428Y-109393571D01*
X102671428Y-108893571D01*
X102600000Y-108607857D01*
X102457142Y-108465000D01*
X102314285Y-108393571D01*
X101242857Y-108393571D02*
X100742857Y-109893571D01*
X100242857Y-108393571D01*
X97814285Y-109893571D02*
X98671428Y-109893571D01*
X98242857Y-109893571D02*
X98242857Y-108393571D01*
X98385714Y-108607857D01*
X98528571Y-108750714D01*
X98671428Y-108822142D01*
X96957142Y-109036428D02*
X97100000Y-108965000D01*
X97171428Y-108893571D01*
X97242857Y-108750714D01*
X97242857Y-108679285D01*
X97171428Y-108536428D01*
X97100000Y-108465000D01*
X96957142Y-108393571D01*
X96671428Y-108393571D01*
X96528571Y-108465000D01*
X96457142Y-108536428D01*
X96385714Y-108679285D01*
X96385714Y-108750714D01*
X96457142Y-108893571D01*
X96528571Y-108965000D01*
X96671428Y-109036428D01*
X96957142Y-109036428D01*
X97100000Y-109107857D01*
X97171428Y-109179285D01*
X97242857Y-109322142D01*
X97242857Y-109607857D01*
X97171428Y-109750714D01*
X97100000Y-109822142D01*
X96957142Y-109893571D01*
X96671428Y-109893571D01*
X96528571Y-109822142D01*
X96457142Y-109750714D01*
X96385714Y-109607857D01*
X96385714Y-109322142D01*
X96457142Y-109179285D01*
X96528571Y-109107857D01*
X96671428Y-109036428D01*
X104814285Y-112443571D02*
X105314285Y-111729285D01*
X105671428Y-112443571D02*
X105671428Y-110943571D01*
X105100000Y-110943571D01*
X104957142Y-111015000D01*
X104885714Y-111086428D01*
X104814285Y-111229285D01*
X104814285Y-111443571D01*
X104885714Y-111586428D01*
X104957142Y-111657857D01*
X105100000Y-111729285D01*
X105671428Y-111729285D01*
X104171428Y-111657857D02*
X103671428Y-111657857D01*
X103457142Y-112443571D02*
X104171428Y-112443571D01*
X104171428Y-110943571D01*
X103457142Y-110943571D01*
X103028571Y-110943571D02*
X102528571Y-112443571D01*
X102028571Y-110943571D01*
X99600000Y-112443571D02*
X100457142Y-112443571D01*
X100028571Y-112443571D02*
X100028571Y-110943571D01*
X100171428Y-111157857D01*
X100314285Y-111300714D01*
X100457142Y-111372142D01*
X98957142Y-112300714D02*
X98885714Y-112372142D01*
X98957142Y-112443571D01*
X99028571Y-112372142D01*
X98957142Y-112300714D01*
X98957142Y-112443571D01*
X97957142Y-110943571D02*
X97814285Y-110943571D01*
X97671428Y-111015000D01*
X97600000Y-111086428D01*
X97528571Y-111229285D01*
X97457142Y-111515000D01*
X97457142Y-111872142D01*
X97528571Y-112157857D01*
X97600000Y-112300714D01*
X97671428Y-112372142D01*
X97814285Y-112443571D01*
X97957142Y-112443571D01*
X98100000Y-112372142D01*
X98171428Y-112300714D01*
X98242857Y-112157857D01*
X98314285Y-111872142D01*
X98314285Y-111515000D01*
X98242857Y-111229285D01*
X98171428Y-111086428D01*
X98100000Y-111015000D01*
X97957142Y-110943571D01*
D11*
X129035714Y-64601571D02*
X129035714Y-63101571D01*
X128321428Y-63815857D02*
X127821428Y-63815857D01*
X127607142Y-64601571D02*
X128321428Y-64601571D01*
X128321428Y-63101571D01*
X127607142Y-63101571D01*
X126964285Y-63815857D02*
X126464285Y-63815857D01*
X126250000Y-64601571D02*
X126964285Y-64601571D01*
X126964285Y-63101571D01*
X126250000Y-63101571D01*
X125607142Y-63815857D02*
X125107142Y-63815857D01*
X124892857Y-64601571D02*
X125607142Y-64601571D01*
X125607142Y-63101571D01*
X124892857Y-63101571D01*
X132892857Y-67155142D02*
X132678571Y-67226571D01*
X132321428Y-67226571D01*
X132178571Y-67155142D01*
X132107142Y-67083714D01*
X132035714Y-66940857D01*
X132035714Y-66798000D01*
X132107142Y-66655142D01*
X132178571Y-66583714D01*
X132321428Y-66512285D01*
X132607142Y-66440857D01*
X132750000Y-66369428D01*
X132821428Y-66298000D01*
X132892857Y-66155142D01*
X132892857Y-66012285D01*
X132821428Y-65869428D01*
X132750000Y-65798000D01*
X132607142Y-65726571D01*
X132250000Y-65726571D01*
X132035714Y-65798000D01*
X131107142Y-65726571D02*
X130821428Y-65726571D01*
X130678571Y-65798000D01*
X130535714Y-65940857D01*
X130464285Y-66226571D01*
X130464285Y-66726571D01*
X130535714Y-67012285D01*
X130678571Y-67155142D01*
X130821428Y-67226571D01*
X131107142Y-67226571D01*
X131250000Y-67155142D01*
X131392857Y-67012285D01*
X131464285Y-66726571D01*
X131464285Y-66226571D01*
X131392857Y-65940857D01*
X131250000Y-65798000D01*
X131107142Y-65726571D01*
X129107142Y-67226571D02*
X129821428Y-67226571D01*
X129821428Y-65726571D01*
X128607142Y-67226571D02*
X128607142Y-65726571D01*
X128250000Y-65726571D01*
X128035714Y-65798000D01*
X127892857Y-65940857D01*
X127821428Y-66083714D01*
X127750000Y-66369428D01*
X127750000Y-66583714D01*
X127821428Y-66869428D01*
X127892857Y-67012285D01*
X128035714Y-67155142D01*
X128250000Y-67226571D01*
X128607142Y-67226571D01*
X127107142Y-66440857D02*
X126607142Y-66440857D01*
X126392857Y-67226571D02*
X127107142Y-67226571D01*
X127107142Y-65726571D01*
X126392857Y-65726571D01*
X124892857Y-67226571D02*
X125392857Y-66512285D01*
X125750000Y-67226571D02*
X125750000Y-65726571D01*
X125178571Y-65726571D01*
X125035714Y-65798000D01*
X124964285Y-65869428D01*
X124892857Y-66012285D01*
X124892857Y-66226571D01*
X124964285Y-66369428D01*
X125035714Y-66440857D01*
X125178571Y-66512285D01*
X125750000Y-66512285D01*
X124250000Y-67226571D02*
X124250000Y-65726571D01*
X123535714Y-67226571D02*
X123535714Y-65726571D01*
X122678571Y-67226571D01*
X122678571Y-65726571D01*
X121178571Y-65798000D02*
X121321428Y-65726571D01*
X121535714Y-65726571D01*
X121750000Y-65798000D01*
X121892857Y-65940857D01*
X121964285Y-66083714D01*
X122035714Y-66369428D01*
X122035714Y-66583714D01*
X121964285Y-66869428D01*
X121892857Y-67012285D01*
X121750000Y-67155142D01*
X121535714Y-67226571D01*
X121392857Y-67226571D01*
X121178571Y-67155142D01*
X121107142Y-67083714D01*
X121107142Y-66583714D01*
X121392857Y-66583714D01*
X133428571Y-69065857D02*
X132928571Y-69065857D01*
X132714285Y-69851571D02*
X133428571Y-69851571D01*
X133428571Y-68351571D01*
X132714285Y-68351571D01*
X132285714Y-68351571D02*
X131785714Y-69851571D01*
X131285714Y-68351571D01*
X130785714Y-69065857D02*
X130285714Y-69065857D01*
X130071428Y-69851571D02*
X130785714Y-69851571D01*
X130785714Y-68351571D01*
X130071428Y-68351571D01*
X129428571Y-69851571D02*
X129428571Y-68351571D01*
X128571428Y-69851571D01*
X128571428Y-68351571D01*
X128071428Y-68351571D02*
X127214285Y-68351571D01*
X127642857Y-69851571D02*
X127642857Y-68351571D01*
X125642857Y-68494428D02*
X125571428Y-68423000D01*
X125428571Y-68351571D01*
X125071428Y-68351571D01*
X124928571Y-68423000D01*
X124857142Y-68494428D01*
X124785714Y-68637285D01*
X124785714Y-68780142D01*
X124857142Y-68994428D01*
X125714285Y-69851571D01*
X124785714Y-69851571D01*
X123857142Y-68351571D02*
X123714285Y-68351571D01*
X123571428Y-68423000D01*
X123500000Y-68494428D01*
X123428571Y-68637285D01*
X123357142Y-68923000D01*
X123357142Y-69280142D01*
X123428571Y-69565857D01*
X123500000Y-69708714D01*
X123571428Y-69780142D01*
X123714285Y-69851571D01*
X123857142Y-69851571D01*
X124000000Y-69780142D01*
X124071428Y-69708714D01*
X124142857Y-69565857D01*
X124214285Y-69280142D01*
X124214285Y-68923000D01*
X124142857Y-68637285D01*
X124071428Y-68494428D01*
X124000000Y-68423000D01*
X123857142Y-68351571D01*
X121928571Y-69851571D02*
X122785714Y-69851571D01*
X122357142Y-69851571D02*
X122357142Y-68351571D01*
X122500000Y-68565857D01*
X122642857Y-68708714D01*
X122785714Y-68780142D01*
X121071428Y-68994428D02*
X121214285Y-68923000D01*
X121285714Y-68851571D01*
X121357142Y-68708714D01*
X121357142Y-68637285D01*
X121285714Y-68494428D01*
X121214285Y-68423000D01*
X121071428Y-68351571D01*
X120785714Y-68351571D01*
X120642857Y-68423000D01*
X120571428Y-68494428D01*
X120500000Y-68637285D01*
X120500000Y-68708714D01*
X120571428Y-68851571D01*
X120642857Y-68923000D01*
X120785714Y-68994428D01*
X121071428Y-68994428D01*
X121214285Y-69065857D01*
X121285714Y-69137285D01*
X121357142Y-69280142D01*
X121357142Y-69565857D01*
X121285714Y-69708714D01*
X121214285Y-69780142D01*
X121071428Y-69851571D01*
X120785714Y-69851571D01*
X120642857Y-69780142D01*
X120571428Y-69708714D01*
X120500000Y-69565857D01*
X120500000Y-69280142D01*
X120571428Y-69137285D01*
X120642857Y-69065857D01*
X120785714Y-68994428D01*
D12*
G04 #@! TO.C,D1*
X130530600Y-59182000D02*
G75*
G03X130530600Y-59182000I-3606800J0D01*
G01*
G04 #@! TO.C,D2*
X141579600Y-78740000D02*
G75*
G03X141579600Y-78740000I-3606800J0D01*
G01*
G04 #@! TO.C,D3*
X163931600Y-78613000D02*
G75*
G03X163931600Y-78613000I-3606800J0D01*
G01*
G04 #@! TO.C,D4*
X152501600Y-97790000D02*
G75*
G03X152501600Y-97790000I-3606800J0D01*
G01*
G04 #@! TO.C,D5*
X164058600Y-117602000D02*
G75*
G03X164058600Y-117602000I-3606800J0D01*
G01*
G04 #@! TO.C,D6*
X141706600Y-117348000D02*
G75*
G03X141706600Y-117348000I-3606800J0D01*
G01*
G04 #@! TO.C,D7*
X130403600Y-137541000D02*
G75*
G03X130403600Y-137541000I-3606800J0D01*
G01*
G04 #@! TO.C,D8*
X119227600Y-118110000D02*
G75*
G03X119227600Y-118110000I-3606800J0D01*
G01*
G04 #@! TO.C,D9*
X96367600Y-117602000D02*
G75*
G03X96367600Y-117602000I-3606800J0D01*
G01*
G04 #@! TO.C,D10*
X108051600Y-98044000D02*
G75*
G03X108051600Y-98044000I-3606800J0D01*
G01*
G04 #@! TO.C,D11*
X95732600Y-77978000D02*
G75*
G03X95732600Y-77978000I-3606800J0D01*
G01*
G04 #@! TO.C,D12*
X119481600Y-78486000D02*
G75*
G03X119481600Y-78486000I-3606800J0D01*
G01*
G04 #@! TO.C,D13*
X119354600Y-88900000D02*
G75*
G03X119354600Y-88900000I-3606800J0D01*
G01*
G04 #@! TO.C,D14*
X142087600Y-106680000D02*
G75*
G03X142087600Y-106680000I-3606800J0D01*
G01*
G04 #@! TO.C,D15*
X142087600Y-88900000D02*
G75*
G03X142087600Y-88900000I-3606800J0D01*
G01*
G04 #@! TO.C,D16*
X119862600Y-106680000D02*
G75*
G03X119862600Y-106680000I-3606800J0D01*
G01*
D13*
G04 #@! TO.C,Battery1*
X127254000Y-110036000D02*
X130754000Y-110036000D01*
X130754000Y-110036000D02*
X130754000Y-108036000D01*
X127254000Y-110036000D02*
X124254000Y-110036000D01*
X124254000Y-110036000D02*
X123754000Y-110036000D01*
X123754000Y-110036000D02*
X123754000Y-108036000D01*
X138254000Y-97536000D02*
G75*
G03X138254000Y-97536000I-11000000J0D01*
G01*
D14*
G04 #@! TO.C,G\002A\002A\002A*
G36*
X141824504Y-109057605D02*
X141723694Y-109107097D01*
X141604679Y-109219086D01*
X141529694Y-109354740D01*
X141499403Y-109503036D01*
X141514472Y-109652949D01*
X141575566Y-109793458D01*
X141675419Y-109906998D01*
X141768753Y-109966696D01*
X141881073Y-110012828D01*
X141985915Y-110035329D01*
X142014223Y-110035861D01*
X142072269Y-110026256D01*
X142133000Y-110010549D01*
X142266517Y-109943280D01*
X142378033Y-109835966D01*
X142456887Y-109702863D01*
X142492415Y-109558232D01*
X142493381Y-109528589D01*
X142466156Y-109379264D01*
X142393025Y-109240019D01*
X142283955Y-109128932D01*
X142266154Y-109116503D01*
X142125394Y-109052884D01*
X141972589Y-109033154D01*
X141824504Y-109057605D01*
X141824504Y-109057605D01*
G37*
X141824504Y-109057605D02*
X141723694Y-109107097D01*
X141604679Y-109219086D01*
X141529694Y-109354740D01*
X141499403Y-109503036D01*
X141514472Y-109652949D01*
X141575566Y-109793458D01*
X141675419Y-109906998D01*
X141768753Y-109966696D01*
X141881073Y-110012828D01*
X141985915Y-110035329D01*
X142014223Y-110035861D01*
X142072269Y-110026256D01*
X142133000Y-110010549D01*
X142266517Y-109943280D01*
X142378033Y-109835966D01*
X142456887Y-109702863D01*
X142492415Y-109558232D01*
X142493381Y-109528589D01*
X142466156Y-109379264D01*
X142393025Y-109240019D01*
X142283955Y-109128932D01*
X142266154Y-109116503D01*
X142125394Y-109052884D01*
X141972589Y-109033154D01*
X141824504Y-109057605D01*
G36*
X133648679Y-110159236D02*
X133398000Y-110201004D01*
X133182567Y-110283463D01*
X133005111Y-110403884D01*
X132868361Y-110559540D01*
X132775049Y-110747704D01*
X132727903Y-110965648D01*
X132722492Y-111084432D01*
X132749207Y-111299863D01*
X132824850Y-111489486D01*
X132946927Y-111649260D01*
X133112947Y-111775145D01*
X133165669Y-111803136D01*
X133295103Y-111850967D01*
X133465550Y-111886930D01*
X133680891Y-111911508D01*
X133945004Y-111925183D01*
X134175500Y-111928568D01*
X134316987Y-111929560D01*
X134411428Y-111932781D01*
X134468217Y-111939763D01*
X134496747Y-111952038D01*
X134506413Y-111971138D01*
X134507111Y-111982651D01*
X134481122Y-112060065D01*
X134411529Y-112130311D01*
X134312400Y-112180156D01*
X134249151Y-112190976D01*
X134134865Y-112199765D01*
X133974917Y-112206299D01*
X133774686Y-112210356D01*
X133550400Y-112211713D01*
X133353294Y-112212979D01*
X133170674Y-112216449D01*
X133011851Y-112221769D01*
X132886134Y-112228586D01*
X132802832Y-112236548D01*
X132779784Y-112240907D01*
X132663555Y-112295200D01*
X132592403Y-112382220D01*
X132564888Y-112504202D01*
X132566433Y-112572013D01*
X132584270Y-112681790D01*
X132622997Y-112762527D01*
X132660930Y-112808322D01*
X132713093Y-112860516D01*
X132764886Y-112901323D01*
X132823945Y-112932223D01*
X132897908Y-112954697D01*
X132994412Y-112970225D01*
X133121096Y-112980286D01*
X133285596Y-112986362D01*
X133495550Y-112989931D01*
X133604000Y-112991087D01*
X133805336Y-112991796D01*
X133999928Y-112990219D01*
X134176596Y-112986617D01*
X134324162Y-112981254D01*
X134431447Y-112974392D01*
X134463301Y-112970926D01*
X134712707Y-112913404D01*
X134924503Y-112814816D01*
X135097400Y-112677306D01*
X135230105Y-112503015D01*
X135321329Y-112294085D01*
X135369782Y-112052659D01*
X135374172Y-111780880D01*
X135340038Y-111515538D01*
X135274852Y-111268239D01*
X135267566Y-111252000D01*
X134343321Y-111252000D01*
X134023050Y-111251584D01*
X133857295Y-111247843D01*
X133729235Y-111237586D01*
X133646921Y-111221552D01*
X133632223Y-111215662D01*
X133568897Y-111157468D01*
X133549453Y-111079288D01*
X133574397Y-110997254D01*
X133623622Y-110942045D01*
X133726581Y-110894398D01*
X133850432Y-110888290D01*
X133982813Y-110919649D01*
X134111361Y-110984405D01*
X134223714Y-111078489D01*
X134286514Y-111160278D01*
X134343321Y-111252000D01*
X135267566Y-111252000D01*
X135174727Y-111045099D01*
X135032880Y-110833874D01*
X134848490Y-110628268D01*
X134624938Y-110432337D01*
X134397084Y-110290247D01*
X134158383Y-110199439D01*
X133902289Y-110157353D01*
X133648679Y-110159236D01*
X133648679Y-110159236D01*
G37*
X133648679Y-110159236D02*
X133398000Y-110201004D01*
X133182567Y-110283463D01*
X133005111Y-110403884D01*
X132868361Y-110559540D01*
X132775049Y-110747704D01*
X132727903Y-110965648D01*
X132722492Y-111084432D01*
X132749207Y-111299863D01*
X132824850Y-111489486D01*
X132946927Y-111649260D01*
X133112947Y-111775145D01*
X133165669Y-111803136D01*
X133295103Y-111850967D01*
X133465550Y-111886930D01*
X133680891Y-111911508D01*
X133945004Y-111925183D01*
X134175500Y-111928568D01*
X134316987Y-111929560D01*
X134411428Y-111932781D01*
X134468217Y-111939763D01*
X134496747Y-111952038D01*
X134506413Y-111971138D01*
X134507111Y-111982651D01*
X134481122Y-112060065D01*
X134411529Y-112130311D01*
X134312400Y-112180156D01*
X134249151Y-112190976D01*
X134134865Y-112199765D01*
X133974917Y-112206299D01*
X133774686Y-112210356D01*
X133550400Y-112211713D01*
X133353294Y-112212979D01*
X133170674Y-112216449D01*
X133011851Y-112221769D01*
X132886134Y-112228586D01*
X132802832Y-112236548D01*
X132779784Y-112240907D01*
X132663555Y-112295200D01*
X132592403Y-112382220D01*
X132564888Y-112504202D01*
X132566433Y-112572013D01*
X132584270Y-112681790D01*
X132622997Y-112762527D01*
X132660930Y-112808322D01*
X132713093Y-112860516D01*
X132764886Y-112901323D01*
X132823945Y-112932223D01*
X132897908Y-112954697D01*
X132994412Y-112970225D01*
X133121096Y-112980286D01*
X133285596Y-112986362D01*
X133495550Y-112989931D01*
X133604000Y-112991087D01*
X133805336Y-112991796D01*
X133999928Y-112990219D01*
X134176596Y-112986617D01*
X134324162Y-112981254D01*
X134431447Y-112974392D01*
X134463301Y-112970926D01*
X134712707Y-112913404D01*
X134924503Y-112814816D01*
X135097400Y-112677306D01*
X135230105Y-112503015D01*
X135321329Y-112294085D01*
X135369782Y-112052659D01*
X135374172Y-111780880D01*
X135340038Y-111515538D01*
X135274852Y-111268239D01*
X135267566Y-111252000D01*
X134343321Y-111252000D01*
X134023050Y-111251584D01*
X133857295Y-111247843D01*
X133729235Y-111237586D01*
X133646921Y-111221552D01*
X133632223Y-111215662D01*
X133568897Y-111157468D01*
X133549453Y-111079288D01*
X133574397Y-110997254D01*
X133623622Y-110942045D01*
X133726581Y-110894398D01*
X133850432Y-110888290D01*
X133982813Y-110919649D01*
X134111361Y-110984405D01*
X134223714Y-111078489D01*
X134286514Y-111160278D01*
X134343321Y-111252000D01*
X135267566Y-111252000D01*
X135174727Y-111045099D01*
X135032880Y-110833874D01*
X134848490Y-110628268D01*
X134624938Y-110432337D01*
X134397084Y-110290247D01*
X134158383Y-110199439D01*
X133902289Y-110157353D01*
X133648679Y-110159236D01*
G36*
X136640235Y-110159236D02*
X136389556Y-110201004D01*
X136174123Y-110283463D01*
X135996666Y-110403884D01*
X135859917Y-110559540D01*
X135766604Y-110747704D01*
X135719458Y-110965648D01*
X135714048Y-111084432D01*
X135740763Y-111299863D01*
X135816405Y-111489486D01*
X135938482Y-111649260D01*
X136104503Y-111775145D01*
X136157225Y-111803136D01*
X136286658Y-111850967D01*
X136457106Y-111886930D01*
X136672446Y-111911508D01*
X136936560Y-111925183D01*
X137167056Y-111928568D01*
X137308543Y-111929560D01*
X137402984Y-111932781D01*
X137459773Y-111939763D01*
X137488303Y-111952038D01*
X137497969Y-111971138D01*
X137498667Y-111982651D01*
X137472677Y-112060065D01*
X137403085Y-112130311D01*
X137303956Y-112180156D01*
X137240707Y-112190976D01*
X137126420Y-112199765D01*
X136966473Y-112206299D01*
X136766242Y-112210356D01*
X136541956Y-112211713D01*
X136344849Y-112212979D01*
X136162230Y-112216449D01*
X136003407Y-112221769D01*
X135877690Y-112228586D01*
X135794388Y-112236548D01*
X135771340Y-112240907D01*
X135655420Y-112298911D01*
X135580370Y-112393542D01*
X135551491Y-112517867D01*
X135551334Y-112528596D01*
X135575625Y-112682497D01*
X135647452Y-112806979D01*
X135765245Y-112900451D01*
X135927433Y-112961326D01*
X135991703Y-112974199D01*
X136084078Y-112983747D01*
X136221082Y-112990750D01*
X136390959Y-112995244D01*
X136581953Y-112997263D01*
X136782308Y-112996844D01*
X136980268Y-112994022D01*
X137164076Y-112988831D01*
X137321976Y-112981307D01*
X137442212Y-112971486D01*
X137456334Y-112969809D01*
X137699893Y-112914659D01*
X137908715Y-112816665D01*
X138080942Y-112678861D01*
X138214717Y-112504282D01*
X138308181Y-112295962D01*
X138359478Y-112056935D01*
X138366750Y-111790237D01*
X138335099Y-111534222D01*
X138272444Y-111287340D01*
X138257427Y-111252000D01*
X137334877Y-111252000D01*
X137014605Y-111251584D01*
X136848851Y-111247843D01*
X136720791Y-111237586D01*
X136638476Y-111221552D01*
X136623778Y-111215662D01*
X136560453Y-111157468D01*
X136541008Y-111079288D01*
X136565952Y-110997254D01*
X136615178Y-110942045D01*
X136718136Y-110894398D01*
X136841987Y-110888290D01*
X136974368Y-110919649D01*
X137102917Y-110984405D01*
X137215270Y-111078489D01*
X137278070Y-111160278D01*
X137334877Y-111252000D01*
X138257427Y-111252000D01*
X138179636Y-111068943D01*
X138049051Y-110865083D01*
X137873067Y-110661811D01*
X137840046Y-110628268D01*
X137616493Y-110432337D01*
X137388640Y-110290247D01*
X137149939Y-110199439D01*
X136893844Y-110157353D01*
X136640235Y-110159236D01*
X136640235Y-110159236D01*
G37*
X136640235Y-110159236D02*
X136389556Y-110201004D01*
X136174123Y-110283463D01*
X135996666Y-110403884D01*
X135859917Y-110559540D01*
X135766604Y-110747704D01*
X135719458Y-110965648D01*
X135714048Y-111084432D01*
X135740763Y-111299863D01*
X135816405Y-111489486D01*
X135938482Y-111649260D01*
X136104503Y-111775145D01*
X136157225Y-111803136D01*
X136286658Y-111850967D01*
X136457106Y-111886930D01*
X136672446Y-111911508D01*
X136936560Y-111925183D01*
X137167056Y-111928568D01*
X137308543Y-111929560D01*
X137402984Y-111932781D01*
X137459773Y-111939763D01*
X137488303Y-111952038D01*
X137497969Y-111971138D01*
X137498667Y-111982651D01*
X137472677Y-112060065D01*
X137403085Y-112130311D01*
X137303956Y-112180156D01*
X137240707Y-112190976D01*
X137126420Y-112199765D01*
X136966473Y-112206299D01*
X136766242Y-112210356D01*
X136541956Y-112211713D01*
X136344849Y-112212979D01*
X136162230Y-112216449D01*
X136003407Y-112221769D01*
X135877690Y-112228586D01*
X135794388Y-112236548D01*
X135771340Y-112240907D01*
X135655420Y-112298911D01*
X135580370Y-112393542D01*
X135551491Y-112517867D01*
X135551334Y-112528596D01*
X135575625Y-112682497D01*
X135647452Y-112806979D01*
X135765245Y-112900451D01*
X135927433Y-112961326D01*
X135991703Y-112974199D01*
X136084078Y-112983747D01*
X136221082Y-112990750D01*
X136390959Y-112995244D01*
X136581953Y-112997263D01*
X136782308Y-112996844D01*
X136980268Y-112994022D01*
X137164076Y-112988831D01*
X137321976Y-112981307D01*
X137442212Y-112971486D01*
X137456334Y-112969809D01*
X137699893Y-112914659D01*
X137908715Y-112816665D01*
X138080942Y-112678861D01*
X138214717Y-112504282D01*
X138308181Y-112295962D01*
X138359478Y-112056935D01*
X138366750Y-111790237D01*
X138335099Y-111534222D01*
X138272444Y-111287340D01*
X138257427Y-111252000D01*
X137334877Y-111252000D01*
X137014605Y-111251584D01*
X136848851Y-111247843D01*
X136720791Y-111237586D01*
X136638476Y-111221552D01*
X136623778Y-111215662D01*
X136560453Y-111157468D01*
X136541008Y-111079288D01*
X136565952Y-110997254D01*
X136615178Y-110942045D01*
X136718136Y-110894398D01*
X136841987Y-110888290D01*
X136974368Y-110919649D01*
X137102917Y-110984405D01*
X137215270Y-111078489D01*
X137278070Y-111160278D01*
X137334877Y-111252000D01*
X138257427Y-111252000D01*
X138179636Y-111068943D01*
X138049051Y-110865083D01*
X137873067Y-110661811D01*
X137840046Y-110628268D01*
X137616493Y-110432337D01*
X137388640Y-110290247D01*
X137149939Y-110199439D01*
X136893844Y-110157353D01*
X136640235Y-110159236D01*
G36*
X140427638Y-109723759D02*
X140330084Y-109796366D01*
X140258204Y-109918593D01*
X140234997Y-109986371D01*
X140192762Y-110096520D01*
X140141354Y-110159924D01*
X140122108Y-110171861D01*
X140071516Y-110185499D01*
X139978323Y-110195668D01*
X139838877Y-110202565D01*
X139649530Y-110206388D01*
X139466261Y-110207362D01*
X139240937Y-110208698D01*
X139064695Y-110213211D01*
X138930202Y-110222195D01*
X138830127Y-110236943D01*
X138757137Y-110258748D01*
X138703902Y-110288904D01*
X138663088Y-110328705D01*
X138645355Y-110352187D01*
X138609265Y-110444310D01*
X138600940Y-110561902D01*
X138619853Y-110681592D01*
X138654636Y-110763796D01*
X138748117Y-110865594D01*
X138886120Y-110935970D01*
X139048026Y-110973011D01*
X139139866Y-110991129D01*
X139212239Y-111022806D01*
X139286529Y-111079524D01*
X139340754Y-111130190D01*
X139452368Y-111247432D01*
X139563193Y-111379696D01*
X139662263Y-111512542D01*
X139738614Y-111631534D01*
X139772680Y-111698881D01*
X139800235Y-111795259D01*
X139812812Y-111899302D01*
X139812889Y-111906413D01*
X139804244Y-112009017D01*
X139774129Y-112086652D01*
X139716272Y-112142469D01*
X139624402Y-112179624D01*
X139492249Y-112201269D01*
X139313542Y-112210559D01*
X139206111Y-112211555D01*
X138993087Y-112217292D01*
X138830014Y-112236351D01*
X138711393Y-112271507D01*
X138631726Y-112325535D01*
X138585514Y-112401207D01*
X138567259Y-112501299D01*
X138566408Y-112534298D01*
X138588148Y-112683240D01*
X138655617Y-112801879D01*
X138772189Y-112895476D01*
X138811474Y-112916616D01*
X138866855Y-112942480D01*
X138920189Y-112961249D01*
X138981962Y-112974203D01*
X139062657Y-112982623D01*
X139172760Y-112987792D01*
X139322756Y-112990991D01*
X139431889Y-112992445D01*
X139601580Y-112993011D01*
X139761346Y-112990857D01*
X139898432Y-112986353D01*
X140000081Y-112979868D01*
X140040912Y-112974801D01*
X140241609Y-112912341D01*
X140409617Y-112805843D01*
X140542057Y-112659200D01*
X140636049Y-112476307D01*
X140688712Y-112261057D01*
X140699395Y-112084555D01*
X140689668Y-111923673D01*
X140660050Y-111779214D01*
X140605270Y-111638066D01*
X140520054Y-111487115D01*
X140399132Y-111313247D01*
X140377853Y-111284733D01*
X140300211Y-111180474D01*
X140236853Y-111093626D01*
X140194484Y-111033499D01*
X140179778Y-111009566D01*
X140205534Y-111003688D01*
X140272946Y-110999523D01*
X140364108Y-110998000D01*
X140467869Y-111000782D01*
X140528206Y-111011234D01*
X140557959Y-111032508D01*
X140565113Y-111047389D01*
X140584246Y-111094126D01*
X140621219Y-111177081D01*
X140669438Y-111281593D01*
X140692128Y-111329807D01*
X140781058Y-111493778D01*
X140871016Y-111606574D01*
X140968401Y-111673208D01*
X141079612Y-111698695D01*
X141159428Y-111695907D01*
X141256718Y-111675777D01*
X141331437Y-111632047D01*
X141388619Y-111576139D01*
X141446813Y-111505913D01*
X141472098Y-111448046D01*
X141473687Y-111377330D01*
X141471020Y-111350718D01*
X141456044Y-111287418D01*
X141422400Y-111181892D01*
X141373828Y-111043724D01*
X141314068Y-110882492D01*
X141246860Y-110707780D01*
X141175945Y-110529168D01*
X141105062Y-110356238D01*
X141037951Y-110198570D01*
X140978352Y-110065746D01*
X140933908Y-109974753D01*
X140840123Y-109832958D01*
X140732306Y-109743487D01*
X140605829Y-109703007D01*
X140551965Y-109699778D01*
X140427638Y-109723759D01*
X140427638Y-109723759D01*
G37*
X140427638Y-109723759D02*
X140330084Y-109796366D01*
X140258204Y-109918593D01*
X140234997Y-109986371D01*
X140192762Y-110096520D01*
X140141354Y-110159924D01*
X140122108Y-110171861D01*
X140071516Y-110185499D01*
X139978323Y-110195668D01*
X139838877Y-110202565D01*
X139649530Y-110206388D01*
X139466261Y-110207362D01*
X139240937Y-110208698D01*
X139064695Y-110213211D01*
X138930202Y-110222195D01*
X138830127Y-110236943D01*
X138757137Y-110258748D01*
X138703902Y-110288904D01*
X138663088Y-110328705D01*
X138645355Y-110352187D01*
X138609265Y-110444310D01*
X138600940Y-110561902D01*
X138619853Y-110681592D01*
X138654636Y-110763796D01*
X138748117Y-110865594D01*
X138886120Y-110935970D01*
X139048026Y-110973011D01*
X139139866Y-110991129D01*
X139212239Y-111022806D01*
X139286529Y-111079524D01*
X139340754Y-111130190D01*
X139452368Y-111247432D01*
X139563193Y-111379696D01*
X139662263Y-111512542D01*
X139738614Y-111631534D01*
X139772680Y-111698881D01*
X139800235Y-111795259D01*
X139812812Y-111899302D01*
X139812889Y-111906413D01*
X139804244Y-112009017D01*
X139774129Y-112086652D01*
X139716272Y-112142469D01*
X139624402Y-112179624D01*
X139492249Y-112201269D01*
X139313542Y-112210559D01*
X139206111Y-112211555D01*
X138993087Y-112217292D01*
X138830014Y-112236351D01*
X138711393Y-112271507D01*
X138631726Y-112325535D01*
X138585514Y-112401207D01*
X138567259Y-112501299D01*
X138566408Y-112534298D01*
X138588148Y-112683240D01*
X138655617Y-112801879D01*
X138772189Y-112895476D01*
X138811474Y-112916616D01*
X138866855Y-112942480D01*
X138920189Y-112961249D01*
X138981962Y-112974203D01*
X139062657Y-112982623D01*
X139172760Y-112987792D01*
X139322756Y-112990991D01*
X139431889Y-112992445D01*
X139601580Y-112993011D01*
X139761346Y-112990857D01*
X139898432Y-112986353D01*
X140000081Y-112979868D01*
X140040912Y-112974801D01*
X140241609Y-112912341D01*
X140409617Y-112805843D01*
X140542057Y-112659200D01*
X140636049Y-112476307D01*
X140688712Y-112261057D01*
X140699395Y-112084555D01*
X140689668Y-111923673D01*
X140660050Y-111779214D01*
X140605270Y-111638066D01*
X140520054Y-111487115D01*
X140399132Y-111313247D01*
X140377853Y-111284733D01*
X140300211Y-111180474D01*
X140236853Y-111093626D01*
X140194484Y-111033499D01*
X140179778Y-111009566D01*
X140205534Y-111003688D01*
X140272946Y-110999523D01*
X140364108Y-110998000D01*
X140467869Y-111000782D01*
X140528206Y-111011234D01*
X140557959Y-111032508D01*
X140565113Y-111047389D01*
X140584246Y-111094126D01*
X140621219Y-111177081D01*
X140669438Y-111281593D01*
X140692128Y-111329807D01*
X140781058Y-111493778D01*
X140871016Y-111606574D01*
X140968401Y-111673208D01*
X141079612Y-111698695D01*
X141159428Y-111695907D01*
X141256718Y-111675777D01*
X141331437Y-111632047D01*
X141388619Y-111576139D01*
X141446813Y-111505913D01*
X141472098Y-111448046D01*
X141473687Y-111377330D01*
X141471020Y-111350718D01*
X141456044Y-111287418D01*
X141422400Y-111181892D01*
X141373828Y-111043724D01*
X141314068Y-110882492D01*
X141246860Y-110707780D01*
X141175945Y-110529168D01*
X141105062Y-110356238D01*
X141037951Y-110198570D01*
X140978352Y-110065746D01*
X140933908Y-109974753D01*
X140840123Y-109832958D01*
X140732306Y-109743487D01*
X140605829Y-109703007D01*
X140551965Y-109699778D01*
X140427638Y-109723759D01*
G36*
X142162265Y-110215908D02*
X142042487Y-110252114D01*
X142023079Y-110262817D01*
X141960107Y-110307102D01*
X141914012Y-110356780D01*
X141885507Y-110417280D01*
X141875303Y-110494030D01*
X141884113Y-110592460D01*
X141912648Y-110717998D01*
X141961620Y-110876073D01*
X142031742Y-111072114D01*
X142123724Y-111311550D01*
X142178925Y-111451220D01*
X142254022Y-111640745D01*
X142321777Y-111813050D01*
X142379507Y-111961205D01*
X142424529Y-112078282D01*
X142454159Y-112157351D01*
X142465715Y-112191483D01*
X142465778Y-112192053D01*
X142439557Y-112200264D01*
X142368883Y-112206769D01*
X142265743Y-112210734D01*
X142185393Y-112211555D01*
X141985288Y-112218973D01*
X141834605Y-112243238D01*
X141728044Y-112287370D01*
X141660303Y-112354387D01*
X141626081Y-112447309D01*
X141619217Y-112533975D01*
X141639073Y-112684083D01*
X141701688Y-112800762D01*
X141812010Y-112891821D01*
X141863298Y-112919323D01*
X141921374Y-112945116D01*
X141979608Y-112963536D01*
X142049282Y-112976011D01*
X142141680Y-112983971D01*
X142268083Y-112988842D01*
X142437556Y-112992022D01*
X142600733Y-112992733D01*
X142754626Y-112990415D01*
X142885461Y-112985487D01*
X142979461Y-112978365D01*
X143004739Y-112974804D01*
X143188314Y-112920791D01*
X143329580Y-112834920D01*
X143425820Y-112720419D01*
X143474318Y-112580517D01*
X143472453Y-112419022D01*
X143458967Y-112374127D01*
X143427022Y-112284582D01*
X143379621Y-112157942D01*
X143319769Y-112001759D01*
X143250471Y-111823589D01*
X143174731Y-111630985D01*
X143095553Y-111431501D01*
X143015943Y-111232691D01*
X142938904Y-111042110D01*
X142867442Y-110867311D01*
X142804560Y-110715848D01*
X142753263Y-110595276D01*
X142716556Y-110513148D01*
X142705210Y-110490000D01*
X142634918Y-110392483D01*
X142537935Y-110302526D01*
X142437512Y-110241333D01*
X142428663Y-110237795D01*
X142299582Y-110210605D01*
X142162265Y-110215908D01*
X142162265Y-110215908D01*
G37*
X142162265Y-110215908D02*
X142042487Y-110252114D01*
X142023079Y-110262817D01*
X141960107Y-110307102D01*
X141914012Y-110356780D01*
X141885507Y-110417280D01*
X141875303Y-110494030D01*
X141884113Y-110592460D01*
X141912648Y-110717998D01*
X141961620Y-110876073D01*
X142031742Y-111072114D01*
X142123724Y-111311550D01*
X142178925Y-111451220D01*
X142254022Y-111640745D01*
X142321777Y-111813050D01*
X142379507Y-111961205D01*
X142424529Y-112078282D01*
X142454159Y-112157351D01*
X142465715Y-112191483D01*
X142465778Y-112192053D01*
X142439557Y-112200264D01*
X142368883Y-112206769D01*
X142265743Y-112210734D01*
X142185393Y-112211555D01*
X141985288Y-112218973D01*
X141834605Y-112243238D01*
X141728044Y-112287370D01*
X141660303Y-112354387D01*
X141626081Y-112447309D01*
X141619217Y-112533975D01*
X141639073Y-112684083D01*
X141701688Y-112800762D01*
X141812010Y-112891821D01*
X141863298Y-112919323D01*
X141921374Y-112945116D01*
X141979608Y-112963536D01*
X142049282Y-112976011D01*
X142141680Y-112983971D01*
X142268083Y-112988842D01*
X142437556Y-112992022D01*
X142600733Y-112992733D01*
X142754626Y-112990415D01*
X142885461Y-112985487D01*
X142979461Y-112978365D01*
X143004739Y-112974804D01*
X143188314Y-112920791D01*
X143329580Y-112834920D01*
X143425820Y-112720419D01*
X143474318Y-112580517D01*
X143472453Y-112419022D01*
X143458967Y-112374127D01*
X143427022Y-112284582D01*
X143379621Y-112157942D01*
X143319769Y-112001759D01*
X143250471Y-111823589D01*
X143174731Y-111630985D01*
X143095553Y-111431501D01*
X143015943Y-111232691D01*
X142938904Y-111042110D01*
X142867442Y-110867311D01*
X142804560Y-110715848D01*
X142753263Y-110595276D01*
X142716556Y-110513148D01*
X142705210Y-110490000D01*
X142634918Y-110392483D01*
X142537935Y-110302526D01*
X142437512Y-110241333D01*
X142428663Y-110237795D01*
X142299582Y-110210605D01*
X142162265Y-110215908D01*
G36*
X145806969Y-110177713D02*
X145701664Y-110236904D01*
X145623200Y-110336264D01*
X145610648Y-110363214D01*
X145592976Y-110417455D01*
X145586417Y-110476749D01*
X145592828Y-110548296D01*
X145614064Y-110639298D01*
X145651980Y-110756955D01*
X145708432Y-110908467D01*
X145785275Y-111101034D01*
X145827159Y-111203386D01*
X145922160Y-111435978D01*
X145996706Y-111622528D01*
X146052854Y-111768755D01*
X146092659Y-111880379D01*
X146118175Y-111963120D01*
X146131459Y-112022697D01*
X146134667Y-112059151D01*
X146110948Y-112132027D01*
X146046723Y-112180838D01*
X145952394Y-112205905D01*
X145838360Y-112207546D01*
X145715022Y-112186082D01*
X145592779Y-112141834D01*
X145482032Y-112075120D01*
X145438592Y-112037734D01*
X145402987Y-111994543D01*
X145361212Y-111926055D01*
X145310661Y-111826809D01*
X145248727Y-111691346D01*
X145172804Y-111514205D01*
X145080286Y-111289926D01*
X145072621Y-111271092D01*
X144970305Y-111022537D01*
X144884080Y-110821154D01*
X144810670Y-110661101D01*
X144746799Y-110536531D01*
X144689190Y-110441600D01*
X144634568Y-110370464D01*
X144579657Y-110317278D01*
X144521181Y-110276197D01*
X144511889Y-110270712D01*
X144373787Y-110218536D01*
X144231359Y-110212716D01*
X144099283Y-110251909D01*
X144009005Y-110316691D01*
X143964932Y-110366626D01*
X143934454Y-110419366D01*
X143918677Y-110480917D01*
X143918708Y-110557281D01*
X143935653Y-110654465D01*
X143970617Y-110778470D01*
X144024707Y-110935302D01*
X144099028Y-111130965D01*
X144194688Y-111371462D01*
X144210583Y-111410877D01*
X144287044Y-111600326D01*
X144357108Y-111774080D01*
X144417828Y-111924820D01*
X144466259Y-112045225D01*
X144499453Y-112127976D01*
X144514463Y-112165752D01*
X144514489Y-112165821D01*
X144516473Y-112186421D01*
X144497398Y-112199795D01*
X144448188Y-112207457D01*
X144359764Y-112210925D01*
X144239742Y-112211713D01*
X144036166Y-112217012D01*
X143882576Y-112234968D01*
X143773269Y-112269042D01*
X143702540Y-112322697D01*
X143664686Y-112399393D01*
X143654002Y-112502591D01*
X143657074Y-112565295D01*
X143673704Y-112674695D01*
X143708095Y-112753417D01*
X143752263Y-112808322D01*
X143818017Y-112870341D01*
X143888582Y-112916301D01*
X143974096Y-112948951D01*
X144084697Y-112971041D01*
X144230523Y-112985321D01*
X144421712Y-112994540D01*
X144441334Y-112995210D01*
X144677406Y-112999230D01*
X144864432Y-112993010D01*
X145009070Y-112975416D01*
X145117977Y-112945317D01*
X145197812Y-112901580D01*
X145242845Y-112858873D01*
X145291857Y-112805557D01*
X145325887Y-112777341D01*
X145330167Y-112776000D01*
X145360692Y-112792215D01*
X145418235Y-112833377D01*
X145452485Y-112860164D01*
X145577417Y-112932841D01*
X145708682Y-112973053D01*
X145826864Y-112987671D01*
X145980252Y-112995887D01*
X146149079Y-112997719D01*
X146313574Y-112993181D01*
X146453970Y-112982289D01*
X146520077Y-112972387D01*
X146714367Y-112908267D01*
X146877552Y-112801495D01*
X147003073Y-112657199D01*
X147059397Y-112550451D01*
X147084804Y-112451144D01*
X147090996Y-112314491D01*
X147087924Y-112240007D01*
X147082245Y-112171808D01*
X147072120Y-112104769D01*
X147055037Y-112031294D01*
X147028480Y-111943785D01*
X146989938Y-111834647D01*
X146936895Y-111696282D01*
X146866838Y-111521094D01*
X146777874Y-111302999D01*
X146696262Y-111105936D01*
X146617562Y-110919608D01*
X146545415Y-110752352D01*
X146483460Y-110612505D01*
X146435339Y-110508403D01*
X146404843Y-110448644D01*
X146307305Y-110322267D01*
X146189283Y-110230966D01*
X146060244Y-110175762D01*
X145929651Y-110157671D01*
X145806969Y-110177713D01*
X145806969Y-110177713D01*
G37*
X145806969Y-110177713D02*
X145701664Y-110236904D01*
X145623200Y-110336264D01*
X145610648Y-110363214D01*
X145592976Y-110417455D01*
X145586417Y-110476749D01*
X145592828Y-110548296D01*
X145614064Y-110639298D01*
X145651980Y-110756955D01*
X145708432Y-110908467D01*
X145785275Y-111101034D01*
X145827159Y-111203386D01*
X145922160Y-111435978D01*
X145996706Y-111622528D01*
X146052854Y-111768755D01*
X146092659Y-111880379D01*
X146118175Y-111963120D01*
X146131459Y-112022697D01*
X146134667Y-112059151D01*
X146110948Y-112132027D01*
X146046723Y-112180838D01*
X145952394Y-112205905D01*
X145838360Y-112207546D01*
X145715022Y-112186082D01*
X145592779Y-112141834D01*
X145482032Y-112075120D01*
X145438592Y-112037734D01*
X145402987Y-111994543D01*
X145361212Y-111926055D01*
X145310661Y-111826809D01*
X145248727Y-111691346D01*
X145172804Y-111514205D01*
X145080286Y-111289926D01*
X145072621Y-111271092D01*
X144970305Y-111022537D01*
X144884080Y-110821154D01*
X144810670Y-110661101D01*
X144746799Y-110536531D01*
X144689190Y-110441600D01*
X144634568Y-110370464D01*
X144579657Y-110317278D01*
X144521181Y-110276197D01*
X144511889Y-110270712D01*
X144373787Y-110218536D01*
X144231359Y-110212716D01*
X144099283Y-110251909D01*
X144009005Y-110316691D01*
X143964932Y-110366626D01*
X143934454Y-110419366D01*
X143918677Y-110480917D01*
X143918708Y-110557281D01*
X143935653Y-110654465D01*
X143970617Y-110778470D01*
X144024707Y-110935302D01*
X144099028Y-111130965D01*
X144194688Y-111371462D01*
X144210583Y-111410877D01*
X144287044Y-111600326D01*
X144357108Y-111774080D01*
X144417828Y-111924820D01*
X144466259Y-112045225D01*
X144499453Y-112127976D01*
X144514463Y-112165752D01*
X144514489Y-112165821D01*
X144516473Y-112186421D01*
X144497398Y-112199795D01*
X144448188Y-112207457D01*
X144359764Y-112210925D01*
X144239742Y-112211713D01*
X144036166Y-112217012D01*
X143882576Y-112234968D01*
X143773269Y-112269042D01*
X143702540Y-112322697D01*
X143664686Y-112399393D01*
X143654002Y-112502591D01*
X143657074Y-112565295D01*
X143673704Y-112674695D01*
X143708095Y-112753417D01*
X143752263Y-112808322D01*
X143818017Y-112870341D01*
X143888582Y-112916301D01*
X143974096Y-112948951D01*
X144084697Y-112971041D01*
X144230523Y-112985321D01*
X144421712Y-112994540D01*
X144441334Y-112995210D01*
X144677406Y-112999230D01*
X144864432Y-112993010D01*
X145009070Y-112975416D01*
X145117977Y-112945317D01*
X145197812Y-112901580D01*
X145242845Y-112858873D01*
X145291857Y-112805557D01*
X145325887Y-112777341D01*
X145330167Y-112776000D01*
X145360692Y-112792215D01*
X145418235Y-112833377D01*
X145452485Y-112860164D01*
X145577417Y-112932841D01*
X145708682Y-112973053D01*
X145826864Y-112987671D01*
X145980252Y-112995887D01*
X146149079Y-112997719D01*
X146313574Y-112993181D01*
X146453970Y-112982289D01*
X146520077Y-112972387D01*
X146714367Y-112908267D01*
X146877552Y-112801495D01*
X147003073Y-112657199D01*
X147059397Y-112550451D01*
X147084804Y-112451144D01*
X147090996Y-112314491D01*
X147087924Y-112240007D01*
X147082245Y-112171808D01*
X147072120Y-112104769D01*
X147055037Y-112031294D01*
X147028480Y-111943785D01*
X146989938Y-111834647D01*
X146936895Y-111696282D01*
X146866838Y-111521094D01*
X146777874Y-111302999D01*
X146696262Y-111105936D01*
X146617562Y-110919608D01*
X146545415Y-110752352D01*
X146483460Y-110612505D01*
X146435339Y-110508403D01*
X146404843Y-110448644D01*
X146307305Y-110322267D01*
X146189283Y-110230966D01*
X146060244Y-110175762D01*
X145929651Y-110157671D01*
X145806969Y-110177713D01*
G36*
X151333242Y-109745000D02*
X151242780Y-109807547D01*
X151220723Y-109835141D01*
X151197334Y-109884241D01*
X151182488Y-109953433D01*
X151174630Y-110054635D01*
X151172202Y-110199764D01*
X151172196Y-110206567D01*
X151170141Y-110346159D01*
X151160704Y-110455757D01*
X151138763Y-110549219D01*
X151099191Y-110640404D01*
X151036865Y-110743171D01*
X150946659Y-110871379D01*
X150905627Y-110927444D01*
X150768567Y-111133415D01*
X150653439Y-111345464D01*
X150566689Y-111549986D01*
X150514762Y-111733378D01*
X150509562Y-111763415D01*
X150499511Y-112001113D01*
X150541036Y-112224540D01*
X150630033Y-112428676D01*
X150762396Y-112608501D01*
X150934021Y-112758996D01*
X151140804Y-112875139D01*
X151378639Y-112951911D01*
X151498436Y-112972766D01*
X151609000Y-112983014D01*
X151753421Y-112990522D01*
X151919238Y-112995271D01*
X152093988Y-112997245D01*
X152265210Y-112996427D01*
X152420442Y-112992797D01*
X152547221Y-112986340D01*
X152633086Y-112977038D01*
X152646238Y-112974376D01*
X152778191Y-112924406D01*
X152861619Y-112847817D01*
X152895899Y-112761104D01*
X152901595Y-112600458D01*
X152856040Y-112461695D01*
X152761102Y-112348731D01*
X152670856Y-112289459D01*
X152618132Y-112265835D01*
X152557574Y-112248247D01*
X152478718Y-112235277D01*
X152371102Y-112225510D01*
X152224265Y-112217529D01*
X152103667Y-112212659D01*
X151890789Y-112202049D01*
X151726840Y-112186594D01*
X151604365Y-112164014D01*
X151515907Y-112132030D01*
X151454009Y-112088362D01*
X151411217Y-112030732D01*
X151394639Y-111995932D01*
X151364849Y-111900685D01*
X151359747Y-111805081D01*
X151381394Y-111696721D01*
X151431849Y-111563204D01*
X151485717Y-111447507D01*
X151615655Y-111181444D01*
X151698800Y-111356516D01*
X151798362Y-111521376D01*
X151914789Y-111636536D01*
X152044261Y-111700480D01*
X152182957Y-111711687D01*
X152327056Y-111668642D01*
X152391709Y-111631782D01*
X152474447Y-111545776D01*
X152516648Y-111429777D01*
X152513523Y-111297472D01*
X152511690Y-111288870D01*
X152492242Y-111231893D01*
X152451322Y-111132895D01*
X152392727Y-111000330D01*
X152320252Y-110842649D01*
X152237693Y-110668306D01*
X152174838Y-110538643D01*
X152062710Y-110312594D01*
X151969326Y-110132686D01*
X151890654Y-109993411D01*
X151822662Y-109889264D01*
X151761319Y-109814739D01*
X151702594Y-109764331D01*
X151642453Y-109732533D01*
X151576867Y-109713839D01*
X151569888Y-109712485D01*
X151449131Y-109710905D01*
X151333242Y-109745000D01*
X151333242Y-109745000D01*
G37*
X151333242Y-109745000D02*
X151242780Y-109807547D01*
X151220723Y-109835141D01*
X151197334Y-109884241D01*
X151182488Y-109953433D01*
X151174630Y-110054635D01*
X151172202Y-110199764D01*
X151172196Y-110206567D01*
X151170141Y-110346159D01*
X151160704Y-110455757D01*
X151138763Y-110549219D01*
X151099191Y-110640404D01*
X151036865Y-110743171D01*
X150946659Y-110871379D01*
X150905627Y-110927444D01*
X150768567Y-111133415D01*
X150653439Y-111345464D01*
X150566689Y-111549986D01*
X150514762Y-111733378D01*
X150509562Y-111763415D01*
X150499511Y-112001113D01*
X150541036Y-112224540D01*
X150630033Y-112428676D01*
X150762396Y-112608501D01*
X150934021Y-112758996D01*
X151140804Y-112875139D01*
X151378639Y-112951911D01*
X151498436Y-112972766D01*
X151609000Y-112983014D01*
X151753421Y-112990522D01*
X151919238Y-112995271D01*
X152093988Y-112997245D01*
X152265210Y-112996427D01*
X152420442Y-112992797D01*
X152547221Y-112986340D01*
X152633086Y-112977038D01*
X152646238Y-112974376D01*
X152778191Y-112924406D01*
X152861619Y-112847817D01*
X152895899Y-112761104D01*
X152901595Y-112600458D01*
X152856040Y-112461695D01*
X152761102Y-112348731D01*
X152670856Y-112289459D01*
X152618132Y-112265835D01*
X152557574Y-112248247D01*
X152478718Y-112235277D01*
X152371102Y-112225510D01*
X152224265Y-112217529D01*
X152103667Y-112212659D01*
X151890789Y-112202049D01*
X151726840Y-112186594D01*
X151604365Y-112164014D01*
X151515907Y-112132030D01*
X151454009Y-112088362D01*
X151411217Y-112030732D01*
X151394639Y-111995932D01*
X151364849Y-111900685D01*
X151359747Y-111805081D01*
X151381394Y-111696721D01*
X151431849Y-111563204D01*
X151485717Y-111447507D01*
X151615655Y-111181444D01*
X151698800Y-111356516D01*
X151798362Y-111521376D01*
X151914789Y-111636536D01*
X152044261Y-111700480D01*
X152182957Y-111711687D01*
X152327056Y-111668642D01*
X152391709Y-111631782D01*
X152474447Y-111545776D01*
X152516648Y-111429777D01*
X152513523Y-111297472D01*
X152511690Y-111288870D01*
X152492242Y-111231893D01*
X152451322Y-111132895D01*
X152392727Y-111000330D01*
X152320252Y-110842649D01*
X152237693Y-110668306D01*
X152174838Y-110538643D01*
X152062710Y-110312594D01*
X151969326Y-110132686D01*
X151890654Y-109993411D01*
X151822662Y-109889264D01*
X151761319Y-109814739D01*
X151702594Y-109764331D01*
X151642453Y-109732533D01*
X151576867Y-109713839D01*
X151569888Y-109712485D01*
X151449131Y-109710905D01*
X151333242Y-109745000D01*
G36*
X148395709Y-110160293D02*
X148239942Y-110183851D01*
X148062510Y-110240945D01*
X147884278Y-110335514D01*
X147725493Y-110455082D01*
X147623496Y-110563692D01*
X147529720Y-110705412D01*
X147470344Y-110847944D01*
X147440792Y-111007802D01*
X147436486Y-111201498D01*
X147437708Y-111233883D01*
X147449003Y-111492145D01*
X148101631Y-113114795D01*
X148754258Y-114737444D01*
X148636851Y-114756519D01*
X148543123Y-114767254D01*
X148423546Y-114775077D01*
X148336000Y-114777730D01*
X148163697Y-114793710D01*
X148037756Y-114838147D01*
X147954889Y-114912648D01*
X147921780Y-114980333D01*
X147902069Y-115123284D01*
X147935071Y-115257434D01*
X148017076Y-115375503D01*
X148144372Y-115470209D01*
X148180778Y-115488436D01*
X148228165Y-115507115D01*
X148283630Y-115520814D01*
X148356322Y-115530266D01*
X148455391Y-115536207D01*
X148589984Y-115539370D01*
X148769250Y-115540490D01*
X148829889Y-115540538D01*
X149023542Y-115539870D01*
X149169969Y-115537370D01*
X149278377Y-115532297D01*
X149357976Y-115523908D01*
X149417973Y-115511462D01*
X149467576Y-115494216D01*
X149481792Y-115488002D01*
X149610987Y-115404610D01*
X149692503Y-115292032D01*
X149728153Y-115147345D01*
X149730110Y-115087054D01*
X149727105Y-115039785D01*
X149718034Y-114984790D01*
X149700968Y-114916560D01*
X149673977Y-114829586D01*
X149635134Y-114718360D01*
X149582509Y-114577374D01*
X149514172Y-114401118D01*
X149428196Y-114184084D01*
X149322651Y-113920765D01*
X149315333Y-113902577D01*
X149224578Y-113676352D01*
X149141136Y-113467015D01*
X149067218Y-113280217D01*
X149005039Y-113121612D01*
X148956810Y-112996852D01*
X148924745Y-112911592D01*
X148911057Y-112871483D01*
X148910795Y-112869131D01*
X148938427Y-112875587D01*
X148999957Y-112901008D01*
X149043713Y-112921419D01*
X149217205Y-112975545D01*
X149404214Y-112982940D01*
X149591653Y-112946654D01*
X149766434Y-112869738D01*
X149915471Y-112755241D01*
X149957924Y-112708330D01*
X150054614Y-112578009D01*
X150120304Y-112454269D01*
X150160136Y-112320928D01*
X150179253Y-112161806D01*
X150183077Y-111999889D01*
X150176272Y-111798343D01*
X150170731Y-111755244D01*
X149317340Y-111755244D01*
X149317199Y-111900787D01*
X149280953Y-112023925D01*
X149237665Y-112086095D01*
X149129037Y-112162403D01*
X148992768Y-112196789D01*
X148840016Y-112188331D01*
X148681937Y-112136106D01*
X148674795Y-112132671D01*
X148633176Y-112108590D01*
X148597589Y-112075541D01*
X148562443Y-112024278D01*
X148522144Y-111945555D01*
X148471101Y-111830127D01*
X148424340Y-111718574D01*
X148367312Y-111575999D01*
X148317856Y-111442835D01*
X148280592Y-111332216D01*
X148260141Y-111257274D01*
X148258324Y-111246640D01*
X148254970Y-111176037D01*
X148274341Y-111121160D01*
X148325944Y-111059119D01*
X148343679Y-111041121D01*
X148409033Y-110982073D01*
X148467807Y-110952432D01*
X148545180Y-110942345D01*
X148598100Y-110941555D01*
X148704644Y-110948371D01*
X148790778Y-110975143D01*
X148886640Y-111031356D01*
X148889507Y-111033278D01*
X149021446Y-111144350D01*
X149133429Y-111281849D01*
X149222225Y-111436008D01*
X149284605Y-111597062D01*
X149317340Y-111755244D01*
X150170731Y-111755244D01*
X150153955Y-111624763D01*
X150111395Y-111457969D01*
X150043863Y-111276777D01*
X149998133Y-111171670D01*
X149845664Y-110891553D01*
X149661065Y-110652913D01*
X149448323Y-110457990D01*
X149211429Y-110309026D01*
X148954369Y-110208261D01*
X148681133Y-110157936D01*
X148395709Y-110160293D01*
X148395709Y-110160293D01*
G37*
X148395709Y-110160293D02*
X148239942Y-110183851D01*
X148062510Y-110240945D01*
X147884278Y-110335514D01*
X147725493Y-110455082D01*
X147623496Y-110563692D01*
X147529720Y-110705412D01*
X147470344Y-110847944D01*
X147440792Y-111007802D01*
X147436486Y-111201498D01*
X147437708Y-111233883D01*
X147449003Y-111492145D01*
X148101631Y-113114795D01*
X148754258Y-114737444D01*
X148636851Y-114756519D01*
X148543123Y-114767254D01*
X148423546Y-114775077D01*
X148336000Y-114777730D01*
X148163697Y-114793710D01*
X148037756Y-114838147D01*
X147954889Y-114912648D01*
X147921780Y-114980333D01*
X147902069Y-115123284D01*
X147935071Y-115257434D01*
X148017076Y-115375503D01*
X148144372Y-115470209D01*
X148180778Y-115488436D01*
X148228165Y-115507115D01*
X148283630Y-115520814D01*
X148356322Y-115530266D01*
X148455391Y-115536207D01*
X148589984Y-115539370D01*
X148769250Y-115540490D01*
X148829889Y-115540538D01*
X149023542Y-115539870D01*
X149169969Y-115537370D01*
X149278377Y-115532297D01*
X149357976Y-115523908D01*
X149417973Y-115511462D01*
X149467576Y-115494216D01*
X149481792Y-115488002D01*
X149610987Y-115404610D01*
X149692503Y-115292032D01*
X149728153Y-115147345D01*
X149730110Y-115087054D01*
X149727105Y-115039785D01*
X149718034Y-114984790D01*
X149700968Y-114916560D01*
X149673977Y-114829586D01*
X149635134Y-114718360D01*
X149582509Y-114577374D01*
X149514172Y-114401118D01*
X149428196Y-114184084D01*
X149322651Y-113920765D01*
X149315333Y-113902577D01*
X149224578Y-113676352D01*
X149141136Y-113467015D01*
X149067218Y-113280217D01*
X149005039Y-113121612D01*
X148956810Y-112996852D01*
X148924745Y-112911592D01*
X148911057Y-112871483D01*
X148910795Y-112869131D01*
X148938427Y-112875587D01*
X148999957Y-112901008D01*
X149043713Y-112921419D01*
X149217205Y-112975545D01*
X149404214Y-112982940D01*
X149591653Y-112946654D01*
X149766434Y-112869738D01*
X149915471Y-112755241D01*
X149957924Y-112708330D01*
X150054614Y-112578009D01*
X150120304Y-112454269D01*
X150160136Y-112320928D01*
X150179253Y-112161806D01*
X150183077Y-111999889D01*
X150176272Y-111798343D01*
X150170731Y-111755244D01*
X149317340Y-111755244D01*
X149317199Y-111900787D01*
X149280953Y-112023925D01*
X149237665Y-112086095D01*
X149129037Y-112162403D01*
X148992768Y-112196789D01*
X148840016Y-112188331D01*
X148681937Y-112136106D01*
X148674795Y-112132671D01*
X148633176Y-112108590D01*
X148597589Y-112075541D01*
X148562443Y-112024278D01*
X148522144Y-111945555D01*
X148471101Y-111830127D01*
X148424340Y-111718574D01*
X148367312Y-111575999D01*
X148317856Y-111442835D01*
X148280592Y-111332216D01*
X148260141Y-111257274D01*
X148258324Y-111246640D01*
X148254970Y-111176037D01*
X148274341Y-111121160D01*
X148325944Y-111059119D01*
X148343679Y-111041121D01*
X148409033Y-110982073D01*
X148467807Y-110952432D01*
X148545180Y-110942345D01*
X148598100Y-110941555D01*
X148704644Y-110948371D01*
X148790778Y-110975143D01*
X148886640Y-111031356D01*
X148889507Y-111033278D01*
X149021446Y-111144350D01*
X149133429Y-111281849D01*
X149222225Y-111436008D01*
X149284605Y-111597062D01*
X149317340Y-111755244D01*
X150170731Y-111755244D01*
X150153955Y-111624763D01*
X150111395Y-111457969D01*
X150043863Y-111276777D01*
X149998133Y-111171670D01*
X149845664Y-110891553D01*
X149661065Y-110652913D01*
X149448323Y-110457990D01*
X149211429Y-110309026D01*
X148954369Y-110208261D01*
X148681133Y-110157936D01*
X148395709Y-110160293D01*
G36*
X152412675Y-108010404D02*
X152287428Y-108012553D01*
X152191300Y-108016165D01*
X152118828Y-108021430D01*
X152064547Y-108028538D01*
X152022993Y-108037679D01*
X151988700Y-108049043D01*
X151963378Y-108059617D01*
X151880642Y-108104140D01*
X151833345Y-108157065D01*
X151804721Y-108229815D01*
X151789658Y-108372726D01*
X151824063Y-108514975D01*
X151901986Y-108645173D01*
X152017480Y-108751927D01*
X152102499Y-108800063D01*
X152138796Y-108814544D01*
X152181289Y-108826082D01*
X152236475Y-108835011D01*
X152310850Y-108841667D01*
X152410912Y-108846382D01*
X152543158Y-108849492D01*
X152714083Y-108851330D01*
X152930186Y-108852232D01*
X153121342Y-108852491D01*
X154026129Y-108853111D01*
X154298997Y-109535771D01*
X154371717Y-109719437D01*
X154436116Y-109885430D01*
X154489572Y-110026717D01*
X154529463Y-110136266D01*
X154553169Y-110207042D01*
X154558417Y-110231880D01*
X154526703Y-110238154D01*
X154449665Y-110245670D01*
X154338382Y-110253543D01*
X154203933Y-110260887D01*
X154183726Y-110261830D01*
X154002356Y-110272979D01*
X153868892Y-110289726D01*
X153774837Y-110315553D01*
X153711691Y-110353939D01*
X153670956Y-110408364D01*
X153644135Y-110482309D01*
X153643986Y-110482869D01*
X153629346Y-110639863D01*
X153668211Y-110788434D01*
X153757662Y-110921753D01*
X153873153Y-111019220D01*
X153918301Y-111047671D01*
X153961380Y-111068485D01*
X154012348Y-111083194D01*
X154081162Y-111093331D01*
X154177780Y-111100430D01*
X154312159Y-111106025D01*
X154468474Y-111110889D01*
X154946681Y-111125000D01*
X155348365Y-112112778D01*
X155438259Y-112335106D01*
X155520538Y-112541058D01*
X155592944Y-112724790D01*
X155653217Y-112880458D01*
X155699096Y-113002218D01*
X155728323Y-113084227D01*
X155738637Y-113120639D01*
X155738470Y-113121722D01*
X155708809Y-113125904D01*
X155628152Y-113129817D01*
X155501944Y-113133376D01*
X155335635Y-113136500D01*
X155134670Y-113139105D01*
X154904498Y-113141109D01*
X154650565Y-113142429D01*
X154378319Y-113142983D01*
X154338613Y-113142994D01*
X154021829Y-113143118D01*
X153756552Y-113143556D01*
X153537845Y-113144486D01*
X153360770Y-113146085D01*
X153220390Y-113148532D01*
X153111767Y-113152003D01*
X153029964Y-113156678D01*
X152970044Y-113162732D01*
X152927069Y-113170346D01*
X152896102Y-113179695D01*
X152872205Y-113190958D01*
X152863418Y-113196101D01*
X152773165Y-113280237D01*
X152725305Y-113389184D01*
X152717892Y-113512821D01*
X152748984Y-113641028D01*
X152816635Y-113763683D01*
X152918902Y-113870666D01*
X153003912Y-113927497D01*
X153027796Y-113938139D01*
X153060634Y-113947226D01*
X153107079Y-113954938D01*
X153171782Y-113961457D01*
X153259395Y-113966963D01*
X153374569Y-113971638D01*
X153521957Y-113975661D01*
X153706209Y-113979213D01*
X153931978Y-113982476D01*
X154203915Y-113985630D01*
X154526672Y-113988855D01*
X154600969Y-113989555D01*
X156110494Y-114003667D01*
X156336636Y-114458020D01*
X156417808Y-114617036D01*
X156499247Y-114769391D01*
X156574349Y-114903232D01*
X156636511Y-115006706D01*
X156670034Y-115056406D01*
X156860861Y-115273722D01*
X157089720Y-115470048D01*
X157344467Y-115637812D01*
X157612957Y-115769444D01*
X157883045Y-115857371D01*
X157988725Y-115878595D01*
X158176497Y-115899431D01*
X158376373Y-115905402D01*
X158568216Y-115896879D01*
X158731886Y-115874236D01*
X158775148Y-115864035D01*
X159051628Y-115764798D01*
X159289954Y-115627704D01*
X159487536Y-115455928D01*
X159641780Y-115252646D01*
X159750096Y-115021033D01*
X159809889Y-114764265D01*
X159821515Y-114582222D01*
X159811991Y-114470018D01*
X158829252Y-114470018D01*
X158824027Y-114623027D01*
X158779593Y-114746042D01*
X158690379Y-114854396D01*
X158689182Y-114855514D01*
X158575931Y-114940411D01*
X158450912Y-114988079D01*
X158295689Y-115005072D01*
X158267675Y-115005382D01*
X158147186Y-114999790D01*
X158046639Y-114977990D01*
X157936892Y-114932839D01*
X157901939Y-114915736D01*
X157710917Y-114793533D01*
X157528951Y-114626279D01*
X157367007Y-114425338D01*
X157261278Y-114251841D01*
X157208353Y-114149992D01*
X157167361Y-114067606D01*
X157144287Y-114016880D01*
X157141334Y-114007373D01*
X157167895Y-114000142D01*
X157241010Y-113994853D01*
X157350824Y-113991426D01*
X157487481Y-113989778D01*
X157641128Y-113989828D01*
X157801909Y-113991493D01*
X157959970Y-113994692D01*
X158105456Y-113999342D01*
X158228512Y-114005362D01*
X158319283Y-114012671D01*
X158353121Y-114017442D01*
X158536678Y-114066648D01*
X158671422Y-114137870D01*
X158762245Y-114235758D01*
X158814042Y-114364965D01*
X158829252Y-114470018D01*
X159811991Y-114470018D01*
X159796729Y-114290226D01*
X159722966Y-114025153D01*
X159602106Y-113789446D01*
X159436030Y-113585546D01*
X159226618Y-113415895D01*
X158975752Y-113282935D01*
X158764111Y-113209485D01*
X158703199Y-113195273D01*
X158626968Y-113183481D01*
X158528922Y-113173717D01*
X158402562Y-113165593D01*
X158241390Y-113158719D01*
X158038908Y-113152705D01*
X157788618Y-113147162D01*
X157694690Y-113145375D01*
X157440049Y-113140332D01*
X157236283Y-113135367D01*
X157077824Y-113130123D01*
X156959103Y-113124246D01*
X156874551Y-113117381D01*
X156818602Y-113109174D01*
X156785686Y-113099270D01*
X156770235Y-113087314D01*
X156769695Y-113086444D01*
X156752139Y-113048613D01*
X156717161Y-112966692D01*
X156667641Y-112847829D01*
X156606459Y-112699168D01*
X156536493Y-112527855D01*
X156460624Y-112341038D01*
X156381729Y-112145861D01*
X156302689Y-111949470D01*
X156226383Y-111759013D01*
X156155689Y-111581634D01*
X156093488Y-111424479D01*
X156042657Y-111294694D01*
X156006078Y-111199427D01*
X155986628Y-111145821D01*
X155984223Y-111136990D01*
X156009278Y-111120697D01*
X156071925Y-111111586D01*
X156098018Y-111110889D01*
X156254312Y-111089704D01*
X156374026Y-111028194D01*
X156453791Y-110929427D01*
X156490237Y-110796470D01*
X156492223Y-110752017D01*
X156464838Y-110605626D01*
X156385733Y-110471293D01*
X156268160Y-110363007D01*
X156205639Y-110322395D01*
X156145839Y-110296029D01*
X156072559Y-110279798D01*
X155969597Y-110269592D01*
X155878842Y-110264229D01*
X155608968Y-110250111D01*
X155224541Y-109318778D01*
X155109424Y-109040756D01*
X155012932Y-108810178D01*
X154932656Y-108622107D01*
X154866193Y-108471608D01*
X154811134Y-108353743D01*
X154765074Y-108263577D01*
X154725606Y-108196172D01*
X154690325Y-108146593D01*
X154656824Y-108109902D01*
X154622697Y-108081164D01*
X154620463Y-108079500D01*
X154599656Y-108065302D01*
X154575626Y-108053541D01*
X154543101Y-108043947D01*
X154496810Y-108036251D01*
X154431478Y-108030182D01*
X154341835Y-108025471D01*
X154222608Y-108021847D01*
X154068525Y-108019041D01*
X153874313Y-108016783D01*
X153634701Y-108014803D01*
X153344416Y-108012831D01*
X153314153Y-108012636D01*
X153017782Y-108010834D01*
X152772388Y-108009734D01*
X152572507Y-108009528D01*
X152412675Y-108010404D01*
X152412675Y-108010404D01*
G37*
X152412675Y-108010404D02*
X152287428Y-108012553D01*
X152191300Y-108016165D01*
X152118828Y-108021430D01*
X152064547Y-108028538D01*
X152022993Y-108037679D01*
X151988700Y-108049043D01*
X151963378Y-108059617D01*
X151880642Y-108104140D01*
X151833345Y-108157065D01*
X151804721Y-108229815D01*
X151789658Y-108372726D01*
X151824063Y-108514975D01*
X151901986Y-108645173D01*
X152017480Y-108751927D01*
X152102499Y-108800063D01*
X152138796Y-108814544D01*
X152181289Y-108826082D01*
X152236475Y-108835011D01*
X152310850Y-108841667D01*
X152410912Y-108846382D01*
X152543158Y-108849492D01*
X152714083Y-108851330D01*
X152930186Y-108852232D01*
X153121342Y-108852491D01*
X154026129Y-108853111D01*
X154298997Y-109535771D01*
X154371717Y-109719437D01*
X154436116Y-109885430D01*
X154489572Y-110026717D01*
X154529463Y-110136266D01*
X154553169Y-110207042D01*
X154558417Y-110231880D01*
X154526703Y-110238154D01*
X154449665Y-110245670D01*
X154338382Y-110253543D01*
X154203933Y-110260887D01*
X154183726Y-110261830D01*
X154002356Y-110272979D01*
X153868892Y-110289726D01*
X153774837Y-110315553D01*
X153711691Y-110353939D01*
X153670956Y-110408364D01*
X153644135Y-110482309D01*
X153643986Y-110482869D01*
X153629346Y-110639863D01*
X153668211Y-110788434D01*
X153757662Y-110921753D01*
X153873153Y-111019220D01*
X153918301Y-111047671D01*
X153961380Y-111068485D01*
X154012348Y-111083194D01*
X154081162Y-111093331D01*
X154177780Y-111100430D01*
X154312159Y-111106025D01*
X154468474Y-111110889D01*
X154946681Y-111125000D01*
X155348365Y-112112778D01*
X155438259Y-112335106D01*
X155520538Y-112541058D01*
X155592944Y-112724790D01*
X155653217Y-112880458D01*
X155699096Y-113002218D01*
X155728323Y-113084227D01*
X155738637Y-113120639D01*
X155738470Y-113121722D01*
X155708809Y-113125904D01*
X155628152Y-113129817D01*
X155501944Y-113133376D01*
X155335635Y-113136500D01*
X155134670Y-113139105D01*
X154904498Y-113141109D01*
X154650565Y-113142429D01*
X154378319Y-113142983D01*
X154338613Y-113142994D01*
X154021829Y-113143118D01*
X153756552Y-113143556D01*
X153537845Y-113144486D01*
X153360770Y-113146085D01*
X153220390Y-113148532D01*
X153111767Y-113152003D01*
X153029964Y-113156678D01*
X152970044Y-113162732D01*
X152927069Y-113170346D01*
X152896102Y-113179695D01*
X152872205Y-113190958D01*
X152863418Y-113196101D01*
X152773165Y-113280237D01*
X152725305Y-113389184D01*
X152717892Y-113512821D01*
X152748984Y-113641028D01*
X152816635Y-113763683D01*
X152918902Y-113870666D01*
X153003912Y-113927497D01*
X153027796Y-113938139D01*
X153060634Y-113947226D01*
X153107079Y-113954938D01*
X153171782Y-113961457D01*
X153259395Y-113966963D01*
X153374569Y-113971638D01*
X153521957Y-113975661D01*
X153706209Y-113979213D01*
X153931978Y-113982476D01*
X154203915Y-113985630D01*
X154526672Y-113988855D01*
X154600969Y-113989555D01*
X156110494Y-114003667D01*
X156336636Y-114458020D01*
X156417808Y-114617036D01*
X156499247Y-114769391D01*
X156574349Y-114903232D01*
X156636511Y-115006706D01*
X156670034Y-115056406D01*
X156860861Y-115273722D01*
X157089720Y-115470048D01*
X157344467Y-115637812D01*
X157612957Y-115769444D01*
X157883045Y-115857371D01*
X157988725Y-115878595D01*
X158176497Y-115899431D01*
X158376373Y-115905402D01*
X158568216Y-115896879D01*
X158731886Y-115874236D01*
X158775148Y-115864035D01*
X159051628Y-115764798D01*
X159289954Y-115627704D01*
X159487536Y-115455928D01*
X159641780Y-115252646D01*
X159750096Y-115021033D01*
X159809889Y-114764265D01*
X159821515Y-114582222D01*
X159811991Y-114470018D01*
X158829252Y-114470018D01*
X158824027Y-114623027D01*
X158779593Y-114746042D01*
X158690379Y-114854396D01*
X158689182Y-114855514D01*
X158575931Y-114940411D01*
X158450912Y-114988079D01*
X158295689Y-115005072D01*
X158267675Y-115005382D01*
X158147186Y-114999790D01*
X158046639Y-114977990D01*
X157936892Y-114932839D01*
X157901939Y-114915736D01*
X157710917Y-114793533D01*
X157528951Y-114626279D01*
X157367007Y-114425338D01*
X157261278Y-114251841D01*
X157208353Y-114149992D01*
X157167361Y-114067606D01*
X157144287Y-114016880D01*
X157141334Y-114007373D01*
X157167895Y-114000142D01*
X157241010Y-113994853D01*
X157350824Y-113991426D01*
X157487481Y-113989778D01*
X157641128Y-113989828D01*
X157801909Y-113991493D01*
X157959970Y-113994692D01*
X158105456Y-113999342D01*
X158228512Y-114005362D01*
X158319283Y-114012671D01*
X158353121Y-114017442D01*
X158536678Y-114066648D01*
X158671422Y-114137870D01*
X158762245Y-114235758D01*
X158814042Y-114364965D01*
X158829252Y-114470018D01*
X159811991Y-114470018D01*
X159796729Y-114290226D01*
X159722966Y-114025153D01*
X159602106Y-113789446D01*
X159436030Y-113585546D01*
X159226618Y-113415895D01*
X158975752Y-113282935D01*
X158764111Y-113209485D01*
X158703199Y-113195273D01*
X158626968Y-113183481D01*
X158528922Y-113173717D01*
X158402562Y-113165593D01*
X158241390Y-113158719D01*
X158038908Y-113152705D01*
X157788618Y-113147162D01*
X157694690Y-113145375D01*
X157440049Y-113140332D01*
X157236283Y-113135367D01*
X157077824Y-113130123D01*
X156959103Y-113124246D01*
X156874551Y-113117381D01*
X156818602Y-113109174D01*
X156785686Y-113099270D01*
X156770235Y-113087314D01*
X156769695Y-113086444D01*
X156752139Y-113048613D01*
X156717161Y-112966692D01*
X156667641Y-112847829D01*
X156606459Y-112699168D01*
X156536493Y-112527855D01*
X156460624Y-112341038D01*
X156381729Y-112145861D01*
X156302689Y-111949470D01*
X156226383Y-111759013D01*
X156155689Y-111581634D01*
X156093488Y-111424479D01*
X156042657Y-111294694D01*
X156006078Y-111199427D01*
X155986628Y-111145821D01*
X155984223Y-111136990D01*
X156009278Y-111120697D01*
X156071925Y-111111586D01*
X156098018Y-111110889D01*
X156254312Y-111089704D01*
X156374026Y-111028194D01*
X156453791Y-110929427D01*
X156490237Y-110796470D01*
X156492223Y-110752017D01*
X156464838Y-110605626D01*
X156385733Y-110471293D01*
X156268160Y-110363007D01*
X156205639Y-110322395D01*
X156145839Y-110296029D01*
X156072559Y-110279798D01*
X155969597Y-110269592D01*
X155878842Y-110264229D01*
X155608968Y-110250111D01*
X155224541Y-109318778D01*
X155109424Y-109040756D01*
X155012932Y-108810178D01*
X154932656Y-108622107D01*
X154866193Y-108471608D01*
X154811134Y-108353743D01*
X154765074Y-108263577D01*
X154725606Y-108196172D01*
X154690325Y-108146593D01*
X154656824Y-108109902D01*
X154622697Y-108081164D01*
X154620463Y-108079500D01*
X154599656Y-108065302D01*
X154575626Y-108053541D01*
X154543101Y-108043947D01*
X154496810Y-108036251D01*
X154431478Y-108030182D01*
X154341835Y-108025471D01*
X154222608Y-108021847D01*
X154068525Y-108019041D01*
X153874313Y-108016783D01*
X153634701Y-108014803D01*
X153344416Y-108012831D01*
X153314153Y-108012636D01*
X153017782Y-108010834D01*
X152772388Y-108009734D01*
X152572507Y-108009528D01*
X152412675Y-108010404D01*
G04 #@! TO.C,D1*
D15*
X128017495Y-61818780D02*
X128017495Y-60818780D01*
X127779400Y-60818780D01*
X127636542Y-60866400D01*
X127541304Y-60961638D01*
X127493685Y-61056876D01*
X127446066Y-61247352D01*
X127446066Y-61390209D01*
X127493685Y-61580685D01*
X127541304Y-61675923D01*
X127636542Y-61771161D01*
X127779400Y-61818780D01*
X128017495Y-61818780D01*
X126493685Y-61818780D02*
X127065114Y-61818780D01*
X126779400Y-61818780D02*
X126779400Y-60818780D01*
X126874638Y-60961638D01*
X126969876Y-61056876D01*
X127065114Y-61104495D01*
X128304752Y-57170628D02*
X127542847Y-57170628D01*
X127923800Y-57551580D02*
X127923800Y-56789676D01*
X126304752Y-57170628D02*
X125542847Y-57170628D01*
G04 #@! TO.C,D2*
X139066495Y-81376780D02*
X139066495Y-80376780D01*
X138828400Y-80376780D01*
X138685542Y-80424400D01*
X138590304Y-80519638D01*
X138542685Y-80614876D01*
X138495066Y-80805352D01*
X138495066Y-80948209D01*
X138542685Y-81138685D01*
X138590304Y-81233923D01*
X138685542Y-81329161D01*
X138828400Y-81376780D01*
X139066495Y-81376780D01*
X138114114Y-80472019D02*
X138066495Y-80424400D01*
X137971257Y-80376780D01*
X137733161Y-80376780D01*
X137637923Y-80424400D01*
X137590304Y-80472019D01*
X137542685Y-80567257D01*
X137542685Y-80662495D01*
X137590304Y-80805352D01*
X138161733Y-81376780D01*
X137542685Y-81376780D01*
X139353752Y-76728628D02*
X138591847Y-76728628D01*
X138972800Y-77109580D02*
X138972800Y-76347676D01*
X137353752Y-76728628D02*
X136591847Y-76728628D01*
G04 #@! TO.C,D3*
X161418495Y-81249780D02*
X161418495Y-80249780D01*
X161180400Y-80249780D01*
X161037542Y-80297400D01*
X160942304Y-80392638D01*
X160894685Y-80487876D01*
X160847066Y-80678352D01*
X160847066Y-80821209D01*
X160894685Y-81011685D01*
X160942304Y-81106923D01*
X161037542Y-81202161D01*
X161180400Y-81249780D01*
X161418495Y-81249780D01*
X160513733Y-80249780D02*
X159894685Y-80249780D01*
X160228019Y-80630733D01*
X160085161Y-80630733D01*
X159989923Y-80678352D01*
X159942304Y-80725971D01*
X159894685Y-80821209D01*
X159894685Y-81059304D01*
X159942304Y-81154542D01*
X159989923Y-81202161D01*
X160085161Y-81249780D01*
X160370876Y-81249780D01*
X160466114Y-81202161D01*
X160513733Y-81154542D01*
X161705752Y-76601628D02*
X160943847Y-76601628D01*
X161324800Y-76982580D02*
X161324800Y-76220676D01*
X159705752Y-76601628D02*
X158943847Y-76601628D01*
G04 #@! TO.C,D4*
X149988495Y-100426780D02*
X149988495Y-99426780D01*
X149750400Y-99426780D01*
X149607542Y-99474400D01*
X149512304Y-99569638D01*
X149464685Y-99664876D01*
X149417066Y-99855352D01*
X149417066Y-99998209D01*
X149464685Y-100188685D01*
X149512304Y-100283923D01*
X149607542Y-100379161D01*
X149750400Y-100426780D01*
X149988495Y-100426780D01*
X148559923Y-99760114D02*
X148559923Y-100426780D01*
X148798019Y-99379161D02*
X149036114Y-100093447D01*
X148417066Y-100093447D01*
X150275752Y-95778628D02*
X149513847Y-95778628D01*
X149894800Y-96159580D02*
X149894800Y-95397676D01*
X148275752Y-95778628D02*
X147513847Y-95778628D01*
G04 #@! TO.C,D5*
X161545495Y-120238780D02*
X161545495Y-119238780D01*
X161307400Y-119238780D01*
X161164542Y-119286400D01*
X161069304Y-119381638D01*
X161021685Y-119476876D01*
X160974066Y-119667352D01*
X160974066Y-119810209D01*
X161021685Y-120000685D01*
X161069304Y-120095923D01*
X161164542Y-120191161D01*
X161307400Y-120238780D01*
X161545495Y-120238780D01*
X160069304Y-119238780D02*
X160545495Y-119238780D01*
X160593114Y-119714971D01*
X160545495Y-119667352D01*
X160450257Y-119619733D01*
X160212161Y-119619733D01*
X160116923Y-119667352D01*
X160069304Y-119714971D01*
X160021685Y-119810209D01*
X160021685Y-120048304D01*
X160069304Y-120143542D01*
X160116923Y-120191161D01*
X160212161Y-120238780D01*
X160450257Y-120238780D01*
X160545495Y-120191161D01*
X160593114Y-120143542D01*
X161832752Y-115590628D02*
X161070847Y-115590628D01*
X161451800Y-115971580D02*
X161451800Y-115209676D01*
X159832752Y-115590628D02*
X159070847Y-115590628D01*
G04 #@! TO.C,D6*
X139193495Y-119984780D02*
X139193495Y-118984780D01*
X138955400Y-118984780D01*
X138812542Y-119032400D01*
X138717304Y-119127638D01*
X138669685Y-119222876D01*
X138622066Y-119413352D01*
X138622066Y-119556209D01*
X138669685Y-119746685D01*
X138717304Y-119841923D01*
X138812542Y-119937161D01*
X138955400Y-119984780D01*
X139193495Y-119984780D01*
X137764923Y-118984780D02*
X137955400Y-118984780D01*
X138050638Y-119032400D01*
X138098257Y-119080019D01*
X138193495Y-119222876D01*
X138241114Y-119413352D01*
X138241114Y-119794304D01*
X138193495Y-119889542D01*
X138145876Y-119937161D01*
X138050638Y-119984780D01*
X137860161Y-119984780D01*
X137764923Y-119937161D01*
X137717304Y-119889542D01*
X137669685Y-119794304D01*
X137669685Y-119556209D01*
X137717304Y-119460971D01*
X137764923Y-119413352D01*
X137860161Y-119365733D01*
X138050638Y-119365733D01*
X138145876Y-119413352D01*
X138193495Y-119460971D01*
X138241114Y-119556209D01*
X139480752Y-115336628D02*
X138718847Y-115336628D01*
X139099800Y-115717580D02*
X139099800Y-114955676D01*
X137480752Y-115336628D02*
X136718847Y-115336628D01*
G04 #@! TO.C,D7*
X127890495Y-140177780D02*
X127890495Y-139177780D01*
X127652400Y-139177780D01*
X127509542Y-139225400D01*
X127414304Y-139320638D01*
X127366685Y-139415876D01*
X127319066Y-139606352D01*
X127319066Y-139749209D01*
X127366685Y-139939685D01*
X127414304Y-140034923D01*
X127509542Y-140130161D01*
X127652400Y-140177780D01*
X127890495Y-140177780D01*
X126985733Y-139177780D02*
X126319066Y-139177780D01*
X126747638Y-140177780D01*
X128177752Y-135529628D02*
X127415847Y-135529628D01*
X127796800Y-135910580D02*
X127796800Y-135148676D01*
X126177752Y-135529628D02*
X125415847Y-135529628D01*
G04 #@! TO.C,D8*
X116714495Y-120746780D02*
X116714495Y-119746780D01*
X116476400Y-119746780D01*
X116333542Y-119794400D01*
X116238304Y-119889638D01*
X116190685Y-119984876D01*
X116143066Y-120175352D01*
X116143066Y-120318209D01*
X116190685Y-120508685D01*
X116238304Y-120603923D01*
X116333542Y-120699161D01*
X116476400Y-120746780D01*
X116714495Y-120746780D01*
X115571638Y-120175352D02*
X115666876Y-120127733D01*
X115714495Y-120080114D01*
X115762114Y-119984876D01*
X115762114Y-119937257D01*
X115714495Y-119842019D01*
X115666876Y-119794400D01*
X115571638Y-119746780D01*
X115381161Y-119746780D01*
X115285923Y-119794400D01*
X115238304Y-119842019D01*
X115190685Y-119937257D01*
X115190685Y-119984876D01*
X115238304Y-120080114D01*
X115285923Y-120127733D01*
X115381161Y-120175352D01*
X115571638Y-120175352D01*
X115666876Y-120222971D01*
X115714495Y-120270590D01*
X115762114Y-120365828D01*
X115762114Y-120556304D01*
X115714495Y-120651542D01*
X115666876Y-120699161D01*
X115571638Y-120746780D01*
X115381161Y-120746780D01*
X115285923Y-120699161D01*
X115238304Y-120651542D01*
X115190685Y-120556304D01*
X115190685Y-120365828D01*
X115238304Y-120270590D01*
X115285923Y-120222971D01*
X115381161Y-120175352D01*
X117001752Y-116098628D02*
X116239847Y-116098628D01*
X116620800Y-116479580D02*
X116620800Y-115717676D01*
X115001752Y-116098628D02*
X114239847Y-116098628D01*
G04 #@! TO.C,D9*
X93854495Y-120238780D02*
X93854495Y-119238780D01*
X93616400Y-119238780D01*
X93473542Y-119286400D01*
X93378304Y-119381638D01*
X93330685Y-119476876D01*
X93283066Y-119667352D01*
X93283066Y-119810209D01*
X93330685Y-120000685D01*
X93378304Y-120095923D01*
X93473542Y-120191161D01*
X93616400Y-120238780D01*
X93854495Y-120238780D01*
X92806876Y-120238780D02*
X92616400Y-120238780D01*
X92521161Y-120191161D01*
X92473542Y-120143542D01*
X92378304Y-120000685D01*
X92330685Y-119810209D01*
X92330685Y-119429257D01*
X92378304Y-119334019D01*
X92425923Y-119286400D01*
X92521161Y-119238780D01*
X92711638Y-119238780D01*
X92806876Y-119286400D01*
X92854495Y-119334019D01*
X92902114Y-119429257D01*
X92902114Y-119667352D01*
X92854495Y-119762590D01*
X92806876Y-119810209D01*
X92711638Y-119857828D01*
X92521161Y-119857828D01*
X92425923Y-119810209D01*
X92378304Y-119762590D01*
X92330685Y-119667352D01*
X94141752Y-115590628D02*
X93379847Y-115590628D01*
X93760800Y-115971580D02*
X93760800Y-115209676D01*
X92141752Y-115590628D02*
X91379847Y-115590628D01*
G04 #@! TO.C,D10*
X106014685Y-100680780D02*
X106014685Y-99680780D01*
X105776590Y-99680780D01*
X105633733Y-99728400D01*
X105538495Y-99823638D01*
X105490876Y-99918876D01*
X105443257Y-100109352D01*
X105443257Y-100252209D01*
X105490876Y-100442685D01*
X105538495Y-100537923D01*
X105633733Y-100633161D01*
X105776590Y-100680780D01*
X106014685Y-100680780D01*
X104490876Y-100680780D02*
X105062304Y-100680780D01*
X104776590Y-100680780D02*
X104776590Y-99680780D01*
X104871828Y-99823638D01*
X104967066Y-99918876D01*
X105062304Y-99966495D01*
X103871828Y-99680780D02*
X103776590Y-99680780D01*
X103681352Y-99728400D01*
X103633733Y-99776019D01*
X103586114Y-99871257D01*
X103538495Y-100061733D01*
X103538495Y-100299828D01*
X103586114Y-100490304D01*
X103633733Y-100585542D01*
X103681352Y-100633161D01*
X103776590Y-100680780D01*
X103871828Y-100680780D01*
X103967066Y-100633161D01*
X104014685Y-100585542D01*
X104062304Y-100490304D01*
X104109923Y-100299828D01*
X104109923Y-100061733D01*
X104062304Y-99871257D01*
X104014685Y-99776019D01*
X103967066Y-99728400D01*
X103871828Y-99680780D01*
X105825752Y-96032628D02*
X105063847Y-96032628D01*
X105444800Y-96413580D02*
X105444800Y-95651676D01*
X103825752Y-96032628D02*
X103063847Y-96032628D01*
G04 #@! TO.C,D11*
X93695685Y-80614780D02*
X93695685Y-79614780D01*
X93457590Y-79614780D01*
X93314733Y-79662400D01*
X93219495Y-79757638D01*
X93171876Y-79852876D01*
X93124257Y-80043352D01*
X93124257Y-80186209D01*
X93171876Y-80376685D01*
X93219495Y-80471923D01*
X93314733Y-80567161D01*
X93457590Y-80614780D01*
X93695685Y-80614780D01*
X92171876Y-80614780D02*
X92743304Y-80614780D01*
X92457590Y-80614780D02*
X92457590Y-79614780D01*
X92552828Y-79757638D01*
X92648066Y-79852876D01*
X92743304Y-79900495D01*
X91219495Y-80614780D02*
X91790923Y-80614780D01*
X91505209Y-80614780D02*
X91505209Y-79614780D01*
X91600447Y-79757638D01*
X91695685Y-79852876D01*
X91790923Y-79900495D01*
X93506752Y-75966628D02*
X92744847Y-75966628D01*
X93125800Y-76347580D02*
X93125800Y-75585676D01*
X91506752Y-75966628D02*
X90744847Y-75966628D01*
G04 #@! TO.C,D12*
X117444685Y-81122780D02*
X117444685Y-80122780D01*
X117206590Y-80122780D01*
X117063733Y-80170400D01*
X116968495Y-80265638D01*
X116920876Y-80360876D01*
X116873257Y-80551352D01*
X116873257Y-80694209D01*
X116920876Y-80884685D01*
X116968495Y-80979923D01*
X117063733Y-81075161D01*
X117206590Y-81122780D01*
X117444685Y-81122780D01*
X115920876Y-81122780D02*
X116492304Y-81122780D01*
X116206590Y-81122780D02*
X116206590Y-80122780D01*
X116301828Y-80265638D01*
X116397066Y-80360876D01*
X116492304Y-80408495D01*
X115539923Y-80218019D02*
X115492304Y-80170400D01*
X115397066Y-80122780D01*
X115158971Y-80122780D01*
X115063733Y-80170400D01*
X115016114Y-80218019D01*
X114968495Y-80313257D01*
X114968495Y-80408495D01*
X115016114Y-80551352D01*
X115587542Y-81122780D01*
X114968495Y-81122780D01*
X117255752Y-76474628D02*
X116493847Y-76474628D01*
X116874800Y-76855580D02*
X116874800Y-76093676D01*
X115255752Y-76474628D02*
X114493847Y-76474628D01*
G04 #@! TO.C,D13*
X117317685Y-91536780D02*
X117317685Y-90536780D01*
X117079590Y-90536780D01*
X116936733Y-90584400D01*
X116841495Y-90679638D01*
X116793876Y-90774876D01*
X116746257Y-90965352D01*
X116746257Y-91108209D01*
X116793876Y-91298685D01*
X116841495Y-91393923D01*
X116936733Y-91489161D01*
X117079590Y-91536780D01*
X117317685Y-91536780D01*
X115793876Y-91536780D02*
X116365304Y-91536780D01*
X116079590Y-91536780D02*
X116079590Y-90536780D01*
X116174828Y-90679638D01*
X116270066Y-90774876D01*
X116365304Y-90822495D01*
X115460542Y-90536780D02*
X114841495Y-90536780D01*
X115174828Y-90917733D01*
X115031971Y-90917733D01*
X114936733Y-90965352D01*
X114889114Y-91012971D01*
X114841495Y-91108209D01*
X114841495Y-91346304D01*
X114889114Y-91441542D01*
X114936733Y-91489161D01*
X115031971Y-91536780D01*
X115317685Y-91536780D01*
X115412923Y-91489161D01*
X115460542Y-91441542D01*
X117128752Y-86888628D02*
X116366847Y-86888628D01*
X116747800Y-87269580D02*
X116747800Y-86507676D01*
X115128752Y-86888628D02*
X114366847Y-86888628D01*
G04 #@! TO.C,D14*
X140050685Y-109316780D02*
X140050685Y-108316780D01*
X139812590Y-108316780D01*
X139669733Y-108364400D01*
X139574495Y-108459638D01*
X139526876Y-108554876D01*
X139479257Y-108745352D01*
X139479257Y-108888209D01*
X139526876Y-109078685D01*
X139574495Y-109173923D01*
X139669733Y-109269161D01*
X139812590Y-109316780D01*
X140050685Y-109316780D01*
X138526876Y-109316780D02*
X139098304Y-109316780D01*
X138812590Y-109316780D02*
X138812590Y-108316780D01*
X138907828Y-108459638D01*
X139003066Y-108554876D01*
X139098304Y-108602495D01*
X137669733Y-108650114D02*
X137669733Y-109316780D01*
X137907828Y-108269161D02*
X138145923Y-108983447D01*
X137526876Y-108983447D01*
X139861752Y-104668628D02*
X139099847Y-104668628D01*
X139480800Y-105049580D02*
X139480800Y-104287676D01*
X137861752Y-104668628D02*
X137099847Y-104668628D01*
G04 #@! TO.C,D15*
X140050685Y-91536780D02*
X140050685Y-90536780D01*
X139812590Y-90536780D01*
X139669733Y-90584400D01*
X139574495Y-90679638D01*
X139526876Y-90774876D01*
X139479257Y-90965352D01*
X139479257Y-91108209D01*
X139526876Y-91298685D01*
X139574495Y-91393923D01*
X139669733Y-91489161D01*
X139812590Y-91536780D01*
X140050685Y-91536780D01*
X138526876Y-91536780D02*
X139098304Y-91536780D01*
X138812590Y-91536780D02*
X138812590Y-90536780D01*
X138907828Y-90679638D01*
X139003066Y-90774876D01*
X139098304Y-90822495D01*
X137622114Y-90536780D02*
X138098304Y-90536780D01*
X138145923Y-91012971D01*
X138098304Y-90965352D01*
X138003066Y-90917733D01*
X137764971Y-90917733D01*
X137669733Y-90965352D01*
X137622114Y-91012971D01*
X137574495Y-91108209D01*
X137574495Y-91346304D01*
X137622114Y-91441542D01*
X137669733Y-91489161D01*
X137764971Y-91536780D01*
X138003066Y-91536780D01*
X138098304Y-91489161D01*
X138145923Y-91441542D01*
X139861752Y-86888628D02*
X139099847Y-86888628D01*
X139480800Y-87269580D02*
X139480800Y-86507676D01*
X137861752Y-86888628D02*
X137099847Y-86888628D01*
G04 #@! TO.C,D16*
X117825685Y-109316780D02*
X117825685Y-108316780D01*
X117587590Y-108316780D01*
X117444733Y-108364400D01*
X117349495Y-108459638D01*
X117301876Y-108554876D01*
X117254257Y-108745352D01*
X117254257Y-108888209D01*
X117301876Y-109078685D01*
X117349495Y-109173923D01*
X117444733Y-109269161D01*
X117587590Y-109316780D01*
X117825685Y-109316780D01*
X116301876Y-109316780D02*
X116873304Y-109316780D01*
X116587590Y-109316780D02*
X116587590Y-108316780D01*
X116682828Y-108459638D01*
X116778066Y-108554876D01*
X116873304Y-108602495D01*
X115444733Y-108316780D02*
X115635209Y-108316780D01*
X115730447Y-108364400D01*
X115778066Y-108412019D01*
X115873304Y-108554876D01*
X115920923Y-108745352D01*
X115920923Y-109126304D01*
X115873304Y-109221542D01*
X115825685Y-109269161D01*
X115730447Y-109316780D01*
X115539971Y-109316780D01*
X115444733Y-109269161D01*
X115397114Y-109221542D01*
X115349495Y-109126304D01*
X115349495Y-108888209D01*
X115397114Y-108792971D01*
X115444733Y-108745352D01*
X115539971Y-108697733D01*
X115730447Y-108697733D01*
X115825685Y-108745352D01*
X115873304Y-108792971D01*
X115920923Y-108888209D01*
X117636752Y-104668628D02*
X116874847Y-104668628D01*
X117255800Y-105049580D02*
X117255800Y-104287676D01*
X115636752Y-104668628D02*
X114874847Y-104668628D01*
G04 #@! TO.C,Battery1*
X129801619Y-97964571D02*
X129658761Y-98012190D01*
X129611142Y-98059809D01*
X129563523Y-98155047D01*
X129563523Y-98297904D01*
X129611142Y-98393142D01*
X129658761Y-98440761D01*
X129754000Y-98488380D01*
X130134952Y-98488380D01*
X130134952Y-97488380D01*
X129801619Y-97488380D01*
X129706380Y-97536000D01*
X129658761Y-97583619D01*
X129611142Y-97678857D01*
X129611142Y-97774095D01*
X129658761Y-97869333D01*
X129706380Y-97916952D01*
X129801619Y-97964571D01*
X130134952Y-97964571D01*
X128706380Y-98488380D02*
X128706380Y-97964571D01*
X128754000Y-97869333D01*
X128849238Y-97821714D01*
X129039714Y-97821714D01*
X129134952Y-97869333D01*
X128706380Y-98440761D02*
X128801619Y-98488380D01*
X129039714Y-98488380D01*
X129134952Y-98440761D01*
X129182571Y-98345523D01*
X129182571Y-98250285D01*
X129134952Y-98155047D01*
X129039714Y-98107428D01*
X128801619Y-98107428D01*
X128706380Y-98059809D01*
X128373047Y-97821714D02*
X127992095Y-97821714D01*
X128230190Y-97488380D02*
X128230190Y-98345523D01*
X128182571Y-98440761D01*
X128087333Y-98488380D01*
X127992095Y-98488380D01*
X127801619Y-97821714D02*
X127420666Y-97821714D01*
X127658761Y-97488380D02*
X127658761Y-98345523D01*
X127611142Y-98440761D01*
X127515904Y-98488380D01*
X127420666Y-98488380D01*
X126706380Y-98440761D02*
X126801619Y-98488380D01*
X126992095Y-98488380D01*
X127087333Y-98440761D01*
X127134952Y-98345523D01*
X127134952Y-97964571D01*
X127087333Y-97869333D01*
X126992095Y-97821714D01*
X126801619Y-97821714D01*
X126706380Y-97869333D01*
X126658761Y-97964571D01*
X126658761Y-98059809D01*
X127134952Y-98155047D01*
X126230190Y-98488380D02*
X126230190Y-97821714D01*
X126230190Y-98012190D02*
X126182571Y-97916952D01*
X126134952Y-97869333D01*
X126039714Y-97821714D01*
X125944476Y-97821714D01*
X125706380Y-97821714D02*
X125468285Y-98488380D01*
X125230190Y-97821714D02*
X125468285Y-98488380D01*
X125563523Y-98726476D01*
X125611142Y-98774095D01*
X125706380Y-98821714D01*
X124325428Y-98488380D02*
X124896857Y-98488380D01*
X124611142Y-98488380D02*
X124611142Y-97488380D01*
X124706380Y-97631238D01*
X124801619Y-97726476D01*
X124896857Y-97774095D01*
D10*
X131444476Y-100917285D02*
X131539714Y-101012523D01*
X131825428Y-101107761D01*
X132015904Y-101107761D01*
X132301619Y-101012523D01*
X132492095Y-100822047D01*
X132587333Y-100631571D01*
X132682571Y-100250619D01*
X132682571Y-99964904D01*
X132587333Y-99583952D01*
X132492095Y-99393476D01*
X132301619Y-99203000D01*
X132015904Y-99107761D01*
X131825428Y-99107761D01*
X131539714Y-99203000D01*
X131444476Y-99298238D01*
X129444476Y-101107761D02*
X130111142Y-100155380D01*
X130587333Y-101107761D02*
X130587333Y-99107761D01*
X129825428Y-99107761D01*
X129634952Y-99203000D01*
X129539714Y-99298238D01*
X129444476Y-99488714D01*
X129444476Y-99774428D01*
X129539714Y-99964904D01*
X129634952Y-100060142D01*
X129825428Y-100155380D01*
X130587333Y-100155380D01*
X128682571Y-99298238D02*
X128587333Y-99203000D01*
X128396857Y-99107761D01*
X127920666Y-99107761D01*
X127730190Y-99203000D01*
X127634952Y-99298238D01*
X127539714Y-99488714D01*
X127539714Y-99679190D01*
X127634952Y-99964904D01*
X128777809Y-101107761D01*
X127539714Y-101107761D01*
X126301619Y-99107761D02*
X126111142Y-99107761D01*
X125920666Y-99203000D01*
X125825428Y-99298238D01*
X125730190Y-99488714D01*
X125634952Y-99869666D01*
X125634952Y-100345857D01*
X125730190Y-100726809D01*
X125825428Y-100917285D01*
X125920666Y-101012523D01*
X126111142Y-101107761D01*
X126301619Y-101107761D01*
X126492095Y-101012523D01*
X126587333Y-100917285D01*
X126682571Y-100726809D01*
X126777809Y-100345857D01*
X126777809Y-99869666D01*
X126682571Y-99488714D01*
X126587333Y-99298238D01*
X126492095Y-99203000D01*
X126301619Y-99107761D01*
X124968285Y-99107761D02*
X123730190Y-99107761D01*
X124396857Y-99869666D01*
X124111142Y-99869666D01*
X123920666Y-99964904D01*
X123825428Y-100060142D01*
X123730190Y-100250619D01*
X123730190Y-100726809D01*
X123825428Y-100917285D01*
X123920666Y-101012523D01*
X124111142Y-101107761D01*
X124682571Y-101107761D01*
X124873047Y-101012523D01*
X124968285Y-100917285D01*
X122968285Y-99298238D02*
X122873047Y-99203000D01*
X122682571Y-99107761D01*
X122206380Y-99107761D01*
X122015904Y-99203000D01*
X121920666Y-99298238D01*
X121825428Y-99488714D01*
X121825428Y-99679190D01*
X121920666Y-99964904D01*
X123063523Y-101107761D01*
X121825428Y-101107761D01*
X128015904Y-92178857D02*
X126492095Y-92178857D01*
X128015904Y-106678857D02*
X126492095Y-106678857D01*
X127254000Y-107440761D02*
X127254000Y-105916952D01*
G04 #@! TO.C,Shift1*
D15*
X127170333Y-130262380D02*
X126837000Y-131262380D01*
X126503666Y-130262380D01*
X125598904Y-131167142D02*
X125646523Y-131214761D01*
X125789380Y-131262380D01*
X125884619Y-131262380D01*
X126027476Y-131214761D01*
X126122714Y-131119523D01*
X126170333Y-131024285D01*
X126217952Y-130833809D01*
X126217952Y-130690952D01*
X126170333Y-130500476D01*
X126122714Y-130405238D01*
X126027476Y-130310000D01*
X125884619Y-130262380D01*
X125789380Y-130262380D01*
X125646523Y-130310000D01*
X125598904Y-130357619D01*
X124598904Y-131167142D02*
X124646523Y-131214761D01*
X124789380Y-131262380D01*
X124884619Y-131262380D01*
X125027476Y-131214761D01*
X125122714Y-131119523D01*
X125170333Y-131024285D01*
X125217952Y-130833809D01*
X125217952Y-130690952D01*
X125170333Y-130500476D01*
X125122714Y-130405238D01*
X125027476Y-130310000D01*
X124884619Y-130262380D01*
X124789380Y-130262380D01*
X124646523Y-130310000D01*
X124598904Y-130357619D01*
X125632238Y-128957619D02*
X125727476Y-128910000D01*
X125822714Y-128814761D01*
X125965571Y-128671904D01*
X126060809Y-128624285D01*
X126156047Y-128624285D01*
X126108428Y-128862380D02*
X126203666Y-128814761D01*
X126298904Y-128719523D01*
X126346523Y-128529047D01*
X126346523Y-128195714D01*
X126298904Y-128005238D01*
X126203666Y-127910000D01*
X126108428Y-127862380D01*
X125917952Y-127862380D01*
X125822714Y-127910000D01*
X125727476Y-128005238D01*
X125679857Y-128195714D01*
X125679857Y-128529047D01*
X125727476Y-128719523D01*
X125822714Y-128814761D01*
X125917952Y-128862380D01*
X126108428Y-128862380D01*
X125060809Y-127862380D02*
X124965571Y-127862380D01*
X124870333Y-127910000D01*
X124822714Y-127957619D01*
X124775095Y-128052857D01*
X124727476Y-128243333D01*
X124727476Y-128481428D01*
X124775095Y-128671904D01*
X124822714Y-128767142D01*
X124870333Y-128814761D01*
X124965571Y-128862380D01*
X125060809Y-128862380D01*
X125156047Y-128814761D01*
X125203666Y-128767142D01*
X125251285Y-128671904D01*
X125298904Y-128481428D01*
X125298904Y-128243333D01*
X125251285Y-128052857D01*
X125203666Y-127957619D01*
X125156047Y-127910000D01*
X125060809Y-127862380D01*
X127737000Y-126262380D02*
X127737000Y-125262380D01*
X127498904Y-125262380D01*
X127356047Y-125310000D01*
X127260809Y-125405238D01*
X127213190Y-125500476D01*
X127165571Y-125690952D01*
X127165571Y-125833809D01*
X127213190Y-126024285D01*
X127260809Y-126119523D01*
X127356047Y-126214761D01*
X127498904Y-126262380D01*
X127737000Y-126262380D01*
X126784619Y-125976666D02*
X126308428Y-125976666D01*
X126879857Y-126262380D02*
X126546523Y-125262380D01*
X126213190Y-126262380D01*
X126022714Y-125262380D02*
X125451285Y-125262380D01*
X125737000Y-126262380D02*
X125737000Y-125262380D01*
X125165571Y-125976666D02*
X124689380Y-125976666D01*
X125260809Y-126262380D02*
X124927476Y-125262380D01*
X124594142Y-126262380D01*
X126184619Y-122662380D02*
X125994142Y-122662380D01*
X125898904Y-122710000D01*
X125803666Y-122805238D01*
X125756047Y-122995714D01*
X125756047Y-123329047D01*
X125803666Y-123519523D01*
X125898904Y-123614761D01*
X125994142Y-123662380D01*
X126184619Y-123662380D01*
X126279857Y-123614761D01*
X126375095Y-123519523D01*
X126422714Y-123329047D01*
X126422714Y-122995714D01*
X126375095Y-122805238D01*
X126279857Y-122710000D01*
X126184619Y-122662380D01*
X125327476Y-123138571D02*
X124994142Y-123138571D01*
X124851285Y-123662380D02*
X125327476Y-123662380D01*
X125327476Y-122662380D01*
X124851285Y-122662380D01*
X127803666Y-120914761D02*
X127660809Y-120962380D01*
X127422714Y-120962380D01*
X127327476Y-120914761D01*
X127279857Y-120867142D01*
X127232238Y-120771904D01*
X127232238Y-120676666D01*
X127279857Y-120581428D01*
X127327476Y-120533809D01*
X127422714Y-120486190D01*
X127613190Y-120438571D01*
X127708428Y-120390952D01*
X127756047Y-120343333D01*
X127803666Y-120248095D01*
X127803666Y-120152857D01*
X127756047Y-120057619D01*
X127708428Y-120010000D01*
X127613190Y-119962380D01*
X127375095Y-119962380D01*
X127232238Y-120010000D01*
X126946523Y-119962380D02*
X126375095Y-119962380D01*
X126660809Y-120962380D02*
X126660809Y-119962380D01*
X125470333Y-120867142D02*
X125517952Y-120914761D01*
X125660809Y-120962380D01*
X125756047Y-120962380D01*
X125898904Y-120914761D01*
X125994142Y-120819523D01*
X126041761Y-120724285D01*
X126089380Y-120533809D01*
X126089380Y-120390952D01*
X126041761Y-120200476D01*
X125994142Y-120105238D01*
X125898904Y-120010000D01*
X125756047Y-119962380D01*
X125660809Y-119962380D01*
X125517952Y-120010000D01*
X125470333Y-120057619D01*
X125041761Y-120962380D02*
X125041761Y-119962380D01*
X124660809Y-119962380D01*
X124565571Y-120010000D01*
X124517952Y-120057619D01*
X124470333Y-120152857D01*
X124470333Y-120295714D01*
X124517952Y-120390952D01*
X124565571Y-120438571D01*
X124660809Y-120486190D01*
X125041761Y-120486190D01*
X127946523Y-118614761D02*
X127803666Y-118662380D01*
X127565571Y-118662380D01*
X127470333Y-118614761D01*
X127422714Y-118567142D01*
X127375095Y-118471904D01*
X127375095Y-118376666D01*
X127422714Y-118281428D01*
X127470333Y-118233809D01*
X127565571Y-118186190D01*
X127756047Y-118138571D01*
X127851285Y-118090952D01*
X127898904Y-118043333D01*
X127946523Y-117948095D01*
X127946523Y-117852857D01*
X127898904Y-117757619D01*
X127851285Y-117710000D01*
X127756047Y-117662380D01*
X127517952Y-117662380D01*
X127375095Y-117710000D01*
X126946523Y-118662380D02*
X126946523Y-117662380D01*
X126946523Y-118138571D02*
X126375095Y-118138571D01*
X126375095Y-118662380D02*
X126375095Y-117662380D01*
X125327476Y-118567142D02*
X125375095Y-118614761D01*
X125517952Y-118662380D01*
X125613190Y-118662380D01*
X125756047Y-118614761D01*
X125851285Y-118519523D01*
X125898904Y-118424285D01*
X125946523Y-118233809D01*
X125946523Y-118090952D01*
X125898904Y-117900476D01*
X125851285Y-117805238D01*
X125756047Y-117710000D01*
X125613190Y-117662380D01*
X125517952Y-117662380D01*
X125375095Y-117710000D01*
X125327476Y-117757619D01*
X124898904Y-118662380D02*
X124898904Y-117662380D01*
X124517952Y-117662380D01*
X124422714Y-117710000D01*
X124375095Y-117757619D01*
X124327476Y-117852857D01*
X124327476Y-117995714D01*
X124375095Y-118090952D01*
X124422714Y-118138571D01*
X124517952Y-118186190D01*
X124898904Y-118186190D01*
X126170333Y-116062380D02*
X126170333Y-115062380D01*
X125837000Y-115776666D01*
X125503666Y-115062380D01*
X125503666Y-116062380D01*
X124456047Y-116062380D02*
X124789380Y-115586190D01*
X125027476Y-116062380D02*
X125027476Y-115062380D01*
X124646523Y-115062380D01*
X124551285Y-115110000D01*
X124503666Y-115157619D01*
X124456047Y-115252857D01*
X124456047Y-115395714D01*
X124503666Y-115490952D01*
X124551285Y-115538571D01*
X124646523Y-115586190D01*
X125027476Y-115586190D01*
X125670333Y-113657619D02*
X125765571Y-113610000D01*
X125860809Y-113514761D01*
X126003666Y-113371904D01*
X126098904Y-113324285D01*
X126194142Y-113324285D01*
X126146523Y-113562380D02*
X126241761Y-113514761D01*
X126337000Y-113419523D01*
X126384619Y-113229047D01*
X126384619Y-112895714D01*
X126337000Y-112705238D01*
X126241761Y-112610000D01*
X126146523Y-112562380D01*
X125956047Y-112562380D01*
X125860809Y-112610000D01*
X125765571Y-112705238D01*
X125717952Y-112895714D01*
X125717952Y-113229047D01*
X125765571Y-113419523D01*
X125860809Y-113514761D01*
X125956047Y-113562380D01*
X126146523Y-113562380D01*
X125384619Y-112562380D02*
X124717952Y-112562380D01*
X125146523Y-113562380D01*
X124289380Y-112562380D02*
X124384619Y-112752857D01*
X129198904Y-112610000D02*
X129294142Y-112562380D01*
X129437000Y-112562380D01*
X129579857Y-112610000D01*
X129675095Y-112705238D01*
X129722714Y-112800476D01*
X129770333Y-112990952D01*
X129770333Y-113133809D01*
X129722714Y-113324285D01*
X129675095Y-113419523D01*
X129579857Y-113514761D01*
X129437000Y-113562380D01*
X129341761Y-113562380D01*
X129198904Y-113514761D01*
X129151285Y-113467142D01*
X129151285Y-113133809D01*
X129341761Y-113133809D01*
X128722714Y-113562380D02*
X128722714Y-112562380D01*
X128151285Y-113562380D01*
X128151285Y-112562380D01*
X127675095Y-113562380D02*
X127675095Y-112562380D01*
X127437000Y-112562380D01*
X127294142Y-112610000D01*
X127198904Y-112705238D01*
X127151285Y-112800476D01*
X127103666Y-112990952D01*
X127103666Y-113133809D01*
X127151285Y-113324285D01*
X127198904Y-113419523D01*
X127294142Y-113514761D01*
X127437000Y-113562380D01*
X127675095Y-113562380D01*
X129032238Y-118757619D02*
X129127476Y-118710000D01*
X129222714Y-118614761D01*
X129365571Y-118471904D01*
X129460809Y-118424285D01*
X129556047Y-118424285D01*
X129508428Y-118662380D02*
X129603666Y-118614761D01*
X129698904Y-118519523D01*
X129746523Y-118329047D01*
X129746523Y-117995714D01*
X129698904Y-117805238D01*
X129603666Y-117710000D01*
X129508428Y-117662380D01*
X129317952Y-117662380D01*
X129222714Y-117710000D01*
X129127476Y-117805238D01*
X129079857Y-117995714D01*
X129079857Y-118329047D01*
X129127476Y-118519523D01*
X129222714Y-118614761D01*
X129317952Y-118662380D01*
X129508428Y-118662380D01*
X128222714Y-117662380D02*
X128413190Y-117662380D01*
X128508428Y-117710000D01*
X128556047Y-117757619D01*
X128651285Y-117900476D01*
X128698904Y-118090952D01*
X128698904Y-118471904D01*
X128651285Y-118567142D01*
X128603666Y-118614761D01*
X128508428Y-118662380D01*
X128317952Y-118662380D01*
X128222714Y-118614761D01*
X128175095Y-118567142D01*
X128127476Y-118471904D01*
X128127476Y-118233809D01*
X128175095Y-118138571D01*
X128222714Y-118090952D01*
X128317952Y-118043333D01*
X128508428Y-118043333D01*
X128603666Y-118090952D01*
X128651285Y-118138571D01*
X128698904Y-118233809D01*
X129032238Y-116157619D02*
X129127476Y-116110000D01*
X129222714Y-116014761D01*
X129365571Y-115871904D01*
X129460809Y-115824285D01*
X129556047Y-115824285D01*
X129508428Y-116062380D02*
X129603666Y-116014761D01*
X129698904Y-115919523D01*
X129746523Y-115729047D01*
X129746523Y-115395714D01*
X129698904Y-115205238D01*
X129603666Y-115110000D01*
X129508428Y-115062380D01*
X129317952Y-115062380D01*
X129222714Y-115110000D01*
X129127476Y-115205238D01*
X129079857Y-115395714D01*
X129079857Y-115729047D01*
X129127476Y-115919523D01*
X129222714Y-116014761D01*
X129317952Y-116062380D01*
X129508428Y-116062380D01*
X128746523Y-115062380D02*
X128079857Y-115062380D01*
X128508428Y-116062380D01*
X129032238Y-121107619D02*
X129127476Y-121060000D01*
X129222714Y-120964761D01*
X129365571Y-120821904D01*
X129460809Y-120774285D01*
X129556047Y-120774285D01*
X129508428Y-121012380D02*
X129603666Y-120964761D01*
X129698904Y-120869523D01*
X129746523Y-120679047D01*
X129746523Y-120345714D01*
X129698904Y-120155238D01*
X129603666Y-120060000D01*
X129508428Y-120012380D01*
X129317952Y-120012380D01*
X129222714Y-120060000D01*
X129127476Y-120155238D01*
X129079857Y-120345714D01*
X129079857Y-120679047D01*
X129127476Y-120869523D01*
X129222714Y-120964761D01*
X129317952Y-121012380D01*
X129508428Y-121012380D01*
X128175095Y-120012380D02*
X128651285Y-120012380D01*
X128698904Y-120488571D01*
X128651285Y-120440952D01*
X128556047Y-120393333D01*
X128317952Y-120393333D01*
X128222714Y-120440952D01*
X128175095Y-120488571D01*
X128127476Y-120583809D01*
X128127476Y-120821904D01*
X128175095Y-120917142D01*
X128222714Y-120964761D01*
X128317952Y-121012380D01*
X128556047Y-121012380D01*
X128651285Y-120964761D01*
X128698904Y-120917142D01*
X129032238Y-123857619D02*
X129127476Y-123810000D01*
X129222714Y-123714761D01*
X129365571Y-123571904D01*
X129460809Y-123524285D01*
X129556047Y-123524285D01*
X129508428Y-123762380D02*
X129603666Y-123714761D01*
X129698904Y-123619523D01*
X129746523Y-123429047D01*
X129746523Y-123095714D01*
X129698904Y-122905238D01*
X129603666Y-122810000D01*
X129508428Y-122762380D01*
X129317952Y-122762380D01*
X129222714Y-122810000D01*
X129127476Y-122905238D01*
X129079857Y-123095714D01*
X129079857Y-123429047D01*
X129127476Y-123619523D01*
X129222714Y-123714761D01*
X129317952Y-123762380D01*
X129508428Y-123762380D01*
X128222714Y-123095714D02*
X128222714Y-123762380D01*
X128460809Y-122714761D02*
X128698904Y-123429047D01*
X128079857Y-123429047D01*
X129032238Y-126357619D02*
X129127476Y-126310000D01*
X129222714Y-126214761D01*
X129365571Y-126071904D01*
X129460809Y-126024285D01*
X129556047Y-126024285D01*
X129508428Y-126262380D02*
X129603666Y-126214761D01*
X129698904Y-126119523D01*
X129746523Y-125929047D01*
X129746523Y-125595714D01*
X129698904Y-125405238D01*
X129603666Y-125310000D01*
X129508428Y-125262380D01*
X129317952Y-125262380D01*
X129222714Y-125310000D01*
X129127476Y-125405238D01*
X129079857Y-125595714D01*
X129079857Y-125929047D01*
X129127476Y-126119523D01*
X129222714Y-126214761D01*
X129317952Y-126262380D01*
X129508428Y-126262380D01*
X128746523Y-125262380D02*
X128127476Y-125262380D01*
X128460809Y-125643333D01*
X128317952Y-125643333D01*
X128222714Y-125690952D01*
X128175095Y-125738571D01*
X128127476Y-125833809D01*
X128127476Y-126071904D01*
X128175095Y-126167142D01*
X128222714Y-126214761D01*
X128317952Y-126262380D01*
X128603666Y-126262380D01*
X128698904Y-126214761D01*
X128746523Y-126167142D01*
X129032238Y-128857619D02*
X129127476Y-128810000D01*
X129222714Y-128714761D01*
X129365571Y-128571904D01*
X129460809Y-128524285D01*
X129556047Y-128524285D01*
X129508428Y-128762380D02*
X129603666Y-128714761D01*
X129698904Y-128619523D01*
X129746523Y-128429047D01*
X129746523Y-128095714D01*
X129698904Y-127905238D01*
X129603666Y-127810000D01*
X129508428Y-127762380D01*
X129317952Y-127762380D01*
X129222714Y-127810000D01*
X129127476Y-127905238D01*
X129079857Y-128095714D01*
X129079857Y-128429047D01*
X129127476Y-128619523D01*
X129222714Y-128714761D01*
X129317952Y-128762380D01*
X129508428Y-128762380D01*
X128698904Y-127857619D02*
X128651285Y-127810000D01*
X128556047Y-127762380D01*
X128317952Y-127762380D01*
X128222714Y-127810000D01*
X128175095Y-127857619D01*
X128127476Y-127952857D01*
X128127476Y-128048095D01*
X128175095Y-128190952D01*
X128746523Y-128762380D01*
X128127476Y-128762380D01*
X129032238Y-131357619D02*
X129127476Y-131310000D01*
X129222714Y-131214761D01*
X129365571Y-131071904D01*
X129460809Y-131024285D01*
X129556047Y-131024285D01*
X129508428Y-131262380D02*
X129603666Y-131214761D01*
X129698904Y-131119523D01*
X129746523Y-130929047D01*
X129746523Y-130595714D01*
X129698904Y-130405238D01*
X129603666Y-130310000D01*
X129508428Y-130262380D01*
X129317952Y-130262380D01*
X129222714Y-130310000D01*
X129127476Y-130405238D01*
X129079857Y-130595714D01*
X129079857Y-130929047D01*
X129127476Y-131119523D01*
X129222714Y-131214761D01*
X129317952Y-131262380D01*
X129508428Y-131262380D01*
X128127476Y-131262380D02*
X128698904Y-131262380D01*
X128413190Y-131262380D02*
X128413190Y-130262380D01*
X128508428Y-130405238D01*
X128603666Y-130500476D01*
X128698904Y-130548095D01*
G04 #@! TD*
M02*
