G04 #@! TF.GenerationSoftware,KiCad,Pcbnew,(5.0.0)*
G04 #@! TF.CreationDate,2018-11-01T22:36:59-04:00*
G04 #@! TF.ProjectId,Snowflake,536E6F77666C616B652E6B696361645F,rev?*
G04 #@! TF.SameCoordinates,Original*
G04 #@! TF.FileFunction,Copper,L1,Top,Signal*
G04 #@! TF.FilePolarity,Positive*
%FSLAX46Y46*%
G04 Gerber Fmt 4.6, Leading zero omitted, Abs format (unit mm)*
G04 Created by KiCad (PCBNEW (5.0.0)) date 11/01/18 22:36:59*
%MOMM*%
%LPD*%
G01*
G04 APERTURE LIST*
G04 #@! TA.AperFunction,ComponentPad*
%ADD10C,2.000000*%
G04 #@! TD*
G04 #@! TA.AperFunction,ComponentPad*
%ADD11O,2.500000X2.000000*%
G04 #@! TD*
G04 #@! TA.AperFunction,Conductor*
%ADD12C,0.100000*%
G04 #@! TD*
G04 #@! TA.AperFunction,ComponentPad*
%ADD13C,2.500000*%
G04 #@! TD*
G04 #@! TA.AperFunction,ComponentPad*
%ADD14O,2.400000X1.600000*%
G04 #@! TD*
G04 #@! TA.AperFunction,ComponentPad*
%ADD15R,2.400000X1.600000*%
G04 #@! TD*
G04 #@! TA.AperFunction,ComponentPad*
%ADD16O,1.700000X1.700000*%
G04 #@! TD*
G04 #@! TA.AperFunction,ComponentPad*
%ADD17R,1.700000X1.700000*%
G04 #@! TD*
G04 #@! TA.AperFunction,ComponentPad*
%ADD18R,1.600000X1.600000*%
G04 #@! TD*
G04 #@! TA.AperFunction,ComponentPad*
%ADD19O,1.600000X1.600000*%
G04 #@! TD*
G04 #@! TA.AperFunction,ViaPad*
%ADD20C,0.800000*%
G04 #@! TD*
G04 #@! TA.AperFunction,Conductor*
%ADD21C,0.250000*%
G04 #@! TD*
G04 #@! TA.AperFunction,NonConductor*
%ADD22C,0.900000*%
G04 #@! TD*
G04 APERTURE END LIST*
D10*
G04 #@! TO.P,Button1,1*
G04 #@! TO.N,BTN*
X105814000Y-81915000D03*
G04 #@! TO.P,Button1,2*
G04 #@! TO.N,GND*
X105814000Y-86415000D03*
G04 #@! TO.P,Button1,1*
G04 #@! TO.N,BTN*
X99314000Y-81915000D03*
G04 #@! TO.P,Button1,2*
G04 #@! TO.N,GND*
X99314000Y-86415000D03*
G04 #@! TD*
D11*
G04 #@! TO.P,D1,2*
G04 #@! TO.N,Net-(D1-Pad2)*
X128643000Y-59182000D03*
D12*
G04 #@! TD*
G04 #@! TO.N,GND*
G04 #@! TO.C,D1*
G36*
X125789261Y-57935010D02*
X125849931Y-57944009D01*
X125909428Y-57958912D01*
X125967177Y-57979575D01*
X126022623Y-58005799D01*
X126075231Y-58037331D01*
X126124496Y-58073868D01*
X126169942Y-58115058D01*
X126211132Y-58160504D01*
X126247669Y-58209769D01*
X126279201Y-58262377D01*
X126305425Y-58317823D01*
X126326088Y-58375572D01*
X126340991Y-58435069D01*
X126349990Y-58495739D01*
X126353000Y-58557000D01*
X126353000Y-59807000D01*
X126349990Y-59868261D01*
X126340991Y-59928931D01*
X126326088Y-59988428D01*
X126305425Y-60046177D01*
X126279201Y-60101623D01*
X126247669Y-60154231D01*
X126211132Y-60203496D01*
X126169942Y-60248942D01*
X126124496Y-60290132D01*
X126075231Y-60326669D01*
X126022623Y-60358201D01*
X125967177Y-60384425D01*
X125909428Y-60405088D01*
X125849931Y-60419991D01*
X125789261Y-60428990D01*
X125728000Y-60432000D01*
X124478000Y-60432000D01*
X124416739Y-60428990D01*
X124356069Y-60419991D01*
X124296572Y-60405088D01*
X124238823Y-60384425D01*
X124183377Y-60358201D01*
X124130769Y-60326669D01*
X124081504Y-60290132D01*
X124036058Y-60248942D01*
X123994868Y-60203496D01*
X123958331Y-60154231D01*
X123926799Y-60101623D01*
X123900575Y-60046177D01*
X123879912Y-59988428D01*
X123865009Y-59928931D01*
X123856010Y-59868261D01*
X123853000Y-59807000D01*
X123853000Y-58557000D01*
X123856010Y-58495739D01*
X123865009Y-58435069D01*
X123879912Y-58375572D01*
X123900575Y-58317823D01*
X123926799Y-58262377D01*
X123958331Y-58209769D01*
X123994868Y-58160504D01*
X124036058Y-58115058D01*
X124081504Y-58073868D01*
X124130769Y-58037331D01*
X124183377Y-58005799D01*
X124238823Y-57979575D01*
X124296572Y-57958912D01*
X124356069Y-57944009D01*
X124416739Y-57935010D01*
X124478000Y-57932000D01*
X125728000Y-57932000D01*
X125789261Y-57935010D01*
X125789261Y-57935010D01*
G37*
D13*
G04 #@! TO.P,D1,1*
G04 #@! TO.N,GND*
X125103000Y-59182000D03*
G04 #@! TD*
D12*
G04 #@! TO.N,GND*
G04 #@! TO.C,D2*
G36*
X136838261Y-77493010D02*
X136898931Y-77502009D01*
X136958428Y-77516912D01*
X137016177Y-77537575D01*
X137071623Y-77563799D01*
X137124231Y-77595331D01*
X137173496Y-77631868D01*
X137218942Y-77673058D01*
X137260132Y-77718504D01*
X137296669Y-77767769D01*
X137328201Y-77820377D01*
X137354425Y-77875823D01*
X137375088Y-77933572D01*
X137389991Y-77993069D01*
X137398990Y-78053739D01*
X137402000Y-78115000D01*
X137402000Y-79365000D01*
X137398990Y-79426261D01*
X137389991Y-79486931D01*
X137375088Y-79546428D01*
X137354425Y-79604177D01*
X137328201Y-79659623D01*
X137296669Y-79712231D01*
X137260132Y-79761496D01*
X137218942Y-79806942D01*
X137173496Y-79848132D01*
X137124231Y-79884669D01*
X137071623Y-79916201D01*
X137016177Y-79942425D01*
X136958428Y-79963088D01*
X136898931Y-79977991D01*
X136838261Y-79986990D01*
X136777000Y-79990000D01*
X135527000Y-79990000D01*
X135465739Y-79986990D01*
X135405069Y-79977991D01*
X135345572Y-79963088D01*
X135287823Y-79942425D01*
X135232377Y-79916201D01*
X135179769Y-79884669D01*
X135130504Y-79848132D01*
X135085058Y-79806942D01*
X135043868Y-79761496D01*
X135007331Y-79712231D01*
X134975799Y-79659623D01*
X134949575Y-79604177D01*
X134928912Y-79546428D01*
X134914009Y-79486931D01*
X134905010Y-79426261D01*
X134902000Y-79365000D01*
X134902000Y-78115000D01*
X134905010Y-78053739D01*
X134914009Y-77993069D01*
X134928912Y-77933572D01*
X134949575Y-77875823D01*
X134975799Y-77820377D01*
X135007331Y-77767769D01*
X135043868Y-77718504D01*
X135085058Y-77673058D01*
X135130504Y-77631868D01*
X135179769Y-77595331D01*
X135232377Y-77563799D01*
X135287823Y-77537575D01*
X135345572Y-77516912D01*
X135405069Y-77502009D01*
X135465739Y-77493010D01*
X135527000Y-77490000D01*
X136777000Y-77490000D01*
X136838261Y-77493010D01*
X136838261Y-77493010D01*
G37*
D13*
G04 #@! TD*
G04 #@! TO.P,D2,1*
G04 #@! TO.N,GND*
X136152000Y-78740000D03*
D11*
G04 #@! TO.P,D2,2*
G04 #@! TO.N,Net-(D1-Pad2)*
X139692000Y-78740000D03*
G04 #@! TD*
G04 #@! TO.P,D3,2*
G04 #@! TO.N,Net-(D3-Pad2)*
X162044000Y-78613000D03*
D12*
G04 #@! TD*
G04 #@! TO.N,GND*
G04 #@! TO.C,D3*
G36*
X159190261Y-77366010D02*
X159250931Y-77375009D01*
X159310428Y-77389912D01*
X159368177Y-77410575D01*
X159423623Y-77436799D01*
X159476231Y-77468331D01*
X159525496Y-77504868D01*
X159570942Y-77546058D01*
X159612132Y-77591504D01*
X159648669Y-77640769D01*
X159680201Y-77693377D01*
X159706425Y-77748823D01*
X159727088Y-77806572D01*
X159741991Y-77866069D01*
X159750990Y-77926739D01*
X159754000Y-77988000D01*
X159754000Y-79238000D01*
X159750990Y-79299261D01*
X159741991Y-79359931D01*
X159727088Y-79419428D01*
X159706425Y-79477177D01*
X159680201Y-79532623D01*
X159648669Y-79585231D01*
X159612132Y-79634496D01*
X159570942Y-79679942D01*
X159525496Y-79721132D01*
X159476231Y-79757669D01*
X159423623Y-79789201D01*
X159368177Y-79815425D01*
X159310428Y-79836088D01*
X159250931Y-79850991D01*
X159190261Y-79859990D01*
X159129000Y-79863000D01*
X157879000Y-79863000D01*
X157817739Y-79859990D01*
X157757069Y-79850991D01*
X157697572Y-79836088D01*
X157639823Y-79815425D01*
X157584377Y-79789201D01*
X157531769Y-79757669D01*
X157482504Y-79721132D01*
X157437058Y-79679942D01*
X157395868Y-79634496D01*
X157359331Y-79585231D01*
X157327799Y-79532623D01*
X157301575Y-79477177D01*
X157280912Y-79419428D01*
X157266009Y-79359931D01*
X157257010Y-79299261D01*
X157254000Y-79238000D01*
X157254000Y-77988000D01*
X157257010Y-77926739D01*
X157266009Y-77866069D01*
X157280912Y-77806572D01*
X157301575Y-77748823D01*
X157327799Y-77693377D01*
X157359331Y-77640769D01*
X157395868Y-77591504D01*
X157437058Y-77546058D01*
X157482504Y-77504868D01*
X157531769Y-77468331D01*
X157584377Y-77436799D01*
X157639823Y-77410575D01*
X157697572Y-77389912D01*
X157757069Y-77375009D01*
X157817739Y-77366010D01*
X157879000Y-77363000D01*
X159129000Y-77363000D01*
X159190261Y-77366010D01*
X159190261Y-77366010D01*
G37*
D13*
G04 #@! TO.P,D3,1*
G04 #@! TO.N,GND*
X158504000Y-78613000D03*
G04 #@! TD*
D12*
G04 #@! TO.N,GND*
G04 #@! TO.C,D4*
G36*
X147760261Y-96543010D02*
X147820931Y-96552009D01*
X147880428Y-96566912D01*
X147938177Y-96587575D01*
X147993623Y-96613799D01*
X148046231Y-96645331D01*
X148095496Y-96681868D01*
X148140942Y-96723058D01*
X148182132Y-96768504D01*
X148218669Y-96817769D01*
X148250201Y-96870377D01*
X148276425Y-96925823D01*
X148297088Y-96983572D01*
X148311991Y-97043069D01*
X148320990Y-97103739D01*
X148324000Y-97165000D01*
X148324000Y-98415000D01*
X148320990Y-98476261D01*
X148311991Y-98536931D01*
X148297088Y-98596428D01*
X148276425Y-98654177D01*
X148250201Y-98709623D01*
X148218669Y-98762231D01*
X148182132Y-98811496D01*
X148140942Y-98856942D01*
X148095496Y-98898132D01*
X148046231Y-98934669D01*
X147993623Y-98966201D01*
X147938177Y-98992425D01*
X147880428Y-99013088D01*
X147820931Y-99027991D01*
X147760261Y-99036990D01*
X147699000Y-99040000D01*
X146449000Y-99040000D01*
X146387739Y-99036990D01*
X146327069Y-99027991D01*
X146267572Y-99013088D01*
X146209823Y-98992425D01*
X146154377Y-98966201D01*
X146101769Y-98934669D01*
X146052504Y-98898132D01*
X146007058Y-98856942D01*
X145965868Y-98811496D01*
X145929331Y-98762231D01*
X145897799Y-98709623D01*
X145871575Y-98654177D01*
X145850912Y-98596428D01*
X145836009Y-98536931D01*
X145827010Y-98476261D01*
X145824000Y-98415000D01*
X145824000Y-97165000D01*
X145827010Y-97103739D01*
X145836009Y-97043069D01*
X145850912Y-96983572D01*
X145871575Y-96925823D01*
X145897799Y-96870377D01*
X145929331Y-96817769D01*
X145965868Y-96768504D01*
X146007058Y-96723058D01*
X146052504Y-96681868D01*
X146101769Y-96645331D01*
X146154377Y-96613799D01*
X146209823Y-96587575D01*
X146267572Y-96566912D01*
X146327069Y-96552009D01*
X146387739Y-96543010D01*
X146449000Y-96540000D01*
X147699000Y-96540000D01*
X147760261Y-96543010D01*
X147760261Y-96543010D01*
G37*
D13*
G04 #@! TD*
G04 #@! TO.P,D4,1*
G04 #@! TO.N,GND*
X147074000Y-97790000D03*
D11*
G04 #@! TO.P,D4,2*
G04 #@! TO.N,Net-(D3-Pad2)*
X150614000Y-97790000D03*
G04 #@! TD*
G04 #@! TO.P,D5,2*
G04 #@! TO.N,Net-(D5-Pad2)*
X162171000Y-117602000D03*
D12*
G04 #@! TD*
G04 #@! TO.N,GND*
G04 #@! TO.C,D5*
G36*
X159317261Y-116355010D02*
X159377931Y-116364009D01*
X159437428Y-116378912D01*
X159495177Y-116399575D01*
X159550623Y-116425799D01*
X159603231Y-116457331D01*
X159652496Y-116493868D01*
X159697942Y-116535058D01*
X159739132Y-116580504D01*
X159775669Y-116629769D01*
X159807201Y-116682377D01*
X159833425Y-116737823D01*
X159854088Y-116795572D01*
X159868991Y-116855069D01*
X159877990Y-116915739D01*
X159881000Y-116977000D01*
X159881000Y-118227000D01*
X159877990Y-118288261D01*
X159868991Y-118348931D01*
X159854088Y-118408428D01*
X159833425Y-118466177D01*
X159807201Y-118521623D01*
X159775669Y-118574231D01*
X159739132Y-118623496D01*
X159697942Y-118668942D01*
X159652496Y-118710132D01*
X159603231Y-118746669D01*
X159550623Y-118778201D01*
X159495177Y-118804425D01*
X159437428Y-118825088D01*
X159377931Y-118839991D01*
X159317261Y-118848990D01*
X159256000Y-118852000D01*
X158006000Y-118852000D01*
X157944739Y-118848990D01*
X157884069Y-118839991D01*
X157824572Y-118825088D01*
X157766823Y-118804425D01*
X157711377Y-118778201D01*
X157658769Y-118746669D01*
X157609504Y-118710132D01*
X157564058Y-118668942D01*
X157522868Y-118623496D01*
X157486331Y-118574231D01*
X157454799Y-118521623D01*
X157428575Y-118466177D01*
X157407912Y-118408428D01*
X157393009Y-118348931D01*
X157384010Y-118288261D01*
X157381000Y-118227000D01*
X157381000Y-116977000D01*
X157384010Y-116915739D01*
X157393009Y-116855069D01*
X157407912Y-116795572D01*
X157428575Y-116737823D01*
X157454799Y-116682377D01*
X157486331Y-116629769D01*
X157522868Y-116580504D01*
X157564058Y-116535058D01*
X157609504Y-116493868D01*
X157658769Y-116457331D01*
X157711377Y-116425799D01*
X157766823Y-116399575D01*
X157824572Y-116378912D01*
X157884069Y-116364009D01*
X157944739Y-116355010D01*
X158006000Y-116352000D01*
X159256000Y-116352000D01*
X159317261Y-116355010D01*
X159317261Y-116355010D01*
G37*
D13*
G04 #@! TO.P,D5,1*
G04 #@! TO.N,GND*
X158631000Y-117602000D03*
G04 #@! TD*
D12*
G04 #@! TO.N,GND*
G04 #@! TO.C,D6*
G36*
X136965261Y-116101010D02*
X137025931Y-116110009D01*
X137085428Y-116124912D01*
X137143177Y-116145575D01*
X137198623Y-116171799D01*
X137251231Y-116203331D01*
X137300496Y-116239868D01*
X137345942Y-116281058D01*
X137387132Y-116326504D01*
X137423669Y-116375769D01*
X137455201Y-116428377D01*
X137481425Y-116483823D01*
X137502088Y-116541572D01*
X137516991Y-116601069D01*
X137525990Y-116661739D01*
X137529000Y-116723000D01*
X137529000Y-117973000D01*
X137525990Y-118034261D01*
X137516991Y-118094931D01*
X137502088Y-118154428D01*
X137481425Y-118212177D01*
X137455201Y-118267623D01*
X137423669Y-118320231D01*
X137387132Y-118369496D01*
X137345942Y-118414942D01*
X137300496Y-118456132D01*
X137251231Y-118492669D01*
X137198623Y-118524201D01*
X137143177Y-118550425D01*
X137085428Y-118571088D01*
X137025931Y-118585991D01*
X136965261Y-118594990D01*
X136904000Y-118598000D01*
X135654000Y-118598000D01*
X135592739Y-118594990D01*
X135532069Y-118585991D01*
X135472572Y-118571088D01*
X135414823Y-118550425D01*
X135359377Y-118524201D01*
X135306769Y-118492669D01*
X135257504Y-118456132D01*
X135212058Y-118414942D01*
X135170868Y-118369496D01*
X135134331Y-118320231D01*
X135102799Y-118267623D01*
X135076575Y-118212177D01*
X135055912Y-118154428D01*
X135041009Y-118094931D01*
X135032010Y-118034261D01*
X135029000Y-117973000D01*
X135029000Y-116723000D01*
X135032010Y-116661739D01*
X135041009Y-116601069D01*
X135055912Y-116541572D01*
X135076575Y-116483823D01*
X135102799Y-116428377D01*
X135134331Y-116375769D01*
X135170868Y-116326504D01*
X135212058Y-116281058D01*
X135257504Y-116239868D01*
X135306769Y-116203331D01*
X135359377Y-116171799D01*
X135414823Y-116145575D01*
X135472572Y-116124912D01*
X135532069Y-116110009D01*
X135592739Y-116101010D01*
X135654000Y-116098000D01*
X136904000Y-116098000D01*
X136965261Y-116101010D01*
X136965261Y-116101010D01*
G37*
D13*
G04 #@! TD*
G04 #@! TO.P,D6,1*
G04 #@! TO.N,GND*
X136279000Y-117348000D03*
D11*
G04 #@! TO.P,D6,2*
G04 #@! TO.N,Net-(D5-Pad2)*
X139819000Y-117348000D03*
G04 #@! TD*
D12*
G04 #@! TO.N,GND*
G04 #@! TO.C,D7*
G36*
X125662261Y-136294010D02*
X125722931Y-136303009D01*
X125782428Y-136317912D01*
X125840177Y-136338575D01*
X125895623Y-136364799D01*
X125948231Y-136396331D01*
X125997496Y-136432868D01*
X126042942Y-136474058D01*
X126084132Y-136519504D01*
X126120669Y-136568769D01*
X126152201Y-136621377D01*
X126178425Y-136676823D01*
X126199088Y-136734572D01*
X126213991Y-136794069D01*
X126222990Y-136854739D01*
X126226000Y-136916000D01*
X126226000Y-138166000D01*
X126222990Y-138227261D01*
X126213991Y-138287931D01*
X126199088Y-138347428D01*
X126178425Y-138405177D01*
X126152201Y-138460623D01*
X126120669Y-138513231D01*
X126084132Y-138562496D01*
X126042942Y-138607942D01*
X125997496Y-138649132D01*
X125948231Y-138685669D01*
X125895623Y-138717201D01*
X125840177Y-138743425D01*
X125782428Y-138764088D01*
X125722931Y-138778991D01*
X125662261Y-138787990D01*
X125601000Y-138791000D01*
X124351000Y-138791000D01*
X124289739Y-138787990D01*
X124229069Y-138778991D01*
X124169572Y-138764088D01*
X124111823Y-138743425D01*
X124056377Y-138717201D01*
X124003769Y-138685669D01*
X123954504Y-138649132D01*
X123909058Y-138607942D01*
X123867868Y-138562496D01*
X123831331Y-138513231D01*
X123799799Y-138460623D01*
X123773575Y-138405177D01*
X123752912Y-138347428D01*
X123738009Y-138287931D01*
X123729010Y-138227261D01*
X123726000Y-138166000D01*
X123726000Y-136916000D01*
X123729010Y-136854739D01*
X123738009Y-136794069D01*
X123752912Y-136734572D01*
X123773575Y-136676823D01*
X123799799Y-136621377D01*
X123831331Y-136568769D01*
X123867868Y-136519504D01*
X123909058Y-136474058D01*
X123954504Y-136432868D01*
X124003769Y-136396331D01*
X124056377Y-136364799D01*
X124111823Y-136338575D01*
X124169572Y-136317912D01*
X124229069Y-136303009D01*
X124289739Y-136294010D01*
X124351000Y-136291000D01*
X125601000Y-136291000D01*
X125662261Y-136294010D01*
X125662261Y-136294010D01*
G37*
D13*
G04 #@! TD*
G04 #@! TO.P,D7,1*
G04 #@! TO.N,GND*
X124976000Y-137541000D03*
D11*
G04 #@! TO.P,D7,2*
G04 #@! TO.N,Net-(D7-Pad2)*
X128516000Y-137541000D03*
G04 #@! TD*
G04 #@! TO.P,D8,2*
G04 #@! TO.N,Net-(D7-Pad2)*
X117340000Y-118110000D03*
D12*
G04 #@! TD*
G04 #@! TO.N,GND*
G04 #@! TO.C,D8*
G36*
X114486261Y-116863010D02*
X114546931Y-116872009D01*
X114606428Y-116886912D01*
X114664177Y-116907575D01*
X114719623Y-116933799D01*
X114772231Y-116965331D01*
X114821496Y-117001868D01*
X114866942Y-117043058D01*
X114908132Y-117088504D01*
X114944669Y-117137769D01*
X114976201Y-117190377D01*
X115002425Y-117245823D01*
X115023088Y-117303572D01*
X115037991Y-117363069D01*
X115046990Y-117423739D01*
X115050000Y-117485000D01*
X115050000Y-118735000D01*
X115046990Y-118796261D01*
X115037991Y-118856931D01*
X115023088Y-118916428D01*
X115002425Y-118974177D01*
X114976201Y-119029623D01*
X114944669Y-119082231D01*
X114908132Y-119131496D01*
X114866942Y-119176942D01*
X114821496Y-119218132D01*
X114772231Y-119254669D01*
X114719623Y-119286201D01*
X114664177Y-119312425D01*
X114606428Y-119333088D01*
X114546931Y-119347991D01*
X114486261Y-119356990D01*
X114425000Y-119360000D01*
X113175000Y-119360000D01*
X113113739Y-119356990D01*
X113053069Y-119347991D01*
X112993572Y-119333088D01*
X112935823Y-119312425D01*
X112880377Y-119286201D01*
X112827769Y-119254669D01*
X112778504Y-119218132D01*
X112733058Y-119176942D01*
X112691868Y-119131496D01*
X112655331Y-119082231D01*
X112623799Y-119029623D01*
X112597575Y-118974177D01*
X112576912Y-118916428D01*
X112562009Y-118856931D01*
X112553010Y-118796261D01*
X112550000Y-118735000D01*
X112550000Y-117485000D01*
X112553010Y-117423739D01*
X112562009Y-117363069D01*
X112576912Y-117303572D01*
X112597575Y-117245823D01*
X112623799Y-117190377D01*
X112655331Y-117137769D01*
X112691868Y-117088504D01*
X112733058Y-117043058D01*
X112778504Y-117001868D01*
X112827769Y-116965331D01*
X112880377Y-116933799D01*
X112935823Y-116907575D01*
X112993572Y-116886912D01*
X113053069Y-116872009D01*
X113113739Y-116863010D01*
X113175000Y-116860000D01*
X114425000Y-116860000D01*
X114486261Y-116863010D01*
X114486261Y-116863010D01*
G37*
D13*
G04 #@! TO.P,D8,1*
G04 #@! TO.N,GND*
X113800000Y-118110000D03*
G04 #@! TD*
D12*
G04 #@! TO.N,GND*
G04 #@! TO.C,D9*
G36*
X91626261Y-116355010D02*
X91686931Y-116364009D01*
X91746428Y-116378912D01*
X91804177Y-116399575D01*
X91859623Y-116425799D01*
X91912231Y-116457331D01*
X91961496Y-116493868D01*
X92006942Y-116535058D01*
X92048132Y-116580504D01*
X92084669Y-116629769D01*
X92116201Y-116682377D01*
X92142425Y-116737823D01*
X92163088Y-116795572D01*
X92177991Y-116855069D01*
X92186990Y-116915739D01*
X92190000Y-116977000D01*
X92190000Y-118227000D01*
X92186990Y-118288261D01*
X92177991Y-118348931D01*
X92163088Y-118408428D01*
X92142425Y-118466177D01*
X92116201Y-118521623D01*
X92084669Y-118574231D01*
X92048132Y-118623496D01*
X92006942Y-118668942D01*
X91961496Y-118710132D01*
X91912231Y-118746669D01*
X91859623Y-118778201D01*
X91804177Y-118804425D01*
X91746428Y-118825088D01*
X91686931Y-118839991D01*
X91626261Y-118848990D01*
X91565000Y-118852000D01*
X90315000Y-118852000D01*
X90253739Y-118848990D01*
X90193069Y-118839991D01*
X90133572Y-118825088D01*
X90075823Y-118804425D01*
X90020377Y-118778201D01*
X89967769Y-118746669D01*
X89918504Y-118710132D01*
X89873058Y-118668942D01*
X89831868Y-118623496D01*
X89795331Y-118574231D01*
X89763799Y-118521623D01*
X89737575Y-118466177D01*
X89716912Y-118408428D01*
X89702009Y-118348931D01*
X89693010Y-118288261D01*
X89690000Y-118227000D01*
X89690000Y-116977000D01*
X89693010Y-116915739D01*
X89702009Y-116855069D01*
X89716912Y-116795572D01*
X89737575Y-116737823D01*
X89763799Y-116682377D01*
X89795331Y-116629769D01*
X89831868Y-116580504D01*
X89873058Y-116535058D01*
X89918504Y-116493868D01*
X89967769Y-116457331D01*
X90020377Y-116425799D01*
X90075823Y-116399575D01*
X90133572Y-116378912D01*
X90193069Y-116364009D01*
X90253739Y-116355010D01*
X90315000Y-116352000D01*
X91565000Y-116352000D01*
X91626261Y-116355010D01*
X91626261Y-116355010D01*
G37*
D13*
G04 #@! TD*
G04 #@! TO.P,D9,1*
G04 #@! TO.N,GND*
X90940000Y-117602000D03*
D11*
G04 #@! TO.P,D9,2*
G04 #@! TO.N,Net-(D10-Pad2)*
X94480000Y-117602000D03*
G04 #@! TD*
G04 #@! TO.P,D10,2*
G04 #@! TO.N,Net-(D10-Pad2)*
X106164000Y-98044000D03*
D12*
G04 #@! TD*
G04 #@! TO.N,GND*
G04 #@! TO.C,D10*
G36*
X103310261Y-96797010D02*
X103370931Y-96806009D01*
X103430428Y-96820912D01*
X103488177Y-96841575D01*
X103543623Y-96867799D01*
X103596231Y-96899331D01*
X103645496Y-96935868D01*
X103690942Y-96977058D01*
X103732132Y-97022504D01*
X103768669Y-97071769D01*
X103800201Y-97124377D01*
X103826425Y-97179823D01*
X103847088Y-97237572D01*
X103861991Y-97297069D01*
X103870990Y-97357739D01*
X103874000Y-97419000D01*
X103874000Y-98669000D01*
X103870990Y-98730261D01*
X103861991Y-98790931D01*
X103847088Y-98850428D01*
X103826425Y-98908177D01*
X103800201Y-98963623D01*
X103768669Y-99016231D01*
X103732132Y-99065496D01*
X103690942Y-99110942D01*
X103645496Y-99152132D01*
X103596231Y-99188669D01*
X103543623Y-99220201D01*
X103488177Y-99246425D01*
X103430428Y-99267088D01*
X103370931Y-99281991D01*
X103310261Y-99290990D01*
X103249000Y-99294000D01*
X101999000Y-99294000D01*
X101937739Y-99290990D01*
X101877069Y-99281991D01*
X101817572Y-99267088D01*
X101759823Y-99246425D01*
X101704377Y-99220201D01*
X101651769Y-99188669D01*
X101602504Y-99152132D01*
X101557058Y-99110942D01*
X101515868Y-99065496D01*
X101479331Y-99016231D01*
X101447799Y-98963623D01*
X101421575Y-98908177D01*
X101400912Y-98850428D01*
X101386009Y-98790931D01*
X101377010Y-98730261D01*
X101374000Y-98669000D01*
X101374000Y-97419000D01*
X101377010Y-97357739D01*
X101386009Y-97297069D01*
X101400912Y-97237572D01*
X101421575Y-97179823D01*
X101447799Y-97124377D01*
X101479331Y-97071769D01*
X101515868Y-97022504D01*
X101557058Y-96977058D01*
X101602504Y-96935868D01*
X101651769Y-96899331D01*
X101704377Y-96867799D01*
X101759823Y-96841575D01*
X101817572Y-96820912D01*
X101877069Y-96806009D01*
X101937739Y-96797010D01*
X101999000Y-96794000D01*
X103249000Y-96794000D01*
X103310261Y-96797010D01*
X103310261Y-96797010D01*
G37*
D13*
G04 #@! TO.P,D10,1*
G04 #@! TO.N,GND*
X102624000Y-98044000D03*
G04 #@! TD*
D12*
G04 #@! TO.N,GND*
G04 #@! TO.C,D11*
G36*
X90991261Y-76731010D02*
X91051931Y-76740009D01*
X91111428Y-76754912D01*
X91169177Y-76775575D01*
X91224623Y-76801799D01*
X91277231Y-76833331D01*
X91326496Y-76869868D01*
X91371942Y-76911058D01*
X91413132Y-76956504D01*
X91449669Y-77005769D01*
X91481201Y-77058377D01*
X91507425Y-77113823D01*
X91528088Y-77171572D01*
X91542991Y-77231069D01*
X91551990Y-77291739D01*
X91555000Y-77353000D01*
X91555000Y-78603000D01*
X91551990Y-78664261D01*
X91542991Y-78724931D01*
X91528088Y-78784428D01*
X91507425Y-78842177D01*
X91481201Y-78897623D01*
X91449669Y-78950231D01*
X91413132Y-78999496D01*
X91371942Y-79044942D01*
X91326496Y-79086132D01*
X91277231Y-79122669D01*
X91224623Y-79154201D01*
X91169177Y-79180425D01*
X91111428Y-79201088D01*
X91051931Y-79215991D01*
X90991261Y-79224990D01*
X90930000Y-79228000D01*
X89680000Y-79228000D01*
X89618739Y-79224990D01*
X89558069Y-79215991D01*
X89498572Y-79201088D01*
X89440823Y-79180425D01*
X89385377Y-79154201D01*
X89332769Y-79122669D01*
X89283504Y-79086132D01*
X89238058Y-79044942D01*
X89196868Y-78999496D01*
X89160331Y-78950231D01*
X89128799Y-78897623D01*
X89102575Y-78842177D01*
X89081912Y-78784428D01*
X89067009Y-78724931D01*
X89058010Y-78664261D01*
X89055000Y-78603000D01*
X89055000Y-77353000D01*
X89058010Y-77291739D01*
X89067009Y-77231069D01*
X89081912Y-77171572D01*
X89102575Y-77113823D01*
X89128799Y-77058377D01*
X89160331Y-77005769D01*
X89196868Y-76956504D01*
X89238058Y-76911058D01*
X89283504Y-76869868D01*
X89332769Y-76833331D01*
X89385377Y-76801799D01*
X89440823Y-76775575D01*
X89498572Y-76754912D01*
X89558069Y-76740009D01*
X89618739Y-76731010D01*
X89680000Y-76728000D01*
X90930000Y-76728000D01*
X90991261Y-76731010D01*
X90991261Y-76731010D01*
G37*
D13*
G04 #@! TD*
G04 #@! TO.P,D11,1*
G04 #@! TO.N,GND*
X90305000Y-77978000D03*
D11*
G04 #@! TO.P,D11,2*
G04 #@! TO.N,Net-(D11-Pad2)*
X93845000Y-77978000D03*
G04 #@! TD*
G04 #@! TO.P,D12,2*
G04 #@! TO.N,Net-(D11-Pad2)*
X117594000Y-78486000D03*
D12*
G04 #@! TD*
G04 #@! TO.N,GND*
G04 #@! TO.C,D12*
G36*
X114740261Y-77239010D02*
X114800931Y-77248009D01*
X114860428Y-77262912D01*
X114918177Y-77283575D01*
X114973623Y-77309799D01*
X115026231Y-77341331D01*
X115075496Y-77377868D01*
X115120942Y-77419058D01*
X115162132Y-77464504D01*
X115198669Y-77513769D01*
X115230201Y-77566377D01*
X115256425Y-77621823D01*
X115277088Y-77679572D01*
X115291991Y-77739069D01*
X115300990Y-77799739D01*
X115304000Y-77861000D01*
X115304000Y-79111000D01*
X115300990Y-79172261D01*
X115291991Y-79232931D01*
X115277088Y-79292428D01*
X115256425Y-79350177D01*
X115230201Y-79405623D01*
X115198669Y-79458231D01*
X115162132Y-79507496D01*
X115120942Y-79552942D01*
X115075496Y-79594132D01*
X115026231Y-79630669D01*
X114973623Y-79662201D01*
X114918177Y-79688425D01*
X114860428Y-79709088D01*
X114800931Y-79723991D01*
X114740261Y-79732990D01*
X114679000Y-79736000D01*
X113429000Y-79736000D01*
X113367739Y-79732990D01*
X113307069Y-79723991D01*
X113247572Y-79709088D01*
X113189823Y-79688425D01*
X113134377Y-79662201D01*
X113081769Y-79630669D01*
X113032504Y-79594132D01*
X112987058Y-79552942D01*
X112945868Y-79507496D01*
X112909331Y-79458231D01*
X112877799Y-79405623D01*
X112851575Y-79350177D01*
X112830912Y-79292428D01*
X112816009Y-79232931D01*
X112807010Y-79172261D01*
X112804000Y-79111000D01*
X112804000Y-77861000D01*
X112807010Y-77799739D01*
X112816009Y-77739069D01*
X112830912Y-77679572D01*
X112851575Y-77621823D01*
X112877799Y-77566377D01*
X112909331Y-77513769D01*
X112945868Y-77464504D01*
X112987058Y-77419058D01*
X113032504Y-77377868D01*
X113081769Y-77341331D01*
X113134377Y-77309799D01*
X113189823Y-77283575D01*
X113247572Y-77262912D01*
X113307069Y-77248009D01*
X113367739Y-77239010D01*
X113429000Y-77236000D01*
X114679000Y-77236000D01*
X114740261Y-77239010D01*
X114740261Y-77239010D01*
G37*
D13*
G04 #@! TO.P,D12,1*
G04 #@! TO.N,GND*
X114054000Y-78486000D03*
G04 #@! TD*
D12*
G04 #@! TO.N,GND*
G04 #@! TO.C,D13*
G36*
X114613261Y-87653010D02*
X114673931Y-87662009D01*
X114733428Y-87676912D01*
X114791177Y-87697575D01*
X114846623Y-87723799D01*
X114899231Y-87755331D01*
X114948496Y-87791868D01*
X114993942Y-87833058D01*
X115035132Y-87878504D01*
X115071669Y-87927769D01*
X115103201Y-87980377D01*
X115129425Y-88035823D01*
X115150088Y-88093572D01*
X115164991Y-88153069D01*
X115173990Y-88213739D01*
X115177000Y-88275000D01*
X115177000Y-89525000D01*
X115173990Y-89586261D01*
X115164991Y-89646931D01*
X115150088Y-89706428D01*
X115129425Y-89764177D01*
X115103201Y-89819623D01*
X115071669Y-89872231D01*
X115035132Y-89921496D01*
X114993942Y-89966942D01*
X114948496Y-90008132D01*
X114899231Y-90044669D01*
X114846623Y-90076201D01*
X114791177Y-90102425D01*
X114733428Y-90123088D01*
X114673931Y-90137991D01*
X114613261Y-90146990D01*
X114552000Y-90150000D01*
X113302000Y-90150000D01*
X113240739Y-90146990D01*
X113180069Y-90137991D01*
X113120572Y-90123088D01*
X113062823Y-90102425D01*
X113007377Y-90076201D01*
X112954769Y-90044669D01*
X112905504Y-90008132D01*
X112860058Y-89966942D01*
X112818868Y-89921496D01*
X112782331Y-89872231D01*
X112750799Y-89819623D01*
X112724575Y-89764177D01*
X112703912Y-89706428D01*
X112689009Y-89646931D01*
X112680010Y-89586261D01*
X112677000Y-89525000D01*
X112677000Y-88275000D01*
X112680010Y-88213739D01*
X112689009Y-88153069D01*
X112703912Y-88093572D01*
X112724575Y-88035823D01*
X112750799Y-87980377D01*
X112782331Y-87927769D01*
X112818868Y-87878504D01*
X112860058Y-87833058D01*
X112905504Y-87791868D01*
X112954769Y-87755331D01*
X113007377Y-87723799D01*
X113062823Y-87697575D01*
X113120572Y-87676912D01*
X113180069Y-87662009D01*
X113240739Y-87653010D01*
X113302000Y-87650000D01*
X114552000Y-87650000D01*
X114613261Y-87653010D01*
X114613261Y-87653010D01*
G37*
D13*
G04 #@! TD*
G04 #@! TO.P,D13,1*
G04 #@! TO.N,GND*
X113927000Y-88900000D03*
D11*
G04 #@! TO.P,D13,2*
G04 #@! TO.N,Net-(D13-Pad2)*
X117467000Y-88900000D03*
G04 #@! TD*
G04 #@! TO.P,D14,2*
G04 #@! TO.N,Net-(D13-Pad2)*
X140200000Y-106680000D03*
D12*
G04 #@! TD*
G04 #@! TO.N,GND*
G04 #@! TO.C,D14*
G36*
X137346261Y-105433010D02*
X137406931Y-105442009D01*
X137466428Y-105456912D01*
X137524177Y-105477575D01*
X137579623Y-105503799D01*
X137632231Y-105535331D01*
X137681496Y-105571868D01*
X137726942Y-105613058D01*
X137768132Y-105658504D01*
X137804669Y-105707769D01*
X137836201Y-105760377D01*
X137862425Y-105815823D01*
X137883088Y-105873572D01*
X137897991Y-105933069D01*
X137906990Y-105993739D01*
X137910000Y-106055000D01*
X137910000Y-107305000D01*
X137906990Y-107366261D01*
X137897991Y-107426931D01*
X137883088Y-107486428D01*
X137862425Y-107544177D01*
X137836201Y-107599623D01*
X137804669Y-107652231D01*
X137768132Y-107701496D01*
X137726942Y-107746942D01*
X137681496Y-107788132D01*
X137632231Y-107824669D01*
X137579623Y-107856201D01*
X137524177Y-107882425D01*
X137466428Y-107903088D01*
X137406931Y-107917991D01*
X137346261Y-107926990D01*
X137285000Y-107930000D01*
X136035000Y-107930000D01*
X135973739Y-107926990D01*
X135913069Y-107917991D01*
X135853572Y-107903088D01*
X135795823Y-107882425D01*
X135740377Y-107856201D01*
X135687769Y-107824669D01*
X135638504Y-107788132D01*
X135593058Y-107746942D01*
X135551868Y-107701496D01*
X135515331Y-107652231D01*
X135483799Y-107599623D01*
X135457575Y-107544177D01*
X135436912Y-107486428D01*
X135422009Y-107426931D01*
X135413010Y-107366261D01*
X135410000Y-107305000D01*
X135410000Y-106055000D01*
X135413010Y-105993739D01*
X135422009Y-105933069D01*
X135436912Y-105873572D01*
X135457575Y-105815823D01*
X135483799Y-105760377D01*
X135515331Y-105707769D01*
X135551868Y-105658504D01*
X135593058Y-105613058D01*
X135638504Y-105571868D01*
X135687769Y-105535331D01*
X135740377Y-105503799D01*
X135795823Y-105477575D01*
X135853572Y-105456912D01*
X135913069Y-105442009D01*
X135973739Y-105433010D01*
X136035000Y-105430000D01*
X137285000Y-105430000D01*
X137346261Y-105433010D01*
X137346261Y-105433010D01*
G37*
D13*
G04 #@! TO.P,D14,1*
G04 #@! TO.N,GND*
X136660000Y-106680000D03*
G04 #@! TD*
D12*
G04 #@! TO.N,GND*
G04 #@! TO.C,D15*
G36*
X137346261Y-87653010D02*
X137406931Y-87662009D01*
X137466428Y-87676912D01*
X137524177Y-87697575D01*
X137579623Y-87723799D01*
X137632231Y-87755331D01*
X137681496Y-87791868D01*
X137726942Y-87833058D01*
X137768132Y-87878504D01*
X137804669Y-87927769D01*
X137836201Y-87980377D01*
X137862425Y-88035823D01*
X137883088Y-88093572D01*
X137897991Y-88153069D01*
X137906990Y-88213739D01*
X137910000Y-88275000D01*
X137910000Y-89525000D01*
X137906990Y-89586261D01*
X137897991Y-89646931D01*
X137883088Y-89706428D01*
X137862425Y-89764177D01*
X137836201Y-89819623D01*
X137804669Y-89872231D01*
X137768132Y-89921496D01*
X137726942Y-89966942D01*
X137681496Y-90008132D01*
X137632231Y-90044669D01*
X137579623Y-90076201D01*
X137524177Y-90102425D01*
X137466428Y-90123088D01*
X137406931Y-90137991D01*
X137346261Y-90146990D01*
X137285000Y-90150000D01*
X136035000Y-90150000D01*
X135973739Y-90146990D01*
X135913069Y-90137991D01*
X135853572Y-90123088D01*
X135795823Y-90102425D01*
X135740377Y-90076201D01*
X135687769Y-90044669D01*
X135638504Y-90008132D01*
X135593058Y-89966942D01*
X135551868Y-89921496D01*
X135515331Y-89872231D01*
X135483799Y-89819623D01*
X135457575Y-89764177D01*
X135436912Y-89706428D01*
X135422009Y-89646931D01*
X135413010Y-89586261D01*
X135410000Y-89525000D01*
X135410000Y-88275000D01*
X135413010Y-88213739D01*
X135422009Y-88153069D01*
X135436912Y-88093572D01*
X135457575Y-88035823D01*
X135483799Y-87980377D01*
X135515331Y-87927769D01*
X135551868Y-87878504D01*
X135593058Y-87833058D01*
X135638504Y-87791868D01*
X135687769Y-87755331D01*
X135740377Y-87723799D01*
X135795823Y-87697575D01*
X135853572Y-87676912D01*
X135913069Y-87662009D01*
X135973739Y-87653010D01*
X136035000Y-87650000D01*
X137285000Y-87650000D01*
X137346261Y-87653010D01*
X137346261Y-87653010D01*
G37*
D13*
G04 #@! TD*
G04 #@! TO.P,D15,1*
G04 #@! TO.N,GND*
X136660000Y-88900000D03*
D11*
G04 #@! TO.P,D15,2*
G04 #@! TO.N,Net-(D15-Pad2)*
X140200000Y-88900000D03*
G04 #@! TD*
G04 #@! TO.P,D16,2*
G04 #@! TO.N,Net-(D15-Pad2)*
X117975000Y-106680000D03*
D12*
G04 #@! TD*
G04 #@! TO.N,GND*
G04 #@! TO.C,D16*
G36*
X115121261Y-105433010D02*
X115181931Y-105442009D01*
X115241428Y-105456912D01*
X115299177Y-105477575D01*
X115354623Y-105503799D01*
X115407231Y-105535331D01*
X115456496Y-105571868D01*
X115501942Y-105613058D01*
X115543132Y-105658504D01*
X115579669Y-105707769D01*
X115611201Y-105760377D01*
X115637425Y-105815823D01*
X115658088Y-105873572D01*
X115672991Y-105933069D01*
X115681990Y-105993739D01*
X115685000Y-106055000D01*
X115685000Y-107305000D01*
X115681990Y-107366261D01*
X115672991Y-107426931D01*
X115658088Y-107486428D01*
X115637425Y-107544177D01*
X115611201Y-107599623D01*
X115579669Y-107652231D01*
X115543132Y-107701496D01*
X115501942Y-107746942D01*
X115456496Y-107788132D01*
X115407231Y-107824669D01*
X115354623Y-107856201D01*
X115299177Y-107882425D01*
X115241428Y-107903088D01*
X115181931Y-107917991D01*
X115121261Y-107926990D01*
X115060000Y-107930000D01*
X113810000Y-107930000D01*
X113748739Y-107926990D01*
X113688069Y-107917991D01*
X113628572Y-107903088D01*
X113570823Y-107882425D01*
X113515377Y-107856201D01*
X113462769Y-107824669D01*
X113413504Y-107788132D01*
X113368058Y-107746942D01*
X113326868Y-107701496D01*
X113290331Y-107652231D01*
X113258799Y-107599623D01*
X113232575Y-107544177D01*
X113211912Y-107486428D01*
X113197009Y-107426931D01*
X113188010Y-107366261D01*
X113185000Y-107305000D01*
X113185000Y-106055000D01*
X113188010Y-105993739D01*
X113197009Y-105933069D01*
X113211912Y-105873572D01*
X113232575Y-105815823D01*
X113258799Y-105760377D01*
X113290331Y-105707769D01*
X113326868Y-105658504D01*
X113368058Y-105613058D01*
X113413504Y-105571868D01*
X113462769Y-105535331D01*
X113515377Y-105503799D01*
X113570823Y-105477575D01*
X113628572Y-105456912D01*
X113688069Y-105442009D01*
X113748739Y-105433010D01*
X113810000Y-105430000D01*
X115060000Y-105430000D01*
X115121261Y-105433010D01*
X115121261Y-105433010D01*
G37*
D13*
G04 #@! TO.P,D16,1*
G04 #@! TO.N,GND*
X114435000Y-106680000D03*
G04 #@! TD*
D14*
G04 #@! TO.P,Tiny85,8*
G04 #@! TO.N,VCC*
X130429000Y-74803000D03*
G04 #@! TO.P,Tiny85,4*
G04 #@! TO.N,GND*
X122809000Y-82423000D03*
G04 #@! TO.P,Tiny85,7*
G04 #@! TO.N,Net-(Shift1-Pad12)*
X130429000Y-77343000D03*
G04 #@! TO.P,Tiny85,3*
G04 #@! TO.N,BTN*
X122809000Y-79883000D03*
G04 #@! TO.P,Tiny85,6*
G04 #@! TO.N,Net-(Shift1-Pad11)*
X130429000Y-79883000D03*
G04 #@! TO.P,Tiny85,2*
G04 #@! TO.N,Net-(Shift1-Pad13)*
X122809000Y-77343000D03*
G04 #@! TO.P,Tiny85,5*
G04 #@! TO.N,Net-(Shift1-Pad14)*
X130429000Y-82423000D03*
D15*
G04 #@! TO.P,Tiny85,1*
G04 #@! TO.N,VCC*
X122809000Y-74803000D03*
G04 #@! TD*
D13*
G04 #@! TO.P,Battery1,1*
G04 #@! TO.N,GND*
X127254000Y-89536000D03*
G04 #@! TO.P,Battery1,2*
G04 #@! TO.N,Net-(Battery1-Pad2)*
X127254000Y-109036000D03*
G04 #@! TD*
D16*
G04 #@! TO.P,Power1,3*
G04 #@! TO.N,Net-(Power1-Pad3)*
X151130000Y-85471000D03*
G04 #@! TO.P,Power1,2*
G04 #@! TO.N,Net-(Battery1-Pad2)*
X151130000Y-82931000D03*
D17*
G04 #@! TO.P,Power1,1*
G04 #@! TO.N,VCC*
X151130000Y-80391000D03*
G04 #@! TD*
D18*
G04 #@! TO.P,Shift1,1*
G04 #@! TO.N,Net-(D3-Pad2)*
X130937000Y-130810000D03*
D19*
G04 #@! TO.P,Shift1,9*
G04 #@! TO.N,Net-(Shift1-Pad9)*
X123317000Y-113030000D03*
G04 #@! TO.P,Shift1,2*
G04 #@! TO.N,Net-(D5-Pad2)*
X130937000Y-128270000D03*
G04 #@! TO.P,Shift1,10*
G04 #@! TO.N,VCC*
X123317000Y-115570000D03*
G04 #@! TO.P,Shift1,3*
G04 #@! TO.N,Net-(D7-Pad2)*
X130937000Y-125730000D03*
G04 #@! TO.P,Shift1,11*
G04 #@! TO.N,Net-(Shift1-Pad11)*
X123317000Y-118110000D03*
G04 #@! TO.P,Shift1,4*
G04 #@! TO.N,Net-(D10-Pad2)*
X130937000Y-123190000D03*
G04 #@! TO.P,Shift1,12*
G04 #@! TO.N,Net-(Shift1-Pad12)*
X123317000Y-120650000D03*
G04 #@! TO.P,Shift1,5*
G04 #@! TO.N,Net-(D11-Pad2)*
X130937000Y-120650000D03*
G04 #@! TO.P,Shift1,13*
G04 #@! TO.N,Net-(Shift1-Pad13)*
X123317000Y-123190000D03*
G04 #@! TO.P,Shift1,6*
G04 #@! TO.N,Net-(D13-Pad2)*
X130937000Y-118110000D03*
G04 #@! TO.P,Shift1,14*
G04 #@! TO.N,Net-(Shift1-Pad14)*
X123317000Y-125730000D03*
G04 #@! TO.P,Shift1,7*
G04 #@! TO.N,Net-(D15-Pad2)*
X130937000Y-115570000D03*
G04 #@! TO.P,Shift1,15*
G04 #@! TO.N,Net-(D1-Pad2)*
X123317000Y-128270000D03*
G04 #@! TO.P,Shift1,8*
G04 #@! TO.N,GND*
X130937000Y-113030000D03*
G04 #@! TO.P,Shift1,16*
G04 #@! TO.N,VCC*
X123317000Y-130810000D03*
G04 #@! TD*
D13*
G04 #@! TO.P,,1*
G04 #@! TO.N,N/C*
X126873000Y-53162200D03*
G04 #@! TD*
D20*
G04 #@! TO.N,Net-(D5-Pad2)*
X129389300Y-117687700D03*
G04 #@! TO.N,Net-(D11-Pad2)*
X120193500Y-107413200D03*
G04 #@! TO.N,Net-(Battery1-Pad2)*
X131483900Y-100015200D03*
G04 #@! TO.N,Net-(Shift1-Pad12)*
X121037700Y-86479200D03*
G04 #@! TO.N,Net-(Shift1-Pad11)*
X123062100Y-87052400D03*
G04 #@! TD*
D21*
G04 #@! TO.N,GND*
X130937000Y-113030000D02*
X128311400Y-115655600D01*
X128311400Y-115655600D02*
X128311400Y-134705600D01*
X128311400Y-134705600D02*
X125476000Y-137541000D01*
X122809000Y-82423000D02*
X124334300Y-82423000D01*
X124334300Y-82423000D02*
X124334300Y-60450700D01*
X124334300Y-60450700D02*
X125603000Y-59182000D01*
X105814000Y-86415000D02*
X105814000Y-95354000D01*
X105814000Y-95354000D02*
X103124000Y-98044000D01*
X114427000Y-86415000D02*
X105814000Y-86415000D01*
X114554000Y-78486000D02*
X114554000Y-86288000D01*
X114554000Y-86288000D02*
X114427000Y-86415000D01*
X114427000Y-86415000D02*
X114427000Y-88900000D01*
X114935000Y-106680000D02*
X114300000Y-107315000D01*
X114300000Y-107315000D02*
X114300000Y-118110000D01*
G04 #@! TO.N,Net-(D1-Pad2)*
X133964800Y-80327800D02*
X133964800Y-78879700D01*
X133964800Y-78879700D02*
X131232000Y-76146900D01*
X131232000Y-76146900D02*
X129685800Y-76146900D01*
X129685800Y-76146900D02*
X128143000Y-74604100D01*
X128143000Y-74604100D02*
X128143000Y-59182000D01*
X123317000Y-127144700D02*
X123598300Y-127144700D01*
X123598300Y-127144700D02*
X127167700Y-123575300D01*
X127167700Y-123575300D02*
X127167700Y-113566300D01*
X127167700Y-113566300D02*
X130114100Y-110619900D01*
X130114100Y-110619900D02*
X130114100Y-87817900D01*
X130114100Y-87817900D02*
X133964800Y-83967200D01*
X133964800Y-83967200D02*
X133964800Y-80327800D01*
X133964800Y-80327800D02*
X137201000Y-80327800D01*
X137201000Y-80327800D02*
X138116700Y-79412100D01*
X138116700Y-79412100D02*
X138116700Y-78740000D01*
X139192000Y-78740000D02*
X138116700Y-78740000D01*
X123317000Y-128270000D02*
X123317000Y-127144700D01*
G04 #@! TO.N,Net-(D3-Pad2)*
X130937000Y-130810000D02*
X130937000Y-129684700D01*
X130937000Y-129684700D02*
X130655700Y-129684700D01*
X130655700Y-129684700D02*
X129772700Y-128801700D01*
X129772700Y-128801700D02*
X129772700Y-120199100D01*
X129772700Y-120199100D02*
X130721900Y-119249900D01*
X130721900Y-119249900D02*
X131400000Y-119249900D01*
X131400000Y-119249900D02*
X150114000Y-100535900D01*
X150114000Y-100535900D02*
X150114000Y-97790000D01*
G04 #@! TO.N,Net-(D5-Pad2)*
X130937000Y-128270000D02*
X132082600Y-129415600D01*
X132082600Y-129415600D02*
X132082600Y-131758200D01*
X132082600Y-131758200D02*
X131887200Y-131953600D01*
X131887200Y-131953600D02*
X130007000Y-131953600D01*
X130007000Y-131953600D02*
X129322400Y-131269000D01*
X129322400Y-131269000D02*
X129322400Y-117754600D01*
X129322400Y-117754600D02*
X129389300Y-117687700D01*
X161671000Y-117602000D02*
X160595700Y-117602000D01*
X139319000Y-117348000D02*
X139319000Y-116022700D01*
X139319000Y-116022700D02*
X141754800Y-113586900D01*
X141754800Y-113586900D02*
X157252700Y-113586900D01*
X157252700Y-113586900D02*
X160595700Y-116929900D01*
X160595700Y-116929900D02*
X160595700Y-117602000D01*
G04 #@! TO.N,Net-(D7-Pad2)*
X128016000Y-137541000D02*
X128016000Y-136215700D01*
X130937000Y-125730000D02*
X130937000Y-126855300D01*
X130937000Y-126855300D02*
X131218300Y-126855300D01*
X131218300Y-126855300D02*
X132559200Y-128196200D01*
X132559200Y-128196200D02*
X132559200Y-131921000D01*
X132559200Y-131921000D02*
X128264500Y-136215700D01*
X128264500Y-136215700D02*
X128016000Y-136215700D01*
G04 #@! TO.N,Net-(D11-Pad2)*
X120193500Y-107413200D02*
X120193500Y-82910800D01*
X120193500Y-82910800D02*
X117094000Y-79811300D01*
X117094000Y-78486000D02*
X117094000Y-79811300D01*
G04 #@! TO.N,Net-(D13-Pad2)*
X130937000Y-118110000D02*
X130937000Y-116984700D01*
X130937000Y-116984700D02*
X131218300Y-116984700D01*
X131218300Y-116984700D02*
X139700000Y-108503000D01*
X139700000Y-108503000D02*
X139700000Y-106680000D01*
G04 #@! TO.N,Net-(D15-Pad2)*
X130937000Y-115570000D02*
X130937000Y-114444700D01*
X139700000Y-88900000D02*
X138624700Y-88900000D01*
X138624700Y-88900000D02*
X138624700Y-107319600D01*
X138624700Y-107319600D02*
X131499600Y-114444700D01*
X131499600Y-114444700D02*
X130937000Y-114444700D01*
G04 #@! TO.N,VCC*
X122809000Y-74803000D02*
X120832900Y-76779100D01*
X120832900Y-76779100D02*
X120832900Y-83465900D01*
X120832900Y-83465900D02*
X124442300Y-87075300D01*
X124442300Y-87075300D02*
X124442300Y-113600800D01*
X124442300Y-113600800D02*
X123598400Y-114444700D01*
X123598400Y-114444700D02*
X123317000Y-114444700D01*
X123317000Y-115570000D02*
X123317000Y-114444700D01*
G04 #@! TO.N,Net-(Battery1-Pad2)*
X151130000Y-82931000D02*
X140007200Y-82931000D01*
X140007200Y-82931000D02*
X131483900Y-91454300D01*
X131483900Y-91454300D02*
X131483900Y-100015200D01*
G04 #@! TO.N,Net-(Shift1-Pad14)*
X123317000Y-124604700D02*
X123521400Y-124604700D01*
X123521400Y-124604700D02*
X125667300Y-122458800D01*
X125667300Y-122458800D02*
X125667300Y-85659400D01*
X125667300Y-85659400D02*
X128903700Y-82423000D01*
X130429000Y-82423000D02*
X128903700Y-82423000D01*
X123317000Y-125730000D02*
X123317000Y-124604700D01*
G04 #@! TO.N,Net-(Shift1-Pad13)*
X122809000Y-77343000D02*
X121283700Y-77343000D01*
X123317000Y-123190000D02*
X123317000Y-122064700D01*
X123317000Y-122064700D02*
X123598300Y-122064700D01*
X123598300Y-122064700D02*
X124892700Y-120770300D01*
X124892700Y-120770300D02*
X124892700Y-86583200D01*
X124892700Y-86583200D02*
X121283700Y-82974200D01*
X121283700Y-82974200D02*
X121283700Y-77343000D01*
G04 #@! TO.N,Net-(Shift1-Pad12)*
X123317000Y-120650000D02*
X123317000Y-119524700D01*
X123317000Y-119524700D02*
X123035700Y-119524700D01*
X123035700Y-119524700D02*
X121037700Y-117526700D01*
X121037700Y-117526700D02*
X121037700Y-86479200D01*
G04 #@! TO.N,Net-(Shift1-Pad11)*
X123317000Y-116984700D02*
X123035700Y-116984700D01*
X123035700Y-116984700D02*
X122140800Y-116089800D01*
X122140800Y-116089800D02*
X122140800Y-87973700D01*
X122140800Y-87973700D02*
X123062100Y-87052400D01*
X123317000Y-118110000D02*
X123317000Y-116984700D01*
G04 #@! TD*
D22*
G36*
X127310058Y-139848849D02*
X128024698Y-139991000D01*
X128646973Y-139991000D01*
X126830539Y-142999843D01*
X126800027Y-143037720D01*
X125120744Y-140269407D01*
X125601000Y-140269407D01*
X126405939Y-140109295D01*
X127052890Y-139677015D01*
X127310058Y-139848849D01*
X127310058Y-139848849D01*
G37*
X127310058Y-139848849D02*
X128024698Y-139991000D01*
X128646973Y-139991000D01*
X126830539Y-142999843D01*
X126800027Y-143037720D01*
X125120744Y-140269407D01*
X125601000Y-140269407D01*
X126405939Y-140109295D01*
X127052890Y-139677015D01*
X127310058Y-139848849D01*
G36*
X130879095Y-136293587D02*
X130692803Y-136014782D01*
X131587590Y-135119995D01*
X130879095Y-136293587D01*
X130879095Y-136293587D01*
G37*
X130879095Y-136293587D02*
X130692803Y-136014782D01*
X131587590Y-135119995D01*
X130879095Y-136293587D01*
G36*
X126736401Y-134053213D02*
X125914636Y-134874979D01*
X125601000Y-134812593D01*
X124351000Y-134812593D01*
X123546061Y-134972705D01*
X122863667Y-135428667D01*
X122538792Y-135914876D01*
X122458119Y-135776648D01*
X120965197Y-133198876D01*
X119719632Y-131031343D01*
X119214026Y-130122468D01*
X119099602Y-129822502D01*
X119089898Y-129757215D01*
X119108783Y-129436409D01*
X119138325Y-129322869D01*
X119400513Y-128733989D01*
X119545720Y-128499093D01*
X120499834Y-127230488D01*
X120586199Y-127126876D01*
X120587727Y-127124864D01*
X120605592Y-127103137D01*
X121158641Y-126412315D01*
X121197546Y-126607906D01*
X121459535Y-127000000D01*
X121197546Y-127392094D01*
X121022920Y-128270000D01*
X121197546Y-129147906D01*
X121459535Y-129540000D01*
X121197546Y-129932094D01*
X121022920Y-130810000D01*
X121197546Y-131687906D01*
X121694840Y-132432160D01*
X122439094Y-132929454D01*
X123095394Y-133060000D01*
X123538606Y-133060000D01*
X124194906Y-132929454D01*
X124939160Y-132432160D01*
X125436454Y-131687906D01*
X125611080Y-130810000D01*
X125436454Y-129932094D01*
X125174465Y-129540000D01*
X125436454Y-129147906D01*
X125611080Y-128270000D01*
X125459986Y-127510399D01*
X126736401Y-126233985D01*
X126736401Y-134053213D01*
X126736401Y-134053213D01*
G37*
X126736401Y-134053213D02*
X125914636Y-134874979D01*
X125601000Y-134812593D01*
X124351000Y-134812593D01*
X123546061Y-134972705D01*
X122863667Y-135428667D01*
X122538792Y-135914876D01*
X122458119Y-135776648D01*
X120965197Y-133198876D01*
X119719632Y-131031343D01*
X119214026Y-130122468D01*
X119099602Y-129822502D01*
X119089898Y-129757215D01*
X119108783Y-129436409D01*
X119138325Y-129322869D01*
X119400513Y-128733989D01*
X119545720Y-128499093D01*
X120499834Y-127230488D01*
X120586199Y-127126876D01*
X120587727Y-127124864D01*
X120605592Y-127103137D01*
X121158641Y-126412315D01*
X121197546Y-126607906D01*
X121459535Y-127000000D01*
X121197546Y-127392094D01*
X121022920Y-128270000D01*
X121197546Y-129147906D01*
X121459535Y-129540000D01*
X121197546Y-129932094D01*
X121022920Y-130810000D01*
X121197546Y-131687906D01*
X121694840Y-132432160D01*
X122439094Y-132929454D01*
X123095394Y-133060000D01*
X123538606Y-133060000D01*
X124194906Y-132929454D01*
X124939160Y-132432160D01*
X125436454Y-131687906D01*
X125611080Y-130810000D01*
X125436454Y-129932094D01*
X125174465Y-129540000D01*
X125436454Y-129147906D01*
X125611080Y-128270000D01*
X125459986Y-127510399D01*
X126736401Y-126233985D01*
X126736401Y-134053213D01*
G36*
X134332455Y-128827965D02*
X134463969Y-129183501D01*
X134502089Y-129440187D01*
X134473837Y-129711125D01*
X134190839Y-130535666D01*
X134134200Y-130651609D01*
X134134200Y-128492100D01*
X134332455Y-128827965D01*
X134332455Y-128827965D01*
G37*
X134332455Y-128827965D02*
X134463969Y-129183501D01*
X134502089Y-129440187D01*
X134473837Y-129711125D01*
X134190839Y-130535666D01*
X134134200Y-130651609D01*
X134134200Y-128492100D01*
X134332455Y-128827965D01*
G36*
X138613058Y-119655849D02*
X139327698Y-119798000D01*
X140310302Y-119798000D01*
X141024942Y-119655849D01*
X141055750Y-119635264D01*
X141786681Y-123475753D01*
X141664695Y-123373070D01*
X140294562Y-122195074D01*
X138887726Y-120968271D01*
X137756975Y-119964756D01*
X137738826Y-119942555D01*
X137707339Y-119916613D01*
X137708939Y-119916295D01*
X138355890Y-119484015D01*
X138613058Y-119655849D01*
X138613058Y-119655849D01*
G37*
X138613058Y-119655849D02*
X139327698Y-119798000D01*
X140310302Y-119798000D01*
X141024942Y-119655849D01*
X141055750Y-119635264D01*
X141786681Y-123475753D01*
X141664695Y-123373070D01*
X140294562Y-122195074D01*
X138887726Y-120968271D01*
X137756975Y-119964756D01*
X137738826Y-119942555D01*
X137707339Y-119916613D01*
X137708939Y-119916295D01*
X138355890Y-119484015D01*
X138613058Y-119655849D01*
G36*
X116071867Y-120376294D02*
X115232581Y-120927127D01*
X115144259Y-120989609D01*
X113423230Y-122299605D01*
X113403782Y-122309788D01*
X112112393Y-123351322D01*
X112305293Y-122384007D01*
X112309480Y-122373484D01*
X112335120Y-122234437D01*
X112362787Y-122095697D01*
X112362793Y-122084365D01*
X112613151Y-120726648D01*
X113175000Y-120838407D01*
X114425000Y-120838407D01*
X115229939Y-120678295D01*
X115876890Y-120246015D01*
X116071867Y-120376294D01*
X116071867Y-120376294D01*
G37*
X116071867Y-120376294D02*
X115232581Y-120927127D01*
X115144259Y-120989609D01*
X113423230Y-122299605D01*
X113403782Y-122309788D01*
X112112393Y-123351322D01*
X112305293Y-122384007D01*
X112309480Y-122373484D01*
X112335120Y-122234437D01*
X112362787Y-122095697D01*
X112362793Y-122084365D01*
X112613151Y-120726648D01*
X113175000Y-120838407D01*
X114425000Y-120838407D01*
X115229939Y-120678295D01*
X115876890Y-120246015D01*
X116071867Y-120376294D01*
G36*
X111198593Y-88275000D02*
X111198593Y-89525000D01*
X111358705Y-90329939D01*
X111814667Y-91012333D01*
X112497061Y-91468295D01*
X113302000Y-91628407D01*
X114552000Y-91628407D01*
X115356939Y-91468295D01*
X116003890Y-91036015D01*
X116261058Y-91207849D01*
X116975698Y-91350000D01*
X117958302Y-91350000D01*
X118618501Y-91218678D01*
X118618500Y-104260274D01*
X118466302Y-104230000D01*
X117483698Y-104230000D01*
X116769058Y-104372151D01*
X116511890Y-104543985D01*
X115864939Y-104111705D01*
X115060000Y-103951593D01*
X113810000Y-103951593D01*
X113005061Y-104111705D01*
X112322667Y-104567667D01*
X111866705Y-105250061D01*
X111706593Y-106055000D01*
X111706593Y-107305000D01*
X111866705Y-108109939D01*
X112322667Y-108792333D01*
X112725000Y-109061164D01*
X112725001Y-113374419D01*
X112698032Y-113339498D01*
X112613398Y-113265739D01*
X112242102Y-112942151D01*
X111971261Y-112786898D01*
X111923345Y-112770798D01*
X111778209Y-112693348D01*
X111614284Y-112637906D01*
X111265015Y-112541136D01*
X111226357Y-112534815D01*
X111189280Y-112522193D01*
X111018557Y-112493929D01*
X110295776Y-112415409D01*
X110239214Y-112415409D01*
X110198400Y-112407926D01*
X109971451Y-112414307D01*
X109526028Y-112459635D01*
X109457266Y-112476284D01*
X109386632Y-112480259D01*
X109167558Y-112539867D01*
X108601526Y-112739435D01*
X108526291Y-112778136D01*
X108333986Y-112863511D01*
X108315385Y-112874573D01*
X107941071Y-113100723D01*
X107839071Y-113179101D01*
X107732732Y-113251525D01*
X107716413Y-113265739D01*
X107181715Y-113738087D01*
X107145832Y-113777740D01*
X107038679Y-113882189D01*
X107014167Y-113911059D01*
X106683027Y-114310881D01*
X106638017Y-114375323D01*
X106589066Y-114436816D01*
X106568371Y-114468535D01*
X106047735Y-115288244D01*
X106038430Y-115305952D01*
X105998044Y-115372206D01*
X105978954Y-115408013D01*
X105851070Y-115655630D01*
X105842813Y-115673530D01*
X105833428Y-115690881D01*
X105816211Y-115727625D01*
X105145255Y-117209672D01*
X105126296Y-117238803D01*
X103858898Y-120406343D01*
X95303967Y-120406343D01*
X88033025Y-120304023D01*
X88016467Y-120300786D01*
X88010599Y-120279087D01*
X88013624Y-120190984D01*
X88073378Y-120018103D01*
X88514497Y-119245642D01*
X88827667Y-119714333D01*
X89510061Y-120170295D01*
X90315000Y-120330407D01*
X91565000Y-120330407D01*
X92369939Y-120170295D01*
X93016890Y-119738015D01*
X93274058Y-119909849D01*
X93988698Y-120052000D01*
X94971302Y-120052000D01*
X95685942Y-119909849D01*
X96496351Y-119368351D01*
X97037849Y-118557942D01*
X97227998Y-117602000D01*
X97037849Y-116646058D01*
X96496351Y-115835649D01*
X95685942Y-115294151D01*
X94971302Y-115152000D01*
X93988698Y-115152000D01*
X93274058Y-115294151D01*
X93016890Y-115465985D01*
X92369939Y-115033705D01*
X91565000Y-114873593D01*
X91011188Y-114873593D01*
X92242795Y-112716879D01*
X95749286Y-106712940D01*
X99587460Y-107167515D01*
X99600800Y-107171589D01*
X99738926Y-107185454D01*
X99876807Y-107201784D01*
X99890715Y-107200690D01*
X102884181Y-107501173D01*
X102957097Y-107494129D01*
X103387235Y-107496731D01*
X103443393Y-107490974D01*
X103499786Y-107493321D01*
X103671536Y-107472182D01*
X104383365Y-107343890D01*
X104603390Y-107279063D01*
X104645906Y-107272300D01*
X104758660Y-107230616D01*
X104932848Y-107123710D01*
X105119319Y-107040060D01*
X105402366Y-106838829D01*
X105708407Y-106514509D01*
X105817435Y-106398970D01*
X106001928Y-106104739D01*
X106007588Y-106089871D01*
X106025362Y-106066128D01*
X106166019Y-105750497D01*
X106172425Y-105729825D01*
X106298466Y-105312871D01*
X106321977Y-105185015D01*
X106352552Y-105058633D01*
X106355114Y-105037144D01*
X106432327Y-104348779D01*
X106432327Y-104276642D01*
X106441255Y-104223638D01*
X106432327Y-104014015D01*
X106432327Y-104003225D01*
X106431761Y-104000736D01*
X106431594Y-103996805D01*
X106371742Y-103482571D01*
X106351313Y-103403227D01*
X106344346Y-103321592D01*
X106278429Y-103104333D01*
X106059867Y-102537261D01*
X106011931Y-102450345D01*
X105904637Y-102236992D01*
X105895584Y-102223519D01*
X105604030Y-101794471D01*
X105500864Y-101676200D01*
X105402283Y-101554104D01*
X105390585Y-101542852D01*
X104903693Y-101079476D01*
X104876895Y-101059514D01*
X104828404Y-101012353D01*
X104698583Y-100915046D01*
X104150782Y-100547586D01*
X104700890Y-100180015D01*
X104958058Y-100351849D01*
X105672698Y-100494000D01*
X106655302Y-100494000D01*
X107369942Y-100351849D01*
X108180351Y-99810351D01*
X108721849Y-98999942D01*
X108911998Y-98044000D01*
X108721849Y-97088058D01*
X108180351Y-96277649D01*
X107369942Y-95736151D01*
X107344835Y-95731157D01*
X107389000Y-95509123D01*
X107419856Y-95354001D01*
X107389000Y-95198879D01*
X107389000Y-88304822D01*
X107703822Y-87990000D01*
X111255283Y-87990000D01*
X111198593Y-88275000D01*
X111198593Y-88275000D01*
G37*
X111198593Y-88275000D02*
X111198593Y-89525000D01*
X111358705Y-90329939D01*
X111814667Y-91012333D01*
X112497061Y-91468295D01*
X113302000Y-91628407D01*
X114552000Y-91628407D01*
X115356939Y-91468295D01*
X116003890Y-91036015D01*
X116261058Y-91207849D01*
X116975698Y-91350000D01*
X117958302Y-91350000D01*
X118618501Y-91218678D01*
X118618500Y-104260274D01*
X118466302Y-104230000D01*
X117483698Y-104230000D01*
X116769058Y-104372151D01*
X116511890Y-104543985D01*
X115864939Y-104111705D01*
X115060000Y-103951593D01*
X113810000Y-103951593D01*
X113005061Y-104111705D01*
X112322667Y-104567667D01*
X111866705Y-105250061D01*
X111706593Y-106055000D01*
X111706593Y-107305000D01*
X111866705Y-108109939D01*
X112322667Y-108792333D01*
X112725000Y-109061164D01*
X112725001Y-113374419D01*
X112698032Y-113339498D01*
X112613398Y-113265739D01*
X112242102Y-112942151D01*
X111971261Y-112786898D01*
X111923345Y-112770798D01*
X111778209Y-112693348D01*
X111614284Y-112637906D01*
X111265015Y-112541136D01*
X111226357Y-112534815D01*
X111189280Y-112522193D01*
X111018557Y-112493929D01*
X110295776Y-112415409D01*
X110239214Y-112415409D01*
X110198400Y-112407926D01*
X109971451Y-112414307D01*
X109526028Y-112459635D01*
X109457266Y-112476284D01*
X109386632Y-112480259D01*
X109167558Y-112539867D01*
X108601526Y-112739435D01*
X108526291Y-112778136D01*
X108333986Y-112863511D01*
X108315385Y-112874573D01*
X107941071Y-113100723D01*
X107839071Y-113179101D01*
X107732732Y-113251525D01*
X107716413Y-113265739D01*
X107181715Y-113738087D01*
X107145832Y-113777740D01*
X107038679Y-113882189D01*
X107014167Y-113911059D01*
X106683027Y-114310881D01*
X106638017Y-114375323D01*
X106589066Y-114436816D01*
X106568371Y-114468535D01*
X106047735Y-115288244D01*
X106038430Y-115305952D01*
X105998044Y-115372206D01*
X105978954Y-115408013D01*
X105851070Y-115655630D01*
X105842813Y-115673530D01*
X105833428Y-115690881D01*
X105816211Y-115727625D01*
X105145255Y-117209672D01*
X105126296Y-117238803D01*
X103858898Y-120406343D01*
X95303967Y-120406343D01*
X88033025Y-120304023D01*
X88016467Y-120300786D01*
X88010599Y-120279087D01*
X88013624Y-120190984D01*
X88073378Y-120018103D01*
X88514497Y-119245642D01*
X88827667Y-119714333D01*
X89510061Y-120170295D01*
X90315000Y-120330407D01*
X91565000Y-120330407D01*
X92369939Y-120170295D01*
X93016890Y-119738015D01*
X93274058Y-119909849D01*
X93988698Y-120052000D01*
X94971302Y-120052000D01*
X95685942Y-119909849D01*
X96496351Y-119368351D01*
X97037849Y-118557942D01*
X97227998Y-117602000D01*
X97037849Y-116646058D01*
X96496351Y-115835649D01*
X95685942Y-115294151D01*
X94971302Y-115152000D01*
X93988698Y-115152000D01*
X93274058Y-115294151D01*
X93016890Y-115465985D01*
X92369939Y-115033705D01*
X91565000Y-114873593D01*
X91011188Y-114873593D01*
X92242795Y-112716879D01*
X95749286Y-106712940D01*
X99587460Y-107167515D01*
X99600800Y-107171589D01*
X99738926Y-107185454D01*
X99876807Y-107201784D01*
X99890715Y-107200690D01*
X102884181Y-107501173D01*
X102957097Y-107494129D01*
X103387235Y-107496731D01*
X103443393Y-107490974D01*
X103499786Y-107493321D01*
X103671536Y-107472182D01*
X104383365Y-107343890D01*
X104603390Y-107279063D01*
X104645906Y-107272300D01*
X104758660Y-107230616D01*
X104932848Y-107123710D01*
X105119319Y-107040060D01*
X105402366Y-106838829D01*
X105708407Y-106514509D01*
X105817435Y-106398970D01*
X106001928Y-106104739D01*
X106007588Y-106089871D01*
X106025362Y-106066128D01*
X106166019Y-105750497D01*
X106172425Y-105729825D01*
X106298466Y-105312871D01*
X106321977Y-105185015D01*
X106352552Y-105058633D01*
X106355114Y-105037144D01*
X106432327Y-104348779D01*
X106432327Y-104276642D01*
X106441255Y-104223638D01*
X106432327Y-104014015D01*
X106432327Y-104003225D01*
X106431761Y-104000736D01*
X106431594Y-103996805D01*
X106371742Y-103482571D01*
X106351313Y-103403227D01*
X106344346Y-103321592D01*
X106278429Y-103104333D01*
X106059867Y-102537261D01*
X106011931Y-102450345D01*
X105904637Y-102236992D01*
X105895584Y-102223519D01*
X105604030Y-101794471D01*
X105500864Y-101676200D01*
X105402283Y-101554104D01*
X105390585Y-101542852D01*
X104903693Y-101079476D01*
X104876895Y-101059514D01*
X104828404Y-101012353D01*
X104698583Y-100915046D01*
X104150782Y-100547586D01*
X104700890Y-100180015D01*
X104958058Y-100351849D01*
X105672698Y-100494000D01*
X106655302Y-100494000D01*
X107369942Y-100351849D01*
X108180351Y-99810351D01*
X108721849Y-98999942D01*
X108911998Y-98044000D01*
X108721849Y-97088058D01*
X108180351Y-96277649D01*
X107369942Y-95736151D01*
X107344835Y-95731157D01*
X107389000Y-95509123D01*
X107419856Y-95354001D01*
X107389000Y-95198879D01*
X107389000Y-88304822D01*
X107703822Y-87990000D01*
X111255283Y-87990000D01*
X111198593Y-88275000D01*
G36*
X156764093Y-115325678D02*
X156518667Y-115489667D01*
X156062705Y-116172061D01*
X155902593Y-116977000D01*
X155902593Y-118227000D01*
X156062705Y-119031939D01*
X156518667Y-119714333D01*
X157201061Y-120170295D01*
X158006000Y-120330407D01*
X159256000Y-120330407D01*
X160060939Y-120170295D01*
X160707890Y-119738015D01*
X160965058Y-119909849D01*
X161679698Y-120052000D01*
X162662302Y-120052000D01*
X163376942Y-119909849D01*
X164187351Y-119368351D01*
X164728849Y-118557942D01*
X164807474Y-118162668D01*
X166139127Y-120406343D01*
X150197087Y-120406343D01*
X148742214Y-117180012D01*
X148738588Y-117174933D01*
X148674945Y-117036753D01*
X148672564Y-117032147D01*
X148638354Y-116962583D01*
X147847652Y-115462085D01*
X147801651Y-115383638D01*
X147784086Y-115352554D01*
X147662767Y-115161900D01*
X156600315Y-115161900D01*
X156764093Y-115325678D01*
X156764093Y-115325678D01*
G37*
X156764093Y-115325678D02*
X156518667Y-115489667D01*
X156062705Y-116172061D01*
X155902593Y-116977000D01*
X155902593Y-118227000D01*
X156062705Y-119031939D01*
X156518667Y-119714333D01*
X157201061Y-120170295D01*
X158006000Y-120330407D01*
X159256000Y-120330407D01*
X160060939Y-120170295D01*
X160707890Y-119738015D01*
X160965058Y-119909849D01*
X161679698Y-120052000D01*
X162662302Y-120052000D01*
X163376942Y-119909849D01*
X164187351Y-119368351D01*
X164728849Y-118557942D01*
X164807474Y-118162668D01*
X166139127Y-120406343D01*
X150197087Y-120406343D01*
X148742214Y-117180012D01*
X148738588Y-117174933D01*
X148674945Y-117036753D01*
X148672564Y-117032147D01*
X148638354Y-116962583D01*
X147847652Y-115462085D01*
X147801651Y-115383638D01*
X147784086Y-115352554D01*
X147662767Y-115161900D01*
X156600315Y-115161900D01*
X156764093Y-115325678D01*
G36*
X116769058Y-108987849D02*
X117483698Y-109130000D01*
X118466302Y-109130000D01*
X119167304Y-108990562D01*
X119462700Y-109112919D01*
X119462700Y-116502812D01*
X119356351Y-116343649D01*
X118545942Y-115802151D01*
X117831302Y-115660000D01*
X116848698Y-115660000D01*
X116134058Y-115802151D01*
X115876890Y-115973985D01*
X115875000Y-115972722D01*
X115875000Y-109241572D01*
X116511890Y-108816015D01*
X116769058Y-108987849D01*
X116769058Y-108987849D01*
G37*
X116769058Y-108987849D02*
X117483698Y-109130000D01*
X118466302Y-109130000D01*
X119167304Y-108990562D01*
X119462700Y-109112919D01*
X119462700Y-116502812D01*
X119356351Y-116343649D01*
X118545942Y-115802151D01*
X117831302Y-115660000D01*
X116848698Y-115660000D01*
X116134058Y-115802151D01*
X115876890Y-115973985D01*
X115875000Y-115972722D01*
X115875000Y-109241572D01*
X116511890Y-108816015D01*
X116769058Y-108987849D01*
G36*
X147754685Y-105143081D02*
X148021285Y-105543504D01*
X148104700Y-105632626D01*
X148171549Y-105734760D01*
X148369094Y-105915109D01*
X148751025Y-106207587D01*
X148858809Y-106264884D01*
X148955137Y-106339858D01*
X149200450Y-106446495D01*
X149656528Y-106599490D01*
X149658918Y-106599873D01*
X149669307Y-106603715D01*
X149786415Y-106636847D01*
X149905763Y-106660688D01*
X149948043Y-106667420D01*
X149978908Y-106671099D01*
X150009588Y-106675958D01*
X152034036Y-106915566D01*
X152155366Y-106925115D01*
X154070481Y-107000359D01*
X154100565Y-107006343D01*
X158186036Y-107006343D01*
X162710027Y-114628724D01*
X162710030Y-114628727D01*
X163068562Y-115232810D01*
X162662302Y-115152000D01*
X161679698Y-115152000D01*
X161150458Y-115257273D01*
X158476085Y-112582900D01*
X158388212Y-112451388D01*
X157867234Y-112103283D01*
X157407823Y-112011900D01*
X157407822Y-112011900D01*
X157252700Y-111981044D01*
X157097578Y-112011900D01*
X141909921Y-112011900D01*
X141754799Y-111981044D01*
X141599677Y-112011900D01*
X141140266Y-112103283D01*
X140619288Y-112451388D01*
X140531416Y-112582898D01*
X138314998Y-114799317D01*
X138183489Y-114887188D01*
X138086666Y-115032095D01*
X137941912Y-114935373D01*
X147747438Y-105129848D01*
X147754685Y-105143081D01*
X147754685Y-105143081D01*
G37*
X147754685Y-105143081D02*
X148021285Y-105543504D01*
X148104700Y-105632626D01*
X148171549Y-105734760D01*
X148369094Y-105915109D01*
X148751025Y-106207587D01*
X148858809Y-106264884D01*
X148955137Y-106339858D01*
X149200450Y-106446495D01*
X149656528Y-106599490D01*
X149658918Y-106599873D01*
X149669307Y-106603715D01*
X149786415Y-106636847D01*
X149905763Y-106660688D01*
X149948043Y-106667420D01*
X149978908Y-106671099D01*
X150009588Y-106675958D01*
X152034036Y-106915566D01*
X152155366Y-106925115D01*
X154070481Y-107000359D01*
X154100565Y-107006343D01*
X158186036Y-107006343D01*
X162710027Y-114628724D01*
X162710030Y-114628727D01*
X163068562Y-115232810D01*
X162662302Y-115152000D01*
X161679698Y-115152000D01*
X161150458Y-115257273D01*
X158476085Y-112582900D01*
X158388212Y-112451388D01*
X157867234Y-112103283D01*
X157407823Y-112011900D01*
X157407822Y-112011900D01*
X157252700Y-111981044D01*
X157097578Y-112011900D01*
X141909921Y-112011900D01*
X141754799Y-111981044D01*
X141599677Y-112011900D01*
X141140266Y-112103283D01*
X140619288Y-112451388D01*
X140531416Y-112582898D01*
X138314998Y-114799317D01*
X138183489Y-114887188D01*
X138086666Y-115032095D01*
X137941912Y-114935373D01*
X147747438Y-105129848D01*
X147754685Y-105143081D01*
G36*
X134547667Y-91012333D02*
X135230061Y-91468295D01*
X136035000Y-91628407D01*
X137049700Y-91628407D01*
X137049701Y-103951593D01*
X136035000Y-103951593D01*
X135230061Y-104111705D01*
X134547667Y-104567667D01*
X134091705Y-105250061D01*
X133931593Y-106055000D01*
X133931593Y-107305000D01*
X134091705Y-108109939D01*
X134547667Y-108792333D01*
X134773610Y-108943304D01*
X132409245Y-111307670D01*
X131814906Y-110910546D01*
X131667957Y-110881316D01*
X131689100Y-110775023D01*
X131689100Y-110775022D01*
X131719956Y-110619900D01*
X131689100Y-110464778D01*
X131689100Y-101865200D01*
X131851888Y-101865200D01*
X132531841Y-101583555D01*
X133052255Y-101063141D01*
X133333900Y-100383188D01*
X133333900Y-99647212D01*
X133058900Y-98983301D01*
X133058900Y-92106685D01*
X134389686Y-90775899D01*
X134547667Y-91012333D01*
X134547667Y-91012333D01*
G37*
X134547667Y-91012333D02*
X135230061Y-91468295D01*
X136035000Y-91628407D01*
X137049700Y-91628407D01*
X137049701Y-103951593D01*
X136035000Y-103951593D01*
X135230061Y-104111705D01*
X134547667Y-104567667D01*
X134091705Y-105250061D01*
X133931593Y-106055000D01*
X133931593Y-107305000D01*
X134091705Y-108109939D01*
X134547667Y-108792333D01*
X134773610Y-108943304D01*
X132409245Y-111307670D01*
X131814906Y-110910546D01*
X131667957Y-110881316D01*
X131689100Y-110775023D01*
X131689100Y-110775022D01*
X131719956Y-110619900D01*
X131689100Y-110464778D01*
X131689100Y-101865200D01*
X131851888Y-101865200D01*
X132531841Y-101583555D01*
X133052255Y-101063141D01*
X133333900Y-100383188D01*
X133333900Y-99647212D01*
X133058900Y-98983301D01*
X133058900Y-92106685D01*
X134389686Y-90775899D01*
X134547667Y-91012333D01*
G36*
X128539100Y-106645847D02*
X127791063Y-106336000D01*
X127242300Y-106336000D01*
X127242300Y-92236000D01*
X127791063Y-92236000D01*
X128539101Y-91926152D01*
X128539100Y-106645847D01*
X128539100Y-106645847D01*
G37*
X128539100Y-106645847D02*
X127791063Y-106336000D01*
X127242300Y-106336000D01*
X127242300Y-92236000D01*
X127791063Y-92236000D01*
X128539101Y-91926152D01*
X128539100Y-106645847D01*
G36*
X161982450Y-75553466D02*
X165000890Y-75697917D01*
X165662293Y-75750160D01*
X165205940Y-76604499D01*
X164607505Y-77685493D01*
X164601849Y-77657058D01*
X164060351Y-76846649D01*
X163249942Y-76305151D01*
X162535302Y-76163000D01*
X161552698Y-76163000D01*
X160838058Y-76305151D01*
X160580890Y-76476985D01*
X159933939Y-76044705D01*
X159129000Y-75884593D01*
X157879000Y-75884593D01*
X157074061Y-76044705D01*
X156391667Y-76500667D01*
X155935705Y-77183061D01*
X155775593Y-77988000D01*
X155775593Y-79238000D01*
X155935705Y-80042939D01*
X156391667Y-80725333D01*
X157074061Y-81181295D01*
X157879000Y-81341407D01*
X159129000Y-81341407D01*
X159933939Y-81181295D01*
X160580890Y-80749015D01*
X160838058Y-80920849D01*
X161552698Y-81063000D01*
X162535302Y-81063000D01*
X162715316Y-81027193D01*
X162043627Y-82191545D01*
X158038275Y-89023588D01*
X154168526Y-88651754D01*
X154153852Y-88647651D01*
X154016724Y-88637168D01*
X153879779Y-88624009D01*
X153864614Y-88625539D01*
X150968240Y-88404114D01*
X150900787Y-88412251D01*
X150470328Y-88416920D01*
X150420800Y-88422494D01*
X150370978Y-88421188D01*
X150210051Y-88441797D01*
X149452338Y-88579469D01*
X149298235Y-88623943D01*
X149254818Y-88628951D01*
X149198505Y-88647064D01*
X149177349Y-88658830D01*
X149151347Y-88666334D01*
X148984243Y-88754057D01*
X148879156Y-88791400D01*
X148551296Y-88986941D01*
X148551295Y-88986941D01*
X148551294Y-88986942D01*
X148389623Y-89132832D01*
X148126973Y-89369844D01*
X148102298Y-89392110D01*
X147874225Y-89698233D01*
X147867456Y-89712464D01*
X147850899Y-89730395D01*
X147662692Y-90088592D01*
X147516648Y-90485129D01*
X147478842Y-90652632D01*
X147434398Y-90818500D01*
X147355247Y-91419713D01*
X147355247Y-91451266D01*
X147341996Y-91627319D01*
X147342037Y-91639329D01*
X147343122Y-91646384D01*
X147355247Y-91802701D01*
X147355247Y-91824345D01*
X147357610Y-91833163D01*
X147360838Y-91874783D01*
X147443310Y-92399323D01*
X147476304Y-92504059D01*
X147492507Y-92612668D01*
X147581788Y-92838912D01*
X147814850Y-93316013D01*
X147850282Y-93367402D01*
X147899480Y-93467197D01*
X148000321Y-93607825D01*
X148326173Y-94012479D01*
X148365109Y-94051357D01*
X148397991Y-94095469D01*
X148522682Y-94215458D01*
X149095647Y-94708268D01*
X149096070Y-94708559D01*
X149264227Y-94834403D01*
X149277899Y-94843150D01*
X149842796Y-95200404D01*
X149908083Y-95235719D01*
X149971899Y-95273643D01*
X149986422Y-95280891D01*
X150111113Y-95342304D01*
X149408058Y-95482151D01*
X149150890Y-95653985D01*
X148503939Y-95221705D01*
X147699000Y-95061593D01*
X146449000Y-95061593D01*
X145644061Y-95221705D01*
X144961667Y-95677667D01*
X144505705Y-96360061D01*
X144345593Y-97165000D01*
X144345593Y-98415000D01*
X144505705Y-99219939D01*
X144961667Y-99902333D01*
X145644061Y-100358295D01*
X146449000Y-100518407D01*
X147699000Y-100518407D01*
X147955036Y-100467478D01*
X142734060Y-105688455D01*
X142216351Y-104913649D01*
X141405942Y-104372151D01*
X140691302Y-104230000D01*
X140199700Y-104230000D01*
X140199700Y-91350000D01*
X140691302Y-91350000D01*
X141405942Y-91207849D01*
X142216351Y-90666351D01*
X142757849Y-89855942D01*
X142947998Y-88900000D01*
X142757849Y-87944058D01*
X142216351Y-87133649D01*
X141405942Y-86592151D01*
X140691302Y-86450000D01*
X139708698Y-86450000D01*
X138994058Y-86592151D01*
X138736890Y-86763985D01*
X138535899Y-86629687D01*
X140659586Y-84506000D01*
X149008607Y-84506000D01*
X148963448Y-84573585D01*
X148784941Y-85471000D01*
X148963448Y-86368415D01*
X149471793Y-87129207D01*
X150232585Y-87637552D01*
X150903473Y-87771000D01*
X151356527Y-87771000D01*
X152027415Y-87637552D01*
X152788207Y-87129207D01*
X153296552Y-86368415D01*
X153475059Y-85471000D01*
X153296552Y-84573585D01*
X153047599Y-84201000D01*
X153296552Y-83828415D01*
X153475059Y-82931000D01*
X153296552Y-82033585D01*
X153245432Y-81957078D01*
X153345870Y-81806762D01*
X153458407Y-81241000D01*
X153458407Y-79541000D01*
X153345870Y-78975238D01*
X153025392Y-78495608D01*
X152545762Y-78175130D01*
X151980000Y-78062593D01*
X150280000Y-78062593D01*
X149714238Y-78175130D01*
X149234608Y-78495608D01*
X148914130Y-78975238D01*
X148801593Y-79541000D01*
X148801593Y-81241000D01*
X148824468Y-81356000D01*
X147236543Y-81356000D01*
X147259240Y-81328245D01*
X147348255Y-81192603D01*
X147977393Y-80114872D01*
X148011271Y-80049163D01*
X148045756Y-79983776D01*
X148635382Y-78708139D01*
X148657677Y-78673883D01*
X149925076Y-75506343D01*
X158373812Y-75506343D01*
X161982450Y-75553466D01*
X161982450Y-75553466D01*
G37*
X161982450Y-75553466D02*
X165000890Y-75697917D01*
X165662293Y-75750160D01*
X165205940Y-76604499D01*
X164607505Y-77685493D01*
X164601849Y-77657058D01*
X164060351Y-76846649D01*
X163249942Y-76305151D01*
X162535302Y-76163000D01*
X161552698Y-76163000D01*
X160838058Y-76305151D01*
X160580890Y-76476985D01*
X159933939Y-76044705D01*
X159129000Y-75884593D01*
X157879000Y-75884593D01*
X157074061Y-76044705D01*
X156391667Y-76500667D01*
X155935705Y-77183061D01*
X155775593Y-77988000D01*
X155775593Y-79238000D01*
X155935705Y-80042939D01*
X156391667Y-80725333D01*
X157074061Y-81181295D01*
X157879000Y-81341407D01*
X159129000Y-81341407D01*
X159933939Y-81181295D01*
X160580890Y-80749015D01*
X160838058Y-80920849D01*
X161552698Y-81063000D01*
X162535302Y-81063000D01*
X162715316Y-81027193D01*
X162043627Y-82191545D01*
X158038275Y-89023588D01*
X154168526Y-88651754D01*
X154153852Y-88647651D01*
X154016724Y-88637168D01*
X153879779Y-88624009D01*
X153864614Y-88625539D01*
X150968240Y-88404114D01*
X150900787Y-88412251D01*
X150470328Y-88416920D01*
X150420800Y-88422494D01*
X150370978Y-88421188D01*
X150210051Y-88441797D01*
X149452338Y-88579469D01*
X149298235Y-88623943D01*
X149254818Y-88628951D01*
X149198505Y-88647064D01*
X149177349Y-88658830D01*
X149151347Y-88666334D01*
X148984243Y-88754057D01*
X148879156Y-88791400D01*
X148551296Y-88986941D01*
X148551295Y-88986941D01*
X148551294Y-88986942D01*
X148389623Y-89132832D01*
X148126973Y-89369844D01*
X148102298Y-89392110D01*
X147874225Y-89698233D01*
X147867456Y-89712464D01*
X147850899Y-89730395D01*
X147662692Y-90088592D01*
X147516648Y-90485129D01*
X147478842Y-90652632D01*
X147434398Y-90818500D01*
X147355247Y-91419713D01*
X147355247Y-91451266D01*
X147341996Y-91627319D01*
X147342037Y-91639329D01*
X147343122Y-91646384D01*
X147355247Y-91802701D01*
X147355247Y-91824345D01*
X147357610Y-91833163D01*
X147360838Y-91874783D01*
X147443310Y-92399323D01*
X147476304Y-92504059D01*
X147492507Y-92612668D01*
X147581788Y-92838912D01*
X147814850Y-93316013D01*
X147850282Y-93367402D01*
X147899480Y-93467197D01*
X148000321Y-93607825D01*
X148326173Y-94012479D01*
X148365109Y-94051357D01*
X148397991Y-94095469D01*
X148522682Y-94215458D01*
X149095647Y-94708268D01*
X149096070Y-94708559D01*
X149264227Y-94834403D01*
X149277899Y-94843150D01*
X149842796Y-95200404D01*
X149908083Y-95235719D01*
X149971899Y-95273643D01*
X149986422Y-95280891D01*
X150111113Y-95342304D01*
X149408058Y-95482151D01*
X149150890Y-95653985D01*
X148503939Y-95221705D01*
X147699000Y-95061593D01*
X146449000Y-95061593D01*
X145644061Y-95221705D01*
X144961667Y-95677667D01*
X144505705Y-96360061D01*
X144345593Y-97165000D01*
X144345593Y-98415000D01*
X144505705Y-99219939D01*
X144961667Y-99902333D01*
X145644061Y-100358295D01*
X146449000Y-100518407D01*
X147699000Y-100518407D01*
X147955036Y-100467478D01*
X142734060Y-105688455D01*
X142216351Y-104913649D01*
X141405942Y-104372151D01*
X140691302Y-104230000D01*
X140199700Y-104230000D01*
X140199700Y-91350000D01*
X140691302Y-91350000D01*
X141405942Y-91207849D01*
X142216351Y-90666351D01*
X142757849Y-89855942D01*
X142947998Y-88900000D01*
X142757849Y-87944058D01*
X142216351Y-87133649D01*
X141405942Y-86592151D01*
X140691302Y-86450000D01*
X139708698Y-86450000D01*
X138994058Y-86592151D01*
X138736890Y-86763985D01*
X138535899Y-86629687D01*
X140659586Y-84506000D01*
X149008607Y-84506000D01*
X148963448Y-84573585D01*
X148784941Y-85471000D01*
X148963448Y-86368415D01*
X149471793Y-87129207D01*
X150232585Y-87637552D01*
X150903473Y-87771000D01*
X151356527Y-87771000D01*
X152027415Y-87637552D01*
X152788207Y-87129207D01*
X153296552Y-86368415D01*
X153475059Y-85471000D01*
X153296552Y-84573585D01*
X153047599Y-84201000D01*
X153296552Y-83828415D01*
X153475059Y-82931000D01*
X153296552Y-82033585D01*
X153245432Y-81957078D01*
X153345870Y-81806762D01*
X153458407Y-81241000D01*
X153458407Y-79541000D01*
X153345870Y-78975238D01*
X153025392Y-78495608D01*
X152545762Y-78175130D01*
X151980000Y-78062593D01*
X150280000Y-78062593D01*
X149714238Y-78175130D01*
X149234608Y-78495608D01*
X148914130Y-78975238D01*
X148801593Y-79541000D01*
X148801593Y-81241000D01*
X148824468Y-81356000D01*
X147236543Y-81356000D01*
X147259240Y-81328245D01*
X147348255Y-81192603D01*
X147977393Y-80114872D01*
X148011271Y-80049163D01*
X148045756Y-79983776D01*
X148635382Y-78708139D01*
X148657677Y-78673883D01*
X149925076Y-75506343D01*
X158373812Y-75506343D01*
X161982450Y-75553466D01*
G36*
X153734225Y-96819460D02*
X153735275Y-96820108D01*
X153876644Y-96872842D01*
X154018957Y-96926185D01*
X154020183Y-96926386D01*
X155886696Y-97622640D01*
X156188713Y-97763408D01*
X154907639Y-98307009D01*
X153046711Y-99028826D01*
X152993484Y-99048706D01*
X152971100Y-99058015D01*
X152960676Y-99061984D01*
X153171849Y-98745942D01*
X153361998Y-97790000D01*
X153171849Y-96834058D01*
X152970924Y-96533353D01*
X153734225Y-96819460D01*
X153734225Y-96819460D01*
G37*
X153734225Y-96819460D02*
X153735275Y-96820108D01*
X153876644Y-96872842D01*
X154018957Y-96926185D01*
X154020183Y-96926386D01*
X155886696Y-97622640D01*
X156188713Y-97763408D01*
X154907639Y-98307009D01*
X153046711Y-99028826D01*
X152993484Y-99048706D01*
X152971100Y-99058015D01*
X152960676Y-99061984D01*
X153171849Y-98745942D01*
X153361998Y-97790000D01*
X153171849Y-96834058D01*
X152970924Y-96533353D01*
X153734225Y-96819460D01*
G36*
X99895593Y-97419000D02*
X99895593Y-98669000D01*
X99926363Y-98823691D01*
X98512007Y-98322120D01*
X97515723Y-97914212D01*
X97864449Y-97760873D01*
X97909121Y-97743802D01*
X99801176Y-97087922D01*
X99801905Y-97087821D01*
X99945790Y-97037792D01*
X99973318Y-97028250D01*
X99895593Y-97419000D01*
X99895593Y-97419000D01*
G37*
X99895593Y-97419000D02*
X99895593Y-98669000D01*
X99926363Y-98823691D01*
X98512007Y-98322120D01*
X97515723Y-97914212D01*
X97864449Y-97760873D01*
X97909121Y-97743802D01*
X99801176Y-97087922D01*
X99801905Y-97087821D01*
X99945790Y-97037792D01*
X99973318Y-97028250D01*
X99895593Y-97419000D01*
G36*
X105126296Y-78673883D02*
X105129341Y-78678561D01*
X105172495Y-78784223D01*
X105189075Y-78819997D01*
X105205811Y-78859957D01*
X105491488Y-79465000D01*
X105326665Y-79465000D01*
X104426187Y-79837991D01*
X103736991Y-80527187D01*
X103364000Y-81427665D01*
X103364000Y-82402335D01*
X103736991Y-83302813D01*
X104426187Y-83992009D01*
X104843823Y-84165000D01*
X104426187Y-84337991D01*
X103736991Y-85027187D01*
X103364000Y-85927665D01*
X103364000Y-86902335D01*
X103736991Y-87802813D01*
X104239000Y-88304822D01*
X104239000Y-88534841D01*
X103965428Y-88474691D01*
X103832047Y-88460672D01*
X103699510Y-88439977D01*
X103677883Y-88439194D01*
X102998669Y-88419335D01*
X102898383Y-88409661D01*
X100260498Y-88674808D01*
X100701813Y-88492009D01*
X101391009Y-87802813D01*
X101764000Y-86902335D01*
X101764000Y-85927665D01*
X101391009Y-85027187D01*
X100701813Y-84337991D01*
X100284177Y-84165000D01*
X100701813Y-83992009D01*
X101391009Y-83302813D01*
X101764000Y-82402335D01*
X101764000Y-81427665D01*
X101391009Y-80527187D01*
X100701813Y-79837991D01*
X99801335Y-79465000D01*
X98826665Y-79465000D01*
X97926187Y-79837991D01*
X97236991Y-80527187D01*
X96864000Y-81427665D01*
X96864000Y-82402335D01*
X97236991Y-83302813D01*
X97926187Y-83992009D01*
X98343823Y-84165000D01*
X97926187Y-84337991D01*
X97236991Y-85027187D01*
X96864000Y-85927665D01*
X96864000Y-86902335D01*
X97236991Y-87802813D01*
X97926187Y-88492009D01*
X98770861Y-88841885D01*
X95749286Y-89199746D01*
X92242795Y-83195807D01*
X90821205Y-80706407D01*
X90930000Y-80706407D01*
X91734939Y-80546295D01*
X92381890Y-80114015D01*
X92639058Y-80285849D01*
X93353698Y-80428000D01*
X94336302Y-80428000D01*
X95050942Y-80285849D01*
X95861351Y-79744351D01*
X96402849Y-78933942D01*
X96592998Y-77978000D01*
X96402849Y-77022058D01*
X95861351Y-76211649D01*
X95050942Y-75670151D01*
X94336302Y-75528000D01*
X93764997Y-75528000D01*
X95303967Y-75506343D01*
X103858898Y-75506343D01*
X105126296Y-78673883D01*
X105126296Y-78673883D01*
G37*
X105126296Y-78673883D02*
X105129341Y-78678561D01*
X105172495Y-78784223D01*
X105189075Y-78819997D01*
X105205811Y-78859957D01*
X105491488Y-79465000D01*
X105326665Y-79465000D01*
X104426187Y-79837991D01*
X103736991Y-80527187D01*
X103364000Y-81427665D01*
X103364000Y-82402335D01*
X103736991Y-83302813D01*
X104426187Y-83992009D01*
X104843823Y-84165000D01*
X104426187Y-84337991D01*
X103736991Y-85027187D01*
X103364000Y-85927665D01*
X103364000Y-86902335D01*
X103736991Y-87802813D01*
X104239000Y-88304822D01*
X104239000Y-88534841D01*
X103965428Y-88474691D01*
X103832047Y-88460672D01*
X103699510Y-88439977D01*
X103677883Y-88439194D01*
X102998669Y-88419335D01*
X102898383Y-88409661D01*
X100260498Y-88674808D01*
X100701813Y-88492009D01*
X101391009Y-87802813D01*
X101764000Y-86902335D01*
X101764000Y-85927665D01*
X101391009Y-85027187D01*
X100701813Y-84337991D01*
X100284177Y-84165000D01*
X100701813Y-83992009D01*
X101391009Y-83302813D01*
X101764000Y-82402335D01*
X101764000Y-81427665D01*
X101391009Y-80527187D01*
X100701813Y-79837991D01*
X99801335Y-79465000D01*
X98826665Y-79465000D01*
X97926187Y-79837991D01*
X97236991Y-80527187D01*
X96864000Y-81427665D01*
X96864000Y-82402335D01*
X97236991Y-83302813D01*
X97926187Y-83992009D01*
X98343823Y-84165000D01*
X97926187Y-84337991D01*
X97236991Y-85027187D01*
X96864000Y-85927665D01*
X96864000Y-86902335D01*
X97236991Y-87802813D01*
X97926187Y-88492009D01*
X98770861Y-88841885D01*
X95749286Y-89199746D01*
X92242795Y-83195807D01*
X90821205Y-80706407D01*
X90930000Y-80706407D01*
X91734939Y-80546295D01*
X92381890Y-80114015D01*
X92639058Y-80285849D01*
X93353698Y-80428000D01*
X94336302Y-80428000D01*
X95050942Y-80285849D01*
X95861351Y-79744351D01*
X96402849Y-78933942D01*
X96592998Y-77978000D01*
X96402849Y-77022058D01*
X95861351Y-76211649D01*
X95050942Y-75670151D01*
X94336302Y-75528000D01*
X93764997Y-75528000D01*
X95303967Y-75506343D01*
X103858898Y-75506343D01*
X105126296Y-78673883D01*
G36*
X140837562Y-81082962D02*
X140920293Y-81294391D01*
X140949771Y-81356000D01*
X140162321Y-81356000D01*
X140007199Y-81325144D01*
X139852077Y-81356000D01*
X139392666Y-81447383D01*
X138871688Y-81795488D01*
X138783816Y-81926998D01*
X131689100Y-89021715D01*
X131689100Y-88470285D01*
X134968803Y-85190583D01*
X135100312Y-85102712D01*
X135448417Y-84581734D01*
X135539800Y-84122323D01*
X135539800Y-84122322D01*
X135570656Y-83967201D01*
X135539800Y-83812079D01*
X135539800Y-81902800D01*
X137045878Y-81902800D01*
X137201000Y-81933656D01*
X137356122Y-81902800D01*
X137356123Y-81902800D01*
X137815534Y-81811417D01*
X138336512Y-81463312D01*
X138424385Y-81331800D01*
X138671458Y-81084727D01*
X139200698Y-81190000D01*
X140183302Y-81190000D01*
X140833871Y-81060594D01*
X140837562Y-81082962D01*
X140837562Y-81082962D01*
G37*
X140837562Y-81082962D02*
X140920293Y-81294391D01*
X140949771Y-81356000D01*
X140162321Y-81356000D01*
X140007199Y-81325144D01*
X139852077Y-81356000D01*
X139392666Y-81447383D01*
X138871688Y-81795488D01*
X138783816Y-81926998D01*
X131689100Y-89021715D01*
X131689100Y-88470285D01*
X134968803Y-85190583D01*
X135100312Y-85102712D01*
X135448417Y-84581734D01*
X135539800Y-84122323D01*
X135539800Y-84122322D01*
X135570656Y-83967201D01*
X135539800Y-83812079D01*
X135539800Y-81902800D01*
X137045878Y-81902800D01*
X137201000Y-81933656D01*
X137356122Y-81902800D01*
X137356123Y-81902800D01*
X137815534Y-81811417D01*
X138336512Y-81463312D01*
X138424385Y-81331800D01*
X138671458Y-81084727D01*
X139200698Y-81190000D01*
X140183302Y-81190000D01*
X140833871Y-81060594D01*
X140837562Y-81082962D01*
G36*
X129151094Y-84542454D02*
X129807394Y-84673000D01*
X131031614Y-84673000D01*
X129110098Y-86594517D01*
X128978589Y-86682388D01*
X128731356Y-87052400D01*
X128640776Y-87187963D01*
X127791063Y-86836000D01*
X127242300Y-86836000D01*
X127242300Y-86311785D01*
X129067492Y-84486593D01*
X129151094Y-84542454D01*
X129151094Y-84542454D01*
G37*
X129151094Y-84542454D02*
X129807394Y-84673000D01*
X131031614Y-84673000D01*
X129110098Y-86594517D01*
X128978589Y-86682388D01*
X128731356Y-87052400D01*
X128640776Y-87187963D01*
X127791063Y-86836000D01*
X127242300Y-86836000D01*
X127242300Y-86311785D01*
X129067492Y-84486593D01*
X129151094Y-84542454D01*
G36*
X118618501Y-83563187D02*
X118618501Y-86581322D01*
X117958302Y-86450000D01*
X116975698Y-86450000D01*
X116261058Y-86592151D01*
X116074570Y-86716758D01*
X116129000Y-86443123D01*
X116129000Y-86443122D01*
X116159856Y-86288001D01*
X116129000Y-86132879D01*
X116129000Y-81073685D01*
X118618501Y-83563187D01*
X118618501Y-83563187D01*
G37*
X118618501Y-83563187D02*
X118618501Y-86581322D01*
X117958302Y-86450000D01*
X116975698Y-86450000D01*
X116261058Y-86592151D01*
X116074570Y-86716758D01*
X116129000Y-86443123D01*
X116129000Y-86443122D01*
X116159856Y-86288001D01*
X116129000Y-86132879D01*
X116129000Y-81073685D01*
X118618501Y-83563187D01*
G36*
X112979001Y-84840000D02*
X107703822Y-84840000D01*
X107201813Y-84337991D01*
X106784177Y-84165000D01*
X107201813Y-83992009D01*
X107891009Y-83302813D01*
X108063351Y-82886742D01*
X108147303Y-82948816D01*
X108200597Y-82980183D01*
X108229415Y-83005535D01*
X108396060Y-83095224D01*
X108426563Y-83113177D01*
X108434091Y-83115693D01*
X108443588Y-83120804D01*
X108835195Y-83293438D01*
X108916950Y-83315711D01*
X108993048Y-83352991D01*
X109229989Y-83407911D01*
X109770123Y-83489117D01*
X109805546Y-83489117D01*
X109839839Y-83497987D01*
X110082984Y-83504150D01*
X110280007Y-83493659D01*
X110314702Y-83486538D01*
X110350079Y-83488333D01*
X110589498Y-83445488D01*
X111123258Y-83305998D01*
X111224188Y-83262748D01*
X111330647Y-83235818D01*
X111546885Y-83124469D01*
X112016034Y-82834199D01*
X112154846Y-82716495D01*
X112279827Y-82628546D01*
X112439876Y-82473263D01*
X112543951Y-82334477D01*
X112660080Y-82205627D01*
X112944117Y-81768710D01*
X112944121Y-81768706D01*
X112979000Y-81690467D01*
X112979001Y-84840000D01*
X112979001Y-84840000D01*
G37*
X112979001Y-84840000D02*
X107703822Y-84840000D01*
X107201813Y-84337991D01*
X106784177Y-84165000D01*
X107201813Y-83992009D01*
X107891009Y-83302813D01*
X108063351Y-82886742D01*
X108147303Y-82948816D01*
X108200597Y-82980183D01*
X108229415Y-83005535D01*
X108396060Y-83095224D01*
X108426563Y-83113177D01*
X108434091Y-83115693D01*
X108443588Y-83120804D01*
X108835195Y-83293438D01*
X108916950Y-83315711D01*
X108993048Y-83352991D01*
X109229989Y-83407911D01*
X109770123Y-83489117D01*
X109805546Y-83489117D01*
X109839839Y-83497987D01*
X110082984Y-83504150D01*
X110280007Y-83493659D01*
X110314702Y-83486538D01*
X110350079Y-83488333D01*
X110589498Y-83445488D01*
X111123258Y-83305998D01*
X111224188Y-83262748D01*
X111330647Y-83235818D01*
X111546885Y-83124469D01*
X112016034Y-82834199D01*
X112154846Y-82716495D01*
X112279827Y-82628546D01*
X112439876Y-82473263D01*
X112543951Y-82334477D01*
X112660080Y-82205627D01*
X112944117Y-81768710D01*
X112944121Y-81768706D01*
X112979000Y-81690467D01*
X112979001Y-84840000D01*
G36*
X126568000Y-74448978D02*
X126537144Y-74604100D01*
X126568000Y-74759222D01*
X126659383Y-75218633D01*
X127007488Y-75739612D01*
X127139000Y-75827485D01*
X127887490Y-76575976D01*
X127734920Y-77343000D01*
X127909546Y-78220906D01*
X128171535Y-78613000D01*
X127909546Y-79005094D01*
X127734920Y-79883000D01*
X127909546Y-80760906D01*
X128109164Y-81059656D01*
X127768188Y-81287488D01*
X127680316Y-81418998D01*
X124818100Y-84281215D01*
X124681827Y-84144941D01*
X124831160Y-84045160D01*
X124919884Y-83912376D01*
X124948834Y-83906617D01*
X125469812Y-83558512D01*
X125817917Y-83037534D01*
X125940156Y-82423000D01*
X125909300Y-82267877D01*
X125909300Y-61874344D01*
X126532939Y-61750295D01*
X126568001Y-61726867D01*
X126568000Y-74448978D01*
X126568000Y-74448978D01*
G37*
X126568000Y-74448978D02*
X126537144Y-74604100D01*
X126568000Y-74759222D01*
X126659383Y-75218633D01*
X127007488Y-75739612D01*
X127139000Y-75827485D01*
X127887490Y-76575976D01*
X127734920Y-77343000D01*
X127909546Y-78220906D01*
X128171535Y-78613000D01*
X127909546Y-79005094D01*
X127734920Y-79883000D01*
X127909546Y-80760906D01*
X128109164Y-81059656D01*
X127768188Y-81287488D01*
X127680316Y-81418998D01*
X124818100Y-84281215D01*
X124681827Y-84144941D01*
X124831160Y-84045160D01*
X124919884Y-83912376D01*
X124948834Y-83906617D01*
X125469812Y-83558512D01*
X125817917Y-83037534D01*
X125940156Y-82423000D01*
X125909300Y-82267877D01*
X125909300Y-61874344D01*
X126532939Y-61750295D01*
X126568001Y-61726867D01*
X126568000Y-74448978D01*
G36*
X141394888Y-74039013D02*
X141391053Y-74048410D01*
X141363968Y-74188410D01*
X141335067Y-74328057D01*
X141334989Y-74338207D01*
X141006993Y-76033615D01*
X140991065Y-76081171D01*
X140978056Y-76183189D01*
X140958525Y-76284144D01*
X140958788Y-76334288D01*
X140942511Y-76461931D01*
X140897942Y-76432151D01*
X140183302Y-76290000D01*
X139200698Y-76290000D01*
X138486058Y-76432151D01*
X138228890Y-76603985D01*
X137581939Y-76171705D01*
X136887488Y-76033570D01*
X138043798Y-75292819D01*
X138109759Y-75259459D01*
X139893174Y-73862177D01*
X139911101Y-73852515D01*
X140013163Y-73768166D01*
X140117468Y-73686445D01*
X140130750Y-73670987D01*
X141636340Y-72426705D01*
X141745582Y-72344513D01*
X141394888Y-74039013D01*
X141394888Y-74039013D01*
G37*
X141394888Y-74039013D02*
X141391053Y-74048410D01*
X141363968Y-74188410D01*
X141335067Y-74328057D01*
X141334989Y-74338207D01*
X141006993Y-76033615D01*
X140991065Y-76081171D01*
X140978056Y-76183189D01*
X140958525Y-76284144D01*
X140958788Y-76334288D01*
X140942511Y-76461931D01*
X140897942Y-76432151D01*
X140183302Y-76290000D01*
X139200698Y-76290000D01*
X138486058Y-76432151D01*
X138228890Y-76603985D01*
X137581939Y-76171705D01*
X136887488Y-76033570D01*
X138043798Y-75292819D01*
X138109759Y-75259459D01*
X139893174Y-73862177D01*
X139911101Y-73852515D01*
X140013163Y-73768166D01*
X140117468Y-73686445D01*
X140130750Y-73670987D01*
X141636340Y-72426705D01*
X141745582Y-72344513D01*
X141394888Y-74039013D01*
G36*
X112078454Y-72367521D02*
X113528038Y-73564251D01*
X113531692Y-73568663D01*
X113645640Y-73661338D01*
X113759064Y-73754978D01*
X113764116Y-73757697D01*
X115212230Y-74935474D01*
X115243271Y-74968794D01*
X115330412Y-75031593D01*
X115413761Y-75099382D01*
X115454025Y-75120676D01*
X116806033Y-76095010D01*
X116388058Y-76178151D01*
X116130890Y-76349985D01*
X115483939Y-75917705D01*
X114679000Y-75757593D01*
X113429000Y-75757593D01*
X112790001Y-75884698D01*
X112380914Y-73906424D01*
X112380870Y-73902791D01*
X112350000Y-73756929D01*
X112319821Y-73610987D01*
X112318406Y-73607642D01*
X112051709Y-72347478D01*
X112078454Y-72367521D01*
X112078454Y-72367521D01*
G37*
X112078454Y-72367521D02*
X113528038Y-73564251D01*
X113531692Y-73568663D01*
X113645640Y-73661338D01*
X113759064Y-73754978D01*
X113764116Y-73757697D01*
X115212230Y-74935474D01*
X115243271Y-74968794D01*
X115330412Y-75031593D01*
X115413761Y-75099382D01*
X115454025Y-75120676D01*
X116806033Y-76095010D01*
X116388058Y-76178151D01*
X116130890Y-76349985D01*
X115483939Y-75917705D01*
X114679000Y-75757593D01*
X113429000Y-75757593D01*
X112790001Y-75884698D01*
X112380914Y-73906424D01*
X112380870Y-73902791D01*
X112350000Y-73756929D01*
X112319821Y-73610987D01*
X112318406Y-73607642D01*
X112051709Y-72347478D01*
X112078454Y-72367521D01*
G36*
X88192667Y-75865667D02*
X88119444Y-75975252D01*
X88084841Y-75914658D01*
X88015200Y-75729591D01*
X88009786Y-75641599D01*
X88017689Y-75608878D01*
X88589010Y-75600839D01*
X88192667Y-75865667D01*
X88192667Y-75865667D01*
G37*
X88192667Y-75865667D02*
X88119444Y-75975252D01*
X88084841Y-75914658D01*
X88015200Y-75729591D01*
X88009786Y-75641599D01*
X88017689Y-75608878D01*
X88589010Y-75600839D01*
X88192667Y-75865667D01*
G36*
X92639058Y-75670151D02*
X92381890Y-75841985D01*
X91950201Y-75553539D01*
X93322385Y-75534229D01*
X92639058Y-75670151D01*
X92639058Y-75670151D01*
G37*
X92639058Y-75670151D02*
X92381890Y-75841985D01*
X91950201Y-75553539D01*
X93322385Y-75534229D01*
X92639058Y-75670151D01*
G36*
X134900838Y-66322286D02*
X132998387Y-68816528D01*
X132994957Y-68823534D01*
X132677166Y-69248919D01*
X132662317Y-69270274D01*
X132646754Y-69291085D01*
X132637551Y-69304455D01*
X131341117Y-71209215D01*
X131323253Y-71237483D01*
X131318179Y-71243907D01*
X131306614Y-71262200D01*
X131276106Y-71311206D01*
X131257589Y-71348668D01*
X131236897Y-71386953D01*
X131207443Y-71433515D01*
X131197848Y-71452914D01*
X130833386Y-72202953D01*
X130784630Y-72334643D01*
X130733997Y-72465752D01*
X130728354Y-72486645D01*
X130710926Y-72553000D01*
X129807394Y-72553000D01*
X129718000Y-72570782D01*
X129718000Y-61515895D01*
X129848942Y-61489849D01*
X130659351Y-60948351D01*
X131200849Y-60137942D01*
X131248865Y-59896548D01*
X134900838Y-66322286D01*
X134900838Y-66322286D01*
G37*
X134900838Y-66322286D02*
X132998387Y-68816528D01*
X132994957Y-68823534D01*
X132677166Y-69248919D01*
X132662317Y-69270274D01*
X132646754Y-69291085D01*
X132637551Y-69304455D01*
X131341117Y-71209215D01*
X131323253Y-71237483D01*
X131318179Y-71243907D01*
X131306614Y-71262200D01*
X131276106Y-71311206D01*
X131257589Y-71348668D01*
X131236897Y-71386953D01*
X131207443Y-71433515D01*
X131197848Y-71452914D01*
X130833386Y-72202953D01*
X130784630Y-72334643D01*
X130733997Y-72465752D01*
X130728354Y-72486645D01*
X130710926Y-72553000D01*
X129807394Y-72553000D01*
X129718000Y-72570782D01*
X129718000Y-61515895D01*
X129848942Y-61489849D01*
X130659351Y-60948351D01*
X131200849Y-60137942D01*
X131248865Y-59896548D01*
X134900838Y-66322286D01*
G36*
X122534705Y-60611939D02*
X122759301Y-60948070D01*
X122759300Y-72415217D01*
X122737400Y-72336176D01*
X122421920Y-71491800D01*
X122409029Y-71464757D01*
X122380901Y-71392632D01*
X122337827Y-71305304D01*
X121774296Y-70247893D01*
X121759446Y-70223377D01*
X121746422Y-70197841D01*
X121694862Y-70115239D01*
X120938920Y-68984856D01*
X120920329Y-68946179D01*
X118958462Y-66335356D01*
X122444196Y-60156917D01*
X122534705Y-60611939D01*
X122534705Y-60611939D01*
G37*
X122534705Y-60611939D02*
X122759301Y-60948070D01*
X122759300Y-72415217D01*
X122737400Y-72336176D01*
X122421920Y-71491800D01*
X122409029Y-71464757D01*
X122380901Y-71392632D01*
X122337827Y-71305304D01*
X121774296Y-70247893D01*
X121759446Y-70223377D01*
X121746422Y-70197841D01*
X121694862Y-70115239D01*
X120938920Y-68984856D01*
X120920329Y-68946179D01*
X118958462Y-66335356D01*
X122444196Y-60156917D01*
X122534705Y-60611939D01*
G36*
X128910764Y-55846736D02*
X129461984Y-56797180D01*
X129134302Y-56732000D01*
X128151698Y-56732000D01*
X127437058Y-56874151D01*
X127179890Y-57045985D01*
X126532939Y-56613705D01*
X125728000Y-56453593D01*
X124562092Y-56453593D01*
X124901286Y-55864103D01*
X125223699Y-55331275D01*
X125293025Y-55400601D01*
X125295606Y-55418361D01*
X125322671Y-55430247D01*
X125343573Y-55451149D01*
X125813423Y-55645767D01*
X126279073Y-55850264D01*
X126308627Y-55850888D01*
X126335937Y-55862200D01*
X126844512Y-55862200D01*
X127352961Y-55872933D01*
X127380503Y-55862200D01*
X127410063Y-55862200D01*
X127879926Y-55667576D01*
X128353779Y-55482917D01*
X128399523Y-55452352D01*
X128402427Y-55451149D01*
X128404650Y-55448926D01*
X128450394Y-55418361D01*
X128452975Y-55400601D01*
X128568001Y-55285575D01*
X128910764Y-55846736D01*
X128910764Y-55846736D01*
G37*
X128910764Y-55846736D02*
X129461984Y-56797180D01*
X129134302Y-56732000D01*
X128151698Y-56732000D01*
X127437058Y-56874151D01*
X127179890Y-57045985D01*
X126532939Y-56613705D01*
X125728000Y-56453593D01*
X124562092Y-56453593D01*
X124901286Y-55864103D01*
X125223699Y-55331275D01*
X125293025Y-55400601D01*
X125295606Y-55418361D01*
X125322671Y-55430247D01*
X125343573Y-55451149D01*
X125813423Y-55645767D01*
X126279073Y-55850264D01*
X126308627Y-55850888D01*
X126335937Y-55862200D01*
X126844512Y-55862200D01*
X127352961Y-55872933D01*
X127380503Y-55862200D01*
X127410063Y-55862200D01*
X127879926Y-55667576D01*
X128353779Y-55482917D01*
X128399523Y-55452352D01*
X128402427Y-55451149D01*
X128404650Y-55448926D01*
X128450394Y-55418361D01*
X128452975Y-55400601D01*
X128568001Y-55285575D01*
X128910764Y-55846736D01*
M02*
