M48
;DRILL file {KiCad (5.0.0)} date 11/01/18 22:37:01
;FORMAT={-:-/ absolute / metric / decimal}
FMAT,2
METRIC,TZ
T1C0.400
T2C0.800
T3C0.900
T4C1.000
T5C1.100
T6C1.200
T7C2.000
%
G90
G05
M71
T1
X120.194Y-107.413
X121.038Y-86.479
X123.062Y-87.052
X129.389Y-117.688
X131.484Y-100.015
T2
X123.317Y-113.03
X123.317Y-115.57
X123.317Y-118.11
X123.317Y-120.65
X123.317Y-123.19
X123.317Y-125.73
X123.317Y-128.27
X123.317Y-130.81
X130.937Y-113.03
X130.937Y-115.57
X130.937Y-118.11
X130.937Y-120.65
X130.937Y-123.19
X130.937Y-125.73
X130.937Y-128.27
X130.937Y-130.81
X122.809Y-74.803
X122.809Y-77.343
X122.809Y-79.883
X122.809Y-82.423
X130.429Y-74.803
X130.429Y-77.343
X130.429Y-79.883
X130.429Y-82.423
T3
X159.131Y-117.602
X161.671Y-117.602
X125.603Y-59.182
X128.143Y-59.182
X137.16Y-88.9
X139.7Y-88.9
X90.805Y-77.978
X93.345Y-77.978
X103.124Y-98.044
X105.664Y-98.044
X114.554Y-78.486
X117.094Y-78.486
X114.3Y-118.11
X116.84Y-118.11
X137.16Y-106.68
X139.7Y-106.68
X125.476Y-137.541
X128.016Y-137.541
X136.779Y-117.348
X139.319Y-117.348
X159.004Y-78.613
X161.544Y-78.613
X91.44Y-117.602
X93.98Y-117.602
X147.574Y-97.79
X150.114Y-97.79
X136.652Y-78.74
X139.192Y-78.74
X114.427Y-88.9
X116.967Y-88.9
X114.935Y-106.68
X117.475Y-106.68
T4
X151.13Y-80.391
X151.13Y-82.931
X151.13Y-85.471
T5
X99.314Y-81.915
X99.314Y-86.415
X105.814Y-81.915
X105.814Y-86.415
T6
X127.254Y-89.536
X127.254Y-109.036
T7
X126.873Y-53.162
T0
M30
